<svg xmlns="http://www.w3.org/2000/svg" xmlns:xlink="http://www.w3.org/1999/xlink" width="1324" height="507" viewBox="0 0 1324 507"><defs><style>.a{fill:#fff;}.b{clip-path:url(#a);}.c{fill:url(#b);}.d{fill:url(#c);}.e{fill:url(#d);}.f{fill:url(#e);}.g{fill:url(#g);}.h{fill:url(#h);}.i{fill:url(#i);}.j{fill:url(#j);}.k{fill:#004080;}</style><clipPath id="a"><rect class="a" width="1324" height="507" transform="translate(164.333 58)"/></clipPath><linearGradient id="b" x1="-0.122" y1="0.104" x2="0.935" y2="0.529" gradientUnits="objectBoundingBox"><stop offset="0" stop-color="#0077ec"/><stop offset="1" stop-color="#03e6b0"/></linearGradient><linearGradient id="c" x1="0.154" y1="0.727" x2="0.89" y2="0.168" xlink:href="#b"/><linearGradient id="d" x1="0" y1="0.5" x2="1" y2="0.5" xlink:href="#b"/><linearGradient id="e" x1="0.301" y1="1.111" x2="0.549" y2="0.333" xlink:href="#b"/><linearGradient id="g" x1="1.084" y1="0" x2="-0.064" y2="1.047" xlink:href="#b"/><linearGradient id="h" x1="-0.036" y1="0.5" x2="7.015" y2="0.5" xlink:href="#b"/><linearGradient id="i" x1="-3.036" y1="0.5" x2="4.015" y2="0.5" xlink:href="#b"/><linearGradient id="j" x1="-6.036" y1="0.5" x2="1.015" y2="0.5" xlink:href="#b"/></defs><g class="b" transform="translate(-164.333 -58)"><g transform="translate(-1 -7)"><path class="c" d="M883.475-41.679c-8.641,83.28-90.848,140.4-164.787,152.692C577.26,134.547,442.576,72.826,303.079,62.852c-56.471-4.028-118.406-2.071-172.5,20.254A164.2,164.2,0,0,0,74.5,120.968v-480H734c11.837,54.644,47.106,103.822,79.141,148.108C847.445-163.511,890.128-105.894,883.475-41.679Z" transform="translate(53.833 412.032)"/><path class="d" d="M883.475-196.385c-8.641-83.28-90.848-140.4-164.787-152.692C577.26-372.612,442.576-310.89,303.079-300.916c-56.471,4.028-118.406,2.071-172.5-20.254A164.2,164.2,0,0,1,74.5-359.032v480H734C745.837,66.324,781.106,17.146,813.142-27.14,847.445-74.554,890.128-132.17,883.475-196.385Z" transform="translate(-257.642 271.775)"/><path class="e" d="M1111.58-359.032c-18.834,18.214-32.555,40.936-47.108,66.336-41.345,72.16-86.26,158.269-182.564,152.913C775.029-145.728,672.916-201.444,603.07-282.56a402.4,402.4,0,0,1-52.01-76.472Z" transform="translate(386.94 419.032)"/><path class="f" d="M551.06-359.032c18.834,18.214,32.555,40.936,47.108,66.336,41.345,72.16,86.26,158.269,182.564,152.913,106.879-5.945,208.993-61.662,278.838-142.778a402.4,402.4,0,0,0,52.01-76.472Z" transform="translate(322.09 299.288)"/><path class="e" d="M1090.853-202.372V12.764H464.52C498.637-60.47,574-103.8,655.974-99.288c58.247,3.207,113.044,22.745,171.794,21.644C901.9-79.016,976.3-102.3,1035.5-147.494,1056.423-163.472,1074.562-182.114,1090.853-202.372Z" transform="translate(410.48 576.177)"/><path class="g" d="M1090.853-202.372V12.764H464.52C498.637-60.47,574-103.8,655.974-99.288c58.247,3.207,113.044,22.745,171.794,21.644C901.9-79.016,976.3-102.3,1035.5-147.494,1056.423-163.472,1074.562-182.114,1090.853-202.372Z" transform="translate(609.48 619.804)"/><g transform="translate(548.01 441.234)"><g transform="translate(713.99 -331.234)"><path class="a" d="M730.107-299.142a2.271,2.271,0,0,1-1.665-.687l-13.695-13.693a2.179,2.179,0,0,1-.757-1.667,2.2,2.2,0,0,1,.79-1.695l13.662-13.663a2.271,2.271,0,0,1,1.665-.687,2.271,2.271,0,0,1,1.665.687l1.554,1.552a2.418,2.418,0,0,1,.721,1.632,2.185,2.185,0,0,1-.651,1.7l-10.475,10.475L733.4-304.713a2.188,2.188,0,0,1,.651,1.7,2.418,2.418,0,0,1-.721,1.632l-1.554,1.552A2.269,2.269,0,0,1,730.107-299.142Zm-.734-30.474L715.68-315.922a.913.913,0,0,0-.372.733.879.879,0,0,0,.339.705l13.726,13.724a1.031,1.031,0,0,0,1.469,0l1.552-1.552a1.107,1.107,0,0,0,.338-.767.857.857,0,0,0-.268-.7l-11.406-11.407,11.406-11.406a.857.857,0,0,0,.268-.7,1.107,1.107,0,0,0-.338-.767l-1.552-1.552a1.029,1.029,0,0,0-1.469,0Z" transform="translate(-713.99 331.234)"/><g transform="translate(30.989)"><path class="a" d="M749.09-299.142a2.275,2.275,0,0,1-1.667-.687L733.73-313.522a2.172,2.172,0,0,1-.757-1.667,2.2,2.2,0,0,1,.79-1.695l13.66-13.663a2.277,2.277,0,0,1,1.667-.687,2.281,2.281,0,0,1,1.665.686l1.552,1.554a2.411,2.411,0,0,1,.721,1.632,2.19,2.19,0,0,1-.65,1.7L741.9-315.189l10.475,10.475a2.193,2.193,0,0,1,.65,1.7,2.411,2.411,0,0,1-.721,1.632l-1.552,1.552A2.277,2.277,0,0,1,749.09-299.142Zm-.735-30.474-13.694,13.695a.915.915,0,0,0-.371.733.878.878,0,0,0,.339.705l13.726,13.724a1.03,1.03,0,0,0,1.469,0l1.552-1.552a1.106,1.106,0,0,0,.336-.767.856.856,0,0,0-.266-.7l-11.406-11.407,11.406-11.406a.856.856,0,0,0,.266-.7,1.106,1.106,0,0,0-.336-.767l-1.552-1.552a1.029,1.029,0,0,0-1.469,0Z" transform="translate(-732.973 331.234)"/></g><g transform="translate(61.977)"><path class="a" d="M768.073-299.142a2.275,2.275,0,0,1-1.667-.687l-13.693-13.693a2.172,2.172,0,0,1-.757-1.667,2.2,2.2,0,0,1,.788-1.695l13.662-13.663a2.274,2.274,0,0,1,1.667-.687,2.276,2.276,0,0,1,1.665.687l1.552,1.552a2.41,2.41,0,0,1,.722,1.632,2.185,2.185,0,0,1-.651,1.7l-10.475,10.475,10.475,10.475a2.188,2.188,0,0,1,.651,1.7,2.411,2.411,0,0,1-.722,1.632l-1.552,1.552A2.274,2.274,0,0,1,768.073-299.142Zm-.734-30.474-13.695,13.695a.918.918,0,0,0-.372.733.883.883,0,0,0,.339.705l13.727,13.724a1.028,1.028,0,0,0,1.468,0l1.554-1.552a1.105,1.105,0,0,0,.336-.767.855.855,0,0,0-.266-.7l-11.407-11.407,11.407-11.406a.855.855,0,0,0,.266-.7,1.105,1.105,0,0,0-.336-.767l-1.554-1.552a1.027,1.027,0,0,0-1.468,0Z" transform="translate(-751.956 331.234)"/></g><g transform="translate(92.964)"><path class="a" d="M787.055-299.142a2.271,2.271,0,0,1-1.665-.687L771.7-313.522a2.175,2.175,0,0,1-.757-1.667,2.2,2.2,0,0,1,.79-1.695l13.662-13.663a2.271,2.271,0,0,1,1.665-.687,2.271,2.271,0,0,1,1.665.687l1.554,1.552a2.418,2.418,0,0,1,.721,1.632,2.185,2.185,0,0,1-.651,1.7l-10.475,10.475,10.475,10.475a2.189,2.189,0,0,1,.651,1.7,2.418,2.418,0,0,1-.721,1.632l-1.554,1.552A2.271,2.271,0,0,1,787.055-299.142Zm0-30.776a.979.979,0,0,0-.734.3l-13.693,13.695a.913.913,0,0,0-.372.733.878.878,0,0,0,.34.705L786.32-300.76a1.03,1.03,0,0,0,1.469,0l1.552-1.552a1.1,1.1,0,0,0,.338-.767.861.861,0,0,0-.266-.7l-11.407-11.407,11.407-11.406a.861.861,0,0,0,.266-.7,1.1,1.1,0,0,0-.338-.767l-1.552-1.552A.979.979,0,0,0,787.055-329.918Z" transform="translate(-770.938 331.234)"/></g><g transform="translate(123.953)"><path class="a" d="M806.038-299.142a2.271,2.271,0,0,1-1.665-.687l-13.694-13.693a2.175,2.175,0,0,1-.757-1.667,2.206,2.206,0,0,1,.788-1.695l13.664-13.663a2.271,2.271,0,0,1,1.665-.687,2.274,2.274,0,0,1,1.665.687l1.552,1.552a2.408,2.408,0,0,1,.722,1.632,2.178,2.178,0,0,1-.65,1.7l-10.475,10.475,10.475,10.475a2.182,2.182,0,0,1,.65,1.7,2.4,2.4,0,0,1-.722,1.632l-1.552,1.552A2.274,2.274,0,0,1,806.038-299.142Zm0-30.776a.979.979,0,0,0-.735.3l-13.694,13.695a.915.915,0,0,0-.37.733.878.878,0,0,0,.339.705L805.3-300.76a1.03,1.03,0,0,0,1.469,0l1.552-1.552a1.106,1.106,0,0,0,.336-.769.854.854,0,0,0-.266-.7l-11.406-11.407L808.4-326.595a.856.856,0,0,0,.266-.7,1.105,1.105,0,0,0-.336-.767l-1.552-1.552A.984.984,0,0,0,806.038-329.918Z" transform="translate(-789.921 331.234)"/></g><g transform="translate(154.939)"><path class="a" d="M825.02-299.142a2.277,2.277,0,0,1-1.665-.687L809.66-313.522a2.175,2.175,0,0,1-.757-1.667,2.2,2.2,0,0,1,.79-1.695l13.662-13.665a2.282,2.282,0,0,1,1.665-.686,2.277,2.277,0,0,1,1.667.687l1.552,1.552a2.415,2.415,0,0,1,.722,1.632,2.186,2.186,0,0,1-.651,1.7l-10.475,10.474,10.475,10.475a2.187,2.187,0,0,1,.651,1.7,2.412,2.412,0,0,1-.722,1.632l-1.552,1.552A2.275,2.275,0,0,1,825.02-299.142Zm-.735-30.474-13.693,13.695a.913.913,0,0,0-.372.733.875.875,0,0,0,.341.705l13.724,13.724a1.03,1.03,0,0,0,1.469,0l1.554-1.552a1.105,1.105,0,0,0,.336-.769.859.859,0,0,0-.266-.7l-11.406-11.407,11.406-11.406a.861.861,0,0,0,.266-.7,1.1,1.1,0,0,0-.336-.767l-1.554-1.552a1.029,1.029,0,0,0-1.469,0Z" transform="translate(-808.903 331.234)"/></g></g></g><g transform="translate(1843.99 225.858) rotate(180)"><g transform="translate(713.99 -331.234)"><path class="a" d="M730.107-299.142a2.271,2.271,0,0,1-1.665-.687l-13.695-13.693a2.179,2.179,0,0,1-.757-1.667,2.2,2.2,0,0,1,.79-1.695l13.662-13.663a2.271,2.271,0,0,1,1.665-.687,2.271,2.271,0,0,1,1.665.687l1.554,1.552a2.418,2.418,0,0,1,.721,1.632,2.185,2.185,0,0,1-.651,1.7l-10.475,10.475L733.4-304.713a2.188,2.188,0,0,1,.651,1.7,2.418,2.418,0,0,1-.721,1.632l-1.554,1.552A2.269,2.269,0,0,1,730.107-299.142Zm-.734-30.474L715.68-315.922a.913.913,0,0,0-.372.733.879.879,0,0,0,.339.705l13.726,13.724a1.031,1.031,0,0,0,1.469,0l1.552-1.552a1.107,1.107,0,0,0,.338-.767.857.857,0,0,0-.268-.7l-11.406-11.407,11.406-11.406a.857.857,0,0,0,.268-.7,1.107,1.107,0,0,0-.338-.767l-1.552-1.552a1.029,1.029,0,0,0-1.469,0Z" transform="translate(-713.99 331.234)"/><g transform="translate(30.989)"><path class="a" d="M749.09-299.142a2.275,2.275,0,0,1-1.667-.687L733.73-313.522a2.172,2.172,0,0,1-.757-1.667,2.2,2.2,0,0,1,.79-1.695l13.66-13.663a2.277,2.277,0,0,1,1.667-.687,2.281,2.281,0,0,1,1.665.686l1.552,1.554a2.411,2.411,0,0,1,.721,1.632,2.19,2.19,0,0,1-.65,1.7L741.9-315.189l10.475,10.475a2.193,2.193,0,0,1,.65,1.7,2.411,2.411,0,0,1-.721,1.632l-1.552,1.552A2.277,2.277,0,0,1,749.09-299.142Zm-.735-30.474-13.694,13.695a.915.915,0,0,0-.371.733.878.878,0,0,0,.339.705l13.726,13.724a1.03,1.03,0,0,0,1.469,0l1.552-1.552a1.106,1.106,0,0,0,.336-.767.856.856,0,0,0-.266-.7l-11.406-11.407,11.406-11.406a.856.856,0,0,0,.266-.7,1.106,1.106,0,0,0-.336-.767l-1.552-1.552a1.029,1.029,0,0,0-1.469,0Z" transform="translate(-732.973 331.234)"/></g><g transform="translate(61.977)"><path class="a" d="M768.073-299.142a2.275,2.275,0,0,1-1.667-.687l-13.693-13.693a2.172,2.172,0,0,1-.757-1.667,2.2,2.2,0,0,1,.788-1.695l13.662-13.663a2.274,2.274,0,0,1,1.667-.687,2.276,2.276,0,0,1,1.665.687l1.552,1.552a2.41,2.41,0,0,1,.722,1.632,2.185,2.185,0,0,1-.651,1.7l-10.475,10.475,10.475,10.475a2.188,2.188,0,0,1,.651,1.7,2.411,2.411,0,0,1-.722,1.632l-1.552,1.552A2.274,2.274,0,0,1,768.073-299.142Zm-.734-30.474-13.695,13.695a.918.918,0,0,0-.372.733.883.883,0,0,0,.339.705l13.727,13.724a1.028,1.028,0,0,0,1.468,0l1.554-1.552a1.105,1.105,0,0,0,.336-.767.855.855,0,0,0-.266-.7l-11.407-11.407,11.407-11.406a.855.855,0,0,0,.266-.7,1.105,1.105,0,0,0-.336-.767l-1.554-1.552a1.027,1.027,0,0,0-1.468,0Z" transform="translate(-751.956 331.234)"/></g><g transform="translate(92.964)"><path class="a" d="M787.055-299.142a2.271,2.271,0,0,1-1.665-.687L771.7-313.522a2.175,2.175,0,0,1-.757-1.667,2.2,2.2,0,0,1,.79-1.695l13.662-13.663a2.271,2.271,0,0,1,1.665-.687,2.271,2.271,0,0,1,1.665.687l1.554,1.552a2.418,2.418,0,0,1,.721,1.632,2.185,2.185,0,0,1-.651,1.7l-10.475,10.475,10.475,10.475a2.189,2.189,0,0,1,.651,1.7,2.418,2.418,0,0,1-.721,1.632l-1.554,1.552A2.271,2.271,0,0,1,787.055-299.142Zm0-30.776a.979.979,0,0,0-.734.3l-13.693,13.695a.913.913,0,0,0-.372.733.878.878,0,0,0,.34.705L786.32-300.76a1.03,1.03,0,0,0,1.469,0l1.552-1.552a1.1,1.1,0,0,0,.338-.767.861.861,0,0,0-.266-.7l-11.407-11.407,11.407-11.406a.861.861,0,0,0,.266-.7,1.1,1.1,0,0,0-.338-.767l-1.552-1.552A.979.979,0,0,0,787.055-329.918Z" transform="translate(-770.938 331.234)"/></g><g transform="translate(123.953)"><path class="a" d="M806.038-299.142a2.271,2.271,0,0,1-1.665-.687l-13.694-13.693a2.175,2.175,0,0,1-.757-1.667,2.206,2.206,0,0,1,.788-1.695l13.664-13.663a2.271,2.271,0,0,1,1.665-.687,2.274,2.274,0,0,1,1.665.687l1.552,1.552a2.408,2.408,0,0,1,.722,1.632,2.178,2.178,0,0,1-.65,1.7l-10.475,10.475,10.475,10.475a2.182,2.182,0,0,1,.65,1.7,2.4,2.4,0,0,1-.722,1.632l-1.552,1.552A2.274,2.274,0,0,1,806.038-299.142Zm0-30.776a.979.979,0,0,0-.735.3l-13.694,13.695a.915.915,0,0,0-.37.733.878.878,0,0,0,.339.705L805.3-300.76a1.03,1.03,0,0,0,1.469,0l1.552-1.552a1.106,1.106,0,0,0,.336-.769.854.854,0,0,0-.266-.7l-11.406-11.407L808.4-326.595a.856.856,0,0,0,.266-.7,1.105,1.105,0,0,0-.336-.767l-1.552-1.552A.984.984,0,0,0,806.038-329.918Z" transform="translate(-789.921 331.234)"/></g><g transform="translate(154.939)"><path class="a" d="M825.02-299.142a2.277,2.277,0,0,1-1.665-.687L809.66-313.522a2.175,2.175,0,0,1-.757-1.667,2.2,2.2,0,0,1,.79-1.695l13.662-13.665a2.282,2.282,0,0,1,1.665-.686,2.277,2.277,0,0,1,1.667.687l1.552,1.552a2.415,2.415,0,0,1,.722,1.632,2.186,2.186,0,0,1-.651,1.7l-10.475,10.474,10.475,10.475a2.187,2.187,0,0,1,.651,1.7,2.412,2.412,0,0,1-.722,1.632l-1.552,1.552A2.275,2.275,0,0,1,825.02-299.142Zm-.735-30.474-13.693,13.695a.913.913,0,0,0-.372.733.875.875,0,0,0,.341.705l13.724,13.724a1.03,1.03,0,0,0,1.469,0l1.554-1.552a1.105,1.105,0,0,0,.336-.769.859.859,0,0,0-.266-.7l-11.406-11.407,11.406-11.406a.861.861,0,0,0,.266-.7,1.1,1.1,0,0,0-.336-.767l-1.554-1.552a1.029,1.029,0,0,0-1.469,0Z" transform="translate(-808.903 331.234)"/></g></g></g><g transform="translate(1326.99 185.025) rotate(180)"><g transform="translate(713.99 -331.234)"><path class="a" d="M730.107-299.142a2.271,2.271,0,0,1-1.665-.687l-13.695-13.693a2.179,2.179,0,0,1-.757-1.667,2.2,2.2,0,0,1,.79-1.695l13.662-13.663a2.271,2.271,0,0,1,1.665-.687,2.271,2.271,0,0,1,1.665.687l1.554,1.552a2.418,2.418,0,0,1,.721,1.632,2.185,2.185,0,0,1-.651,1.7l-10.475,10.475L733.4-304.713a2.188,2.188,0,0,1,.651,1.7,2.418,2.418,0,0,1-.721,1.632l-1.554,1.552A2.269,2.269,0,0,1,730.107-299.142Zm-.734-30.474L715.68-315.922a.913.913,0,0,0-.372.733.879.879,0,0,0,.339.705l13.726,13.724a1.031,1.031,0,0,0,1.469,0l1.552-1.552a1.107,1.107,0,0,0,.338-.767.857.857,0,0,0-.268-.7l-11.406-11.407,11.406-11.406a.857.857,0,0,0,.268-.7,1.107,1.107,0,0,0-.338-.767l-1.552-1.552a1.029,1.029,0,0,0-1.469,0Z" transform="translate(-713.99 331.234)"/><g transform="translate(30.989)"><path class="a" d="M749.09-299.142a2.275,2.275,0,0,1-1.667-.687L733.73-313.522a2.172,2.172,0,0,1-.757-1.667,2.2,2.2,0,0,1,.79-1.695l13.66-13.663a2.277,2.277,0,0,1,1.667-.687,2.281,2.281,0,0,1,1.665.686l1.552,1.554a2.411,2.411,0,0,1,.721,1.632,2.19,2.19,0,0,1-.65,1.7L741.9-315.189l10.475,10.475a2.193,2.193,0,0,1,.65,1.7,2.411,2.411,0,0,1-.721,1.632l-1.552,1.552A2.277,2.277,0,0,1,749.09-299.142Zm-.735-30.474-13.694,13.695a.915.915,0,0,0-.371.733.878.878,0,0,0,.339.705l13.726,13.724a1.03,1.03,0,0,0,1.469,0l1.552-1.552a1.106,1.106,0,0,0,.336-.767.856.856,0,0,0-.266-.7l-11.406-11.407,11.406-11.406a.856.856,0,0,0,.266-.7,1.106,1.106,0,0,0-.336-.767l-1.552-1.552a1.029,1.029,0,0,0-1.469,0Z" transform="translate(-732.973 331.234)"/></g><g transform="translate(61.977)"><path class="a" d="M768.073-299.142a2.275,2.275,0,0,1-1.667-.687l-13.693-13.693a2.172,2.172,0,0,1-.757-1.667,2.2,2.2,0,0,1,.788-1.695l13.662-13.663a2.274,2.274,0,0,1,1.667-.687,2.276,2.276,0,0,1,1.665.687l1.552,1.552a2.41,2.41,0,0,1,.722,1.632,2.185,2.185,0,0,1-.651,1.7l-10.475,10.475,10.475,10.475a2.188,2.188,0,0,1,.651,1.7,2.411,2.411,0,0,1-.722,1.632l-1.552,1.552A2.274,2.274,0,0,1,768.073-299.142Zm-.734-30.474-13.695,13.695a.918.918,0,0,0-.372.733.883.883,0,0,0,.339.705l13.727,13.724a1.028,1.028,0,0,0,1.468,0l1.554-1.552a1.105,1.105,0,0,0,.336-.767.855.855,0,0,0-.266-.7l-11.407-11.407,11.407-11.406a.855.855,0,0,0,.266-.7,1.105,1.105,0,0,0-.336-.767l-1.554-1.552a1.027,1.027,0,0,0-1.468,0Z" transform="translate(-751.956 331.234)"/></g><g transform="translate(92.964)"><path class="a" d="M787.055-299.142a2.271,2.271,0,0,1-1.665-.687L771.7-313.522a2.175,2.175,0,0,1-.757-1.667,2.2,2.2,0,0,1,.79-1.695l13.662-13.663a2.271,2.271,0,0,1,1.665-.687,2.271,2.271,0,0,1,1.665.687l1.554,1.552a2.418,2.418,0,0,1,.721,1.632,2.185,2.185,0,0,1-.651,1.7l-10.475,10.475,10.475,10.475a2.189,2.189,0,0,1,.651,1.7,2.418,2.418,0,0,1-.721,1.632l-1.554,1.552A2.271,2.271,0,0,1,787.055-299.142Zm0-30.776a.979.979,0,0,0-.734.3l-13.693,13.695a.913.913,0,0,0-.372.733.878.878,0,0,0,.34.705L786.32-300.76a1.03,1.03,0,0,0,1.469,0l1.552-1.552a1.1,1.1,0,0,0,.338-.767.861.861,0,0,0-.266-.7l-11.407-11.407,11.407-11.406a.861.861,0,0,0,.266-.7,1.1,1.1,0,0,0-.338-.767l-1.552-1.552A.979.979,0,0,0,787.055-329.918Z" transform="translate(-770.938 331.234)"/></g><g transform="translate(123.953)"><path class="a" d="M806.038-299.142a2.271,2.271,0,0,1-1.665-.687l-13.694-13.693a2.175,2.175,0,0,1-.757-1.667,2.206,2.206,0,0,1,.788-1.695l13.664-13.663a2.271,2.271,0,0,1,1.665-.687,2.274,2.274,0,0,1,1.665.687l1.552,1.552a2.408,2.408,0,0,1,.722,1.632,2.178,2.178,0,0,1-.65,1.7l-10.475,10.475,10.475,10.475a2.182,2.182,0,0,1,.65,1.7,2.4,2.4,0,0,1-.722,1.632l-1.552,1.552A2.274,2.274,0,0,1,806.038-299.142Zm0-30.776a.979.979,0,0,0-.735.3l-13.694,13.695a.915.915,0,0,0-.37.733.878.878,0,0,0,.339.705L805.3-300.76a1.03,1.03,0,0,0,1.469,0l1.552-1.552a1.106,1.106,0,0,0,.336-.769.854.854,0,0,0-.266-.7l-11.406-11.407L808.4-326.595a.856.856,0,0,0,.266-.7,1.105,1.105,0,0,0-.336-.767l-1.552-1.552A.984.984,0,0,0,806.038-329.918Z" transform="translate(-789.921 331.234)"/></g><g transform="translate(154.939)"><path class="a" d="M825.02-299.142a2.277,2.277,0,0,1-1.665-.687L809.66-313.522a2.175,2.175,0,0,1-.757-1.667,2.2,2.2,0,0,1,.79-1.695l13.662-13.665a2.282,2.282,0,0,1,1.665-.686,2.277,2.277,0,0,1,1.667.687l1.552,1.552a2.415,2.415,0,0,1,.722,1.632,2.186,2.186,0,0,1-.651,1.7l-10.475,10.474,10.475,10.475a2.187,2.187,0,0,1,.651,1.7,2.412,2.412,0,0,1-.722,1.632l-1.552,1.552A2.275,2.275,0,0,1,825.02-299.142Zm-.735-30.474-13.693,13.695a.913.913,0,0,0-.372.733.875.875,0,0,0,.341.705l13.724,13.724a1.03,1.03,0,0,0,1.469,0l1.554-1.552a1.105,1.105,0,0,0,.336-.769.859.859,0,0,0-.266-.7l-11.406-11.407,11.406-11.406a.861.861,0,0,0,.266-.7,1.1,1.1,0,0,0-.336-.767l-1.554-1.552a1.029,1.029,0,0,0-1.469,0Z" transform="translate(-808.903 331.234)"/></g></g></g><g transform="translate(527.563 517.711)"><circle class="h" cx="2.476" cy="2.476" r="2.476" transform="translate(874.778 -245.938)"/><circle class="i" cx="2.476" cy="2.476" r="2.476" transform="translate(889.632 -245.938)"/><circle class="j" cx="2.476" cy="2.476" r="2.476" transform="translate(904.486 -245.938)"/><circle class="h" cx="2.476" cy="2.476" r="2.476" transform="translate(874.778 -231.084)"/><circle class="h" cx="2.476" cy="2.476" r="2.476" transform="translate(874.778 -216.229)"/><circle class="h" cx="2.476" cy="2.476" r="2.476" transform="translate(874.778 -201.375)"/><circle class="h" cx="2.476" cy="2.476" r="2.476" transform="translate(874.778 -186.521)"/><circle class="h" cx="2.476" cy="2.476" r="2.476" transform="translate(874.778 -171.667)"/><circle class="i" cx="2.476" cy="2.476" r="2.476" transform="translate(889.632 -231.084)"/><circle class="i" cx="2.476" cy="2.476" r="2.476" transform="translate(889.632 -216.229)"/><circle class="i" cx="2.476" cy="2.476" r="2.476" transform="translate(889.632 -201.375)"/><circle class="i" cx="2.476" cy="2.476" r="2.476" transform="translate(889.632 -186.521)"/><circle class="i" cx="2.476" cy="2.476" r="2.476" transform="translate(889.632 -171.667)"/><circle class="j" cx="2.476" cy="2.476" r="2.476" transform="translate(904.486 -231.084)"/><circle class="j" cx="2.476" cy="2.476" r="2.476" transform="translate(904.486 -216.229)"/><circle class="j" cx="2.476" cy="2.476" r="2.476" transform="translate(904.486 -201.375)"/><circle class="j" cx="2.476" cy="2.476" r="2.476" transform="translate(904.486 -186.521)"/><circle class="j" cx="2.476" cy="2.476" r="2.476" transform="translate(904.486 -171.667)"/></g><path class="e" d="M844.878-172.741a3.085,3.085,0,0,0-.084-.862c-.772-7.113-6.228-12.968-13.747-12.968a13.993,13.993,0,0,0-13.831,13.83,13.965,13.965,0,0,0,13.238,13.8c7.747.327,13.538-5.586,14.338-12.929A2.962,2.962,0,0,0,844.878-172.741Zm-21.8,0c0-10.307,15.4-10.217,15.947,0C838.47-162.528,823.073-162.439,823.073-172.741Z" transform="translate(11.302 668.083)"/><path class="e" d="M844.878-172.741a3.085,3.085,0,0,0-.084-.862c-.772-7.113-6.228-12.968-13.747-12.968a13.993,13.993,0,0,0-13.831,13.83,13.965,13.965,0,0,0,13.238,13.8c7.747.327,13.538-5.586,14.338-12.929A2.962,2.962,0,0,0,844.878-172.741Zm-21.8,0c0-10.307,15.4-10.217,15.947,0C838.47-162.528,823.073-162.439,823.073-172.741Z" transform="translate(-406.882 711.571)"/><path class="e" d="M844.878-172.741a3.085,3.085,0,0,0-.084-.862c-.772-7.113-6.228-12.968-13.747-12.968a13.993,13.993,0,0,0-13.831,13.83,13.965,13.965,0,0,0,13.238,13.8c7.747.327,13.538-5.586,14.338-12.929A2.962,2.962,0,0,0,844.878-172.741Zm-21.8,0c0-10.307,15.4-10.217,15.947,0C838.47-162.528,823.073-162.439,823.073-172.741Z" transform="translate(588.622 414.892)"/><g transform="translate(75.471 551.938)"><circle class="a" cx="2.136" cy="2.136" r="2.136" transform="translate(104.53 -245.938)"/><circle class="a" cx="2.136" cy="2.136" r="2.136" transform="translate(117.348 -245.938)"/><circle class="a" cx="2.136" cy="2.136" r="2.136" transform="translate(130.166 -245.938)"/><circle class="a" cx="2.136" cy="2.136" r="2.136" transform="translate(104.53 -233.119)"/><circle class="a" cx="2.136" cy="2.136" r="2.136" transform="translate(104.53 -220.301)"/><circle class="a" cx="2.136" cy="2.136" r="2.136" transform="translate(104.53 -207.482)"/><circle class="a" cx="2.136" cy="2.136" r="2.136" transform="translate(104.53 -194.664)"/><circle class="a" cx="2.136" cy="2.136" r="2.136" transform="translate(104.53 -181.846)"/><circle class="a" cx="2.136" cy="2.136" r="2.136" transform="translate(117.348 -233.119)"/><circle class="a" cx="2.136" cy="2.136" r="2.136" transform="translate(117.348 -220.301)"/><circle class="a" cx="2.136" cy="2.136" r="2.136" transform="translate(117.348 -207.482)"/><circle class="a" cx="2.136" cy="2.136" r="2.136" transform="translate(117.348 -194.664)"/><circle class="a" cx="2.136" cy="2.136" r="2.136" transform="translate(117.348 -181.846)"/><circle class="a" cx="2.136" cy="2.136" r="2.136" transform="translate(130.166 -233.119)"/><circle class="a" cx="2.136" cy="2.136" r="2.136" transform="translate(130.166 -220.301)"/><circle class="a" cx="2.136" cy="2.136" r="2.136" transform="translate(130.166 -207.482)"/><circle class="a" cx="2.136" cy="2.136" r="2.136" transform="translate(130.166 -194.664)"/><circle class="a" cx="2.136" cy="2.136" r="2.136" transform="translate(130.166 -181.846)"/></g><path class="a" d="M478.014-187.206a2.494,2.494,0,0,0-.068-.7c-.623-5.746-5.032-10.477-11.106-10.477a11.305,11.305,0,0,0-11.175,11.173,11.283,11.283,0,0,0,10.694,11.149c6.26.264,10.937-4.513,11.585-10.444A2.456,2.456,0,0,0,478.014-187.206Zm-17.616,0c0-8.327,12.438-8.254,12.883,0C472.836-178.954,460.4-178.881,460.4-187.206Z" transform="translate(329.026 671.379)"/><path class="a" d="M471-190.714a1.711,1.711,0,0,0-.047-.478,7.749,7.749,0,0,0-7.619-7.187,7.755,7.755,0,0,0-7.666,7.665A7.74,7.74,0,0,0,463-183.066a7.73,7.73,0,0,0,7.947-7.164A1.684,1.684,0,0,0,471-190.714Zm-12.085,0c0-5.712,8.532-5.662,8.838,0C467.444-185.054,458.912-185,458.912-190.714Z" transform="translate(780.335 316.765)"/><path class="a" d="M478.014-187.206a2.494,2.494,0,0,0-.068-.7c-.623-5.746-5.032-10.477-11.106-10.477a11.305,11.305,0,0,0-11.175,11.173,11.283,11.283,0,0,0,10.694,11.149c6.26.264,10.937-4.513,11.585-10.444A2.456,2.456,0,0,0,478.014-187.206Zm-17.616,0c0-8.327,12.438-8.254,12.883,0C472.836-178.954,460.4-178.881,460.4-187.206Z" transform="translate(-233.974 313.213)"/><g transform="translate(818.301 472.829)"><path class="k" d="M451.017-247.159l2.172,2.172a24.61,24.61,0,0,0,4.775,3.313l-10.26-10.26A24.549,24.549,0,0,0,451.017-247.159Z" transform="translate(-1.174 -14.999)"/><path class="k" d="M443.828-265.048l21.762,21.762c.529.059,1.06.1,1.592.129L443.7-266.64C443.723-266.109,443.77-265.578,443.828-265.048Z" transform="translate(0 -10.687)"/><path class="k" d="M444.264-275.206l28.786,28.785q.605-.113,1.206-.257l-29.735-29.735Q444.377-275.813,444.264-275.206Z" transform="translate(-0.166 -7.821)"/><path class="k" d="M446.846-283.234l32.7,32.7c.331-.152.657-.314.982-.481l-33.2-33.2C447.16-283.891,447-283.564,446.846-283.234Z" transform="translate(-0.923 -5.533)"/><path class="k" d="M450.884-289.826l34.555,34.555c.273-.211.545-.427.811-.651l-34.715-34.715Q451.2-290.237,450.884-289.826Z" transform="translate(-2.107 -3.65)"/><path class="k" d="M456.119-295.226l34.718,34.718q.336-.4.652-.811l-34.56-34.559C456.656-295.667,456.385-295.45,456.119-295.226Z" transform="translate(-3.642 -2.114)"/><path class="k" d="M462.534-299.441l33.213,33.213c.168-.324.33-.651.482-.981l-32.714-32.713C463.185-299.77,462.858-299.608,462.534-299.441Z" transform="translate(-5.523 -0.928)"/><path class="k" d="M470.33-302.254,500.087-272.5q.145-.6.258-1.205l-28.81-28.81Q470.93-302.4,470.33-302.254Z" transform="translate(-7.809 -0.168)"/><path class="k" d="M480.091-303.086l23.521,23.522c-.023-.53-.068-1.06-.125-1.588L481.68-302.96C481.151-303.017,480.622-303.062,480.091-303.086Z" transform="translate(-10.671)"/><path class="k" d="M499.345-296a24.582,24.582,0,0,0-4.606-3.142l10.38,10.38a24.53,24.53,0,0,0-3.143-4.606Z" transform="translate(-14.966 -1.157)"/></g></g></g></svg>