<svg xmlns="http://www.w3.org/2000/svg" width="173" height="119" viewBox="0 0 173 119"><defs><style>.a{fill:rgba(255,255,255,0.47);}.b{fill:#cecece;}.c{fill:#afafaf;}.d{fill:#e2e2e2;}.e{fill:#63bce7;}.f{fill:#6377e7;}.g{fill:#63e2e7;}.h{fill:#f8af23;}.i{fill:#9e9e9e;}.j{fill:#707070;}.k{fill:#f46275;}.l{fill:#3f3679;}</style></defs><g transform="translate(6241 9322)"><rect class="a" width="173" height="119" rx="10" transform="translate(-6241 -9322)"/><g transform="translate(-6213.82 -9330.842)"><path class="b" d="M24.275,96.582a5.912,5.912,0,0,1-5.905-5.905V37.188a5.912,5.912,0,0,1,5.905-5.905h82.941a5.912,5.912,0,0,1,5.905,5.905V90.677a5.912,5.912,0,0,1-5.905,5.905Z" transform="translate(-5.991 -0.852)"/><g transform="translate(12.379 30.431)"><path class="c" d="M24.708,90.677V37.188a5.912,5.912,0,0,1,5.905-5.905H24.275a5.912,5.912,0,0,0-5.905,5.905V90.677a5.912,5.912,0,0,0,5.905,5.905h6.338A5.912,5.912,0,0,1,24.708,90.677Z" transform="translate(-18.37 -31.283)"/></g><g transform="translate(94.887 30.431)"><path class="d" d="M215.2,90.677V37.188a5.912,5.912,0,0,0-5.905-5.905h6.338a5.912,5.912,0,0,1,5.905,5.905V90.677a5.912,5.912,0,0,1-5.905,5.905H209.3A5.912,5.912,0,0,0,215.2,90.677Z" transform="translate(-209.299 -31.283)"/></g><path class="e" d="M114.263,90.266a2.278,2.278,0,0,1-2.271,2.271H29.05a2.278,2.278,0,0,1-2.271-2.271v-48.3a2.278,2.278,0,0,1,2.271-2.271h82.941a2.278,2.278,0,0,1,2.271,2.271v48.3Z" transform="translate(-10.766 -5.626)"/><g transform="translate(16.013 34.065)"><path class="f" d="M33.117,90.266v-48.3a2.278,2.278,0,0,1,2.271-2.271H29.05a2.278,2.278,0,0,0-2.271,2.271v48.3a2.278,2.278,0,0,0,2.271,2.271h6.338A2.278,2.278,0,0,1,33.117,90.266Z" transform="translate(-26.779 -39.691)"/></g><g transform="translate(94.887 34.065)"><path class="g" d="M211.569,90.266v-48.3a2.278,2.278,0,0,0-2.271-2.271h6.338a2.278,2.278,0,0,1,2.271,2.271v48.3a2.278,2.278,0,0,1-2.271,2.271H209.3A2.278,2.278,0,0,0,211.569,90.266Z" transform="translate(-209.298 -39.691)"/></g><g transform="translate(42.213 39.516)"><path class="b" d="M121.648,82.085l-15.4,11.727a2.138,2.138,0,0,1-2.591,0l-15.4-11.727a2.14,2.14,0,0,1-.843-1.7V58.747a2.139,2.139,0,0,1,1.563-2.06l15.4-4.3a2.141,2.141,0,0,1,1.151,0l15.4,4.3a2.139,2.139,0,0,1,1.563,2.06V80.383A2.14,2.14,0,0,1,121.648,82.085Z" transform="translate(-87.408 -52.306)"/><circle class="h" cx="10.412" cy="10.412" r="10.412" transform="translate(7.13 8.61)"/><g transform="translate(10.53 13.418)"><path class="e" d="M116.552,94.563a1.952,1.952,0,0,1-1.346-.536l-2.816-2.663a1.96,1.96,0,0,1,2.693-2.848l1.432,1.354,5.939-5.939a1.96,1.96,0,1,1,2.772,2.772l-7.287,7.287A1.956,1.956,0,0,1,116.552,94.563Z" transform="translate(-111.776 -83.357)"/></g></g><path class="i" d="M89.809,204.547h33.008v3.974H89.809Z" transform="translate(-46.558 -99.241)"/><g transform="translate(43.251 105.306)"><path class="j" d="M89.809,204.547h6.338v3.974H89.809Z" transform="translate(-89.809 -204.547)"/></g><path class="b" d="M100.67,182.389h23.62v9.575H100.67Z" transform="translate(-52.726 -86.659)"/><g transform="translate(47.944 95.73)"><path class="c" d="M100.67,182.389h6.338v9.575H100.67Z" transform="translate(-100.67 -182.389)"/></g><circle class="i" cx="1.945" cy="1.945" r="1.945" transform="translate(57.81 89.376)"/><g transform="translate(69.727 83.772)"><path class="b" d="M186.354,167.47H153.2a2.126,2.126,0,0,1-2.126-2.126v-8.5a2.126,2.126,0,0,1,2.126-2.126h33.152a2.126,2.126,0,0,1,2.126,2.126v8.5A2.126,2.126,0,0,1,186.354,167.47Z" transform="translate(-151.076 -154.716)"/></g><g transform="translate(69.727 96.526)"><path class="b" d="M186.354,196.984H153.2a2.126,2.126,0,0,1-2.126-2.126v-8.5a2.126,2.126,0,0,1,2.126-2.126h33.152a2.126,2.126,0,0,1,2.126,2.126v8.5A2.126,2.126,0,0,1,186.354,196.984Z" transform="translate(-151.076 -184.23)"/></g><g transform="translate(69.727 71.018)"><path class="b" d="M186.354,137.957H153.2a2.126,2.126,0,0,1-2.126-2.126v-8.5A2.126,2.126,0,0,1,153.2,125.2h33.152a2.126,2.126,0,0,1,2.126,2.126v8.5A2.126,2.126,0,0,1,186.354,137.957Z" transform="translate(-151.076 -125.203)"/></g><g transform="translate(98.666 71.018)"><path class="d" d="M224.382,125.2h-6.338a2.126,2.126,0,0,1,2.126,2.126v8.5a2.126,2.126,0,0,1-2.126,2.126h6.338a2.126,2.126,0,0,0,2.126-2.126v-8.5A2.126,2.126,0,0,0,224.382,125.2Z" transform="translate(-218.044 -125.203)"/></g><g transform="translate(98.666 83.772)"><path class="d" d="M224.382,154.717h-6.338a2.126,2.126,0,0,1,2.126,2.126v8.5a2.126,2.126,0,0,1-2.126,2.126h6.338a2.126,2.126,0,0,0,2.126-2.126v-8.5A2.126,2.126,0,0,0,224.382,154.717Z" transform="translate(-218.044 -154.717)"/></g><g transform="translate(98.666 96.526)"><path class="d" d="M224.382,184.23h-6.338a2.126,2.126,0,0,1,2.126,2.126v8.5a2.126,2.126,0,0,1-2.126,2.126h6.338a2.126,2.126,0,0,0,2.126-2.126v-8.5A2.126,2.126,0,0,0,224.382,184.23Z" transform="translate(-218.044 -184.23)"/></g><g transform="translate(73.594 76.022)"><path class="k" d="M178.819,139.529H161.069a1.047,1.047,0,0,1-1.044-1.044v-.659a1.047,1.047,0,0,1,1.044-1.044h17.751a1.047,1.047,0,0,1,1.044,1.044v.659A1.047,1.047,0,0,1,178.819,139.529Z" transform="translate(-160.025 -136.782)"/><path class="k" d="M178.819,169.043H161.069A1.047,1.047,0,0,1,160.025,168v-.659a1.047,1.047,0,0,1,1.044-1.044h17.751a1.047,1.047,0,0,1,1.044,1.044V168A1.047,1.047,0,0,1,178.819,169.043Z" transform="translate(-160.025 -153.542)"/><path class="k" d="M178.819,198.556H161.069a1.047,1.047,0,0,1-1.044-1.044v-.659a1.047,1.047,0,0,1,1.044-1.044h17.751a1.047,1.047,0,0,1,1.044,1.044v.659A1.047,1.047,0,0,1,178.819,198.556Z" transform="translate(-160.025 -170.301)"/><path class="k" d="M221.17,139.529h-.659a1.047,1.047,0,0,1-1.044-1.044v-.659a1.047,1.047,0,0,1,1.044-1.044h.659a1.047,1.047,0,0,1,1.044,1.044v.659A1.047,1.047,0,0,1,221.17,139.529Z" transform="translate(-193.78 -136.782)"/><path class="k" d="M221.17,169.043h-.659A1.047,1.047,0,0,1,219.467,168v-.659a1.047,1.047,0,0,1,1.044-1.044h.659a1.047,1.047,0,0,1,1.044,1.044V168A1.047,1.047,0,0,1,221.17,169.043Z" transform="translate(-193.78 -153.542)"/></g><g transform="translate(7.82 29.783)"><path class="k" d="M221.17,198.556h-.659a1.047,1.047,0,0,1-1.044-1.044v-.659a1.047,1.047,0,0,1,1.044-1.044h.659a1.047,1.047,0,0,1,1.044,1.044v.659A1.046,1.046,0,0,1,221.17,198.556Z" transform="translate(-128.006 -124.062)"/><g transform="translate(0 0)"><path class="l" d="M16.248,223.217H8.468a.648.648,0,0,0,0,1.3h7.78a.648.648,0,0,0,0-1.3Z" transform="translate(-7.82 -139.626)"/><path class="l" d="M235.605,223.217h-7.78a.648.648,0,1,0,0,1.3h7.78a.648.648,0,1,0,0-1.3Z" transform="translate(-132.384 -139.626)"/><path class="l" d="M114.869,223.217h-78.2a.648.648,0,0,0,0,1.3h78.2a.648.648,0,1,0,0-1.3Z" transform="translate(-23.834 -139.626)"/><path class="l" d="M8.468,109.928H111.041a.648.648,0,1,0,0-1.3h-3.693a2.753,2.753,0,0,0,.43-1.477v-8.5a2.768,2.768,0,0,0-1-2.126,2.768,2.768,0,0,0,1-2.126V36.336a6.561,6.561,0,0,0-6.553-6.553H18.284a6.561,6.561,0,0,0-6.553,6.553V89.825a6.561,6.561,0,0,0,6.553,6.553H47.3v8.279H43.25a.648.648,0,0,0-.648.648v3.326H8.468a.648.648,0,0,0,0,1.3Zm98.014-11.277v8.5A1.479,1.479,0,0,1,105,108.631H71.853a1.479,1.479,0,0,1-1.478-1.477v-8.5a1.479,1.479,0,0,1,1.478-1.477H105A1.479,1.479,0,0,1,106.482,98.652Zm0-17.005A1.479,1.479,0,0,1,105,83.124H71.853a1.479,1.479,0,0,1-1.478-1.477v-8.5a1.479,1.479,0,0,1,1.478-1.477H105a1.479,1.479,0,0,1,1.477,1.477Zm-37.4-8.5v.963a.638.638,0,0,0-.074.046l-8.347,6.355a1.494,1.494,0,0,1-1.806,0L43.449,68.78a1.5,1.5,0,0,1-.588-1.186V45.957a1.5,1.5,0,0,1,1.089-1.436l15.4-4.3a1.487,1.487,0,0,1,.8,0l15.4,4.3a1.5,1.5,0,0,1,1.089,1.436V67.593a1.5,1.5,0,0,1-.588,1.186l-1.933,1.471a.657.657,0,0,0-.117.118H71.852A2.778,2.778,0,0,0,69.079,73.144Zm33.77-2.774H76.112l.734-.558a2.8,2.8,0,0,0,1.1-2.217V45.957a2.8,2.8,0,0,0-2.037-2.684l-15.4-4.3a2.8,2.8,0,0,0-1.5,0l-15.4,4.3a2.8,2.8,0,0,0-2.037,2.684V67.593a2.8,2.8,0,0,0,1.1,2.217l15.4,11.727a2.794,2.794,0,0,0,3.377,0l7.635-5.814v5.922a2.769,2.769,0,0,0,.995,2.126,2.767,2.767,0,0,0-.995,2.126v.365H18.284a1.625,1.625,0,0,1-1.623-1.623v-48.3a1.625,1.625,0,0,1,1.623-1.623h82.941a1.625,1.625,0,0,1,1.623,1.623V70.37Zm-31,25.508A1.479,1.479,0,0,1,70.375,94.4V85.9a1.479,1.479,0,0,1,1.477-1.477H105a1.479,1.479,0,0,1,1.477,1.477v8.5A1.479,1.479,0,0,1,105,95.878ZM13.027,89.825V36.336a5.263,5.263,0,0,1,5.257-5.257h82.941a5.263,5.263,0,0,1,5.257,5.257V70.8a2.755,2.755,0,0,0-1.477-.43h-.86V36.336a2.923,2.923,0,0,0-2.92-2.92H18.284a2.923,2.923,0,0,0-2.92,2.92v48.3a2.923,2.923,0,0,0,2.92,2.919H69.079V94.4a2.768,2.768,0,0,0,.088.681H18.284a5.262,5.262,0,0,1-5.257-5.257Zm35.565,6.553H69.863c.015,0,.029,0,.043,0,.054.053.109.1.167.152a2.768,2.768,0,0,0-1,2.126v6.005H48.593ZM43.9,105.954h25.18v1.2a2.753,2.753,0,0,0,.43,1.477H43.9Z" transform="translate(-7.82 -29.783)"/><path class="l" d="M113.467,70.729a11.06,11.06,0,1,0,11.06,11.06A11.072,11.072,0,0,0,113.467,70.729Zm0,20.824a9.764,9.764,0,1,1,9.763-9.764A9.775,9.775,0,0,1,113.467,91.553Z" transform="translate(-61.532 -53.035)"/><path class="l" d="M121.142,82.622l-5.493,5.493-.974-.921a2.608,2.608,0,1,0-3.584,3.789l2.817,2.664a2.608,2.608,0,0,0,3.636-.051l7.287-7.287a2.608,2.608,0,1,0-3.689-3.688Zm2.772,2.772-7.287,7.287a1.343,1.343,0,0,1-1.828.025l-2.817-2.664a1.311,1.311,0,0,1,.865-2.264h.038a1.3,1.3,0,0,1,.9.359l1.432,1.354a.648.648,0,0,0,.9-.013l5.939-5.939a1.312,1.312,0,1,1,1.855,1.855Z" transform="translate(-66 -59.355)"/><path class="l" d="M124.593,171.37A2.593,2.593,0,1,0,122,168.777,2.6,2.6,0,0,0,124.593,171.37Zm0-3.889a1.3,1.3,0,1,1-1.3,1.3A1.3,1.3,0,0,1,124.593,167.48Z" transform="translate(-72.658 -107.24)"/><path class="l" d="M177.967,135.282H160.217a1.694,1.694,0,0,0-1.692,1.692v.659a1.694,1.694,0,0,0,1.692,1.692h17.751a1.694,1.694,0,0,0,1.692-1.692v-.659A1.694,1.694,0,0,0,177.967,135.282Zm.4,2.351a.4.4,0,0,1-.4.4H160.217a.4.4,0,0,1-.4-.4v-.659a.4.4,0,0,1,.4-.4h17.751a.4.4,0,0,1,.4.4Z" transform="translate(-93.399 -89.692)"/><path class="l" d="M177.967,164.795H160.217a1.694,1.694,0,0,0-1.692,1.692v.659a1.694,1.694,0,0,0,1.692,1.692h17.751a1.694,1.694,0,0,0,1.692-1.692v-.659A1.694,1.694,0,0,0,177.967,164.795Zm.4,2.352a.4.4,0,0,1-.4.4H160.217a.4.4,0,0,1-.4-.4v-.659a.4.4,0,0,1,.4-.4h17.751a.4.4,0,0,1,.4.4Z" transform="translate(-93.399 -106.451)"/><path class="l" d="M160.217,198.353h17.751a1.694,1.694,0,0,0,1.692-1.692V196a1.694,1.694,0,0,0-1.692-1.692H160.217A1.694,1.694,0,0,0,158.525,196v.659A1.694,1.694,0,0,0,160.217,198.353Zm-.4-2.352a.4.4,0,0,1,.4-.4h17.751a.4.4,0,0,1,.4.4v.659a.4.4,0,0,1-.4.4H160.217a.4.4,0,0,1-.4-.4Z" transform="translate(-93.399 -123.211)"/><path class="l" d="M220.318,135.282h-.659a1.694,1.694,0,0,0-1.692,1.692v.659a1.694,1.694,0,0,0,1.692,1.692h.659a1.694,1.694,0,0,0,1.692-1.692v-.659A1.694,1.694,0,0,0,220.318,135.282Zm.4,2.351a.4.4,0,0,1-.4.4h-.659a.4.4,0,0,1-.4-.4v-.659a.4.4,0,0,1,.4-.4h.659a.4.4,0,0,1,.4.4Z" transform="translate(-127.154 -89.692)"/><path class="l" d="M220.318,164.795h-.659a1.694,1.694,0,0,0-1.692,1.692v.659a1.694,1.694,0,0,0,1.692,1.692h.659a1.694,1.694,0,0,0,1.692-1.692v-.659A1.694,1.694,0,0,0,220.318,164.795Zm.4,2.352a.4.4,0,0,1-.4.4h-.659a.4.4,0,0,1-.4-.4v-.659a.4.4,0,0,1,.4-.4h.659a.4.4,0,0,1,.4.4Z" transform="translate(-127.154 -106.451)"/><path class="l" d="M219.659,198.353h.659a1.694,1.694,0,0,0,1.692-1.692V196a1.694,1.694,0,0,0-1.692-1.692h-.659A1.694,1.694,0,0,0,217.967,196v.659A1.694,1.694,0,0,0,219.659,198.353Zm-.4-2.352a.4.4,0,0,1,.4-.4h.659a.4.4,0,0,1,.4.4v.659a.4.4,0,0,1-.4.4h-.659a.4.4,0,0,1-.4-.4Z" transform="translate(-127.154 -123.211)"/></g></g></g></g></svg>