<svg xmlns="http://www.w3.org/2000/svg" xmlns:xlink="http://www.w3.org/1999/xlink" width="390.506" height="370.092" viewBox="0 0 390.506 370.092"><defs><style>.a{fill:url(#a);}.b,.c,.d,.e,.f,.g,.h,.i,.j,.k,.l,.m{fill:#daebf2;}.b{opacity:0;}.c{opacity:0.091;}.d{opacity:0.182;}.e{opacity:0.273;}.f{opacity:0.364;}.g{opacity:0.455;}.h{opacity:0.545;}.i{opacity:0.636;}.j{opacity:0.727;}.k{opacity:0.818;}.l{opacity:0.909;}.n,.v,.w{fill:#7cbac4;}.o{fill:url(#b);}.p{fill:#0077ec;}.aq,.ba,.p,.v,.w,.y{mix-blend-mode:multiply;}.aj,.ak,.an,.ao,.aq,.as,.at,.aw,.ay,.az,.ba,.p,.v,.w,.y{isolation:isolate;}.q{fill:#fff;}.r{fill:#9bcddb;}.s{fill:url(#c);}.t{fill:#267370;}.u{fill:url(#d);}.w{opacity:0.8;}.x{fill:url(#e);}.ah,.z{opacity:0.3;}.z{fill:url(#f);}.aa{fill:url(#g);}.ab{fill:url(#h);}.ac{fill:url(#i);}.ad{fill:#5ee5ae;}.ae{fill:#ff6;}.af{fill:#ffd947;}.ag{fill:#ff5f98;}.ai{fill:url(#k);}.aj,.ak,.as,.at{mix-blend-mode:color-dodge;}.aj{fill:url(#l);}.ak{fill:url(#m);}.al{fill:url(#n);}.am{fill:url(#o);}.an,.ao,.aw{opacity:0.5;}.an,.ao,.aw,.ay,.az{mix-blend-mode:screen;}.an{fill:url(#p);}.ap{fill:url(#q);}.aq{fill:#e6e7e8;}.ar{fill:url(#r);}.as{fill:url(#s);}.at{fill:url(#t);}.au{fill:url(#u);}.av{fill:url(#v);}.aw{fill:url(#w);}.ax{fill:url(#x);}.ay{fill:url(#y);}.az{fill:url(#z);}</style><linearGradient id="a" y1="0.025" x2="0.958" y2="0.971" gradientUnits="objectBoundingBox"><stop offset="0" stop-color="#b1ffec"/><stop offset="1" stop-color="#a5d2ff"/></linearGradient><linearGradient id="b" x1="0.382" y1="0.838" x2="0.621" y2="0.154" gradientUnits="objectBoundingBox"><stop offset="0" stop-color="#eaf4f8"/><stop offset="0.444" stop-color="#c9e3ec"/><stop offset="1" stop-color="#92c1cf"/></linearGradient><linearGradient id="c" x1="0.983" y1="0.419" x2="0.023" y2="0.58" gradientUnits="objectBoundingBox"><stop offset="0" stop-color="#fafdfd"/><stop offset="1" stop-color="#daebf2"/></linearGradient><linearGradient id="d" y1="0.5" x2="1" y2="0.5" gradientUnits="objectBoundingBox"><stop offset="0" stop-color="#b1ffec"/><stop offset="1" stop-color="#b1ffec"/></linearGradient><linearGradient id="e" x1="0.371" y1="0.759" x2="0.667" y2="0.164" gradientUnits="objectBoundingBox"><stop offset="0" stop-color="#c9e3ec"/><stop offset="1" stop-color="#92c1cf"/></linearGradient><linearGradient id="f" x1="0.29" y1="0.908" x2="0.569" y2="0.336" gradientUnits="objectBoundingBox"><stop offset="0" stop-color="#5ee5ae"/><stop offset="1" stop-color="#2db38c"/></linearGradient><linearGradient id="g" x1="-0.072" y1="1.417" x2="0.79" y2="0.146" xlink:href="#f"/><linearGradient id="h" x1="1" y1="0.937" x2="0.08" y2="0.084" gradientUnits="objectBoundingBox"><stop offset="0" stop-color="#0077ec"/><stop offset="1" stop-color="#03e6b0"/></linearGradient><linearGradient id="i" y1="0.5" x2="1" y2="0.5" gradientUnits="objectBoundingBox"><stop offset="0" stop-color="#fafdfd"/><stop offset="1" stop-color="#f3f9fb"/></linearGradient><linearGradient id="k" x1="1.371" y1="0.811" x2="-0.525" y2="0.005" gradientUnits="objectBoundingBox"><stop offset="0" stop-color="#92c1cf"/><stop offset="0.606" stop-color="#c9e3ec"/><stop offset="1" stop-color="#eaf4f8"/></linearGradient><radialGradient id="l" cx="-0.18" cy="1.058" r="0.857" gradientTransform="translate(-0.158) scale(1.315 1)" gradientUnits="objectBoundingBox"><stop offset="0" stop-color="#ff5f98"/><stop offset="0.015" stop-color="#f65c93"/><stop offset="0.132" stop-color="#bd4671"/><stop offset="0.252" stop-color="#8b3352"/><stop offset="0.373" stop-color="#602339"/><stop offset="0.494" stop-color="#3d1624"/><stop offset="0.617" stop-color="#220c14"/><stop offset="0.741" stop-color="#0f0509"/><stop offset="0.867" stop-color="#030102"/><stop offset="1"/></radialGradient><radialGradient id="m" cx="-0.549" cy="1.1" r="0.945" gradientTransform="translate(-2.392) scale(5.783 1)" xlink:href="#l"/><linearGradient id="n" x1="0.621" y1="0.52" x2="-1.719" y2="0.119" xlink:href="#k"/><linearGradient id="o" x1="0.971" y1="0.563" x2="-1.189" y2="0.242" xlink:href="#k"/><linearGradient id="p" x1="1.285" y1="0.628" x2="-0.961" y2="0.261" gradientUnits="objectBoundingBox"><stop offset="0" stop-color="#ffe4a7"/><stop offset="1"/></linearGradient><linearGradient id="q" x1="1.755" y1="0.771" x2="-1.351" y2="0.119" xlink:href="#p"/><linearGradient id="r" x1="1.344" y1="0.821" x2="-0.486" y2="-0.013" xlink:href="#k"/><radialGradient id="s" cx="-0.18" cy="1.058" r="0.952" gradientTransform="translate(-0.092) scale(1.184 1)" xlink:href="#l"/><radialGradient id="t" cx="-0.549" cy="1.1" r="1.03" gradientTransform="translate(-2.123) scale(5.246 1)" xlink:href="#l"/><linearGradient id="u" x1="0.593" y1="0.518" x2="-1.457" y2="0.119" xlink:href="#k"/><linearGradient id="v" x1="0.957" y1="0.566" x2="-1.14" y2="0.231" xlink:href="#k"/><linearGradient id="w" x1="1.14" y1="0.621" x2="-0.756" y2="0.263" xlink:href="#p"/><linearGradient id="x" x1="1.696" y1="0.779" x2="-1.268" y2="0.109" xlink:href="#p"/><linearGradient id="y" x1="0.335" y1="0.172" x2="0.484" y2="0.59" xlink:href="#p"/><linearGradient id="z" x1="1.042" y1="0.36" x2="-1.091" y2="1.043" xlink:href="#p"/></defs><g transform="translate(-917.987 -4608.656)"><rect class="a" width="282.479" height="282.479" rx="23" transform="translate(972 4696.269)"/><g transform="translate(577.813 4529.545)"><g transform="translate(340.174 79.111)"><g transform="translate(0 159.984)"><path class="b" d="M548.689,397.31a34.342,34.342,0,0,1-17.142-4.132L350.009,288.368c-6.25-3.61-9.835-9.322-9.835-15.668,0-6.959,4.317-13.442,11.845-17.786l105.709-62.418a42.207,42.207,0,0,1,20.817-5.293,34.344,34.344,0,0,1,17.144,4.132L677.226,296.145c6.25,3.608,9.835,9.319,9.835,15.667,0,6.958-4.318,13.441-11.844,17.786l-105.711,62.42A42.222,42.222,0,0,1,548.689,397.31Z" transform="translate(-340.174 -187.202)"/><path class="c" d="M457.4,193.239a41.34,41.34,0,0,1,20.786-5.149,39.789,39.789,0,0,1,8.516,1.043,34.031,34.031,0,0,1,8.491,3.349l181.1,104.556c6.221,3.592,9.476,9.28,9.111,15.467a18,18,0,0,1-1.252,5.432c-1.644,4.255-6.034,8.789-10.966,11.636L568.954,391.013a39.786,39.786,0,0,1-3.841,1.934,43,43,0,0,1-16.636,3.4,33.627,33.627,0,0,1-16.9-4.01L349.775,287.38c-6.233-3.6-9.473-9.3-9.082-15.5a18.268,18.268,0,0,1,1.035-4.838c1.551-4.483,6.083-9.276,11.231-12.246Z" transform="translate(-339.94 -186.777)"/><path class="d" d="M457.095,193.985a40.491,40.491,0,0,1,20.755-5.006,35.377,35.377,0,0,1,16.873,4.653l180.655,104.3c6.191,3.574,9.122,9.236,8.388,15.267a19.562,19.562,0,0,1-1.518,5.182c-1.593,3.785-6.635,8.607-11.074,11.169L568.423,390.011c-1.015.586-2.667,1.44-3.774,1.923a42.362,42.362,0,0,1-16.362,3.458,32.881,32.881,0,0,1-16.666-3.884L349.562,286.4c-6.215-3.589-9.117-9.28-8.33-15.325a20.447,20.447,0,0,1,1.291-4.616c1.523-3.989,6.763-9.091,11.4-11.765Z" transform="translate(-339.727 -186.354)"/><path class="e" d="M456.81,194.735a39.639,39.639,0,0,1,20.723-4.864,38.753,38.753,0,0,1,8.4,1.344,45.792,45.792,0,0,1,8.337,3.57L674.484,298.832c6.163,3.558,8.78,9.185,7.664,15.067a21.748,21.748,0,0,1-1.784,4.933c-1.519,3.318-7.236,8.422-11.182,10.7L567.912,389.01c-.9.521-2.726,1.48-3.708,1.914a41.747,41.747,0,0,1-16.089,3.512,32.164,32.164,0,0,1-16.426-3.761L349.369,285.412c-6.2-3.579-8.772-9.251-7.577-15.152a23.665,23.665,0,0,1,1.547-4.4c1.468-3.5,7.442-8.907,11.56-11.283Z" transform="translate(-339.534 -185.932)"/><path class="f" d="M456.544,195.484a37.382,37.382,0,0,1,29.033-3.227,54.523,54.523,0,0,1,8.259,3.681L673.611,299.731c6.134,3.542,8.445,9.134,6.94,14.867a25.4,25.4,0,0,1-2.05,4.683c-1.421,2.86-7.839,8.24-11.29,10.232l-99.789,58.5c-.79.456-2.786,1.52-3.642,1.9a41.142,41.142,0,0,1-15.815,3.567c-6.119.121-11.82-1.116-16.188-3.638L349.2,284.432c-6.181-3.57-8.439-9.218-6.825-14.98a29.364,29.364,0,0,1,1.8-4.175c1.388-3.016,8.12-8.722,11.724-10.8Z" transform="translate(-339.361 -185.513)"/><path class="g" d="M456.3,196.236a36.174,36.174,0,0,1,28.945-2.935,66.844,66.844,0,0,1,8.182,3.792L672.757,300.632c6.1,3.524,8.123,9.082,6.216,14.668a31.335,31.335,0,0,1-2.316,4.433c-1.3,2.411-8.439,8.056-11.4,9.764L566.95,387.013c-.678.391-2.843,1.56-3.577,1.895a40.525,40.525,0,0,1-15.539,3.62c-6.015.152-11.66-1.038-15.949-3.512L349.042,283.451c-6.163-3.558-8.118-9.185-6.071-14.807a39.94,39.94,0,0,1,2.059-3.953c1.28-2.543,8.8-8.54,11.889-10.322Z" transform="translate(-339.207 -185.094)"/><path class="h" d="M456.066,196.989a35.028,35.028,0,0,1,28.856-2.64,84.169,84.169,0,0,1,8.1,3.9L671.92,301.534c6.073,3.508,7.812,9.032,5.493,14.468a15.789,15.789,0,0,1-2.583,4.184c-.762,2.149-9.04,7.871-11.506,9.295l-96.829,56.535c-.564.326-2.9,1.6-3.511,1.886a39.922,39.922,0,0,1-15.264,3.675c-5.913.184-11.5-.959-15.711-3.389l-183.1-105.714c-6.147-3.549-7.813-9.157-5.321-14.635a15.96,15.96,0,0,1,2.316-3.733c.707-2.264,9.48-8.355,12.054-9.841Z" transform="translate(-339.07 -184.678)"/><path class="i" d="M455.852,197.744a33.953,33.953,0,0,1,28.767-2.349c1.116.36,7.107,3.483,8.027,4.012L671.1,302.438c6.043,3.489,7.514,8.986,4.767,14.267a16.033,16.033,0,0,1-2.848,3.934c-.61,1.72-9.641,7.689-11.614,8.827L566.055,385.02c-.451.26-2.959,1.649-3.444,1.877a39.336,39.336,0,0,1-14.99,3.73c-5.811.213-11.343-.882-15.473-3.267L348.785,281.5c-6.131-3.539-7.519-9.134-4.569-14.462a16.3,16.3,0,0,1,2.572-3.512c.567-1.812,10.159-8.172,12.22-9.36Z" transform="translate(-338.948 -184.262)"/><path class="j" d="M455.65,198.5a35.777,35.777,0,0,1,20.567-4.149,36.4,36.4,0,0,1,8.111,2.093c.833.283,7.258,3.725,7.948,4.124L670.289,303.343c6.015,3.472,7.23,8.95,4.045,14.067a16.425,16.425,0,0,1-3.114,3.684c-.457,1.291-10.242,7.506-11.722,8.36l-93.869,54.574c-.339.2-3.015,1.692-3.379,1.865a38.677,38.677,0,0,1-14.715,3.785c-5.707.244-11.184-.8-15.234-3.141L348.677,280.52c-6.113-3.529-7.239-9.122-3.816-14.29a16.762,16.762,0,0,1,2.828-3.292c.425-1.359,10.839-7.987,12.382-8.878Z" transform="translate(-338.84 -183.848)"/><path class="k" d="M455.461,199.258A35.058,35.058,0,0,1,476,195.251a35.842,35.842,0,0,1,8.053,2.244c.552.2,7.411,3.968,7.871,4.233L669.492,304.249c5.986,3.456,6.955,8.926,3.321,13.868a17.089,17.089,0,0,1-3.38,3.434c-.3.86-10.845,7.322-11.83,7.89l-92.389,53.593c-.225.13-3.071,1.739-3.312,1.856a38.112,38.112,0,0,1-14.441,3.839c-5.6.275-11.024-.725-14.995-3.018L348.581,279.547c-6.1-3.52-6.968-9.125-3.064-14.12a17.459,17.459,0,0,1,3.086-3.07c.283-.906,11.518-7.8,12.547-8.4Z" transform="translate(-338.744 -183.436)"/><path class="l" d="M455.281,200.015a34.371,34.371,0,0,1,20.505-3.863,35.287,35.287,0,0,1,7.994,2.393c.275.1,7.565,4.211,7.794,4.344L668.7,305.157c5.956,3.438,6.687,8.917,2.6,13.669a17.956,17.956,0,0,1-3.647,3.184c-.152.431-11.446,7.138-11.938,7.423l-90.909,52.613c-.112.065-3.126,1.786-3.246,1.846a37.483,37.483,0,0,1-14.167,3.893c-5.5.306-10.864-.645-14.757-2.894L348.494,278.573c-6.077-3.509-6.7-9.14-2.31-13.947a18.269,18.269,0,0,1,3.341-2.849c.142-.453,12.2-7.618,12.712-7.915Z" transform="translate(-338.657 -183.024)"/><path class="m" d="M532.82,384.067,348.415,277.6c-7.282-4.2-6.369-11.549,2.04-16.4l104.654-60.422c8.408-4.855,21.128-5.382,28.41-1.178L667.926,306.065c7.282,4.2,6.369,11.548-2.04,16.4L561.231,382.89C552.822,387.745,540.1,388.272,532.82,384.067Z" transform="translate(-338.578 -182.613)"/></g><path class="n" d="M532.82,383.953,348.415,277.486c-3.246-1.874-4.864-4.371-4.915-6.992,0-.084,0-9.052,0-9.135.058-3.188,2.413,2.346,6.955-.275l104.654-60.422c8.408-4.856,21.128-5.383,28.41-1.178L667.926,305.951c2.43,1.4,4.193-4.554,4.824-2.66.21.631.077,8.989.09,9.643.07,3.265-2.288,6.726-6.953,9.419L561.231,382.775C552.822,387.631,540.1,388.158,532.82,383.953Z" transform="translate(-338.578 -22.684)"/><path class="o" d="M532.82,377.895,348.415,271.429c-7.282-4.2-6.369-11.549,2.04-16.4L455.108,194.6c8.408-4.855,21.128-5.382,28.41-1.178L667.926,299.893c7.282,4.2,6.369,11.548-2.04,16.4L561.231,376.718C552.822,381.573,540.1,382.1,532.82,377.895Z" transform="translate(-338.578 -25.592)"/><path class="p" d="M672.865,284.335c-.009,1.929-.031,3.672-.025,3.956.07,3.265-2.288,6.726-6.953,9.419L561.231,358.134c-8.408,4.855-21.128,5.382-28.41,1.178L348.415,252.845c-3.246-1.874-4.864-4.371-4.915-6.993,0-.035,0-1.7,0-3.6,0,2.667,0,6.293,0,6.347.052,2.621,1.67,5.118,4.915,6.992L532.821,362.058c7.282,4.2,20,3.677,28.41-1.178l104.656-60.422c4.665-2.694,7.023-6.154,6.953-9.419C672.831,290.617,672.883,287.02,672.865,284.335Z" transform="translate(-338.578 -0.789)"/><path class="q" d="M665.886,291.139,561.23,351.561c-8.408,4.855-21.128,5.382-28.41,1.178L348.414,246.272c-3.021-1.745-4.611-4.032-4.861-6.455-.379,2.975,1.212,5.87,4.861,7.978L532.82,354.26c7.282,4.2,20,3.678,28.41-1.177l104.656-60.423c4.92-2.84,7.252-6.53,6.9-9.948C672.409,285.675,670.081,288.716,665.886,291.139Z" transform="translate(-338.578 -1.958)"/><path class="r" d="M623.222,348.854,441.85,244.138a15.185,15.185,0,0,1-7-17.351L474.361,90.1a15.185,15.185,0,0,1,22.185-8.95L677.919,185.868a15.187,15.187,0,0,1,7,17.353L645.409,339.9A15.187,15.187,0,0,1,623.222,348.854Z" transform="translate(-295.006 -79.111)"/><path class="s" d="M620.735,349.163,439.362,244.448a15.187,15.187,0,0,1-7-17.353L471.872,90.414a15.187,15.187,0,0,1,22.187-8.952L675.43,186.179a15.185,15.185,0,0,1,7,17.351L642.92,340.213A15.185,15.185,0,0,1,620.735,349.163Z" transform="translate(-296.2 -78.962)"/><path class="t" d="M625.632,340.293a6.819,6.819,0,0,1-3.449-.938L440.81,234.639a6.933,6.933,0,0,1-3.2-7.936L477.115,90.028a6.925,6.925,0,0,1,6.7-5.041,6.822,6.822,0,0,1,3.45.94L668.637,190.642a6.936,6.936,0,0,1,3.2,7.936L632.332,335.252A6.923,6.923,0,0,1,625.632,340.293Z" transform="translate(-293.528 -76.29)"/><path class="u" d="M625.186,338.474a5.466,5.466,0,0,1-2.763-.755L441.051,233a5.563,5.563,0,0,1-2.569-6.367L477.99,89.965a5.562,5.562,0,0,1,5.38-4.05,5.479,5.479,0,0,1,2.763.755L667.505,191.386a5.559,5.559,0,0,1,2.569,6.366L630.566,334.425A5.561,5.561,0,0,1,625.186,338.474Z" transform="translate(-293.083 -75.844)"/><path class="q" d="M658.6,186.175,477.228,81.459a15.044,15.044,0,0,0-10.4-1.76,15.036,15.036,0,0,1,9.216,1.93L657.415,186.344a15.187,15.187,0,0,1,7,17.351L624.905,340.378a15.142,15.142,0,0,1-11.784,10.71,15.151,15.151,0,0,0,12.969-10.879L665.6,203.526A15.184,15.184,0,0,0,658.6,186.175Z" transform="translate(-279.369 -78.959)"/><path class="v" d="M542.781,331.941,393.035,245.485c-3-1.73-2.623-4.754.839-6.754l56.223-32.46c3.462-2,8.7-2.216,11.7-.484l149.748,86.456c3,1.73,2.623,4.754-.841,6.754l-56.221,32.46C551.018,333.455,545.78,333.673,542.781,331.941Z" transform="translate(-315.768 -18.856)"/><path class="w" d="M450.552,211l9.6,5.54a4.871,4.871,0,0,0,4.406.009c1.212-.7,1.206-1.84-.015-2.544l-9.6-5.54a4.871,4.871,0,0,0-4.406-.007C449.325,209.155,449.33,210.293,450.552,211Zm16.429,9.486,4.545,2.624a4.871,4.871,0,0,0,4.406.009c1.212-.7,1.206-1.84-.013-2.544l-4.547-2.624a4.868,4.868,0,0,0-4.4-.007C465.755,218.641,465.761,219.779,466.981,220.483Zm11.38,6.57,4.545,2.624a4.868,4.868,0,0,0,4.4.009c1.212-.7,1.206-1.84-.013-2.544l-4.545-2.624a4.871,4.871,0,0,0-4.406-.007C477.134,225.211,477.14,226.349,478.361,227.053Zm11.379,6.57,4.545,2.624a4.868,4.868,0,0,0,4.4.007c1.214-.7,1.208-1.838-.013-2.543l-4.545-2.624a4.863,4.863,0,0,0-4.4-.007C488.513,231.779,488.519,232.919,489.74,233.624Zm11.379,6.57,4.545,2.624a4.871,4.871,0,0,0,4.406.007c1.212-.7,1.206-1.838-.015-2.543l-4.545-2.624a4.868,4.868,0,0,0-4.4-.009C499.893,238.35,499.9,239.489,501.119,240.194Zm11.38,6.57,4.545,2.624a4.868,4.868,0,0,0,4.4.007c1.212-.7,1.206-1.838-.013-2.543l-4.545-2.626a4.871,4.871,0,0,0-4.406-.007C511.272,244.92,511.278,246.059,512.5,246.764Zm11.379,6.569,4.545,2.624a4.863,4.863,0,0,0,4.4.009c1.214-.7,1.208-1.84-.013-2.544L528.27,250.8a4.868,4.868,0,0,0-4.4-.007C522.651,251.49,522.657,252.628,523.878,253.332Zm11.379,6.57,4.545,2.624a4.871,4.871,0,0,0,4.406.009c1.212-.7,1.206-1.84-.015-2.544l-4.545-2.624a4.868,4.868,0,0,0-4.4-.007C534.031,258.06,534.037,259.2,535.257,259.9Zm11.379,6.57,4.547,2.624a4.868,4.868,0,0,0,4.4.009c1.212-.7,1.206-1.84-.013-2.544l-4.545-2.624a4.871,4.871,0,0,0-4.406-.007C545.41,264.63,545.416,265.768,546.636,266.473Zm11.38,6.57,4.545,2.624a4.868,4.868,0,0,0,4.4.007c1.214-.7,1.206-1.838-.013-2.543l-4.545-2.624A4.866,4.866,0,0,0,558,270.5C556.789,271.2,556.8,272.338,558.016,273.043Zm11.379,6.57,4.545,2.624a4.871,4.871,0,0,0,4.406.007c1.212-.7,1.206-1.838-.015-2.543l-4.545-2.624a4.868,4.868,0,0,0-4.4-.009C568.168,277.77,568.176,278.908,569.4,279.613Zm11.379,6.57,4.545,2.624a4.871,4.871,0,0,0,4.406.007c1.212-.7,1.206-1.838-.013-2.543l-4.545-2.624a4.871,4.871,0,0,0-4.406-.009C579.549,284.339,579.555,285.479,580.774,286.183Zm11.617,6.706,4.545,2.624a4.868,4.868,0,0,0,4.4.007c1.214-.7,1.206-1.838-.013-2.543l-4.545-2.624a4.871,4.871,0,0,0-4.406-.009C591.164,291.045,591.17,292.185,592.391,292.889ZM440.317,217.26l3.936,2.272a5.545,5.545,0,0,0,5.013.009l3.91-2.259c1.381-.8,1.373-2.093-.015-2.894l-3.936-2.272a5.543,5.543,0,0,0-5.014-.01l-3.91,2.259C438.921,215.161,438.927,216.458,440.317,217.26Zm20.328,8.851,3.91-2.259c1.381-.8,1.374-2.093-.015-2.894l-3.936-2.273a5.545,5.545,0,0,0-5.013-.009l-3.91,2.259c-1.381.8-1.374,2.093.015,2.894l3.936,2.273A5.545,5.545,0,0,0,460.644,226.111Zm2.43,4.288,3.936,2.272a5.543,5.543,0,0,0,5.015.01l3.91-2.259c1.379-.8,1.374-2.093-.016-2.9l-3.936-2.272a5.545,5.545,0,0,0-5.013-.009l-3.91,2.259C461.679,228.3,461.686,229.6,463.075,230.4Zm11.38,6.57,3.934,2.272a5.539,5.539,0,0,0,5.015.009l3.91-2.257c1.381-.8,1.373-2.093-.016-2.9l-3.934-2.272a5.544,5.544,0,0,0-5.015-.009l-3.91,2.259C473.059,234.871,473.065,236.166,474.455,236.969Zm24.223,3.7-3.935-2.272a5.536,5.536,0,0,0-5.013-.009l-3.912,2.257c-1.379.8-1.372,2.093.016,2.9l3.935,2.272a5.536,5.536,0,0,0,5.013.009l3.91-2.257C500.074,242.765,500.066,241.47,498.678,240.667Zm11.379,6.57-3.936-2.272a5.536,5.536,0,0,0-5.013-.009l-3.91,2.257c-1.381.8-1.373,2.093.015,2.9l3.935,2.272a5.543,5.543,0,0,0,5.015.009l3.91-2.257C511.453,249.335,511.445,248.04,510.057,247.237Zm11.379,6.57-3.934-2.272a5.539,5.539,0,0,0-5.015-.009l-3.91,2.257c-1.379.8-1.374,2.093.016,2.9l3.934,2.272a5.548,5.548,0,0,0,5.015.009l3.91-2.259C522.833,255.9,522.826,254.61,521.436,253.808Zm11.38,6.569-3.936-2.27a5.54,5.54,0,0,0-5.013-.01l-3.912,2.259c-1.379.8-1.372,2.093.016,2.895l3.936,2.272a5.545,5.545,0,0,0,5.013.009l3.91-2.259C534.212,262.475,534.2,261.178,532.816,260.376Zm11.379,6.57-3.936-2.272a5.545,5.545,0,0,0-5.013-.009l-3.91,2.259c-1.381.8-1.373,2.093.015,2.9l3.936,2.272a5.548,5.548,0,0,0,5.015.009l3.91-2.259C545.591,269.045,545.584,267.748,544.2,266.946Zm11.379,6.57-3.934-2.272a5.543,5.543,0,0,0-5.014-.009l-3.91,2.259c-1.379.8-1.374,2.091.016,2.894l3.934,2.272a5.539,5.539,0,0,0,5.014.009l3.91-2.257C556.97,275.615,556.964,274.319,555.574,273.516Zm-1.464,9.442,3.935,2.272a5.536,5.536,0,0,0,5.013.009l3.91-2.257c1.381-.8,1.373-2.093-.015-2.9l-3.936-2.272a5.543,5.543,0,0,0-5.015-.009l-3.91,2.257C552.715,280.861,552.722,282.156,554.11,282.958Zm24.223,3.7-3.936-2.272a5.536,5.536,0,0,0-5.013-.009l-3.91,2.257c-1.381.8-1.374,2.093.015,2.9l3.936,2.272a5.54,5.54,0,0,0,5.013.009l3.912-2.257C579.729,288.754,579.722,287.459,578.334,286.657ZM595,296.279l-8.987-5.188a5.541,5.541,0,0,0-5.013-.009l-3.91,2.257c-1.381.8-1.374,2.093.015,2.9l8.987,5.188a5.535,5.535,0,0,0,5.013.009l3.91-2.257C596.4,298.377,596.389,297.081,595,296.279ZM429.777,223.344l8.986,5.188a5.536,5.536,0,0,0,5.013.009l3.91-2.257c1.381-.8,1.374-2.093-.015-2.9l-8.986-5.188a5.539,5.539,0,0,0-5.015-.009l-3.91,2.257C428.381,221.247,428.387,222.542,429.777,223.344Zm16.429,9.486,3.936,2.272a5.539,5.539,0,0,0,5.015.009l3.91-2.257c1.379-.8,1.372-2.093-.016-2.9l-3.936-2.272a5.536,5.536,0,0,0-5.013-.009l-3.91,2.257C444.81,230.733,444.818,232.028,446.206,232.83Zm15.314,8.842a5.543,5.543,0,0,0,5.015.009l3.91-2.257c1.379-.8,1.373-2.094-.016-2.9l-3.934-2.272a5.539,5.539,0,0,0-5.015-.009l-3.91,2.257c-1.379.8-1.374,2.093.016,2.9Zm11.38,6.57a5.545,5.545,0,0,0,5.013.009l3.91-2.259c1.381-.8,1.374-2.093-.015-2.894l-3.936-2.272a5.54,5.54,0,0,0-5.013-.01l-3.912,2.259c-1.379.8-1.372,2.093.016,2.9Zm11.339-.855-3.91,2.259c-1.381.8-1.373,2.093.015,2.894l3.936,2.272a5.54,5.54,0,0,0,5.013.01l3.912-2.259c1.38-.8,1.372-2.093-.016-2.9l-3.936-2.272A5.545,5.545,0,0,0,484.24,247.387Zm11.62,6.431-4.393,2.535c-1.246.721-1.24,1.892.015,2.617l4.42,2.552a5.007,5.007,0,0,0,4.531.007l4.391-2.535c1.248-.719,1.242-1.892-.013-2.615l-4.419-2.552A5.007,5.007,0,0,0,495.86,253.818Zm11.379,6.57-4.391,2.535c-1.248.721-1.242,1.892.013,2.617l4.42,2.552a5.01,5.01,0,0,0,4.532.007l4.391-2.535c1.246-.721,1.24-1.892-.015-2.615l-4.42-2.552A5.007,5.007,0,0,0,507.239,260.388Zm11.379,6.57-4.391,2.535c-1.248.721-1.24,1.892.015,2.617l4.418,2.55a5.006,5.006,0,0,0,4.532.009l4.391-2.535c1.248-.721,1.24-1.892-.015-2.617l-4.418-2.55A5.011,5.011,0,0,0,518.618,266.958Zm11.38,6.57-4.393,2.535c-1.246.721-1.24,1.892.015,2.615l4.42,2.552a5.007,5.007,0,0,0,4.531.009l4.391-2.535c1.248-.721,1.242-1.892-.013-2.617l-4.419-2.552A5.007,5.007,0,0,0,530,273.528Zm11.379,6.57-4.391,2.535c-1.248.719-1.242,1.892.013,2.615l4.42,2.552a5.011,5.011,0,0,0,4.532.009l4.391-2.535c1.246-.721,1.24-1.892-.015-2.617l-4.42-2.552A5.007,5.007,0,0,0,541.377,280.1Zm15.952,14.28,4.391-2.534c1.248-.721,1.24-1.892-.015-2.617l-4.418-2.552a5.01,5.01,0,0,0-4.532-.007l-4.391,2.535c-1.248.719-1.24,1.892.015,2.615l4.418,2.552A5.006,5.006,0,0,0,557.33,294.378Zm11.379,6.57,4.391-2.535c1.248-.719,1.242-1.892-.013-2.615l-4.42-2.552a5.01,5.01,0,0,0-4.532-.009l-4.391,2.537c-1.246.719-1.24,1.89.015,2.615l4.42,2.552A5,5,0,0,0,568.709,300.948ZM584.7,302.5l-4.42-2.552a5,5,0,0,0-4.531-.007l-4.391,2.535c-1.248.719-1.242,1.892.013,2.615l4.419,2.552a5.007,5.007,0,0,0,4.531.009l4.393-2.537C585.963,304.4,585.958,303.229,584.7,302.5ZM418.995,229.29l14.268,8.237a5,5,0,0,0,4.531.009L442.185,235c1.248-.721,1.242-1.892-.013-2.617L427.9,224.147a5.007,5.007,0,0,0-4.531-.009l-4.391,2.535C417.733,227.394,417.739,228.565,418.995,229.29Zm21.227,12.255,4.419,2.552a5.01,5.01,0,0,0,4.532.009l4.391-2.535c1.248-.721,1.24-1.892-.015-2.617l-4.42-2.552a5.007,5.007,0,0,0-4.531-.007l-4.391,2.535C438.961,239.651,438.967,240.821,440.222,241.545Zm11.38,6.57,4.418,2.552a5.01,5.01,0,0,0,4.532.009l4.391-2.535c1.248-.721,1.242-1.892-.015-2.617l-4.418-2.552a5.01,5.01,0,0,0-4.532-.007l-4.391,2.535C450.34,246.219,450.347,247.391,451.6,248.115Zm11.379,6.57,4.42,2.552a5,5,0,0,0,4.531.007l4.391-2.534c1.248-.721,1.242-1.892-.013-2.617l-4.42-2.552a5.007,5.007,0,0,0-4.531-.007l-4.393,2.535C461.72,252.789,461.726,253.961,462.981,254.685Zm20.33,9.129,4.391-2.535c1.246-.719,1.24-1.892-.015-2.615l-4.42-2.552a5.007,5.007,0,0,0-4.531-.009l-4.391,2.537c-1.248.719-1.242,1.89.013,2.615l4.42,2.552A5.006,5.006,0,0,0,483.312,263.814Zm11.379,6.57,4.391-2.535c1.248-.719,1.24-1.892-.015-2.615l-4.418-2.552a5.01,5.01,0,0,0-4.532-.009l-4.391,2.535c-1.248.721-1.24,1.892.015,2.617l4.418,2.552A5.01,5.01,0,0,0,494.691,270.384Zm11.379,6.57,4.391-2.535c1.248-.719,1.242-1.892-.013-2.617l-4.42-2.55a5.007,5.007,0,0,0-4.531-.009l-4.393,2.535c-1.246.721-1.24,1.892.015,2.617l4.42,2.552A5.007,5.007,0,0,0,506.07,276.955Zm11.38,6.57,4.391-2.535c1.246-.721,1.24-1.892-.015-2.617l-4.419-2.552a5.007,5.007,0,0,0-4.531-.007l-4.392,2.535c-1.248.721-1.242,1.892.013,2.617l4.42,2.55A5.006,5.006,0,0,0,517.45,283.525Zm11.379,6.57,4.391-2.535c1.248-.721,1.24-1.892-.015-2.617l-4.418-2.552a5.01,5.01,0,0,0-4.532-.007l-4.391,2.535c-1.248.719-1.24,1.892.015,2.615l4.418,2.552A5.01,5.01,0,0,0,528.829,290.095Zm11.379,6.57,4.391-2.535c1.248-.721,1.242-1.892-.013-2.617l-4.419-2.552a5.01,5.01,0,0,0-4.532-.007l-4.391,2.535c-1.246.719-1.24,1.892.015,2.615l4.42,2.552A5.007,5.007,0,0,0,540.208,296.665Zm2.429,4.01,4.42,2.552a5.007,5.007,0,0,0,4.531.009l4.393-2.537c1.246-.719,1.24-1.89-.015-2.615l-4.42-2.552a5,5,0,0,0-4.531-.007l-4.391,2.535C541.376,298.779,541.382,299.951,542.637,300.675Zm31.526,7.914L562.926,302.1a5.011,5.011,0,0,0-4.532-.009L554,304.628c-1.248.721-1.242,1.892.015,2.617l11.237,6.487a5.007,5.007,0,0,0,4.531.009l4.391-2.535C575.424,310.485,575.418,309.314,574.163,308.589ZM408.5,235.69l20.243,11.688a5.658,5.658,0,0,0,5.12.009l3.805-2.2c1.409-.813,1.4-2.136-.016-2.954l-20.243-11.688a5.658,5.658,0,0,0-5.12-.009l-3.805,2.2C407.074,233.548,407.081,234.871,408.5,235.69Zm27.793,16.047,3.829,2.211a5.658,5.658,0,0,0,5.12.009l3.805-2.2c1.409-.813,1.4-2.136-.016-2.954l-3.829-2.211a5.659,5.659,0,0,0-5.118-.01l-3.807,2.2C434.867,249.6,434.874,250.918,436.292,251.737Zm11.379,6.57,3.83,2.211a5.659,5.659,0,0,0,5.118.009l3.807-2.2c1.409-.813,1.4-2.136-.016-2.954l-3.831-2.211a5.655,5.655,0,0,0-5.118-.01l-3.807,2.2C446.246,256.165,446.253,257.489,447.671,258.307Zm11.379,6.57,3.831,2.21a5.659,5.659,0,0,0,5.118.01l3.807-2.2c1.409-.814,1.4-2.136-.016-2.956l-3.83-2.211a5.655,5.655,0,0,0-5.118-.009l-3.805,2.2C457.626,262.734,457.632,264.057,459.05,264.877Zm11.38,6.569,3.829,2.211a5.658,5.658,0,0,0,5.12.009l3.805-2.2c1.409-.814,1.4-2.137-.016-2.956l-3.829-2.211a5.658,5.658,0,0,0-5.12-.009l-3.805,2.2C469.005,269.3,469.013,270.627,470.431,271.446Zm11.379,6.57,3.83,2.211a5.655,5.655,0,0,0,5.118.009l3.807-2.2c1.409-.814,1.4-2.137-.016-2.956l-3.831-2.211a5.655,5.655,0,0,0-5.118-.009l-3.807,2.2C480.384,275.874,480.392,277.2,481.81,278.016Zm11.379,6.57,3.83,2.211a5.654,5.654,0,0,0,5.118.009l3.807-2.2c1.409-.814,1.4-2.137-.016-2.956l-3.831-2.211a5.655,5.655,0,0,0-5.118-.009l-3.805,2.2C491.765,282.444,491.771,283.767,493.189,284.586Zm11.38,6.57,3.829,2.211a5.658,5.658,0,0,0,5.12.009l3.805-2.2c1.409-.812,1.4-2.136-.016-2.954l-3.829-2.211a5.658,5.658,0,0,0-5.12-.009l-3.805,2.2C503.144,289.014,503.151,290.338,504.569,291.156Zm11.379,6.57,3.83,2.211a5.655,5.655,0,0,0,5.118.009l3.805-2.2c1.409-.813,1.4-2.136-.015-2.954l-3.831-2.211a5.659,5.659,0,0,0-5.118-.01l-3.807,2.2C514.522,295.585,514.53,296.908,515.948,297.726Zm11.379,6.57,3.83,2.21a5.655,5.655,0,0,0,5.118.01l3.807-2.2c1.409-.814,1.4-2.136-.016-2.954l-3.83-2.211a5.655,5.655,0,0,0-5.118-.01l-3.807,2.2C525.9,302.155,525.909,303.478,527.327,304.3Zm11.38,6.569,3.829,2.211a5.662,5.662,0,0,0,5.12.01l3.805-2.2c1.409-.814,1.4-2.137-.016-2.956l-3.829-2.211a5.658,5.658,0,0,0-5.12-.009l-3.805,2.2C537.282,308.723,537.289,310.046,538.707,310.865Zm24.37,3.785-3.829-2.211a5.663,5.663,0,0,0-5.12-.01l-3.805,2.2c-1.409.814-1.4,2.137.016,2.956l3.829,2.211a5.658,5.658,0,0,0,5.12.009l3.805-2.2C564.5,316.791,564.495,315.468,563.077,314.65ZM415.747,241.76l-8.879-5.129a5.658,5.658,0,0,0-5.12-.009l-3.805,2.2c-1.409.814-1.4,2.136.016,2.956l8.879,5.127a5.663,5.663,0,0,0,5.12.009l3.805-2.2C417.173,243.9,417.165,242.578,415.747,241.76Zm11.38,6.569-3.831-2.211a5.655,5.655,0,0,0-5.118-.009l-3.807,2.2c-1.409.813-1.4,2.136.016,2.954l3.83,2.211a5.655,5.655,0,0,0,5.118.01l3.807-2.2C428.553,250.47,428.546,249.147,427.128,248.328Zm11.379,6.57-3.83-2.211a5.655,5.655,0,0,0-5.118-.009l-3.805,2.2c-1.409.813-1.4,2.136.015,2.954l3.83,2.211a5.659,5.659,0,0,0,5.118.01l3.807-2.2C439.932,257.04,439.925,255.717,438.507,254.9Zm79.656,45.989-72.105-41.63a5.658,5.658,0,0,0-5.12-.009l-3.805,2.2c-1.409.814-1.4,2.137.016,2.956l72.106,41.63a5.658,5.658,0,0,0,5.12.009l3.805-2.2C519.587,303.029,519.58,301.706,518.162,300.888Zm11.38,6.57-3.83-2.211a5.655,5.655,0,0,0-5.118-.009l-3.807,2.2c-1.409.814-1.4,2.137.016,2.956l3.831,2.211a5.655,5.655,0,0,0,5.118.009l3.805-2.2C530.966,309.6,530.96,308.276,529.542,307.458Zm11.379,6.57-3.831-2.211a5.654,5.654,0,0,0-5.118-.009l-3.807,2.2c-1.409.814-1.4,2.137.016,2.956l3.83,2.211a5.655,5.655,0,0,0,5.118.009l3.807-2.2C542.347,316.17,542.339,314.846,540.921,314.028Zm11.616,6.706-3.831-2.211a5.655,5.655,0,0,0-5.118-.009l-3.805,2.2c-1.409.814-1.4,2.137.015,2.956l3.83,2.211a5.655,5.655,0,0,0,5.118.009l3.807-2.2C553.962,322.876,553.955,321.553,552.537,320.734Z" transform="translate(-312.945 -17.265)"/><path class="x" d="M450.552,210.287l9.6,5.54a4.871,4.871,0,0,0,4.406.009c1.212-.7,1.206-1.84-.015-2.544l-9.6-5.54a4.866,4.866,0,0,0-4.406-.007C449.325,208.444,449.33,209.582,450.552,210.287Zm16.429,9.486,4.545,2.624a4.871,4.871,0,0,0,4.406.007c1.212-.7,1.206-1.838-.013-2.543l-4.547-2.624a4.868,4.868,0,0,0-4.4-.009C465.755,217.93,465.761,219.068,466.981,219.773Zm11.38,6.57,4.545,2.624a4.868,4.868,0,0,0,4.4.007c1.212-.7,1.206-1.838-.013-2.543l-4.545-2.624a4.871,4.871,0,0,0-4.406-.009C477.134,224.5,477.14,225.638,478.361,226.343Zm11.379,6.57,4.545,2.624a4.868,4.868,0,0,0,4.4.007c1.214-.7,1.208-1.838-.013-2.543l-4.545-2.626a4.872,4.872,0,0,0-4.4-.007C488.513,231.069,488.519,232.207,489.74,232.913Zm11.379,6.569,4.545,2.624a4.871,4.871,0,0,0,4.406.009c1.212-.7,1.206-1.84-.015-2.544l-4.545-2.624a4.868,4.868,0,0,0-4.4-.007C499.893,237.639,499.9,238.777,501.119,239.481Zm11.38,6.57,4.545,2.624a4.868,4.868,0,0,0,4.4.009c1.212-.7,1.206-1.84-.013-2.544l-4.545-2.624a4.871,4.871,0,0,0-4.406-.007C511.272,244.209,511.278,245.347,512.5,246.051Zm11.379,6.57,4.545,2.624a4.868,4.868,0,0,0,4.4.009c1.214-.7,1.208-1.84-.013-2.544l-4.545-2.624a4.868,4.868,0,0,0-4.4-.007C522.651,250.779,522.657,251.917,523.878,252.622Zm11.379,6.57,4.545,2.624a4.871,4.871,0,0,0,4.406.007c1.212-.7,1.206-1.838-.015-2.543l-4.545-2.624a4.867,4.867,0,0,0-4.4-.009C534.031,257.349,534.037,258.487,535.257,259.192Zm11.379,6.57,4.547,2.624a4.868,4.868,0,0,0,4.4.007c1.212-.7,1.206-1.838-.013-2.543l-4.545-2.624a4.871,4.871,0,0,0-4.406-.009C545.41,263.918,545.416,265.057,546.636,265.762Zm11.38,6.57,4.545,2.624a4.868,4.868,0,0,0,4.4.007c1.214-.7,1.206-1.838-.013-2.543l-4.545-2.624a4.871,4.871,0,0,0-4.406-.009C556.789,270.488,556.8,271.627,558.016,272.332ZM569.4,278.9l4.545,2.626a4.871,4.871,0,0,0,4.406.007c1.212-.7,1.206-1.84-.015-2.544l-4.545-2.624a4.868,4.868,0,0,0-4.4-.007C568.168,277.058,568.176,278.2,569.4,278.9Zm11.379,6.57,4.545,2.624a4.871,4.871,0,0,0,4.406.009c1.212-.7,1.206-1.84-.013-2.544l-4.545-2.624a4.871,4.871,0,0,0-4.406-.007C579.549,283.628,579.555,284.766,580.774,285.471Zm11.617,6.708,4.545,2.624a4.868,4.868,0,0,0,4.4.007c1.214-.7,1.206-1.838-.013-2.543l-4.545-2.626a4.871,4.871,0,0,0-4.406-.007C591.164,290.334,591.17,291.474,592.391,292.179ZM440.317,216.547l3.936,2.272a5.54,5.54,0,0,0,5.013.01l3.91-2.259c1.381-.8,1.373-2.093-.015-2.9l-3.936-2.272a5.548,5.548,0,0,0-5.014-.009l-3.91,2.259C438.921,214.45,438.927,215.747,440.317,216.547Zm20.328,8.851,3.91-2.257c1.381-.8,1.374-2.093-.015-2.9l-3.936-2.272a5.54,5.54,0,0,0-5.013-.009l-3.91,2.257c-1.381.8-1.374,2.093.015,2.9l3.936,2.272A5.536,5.536,0,0,0,460.644,225.4Zm2.43,4.289,3.936,2.272a5.539,5.539,0,0,0,5.015.009l3.91-2.257c1.379-.8,1.374-2.093-.016-2.9l-3.936-2.272a5.536,5.536,0,0,0-5.013-.009l-3.91,2.257C461.679,227.59,461.686,228.885,463.075,229.688Zm11.38,6.57,3.934,2.272a5.543,5.543,0,0,0,5.015.009l3.91-2.259c1.381-.8,1.373-2.091-.016-2.894l-3.934-2.272a5.539,5.539,0,0,0-5.015-.009l-3.91,2.257C473.059,234.16,473.065,235.456,474.455,236.258Zm24.223,3.7-3.935-2.272a5.536,5.536,0,0,0-5.013-.009l-3.912,2.257c-1.379.8-1.372,2.093.016,2.9l3.935,2.272a5.545,5.545,0,0,0,5.013.009l3.91-2.259C500.074,242.054,500.066,240.757,498.678,239.956Zm11.379,6.569-3.936-2.27a5.54,5.54,0,0,0-5.013-.01L497.2,246.5c-1.381.8-1.373,2.093.015,2.9l3.935,2.272a5.548,5.548,0,0,0,5.015.009l3.91-2.259C511.453,248.624,511.445,247.327,510.057,246.525Zm11.379,6.57-3.934-2.272a5.548,5.548,0,0,0-5.015-.009l-3.91,2.259c-1.379.8-1.374,2.093.016,2.894l3.934,2.272a5.543,5.543,0,0,0,5.015.01l3.91-2.259C522.833,255.194,522.826,253.9,521.436,253.1Zm11.38,6.57-3.936-2.272a5.54,5.54,0,0,0-5.013-.009l-3.912,2.259c-1.379.8-1.372,2.091.016,2.894l3.936,2.272a5.536,5.536,0,0,0,5.013.009l3.91-2.257C534.212,261.764,534.2,260.468,532.816,259.665Zm11.379,6.57-3.936-2.272a5.54,5.54,0,0,0-5.013-.009l-3.91,2.257c-1.381.8-1.373,2.093.015,2.9l3.936,2.272a5.539,5.539,0,0,0,5.015.009l3.91-2.257C545.591,268.333,545.584,267.038,544.2,266.236Zm11.379,6.57-3.934-2.272a5.539,5.539,0,0,0-5.014-.009l-3.91,2.257c-1.379.8-1.374,2.093.016,2.9l3.934,2.272a5.543,5.543,0,0,0,5.014.009l3.91-2.257C556.97,274.9,556.964,273.608,555.574,272.806Zm-1.464,9.442,3.935,2.272a5.541,5.541,0,0,0,5.013.009l3.91-2.259c1.381-.8,1.373-2.091-.015-2.894l-3.936-2.272a5.539,5.539,0,0,0-5.015-.009l-3.91,2.257C552.715,280.148,552.722,281.445,554.11,282.247Zm24.223,3.7-3.936-2.272a5.54,5.54,0,0,0-5.013-.01l-3.91,2.259c-1.381.8-1.374,2.093.015,2.9l3.936,2.272a5.545,5.545,0,0,0,5.013.009l3.912-2.259C579.729,288.043,579.722,286.747,578.334,285.946ZM595,295.568l-8.987-5.188a5.536,5.536,0,0,0-5.013-.009l-3.91,2.257c-1.381.8-1.374,2.093.015,2.9l8.987,5.188a5.54,5.54,0,0,0,5.013.009l3.91-2.257C596.4,297.665,596.389,296.37,595,295.568ZM429.777,222.634l8.986,5.188a5.54,5.54,0,0,0,5.013.009l3.91-2.259c1.381-.8,1.374-2.091-.015-2.894l-8.986-5.188a5.539,5.539,0,0,0-5.015-.009l-3.91,2.257C428.381,220.535,428.387,221.831,429.777,222.634Zm16.429,9.486,3.936,2.272a5.548,5.548,0,0,0,5.015.009l3.91-2.259c1.379-.8,1.372-2.093-.016-2.894l-3.936-2.272a5.54,5.54,0,0,0-5.013-.01l-3.91,2.259C444.81,230.021,444.818,231.317,446.206,232.119Zm15.314,8.841a5.543,5.543,0,0,0,5.015.01l3.91-2.259c1.379-.8,1.373-2.093-.016-2.9l-3.934-2.272a5.548,5.548,0,0,0-5.015-.009l-3.91,2.259c-1.379.8-1.374,2.093.016,2.894Zm11.38,6.57a5.536,5.536,0,0,0,5.013.009l3.91-2.257c1.381-.8,1.374-2.093-.015-2.9l-3.936-2.272a5.545,5.545,0,0,0-5.013-.009l-3.912,2.259c-1.379.8-1.372,2.093.016,2.894Zm11.339-.854-3.91,2.257c-1.381.8-1.373,2.093.015,2.895l3.936,2.272a5.536,5.536,0,0,0,5.013.009l3.912-2.257c1.38-.8,1.372-2.093-.016-2.9l-3.936-2.272A5.54,5.54,0,0,0,484.24,246.676Zm11.62,6.431-4.393,2.535c-1.246.721-1.24,1.892.015,2.617l4.42,2.55a5.007,5.007,0,0,0,4.531.009l4.391-2.535c1.248-.721,1.242-1.892-.013-2.617l-4.419-2.552A5.007,5.007,0,0,0,495.86,253.107Zm11.379,6.57-4.391,2.535c-1.248.721-1.242,1.892.013,2.615l4.42,2.552a5.01,5.01,0,0,0,4.532.009l4.391-2.535c1.246-.721,1.24-1.892-.015-2.617l-4.42-2.552A5.007,5.007,0,0,0,507.239,259.677Zm11.379,6.57-4.391,2.535c-1.248.719-1.24,1.892.015,2.615l4.418,2.552a5.01,5.01,0,0,0,4.532.009l4.391-2.535c1.248-.721,1.24-1.892-.015-2.617l-4.418-2.552A5.011,5.011,0,0,0,518.618,266.247Zm11.38,6.57-4.393,2.535c-1.246.719-1.24,1.892.015,2.615l4.42,2.552a5,5,0,0,0,4.531.007l4.391-2.535c1.248-.719,1.242-1.892-.013-2.615l-4.419-2.552A5,5,0,0,0,530,272.817Zm11.379,6.569-4.391,2.535c-1.248.721-1.242,1.892.013,2.617l4.42,2.552a5.01,5.01,0,0,0,4.532.007l4.391-2.535c1.246-.719,1.24-1.892-.015-2.615l-4.42-2.552A5.007,5.007,0,0,0,541.377,279.386Zm15.952,14.281,4.391-2.535c1.248-.719,1.24-1.892-.015-2.615l-4.418-2.552a5.01,5.01,0,0,0-4.532-.009l-4.391,2.535c-1.248.721-1.24,1.892.015,2.617l4.418,2.552A5.01,5.01,0,0,0,557.33,293.668Zm11.379,6.57L573.1,297.7c1.248-.721,1.242-1.892-.013-2.617l-4.42-2.55a5.01,5.01,0,0,0-4.532-.009l-4.391,2.535c-1.246.721-1.24,1.892.015,2.617l4.42,2.55A5,5,0,0,0,568.709,300.238Zm15.994,1.556-4.42-2.552a5.007,5.007,0,0,0-4.531-.009l-4.391,2.535c-1.248.721-1.242,1.892.013,2.617l4.419,2.552a5.007,5.007,0,0,0,4.531.007l4.393-2.535C585.963,303.689,585.958,302.517,584.7,301.793ZM418.995,228.579l14.268,8.237a5.007,5.007,0,0,0,4.531.009l4.391-2.535c1.248-.721,1.242-1.892-.013-2.617L427.9,223.436a5,5,0,0,0-4.531-.009l-4.391,2.535C417.733,226.683,417.739,227.854,418.995,228.579Zm21.227,12.255,4.419,2.552a5.006,5.006,0,0,0,4.532.007l4.391-2.535c1.248-.719,1.24-1.892-.015-2.615l-4.42-2.552a5,5,0,0,0-4.531-.007l-4.391,2.535C438.961,238.938,438.967,240.11,440.222,240.834Zm11.38,6.57,4.418,2.552a5.01,5.01,0,0,0,4.532.007l4.391-2.535c1.248-.719,1.242-1.892-.015-2.615l-4.418-2.552a5.01,5.01,0,0,0-4.532-.009l-4.391,2.535C450.34,245.508,450.347,246.679,451.6,247.4Zm11.379,6.57,4.42,2.552a5.007,5.007,0,0,0,4.531.007L476.323,254c1.248-.719,1.242-1.892-.013-2.615l-4.42-2.552a5.007,5.007,0,0,0-4.531-.009l-4.393,2.535C461.72,252.078,461.726,253.249,462.981,253.974Zm20.33,9.129,4.391-2.535c1.246-.721,1.24-1.892-.015-2.617l-4.42-2.55a5.007,5.007,0,0,0-4.531-.009l-4.391,2.535c-1.248.721-1.242,1.892.013,2.617l4.42,2.55A5.006,5.006,0,0,0,483.312,263.1Zm11.379,6.57,4.391-2.535c1.248-.721,1.24-1.892-.015-2.617l-4.418-2.552a5.01,5.01,0,0,0-4.532-.007l-4.391,2.535c-1.248.721-1.24,1.892.015,2.615l4.418,2.552A5.01,5.01,0,0,0,494.691,269.674Zm11.379,6.57,4.391-2.535c1.248-.721,1.242-1.892-.013-2.617l-4.42-2.552a5.007,5.007,0,0,0-4.531-.007l-4.393,2.535c-1.246.719-1.24,1.892.015,2.615l4.42,2.552A5.007,5.007,0,0,0,506.07,276.244Zm11.38,6.57,4.391-2.535c1.246-.721,1.24-1.892-.015-2.617l-4.419-2.552a5.007,5.007,0,0,0-4.531-.007l-4.392,2.535c-1.248.719-1.242,1.892.013,2.615l4.42,2.552A5.01,5.01,0,0,0,517.45,282.814Zm11.379,6.569,4.391-2.535c1.248-.719,1.24-1.892-.015-2.615l-4.418-2.552a5.01,5.01,0,0,0-4.532-.009l-4.391,2.537c-1.248.719-1.24,1.89.015,2.615l4.418,2.552A5.006,5.006,0,0,0,528.829,289.383Zm11.379,6.57,4.391-2.535c1.248-.719,1.242-1.892-.013-2.615l-4.419-2.552a5.01,5.01,0,0,0-4.532-.009l-4.391,2.535c-1.246.721-1.24,1.892.015,2.617l4.42,2.552A5.007,5.007,0,0,0,540.208,295.953Zm2.429,4.011,4.42,2.552a5.007,5.007,0,0,0,4.531.007l4.393-2.535c1.246-.721,1.24-1.892-.015-2.617l-4.42-2.55a5.007,5.007,0,0,0-4.531-.009l-4.391,2.535C541.376,298.068,541.382,299.239,542.637,299.964Zm31.526,7.914-11.237-6.489a5.011,5.011,0,0,0-4.532-.007L554,303.917c-1.248.721-1.242,1.892.015,2.617l11.237,6.487a5.007,5.007,0,0,0,4.531.009l4.391-2.535C575.424,309.774,575.418,308.6,574.163,307.878ZM408.5,234.979l20.243,11.687a5.658,5.658,0,0,0,5.12.01l3.805-2.2c1.409-.813,1.4-2.136-.016-2.954l-20.243-11.688a5.662,5.662,0,0,0-5.12-.01l-3.805,2.2C407.074,232.837,407.081,234.16,408.5,234.979Zm27.793,16.046,3.829,2.211a5.662,5.662,0,0,0,5.12.01l3.805-2.2c1.409-.814,1.4-2.137-.016-2.956l-3.829-2.211a5.655,5.655,0,0,0-5.118-.009l-3.807,2.2C434.867,248.883,434.874,250.206,436.292,251.025Zm11.379,6.57,3.83,2.211a5.655,5.655,0,0,0,5.118.009l3.807-2.2c1.409-.814,1.4-2.137-.016-2.956l-3.831-2.211a5.655,5.655,0,0,0-5.118-.009l-3.807,2.2C446.246,255.453,446.253,256.776,447.671,257.595Zm11.379,6.57,3.831,2.211a5.655,5.655,0,0,0,5.118.009l3.807-2.2c1.409-.814,1.4-2.137-.016-2.956l-3.83-2.211a5.655,5.655,0,0,0-5.118-.009l-3.805,2.2C457.626,262.023,457.632,263.346,459.05,264.165Zm11.38,6.57,3.829,2.211a5.658,5.658,0,0,0,5.12.009l3.805-2.2c1.409-.813,1.4-2.136-.016-2.954l-3.829-2.211a5.658,5.658,0,0,0-5.12-.009l-3.805,2.2C469.005,268.593,469.013,269.916,470.431,270.735Zm11.379,6.57,3.83,2.211a5.655,5.655,0,0,0,5.118.009l3.807-2.2c1.409-.813,1.4-2.136-.016-2.954l-3.831-2.211a5.655,5.655,0,0,0-5.118-.009l-3.807,2.2C480.384,275.163,480.392,276.487,481.81,277.305Zm11.379,6.57,3.83,2.211a5.659,5.659,0,0,0,5.118.009l3.807-2.2c1.409-.813,1.4-2.136-.016-2.954l-3.831-2.211a5.659,5.659,0,0,0-5.118-.01l-3.805,2.2C491.765,281.733,491.771,283.057,493.189,283.875Zm11.38,6.57,3.829,2.21a5.658,5.658,0,0,0,5.12.01l3.805-2.2c1.409-.814,1.4-2.136-.016-2.956l-3.829-2.211a5.658,5.658,0,0,0-5.12-.009l-3.805,2.2C503.144,288.3,503.151,289.625,504.569,290.445Zm11.379,6.569,3.83,2.211a5.66,5.66,0,0,0,5.118.01l3.805-2.2c1.409-.814,1.4-2.137-.015-2.956l-3.831-2.211a5.655,5.655,0,0,0-5.118-.009l-3.807,2.2C514.522,294.872,514.53,296.2,515.948,297.014Zm11.379,6.57,3.83,2.211a5.655,5.655,0,0,0,5.118.009l3.807-2.2c1.409-.814,1.4-2.137-.016-2.956l-3.83-2.211a5.655,5.655,0,0,0-5.118-.009l-3.807,2.2C525.9,301.442,525.909,302.766,527.327,303.584Zm11.38,6.57,3.829,2.211a5.658,5.658,0,0,0,5.12.009l3.805-2.2c1.409-.814,1.4-2.137-.016-2.956l-3.829-2.211A5.658,5.658,0,0,0,542.5,305l-3.805,2.2C537.282,308.013,537.289,309.336,538.707,310.154Zm24.37,3.783-3.829-2.211a5.658,5.658,0,0,0-5.12-.009l-3.805,2.2c-1.409.813-1.4,2.136.016,2.954l3.829,2.211a5.658,5.658,0,0,0,5.12.01l3.805-2.2C564.5,316.079,564.495,314.756,563.077,313.937Zm-147.329-72.89-8.879-5.127a5.658,5.658,0,0,0-5.12-.009l-3.805,2.2c-1.409.813-1.4,2.136.016,2.954l8.879,5.127a5.662,5.662,0,0,0,5.12.01l3.805-2.2C417.173,243.189,417.165,241.866,415.747,241.047Zm11.38,6.57-3.831-2.211a5.655,5.655,0,0,0-5.118-.009l-3.807,2.2c-1.409.814-1.4,2.137.016,2.956l3.83,2.211a5.655,5.655,0,0,0,5.118.009l3.807-2.2C428.553,249.759,428.546,248.436,427.128,247.617Zm11.379,6.57-3.83-2.211a5.655,5.655,0,0,0-5.118-.009l-3.805,2.2c-1.409.814-1.4,2.137.015,2.956l3.83,2.211a5.655,5.655,0,0,0,5.118.009l3.807-2.2C439.932,256.329,439.925,255.006,438.507,254.188Zm79.656,45.989-72.105-41.63a5.663,5.663,0,0,0-5.12-.01l-3.805,2.2c-1.409.814-1.4,2.137.016,2.956l72.106,41.63a5.658,5.658,0,0,0,5.12.009l3.805-2.2C519.587,302.319,519.58,301,518.162,300.177Zm11.38,6.57-3.83-2.211a5.655,5.655,0,0,0-5.118-.01l-3.807,2.2c-1.409.814-1.4,2.137.016,2.956l3.831,2.211a5.655,5.655,0,0,0,5.118.009l3.805-2.2C530.966,308.889,530.96,307.566,529.542,306.747Zm11.379,6.57-3.831-2.213a5.659,5.659,0,0,0-5.118-.009l-3.807,2.2c-1.409.813-1.4,2.137.016,2.954l3.83,2.213a5.66,5.66,0,0,0,5.118.009l3.807-2.2C542.347,315.459,542.339,314.136,540.921,313.317Zm11.616,6.706-3.831-2.211a5.659,5.659,0,0,0-5.118-.01l-3.805,2.2c-1.409.814-1.4,2.137.015,2.956l3.83,2.211a5.655,5.655,0,0,0,5.118.009l3.807-2.2C553.962,322.165,553.955,320.842,552.537,320.023Z" transform="translate(-312.945 -17.607)"/><g transform="translate(83.962 191.17)"><path class="q" d="M439.229,246.25l3.83,2.211a5.655,5.655,0,0,0,5.118.009l3.807-2.2a1.653,1.653,0,0,0,1.014-1.7,1.9,1.9,0,0,1-1.014,1.239l-3.807,2.2A5.655,5.655,0,0,1,443.06,248l-3.83-2.211a1.934,1.934,0,0,1-1.03-1.258A1.678,1.678,0,0,0,439.229,246.25Z" transform="translate(-377.086 -190.863)"/><path class="q" d="M446.919,250.689l3.829,2.211a5.658,5.658,0,0,0,5.12.009l3.805-2.2a1.65,1.65,0,0,0,1.014-1.7,1.9,1.9,0,0,1-1.014,1.239l-3.805,2.2a5.663,5.663,0,0,1-5.12-.009l-3.829-2.211a1.932,1.932,0,0,1-1.03-1.258A1.675,1.675,0,0,0,446.919,250.689Z" transform="translate(-373.395 -188.731)"/><path class="q" d="M454.607,255.128l3.83,2.211a5.655,5.655,0,0,0,5.118.009l3.807-2.2a1.655,1.655,0,0,0,1.014-1.7,1.907,1.907,0,0,1-1.014,1.239l-3.807,2.2a5.66,5.66,0,0,1-5.118-.009l-3.83-2.211a1.936,1.936,0,0,1-1.03-1.258A1.675,1.675,0,0,0,454.607,255.128Z" transform="translate(-369.704 -186.6)"/><path class="q" d="M479.147,251.124a1.707,1.707,0,0,1-.894,1.069l-4.391,2.535a5,5,0,0,1-4.531-.007l-4.42-2.552a1.724,1.724,0,0,1-.907-1.088,1.47,1.47,0,0,0,.907,1.545l4.42,2.552a5.007,5.007,0,0,0,4.531.009l4.391-2.535A1.455,1.455,0,0,0,479.147,251.124Z" transform="translate(-364.699 -187.72)"/><path class="q" d="M441.847,239.311l4.419,2.552a5.007,5.007,0,0,0,4.531.007l4.392-2.535a1.452,1.452,0,0,0,.894-1.527,1.708,1.708,0,0,1-.894,1.07l-4.392,2.535a5,5,0,0,1-4.531-.009l-4.419-2.552a1.724,1.724,0,0,1-.907-1.088A1.472,1.472,0,0,0,441.847,239.311Z" transform="translate(-375.772 -194.113)"/><path class="q" d="M449.535,243.75l4.42,2.55a5.006,5.006,0,0,0,4.532.009l4.391-2.535a1.453,1.453,0,0,0,.893-1.527,1.705,1.705,0,0,1-.893,1.07l-4.391,2.535a5.01,5.01,0,0,1-4.532-.009l-4.42-2.552a1.729,1.729,0,0,1-.907-1.088A1.474,1.474,0,0,0,449.535,243.75Z" transform="translate(-372.081 -191.982)"/><path class="q" d="M471.46,246.685a1.713,1.713,0,0,1-.894,1.07l-4.391,2.535a5.01,5.01,0,0,1-4.532-.009l-4.418-2.552a1.731,1.731,0,0,1-.909-1.088,1.473,1.473,0,0,0,.909,1.545l4.418,2.552a5.01,5.01,0,0,0,4.532.009l4.391-2.535A1.456,1.456,0,0,0,471.46,246.685Z" transform="translate(-368.39 -189.851)"/><path class="q" d="M462.295,259.568l3.83,2.211a5.659,5.659,0,0,0,5.118.009l3.807-2.2a1.653,1.653,0,0,0,1.014-1.7,1.9,1.9,0,0,1-1.014,1.239l-3.807,2.2a5.659,5.659,0,0,1-5.118-.01l-3.83-2.211a1.934,1.934,0,0,1-1.03-1.258A1.676,1.676,0,0,0,462.295,259.568Z" transform="translate(-366.013 -184.47)"/><path class="q" d="M486.835,255.561a1.7,1.7,0,0,1-.892,1.07l-4.391,2.535a5.011,5.011,0,0,1-4.532-.007l-4.419-2.552a1.729,1.729,0,0,1-.907-1.088,1.472,1.472,0,0,0,.907,1.545l4.419,2.552a5.01,5.01,0,0,0,4.532.009l4.391-2.537A1.453,1.453,0,0,0,486.835,255.561Z" transform="translate(-361.008 -185.589)"/><path class="q" d="M486.62,270.666l3.805-2.2a1.655,1.655,0,0,0,1.015-1.7,1.911,1.911,0,0,1-1.015,1.24l-3.805,2.2a5.655,5.655,0,0,1-5.118-.009l-3.831-2.211a1.93,1.93,0,0,1-1.03-1.258,1.673,1.673,0,0,0,1.03,1.715l3.831,2.211A5.66,5.66,0,0,0,486.62,270.666Z" transform="translate(-358.63 -180.207)"/><path class="q" d="M502.212,264.44a1.709,1.709,0,0,1-.894,1.07l-4.391,2.535a5,5,0,0,1-4.531-.009l-4.42-2.55a1.726,1.726,0,0,1-.907-1.089,1.472,1.472,0,0,0,.907,1.547l4.42,2.552a5.007,5.007,0,0,0,4.531.007l4.391-2.535A1.454,1.454,0,0,0,502.212,264.44Z" transform="translate(-353.626 -181.327)"/><path class="q" d="M431.542,241.811l3.83,2.211a5.655,5.655,0,0,0,5.118.009l3.807-2.2a1.656,1.656,0,0,0,1.014-1.7,1.913,1.913,0,0,1-1.014,1.24l-3.807,2.2a5.655,5.655,0,0,1-5.118-.009l-3.83-2.211a1.934,1.934,0,0,1-1.03-1.258A1.674,1.674,0,0,0,431.542,241.811Z" transform="translate(-380.777 -192.994)"/><path class="q" d="M434.159,234.872l4.418,2.552a5.006,5.006,0,0,0,4.532.007L447.5,234.9a1.456,1.456,0,0,0,.894-1.527,1.71,1.71,0,0,1-.894,1.07l-4.391,2.535a5.006,5.006,0,0,1-4.532-.009l-4.418-2.55a1.726,1.726,0,0,1-.907-1.089A1.472,1.472,0,0,0,434.159,234.872Z" transform="translate(-379.463 -196.244)"/><path class="q" d="M469.984,264.005l3.829,2.211a5.658,5.658,0,0,0,5.12.01l3.805-2.2a1.653,1.653,0,0,0,1.014-1.7,1.9,1.9,0,0,1-1.014,1.24l-3.805,2.2a5.658,5.658,0,0,1-5.12-.009l-3.829-2.211a1.926,1.926,0,0,1-1.03-1.258A1.673,1.673,0,0,0,469.984,264.005Z" transform="translate(-362.321 -182.339)"/><path class="q" d="M494.525,260a1.709,1.709,0,0,1-.894,1.07l-4.391,2.535a5.01,5.01,0,0,1-4.532-.007l-4.418-2.552a1.734,1.734,0,0,1-.909-1.089,1.475,1.475,0,0,0,.909,1.547l4.418,2.552a5.01,5.01,0,0,0,4.532.009l4.391-2.537A1.456,1.456,0,0,0,494.525,260Z" transform="translate(-357.317 -183.458)"/><path class="q" d="M438.234,229.027l3.934,2.272a5.543,5.543,0,0,0,5.015.01l3.91-2.259a1.621,1.621,0,0,0,.993-1.667,1.872,1.872,0,0,1-.993,1.209l-3.91,2.257a5.539,5.539,0,0,1-5.015-.009l-3.934-2.272a1.9,1.9,0,0,1-1.009-1.227A1.638,1.638,0,0,0,438.234,229.027Z" transform="translate(-377.554 -199.116)"/><path class="q" d="M477.867,235.829l-3.91,2.257a5.539,5.539,0,0,1-5.015-.009l-3.936-2.272A1.9,1.9,0,0,1,464,234.578a1.639,1.639,0,0,0,1.008,1.686l3.936,2.272a5.548,5.548,0,0,0,5.015.009l3.91-2.259a1.617,1.617,0,0,0,.992-1.667A1.869,1.869,0,0,1,477.867,235.829Z" transform="translate(-364.7 -195.643)"/><path class="q" d="M513.78,262.9a1.713,1.713,0,0,1-.894,1.07L508.5,266.5a5.011,5.011,0,0,1-4.532-.009l-4.418-2.552a1.732,1.732,0,0,1-.909-1.088,1.475,1.475,0,0,0,.909,1.547l4.418,2.552a5.01,5.01,0,0,0,4.532.007l4.391-2.535A1.456,1.456,0,0,0,513.78,262.9Z" transform="translate(-348.072 -182.068)"/><path class="q" d="M497.509,255.088l-4.391,2.535a5.007,5.007,0,0,1-4.531-.007l-4.42-2.552a1.727,1.727,0,0,1-.907-1.088,1.471,1.471,0,0,0,.907,1.545l4.42,2.552a5,5,0,0,0,4.531.007l4.391-2.535a1.454,1.454,0,0,0,.894-1.527A1.706,1.706,0,0,1,497.509,255.088Z" transform="translate(-355.454 -186.33)"/><path class="q" d="M470.177,231.39l-3.91,2.259a5.54,5.54,0,0,1-5.013-.01l-3.936-2.272a1.89,1.89,0,0,1-1.008-1.227,1.639,1.639,0,0,0,1.008,1.686l3.936,2.272a5.545,5.545,0,0,0,5.013.009l3.91-2.259a1.616,1.616,0,0,0,.993-1.667A1.865,1.865,0,0,1,470.177,231.39Z" transform="translate(-368.391 -197.774)"/><path class="q" d="M493.243,244.707l-3.91,2.257a5.54,5.54,0,0,1-5.013-.009l-3.936-2.272a1.892,1.892,0,0,1-1.008-1.228,1.638,1.638,0,0,0,1.008,1.686l3.936,2.272a5.536,5.536,0,0,0,5.013.009l3.91-2.257a1.617,1.617,0,0,0,.993-1.667A1.871,1.871,0,0,1,493.243,244.707Z" transform="translate(-357.318 -191.381)"/><path class="q" d="M500.932,249.145,497.02,251.4a5.54,5.54,0,0,1-5.013-.009l-3.936-2.272a1.9,1.9,0,0,1-1.008-1.228,1.64,1.64,0,0,0,1.008,1.686l3.936,2.272a5.535,5.535,0,0,0,5.013.009l3.912-2.257a1.617,1.617,0,0,0,.992-1.667A1.867,1.867,0,0,1,500.932,249.145Z" transform="translate(-353.627 -189.25)"/><path class="q" d="M434.253,218.508l3.935,2.272a5.536,5.536,0,0,0,5.013.009l3.91-2.257a1.617,1.617,0,0,0,.993-1.667,1.872,1.872,0,0,1-.993,1.209l-3.91,2.257a5.54,5.54,0,0,1-5.013-.009l-3.935-2.272a1.892,1.892,0,0,1-1.008-1.228A1.639,1.639,0,0,0,434.253,218.508Z" transform="translate(-379.465 -204.167)"/><path class="q" d="M454.8,222.512l-3.91,2.259a5.548,5.548,0,0,1-5.015-.009l-3.936-2.272a1.9,1.9,0,0,1-1.008-1.228,1.639,1.639,0,0,0,1.008,1.686l3.936,2.272a5.539,5.539,0,0,0,5.015.009l3.91-2.257a1.619,1.619,0,0,0,.992-1.668A1.862,1.862,0,0,1,454.8,222.512Z" transform="translate(-375.774 -202.036)"/><path class="q" d="M462.49,226.951l-3.91,2.259a5.548,5.548,0,0,1-5.015-.009l-3.934-2.272a1.9,1.9,0,0,1-1.009-1.228,1.641,1.641,0,0,0,1.009,1.686l3.934,2.272a5.543,5.543,0,0,0,5.015.009l3.91-2.257a1.621,1.621,0,0,0,.993-1.668A1.869,1.869,0,0,1,462.49,226.951Z" transform="translate(-372.083 -199.905)"/><path class="q" d="M485.555,240.268l-3.91,2.257a5.539,5.539,0,0,1-5.014-.009l-3.934-2.272a1.9,1.9,0,0,1-1.009-1.227A1.638,1.638,0,0,0,472.7,240.7l3.934,2.272a5.543,5.543,0,0,0,5.014.01l3.91-2.259a1.621,1.621,0,0,0,.993-1.667A1.872,1.872,0,0,1,485.555,240.268Z" transform="translate(-361.009 -193.512)"/><path class="q" d="M482.134,246.21l-4.391,2.537a5.011,5.011,0,0,1-4.532-.009l-4.419-2.552a1.729,1.729,0,0,1-.907-1.088,1.471,1.471,0,0,0,.907,1.545l4.419,2.552a5.01,5.01,0,0,0,4.532.009l4.391-2.535a1.455,1.455,0,0,0,.892-1.527A1.7,1.7,0,0,1,482.134,246.21Z" transform="translate(-362.836 -190.592)"/><path class="q" d="M466.47,237.472l-3.912,2.257a5.54,5.54,0,0,1-5.013-.009l-3.936-2.272a1.9,1.9,0,0,1-1.008-1.228,1.639,1.639,0,0,0,1.008,1.686l3.936,2.272a5.536,5.536,0,0,0,5.013.009l3.912-2.257a1.618,1.618,0,0,0,.992-1.668A1.871,1.871,0,0,1,466.47,237.472Z" transform="translate(-370.172 -194.854)"/><path class="q" d="M474.444,241.772l-4.391,2.535a5.007,5.007,0,0,1-4.531-.009l-4.42-2.552a1.724,1.724,0,0,1-.907-1.088,1.472,1.472,0,0,0,.907,1.547l4.42,2.55a5.007,5.007,0,0,0,4.531.009l4.391-2.535a1.453,1.453,0,0,0,.894-1.527A1.709,1.709,0,0,1,474.444,241.772Z" transform="translate(-366.527 -192.723)"/><path class="q" d="M489.822,250.649l-4.391,2.535a5.006,5.006,0,0,1-4.532-.007l-4.418-2.552a1.732,1.732,0,0,1-.909-1.088,1.474,1.474,0,0,0,.909,1.545l4.418,2.552a5.011,5.011,0,0,0,4.532.009l4.391-2.535a1.459,1.459,0,0,0,.894-1.529A1.706,1.706,0,0,1,489.822,250.649Z" transform="translate(-359.145 -188.461)"/><path class="q" d="M499.129,271.209a1.907,1.907,0,0,1-1.014,1.239l-3.807,2.2a5.655,5.655,0,0,1-5.118-.009l-3.831-2.211a1.934,1.934,0,0,1-1.03-1.258,1.674,1.674,0,0,0,1.03,1.715l3.831,2.211a5.655,5.655,0,0,0,5.118.009l3.807-2.2A1.653,1.653,0,0,0,499.129,271.209Z" transform="translate(-354.94 -178.076)"/><path class="q" d="M516.308,258.023l-3.91,2.259a5.545,5.545,0,0,1-5.013-.009L503.449,258a1.892,1.892,0,0,1-1.008-1.228,1.637,1.637,0,0,0,1.008,1.686l3.936,2.272a5.541,5.541,0,0,0,5.013.009l3.91-2.259a1.616,1.616,0,0,0,.993-1.667A1.865,1.865,0,0,1,516.308,258.023Z" transform="translate(-346.245 -184.988)"/><path class="q" d="M445.922,233.467l3.936,2.272a5.536,5.536,0,0,0,5.013.009l3.91-2.257a1.617,1.617,0,0,0,.993-1.667,1.868,1.868,0,0,1-.993,1.209l-3.91,2.257a5.536,5.536,0,0,1-5.013-.009l-3.936-2.272a1.889,1.889,0,0,1-1.008-1.228A1.639,1.639,0,0,0,445.922,233.467Z" transform="translate(-373.863 -196.986)"/><path class="q" d="M508.62,253.584l-3.91,2.259a5.548,5.548,0,0,1-5.014-.009l-3.934-2.272a1.9,1.9,0,0,1-1.009-1.228,1.639,1.639,0,0,0,1.009,1.686l3.934,2.272a5.543,5.543,0,0,0,5.014.009l3.91-2.257a1.622,1.622,0,0,0,.993-1.668A1.869,1.869,0,0,1,508.62,253.584Z" transform="translate(-349.936 -187.119)"/><path class="q" d="M506.091,258.457a1.7,1.7,0,0,1-.892,1.07l-4.391,2.535a5.01,5.01,0,0,1-4.532-.007l-4.42-2.552a1.731,1.731,0,0,1-.907-1.089,1.474,1.474,0,0,0,.907,1.547l4.42,2.552a5.01,5.01,0,0,0,4.532.007l4.391-2.535A1.453,1.453,0,0,0,506.091,258.457Z" transform="translate(-351.763 -184.199)"/><path class="q" d="M422.824,235.377a1.907,1.907,0,0,1-1.014,1.239l-3.807,2.2a5.655,5.655,0,0,1-5.118-.009l-3.83-2.211a1.934,1.934,0,0,1-1.03-1.258,1.674,1.674,0,0,0,1.03,1.715l3.83,2.211a5.655,5.655,0,0,0,5.118.009l3.807-2.2A1.655,1.655,0,0,0,422.824,235.377Z" transform="translate(-391.573 -195.279)"/><path class="q" d="M405.076,226.531l20.243,11.687a5.658,5.658,0,0,0,5.12.01l3.805-2.2a1.653,1.653,0,0,0,1.014-1.7,1.9,1.9,0,0,1-1.014,1.24l-3.805,2.2a5.658,5.658,0,0,1-5.12-.009l-20.243-11.687a1.932,1.932,0,0,1-1.03-1.258A1.675,1.675,0,0,0,405.076,226.531Z" transform="translate(-393.483 -200.329)"/><path class="q" d="M430.544,224.59l3.936,2.272a5.548,5.548,0,0,0,5.015.009l3.91-2.259a1.617,1.617,0,0,0,.992-1.667,1.866,1.866,0,0,1-.992,1.209l-3.91,2.259a5.544,5.544,0,0,1-5.015-.01l-3.936-2.272a1.9,1.9,0,0,1-1.008-1.227A1.639,1.639,0,0,0,430.544,224.59Z" transform="translate(-381.245 -201.247)"/><path class="q" d="M430.512,239.816a1.9,1.9,0,0,1-1.014,1.239l-3.807,2.2a5.659,5.659,0,0,1-5.118-.009l-3.83-2.211a1.934,1.934,0,0,1-1.03-1.258,1.675,1.675,0,0,0,1.03,1.715l3.83,2.211a5.655,5.655,0,0,0,5.118.009l3.807-2.2A1.654,1.654,0,0,0,430.512,239.816Z" transform="translate(-387.882 -193.148)"/><path class="q" d="M426.566,214.069l3.936,2.272a5.536,5.536,0,0,0,5.013.009l3.91-2.257a1.618,1.618,0,0,0,.993-1.667,1.872,1.872,0,0,1-.993,1.209l-3.91,2.257a5.54,5.54,0,0,1-5.013-.009l-3.936-2.272a1.892,1.892,0,0,1-1.008-1.228A1.637,1.637,0,0,0,426.566,214.069Z" transform="translate(-383.155 -206.298)"/><path class="q" d="M506.476,283.675a1.9,1.9,0,0,1-1.014,1.239l-3.805,2.2a5.662,5.662,0,0,1-5.12-.009l-72.105-41.63a1.931,1.931,0,0,1-1.03-1.26,1.676,1.676,0,0,0,1.03,1.717l72.105,41.63a5.658,5.658,0,0,0,5.12.009l3.805-2.2A1.655,1.655,0,0,0,506.476,283.675Z" transform="translate(-384.19 -191.017)"/><path class="q" d="M419.445,218.181l8.986,5.188a5.54,5.54,0,0,0,5.013.009l3.91-2.259a1.616,1.616,0,0,0,.993-1.667,1.865,1.865,0,0,1-.993,1.209l-3.91,2.259a5.54,5.54,0,0,1-5.013-.01l-8.986-5.188a1.89,1.89,0,0,1-1.008-1.227A1.637,1.637,0,0,0,419.445,218.181Z" transform="translate(-386.574 -204.324)"/><path class="q" d="M412.128,222.153l14.268,8.237a5.007,5.007,0,0,0,4.531.009l4.391-2.535a1.455,1.455,0,0,0,.894-1.529,1.7,1.7,0,0,1-.894,1.07l-4.391,2.535a5,5,0,0,1-4.531-.007l-14.268-8.238a1.729,1.729,0,0,1-.907-1.088A1.472,1.472,0,0,0,412.128,222.153Z" transform="translate(-390.04 -202.351)"/><path class="q" d="M513.662,281.426l-3.805,2.2a5.658,5.658,0,0,1-5.12-.009l-3.829-2.211a1.925,1.925,0,0,1-1.03-1.258,1.673,1.673,0,0,0,1.03,1.715l3.829,2.211a5.658,5.658,0,0,0,5.12.01l3.805-2.2a1.653,1.653,0,0,0,1.014-1.7A1.9,1.9,0,0,1,513.662,281.426Z" transform="translate(-347.475 -173.767)"/><path class="q" d="M523.513,278.324l-4.392,2.535a5.007,5.007,0,0,1-4.53-.007l-11.237-6.489a1.732,1.732,0,0,1-.909-1.088,1.475,1.475,0,0,0,.909,1.547l11.237,6.487a5.007,5.007,0,0,0,4.53.009l4.392-2.535a1.455,1.455,0,0,0,.894-1.529A1.7,1.7,0,0,1,523.513,278.324Z" transform="translate(-346.243 -177.065)"/><path class="q" d="M492.019,275.328A1.906,1.906,0,0,1,491,276.567l-3.805,2.2a5.655,5.655,0,0,1-5.118-.01l-3.831-2.211a1.93,1.93,0,0,1-1.03-1.258A1.676,1.676,0,0,0,478.25,277l3.831,2.211a5.655,5.655,0,0,0,5.118.009l3.805-2.2A1.656,1.656,0,0,0,492.019,275.328Z" transform="translate(-358.353 -176.1)"/><path class="q" d="M536.9,269.909l-3.91,2.259a5.548,5.548,0,0,1-5.015-.009l-8.986-5.188a1.9,1.9,0,0,1-1.008-1.228,1.64,1.64,0,0,0,1.008,1.686l8.986,5.188a5.539,5.539,0,0,0,5.015.009l3.91-2.257a1.62,1.62,0,0,0,.993-1.668A1.869,1.869,0,0,1,536.9,269.909Z" transform="translate(-338.786 -180.681)"/><path class="q" d="M538.223,267.285a4.868,4.868,0,0,1-4.4-.009l-4.545-2.624a1.684,1.684,0,0,1-.882-1.051,1.431,1.431,0,0,0,.882,1.51l4.545,2.624a4.867,4.867,0,0,0,4.4.007,1.412,1.412,0,0,0,.867-1.492A1.664,1.664,0,0,1,538.223,267.285Z" transform="translate(-333.788 -181.709)"/><path class="q" d="M528.424,272.936l-4.393,2.535a5.008,5.008,0,0,1-4.531-.009l-4.419-2.55a1.73,1.73,0,0,1-.907-1.089,1.472,1.472,0,0,0,.907,1.547l4.419,2.552a5.007,5.007,0,0,0,4.531.007l4.393-2.535a1.453,1.453,0,0,0,.892-1.527A1.71,1.71,0,0,1,528.424,272.936Z" transform="translate(-340.613 -177.762)"/><path class="q" d="M499.707,279.766a1.909,1.909,0,0,1-1.014,1.24l-3.807,2.2a5.66,5.66,0,0,1-5.118-.01l-3.83-2.211a1.935,1.935,0,0,1-1.03-1.258,1.676,1.676,0,0,0,1.03,1.717l3.83,2.211a5.66,5.66,0,0,0,5.118.009l3.807-2.2A1.653,1.653,0,0,0,499.707,279.766Z" transform="translate(-354.662 -173.969)"/><path class="q" d="M506.541,285.537l-3.807,2.2a5.654,5.654,0,0,1-5.118-.01l-3.831-2.211a1.935,1.935,0,0,1-1.03-1.258,1.68,1.68,0,0,0,1.03,1.717l3.831,2.211a5.655,5.655,0,0,0,5.118.009l3.807-2.2a1.653,1.653,0,0,0,1.014-1.7A1.9,1.9,0,0,1,506.541,285.537Z" transform="translate(-350.894 -171.793)"/><path class="q" d="M433.441,209.782l9.6,5.54a4.871,4.871,0,0,0,4.406.009,1.415,1.415,0,0,0,.867-1.492,1.666,1.666,0,0,1-.867,1.033,4.871,4.871,0,0,1-4.406-.007l-9.6-5.54a1.69,1.69,0,0,1-.882-1.052A1.43,1.43,0,0,0,433.441,209.782Z" transform="translate(-379.796 -208.272)"/><path class="q" d="M416.772,231.884a1.9,1.9,0,0,1-1.014,1.24l-3.805,2.2a5.658,5.658,0,0,1-5.12-.009l-8.879-5.127a1.926,1.926,0,0,1-1.03-1.258,1.674,1.674,0,0,0,1.03,1.715l8.879,5.127a5.658,5.658,0,0,0,5.12.009l3.805-2.2A1.653,1.653,0,0,0,416.772,231.884Z" transform="translate(-396.902 -198.356)"/><path class="q" d="M521.468,267.335a1.713,1.713,0,0,1-.894,1.07l-4.391,2.535a5.007,5.007,0,0,1-4.531-.009l-4.42-2.552a1.724,1.724,0,0,1-.907-1.088,1.472,1.472,0,0,0,.907,1.547l4.42,2.55a5,5,0,0,0,4.531.009l4.391-2.535A1.452,1.452,0,0,0,521.468,267.335Z" transform="translate(-344.381 -179.937)"/><path class="q" d="M524.989,261.253a1.87,1.87,0,0,1-.992,1.209l-3.912,2.259a5.54,5.54,0,0,1-5.013-.01l-3.935-2.272a1.89,1.89,0,0,1-1.008-1.227,1.64,1.64,0,0,0,1.008,1.686l3.935,2.272a5.545,5.545,0,0,0,5.013.009L524,262.919A1.617,1.617,0,0,0,524.989,261.253Z" transform="translate(-342.554 -182.857)"/><path class="q" d="M509.9,268.879a1.71,1.71,0,0,1-.892,1.07l-4.393,2.535a5,5,0,0,1-4.531-.009l-4.42-2.55a1.734,1.734,0,0,1-.907-1.089,1.472,1.472,0,0,0,.907,1.547l4.42,2.552a5.007,5.007,0,0,0,4.531.007l4.393-2.535A1.453,1.453,0,0,0,509.9,268.879Z" transform="translate(-349.935 -179.196)"/><path class="q" d="M521.423,260.579l4.545,2.624a4.871,4.871,0,0,0,4.406.009,1.412,1.412,0,0,0,.867-1.492,1.659,1.659,0,0,1-.867,1.033,4.866,4.866,0,0,1-4.406-.007l-4.545-2.624a1.688,1.688,0,0,1-.881-1.052A1.428,1.428,0,0,0,521.423,260.579Z" transform="translate(-337.556 -183.885)"/><path class="q" d="M426.47,230.432l4.42,2.552a5.006,5.006,0,0,0,4.532.007l4.391-2.535a1.453,1.453,0,0,0,.893-1.527,1.7,1.7,0,0,1-.893,1.07l-4.391,2.535a5.01,5.01,0,0,1-4.532-.007l-4.42-2.552a1.737,1.737,0,0,1-.907-1.088A1.473,1.473,0,0,0,426.47,230.432Z" transform="translate(-383.154 -198.375)"/><path class="q" d="M506.816,275.648a1.9,1.9,0,0,1-1.014,1.239l-3.805,2.2a5.658,5.658,0,0,1-5.12-.009l-3.829-2.211a1.926,1.926,0,0,1-1.03-1.258,1.674,1.674,0,0,0,1.03,1.715l3.829,2.211a5.658,5.658,0,0,0,5.12.009l3.805-2.2A1.653,1.653,0,0,0,506.816,275.648Z" transform="translate(-351.248 -175.945)"/><path class="q" d="M513.735,256.14l4.545,2.626a4.876,4.876,0,0,0,4.406.007,1.414,1.414,0,0,0,.867-1.492,1.665,1.665,0,0,1-.867,1.035,4.871,4.871,0,0,1-4.406-.009l-4.545-2.624a1.684,1.684,0,0,1-.881-1.052A1.428,1.428,0,0,0,513.735,256.14Z" transform="translate(-341.247 -186.016)"/><path class="q" d="M423.853,237.372l3.829,2.211a5.663,5.663,0,0,0,5.12.01l3.805-2.2a1.653,1.653,0,0,0,1.014-1.7,1.9,1.9,0,0,1-1.014,1.24l-3.805,2.2a5.658,5.658,0,0,1-5.12-.009l-3.829-2.211a1.929,1.929,0,0,1-1.03-1.258A1.673,1.673,0,0,0,423.853,237.372Z" transform="translate(-384.468 -195.125)"/><path class="q" d="M490.67,242.824l4.545,2.624a4.871,4.871,0,0,0,4.406.007,1.411,1.411,0,0,0,.867-1.49,1.666,1.666,0,0,1-.867,1.033,4.871,4.871,0,0,1-4.406-.007l-4.545-2.624a1.687,1.687,0,0,1-.881-1.052A1.429,1.429,0,0,0,490.67,242.824Z" transform="translate(-352.32 -192.409)"/><path class="q" d="M467.605,229.507l4.545,2.624a4.871,4.871,0,0,0,4.406.009,1.414,1.414,0,0,0,.867-1.492,1.664,1.664,0,0,1-.867,1.035,4.871,4.871,0,0,1-4.406-.009l-4.545-2.624a1.684,1.684,0,0,1-.881-1.052A1.429,1.429,0,0,0,467.605,229.507Z" transform="translate(-363.393 -198.802)"/><path class="q" d="M459.917,225.069l4.545,2.624a4.868,4.868,0,0,0,4.4.007,1.415,1.415,0,0,0,.869-1.492,1.667,1.667,0,0,1-.869,1.035,4.868,4.868,0,0,1-4.4-.009l-4.545-2.624a1.676,1.676,0,0,1-.881-1.051A1.429,1.429,0,0,0,459.917,225.069Z" transform="translate(-367.084 -200.933)"/><path class="q" d="M506.048,251.7l4.545,2.624a4.868,4.868,0,0,0,4.4.007,1.412,1.412,0,0,0,.867-1.492,1.665,1.665,0,0,1-.867,1.035,4.868,4.868,0,0,1-4.4-.009l-4.545-2.624a1.684,1.684,0,0,1-.882-1.051A1.43,1.43,0,0,0,506.048,251.7Z" transform="translate(-344.938 -188.147)"/><path class="q" d="M452.23,220.63l4.545,2.624a4.868,4.868,0,0,0,4.4.007,1.41,1.41,0,0,0,.867-1.492,1.664,1.664,0,0,1-.867,1.035,4.872,4.872,0,0,1-4.4-.007l-4.545-2.626a1.684,1.684,0,0,1-.882-1.051A1.429,1.429,0,0,0,452.23,220.63Z" transform="translate(-370.775 -203.064)"/><path class="q" d="M475.295,233.946l4.545,2.624a4.868,4.868,0,0,0,4.4.009,1.412,1.412,0,0,0,.867-1.492,1.659,1.659,0,0,1-.867,1.033,4.868,4.868,0,0,1-4.4-.007l-4.545-2.624a1.686,1.686,0,0,1-.882-1.052A1.428,1.428,0,0,0,475.295,233.946Z" transform="translate(-359.702 -196.671)"/><path class="q" d="M498.358,247.263l4.547,2.624a4.868,4.868,0,0,0,4.4.007,1.409,1.409,0,0,0,.867-1.49,1.666,1.666,0,0,1-.867,1.033,4.868,4.868,0,0,1-4.4-.007l-4.547-2.626a1.686,1.686,0,0,1-.881-1.051A1.429,1.429,0,0,0,498.358,247.263Z" transform="translate(-348.629 -190.278)"/><path class="q" d="M444.54,216.191l4.545,2.624a4.871,4.871,0,0,0,4.406.007,1.41,1.41,0,0,0,.867-1.492,1.664,1.664,0,0,1-.867,1.035,4.871,4.871,0,0,1-4.406-.007l-4.545-2.624a1.692,1.692,0,0,1-.881-1.052A1.429,1.429,0,0,0,444.54,216.191Z" transform="translate(-374.466 -205.195)"/><path class="q" d="M482.983,238.385l4.545,2.624a4.868,4.868,0,0,0,4.4.009,1.415,1.415,0,0,0,.869-1.492,1.665,1.665,0,0,1-.869,1.033,4.868,4.868,0,0,1-4.4-.007l-4.545-2.624a1.69,1.69,0,0,1-.882-1.052A1.43,1.43,0,0,0,482.983,238.385Z" transform="translate(-356.011 -194.54)"/></g><path class="q" d="M448.706,302.536l-46.035-26.578c-1.818-1.051-1.59-2.883.509-4.1l26.127-15.084a7.883,7.883,0,0,1,7.093-.295l46.035,26.579c1.818,1.049,1.59,2.882-.509,4.094L455.8,302.243A7.887,7.887,0,0,1,448.706,302.536Z" transform="translate(-310.759 5.704)"/><path class="n" d="M403.18,273.58,429.306,258.5a7.883,7.883,0,0,1,7.093-.294l46.035,26.578a2.643,2.643,0,0,1,.99.931,1.9,1.9,0,0,0-.99-2.646L436.4,256.485a7.883,7.883,0,0,0-7.093.295L403.18,271.863c-1.566.9-2.087,2.154-1.5,3.164A3.724,3.724,0,0,1,403.18,273.58Z" transform="translate(-310.758 5.704)"/><g class="y" transform="translate(94.043 161.17)"><path class="b" d="M526.149,285.84a17.552,17.552,0,0,1-8.767-2.114l-54.319-31.083-54.321-31.082a9.277,9.277,0,0,1-5.029-8.013c0-3.558,2.208-6.874,6.056-9.094l22.053-13.746A21.591,21.591,0,0,1,442.469,188a17.565,17.565,0,0,1,8.765,2.114L505.555,221.2l54.321,31.083a9.278,9.278,0,0,1,5.029,8.01c0,3.558-2.208,6.874-6.057,9.1l-22.055,13.744A21.581,21.581,0,0,1,526.149,285.84Z" transform="translate(-403.713 -188.003)"/><path class="c" d="M410.018,204.4l17.727-11c.105-.061,3.965-2.439,4.091-2.47a21.263,21.263,0,0,1,10.531-2.432c.556.016,1.1.062,1.635.112a18.453,18.453,0,0,1,6.952,2.148l53.665,30.688,53.59,30.645a9.226,9.226,0,0,1,5.232,7.667c.225,3.435-1.828,6.749-5.682,8.975l-17.727,11c-.105.061-3.967,2.438-4.091,2.469a21.247,21.247,0,0,1-10.531,2.433c-.556-.016-1.1-.064-1.635-.112a18.437,18.437,0,0,1-6.952-2.149l-53.667-30.688-53.59-30.644a9.248,9.248,0,0,1-5.232-7.668C404.111,209.94,406.164,206.626,410.018,204.4Z" transform="translate(-403.423 -187.767)"/><path class="d" d="M410.276,204.355l17.514-10.818c.21-.12,3.817-2.312,4.067-2.374A20.738,20.738,0,0,1,442.274,189c.546.03,1.077.1,1.6.163a20.563,20.563,0,0,1,6.808,2.245L503.7,221.706l52.857,30.206c2.269,1.31,4.7,3.965,5.192,6.168.086.385.189.764.243,1.155.453,3.317-1.449,6.625-5.309,8.854l-17.514,10.818c-.21.121-3.817,2.313-4.067,2.376a20.88,20.88,0,0,1-10.417,2.158c-.546-.033-1.078-.1-1.6-.163a20.564,20.564,0,0,1-6.808-2.245l-53.012-30.293L410.4,220.532c-2.269-1.31-4.7-3.965-5.192-6.169-.087-.383-.189-.762-.243-1.153C404.516,209.893,406.415,206.584,410.276,204.355Z" transform="translate(-403.142 -187.537)"/><path class="e" d="M410.545,204.314l17.3-10.637c.315-.182,3.666-2.186,4.042-2.279a20.285,20.285,0,0,1,10.3-1.884c.536.044,1.055.145,1.566.212a23.445,23.445,0,0,1,6.665,2.344l52.357,29.9,52.127,29.768c2.016,1.163,4.806,3.943,5.321,5.883.1.369.237.724.315,1.094.684,3.2-1.069,6.5-4.935,8.734l-17.3,10.637c-.315.182-3.668,2.186-4.044,2.279a20.464,20.464,0,0,1-10.3,1.884c-.537-.047-1.055-.145-1.567-.212a23.346,23.346,0,0,1-6.663-2.344l-52.357-29.9-52.127-29.766c-2.016-1.165-4.806-3.944-5.321-5.885-.1-.369-.237-.722-.317-1.094C404.927,209.848,406.678,206.546,410.545,204.314Z" transform="translate(-402.872 -187.31)"/><path class="f" d="M410.823,204.275l17.089-10.455c.42-.243,3.518-2.059,4.018-2.185a19.834,19.834,0,0,1,10.189-1.61c.527.061,1.032.186,1.532.262a27.089,27.089,0,0,1,6.52,2.442l51.7,29.5,51.4,29.328c1.764,1.018,4.93,3.921,5.451,5.6.11.355.284.684.389,1.035.919,3.083-.69,6.378-4.562,8.613l-17.091,10.457c-.42.243-3.518,2.059-4.018,2.185a20.047,20.047,0,0,1-10.189,1.61c-.527-.064-1.032-.186-1.532-.262a27.112,27.112,0,0,1-6.52-2.442l-51.7-29.5-51.4-29.328c-1.764-1.018-4.932-3.921-5.451-5.6-.11-.357-.284-.684-.389-1.035C405.341,209.8,406.95,206.512,410.823,204.275Z" transform="translate(-402.611 -187.088)"/><path class="g" d="M411.109,204.243l16.878-10.275a38.391,38.391,0,0,1,3.993-2.09,19.357,19.357,0,0,1,10.075-1.336c.517.075,1.008.228,1.5.311a32.339,32.339,0,0,1,6.375,2.54L500.976,222.5l50.665,28.888c1.513.873,5.354,3.826,5.58,5.313a6.585,6.585,0,0,1,.463.975c1.16,2.968-.311,6.255-4.189,8.493l-16.877,10.276a38.134,38.134,0,0,1-3.995,2.088,19.576,19.576,0,0,1-10.074,1.337c-.517-.08-1.008-.228-1.5-.311a32.356,32.356,0,0,1-6.376-2.54l-51.048-29.106-50.665-28.888c-1.511-.873-5.353-3.828-5.58-5.315a6.646,6.646,0,0,1-.462-.975C405.76,209.768,407.23,206.481,411.109,204.243Z" transform="translate(-402.359 -186.871)"/><path class="h" d="M411.4,204.213l16.667-10.094a31.083,31.083,0,0,1,3.97-1.994,18.877,18.877,0,0,1,9.96-1.063c.508.092.983.269,1.462.361a39.688,39.688,0,0,1,6.233,2.637l50.394,28.711,49.934,28.45c1.26.727,5.519,3.789,5.709,5.029a6.333,6.333,0,0,1,.536.915c1.408,2.852.07,6.131-3.814,8.373l-16.666,10.094a31.182,31.182,0,0,1-3.97,2,19.116,19.116,0,0,1-9.959,1.063c-.508-.1-.984-.269-1.464-.361a39.832,39.832,0,0,1-6.233-2.638l-50.393-28.711-49.934-28.45c-1.261-.728-5.521-3.789-5.71-5.029a6.559,6.559,0,0,1-.536-.916C406.18,209.735,407.518,206.455,411.4,204.213Z" transform="translate(-402.114 -186.658)"/><path class="i" d="M411.7,204.189l16.454-9.914a25.989,25.989,0,0,1,3.946-1.9,18.394,18.394,0,0,1,9.845-.789c.5.108.958.311,1.428.41a50.964,50.964,0,0,1,6.088,2.737L499.2,223.05l49.2,28.011c1.008.582,5.688,3.752,5.839,4.744a6.555,6.555,0,0,1,.61.857c1.659,2.731.448,6.006-3.441,8.252l-16.454,9.914a25.988,25.988,0,0,1-3.946,1.9,18.6,18.6,0,0,1-9.846.789c-.5-.111-.958-.311-1.428-.41a51.2,51.2,0,0,1-6.088-2.737l-49.74-28.316-49.2-28.011c-1.008-.582-5.688-3.752-5.839-4.745a6.427,6.427,0,0,1-.61-.855C406.6,209.71,407.813,206.434,411.7,204.189Z" transform="translate(-401.877 -186.449)"/><path class="j" d="M412.011,204.168l16.242-9.732a22.135,22.135,0,0,1,3.921-1.8,17.889,17.889,0,0,1,9.732-.515c.488.124.931.351,1.394.46.713.169,5.4,2.521,5.944,2.833l49.084,27.92L546.8,250.9c.756.437,5.855,3.715,5.968,4.46a6.369,6.369,0,0,1,.684.8c1.917,2.606.827,5.883-3.068,8.132l-16.241,9.733a22.038,22.038,0,0,1-3.922,1.8,18.053,18.053,0,0,1-9.73.517c-.488-.129-.933-.352-1.394-.462-.713-.167-5.4-2.519-5.944-2.833l-49.086-27.92-48.471-27.571c-.756-.437-5.854-3.716-5.968-4.461a6.382,6.382,0,0,1-.684-.8C407.026,209.693,408.115,206.418,412.011,204.168Z" transform="translate(-401.646 -186.244)"/><path class="k" d="M412.323,204.153l16.029-9.553a19.21,19.21,0,0,1,3.9-1.708,17.391,17.391,0,0,1,9.618-.241,10.017,10.017,0,0,1,1.36.511c.487.037,5.438,2.722,5.8,2.931l48.432,27.525L545.2,250.75c.5.292,6.021,3.68,6.1,4.175a6.513,6.513,0,0,1,.756.736c2.179,2.478,1.208,5.759-2.694,8.012l-16.029,9.552a19.287,19.287,0,0,1-3.9,1.708,17.514,17.514,0,0,1-9.618.241,10.434,10.434,0,0,1-1.36-.511c-.487-.037-5.438-2.722-5.8-2.931l-48.432-27.525-47.74-27.133c-.5-.292-6.021-3.679-6.1-4.175a6.385,6.385,0,0,1-.756-.737C407.451,209.687,408.422,206.4,412.323,204.153Z" transform="translate(-401.42 -186.044)"/><path class="l" d="M412.641,204.141l15.818-9.37a17.367,17.367,0,0,1,13.376-1.581,9.62,9.62,0,0,1,1.325.559c.244.019,5.475,2.925,5.655,3.03l47.777,27.129L543.6,250.6c.252.145,6.188,3.642,6.227,3.89a6.8,6.8,0,0,1,.83.678c2.441,2.34,1.585,5.635-2.321,7.89l-15.818,9.37a17.371,17.371,0,0,1-13.376,1.581,9.537,9.537,0,0,1-1.326-.56c-.243-.018-5.475-2.925-5.655-3.03l-47.776-27.129L417.377,216.6c-.253-.147-6.188-3.643-6.227-3.891a6.815,6.815,0,0,1-.83-.676C407.879,209.691,408.733,206.4,412.641,204.141Z" transform="translate(-401.198 -185.848)"/><path class="m" d="M517.185,272.243l-52.634-29.861-52.633-29.861c-3.724-2.151-3.256-5.906,1.044-8.388l15.6-9.19c4.3-2.484,10.8-2.753,14.528-.6L495.728,224.2l52.633,29.861c3.724,2.151,3.256,5.906-1.043,8.388l-15.6,9.19C527.413,274.123,520.909,274.394,517.185,272.243Z" transform="translate(-400.981 -185.657)"/></g></g><g transform="translate(488.932 90.45)"><path class="z" d="M509.429,165.815l-4.733-2.728-3.916,3.335.815,6.062,4.732,2.728,3.918-3.335Zm13.546-41.034-4.733-2.728-3.916,3.335.816,6.062,4.732,2.728,3.918-3.335Zm1.414-4.28,3.918-3.336-.816-6.062-4.733-2.726-3.918,3.335.816,6.062Zm-10.443,31.635-4.733-2.726-3.918,3.335.815,6.062,4.733,2.726,3.918-3.335Zm4.514-13.677-4.732-2.728-3.918,3.336.816,6.061,4.733,2.728,3.916-3.335Zm6.749-4.061-3.918,3.336.815,6.062,4.733,2.726,3.916-3.335-.815-6.062Zm4.516-13.677-3.918,3.335.816,6.062,4.732,2.728,3.918-3.335-.815-6.062Zm-9.031,27.356-3.918,3.335.816,6.062,4.733,2.728,3.918-3.336-.816-6.062Zm-4.514,13.678-3.918,3.335.815,6.062,4.732,2.728,3.918-3.335-.815-6.062Zm-4.516,13.678-3.918,3.336.816,6.062,4.733,2.726,3.916-3.335-.816-6.062Zm27.14-30.345,3.918-3.335-.815-6.062-4.733-2.726-3.916,3.335.814,6.062Zm-4.516,13.679,3.918-3.336-.816-6.061-4.732-2.728-3.918,3.335.815,6.062Zm9.031-27.356,3.918-3.335-.815-6.062-4.733-2.728-3.918,3.335.816,6.062Zm-13.546,41.034,3.918-3.335-.816-6.062-4.733-2.728-3.918,3.335.816,6.062Zm-4.516,13.678,3.918-3.335-.815-6.062L523.626,174l-3.916,3.336.814,6.062Zm2.233,9.618,4.733,2.728,3.916-3.336-.815-6.062-4.732-2.726-3.918,3.335Zm9.03-27.356,4.733,2.728,3.918-3.335-.816-6.062-4.733-2.728-3.918,3.335Zm-4.514,13.679,4.732,2.726,3.918-3.335-.816-6.062-4.733-2.728L531.19,176Zm12.132-36.754-3.918,3.335.815,6.062,4.733,2.728,3.916-3.336-.816-6.061Zm1.414-4.28,4.732,2.726,3.918-3.335-.815-6.062-4.733-2.728-3.916,3.336Zm10.22,2.654-3.918,3.335.816,6.062L557.4,155.8l3.918-3.336-.815-6.061Zm-4.516,13.678-3.918,3.335.816,6.062,4.733,2.728,3.916-3.335-.814-6.062Zm-12.132,36.754,4.732,2.728,3.918-3.336-.815-6.061-4.732-2.728-3.918,3.335Zm22.793-51.985,3.918-3.335-.816-6.062L560.286,130l-3.918,3.335.815,6.062Zm-18.279,38.308,4.733,2.726,3.918-3.335-.815-6.062-4.733-2.728-3.918,3.336Zm15.616,11.737-.815-6.062-4.732-2.728-3.918,3.335.815,6.062,4.732,2.728Zm-13.165,14.284,4.733,2.728,3.916-3.335-.814-6.062-4.733-2.728-3.918,3.335Zm18.062-54.711,4.732,2.728,3.918-3.335-.816-6.062-4.732-2.728-3.918,3.335Zm-1.414,4.28-3.918,3.336.815,6.061,4.733,2.728,3.916-3.335-.814-6.062ZM558.221,169.7l-3.918,3.335.816,6.062,4.733,2.726,3.918-3.335-.815-6.062ZM565.7,198.24l-4.732-2.726-3.918,3.335.816,6.062,4.732,2.726,3.918-3.335Zm14.959-45.314,3.918-3.335-.816-6.062-4.733-2.728-3.918,3.335.816,6.062Zm-10.443,31.637-4.733-2.728-3.918,3.335.816,6.062,4.733,2.728,3.918-3.335Zm4.3-30.083-3.918,3.335.815,6.062,4.732,2.726,3.918-3.335-.815-6.062Zm.218,16.405L570,168.158l-3.918,3.335.816,6.062,4.733,2.728,3.916-3.335Zm8.161-8.342,4.732,2.728,3.918-3.336-.815-6.062-4.732-2.726-3.918,3.335Zm3.32,7.008-4.733-2.728-3.918,3.335.815,6.062,4.733,2.728,3.916-3.335ZM581.7,183.229l-4.733-2.728-3.916,3.335.814,6.064,4.733,2.726,3.918-3.335Zm-9.03,27.356-4.733-2.728-3.918,3.335.815,6.062,4.733,2.728,3.916-3.335Zm4.514-13.679-4.732-2.726-3.918,3.335.816,6.062,4.732,2.728L578,202.969Zm6.653,11.784-4.732-2.728-3.918,3.335.816,6.062,4.732,2.728,3.918-3.335Zm4.516-13.679-4.733-2.726-3.918,3.335.815,6.062,4.733,2.726,3.918-3.335Zm10.443-31.635,3.918-3.336-.815-6.062-4.733-2.726-3.918,3.335.815,6.062Zm-5.928,17.958-4.733-2.728-3.918,3.336.815,6.061,4.733,2.728,3.916-3.335Zm4.514-13.678-4.732-2.728-3.918,3.335.816,6.062,4.732,2.728,3.918-3.335Zm-2.282,23.3-3.916,3.335.814,6.062,4.733,2.728,3.918-3.336-.816-6.062Zm9.032-27.357-3.918,3.335.816,6.062,4.732,2.728,3.918-3.335-.816-6.062Zm-4.516,13.678-3.918,3.336.816,6.062,4.733,2.726,3.916-3.335L604.345,180Zm-13.546,41.034-3.918,3.336.816,6.062,4.733,2.726,3.916-3.335-.814-6.062Zm4.516-13.678-3.918,3.335.815,6.062,4.732,2.728,3.918-3.335-.815-6.062Zm27.14-30.345,3.918-3.335-.815-6.062-4.733-2.728-3.918,3.335.816,6.062Zm-13.546,41.034,3.918-3.335-.816-6.062-4.733-2.728-3.918,3.335.815,6.062Zm4.516-13.678,3.916-3.336-.814-6.061-4.733-2.728-3.918,3.335.815,6.062Zm4.514-13.679,3.918-3.335-.816-6.062-4.732-2.726-3.918,3.335.815,6.062ZM599.661,229l3.918-3.335-.815-6.062-4.732-2.728-3.918,3.336.815,6.061Zm18.881-40.813-3.918,3.335.816,6.062,4.733,2.728,3.916-3.336-.814-6.061Zm-7.618,23.075,4.733,2.728,3.918-3.335-.816-6.062-4.733-2.728-3.918,3.335Zm-4.514,13.679,4.732,2.726,3.918-3.335-.816-6.062-4.732-2.728-3.918,3.336ZM619.956,183.9l4.732,2.726,3.918-3.335-.815-6.062-4.732-2.728-3.918,3.336Zm-18.062,54.711,4.733,2.728,3.916-3.336-.814-6.062L605,229.217l-3.918,3.335Zm28.282-52.058-3.918,3.335.816,6.062,4.732,2.728,3.918-3.336-.816-6.061ZM636.321,185l3.918-3.335-.815-6.062-4.733-2.726-3.916,3.335.814,6.062Zm-5.112,24.022-.815-6.062-4.733-2.728-3.918,3.335.816,6.062,4.733,2.728Zm-17.681,27.963,4.732,2.728,3.918-3.336-.816-6.061-4.732-2.728-3.918,3.335Zm4.514-13.677,4.733,2.726,3.918-3.335-.815-6.062-4.733-2.728-3.916,3.336Zm23.832-21.682-4.733-2.728-3.918,3.335.816,6.062,4.733,2.728,3.918-3.335Zm-13.546,41.034-4.733-2.728-3.918,3.335.816,6.062,4.733,2.728,3.918-3.335Zm9.03-27.356-4.733-2.726-3.916,3.335.814,6.062,4.733,2.726,3.918-3.335Zm-4.516,13.679-4.732-2.728-3.918,3.335.815,6.062,4.732,2.728,3.918-3.335Zm5.712-34.365,4.732,2.728,3.918-3.335-.815-6.062-4.732-2.728-3.918,3.335Zm1.548,46.5-4.732-2.726-3.918,3.335.815,6.062L637,250.514l3.918-3.335Zm9.031-27.355-4.733-2.728-3.918,3.335.815,6.062,4.733,2.728,3.918-3.335Zm-4.516,13.678-4.733-2.728-3.916,3.335.814,6.062,4.733,2.728,3.918-3.335ZM655.062,195.8l3.918-3.335-.816-6.062-4.733-2.728-3.916,3.335.814,6.062Zm-1.414,4.28-4.732-2.726L645,200.691l.815,6.062,4.732,2.726,3.918-3.335Zm-2.282,23.3-3.916,3.336.816,6.061L653,235.5l3.918-3.335-.816-6.062ZM657.3,205.42l4.732,2.728,3.918-3.336-.816-6.062-4.732-2.726-3.918,3.335Zm-1.413,4.28-3.918,3.335.815,6.062,4.733,2.728,3.918-3.335-.816-6.062Zm-13.546,41.034-3.918,3.335.816,6.062,4.733,2.728,3.918-3.335-.815-6.062Zm4.516-13.678-3.918,3.335.815,6.062,4.733,2.728,3.916-3.336-.815-6.062Zm-158.621-7.03,3.918-3.335-.815-6.062L486.6,217.9l-3.918,3.335.816,6.062Zm-1.412,4.28-4.733-2.728-3.918,3.336.816,6.062,4.733,2.726,3.918-3.335Zm18.06-54.711-4.732-2.728-3.918,3.335.815,6.062,4.732,2.728,3.918-3.335Zm-9.03,27.356-4.733-2.728-3.916,3.335.814,6.062,4.733,2.728,3.918-3.336Zm4.516-13.679-4.733-2.726-3.918,3.335.815,6.062,4.733,2.726,3.918-3.335Zm-2.282,23.3-3.918,3.336.816,6.061,4.733,2.728,3.916-3.335-.816-6.062Zm4.514-13.678-3.916,3.335.815,6.062,4.732,2.728,3.918-3.336-.816-6.061Zm-13.546,41.034-3.916,3.335.816,6.062,4.732,2.728,3.918-3.335-.816-6.062Zm18.062-54.711-3.918,3.335.815,6.062,4.733,2.726L512.661,198l-.816-6.062Zm-13.546,41.034-3.918,3.335.815,6.062,4.733,2.726,3.918-3.335-.816-6.062Zm27.14-30.345,3.918-3.336-.816-6.062-4.732-2.726-3.918,3.335.816,6.062Zm-4.514,13.678,3.918-3.335-.816-6.062-4.733-2.728-3.918,3.335.815,6.062Zm-4.516,13.678,3.918-3.335-.815-6.062-4.733-2.728-3.916,3.336.814,6.061Zm-4.516,13.677,3.918-3.335-.816-6.062-4.732-2.726-3.918,3.335.815,6.062Zm-1.412,4.282-4.733-2.728-3.918,3.335.816,6.062,4.733,2.728,3.918-3.336ZM518.425,223.2l4.733,2.728,3.918-3.335-.815-6.062-4.733-2.728-3.916,3.336Zm4.516-13.678,4.733,2.728,3.918-3.335-.816-6.062-4.733-2.728-3.918,3.335Zm-13.546,41.034,4.733,2.728,3.918-3.335-.816-6.063-4.733-2.728-3.918,3.335Zm4.516-13.677,4.732,2.726,3.918-3.335-.816-6.062-4.732-2.726-3.918,3.335Zm-5.929,17.958-3.916,3.336.816,6.061,4.732,2.728,3.918-3.335-.815-6.062ZM468.839,153.608l3.918-3.335-.816-6.062-4.732-2.728-3.918,3.336.815,6.062Zm4.516-13.678,3.918-3.335-.816-6.062-4.733-2.728-3.918,3.335.816,6.062ZM486.9,98.9l3.918-3.335L490,89.5l-4.733-2.728-3.918,3.335.816,6.062Zm-9.03,27.356,3.916-3.336-.814-6.062-4.733-2.726-3.918,3.335.816,6.062Zm4.514-13.679,3.918-3.335-.816-6.062-4.732-2.728-3.918,3.336.816,6.062Zm-3.694,27.577-3.918,3.335.816,6.062,4.732,2.726,3.918-3.335-.816-6.062Zm4.514-13.679-3.918,3.335.815,6.062,4.733,2.728,3.918-3.335-.815-6.062Zm9.031-27.355-3.918,3.335.815,6.062,4.732,2.726,3.918-3.335-.816-6.062Zm-4.516,13.677L483.8,116.13l.816,6.062,4.733,2.728,3.916-3.336-.814-6.061Zm-13.546,41.034-3.918,3.335.816,6.062,4.733,2.728,3.916-3.336-.814-6.061Zm27.14-30.345,3.918-3.335-.815-6.062-4.732-2.728-3.918,3.335.815,6.062Zm-13.546,41.034,3.918-3.336-.815-6.062-4.732-2.726-3.918,3.335.815,6.062Zm9.031-27.356,3.916-3.335-.816-6.062-4.732-2.728-3.918,3.335.815,6.062Zm9.03-27.356,3.918-3.335-.816-6.062L504.2,97.68l-3.918,3.336.815,6.062Zm-13.546,41.034L496.2,147.5l-.815-6.062-4.733-2.726-3.918,3.335.815,6.062Zm2.233,9.618,4.732,2.728,3.918-3.336-.816-6.061-4.732-2.728-3.918,3.335Zm17.68-27.963-.814-6.062-4.733-2.728-3.918,3.335.815,6.062,4.733,2.728ZM490,174.134l4.733,2.728,3.916-3.335-.814-6.062-4.733-2.728-3.918,3.335Zm18.062-54.711,4.732,2.728,3.918-3.335-.815-6.062-4.732-2.728-3.918,3.335Zm-9.031,27.356,4.733,2.726,3.918-3.335-.816-6.062-4.733-2.726-3.918,3.335Zm-48.288,61.644,3.916-3.335-.816-6.062-4.732-2.726-3.918,3.335.816,6.062Zm13.546-41.034,3.916-3.335-.816-6.062-4.732-2.726-3.918,3.335.815,6.062Zm-9.031,27.356,3.918-3.335-.815-6.062-4.732-2.728-3.918,3.335.816,6.062Zm-5.928,17.959-4.733-2.728-3.918,3.335.816,6.062,4.733,2.728,3.918-3.335Zm10.443-31.637,3.918-3.335-.815-6.062-4.733-2.728-3.918,3.335.816,6.062Zm-3.7,27.576-3.918,3.335.816,6.062,4.733,2.728,3.918-3.335-.816-6.062Zm-4.514,13.678-3.918,3.336.815,6.061,4.732,2.728,3.918-3.335-.816-6.062Zm13.546-41.034-3.918,3.335.816,6.062,4.732,2.728,3.918-3.335-.816-6.062Zm4.514-13.678-3.918,3.335.816,6.062,4.733,2.728,3.918-3.335-.816-6.062Zm-9.03,27.356-3.918,3.335.816,6.062,4.733,2.726,3.916-3.335-.814-6.062Zm7.667,28.647-4.733-2.728-3.918,3.335.816,6.062,4.733,2.728,3.918-3.335Zm1.413-4.28L473.591,216l-.816-6.062-4.732-2.728-3.918,3.335.816,6.062ZM483.221,178.3l3.916-3.335-.815-6.062-4.732-2.728-3.918,3.335.815,6.062ZM478.7,191.977l3.918-3.335-.816-6.062-4.733-2.728-3.918,3.335.816,6.064Zm-4.516,13.678,3.918-3.335-.816-6.062-4.733-2.726-3.916,3.335.816,6.062Zm11.263-17.737,4.733,2.726,3.918-3.335-.815-6.062-4.733-2.728-3.918,3.336Zm-13.546,41.034,4.733,2.726,3.918-3.335-.816-6.062-4.733-2.728-3.918,3.336Zm9.031-27.356,4.732,2.728,3.918-3.336-.816-6.062-4.732-2.726-3.918,3.335Zm-4.516,13.678L481.156,218l3.916-3.335-.815-6.062-4.732-2.728-3.918,3.335Zm-5.928,17.959-3.918,3.335.816,6.063,4.732,2.728,3.918-3.336-.816-6.062Zm55.267,18.423,3.916-3.335-.815-6.062-4.732-2.728-3.918,3.335.816,6.062Zm-1.413,4.28-4.733-2.728-3.918,3.336.815,6.061,4.733,2.728L525.164,262Zm1.2-20.686,4.732,2.728,3.918-3.336-.816-6.062-4.733-2.726-3.916,3.335Zm4.514-13.679,4.733,2.728,3.918-3.335-.816-6.062-4.733-2.728-3.918,3.336Zm4.516-13.677,4.733,2.728,3.916-3.335-.815-6.062-4.732-2.728-3.918,3.335Zm2.451,26.023,4.732,2.728,3.918-3.336-.815-6.061-4.732-2.728-3.918,3.335Zm-10.444,31.637-3.918,3.335.816,6.062,4.732,2.728,3.918-3.336-.815-6.062Zm14.958-45.314,4.733,2.726,3.918-3.335-.816-6.062-4.733-2.728-3.918,3.336ZM532.727,264l3.918-3.335-.816-6.062-4.733-2.728-3.918,3.336.815,6.061Zm4.516-13.677,3.916-3.335-.814-6.062-4.733-2.728-3.918,3.335.816,6.062Zm11.774-1.545,3.918-3.335-.816-6.062-4.732-2.728-3.918,3.336.815,6.062Zm-5.928,17.959-4.733-2.728-3.918,3.335.815,6.062,4.733,2.728L543.9,272.8ZM553.532,235.1l3.918-3.335-.815-6.062-4.733-2.728-3.918,3.335.815,6.062Zm-9.03,27.356,3.916-3.336-.814-6.062-4.733-2.726-3.918,3.335.816,6.062Zm16.647-50.433-4.732-2.726L552.5,212.63l.816,6.062,4.733,2.728,3.916-3.336Zm-15.827,64.331-3.918,3.335.815,6.062,4.732,2.726,3.918-3.335-.815-6.062Zm10.661-15.232,3.916-3.336-.814-6.062L554.352,249l-3.918,3.335.816,6.062Zm12.132-36.754-4.733-2.728-3.918,3.335.815,6.062,4.733,2.728,3.918-3.335ZM551.468,274.8l3.918-3.335-.816-6.062-4.733-2.728-3.918,3.335.816,6.063ZM563.6,238.044l-4.732-2.726-3.918,3.335.815,6.062,4.732,2.726,3.918-3.335Zm-2.377,39.139-4.733-2.728-3.918,3.336.815,6.062,4.733,2.726,3.918-3.335Zm1.413-4.28,3.916-3.335-.814-6.062-4.733-2.728-3.918,3.335.816,6.062Zm7.617-23.075-4.732-2.728-3.918,3.335.816,6.062,4.732,2.728,3.918-3.336Zm4.516-13.679-4.733-2.726-3.918,3.335.816,6.062,4.733,2.726,3.918-3.335Zm4.516-13.678-4.733-2.728-3.918,3.335.815,6.062,4.733,2.728,3.916-3.335ZM563.456,286.8l-3.918,3.335.816,6.062,4.732,2.728L569,295.592l-.816-6.062Zm4.514-13.677-3.918,3.335.816,6.062,4.733,2.726,3.918-3.335-.815-6.062Zm4.516-13.679-3.918,3.335.816,6.062,4.733,2.728,3.916-3.335-.814-6.062ZM577,245.768l-3.918,3.335.815,6.062,4.732,2.728,3.918-3.336-.816-6.061Zm4.514-13.678-3.918,3.335.815,6.062,4.733,2.726,3.918-3.335-.816-6.062Zm13.6,10.688,3.916-3.335-.815-6.062-4.732-2.726-3.918,3.335.816,6.062ZM590.6,256.457l3.918-3.336-.815-6.061-4.733-2.728-3.918,3.335.816,6.062Zm-4.516,13.677L590,266.8l-.815-6.062-4.733-2.728-3.916,3.336.816,6.061Zm-4.514,13.678,3.916-3.335-.815-6.062-4.732-2.726-3.918,3.335.815,6.062Zm-1.413,4.282-4.733-2.728L571.5,288.7l.816,6.062,4.733,2.728,3.918-3.335Zm8.161-8.342,4.733,2.726,3.916-3.335-.814-6.062-4.733-2.726-3.918,3.335Zm9.03-27.356,4.733,2.728L606,251.789l-.815-6.062L600.447,243l-3.918,3.335Zm-4.514,13.677,4.732,2.728,3.918-3.335-.815-6.062-4.732-2.728-3.918,3.336ZM583.8,293.429l4.733,2.728,3.918-3.335-.816-6.062-4.733-2.728-3.918,3.335Zm-1.412,4.28-3.918,3.335.815,6.063,4.732,2.728,3.918-3.335-.815-6.062Zm17.779-3.179,3.916-3.335-.814-6.062-4.733-2.728-3.918,3.335.816,6.062Zm8.812-43.762,4.733,2.728,3.916-3.335-.814-6.062-4.733-2.728-3.918,3.335Zm-10.226,48.042-4.733-2.728-3.916,3.335.814,6.064,4.733,2.726,3.918-3.335Zm5.71-34.365,4.733,2.728,3.918-3.335-.816-6.062-4.733-2.728-3.918,3.336Zm-4.514,13.679,4.732,2.728,3.918-3.336-.816-6.062-4.732-2.726-3.918,3.335Zm11.7,15.072,3.918-3.335-.816-6.062-4.733-2.728-3.918,3.335.815,6.062Zm12.132-36.754-4.733-2.728-3.916,3.336.814,6.062,4.733,2.726,3.918-3.335Zm-4.516,13.679-4.732-2.728-3.918,3.335.816,6.063,4.732,2.728,3.918-3.336Zm-12.132,36.752,3.918-3.335-.815-6.062L605.5,294.75l-3.916,3.336.814,6.062Zm-6.145,1.554-3.918,3.335.816,6.062,4.732,2.726,3.918-3.335-.815-6.062Zm25.538-26.174-4.732-2.728-3.918,3.336.815,6.062,4.732,2.726,3.918-3.335Zm4.516-13.677-4.733-2.728-3.916,3.335.814,6.062,4.733,2.728,3.918-3.335Zm4.516-13.679-4.733-2.726-3.918,3.335.816,6.062,4.733,2.728,3.916-3.336Zm-16.648,50.433,3.918-3.336-.815-6.062-4.733-2.726-3.918,3.335.816,6.062Zm-1.413,4.28-4.733-2.728-3.916,3.335.814,6.062,4.733,2.728,3.918-3.335Zm15.779-31.416-3.918,3.335.815,6.062,4.732,2.726,3.918-3.335L638,280.921Zm-4.516,13.678-3.918,3.335.816,6.062L630.388,304l3.918-3.336-.816-6.061Zm9.03-27.356-3.916,3.335.814,6.062,4.733,2.728,3.918-3.335-.815-6.062ZM624.241,305.55l-3.916,3.335.814,6.062,4.733,2.728,3.918-3.335-.815-6.062Zm-4.514,13.677-3.918,3.336.815,6.063,4.732,2.726,3.918-3.335-.816-6.062Z" transform="translate(-440.68 -86.772)"/><path class="aa" d="M502.391,151.121l-3.918,3.335.815,6.062,4.732,2.728,3.918-3.335-.815-6.062Zm17.626-2.886,3.918-3.336-.816-6.061-4.733-2.728-3.916,3.335.814,6.062Zm-1.413,4.28-4.732-2.728-3.918,3.335.816,6.062,4.732,2.728,3.918-3.335Zm13.047-5.907,3.918-3.335-.815-6.062-4.733-2.728-3.918,3.335.816,6.062Zm-3.765,27.635-3.918,3.336.815,6.061,4.733,2.728,3.916-3.335-.815-6.062Zm22.506-16.836,3.918-3.335-.815-6.062-4.733-2.726-3.918,3.335.815,6.062Zm2.234,9.618,4.732,2.728,3.918-3.335-.816-6.062-4.733-2.728-3.916,3.335Zm3.318,7.008-4.732-2.728-3.918,3.336.816,6.062,4.733,2.726,3.916-3.335Zm-1.181,18.454,4.732,2.728,3.918-3.336-.815-6.062-4.732-2.726-3.918,3.335ZM497.841,164.9l-3.918,3.336.816,6.062,4.733,2.726,3.916-3.335-.815-6.062Zm-4.516,13.679-3.918,3.335.815,6.062,4.733,2.726,3.918-3.335-.815-6.062Zm-4.514,13.677-3.918,3.335.816,6.062,4.732,2.728,3.918-3.335-.815-6.062Zm18.6,10.717-3.918,3.336.815,6.062,4.732,2.726,3.918-3.335-.816-6.062Zm20.729-12.283-4.733-2.728-3.916,3.335.814,6.062,4.733,2.728,3.918-3.335Zm-1.988,23.083-3.918,3.335.816,6.062,4.732,2.728,3.918-3.335-.816-6.062Zm18.134,10.451-3.918,3.335.815,6.062,4.732,2.726,3.918-3.335-.816-6.062Zm4.514-13.679-3.916,3.335.814,6.062,4.733,2.728,3.918-3.335-.815-6.062Zm4.516-13.678L549.4,200.2l.816,6.062L554.946,209l3.918-3.335-.815-6.062Z" transform="translate(-419.454 -63.866)"/></g><g transform="translate(395.258 115.911)"><path class="ab" d="M534.95,306.159,390.741,222.833c-7.374-4.257-13.35-15.677-13.35-25.508v-80.3c0-9.831,5.977-14.349,13.35-10.093L534.95,190.261c7.372,4.257,13.349,15.677,13.349,25.506v80.3C548.3,305.9,542.322,310.416,534.95,306.159Z" transform="translate(-377.391 -103.323)"/><path class="t" d="M537.1,188.9,392.89,105.577c-2.917-1.684-5.615-2-7.812-1.146-.28.107-4,2.085-4.264,2.231l-.019.012c2.281-1.109,5.167-.9,8.312.913l144.208,83.326c7.372,4.257,13.349,15.677,13.349,25.506v80.3c0,6.135-2.328,10.2-5.87,11.355a2.207,2.207,0,0,0,1.169-.4c.169-.1,4.208-2.376,4.369-2.49,2.537-1.776,4.115-5.424,4.115-10.478v-80.3C550.447,204.58,544.471,193.159,537.1,188.9Z" transform="translate(-375.757 -103.975)"/><path class="ac" d="M518.127,226.922,406.054,162.089V131.812l112.072,64.833Z" transform="translate(-363.63 -90.61)"/><path class="t" d="M408.892,161.025V133.45l-2.838-1.638v30.276l112.072,64.833v-2.7Z" transform="translate(-363.63 -90.61)"/><path class="ac" d="M518.127,258.076,406.054,193.243V162.966L518.127,227.8Z" transform="translate(-363.63 -75.653)"/><path class="t" d="M408.892,192.178V164.6l-2.838-1.638v30.276l112.072,64.833v-2.7Z" transform="translate(-363.63 -75.653)"/><path class="ad" d="M533.66,190.04l-144.21-83.326c-3.022-1.747-5.8-2-8.04-1.029a9.865,9.865,0,0,1,6.438,1.508l144.21,83.328c7.372,4.255,13.349,15.676,13.349,25.506v80.3c0,5.8-2.09,9.727-5.309,11.118,4.119-.653,6.91-4.884,6.91-11.6v-80.3C547.009,205.716,541.033,194.3,533.66,190.04Z" transform="translate(-375.461 -103.422)"/><g transform="translate(12.388 78.962)"><path class="ae" d="M388.286,173.824l5.694-3.616-8.219-6.78,1.5-4.371,7.682,8.627-1.073-10.361,4.834,2.791-1.075,9.12,7.683.243,1.5,6.108-8.219-2.712,5.694,10.192-3.867,1.035-4.137-10.71-4.137,5.934Z" transform="translate(-385.761 -157.324)"/></g><path class="ae" d="M401.782,147.5a14.976,14.976,0,0,1-3.095-3.706c-.512-.857-.494-1.785,0-2.075a3.963,3.963,0,0,0,1.579-1.763c.542.151,1.215-.049,1.215-.793a2.937,2.937,0,0,0-.784-2c-.132-3.247-1.242-6.583-4.976-8.74s-4.844-.1-4.976,2.993c-.448-.1-.784.34-.784,1.1a3.6,3.6,0,0,0,1.215,2.2,17.739,17.739,0,0,0,1.579,3.585c.5.866.517,1.816,0,2.081a4.073,4.073,0,0,1-3.095.132c-1.567-.474-2.732.472-2.732,2.4v3.348a2.256,2.256,0,0,0,1.024,1.766l15.529,8.966c.565.327,1.024.065,1.024-.583v-3.348A7.973,7.973,0,0,0,401.782,147.5Z" transform="translate(-372.808 -92.668)"/></g><g transform="translate(518.083 141.089)"><path class="af" d="M535.549,178.087l-75.083-28V205.77c-.244,1.809.713,3.572,2.931,4.852l50.773,29.4c4.4,2.54,12.081,2.222,17.159-.71h0c2.688-1.551,4.106-3.523,4.2-5.413l.025.01Z" transform="translate(-460.35 -107.015)"/><path class="af" d="M514.17,186.591l-50.773-29.4c-4.4-2.54-3.847-6.976,1.231-9.908h0c5.08-2.932,12.761-3.25,17.16-.712l50.773,29.4c4.4,2.54,3.847,6.976-1.233,9.908h0C526.251,188.813,518.569,189.131,514.17,186.591Z" transform="translate(-460.351 -109.526)"/><path class="ag" d="M531.6,183.147h0c-5.08,2.932-12.761,3.25-17.16.712l-50.773-29.4c-2.241-1.294-3.194-3.079-2.92-4.908-.93,2.2-.1,4.471,2.6,6.028l50.773,29.4c4.4,2.54,12.081,2.22,17.159-.712h0c2.492-1.439,3.891-3.238,4.153-5A8.677,8.677,0,0,1,531.6,183.147Z" transform="translate(-460.376 -107.274)"/><g class="ah" transform="translate(10.772 0.08)"><path class="ai" d="M499.541,123.91h0a21.27,21.27,0,0,0-31.887,18.43v28.111h0c0,.016,0,.033,0,.049,0,2.247,3.126,4.066,6.982,4.066s6.982-1.819,6.982-4.066c0-.027-.006-.052-.006-.08h.074v-25.1a9.013,9.013,0,0,1,13.5-7.815h0a22.476,22.476,0,0,1,11.278,19.488v35.8h.075c.076,2.207,3.166,3.983,6.974,3.983,3.833,0,6.942-1.8,6.979-4.026h0v-32.58A41.847,41.847,0,0,0,499.541,123.91Z" transform="translate(-467.654 -121.039)"/><path class="aj" d="M471.513,171.672h0V145a19.883,19.883,0,0,1,19.861-19.861,19.549,19.549,0,0,1,9.866,2.679,40.1,40.1,0,0,1,5.627,3.921,40.2,40.2,0,0,0-8.508-6.563,19.551,19.551,0,0,0-9.868-2.679,19.884,19.884,0,0,0-19.861,19.861v26.67h0v1.442c0,.031,0,.064,0,.1.041.844,1.166,1.748,2.885,2.229Z" transform="translate(-467.187 -120.338)"/><path class="ak" d="M499.85,188.424h-.027V154.073a23.987,23.987,0,0,0-9.328-18.95,23.968,23.968,0,0,1,6.447,16.308v34.353h.025l.049,1.4c.028.841,1.156,1.748,2.867,2.235Z" transform="translate(-456.688 -114.278)"/><g transform="translate(5.796 3.722)"><path class="al" d="M483.069,127.675A11.44,11.44,0,0,0,471.641,139.1v29.134l-.071,2.5c-.053.21,3.907-.112,4-.48l.073-2.5V138.622A11.448,11.448,0,0,1,483.72,127.7C483.5,127.684,483.287,127.675,483.069,127.675Z" transform="translate(-471.57 -121.576)"/><path class="am" d="M491.954,126.1a18.587,18.587,0,0,0-9.387-2.55,18.174,18.174,0,0,0-4.109.482l.107,0a18.611,18.611,0,0,1,9.388,2.55,39.551,39.551,0,0,1,19.755,34.181v34.273l0,.188c0,.192,4-.151,4-.48l0-.188V160.284A39.552,39.552,0,0,0,491.954,126.1Z" transform="translate(-468.262 -123.554)"/></g><path class="an" d="M474.7,141.592V168.5c1.579-.494,2.606-1.345,2.652-2.149l0-.019.071-1.548V141.111a10.487,10.487,0,0,1,7.3-9.976A10.48,10.48,0,0,0,474.7,141.592Z" transform="translate(-464.271 -116.192)"/><g class="ao" transform="translate(27.543 2.992)"><path class="ap" d="M490.788,124.984a20.149,20.149,0,0,0-4.525-1.923A44.331,44.331,0,0,1,507.782,161v33.734c1.9-.46,3.175-1.433,3.19-2.33l0-.184V159.912A40.418,40.418,0,0,0,490.788,124.984Z" transform="translate(-486.263 -123.061)"/></g></g><ellipse class="aq" cx="8.122" cy="4.73" rx="8.122" ry="4.73" transform="translate(10.773 39.689)"/><path class="aq" d="M509.7,167.494c0,2.537-3.533,4.594-7.89,4.594s-7.89-2.057-7.89-4.594,3.533-4.6,7.89-4.6S509.7,164.955,509.7,167.494Z" transform="translate(-444.27 -100.863)"/><g transform="translate(10.772)"><path class="ar" d="M499.541,123.856h0a21.27,21.27,0,0,0-31.887,18.43v23.069h0c0,.016,0,.033,0,.05,0,2.245,3.126,4.064,6.982,4.064s6.982-1.819,6.982-4.064c0-.028-.006-.053-.006-.08h.074v-20.06a9.013,9.013,0,0,1,13.5-7.815h0a22.474,22.474,0,0,1,11.278,19.488V187.7h.075c.076,2.207,3.166,3.983,6.974,3.983,3.833,0,6.942-1.8,6.979-4.024h0V160.117A41.847,41.847,0,0,0,499.541,123.856Z" transform="translate(-467.654 -120.985)"/><path class="as" d="M471.513,166.575h0V144.948a19.883,19.883,0,0,1,19.861-19.861,19.549,19.549,0,0,1,9.866,2.679,40.215,40.215,0,0,1,5.627,3.919,40.246,40.246,0,0,0-8.508-6.561,19.551,19.551,0,0,0-9.868-2.679,19.884,19.884,0,0,0-19.861,19.861v21.629h0v1.44c0,.031,0,.064,0,.1.041.845,1.166,1.748,2.885,2.229Z" transform="translate(-467.187 -120.284)"/><path class="at" d="M499.85,183.327h-.027v-29.31a23.987,23.987,0,0,0-9.328-18.95,23.968,23.968,0,0,1,6.447,16.308v29.31h.025l.049,1.4c.028.839,1.156,1.747,2.867,2.233Z" transform="translate(-456.688 -114.224)"/><g transform="translate(5.796 3.722)"><path class="au" d="M483.069,127.621a11.44,11.44,0,0,0-11.428,11.428V163.14l-.071,2.5c-.053.21,3.907-.111,4-.48l.073-2.5V138.568a11.448,11.448,0,0,1,8.077-10.926C483.5,127.63,483.287,127.621,483.069,127.621Z" transform="translate(-471.57 -121.522)"/><path class="av" d="M491.954,126.05a18.587,18.587,0,0,0-9.387-2.55,18.174,18.174,0,0,0-4.109.482l.107,0a18.611,18.611,0,0,1,9.388,2.55,39.551,39.551,0,0,1,19.755,34.181v29.232l0,.186c0,.192,4-.151,4-.48l0-.188V160.23A39.552,39.552,0,0,0,491.954,126.05Z" transform="translate(-468.262 -123.5)"/></g><path class="aw" d="M474.7,141.538V163.4c1.579-.494,2.606-1.345,2.652-2.148l0-.021.071-1.547v-18.63a10.487,10.487,0,0,1,7.3-9.976A10.48,10.48,0,0,0,474.7,141.538Z" transform="translate(-464.271 -116.138)"/><g class="ao" transform="translate(27.543 2.992)"><path class="ax" d="M490.788,124.93a20.148,20.148,0,0,0-4.525-1.923,44.331,44.331,0,0,1,21.519,37.938v28.692c1.9-.46,3.175-1.433,3.19-2.33l0-.184V159.858A40.418,40.418,0,0,0,490.788,124.93Z" transform="translate(-486.263 -123.007)"/></g><path class="ay" d="M491.03,125.089a22.087,22.087,0,0,1,10.381,2.6,39.156,39.156,0,0,0-3.848-2.535,18.587,18.587,0,0,0-9.387-2.55c-9.089,0-18.9,7.226-18.9,18.9v.052C472.087,131.246,481.866,125.089,491.03,125.089Z" transform="translate(-466.875 -120.206)"/><path class="az" d="M503.228,154.106a24.517,24.517,0,0,0-6.561-20.245c-6.08-6.418-13.408-8.083-17.262-1.926a11.336,11.336,0,0,1,11.34.021,24.938,24.938,0,0,1,12.483,21.571Z" transform="translate(-462.013 -117.575)"/></g><path class="ba" d="M485.033,189.557v11.07l-4.973-2.871v-11.07a12.869,12.869,0,0,1-3.357-8c0-3.7,2.615-5.2,5.843-3.333a12.876,12.876,0,0,1,5.845,10.081C488.391,188.115,487.015,189.628,485.033,189.557Z" transform="translate(-452.537 -95.269)"/></g></g></g></svg>