<svg xmlns="http://www.w3.org/2000/svg" xmlns:xlink="http://www.w3.org/1999/xlink" width="249" height="197" viewBox="0 0 249 197"><defs><style>.a{fill:#fff;opacity:0.949;}.b{fill:url(#a);}</style><linearGradient id="a" x1="0.901" y1="0.877" x2="0.101" y2="0.124" gradientUnits="objectBoundingBox"><stop offset="0" stop-color="#03e6b0"/><stop offset="1" stop-color="#0077ec"/></linearGradient></defs><g transform="translate(-207 -2061)"><g transform="translate(207.367 2060.992)"><rect class="a" width="249" height="197" transform="translate(-0.367 0.008)"/></g><path class="b" d="M142.449,47.389c16.259,22,23.043,49.186,18.139,72.713a2.518,2.518,0,0,1-4.931-1.027c4.616-22.145-1.836-47.826-17.259-68.693C116.438,19.269,70.679.643,39.233,23.8,9.067,46.095,11.458,92.137,34.085,124.357a2.518,2.518,0,0,1-4.121,2.895C3.3,89.272,6.053,42.053,36.241,19.754,69.8-5.162,118.961,14.044,142.449,47.39ZM39.973,131.96a2.518,2.518,0,1,0-3.839,3.257,101.855,101.855,0,0,0,9.944,10.194,2.518,2.518,0,1,0,3.347-3.763,96.919,96.919,0,0,1-9.452-9.689Zm116.3-5.25a2.516,2.516,0,0,0-3.236,1.486c-14.765,39.11-60.734,45.584-96.113,19.467a2.518,2.518,0,1,0-2.95,4.081c35.355,26.774,87.624,22.044,103.79-21.8a2.518,2.518,0,0,0-1.492-3.234ZM95.451,32.892A73.719,73.719,0,0,0,29.763,92.034a2.518,2.518,0,0,0,4.944.96,68.663,68.663,0,0,1,61.18-55.086,2.518,2.518,0,0,0-.436-5.016Zm10.515,12.4c-38.137-3.04-70.358,31.881-64.347,69.637a2.518,2.518,0,1,0,4.981-.744c-5.508-34.619,24.014-66.627,58.98-63.873a2.518,2.518,0,1,0,.386-5.021Zm-4.091,24.93c-47.537,1.968-47.524,69.682,0,71.643a2.518,2.518,0,1,0,0-5.036c-40.862-1.693-40.842-59.886,0-61.571a30.791,30.791,0,0,1,19.568,7.036,2.519,2.519,0,0,0,3.207-3.885,35.842,35.842,0,0,0-22.775-8.187ZM78.58,106.048a23.309,23.309,0,0,0,23.294,23.281,2.518,2.518,0,1,0,0-5.036c-24.224-1.007-24.215-35.494,0-36.493a18.161,18.161,0,0,1,12,4.509,2.518,2.518,0,1,0,3.325-3.781c-14.749-13.162-38.775-2.273-38.624,17.515Zm23.294-48.36c-43.75-.023-64.972,54.272-32.789,83.883a2.518,2.518,0,0,0,3.413-3.7C43.665,111.332,62.683,62.7,101.876,62.72a43.242,43.242,0,0,1,33.04,15.34c21.7,30.43-7.471,38.634-25.993,19.883-6.383-5.912-17.883-1.286-17.8,8.1a10.761,10.761,0,0,0,10.755,10.742,2.518,2.518,0,1,0,0-5.036,5.707,5.707,0,1,1,0-11.415,5.555,5.555,0,0,1,3.668,1.342c13.013,13.011,28.92,13.853,36.8,7.142,3.132-2.508,11.8-13.148-3.518-33.942a48.268,48.268,0,0,0-36.946-17.194Z" transform="translate(245.452 2073.84)"/></g></svg>