<svg xmlns="http://www.w3.org/2000/svg" width="458.416" height="124.251" viewBox="0 0 458.416 124.251"><defs><style>.a{fill:#004080;}</style></defs><g transform="translate(-792 -2567)"><g transform="translate(792 2569)"><path class="a" d="M428.982,1370.2c0,3.57,1.964,6.367,4.47,6.367s4.471-2.8,4.471-6.367-1.964-6.367-4.471-6.367S428.982,1366.629,428.982,1370.2Zm6.5,0c0,2.249-1.073,3.929-2.032,3.929s-2.032-1.68-2.032-3.929,1.073-3.929,2.032-3.929S435.484,1367.95,435.484,1370.2Z" transform="translate(-387.246 -1320.635)"/><path class="a" d="M402.31,1347.493c0,6.467,4.059,11.729,9.049,11.729s9.049-5.262,9.049-11.729-4.059-11.729-9.049-11.729S402.31,1341.026,402.31,1347.493Zm15.66,0c0,5.123-2.966,9.29-6.611,9.29s-6.611-4.168-6.611-9.29,2.966-9.291,6.611-9.291S417.97,1342.37,417.97,1347.493Z" transform="translate(-365.153 -1297.385)"/><path class="a" d="M375.636,1324.788c0,9.424,6.113,17.091,13.628,17.091s13.628-7.667,13.628-17.091-6.114-17.092-13.628-17.092S375.636,1315.363,375.636,1324.788Zm24.818,0c0,8.079-5.02,14.652-11.19,14.652s-11.189-6.573-11.189-14.652,5.02-14.653,11.189-14.653S400.454,1316.708,400.454,1324.788Z" transform="translate(-343.058 -1274.135)"/><path class="a" d="M348.964,1302.083c0,12.381,8.167,22.453,18.206,22.453s18.207-10.072,18.207-22.453-8.167-22.454-18.207-22.454S348.964,1289.7,348.964,1302.083Zm33.975,0c0,11.036-7.074,20.015-15.768,20.015s-15.768-8.979-15.768-20.015,7.073-20.015,15.768-20.015S382.939,1291.046,382.939,1302.083Z" transform="translate(-320.964 -1250.886)"/><path class="a" d="M322.29,1279.379c0,15.337,10.221,27.816,22.785,27.816s22.786-12.478,22.786-27.816-10.221-27.815-22.786-27.815S322.29,1264.042,322.29,1279.379Zm43.133,0c0,13.993-9.128,25.378-20.347,25.378s-20.347-11.384-20.347-25.378S333.856,1254,345.075,1254,365.423,1265.386,365.423,1279.379Z" transform="translate(-298.869 -1227.639)"/><path class="a" d="M295.618,1256.674c0,18.294,12.275,33.178,27.364,33.178s27.364-14.884,27.364-33.178-12.276-33.178-27.364-33.178S295.618,1238.379,295.618,1256.674Zm52.29,0c0,16.95-11.182,30.74-24.926,30.74s-24.926-13.79-24.926-30.74,11.182-30.74,24.926-30.74S347.908,1239.724,347.908,1256.674Z" transform="translate(-276.776 -1204.389)"/><path class="a" d="M268.944,1233.968c0,21.251,14.33,38.54,31.943,38.54s31.943-17.289,31.943-38.54-14.33-38.54-31.943-38.54S268.944,1212.717,268.944,1233.968Zm61.447,0c0,19.906-13.236,36.1-29.5,36.1s-29.5-16.2-29.5-36.1,13.236-36.1,29.5-36.1S330.391,1214.062,330.391,1233.968Z" transform="translate(-254.681 -1181.139)"/><path class="a" d="M242.271,1211.262c0,24.208,16.383,43.9,36.522,43.9s36.522-19.695,36.522-43.9-16.384-43.9-36.522-43.9S242.271,1187.054,242.271,1211.262Zm70.6,0c0,22.863-15.29,41.464-34.083,41.464s-34.083-18.6-34.083-41.464S260,1169.8,278.793,1169.8,312.876,1188.4,312.876,1211.262Z" transform="translate(-232.586 -1157.889)"/><path class="a" d="M215.6,1188.559c0,27.165,18.437,49.265,41.1,49.265s41.1-22.1,41.1-49.265-18.438-49.264-41.1-49.264S215.6,1161.395,215.6,1188.559Zm79.762,0c0,25.82-17.344,46.826-38.662,46.826s-38.662-21.006-38.662-46.826,17.343-46.826,38.662-46.826S295.361,1162.739,295.361,1188.559Z" transform="translate(-210.493 -1134.642)"/><path class="a" d="M234.6,1224.462c25.188,0,45.679-24.506,45.679-54.627,0-26.509-15.811-49.125-37.595-53.774a1.219,1.219,0,0,0-.509,2.385c20.666,4.411,35.665,26.023,35.665,51.389,0,28.777-19.4,52.189-43.241,52.189s-43.241-23.412-43.241-52.189a61.127,61.127,0,0,1,3.551-20.738,1.219,1.219,0,0,0-2.295-.825,63.556,63.556,0,0,0-3.695,21.562C188.925,1199.956,209.417,1224.462,234.6,1224.462Z" transform="translate(-188.398 -1115.374)"/><path class="a" d="M277.466,1561.953a1.22,1.22,0,0,0-1.561.731c-7.611,20.993-24.82,34.558-43.842,34.558s-36.226-13.559-43.842-34.544a1.219,1.219,0,0,0-2.292.832c7.971,21.961,26.079,36.15,46.134,36.15s38.169-14.2,46.134-36.165A1.22,1.22,0,0,0,277.466,1561.953Z" transform="translate(-185.855 -1484.685)"/><path class="a" d="M249.862,1660.554a44.086,44.086,0,0,1-15.264,2.725c-17.82,0-34.44-11.031-43.374-28.788a1.219,1.219,0,0,0-2.178,1.1c9.35,18.585,26.8,30.13,45.552,30.13a46.525,46.525,0,0,0,16.105-2.875,1.219,1.219,0,0,0-.842-2.289Z" transform="translate(-188.39 -1544.275)"/><path class="a" d="M589.3,1692.478a1.218,1.218,0,0,0-1.712.2,50.859,50.859,0,0,1-16.71,13.97A1.219,1.219,0,1,0,572,1708.82a53.282,53.282,0,0,0,17.51-14.631A1.219,1.219,0,0,0,589.3,1692.478Z" transform="translate(-504.239 -1592.648)"/><path class="a" d="M690.615,1633.934a1.219,1.219,0,0,0-1.637.541,59.154,59.154,0,0,1-3.67,6.3,1.219,1.219,0,1,0,2.026,1.356,61.565,61.565,0,0,0,3.822-6.561A1.219,1.219,0,0,0,690.615,1633.934Z" transform="translate(-599.399 -1544.262)"/><path class="a" d="M221.808,1142.117a1.22,1.22,0,0,0,1.584-.683c6.621-16.647,22.4-27.4,39.272-26.778a1.219,1.219,0,0,0,.091-2.437,41.261,41.261,0,0,0-25.216,7.461,45.83,45.83,0,0,0-16.413,20.852A1.22,1.22,0,0,0,221.808,1142.117Z" transform="translate(-214.999 -1112.191)"/></g><g transform="translate(914 2568)"><path class="a" d="M1240.3,1527.025a6.037,6.037,0,1,0,6.037,6.037A6.044,6.044,0,0,0,1240.3,1527.025Zm0,9.636a3.6,3.6,0,1,1,3.6-3.6A3.6,3.6,0,0,1,1240.3,1536.661Z" transform="translate(-1173.758 -1453.63)"/><path class="a" d="M1216.081,1497.792a11.056,11.056,0,1,0,11.056,11.056A11.068,11.068,0,0,0,1216.081,1497.792Zm0,19.672a8.617,8.617,0,1,1,8.617-8.617A8.626,8.626,0,0,1,1216.081,1517.464Z" transform="translate(-1149.543 -1429.415)"/><path class="a" d="M1191.867,1468.56a16.073,16.073,0,1,0,16.074,16.074A16.092,16.092,0,0,0,1191.867,1468.56Zm0,29.709a13.635,13.635,0,1,1,13.635-13.635A13.65,13.65,0,0,1,1191.867,1498.269Z" transform="translate(-1125.329 -1405.201)"/><path class="a" d="M1167.652,1439.327a21.092,21.092,0,1,0,21.092,21.092A21.116,21.116,0,0,0,1167.652,1439.327Zm0,39.745a18.653,18.653,0,1,1,18.654-18.653A18.675,18.675,0,0,1,1167.652,1479.072Z" transform="translate(-1101.114 -1380.986)"/><path class="a" d="M1169.305,1432.63a26.192,26.192,0,1,0,.246,3.574A25.908,25.908,0,0,0,1169.305,1432.63Zm-3.556,11.51a23.762,23.762,0,1,1,1.363-7.936A23.728,23.728,0,0,1,1165.749,1444.139Z" transform="translate(-1076.901 -1356.771)"/><path class="a" d="M1333.8,1395.5a1.219,1.219,0,1,0-.977,2.234,28.726,28.726,0,0,1,12.166,10.055,1.219,1.219,0,0,0,2.009-1.382A31.167,31.167,0,0,0,1333.8,1395.5Z" transform="translate(-1254.794 -1344.596)"/><path class="a" d="M1133.554,1436.763a28.693,28.693,0,1,1-7.378-52.7,1.219,1.219,0,0,0,.589-2.366,31.131,31.131,0,1,0,8.01,57.177,1.219,1.219,0,1,0-1.221-2.111Z" transform="translate(-1052.688 -1332.471)"/><path class="a" d="M1100.894,1420.933a33.711,33.711,0,1,1,17.913-57.067,1.219,1.219,0,0,0,1.723-1.726,36.134,36.134,0,1,0-19.209,61.194,1.219,1.219,0,0,0-.426-2.4Z" transform="translate(-1028.472 -1308.305)"/><path class="a" d="M945.714,1462.621a38.723,38.723,0,0,1-24.627-65.14,1.22,1.22,0,0,0-1.633-1.8,50.1,50.1,0,0,1-35.226,10.278,1.219,1.219,0,0,0-.221,2.429A52.725,52.725,0,0,0,910,1404.128q2.363-1.041,4.615-2.318a41.163,41.163,0,0,0,30.876,63.24c.037,0,.075,0,.111,0a1.219,1.219,0,0,0,.109-2.434Z" transform="translate(-882.713 -1344.622)"/><path class="a" d="M935.341,1528.174a43.8,43.8,0,0,1-27.006-55.3,1.224,1.224,0,0,0-1.543-1.546,53.578,53.578,0,0,1-5.582,1.535c-1.7.376-3.47.676-5.265.892a56.85,56.85,0,0,1-11.088.224,1.219,1.219,0,0,0-.173,2.433,59.1,59.1,0,0,0,11.551-.235c1.875-.226,3.726-.54,5.5-.931,1.217-.266,2.421-.576,3.607-.918a46.217,46.217,0,0,0,29.195,56.146,1.219,1.219,0,1,0,.8-2.3Z" transform="translate(-883.254 -1407.439)"/><path class="a" d="M922.908,1562.628a48.829,48.829,0,0,1-22.724-48.688,1.226,1.226,0,0,0-1.423-1.378c-1.637.3-3.337.53-5.054.693a62.1,62.1,0,0,1-10.491.1,1.219,1.219,0,0,0-.184,2.432,64.286,64.286,0,0,0,10.907-.1c1.223-.116,2.43-.279,3.622-.461a51.229,51.229,0,0,0,24.07,49.483,1.219,1.219,0,1,0,1.278-2.077Z" transform="translate(-881.89 -1441.634)"/><path class="a" d="M1254.331,1155.9a1.24,1.24,0,0,0,1,.478,49.433,49.433,0,0,1,10.294.794,48.378,48.378,0,0,1,13.819,4.8,1.219,1.219,0,0,0,1.138-2.157,50.813,50.813,0,0,0-14.513-5.041,51.763,51.763,0,0,0-9.146-.853,62.944,62.944,0,0,0,2.3-16.914c0-1.57-.058-3.17-.174-4.755a1.219,1.219,0,0,0-2.432.177c.111,1.527.167,3.068.167,4.578a60.5,60.5,0,0,1-2.658,17.793A1.244,1.244,0,0,0,1254.331,1155.9Z" transform="translate(-1190.177 -1125.685)"/><path class="a" d="M899.483,1572.217a53.626,53.626,0,0,1-4.906-22.474c0-.44,0-.881.019-1.321a1.229,1.229,0,0,0-1.319-1.254,66.991,66.991,0,0,1-10.179.051,1.219,1.219,0,1,0-.119,2.436,66.654,66.654,0,0,0,9.16.028c0,.02,0,.041,0,.061a56.06,56.06,0,0,0,5.129,23.494,1.219,1.219,0,0,0,2.215-1.02Z" transform="translate(-881.819 -1470.311)"/><path class="a" d="M989.462,1716.823a44.237,44.237,0,0,1-4.8-7.653,1.219,1.219,0,0,0-2.187,1.079,46.483,46.483,0,0,0,9.583,13.059,1.219,1.219,0,1,0,1.684-1.763A44.249,44.249,0,0,1,989.462,1716.823Z" transform="translate(-965.088 -1603.944)"/><path class="a" d="M1327.118,1184.226a1.265,1.265,0,0,0,.759.482,58.83,58.83,0,0,1,6.411,1.577,1.219,1.219,0,0,0,.713-2.332c-1.839-.563-3.707-1.035-5.569-1.419.144-1.3.266-2.623.343-3.967.02-.343.035-.691.05-1.038a1.219,1.219,0,1,0-2.436-.1c-.014.335-.028.67-.048,1-.1,1.678-.249,3.337-.451,4.93A1.265,1.265,0,0,0,1327.118,1184.226Z" transform="translate(-1250.482 -1163.076)"/><path class="a" d="M891.054,1579.1a1.214,1.214,0,0,0-1.245-1.138c-.724.015-2.778.006-5.046-.135a1.219,1.219,0,0,0-.151,2.434c1.368.084,2.743.126,4.1.136a61.264,61.264,0,0,0,8.457,26.194,1.219,1.219,0,1,0,2.091-1.254A58.808,58.808,0,0,1,891.054,1579.1Z" transform="translate(-883.185 -1495.708)"/><path class="a" d="M930.01,1177.646a1.218,1.218,0,0,0,.4-.066,11.179,11.179,0,0,0,7.444-8.885,1.219,1.219,0,0,0-2.41-.373,8.746,8.746,0,0,1-5.825,6.951,1.219,1.219,0,0,0,.4,2.372Z" transform="translate(-920.727 -1155.647)"/><path class="a" d="M911.105,1164.351a16.416,16.416,0,0,0,16.4-16.4,16.6,16.6,0,0,0-.2-2.59,1.219,1.219,0,1,0-2.408.382,14.124,14.124,0,0,1,.174,2.208,13.974,13.974,0,0,1-13.958,13.958,1.219,1.219,0,0,0,0,2.438Z" transform="translate(-905.068 -1136.634)"/><path class="a" d="M897.148,1226.609a21.894,21.894,0,0,0,2.512.145,21.536,21.536,0,0,0,19.109-11.549,1.219,1.219,0,1,0-2.158-1.135,19.1,19.1,0,0,1-16.951,10.245,19.439,19.439,0,0,1-2.231-.129,1.219,1.219,0,1,0-.281,2.422Z" transform="translate(-893.623 -1193.857)"/><path class="a" d="M1023.916,1141.787a1.218,1.218,0,0,0,1.528-.8,21.71,21.71,0,0,0,.28-11.953,1.219,1.219,0,1,0-2.358.619,19.271,19.271,0,0,1-.248,10.6A1.219,1.219,0,0,0,1023.916,1141.787Z" transform="translate(-998.816 -1123.206)"/><path class="a" d="M888.882,1150.824a27.057,27.057,0,0,0,3.963.292,26.776,26.776,0,0,0,25.65-34.393,1.219,1.219,0,0,0-2.337.695,24.337,24.337,0,0,1-23.313,31.259,24.664,24.664,0,0,1-3.6-.265,1.219,1.219,0,1,0-.358,2.412Z" transform="translate(-886.808 -1113.039)"/><path class="a" d="M884.164,1148.583a31.925,31.925,0,0,0,34.352-19.536A31.422,31.422,0,0,0,920.872,1117a31.856,31.856,0,0,0-1.334-9.163,1.219,1.219,0,0,0-2.335.7,29.616,29.616,0,0,1-.9,19.469l-.009.021-.005.011a29.487,29.487,0,0,1-31.768,18.133,1.219,1.219,0,1,0-.361,2.411Z" transform="translate(-882.901 -1105.681)"/><path class="a" d="M882.874,1149.242a37.112,37.112,0,0,0,38.7-21.251c2.154-3.843,3.4-10.855,3.4-15.534a37.224,37.224,0,0,0-1.386-10.084,1.219,1.219,0,1,0-2.347.661,34.681,34.681,0,0,1-38.037,43.791,1.219,1.219,0,0,0-.329,2.416Z" transform="translate(-881.819 -1101.138)"/><path class="a" d="M923.432,1128.769a39.829,39.829,0,0,1-40.252,21.607,1.219,1.219,0,0,0-.284,2.422,42.267,42.267,0,0,0,42.666-22.838c2.169-3.553,4.59-11.5,4.59-19.172a42.373,42.373,0,0,0-1.291-10.4,1.219,1.219,0,0,0-2.364.6,39.965,39.965,0,0,1-3.066,27.782Z" transform="translate(-881.819 -1099.468)"/><path class="a" d="M927.335,1133.82a44.9,44.9,0,0,1-7.9,10.42c-1.18.951-2.326,1.971-3.41,3.033h0a44.748,44.748,0,0,1-11.273,6.613l-.011.005-.02.009-.065.029a43.56,43.56,0,0,1-21.5,2.926,1.219,1.219,0,1,0-.224,2.428,45.946,45.946,0,0,0,22.736-3.132c.032-.013.063-.027.093-.043a47.179,47.179,0,0,0,11.829-6.965h0l.038-.032a45.253,45.253,0,0,0,3.483-3.1h0l.023-.022a47.358,47.358,0,0,0,14.205-33.861,47.875,47.875,0,0,0-1.071-10.079,1.219,1.219,0,0,0-2.384.514,45.45,45.45,0,0,1,1.016,9.565A44.9,44.9,0,0,1,927.335,1133.82Z" transform="translate(-881.82 -1100.811)"/><path class="a" d="M1131.594,1142.2l-.011.017-.011.017c-.011.017-.022.033-.033.05a50.226,50.226,0,0,1-7.389,9.622,1.22,1.22,0,0,0,1.6,1.833,38.721,38.721,0,0,1,46.96.643,1.219,1.219,0,0,0,1.507-1.917,41.157,41.157,0,0,0-43.425-4.626q1.5-2.046,2.8-4.229c.019-.027.037-.055.054-.084a52.466,52.466,0,0,0,7.316-26.786,53.48,53.48,0,0,0-.779-9.073,1.219,1.219,0,1,0-2.4.415,51.089,51.089,0,0,1,.743,8.658A50.042,50.042,0,0,1,1131.594,1142.2Z" transform="translate(-1082.265 -1105.423)"/><path class="a" d="M1208.487,1148.491a1.223,1.223,0,0,0,1.35,1.717,44.153,44.153,0,0,1,16.449-.3,43.219,43.219,0,0,1,16.517,6.5,1.219,1.219,0,0,0,1.337-2.04,45.64,45.64,0,0,0-17.443-6.863,46.247,46.247,0,0,0-15.057-.1,57.644,57.644,0,0,0,4.546-22.5,58.632,58.632,0,0,0-.458-7.327,1.219,1.219,0,1,0-2.419.306,56.137,56.137,0,0,1,.439,7.021A55.249,55.249,0,0,1,1208.487,1148.491Z" transform="translate(-1152.316 -1113.59)"/><path class="a" d="M1292.6,1167.09a1.247,1.247,0,0,0,.791.4,50.088,50.088,0,0,1,5.02.711,53.088,53.088,0,0,1,10.573,3.151,1.219,1.219,0,1,0,.935-2.252,55.536,55.536,0,0,0-11.052-3.295c-1.3-.251-2.615-.455-3.931-.607a66.762,66.762,0,0,0,1.115-12.275c0-.409,0-.818-.01-1.267,0,0,.016-1.316-1.189-1.32-1.273,0-1.249,1.392-1.249,1.392,0,.4.009.8.009,1.2a65.981,65.981,0,0,1-1.307,13.11A1.24,1.24,0,0,0,1292.6,1167.09Z" transform="translate(-1221.821 -1141.602)"/></g><g transform="translate(1035 2567)"><path class="a" d="M2104.077,1489.233a1.219,1.219,0,0,0-1.722-.069q-.354.327-.715.646a1.219,1.219,0,0,0-.354,1.28c.237.751.481,1.54.727,2.365a1.221,1.221,0,0,0,1.168.872,1.192,1.192,0,0,0,.348-.052,1.219,1.219,0,0,0,.82-1.516q-.254-.852-.5-1.654l.162-.148A1.219,1.219,0,0,0,2104.077,1489.233Z" transform="translate(-2011.227 -1422)"/><path class="a" d="M2088.535,1546.99a87.881,87.881,0,0,0-2.26-11.371,1.219,1.219,0,0,0-2.357.623,85.278,85.278,0,0,1,2.2,11.058q.075.585.142,1.179a1.219,1.219,0,0,0,1.21,1.083,1.2,1.2,0,0,0,.137-.008,1.219,1.219,0,0,0,1.076-1.347Q2088.612,1547.595,2088.535,1546.99Z" transform="translate(-1996.854 -1459.996)"/><path class="a" d="M2078.323,1450.282a1.219,1.219,0,0,0-1.834-1.606,42.615,42.615,0,0,1-5.237,5.037,3.125,3.125,0,0,0-.989,3.38c.283.872.578,1.792.876,2.758a1.219,1.219,0,1,0,2.33-.72c-.3-.978-.6-1.909-.887-2.792a.674.674,0,0,1,.2-.731A45.009,45.009,0,0,0,2078.323,1450.282Z" transform="translate(-1985.45 -1388.385)"/><path class="a" d="M1601.334,1230.764a1.219,1.219,0,0,0,1.638-.538c.914-1.809,1.909-3.606,2.955-5.34a1.219,1.219,0,0,0-2.088-1.26c-1.078,1.786-2.1,3.636-3.043,5.5A1.219,1.219,0,0,0,1601.334,1230.764Z" transform="translate(-1596.59 -1201.824)"/><path class="a" d="M2039.233,1415.29a.674.674,0,0,1,.261-.768,39.747,39.747,0,0,0,11.317-11.755,1.219,1.219,0,1,0-2.066-1.3,37.326,37.326,0,0,1-10.627,11.037,3.1,3.1,0,0,0-1.207,3.525c.157.49.335,1.04.538,1.655,2.767,8.423,5.862,19.569,5.22,31.089a1.22,1.22,0,0,0,1.149,1.285l.069,0a1.219,1.219,0,0,0,1.216-1.151c.664-11.928-2.5-23.359-5.338-31.985C2039.565,1416.32,2039.389,1415.776,2039.233,1415.29Z" transform="translate(-1957.824 -1349.155)"/><path class="a" d="M1633.39,1140.673a1.217,1.217,0,0,0,1.654-.486,74.861,74.861,0,0,1,20.256-23.7,1.219,1.219,0,0,0-1.484-1.935,77.287,77.287,0,0,0-20.911,24.469A1.218,1.218,0,0,0,1633.39,1140.673Z" transform="translate(-1623.172 -1111.752)"/><path class="a" d="M1582.393,1300.289a1.193,1.193,0,0,0,.174.012,1.219,1.219,0,0,0,1.206-1.047,77.516,77.516,0,0,1,6.941-22.8,1.219,1.219,0,1,0-2.2-1.061,79.953,79.953,0,0,0-7.16,23.518A1.219,1.219,0,0,0,1582.393,1300.289Z" transform="translate(-1580.589 -1244.621)"/><path class="a" d="M1582.6,1470.844a1.22,1.22,0,0,0,1.161-1.592c-2.726-8.506-5.12-17.983-4.186-29.636a1.219,1.219,0,0,0-2.431-.194c-.967,12.075,1.492,21.831,4.295,30.574A1.22,1.22,0,0,0,1582.6,1470.844Z" transform="translate(-1576.933 -1380.136)"/><path class="a" d="M2030.931,1553.772a1.218,1.218,0,0,0-.885,1.48c2.525,10.027,2.894,19.086,1.13,27.7a1.219,1.219,0,0,0,.949,1.439,1.268,1.268,0,0,0,.246.025,1.22,1.22,0,0,0,1.193-.975c1.84-8.977,1.463-18.39-1.154-28.78A1.22,1.22,0,0,0,2030.931,1553.772Z" transform="translate(-1952.232 -1475.754)"/><path class="a" d="M2006.844,1354.975a3.787,3.787,0,0,0-.933.779,4.716,4.716,0,0,0-.892,4.433c.326,1.1.776,2.516,1.335,4.22.267.814.553,1.684.849,2.61a1.219,1.219,0,1,0,2.323-.742c-.3-.932-.586-1.81-.855-2.629-.553-1.683-1-3.08-1.315-4.155a2.264,2.264,0,0,1,.387-2.129,1.354,1.354,0,0,1,.328-.281,35.168,35.168,0,0,0,16.185-20.8,1.219,1.219,0,1,0-2.344-.671A32.741,32.741,0,0,1,2006.844,1354.975Z" transform="translate(-1931.362 -1294.345)"/><path class="a" d="M1702.689,1117.523a1.219,1.219,0,0,0,1.881,1.551,69.337,69.337,0,0,1,18.639-15.864c.881-.514,1.8-.991,2.719-1.419a1.219,1.219,0,0,0-1.025-2.212c-.991.46-1.974.973-2.921,1.524A71.766,71.766,0,0,0,1702.689,1117.523Z" transform="translate(-1680.87 -1099.467)"/><path class="a" d="M1640.536,1236.882a1.218,1.218,0,0,0,1.6-.642,71.729,71.729,0,0,1,8.217-14.375,1.219,1.219,0,1,0-1.962-1.447,74.154,74.154,0,0,0-8.5,14.864A1.22,1.22,0,0,0,1640.536,1236.882Z" transform="translate(-1629.004 -1199.244)"/><path class="a" d="M1609.438,1334.865a75.665,75.665,0,0,0-3.869,18.585c-.891,11.116,1.459,20.42,3.874,28.056a1.219,1.219,0,0,0,2.325-.735c-2.462-7.784-4.623-16.458-3.768-27.126a73.216,73.216,0,0,1,3.743-17.986,1.219,1.219,0,0,0-2.306-.794Z" transform="translate(-1600.494 -1293.774)"/><path class="a" d="M1607.959,1637.034a1.219,1.219,0,0,0-1.218-2.113q-.74.427-1.6.9c-.681.378-1.355.781-2,1.2a1.219,1.219,0,1,0,1.319,2.051c.6-.388,1.232-.764,1.867-1.116Q1607.2,1637.47,1607.959,1637.034Z" transform="translate(-1598.179 -1542.869)"/><path class="a" d="M1997.081,1540.269a1.219,1.219,0,0,0-.83,1.511c2.55,8.752,5.314,22.042-.1,36.34a1.219,1.219,0,1,0,2.281.864c5.677-14.981,2.813-28.8.165-37.886A1.22,1.22,0,0,0,1997.081,1540.269Z" transform="translate(-1924.118 -1464.56)"/><path class="a" d="M1980.921,1281.348a8.742,8.742,0,0,0-2.562,2.294,9.706,9.706,0,0,0-1.448,8.633c.332,1.114.784,2.54,1.343,4.241a1.219,1.219,0,0,0,2.316-.761c-.552-1.68-1-3.086-1.323-4.179a7.261,7.261,0,0,1,1.054-6.46,6.315,6.315,0,0,1,1.848-1.661,30.542,30.542,0,0,0,14.709-31.51,1.219,1.219,0,0,0-2.4.415,28.1,28.1,0,0,1-13.533,28.988Z" transform="translate(-1907.894 -1224.932)"/><path class="a" d="M1648.607,1154.268a1.219,1.219,0,1,0,2.347.658,65.564,65.564,0,0,1,30.1-39.269,28.056,28.056,0,0,1,14.112-3.813,1.219,1.219,0,1,0,0-2.438,30.5,30.5,0,0,0-15.339,4.145A67.988,67.988,0,0,0,1648.607,1154.268Z" transform="translate(-1636.266 -1107.7)"/><path class="a" d="M1664.121,1620.747l-.377.123-.781.258Z" transform="translate(-1648.195 -1531.263)"/><path class="a" d="M1636.392,1409.415a68.816,68.816,0,0,1,.936-7.073,1.219,1.219,0,1,0-2.4-.445,71.353,71.353,0,0,0-.969,7.324c-.972,12.138,2.245,21.93,4.831,29.8l.782-.255,1.535-.505C1638.592,1430.6,1635.459,1421.064,1636.392,1409.415Z" transform="translate(-1624.025 -1349.155)"/><path class="a" d="M1623.021,1654.5a1.219,1.219,0,0,0-1.274-2.079c-1.105.678-2.349,1.4-3.7,2.148-.753.418-1.495.871-2.2,1.346a1.219,1.219,0,1,0,1.356,2.026c.654-.437,1.337-.855,2.031-1.24C1620.611,1655.937,1621.886,1655.2,1623.021,1654.5Z" transform="translate(-1608.717 -1557.351)"/><path class="a" d="M1952.47,1371.653c-.358-1.09-.9-2.736-1.351-4.257a12.266,12.266,0,0,1,1.674-10.636,11.2,11.2,0,0,1,3.433-3.143,25.416,25.416,0,0,0,10.253-11.155,1.219,1.219,0,0,0-2.206-1.04,22.986,22.986,0,0,1-9.275,10.088,13.622,13.622,0,0,0-4.18,3.819,14.719,14.719,0,0,0-2.037,12.76c.462,1.556,1.01,3.222,1.372,4.324,2.981,9.077,7.972,24.27,1.064,40.409-.608,1.421-1.287,2.823-2.018,4.168a1.219,1.219,0,1,0,2.143,1.163c.766-1.411,1.478-2.882,2.116-4.372C1960.73,1396.8,1955.559,1381.057,1952.47,1371.653Z" transform="translate(-1884.427 -1299.309)"/><path class="a" d="M2038.439,1227.086q-.076.328-.163.655a1.219,1.219,0,1,0,2.358.62c.063-.24.123-.481.179-.721a25.488,25.488,0,0,0-2.815-18.7,1.219,1.219,0,1,0-2.107,1.228A23.054,23.054,0,0,1,2038.439,1227.086Z" transform="translate(-1956.968 -1189.646)"/><path class="a" d="M1781.348,1141.3a62.027,62.027,0,0,0-12.843,9.953,1.219,1.219,0,1,0,1.732,1.715,59.622,59.622,0,0,1,12.338-9.562,23.154,23.154,0,0,1,28.816,4.456,1.219,1.219,0,0,0,1.8-1.641,25.592,25.592,0,0,0-31.848-4.921Z" transform="translate(-1735.326 -1131.233)"/><path class="a" d="M1642.02,1312.027q.451-.33.824-.623a5.353,5.353,0,0,0,1.834-5.73c-.508-1.762-1.148-3.714-1.538-4.9-2.38-7.241-5.341-16.254-4.487-26.925a62.189,62.189,0,0,1,14.2-35.079,1.219,1.219,0,0,0-1.873-1.561,64.614,64.614,0,0,0-14.755,36.446c-.894,11.16,2.153,20.431,4.608,27.9.377,1.151,1.009,3.077,1.5,4.8a2.926,2.926,0,0,1-.995,3.135q-.345.271-.76.574a73.349,73.349,0,0,1-7.456,4.623c-.663.368-1.316.769-1.942,1.192a1.219,1.219,0,1,0,1.365,2.02c.568-.383,1.16-.746,1.76-1.079A75.769,75.769,0,0,0,1642.02,1312.027Z" transform="translate(-1621.425 -1213.199)"/><path class="a" d="M1921.839,1680.287a1.216,1.216,0,0,0-1.349,1.074,38.468,38.468,0,0,1-2.863,10.809,44.548,44.548,0,0,1-4.4,7.918,1.219,1.219,0,1,0,2,1.395,46.986,46.986,0,0,0,4.637-8.353,40.9,40.9,0,0,0,3.044-11.494A1.22,1.22,0,0,0,1921.839,1680.287Z" transform="translate(-1855.32 -1580.575)"/><path class="a" d="M1928.707,1380.324a1.219,1.219,0,0,0-1.228-2.107,20.124,20.124,0,0,0-9.569,15.965c-.188,2.352,1.2,6.583,2.547,10.678,1.669,5.081,3.745,11.4,4.229,18.56a1.219,1.219,0,0,0,1.215,1.137c.028,0,.055,0,.083,0a1.219,1.219,0,0,0,1.134-1.3c-.5-7.46-2.634-13.945-4.346-19.16-1.15-3.5-2.581-7.857-2.432-9.719A17.689,17.689,0,0,1,1928.707,1380.324Z" transform="translate(-1859.363 -1330.229)"/><path class="a" d="M1781.311,1199.743a1.219,1.219,0,0,0,1.708-.232,20.731,20.731,0,0,0-26.935-30.467,57.941,57.941,0,0,0-21.238,21.64,1.219,1.219,0,0,0,2.124,1.2,55.51,55.51,0,0,1,20.342-20.731,18.3,18.3,0,0,1,23.767,26.884A1.219,1.219,0,0,0,1781.311,1199.743Z" transform="translate(-1707.608 -1154.765)"/><path class="a" d="M1664.948,1391.311c.642-1.5-.2-4.653-2.334-11.15-2.243-6.827-5.034-15.323-4.259-25.013a58.23,58.23,0,0,1,4.8-18.988,1.219,1.219,0,0,0-2.23-.987,60.659,60.659,0,0,0-5,19.78c-.815,10.18,2.061,18.935,4.373,25.969.886,2.7,2.731,8.319,2.408,9.429-1.482,3.462-9.68,8.01-12.374,9.5-.406.225-.814.47-1.212.726a1.219,1.219,0,1,0,1.322,2.049c.352-.228.713-.444,1.072-.643C1656.926,1398.986,1663.343,1395.059,1664.948,1391.311Z" transform="translate(-1636.266 -1294.109)"/><path class="a" d="M1875.105,1434.245c-1.485-4.52-2.886-8.789-2.66-11.629a24.152,24.152,0,0,1,2.154-8.271,1.219,1.219,0,1,0-2.212-1.026,26.582,26.582,0,0,0-2.373,9.1c-.266,3.329,1.211,7.825,2.774,12.586,2.879,8.766,6.823,20.772,1.363,33.525a40.286,40.286,0,0,1-7.881,11.9,1.219,1.219,0,0,0,1.776,1.67,42.676,42.676,0,0,0,8.346-12.608C1882.216,1455.893,1878.106,1443.382,1875.105,1434.245Z" transform="translate(-1816.329 -1358.857)"/><path class="a" d="M1894.008,1214.527a15.749,15.749,0,0,0-1.632-12.023,15.848,15.848,0,0,0-21.673-5.714,1.219,1.219,0,0,0,1.228,2.107,13.411,13.411,0,0,1,13.5,23.175,23.175,23.175,0,0,0-5.878,4.9,1.219,1.219,0,0,0,1.845,1.594,20.747,20.747,0,0,1,5.26-4.386A15.747,15.747,0,0,0,1894.008,1214.527Z" transform="translate(-1819.773 -1178.298)"/><path class="a" d="M1740.7,1233.491a1.219,1.219,0,1,0-1.528-1.9,54.845,54.845,0,0,0-20,38.329,39.919,39.919,0,0,0-.083,4.934,1.219,1.219,0,0,0,1.217,1.165h.054a1.219,1.219,0,0,0,1.164-1.272,37.572,37.572,0,0,1,.078-4.632A52.4,52.4,0,0,1,1740.7,1233.491Z" transform="translate(-1694.658 -1208.687)"/><path class="a" d="M1686.359,1542.093c1.475-3.446-.139-8.364-2.185-14.594a92.263,92.263,0,0,1-3.4-12.338,1.219,1.219,0,0,0-2.4.438,94.254,94.254,0,0,0,3.48,12.665c1.884,5.738,3.372,10.27,2.258,12.87-1.885,4.4-8.383,8.461-14.491,11.851a1.219,1.219,0,0,0,.593,2.285,1.205,1.205,0,0,0,.59-.153C1677.279,1551.526,1684.185,1547.171,1686.359,1542.093Z" transform="translate(-1653.194 -1442.972)"/><path class="a" d="M1836.989,1500.163a75.32,75.32,0,0,1-2.527-8.822,1.219,1.219,0,1,0-2.394.462,76.988,76.988,0,0,0,2.6,9.121c2.784,8.476,6.249,19.024,1.513,30.085a37.69,37.69,0,0,1-10.25,13.627,1.219,1.219,0,0,0,1.6,1.836,40.066,40.066,0,0,0,10.888-14.5C1843.525,1520.061,1839.9,1509.028,1836.989,1500.163Z" transform="translate(-1782.845 -1423.252)"/><path class="a" d="M1852.679,1266.322a1.219,1.219,0,0,0,1.214-1.122,27.433,27.433,0,0,1,13.178-21.7,10.972,10.972,0,0,0,3.957-15.006,10.97,10.97,0,0,0-15-3.956,47.286,47.286,0,0,0-6.166,4.285,1.219,1.219,0,0,0,1.546,1.885,44.84,44.84,0,0,1,5.847-4.064,8.534,8.534,0,1,1,8.593,14.748,29.87,29.87,0,0,0-14.381,23.615,1.22,1.22,0,0,0,1.118,1.312C1852.614,1266.32,1852.646,1266.322,1852.679,1266.322Z" transform="translate(-1802.637 -1201.83)"/><path class="a" d="M1751.92,1355.6a1.219,1.219,0,1,0,1.968,1.44,17.114,17.114,0,0,0,1.938-3.355c2.2-5.138.331-10.829-2.035-18.037-2.072-6.306-4.42-13.453-3.8-21.186a48.066,48.066,0,0,1,11.853-28.041,1.219,1.219,0,1,0-1.82-1.623,50.519,50.519,0,0,0-12.463,29.469c-.658,8.222,1.771,15.617,3.916,22.144,2.206,6.717,3.948,12.022,2.11,16.314A14.694,14.694,0,0,1,1751.92,1355.6Z" transform="translate(-1718.178 -1252.647)"/><path class="a" d="M1706.3,1714.609a1.218,1.218,0,0,0-1.723-.042,53.764,53.764,0,0,1-10.534,7.385,1.219,1.219,0,0,0,1.211,2.117,56.006,56.006,0,0,0,11-7.736A1.218,1.218,0,0,0,1706.3,1714.609Z" transform="translate(-1673.432 -1608.699)"/><path class="a" d="M1802.006,1609.752c3.524-8.232,2.017-16.237.309-22.292a1.219,1.219,0,0,0-2.347.662c1.7,6.02,3,13.183-.2,20.67-2.283,5.332-6.31,10.088-12.31,14.542a1.219,1.219,0,0,0,1.453,1.958C1795.264,1620.575,1799.549,1615.491,1802.006,1609.752Z" transform="translate(-1750.908 -1502.955)"/><path class="a" d="M1797.654,1303.8c-1.8-5.479-3.5-10.654-3.115-15.45a32.307,32.307,0,0,1,15.584-25.527,6.1,6.1,0,1,0-6.137-10.534,44.278,44.278,0,0,0-20.323,27.356,1.219,1.219,0,1,0,2.364.6,41.825,41.825,0,0,1,19.186-25.848,3.657,3.657,0,1,1,3.682,6.32,34.746,34.746,0,0,0-16.787,27.44c-.422,5.284,1.352,10.686,3.231,16.41Z" transform="translate(-1748.144 -1225.371)"/><path class="a" d="M1783.981,1489.933h.038a1.22,1.22,0,0,0,1.181-1.256c-.134-4.425-1.648-9.035-3.252-13.919-2.022-6.156-4.113-12.521-3.573-19.275a1.219,1.219,0,1,0-2.431-.194c-.579,7.243,1.59,13.845,3.688,20.235,1.546,4.708,3.006,9.156,3.129,13.229A1.219,1.219,0,0,0,1783.981,1489.933Z" transform="translate(-1741.703 -1393.278)"/><path class="a" d="M1738.318,1691.041a1.219,1.219,0,0,0-2.242-.96c-2.132,4.979-6.631,9.344-14.588,14.154a1.219,1.219,0,0,0,1.262,2.087C1728.419,1702.895,1735.313,1698.061,1738.318,1691.041Z" transform="translate(-1696.186 -1588.082)"/><path class="a" d="M1805.921,1312.612a1.219,1.219,0,0,0,1.214-1.122,37.181,37.181,0,0,1,17.99-29.353,1.219,1.219,0,0,0-1.228-2.107A39.619,39.619,0,0,0,1804.7,1311.3a1.219,1.219,0,0,0,1.118,1.312C1805.855,1312.611,1805.888,1312.612,1805.921,1312.612Z" transform="translate(-1765.601 -1248.897)"/><path class="a" d="M1768.618,1536.154c3.648-8.523.911-16.858-1.736-24.919a82.185,82.185,0,0,1-2.875-10.2,1.219,1.219,0,1,0-2.4.451,83.962,83.962,0,0,0,2.954,10.512c2.622,7.983,5.1,15.522,1.811,23.2-2.282,5.331-6.655,9.989-13.76,14.66a1.219,1.219,0,1,0,1.339,2.037C1761.48,1546.945,1766.139,1541.944,1768.618,1536.154Z" transform="translate(-1722.003 -1431.276)"/></g><g transform="translate(1158 2568)"><path class="a" d="M2569.774,1781.526c-1.788-.6-3.56-1.241-5.264-1.914a1.222,1.222,0,0,0-1.183.163c-2.01,1.523-4.1,2.958-6.22,4.265a1.219,1.219,0,1,0,1.281,2.075c1.991-1.229,3.961-2.568,5.864-3.985,1.547.6,3.142,1.172,4.75,1.71a1.219,1.219,0,0,0,.772-2.313Z" transform="translate(-2508.335 -1663.265)"/><path class="a" d="M2530.492,1751.519a104.272,104.272,0,0,1-12.74-4.454,1.217,1.217,0,0,0-1.246.177,75.336,75.336,0,0,1-14.829,9.439,1.219,1.219,0,1,0,1.059,2.2,77.695,77.695,0,0,0,14.739-9.285,106.8,106.8,0,0,0,12.364,4.275,1.219,1.219,0,0,0,.654-2.349Z" transform="translate(-2462.328 -1636.295)"/><path class="a" d="M2752.13,1250.482a18.287,18.287,0,0,0,1.861,1.009,1.219,1.219,0,1,0,1.04-2.205,15.941,15.941,0,0,1-1.613-.874,18.609,18.609,0,0,1-4.568-4.073,1.219,1.219,0,0,0-1.889,1.542A21.048,21.048,0,0,0,2752.13,1250.482Z" transform="translate(-2665.85 -1219.576)"/><path class="a" d="M2699.257,1161.891a31.192,31.192,0,0,0,1.392,2.949,1.219,1.219,0,1,0,2.147-1.156,28.772,28.772,0,0,1-1.282-2.718,45.579,45.579,0,0,0-5.132-9.285,1.219,1.219,0,0,0-1.981,1.421A43.15,43.15,0,0,1,2699.257,1161.891Z" transform="translate(-2622.35 -1142.775)"/><path class="a" d="M2465.641,1768.7a1.219,1.219,0,0,0-1.653-.49,70.332,70.332,0,0,1-8.8,4.013,1.219,1.219,0,1,0,.857,2.283,72.658,72.658,0,0,0,9.1-4.153A1.219,1.219,0,0,0,2465.641,1768.7Z" transform="translate(-2423.737 -1653.768)"/><path class="a" d="M2557.436,1720.4a98.606,98.606,0,0,1-19.042-6.5,1.22,1.22,0,0,0-1.312.189l-.681.594a71.315,71.315,0,0,1-8.968,6.583,1.219,1.219,0,0,0,1.283,2.074,73.822,73.822,0,0,0,9.281-6.813l.1-.083a101.134,101.134,0,0,0,18.794,6.336,1.219,1.219,0,0,0,.549-2.375Z" transform="translate(-2483.755 -1608.81)"/><path class="a" d="M2610.381,1111.712a37.644,37.644,0,0,1,14.494,17.481c1.764,4.315,5.159,10.26,11.314,14.083a23.527,23.527,0,0,0,6.238,2.691,1.219,1.219,0,1,0,.638-2.354,21.1,21.1,0,0,1-5.591-2.41c-5.6-3.478-8.714-8.953-10.342-12.935a40.071,40.071,0,0,0-15.43-18.607,1.219,1.219,0,0,0-1.321,2.05Z" transform="translate(-2552.48 -1108.229)"/><path class="a" d="M2500.737,1104.688a32.669,32.669,0,0,1,28.323,20.376c2.039,4.982,5.993,11.867,13.248,16.38a28.969,28.969,0,0,0,9.646,3.759,1.2,1.2,0,0,0,.24.024,1.219,1.219,0,0,0,.237-2.415,26.533,26.533,0,0,1-8.836-3.439c-6.7-4.168-10.376-10.584-12.278-15.232a35.092,35.092,0,0,0-30.423-21.886,1.219,1.219,0,1,0-.156,2.434Z" transform="translate(-2461.176 -1102.252)"/><path class="a" d="M2276.92,1300.4c.817.058,1.678.155,2.54.284a6.2,6.2,0,0,0,.9.056,7.019,7.019,0,0,0,1.442-.134,1.22,1.22,0,0,0,.894-.775,7.5,7.5,0,0,0-.34-4.871,32.719,32.719,0,0,1-1.824-15.151,1.219,1.219,0,0,0-2.422-.284,35.167,35.167,0,0,0,1.96,16.282,6.491,6.491,0,0,1,.442,2.492l-.152,0a4.532,4.532,0,0,1-.517-.026c-.943-.141-1.867-.245-2.747-.308a1.219,1.219,0,1,0-.174,2.432Z" transform="translate(-2275.788 -1248.198)"/><path class="a" d="M2469.444,1688.211a93.754,93.754,0,0,1-24.432-8.3,1.218,1.218,0,0,0-1.4.214c-.958.93-1.947,1.836-2.935,2.691a65.614,65.614,0,0,1-24.665,13.355,1.22,1.22,0,0,0,.339,2.391,1.2,1.2,0,0,0,.341-.05,68.033,68.033,0,0,0,25.578-13.85c.812-.7,1.623-1.437,2.417-2.189a96.252,96.252,0,0,0,24.294,8.136,1.219,1.219,0,0,0,.461-2.395Z" transform="translate(-2391.214 -1580.637)"/><path class="a" d="M2318.875,1176.571a1.219,1.219,0,0,0,1.031,1.382,1.24,1.24,0,0,0,.177.013,1.219,1.219,0,0,0,1.2-1.044,13.369,13.369,0,0,0-.8-6.433,28.167,28.167,0,0,1,16.087-35.893,28.035,28.035,0,0,1,36.145,15.5c2.311,5.646,6.822,13.469,15.189,18.672a34,34,0,0,0,12.44,4.614,1.219,1.219,0,1,0,.4-2.406,31.575,31.575,0,0,1-11.552-4.28c-7.812-4.858-12.044-12.211-14.219-17.524a30.478,30.478,0,0,0-56.774,22.169A10.911,10.911,0,0,1,2318.875,1176.571Z" transform="translate(-2309.356 -1125.432)"/><path class="a" d="M2283.894,1416.13a5.8,5.8,0,0,1-3.535.851,9.609,9.609,0,0,1-1.226-.075h-.012c-.685-.1-1.362-.183-2.013-.237a1.219,1.219,0,1,0-.2,2.43c.6.05,1.228.124,1.863.22l.043.006a12.2,12.2,0,0,0,1.544.1,7.96,7.96,0,0,0,5.125-1.441,1.219,1.219,0,0,0-1.591-1.848Z" transform="translate(-2275.789 -1362.005)"/><path class="a" d="M2445.744,1654.889a89.031,89.031,0,0,1-29.079-10.012,1.22,1.22,0,0,0-1.49.244,59.642,59.642,0,0,1-5.12,4.962,60.821,60.821,0,0,1-27.085,13.436,1.22,1.22,0,0,0,.258,2.411,1.264,1.264,0,0,0,.26-.028,63.24,63.24,0,0,0,28.157-13.971,62,62,0,0,0,4.676-4.462,91.49,91.49,0,0,0,29.035,9.827,1.219,1.219,0,1,0,.387-2.407Z" transform="translate(-2363.775 -1551.602)"/><path class="a" d="M2367.161,1199.442a36.586,36.586,0,0,1-14.1-5.076c-8.915-5.543-13.706-13.836-16.156-19.817a25.6,25.6,0,0,0-47.694,18.623c1.985,5.339,1.127,10.81-2.135,13.614-1.947,1.678-4.725,2.03-6.714,2.03a13.471,13.471,0,0,1-1.964-.133c-.42-.061-.844-.118-1.27-.158a1.219,1.219,0,1,0-.234,2.427c.385.037.769.089,1.14.143a15.865,15.865,0,0,0,2.328.161c2.4,0,5.792-.455,8.3-2.621,4.031-3.466,5.168-10.021,2.83-16.312a23.269,23.269,0,0,1,13.289-29.651,23.156,23.156,0,0,1,29.862,12.8c2.585,6.314,7.656,15.076,17.125,20.963a39.007,39.007,0,0,0,15.038,5.418,1.219,1.219,0,0,0,.353-2.413Z" transform="translate(-2275.788 -1148.964)"/><path class="a" d="M2425.786,1620.19a84.315,84.315,0,0,1-33.12-11.764,1.219,1.219,0,0,0-1.592.278,56.12,56.12,0,0,1-35.786,20.511,1.219,1.219,0,0,0,.186,2.424,1.269,1.269,0,0,0,.189-.014,58.568,58.568,0,0,0,36.639-20.567,86.752,86.752,0,0,0,33.158,11.549,1.219,1.219,0,1,0,.326-2.416Z" transform="translate(-2340.785 -1521.385)"/><path class="a" d="M2367.142,1227.9a41.525,41.525,0,0,1-16.66-5.859c-10.027-6.233-15.375-15.463-18.1-22.108A20.725,20.725,0,0,0,2293.778,1215c2.7,7.239,1.281,14.879-3.52,19.011-3.083,2.654-7.085,3.211-9.9,3.211a18.126,18.126,0,0,1-2.695-.19c-.168-.026-.336-.047-.5-.068a1.219,1.219,0,1,0-.3,2.419c.144.018.288.036.432.059a20.758,20.758,0,0,0,3.07.219c3.227,0,7.84-.659,11.49-3.8,5.571-4.795,7.264-13.519,4.214-21.709a18.372,18.372,0,0,1,10.494-23.409,18.282,18.282,0,0,1,23.572,10.109c2.857,6.979,8.485,16.678,19.065,23.255a43.93,43.93,0,0,0,17.632,6.205,1.219,1.219,0,1,0,.316-2.417Z" transform="translate(-2275.788 -1172.498)"/><path class="a" d="M2409.175,1583.692a79.708,79.708,0,0,1-33.281-11.509c-1.145-.713-2.274-1.456-3.356-2.209a1.219,1.219,0,0,0-1.709.322,51.227,51.227,0,0,1-9.113,10.294,52.083,52.083,0,0,1-29.291,12.332,1.219,1.219,0,0,0,.123,2.432c.042,0,.083,0,.125-.006a54.477,54.477,0,0,0,30.634-12.909,53.556,53.556,0,0,0,8.85-9.771c.8.539,1.622,1.07,2.449,1.586a82.116,82.116,0,0,0,34.291,11.86,1.219,1.219,0,1,0,.278-2.422Z" transform="translate(-2321.795 -1489.503)"/><path class="a" d="M2276.838,1267.843a26.278,26.278,0,0,0,3.519.231c4.053,0,9.888-.865,14.67-4.982,7.106-6.121,9.36-17.012,5.609-27.1a13.475,13.475,0,0,1,7.7-17.167,13.4,13.4,0,0,1,17.285,7.412c3.131,7.646,9.315,18.286,21,25.553a48.826,48.826,0,0,0,20.222,6.973,1.219,1.219,0,0,0,.286-2.421,46.412,46.412,0,0,1-19.22-6.622c-11.133-6.922-17.038-17.093-20.032-24.406a15.849,15.849,0,0,0-29.522,11.528c3.4,9.14,1.422,18.948-4.915,24.405-4.214,3.629-9.438,4.392-13.078,4.392a23.735,23.735,0,0,1-3.184-.208,1.219,1.219,0,1,0-.335,2.416Z" transform="translate(-2275.786 -1196.029)"/><path class="a" d="M2395.6,1544.592a75.022,75.022,0,0,1-32.5-10.93,76.914,76.914,0,0,1-7.282-5.146,1.219,1.219,0,0,0-1.837.382,46.821,46.821,0,0,1-10.819,13.615,48.439,48.439,0,0,1-29.232,11.377,1.219,1.219,0,0,0,.064,2.436l.066,0a50.851,50.851,0,0,0,30.693-11.963,49.082,49.082,0,0,0,10.683-13.047c2.046,1.571,4.185,3.054,6.376,4.42a77.463,77.463,0,0,0,33.549,11.286,1.219,1.219,0,0,0,.24-2.427Z" transform="translate(-2306.429 -1455.122)"/><path class="a" d="M2276.874,1296.3a32.136,32.136,0,0,0,3.484.188c4.877,0,11.932-1.069,17.85-6.162,8.644-7.445,11.456-20.506,7-32.5a8.534,8.534,0,0,1,15.9-6.2c3.4,8.311,10.138,19.887,22.943,27.845a53.6,53.6,0,0,0,22.8,7.746,1.219,1.219,0,1,0,.26-2.424,51.2,51.2,0,0,1-21.778-7.392c-12.25-7.614-18.71-18.72-21.973-26.7a10.973,10.973,0,0,0-20.442,7.978c4.1,11.045,1.57,23.022-6.3,29.8-5.35,4.605-11.794,5.572-16.259,5.572a29.453,29.453,0,0,1-3.217-.173,1.219,1.219,0,0,0-.267,2.424Z" transform="translate(-2275.788 -1219.562)"/><path class="a" d="M2384.811,1501.241a70.373,70.373,0,0,1-31.16-10.3,71.538,71.538,0,0,1-11.537-8.924,1.22,1.22,0,0,0-1.985.464,42.862,42.862,0,0,1-12.169,17.759c-9.687,8.342-20.842,10.193-28.493,10.277a1.219,1.219,0,0,0,.013,2.438h.014c8.058-.089,19.813-2.046,30.057-10.867a45.13,45.13,0,0,0,12.21-17.074,73.972,73.972,0,0,0,10.6,8,72.8,72.8,0,0,0,32.228,10.654,1.219,1.219,0,0,0,.218-2.429Z" transform="translate(-2294.404 -1416.551)"/><path class="a" d="M2281.068,1324.916c5.717,0,13.943-1.288,20.983-7.346,10.186-8.766,13.555-23.993,8.385-37.89a3.658,3.658,0,0,1,6.814-2.659c3.677,8.979,10.979,21.5,24.883,30.136a58.577,58.577,0,0,0,25.389,8.508,1.219,1.219,0,1,0,.241-2.427,56.16,56.16,0,0,1-24.343-8.152c-13.35-8.3-20.374-20.344-23.914-28.989a6.1,6.1,0,0,0-11.356,4.433c4.816,12.945,1.727,27.088-7.69,35.192-7.911,6.808-17.522,7.068-22.548,6.615a1.219,1.219,0,0,0-.218,2.429C2278.671,1324.853,2279.809,1324.916,2281.068,1324.916Z" transform="translate(-2276.448 -1243.118)"/><path class="a" d="M2376.238,1448.963a65.6,65.6,0,0,1-29.288-9.6,67.05,67.05,0,0,1-16.486-14.5,1.219,1.219,0,0,0-2.148.586A38.941,38.941,0,0,1,2315.5,1449.1c-9.26,7.969-20.129,9.25-27.11,9.088a1.183,1.183,0,0,0-1.332,1.208c0,1.207,1.291,1.23,1.3,1.23h0q.6.014,1.239.014c7.4,0,18.182-1.682,27.49-9.693a41.081,41.081,0,0,0,13.157-22.579,69.3,69.3,0,0,0,15.41,13.059,68.026,68.026,0,0,0,30.365,9.962,1.219,1.219,0,1,0,.209-2.43Z" transform="translate(-2285.127 -1369.106)"/><path class="a" d="M2370.908,1341.629a60.925,60.925,0,0,1-26.909-8.892c-14.465-8.99-22.042-21.978-25.849-31.291a1.22,1.22,0,0,0-2.272.886c5.52,14.851,1.869,31.164-9.084,40.592-8.842,7.611-19.527,8.186-25.11,7.852a1.2,1.2,0,0,0-1.29,1.144,1.219,1.219,0,0,0,1.144,1.29c.759.046,1.607.075,2.528.075,6.3,0,16.036-1.383,24.319-8.513,9.172-7.894,13.574-20.261,12.241-32.838a66.149,66.149,0,0,0,22.086,22.875,63.341,63.341,0,0,0,27.975,9.249,1.219,1.219,0,1,0,.221-2.428Z" transform="translate(-2279.602 -1266.624)"/></g></g></svg>