<svg xmlns="http://www.w3.org/2000/svg" xmlns:xlink="http://www.w3.org/1999/xlink" width="84" height="84" viewBox="0 0 84 84"><defs><style>.a{fill:#fff;}.b{fill:url(#a);}</style><linearGradient id="a" x1="0.5" y1="1" x2="0.5" gradientUnits="objectBoundingBox"><stop offset="0" stop-color="#0077ec"/><stop offset="1" stop-color="#03e6b0"/></linearGradient></defs><g transform="translate(-197 -3331)"><rect class="a" width="84" height="84" rx="6" transform="translate(197 3331)"/><path class="b" d="M45,30A13,13,0,1,0,32,43,13.015,13.015,0,0,0,45,30ZM21,30A11,11,0,1,1,32,41,11.013,11.013,0,0,1,21,30Zm18.707-4.293L29,36.414l-4.707-4.707,1.414-1.414L29,33.586l9.293-9.293ZM45,45H59v2H45Zm0,4H59v2H45Zm0,10h6V53H45Zm2-4h2v2H47ZM32,13a16.943,16.943,0,0,0-3.092.3A3,3,0,0,0,26,11V9a3,3,0,0,0,3-3V4a3,3,0,0,0-3-3H4A3,3,0,0,0,1,4V6A3,3,0,0,0,4,9v2a3,3,0,0,0-3,3v2a3,3,0,0,0,3,3v2a3,3,0,0,0-3,3v2a3,3,0,0,0,3,3H15.051c-.02.333-.051.662-.051,1A17.016,17.016,0,0,0,28,46.5V48a2.967,2.967,0,0,0,.4,1.471A2.994,2.994,0,0,0,27,52v6a5,5,0,0,0,10,0V52a2.994,2.994,0,0,0-1.4-2.529A2.967,2.967,0,0,0,36,48V46.5A16.867,16.867,0,0,0,41,44.4V63H54.414L63,54.414V29H48.949A17.007,17.007,0,0,0,32,13ZM47,37.983A16.889,16.889,0,0,0,48.247,35H57v6H47ZM3,6V4A1,1,0,0,1,4,3H26a1,1,0,0,1,1,1V6a1,1,0,0,1-1,1H4A1,1,0,0,1,3,6ZM6,9H24v2H6ZM3,16V14a1,1,0,0,1,1-1H26a.986.986,0,0,1,.952.765A16.963,16.963,0,0,0,21.068,17H4A1,1,0,0,1,3,16Zm3,3H19.062A17.1,17.1,0,0,0,17.6,21H6ZM4,27a1,1,0,0,1-1-1V24a1,1,0,0,1,1-1H16.526a16.854,16.854,0,0,0-1.244,4Zm13,3A15,15,0,1,1,32,45,15.017,15.017,0,0,1,17,30ZM35,58a3,3,0,1,1-6,0V52a1,1,0,0,1,1-1h4a1,1,0,0,1,1,1ZM34,48a1,1,0,0,1-1,1H31a1,1,0,0,1-1-1V46.872a15.689,15.689,0,0,0,4,0ZM55,59.586V55h4.586ZM61,53H53v8H43V42.938a17.145,17.145,0,0,0,2-2.006V43H59V33H48.719a17.063,17.063,0,0,0,.231-2H61ZM5,46H19v2H5Zm0,4H19v2H5Zm8,4h2v2H13ZM9,54h2v2H9ZM5,54H7v2H5Zm12,0h2v2H17Z" transform="translate(207 3341)"/></g></svg>