<svg xmlns="http://www.w3.org/2000/svg" xmlns:xlink="http://www.w3.org/1999/xlink" width="195" height="154" viewBox="0 0 195 154"><defs><style>.a{fill:#fff;opacity:0.949;}.b{fill:url(#a);}</style><linearGradient id="a" x1="0.901" y1="0.877" x2="0.101" y2="0.124" gradientUnits="objectBoundingBox"><stop offset="0" stop-color="#03e6b0"/><stop offset="1" stop-color="#0077ec"/></linearGradient></defs><g transform="translate(-207 -2061)"><g transform="translate(207 2061)"><rect class="a" width="195" height="154"/></g><path class="b" d="M113.9,38.88c12.71,17.2,18.013,38.45,14.18,56.842a1.969,1.969,0,0,1-3.855-.8c3.608-17.311-1.435-37.387-13.491-53.7C93.565,16.9,57.793,2.337,33.212,20.442,9.63,37.868,11.5,73.86,29.188,99.048a1.968,1.968,0,0,1-3.221,2.263c-20.847-29.69-18.692-66.6,4.906-84.034C57.109-2.2,95.537,12.813,113.9,38.88ZM33.79,104.991a1.968,1.968,0,1,0-3,2.546,79.622,79.622,0,0,0,7.773,7.969,1.968,1.968,0,1,0,2.616-2.941,75.764,75.764,0,0,1-7.389-7.574Zm90.919-4.1a1.967,1.967,0,0,0-2.53,1.162c-11.542,30.573-47.477,35.635-75.134,15.218a1.968,1.968,0,1,0-2.306,3.19c27.638,20.93,68.5,17.232,81.136-17.041a1.968,1.968,0,0,0-1.166-2.528Zm-47.55-73.34A57.628,57.628,0,0,0,25.809,73.78a1.968,1.968,0,1,0,3.865.75A53.676,53.676,0,0,1,77.5,31.468a1.968,1.968,0,0,0-.341-3.921Zm8.22,9.693c-29.813-2.377-55,24.922-50.3,54.437a1.969,1.969,0,1,0,3.894-.581C34.665,64.033,57.743,39.012,85.077,41.165a1.968,1.968,0,1,0,.3-3.925Zm-3.2,19.489c-37.161,1.539-37.151,54.472,0,56a1.968,1.968,0,1,0,0-3.937c-31.943-1.324-31.927-46.815,0-48.132a24.07,24.07,0,0,1,15.3,5.5,1.969,1.969,0,0,0,2.507-3.037,28.019,28.019,0,0,0-17.8-6.4ZM63.971,84.735a18.221,18.221,0,0,0,18.21,18.2,1.968,1.968,0,0,0,0-3.937c-18.936-.787-18.93-27.747,0-28.527A14.2,14.2,0,0,1,91.564,74a1.968,1.968,0,1,0,2.6-2.956c-11.53-10.289-30.311-1.777-30.193,13.692Zm18.21-37.8C47.98,46.913,31.39,89.357,56.548,112.5a1.968,1.968,0,0,0,2.668-2.893c-22.54-20.746-7.673-58.764,22.965-58.747A33.8,33.8,0,0,1,108.01,62.857c16.963,23.788-5.84,30.2-20.319,15.543-4.989-4.622-13.98-1.006-13.918,6.332a8.412,8.412,0,0,0,8.408,8.4,1.968,1.968,0,0,0,0-3.937,4.462,4.462,0,1,1,0-8.923,4.343,4.343,0,0,1,2.867,1.049C95.22,91.49,107.655,92.148,113.812,86.9c2.449-1.96,9.223-10.278-2.75-26.533A37.732,37.732,0,0,0,82.18,46.928Z" transform="translate(234.516 2069.203)"/></g></svg>