<svg xmlns="http://www.w3.org/2000/svg" xmlns:xlink="http://www.w3.org/1999/xlink" width="348.611" height="328.162" viewBox="0 0 348.611 328.162"><defs><style>.a{fill:#49e4ac;}.b{fill:#ffaf82;}.c{fill:#f88968;}.d{fill:#004080;}.e{fill:#050705;}.f{fill:#de9d01;}.g{fill:#bf8005;}.h{fill:#fff;}.i{fill:#2c2c2c;}.j{fill:#e2e2e2;}.k{fill:#32324c;}.l{fill:url(#a);}.m{fill:#484e56;}.n{fill:#df9b7e;}.o{fill:#3e444a;}.p{fill:#ebbea3;}.ab,.q{opacity:0.16;mix-blend-mode:multiply;isolation:isolate;}.ab,.r{fill:#41474f;}.s{fill:none;stroke:#edc8c0;stroke-miterlimit:10;}.t{fill:#f2e6d7;}.u{fill:url(#b);}.v{fill:url(#c);}.w{fill:url(#d);}.x{fill:#dc856f;}.y{fill:#342d2b;}.z{fill:url(#e);}.aa{fill:url(#f);}.ac{fill:url(#g);}.ad{fill:#ced2d6;}.ae{fill:url(#h);}.af{fill:url(#i);}.ag{fill:#ce8a7a;}</style><linearGradient id="a" x1="0.471" y1="0.651" x2="0.506" y2="0.053" gradientUnits="objectBoundingBox"><stop offset="0.005" stop-color="#342d2b"/><stop offset="0.551" stop-color="#393331"/><stop offset="1" stop-color="#433d3b"/></linearGradient><linearGradient id="b" x1="0.874" y1="0.099" x2="0.517" y2="0.536" gradientUnits="objectBoundingBox"><stop offset="0.005" stop-color="#3e444a"/><stop offset="0.651" stop-color="#3e444a" stop-opacity="0.435"/><stop offset="1" stop-color="#3e444a" stop-opacity="0.2"/></linearGradient><linearGradient id="c" x1="0.507" y1="0.76" x2="0.548" y2="0.169" gradientUnits="objectBoundingBox"><stop offset="0.005" stop-color="#3e444a"/><stop offset="0.141" stop-color="#3e444a" stop-opacity="0.843"/><stop offset="0.712" stop-color="#3e444a" stop-opacity="0.235"/><stop offset="1" stop-color="#3e444a" stop-opacity="0"/></linearGradient><linearGradient id="d" x1="0.5" y1="0.363" x2="0.5" y2="0.712" gradientUnits="objectBoundingBox"><stop offset="0" stop-color="#df9b7e"/><stop offset="0.247" stop-color="#df9b7e" stop-opacity="0.922"/><stop offset="0.736" stop-color="#df9b7e" stop-opacity="0.722"/><stop offset="1" stop-color="#df9b7e" stop-opacity="0.6"/></linearGradient><radialGradient id="e" cx="0.5" cy="0.5" r="0.5" gradientTransform="matrix(0.999, 0.045, -0.046, 0.999, 0.071, 0.294)" gradientUnits="objectBoundingBox"><stop offset="0" stop-color="#df9b7e" stop-opacity="0.702"/><stop offset="0.153" stop-color="#df9b7e" stop-opacity="0.624"/><stop offset="0.459" stop-color="#df9b7e" stop-opacity="0.42"/><stop offset="0.884" stop-color="#df9b7e" stop-opacity="0.094"/><stop offset="1" stop-color="#df9b7e" stop-opacity="0"/></radialGradient><radialGradient id="f" cx="0.5" cy="0.5" r="0.5" gradientTransform="matrix(0.999, 0.045, -0.046, 0.999, 0.075, 0.294)" xlink:href="#e"/><linearGradient id="g" x1="0.12" y1="0.601" x2="0.822" y2="0.404" xlink:href="#d"/><linearGradient id="h" x1="0.469" y1="1.528" x2="0.518" y2="0.048" xlink:href="#a"/><linearGradient id="i" x1="0.475" y1="1.335" x2="0.506" y2="0.045" gradientUnits="objectBoundingBox"><stop offset="0" stop-color="#f2e6d7" stop-opacity="0.2"/><stop offset="0.416" stop-color="#f2e6d7" stop-opacity="0.129"/><stop offset="1" stop-color="#f2e6d7" stop-opacity="0"/></linearGradient></defs><g transform="translate(-848.222 -4243.419)"><ellipse class="a" cx="174.305" cy="8.178" rx="174.305" ry="8.178" transform="translate(848.222 4555.224)"/><g transform="translate(914.167 4243.419)"><g transform="translate(60.898 61.477)"><g transform="translate(30.483 88.171)"><path class="b" d="M346.584,236.506a31.033,31.033,0,0,1,5.653,1.8c2.531,1.155,5.567,2.638,7.116,3.38,1.862.891.244,2.542-2.4,1.449s-3.252-1.33-3.252-1.33,8.864,6.64,10.366,9.209c1.37,2.346-3.7-1.072-8.05-3.665,0,0,7.446,7.9,6.987,9.688-.6,2.347-9.595-7.25-9.595-7.25s5.579,8.063,4.522,8.595c-1.179.594-7.9-6.961-7.9-6.961s3.343,5.877,2.517,5.98c-1.635.2-11.139-10.6-11.458-17.176C341.094,240.226,344.981,236.5,346.584,236.506Z" transform="translate(-341.094 -236.506)"/><path class="c" d="M356.041,246.278s-2.987,4.258-7.765,4.977C348.276,251.255,352.944,252.738,356.041,246.278Z" transform="translate(-341.926 -237.638)"/><path class="c" d="M350.484,245.383s-5.628-2.29-3.471-7.2C347.013,238.183,342.806,242.926,350.484,245.383Z" transform="translate(-341.646 -236.7)"/></g><path class="d" d="M322.966,188.454c-4.289-36.9-12.636-51.672-12.636-51.672-7.552,30.9-1.657,47.7.881,55.753s25.889,37.1,25.889,37.1a12.375,12.375,0,0,1,6.527-4.438s-7.4-13.045-10.018-17.93S322.966,188.454,322.966,188.454Z" transform="translate(-306.617 -136.782)"/></g><g transform="translate(16.045 152.387)"><g transform="translate(33.439 4.456)"><path class="e" d="M319.713,322.537,313.787,394.1H303.346c-2.415-27.891-6.314-52.327-1.92-71.567-4.427-21.689-7.717-70.919-7.717-70.919,7.967-3.647,20.743-6.973,20.743-6.973C318.691,268.717,319.713,322.537,319.713,322.537Z" transform="translate(-293.709 -244.645)"/><g transform="translate(7.015 138.091)"><path class="f" d="M338.95,429.069H304.806a3.164,3.164,0,0,1-3.154-3.4l1.387-17.933a20.007,20.007,0,0,1,3.41-1.126,3.459,3.459,0,0,0,2.532-2.3c.025-.085.047-.173.069-.261.784-3.451,5.76-4.549,6.679-1.176.119.436.223.859.311,1.267.022.1.044.2.063.3.148.725.254,1.393.329,1.977,0,.012,0,.025.006.037a19.2,19.2,0,0,1,.17,2.438q.678.862,1.311,1.694c.217.277.424.553.631.822.448.584.884,1.151,1.314,1.7.2.257.4.5.593.75.474.593.941,1.155,1.408,1.678.21.239.421.471.637.694,1.76,1.851,3.536,3.115,5.635,3.407,3.7.508,9.75.917,12.672,6.351a1.92,1.92,0,0,1,.148.345A2.106,2.106,0,0,1,338.95,429.069Z" transform="translate(-301.643 -400.831)"/><g transform="translate(0.029 25.498)"><path class="g" d="M338.954,432.409H304.81a3.161,3.161,0,0,1-3.134-2.739h39.286A2.106,2.106,0,0,1,338.954,432.409Z" transform="translate(-301.676 -429.67)"/></g><g transform="translate(11.97 9.755)"><g transform="translate(0.913)"><path class="h" d="M320.24,412.686a5.937,5.937,0,0,1-2.827,1.933q-.414.17-.9.33l-.294-.891c.323-.107.615-.214.878-.32,1.867-.753,2.378-1.493,2.516-1.873C319.825,412.141,320.032,412.417,320.24,412.686Z" transform="translate(-316.214 -411.864)"/></g><g transform="translate(0 1.58)"><ellipse class="h" cx="1.059" cy="1.059" rx="1.059" ry="1.059"/></g></g><g transform="translate(14.363 12.275)"><g transform="translate(0.738)"><path class="h" d="M322.437,415.464a6.672,6.672,0,0,1-2.338,1.471c-.326.141-.683.273-1.082.4l-.294-.894c.37-.123.7-.245,1-.368a5.356,5.356,0,0,0,2.124-1.364C322.042,414.971,322.239,415.219,322.437,415.464Z" transform="translate(-318.723 -414.714)"/></g><g transform="translate(0 1.121)"><path class="h" d="M320.006,417.041a1.059,1.059,0,1,1-1.059-1.059A1.059,1.059,0,0,1,320.006,417.041Z" transform="translate(-317.888 -415.982)"/></g></g><g transform="translate(16.48 14.703)"><g transform="translate(0.726)"><path class="h" d="M324.759,418.154a6.813,6.813,0,0,1-2.265,1.408c-.33.141-.694.279-1.1.411l-.292-.895c.373-.122.706-.248,1-.373a5.822,5.822,0,0,0,2.014-1.246C324.332,417.7,324.542,417.931,324.759,418.154Z" transform="translate(-321.104 -417.46)"/></g><g transform="translate(0 1.007)"><path class="h" d="M322.4,419.657a1.059,1.059,0,1,1-1.059-1.058A1.059,1.059,0,0,1,322.4,419.657Z" transform="translate(-320.283 -418.599)"/></g></g><g transform="translate(11.747 3.609)"><path class="h" d="M317.972,406.89a23.948,23.948,0,0,0-3.043.172l.019-1.71a7.686,7.686,0,0,1,2.695-.439C317.791,405.638,317.9,406.305,317.972,406.89Z" transform="translate(-314.929 -404.913)"/></g></g></g><g transform="translate(0 7.958)"><g transform="translate(2.237)"><path class="i" d="M284,252.077s-.27,28.411-4.3,70.919c-2.628,23.162-5.553,52.22-8.8,71.567H260.443L258.968,323s-2.393-44.043,2.806-74.39Z" transform="translate(-258.418 -248.606)"/></g><g transform="translate(0 136.636)"><path class="f" d="M279.763,426.951c-.3,6.017-19.111,3.943-22.12,2.139-1.161-.7-1.648-2.042-1.738-3.67-.148-2.6.706-5.917,1.446-8.519,1.2-4.239,1.038-4.161,1.874-7.057,0,0-.217-4.711,5.947-6.51s8.423,9.93,9.476,12.186c.962,2.066,4.707,4.895,5.1,9.981A11.571,11.571,0,0,1,279.763,426.951Z" transform="translate(-255.888 -403.146)"/><g transform="translate(5.445 7.529)"><path class="h" d="M262.539,414.637l-.493-.756c.23-.149,5.669-3.637,10.4-1.561l-.363.827C267.795,411.265,262.592,414.6,262.539,414.637Z" transform="translate(-262.046 -411.662)"/></g><g transform="translate(5.981 12.765)"><path class="h" d="M263.145,420.559l-.492-.757c.229-.149,5.668-3.636,10.4-1.561l-.362.827C268.4,417.185,263.2,420.525,263.145,420.559Z" transform="translate(-262.653 -417.583)"/></g><g transform="translate(5.713 10.147)"><path class="h" d="M262.842,417.6l-.492-.757c.229-.148,5.668-3.636,10.4-1.56l-.362.826C268.1,414.224,262.895,417.564,262.842,417.6Z" transform="translate(-262.35 -414.623)"/></g><g transform="translate(4.622 9.253)"><path class="h" d="M263.146,414.626a1.015,1.015,0,1,1-1.015-1.015A1.015,1.015,0,0,1,263.146,414.626Z" transform="translate(-261.116 -413.611)"/></g><g transform="translate(4.676 11.733)"><path class="h" d="M263.207,417.432a1.015,1.015,0,1,1-1.015-1.015A1.015,1.015,0,0,1,263.207,417.432Z" transform="translate(-261.177 -416.417)"/></g><g transform="translate(5.213 14.214)"><path class="h" d="M263.814,420.238a1.015,1.015,0,1,1-1.015-1.015A1.015,1.015,0,0,1,263.814,420.238Z" transform="translate(-261.784 -419.223)"/></g><g transform="translate(15.186 12.748)"><path class="h" d="M275.095,418.58a1.015,1.015,0,1,1-1.016-1.015A1.016,1.016,0,0,1,275.095,418.58Z" transform="translate(-273.064 -417.565)"/></g><g transform="translate(14.918 10.041)"><path class="h" d="M274.791,415.518a1.015,1.015,0,1,1-1.015-1.015A1.015,1.015,0,0,1,274.791,415.518Z" transform="translate(-272.761 -414.503)"/></g><g transform="translate(14.649 7.334)"><path class="h" d="M274.488,412.456a1.015,1.015,0,1,1-1.015-1.015A1.014,1.014,0,0,1,274.488,412.456Z" transform="translate(-272.457 -411.441)"/></g><g transform="translate(0.017 22.273)"><path class="g" d="M279.765,429.869c-.3,6.017-19.111,3.943-22.12,2.139-1.161-.7-1.648-2.042-1.738-3.67a22.1,22.1,0,0,0,10.661,2.626c6.38.115,10.982-1.176,13.178-2.545A11.571,11.571,0,0,1,279.765,429.869Z" transform="translate(-255.907 -428.338)"/></g><g transform="translate(6.652 2.017)"><path class="h" d="M268.7,405.456a10.032,10.032,0,0,0-5.292,1.053l.276,1.9a20.789,20.789,0,0,1,5.666-.851A4.469,4.469,0,0,0,268.7,405.456Z" transform="translate(-263.412 -405.428)"/></g></g></g><g transform="translate(3.563)"><path class="i" d="M263.424,240.12s-3.54,12.521-3.506,23.683c0,0,17.331,7.583,39.379-.8a17.761,17.761,0,0,0,10.364-22.563c-.038-.108-.077-.216-.116-.324C309.545,240.12,281.351,238.962,263.424,240.12Z" transform="translate(-259.918 -239.605)"/></g></g><g transform="translate(11.561 57.333)"><path class="d" d="M314.744,234.889a90.491,90.491,0,0,1-11.28,4.4q-1.561.491-3.149.918a69.6,69.6,0,0,1-17.131,2.494,51.771,51.771,0,0,1-28.363-7.593l6.116-36.347-10.121-59.112,15.141-5.187.813-.279,1.492-.51.631-.217,1.278-.436,2.7-.925,16.016,2.142.965.128,1.642.219.918.124,11.458,1.53Z" transform="translate(-250.816 -132.095)"/><path class="h" d="M302.684,240.207a69.6,69.6,0,0,1-17.131,2.494q.386-2.444.634-5.058.129-1.3.217-2.637.182-2.623.246-5.375.032-1.3.035-2.629.011-2.63-.066-5.349-.04-1.3-.1-2.621-.114-2.638-.3-5.335-.089-1.3-.2-2.611-.211-2.645-.486-5.323c-.088-.867-.181-1.74-.279-2.609q-.293-2.652-.641-5.314c-.112-.869-.229-1.742-.348-2.611q-.363-2.659-.769-5.308-.2-1.309-.41-2.612-.424-2.674-.886-5.313-.225-1.312-.46-2.614-.483-2.687-.988-5.315-.251-1.312-.508-2.614c-.358-1.8-.72-3.583-1.085-5.328q-.275-1.325-.554-2.623-.586-2.733-1.172-5.334-.3-1.334-.6-2.629-.635-2.773-1.258-5.351c-.214-.9-.429-1.78-.641-2.637-.464-1.9-.917-3.691-1.348-5.369q-.354-1.377-.686-2.647c-.612-2.33-1.167-4.375-1.642-6.08l1.278-.436,2.7-.925,16.016,2.142.965.128q.432,2.267.846,4.542c.157.86.309,1.72.462,2.583q.454,2.587.884,5.182.218,1.294.423,2.588.419,2.594.811,5.182.2,1.3.385,2.59.382,2.6.741,5.182c.122.867.239,1.735.355,2.6q.35,2.6.676,5.186.164,1.308.324,2.6.317,2.615.615,5.192.15,1.312.293,2.611.293,2.627.558,5.2c.09.877.181,1.749.264,2.616q.268,2.638.5,5.208.122,1.326.238,2.625.236,2.656.441,5.216c.073.889.143,1.765.21,2.635q.2,2.676.379,5.227c.064.894.121,1.773.179,2.64q.175,2.709.314,5.247c.053.9.1,1.782.143,2.647.093,1.837.172,3.6.236,5.263.038.912.069,1.8.1,2.66.062,1.9.105,3.669.132,5.286.014.944.024,1.837.024,2.676C302.753,237.367,302.731,238.927,302.684,240.207Z" transform="translate(-253.185 -132.095)"/><g transform="translate(19.718 6.812)"><path class="j" d="M293.74,142.383a109.486,109.486,0,0,1-13.941.81q-2.894,0-5.995-.117-.354-1.377-.686-2.647a121.529,121.529,0,0,0,20.159-.629C293.435,140.66,293.587,141.52,293.74,142.383Z" transform="translate(-273.118 -139.8)"/><g transform="translate(2.034 7.765)"><path class="j" d="M295.314,151.17a110.059,110.059,0,0,1-15.418.977q-1.877,0-3.836-.048c-.214-.9-.429-1.78-.641-2.637a116.7,116.7,0,0,0,19.472-.88Q295.108,149.876,295.314,151.17Z" transform="translate(-275.419 -148.582)"/></g><g transform="translate(3.934 15.534)"><path class="j" d="M296.759,159.96a110.385,110.385,0,0,1-16.812,1.146c-.588,0-1.181,0-1.782-.009q-.3-1.334-.6-2.629a112.807,112.807,0,0,0,18.807-1.1Q296.57,158.667,296.759,159.96Z" transform="translate(-277.567 -157.37)"/></g><g transform="translate(5.705 23.306)"><path class="j" d="M298.088,168.76a111.214,111.214,0,0,1-17.963,1.312q-.275-1.325-.554-2.623a108.74,108.74,0,0,0,18.162-1.289C297.854,167.027,297.971,167.895,298.088,168.76Z" transform="translate(-279.57 -166.16)"/></g><g transform="translate(7.344 31.093)"><path class="j" d="M299.3,177.572a108.342,108.342,0,0,1-17.372,1.462q-.251-1.312-.507-2.614a106.664,106.664,0,0,0,17.555-1.454Q299.143,176.275,299.3,177.572Z" transform="translate(-281.424 -174.967)"/></g><g transform="translate(8.84 38.889)"><path class="j" d="M300.406,186.4a106.482,106.482,0,0,1-16.831,1.59q-.225-1.312-.46-2.614a103.906,103.906,0,0,0,17-1.586Q300.264,185.1,300.406,186.4Z" transform="translate(-283.116 -183.785)"/></g><g transform="translate(10.185 46.702)"><path class="j" d="M301.4,195.237a105.167,105.167,0,0,1-16.357,1.7q-.2-1.309-.41-2.612a102.7,102.7,0,0,0,16.5-1.7C301.231,193.5,301.322,194.37,301.4,195.237Z" transform="translate(-284.638 -192.621)"/></g><g transform="translate(11.365 54.526)"><path class="j" d="M302.3,204.1a104.512,104.512,0,0,1-15.977,1.782c-.112-.869-.229-1.742-.348-2.611a101.788,101.788,0,0,0,16.088-1.8Q302.182,202.8,302.3,204.1Z" transform="translate(-285.972 -201.471)"/></g><g transform="translate(12.354 62.368)"><path class="j" d="M303.078,212.975a104.2,104.2,0,0,1-15.709,1.854c-.088-.867-.181-1.74-.279-2.609a101.021,101.021,0,0,0,15.778-1.88C302.942,211.229,303.012,212.1,303.078,212.975Z" transform="translate(-287.091 -210.34)"/></g><g transform="translate(13.119 70.23)"><path class="j" d="M303.736,221.872a104.28,104.28,0,0,1-15.583,1.92q-.089-1.3-.2-2.611a101.119,101.119,0,0,0,15.6-1.95C303.621,220.126,303.679,221,303.736,221.872Z" transform="translate(-287.956 -219.232)"/></g><g transform="translate(13.619 78.116)"><path class="j" d="M304.259,230.8a105.693,105.693,0,0,1-15.641,1.982q-.04-1.3-.1-2.621a102.273,102.273,0,0,0,15.594-2.009C304.169,229.05,304.214,229.934,304.259,230.8Z" transform="translate(-288.522 -228.152)"/></g><g transform="translate(13.746 86.027)"><path class="j" d="M304.609,239.759a108.236,108.236,0,0,1-15.944,2.037q.032-1.3.035-2.629a103.576,103.576,0,0,0,15.811-2.068C304.55,238.011,304.581,238.9,304.609,239.759Z" transform="translate(-288.665 -237.099)"/></g><g transform="translate(13.283 93.972)"><path class="j" d="M304.7,248.762a112.122,112.122,0,0,1-16.562,2.087q.129-1.3.217-2.637a106.824,106.824,0,0,0,16.321-2.126C304.694,247.03,304.7,247.923,304.7,248.762Z" transform="translate(-288.142 -246.086)"/></g></g></g><g transform="translate(25.325)"><g transform="translate(38.248 14.252)"><path class="k" d="M312.785,83.37s4.058,2.675,2.6,9.944-4.264,8.044-4.264,8.044S306.868,85.264,312.785,83.37Z" transform="translate(-309.643 -83.37)"/></g><g transform="translate(7.156 45.755)"><path class="b" d="M290.049,121.461l-.515,9.192-.235,4.212c-5.293,3.916-13.9-1.475-13.9-1.475l-.92-13.623c2.45-1.651,8.762-.277,12.556.775C288.82,121.039,290.049,121.461,290.049,121.461Z" transform="translate(-274.477 -119)"/></g><g transform="translate(10.79 47.297)"><path class="c" d="M290.526,121.663l-.515,9.192c-6.217-1.437-11.423-10.052-11.423-10.052l8.921-.058C289.3,121.241,290.526,121.663,290.526,121.663Z" transform="translate(-278.588 -120.744)"/></g><path class="k" d="M306.956,85.205s9.915-4.613,7.008-12.754-14.769-4.4-25.435-3.992c-17.176.653-22.556,9.588-22.12,18.892s.337,21.776,4.553,26.428,7.1-1.924,9.276-7.743S295.878,82.4,306.956,85.205Z" transform="translate(-266.384 -67.25)"/><g transform="translate(3.183 9.653)"><path class="b" d="M308.269,94.385c-.006.314-.012.634-.02.957a143.984,143.984,0,0,1-2.151,18.505,10.913,10.913,0,0,1-12.909,8.85c-7.257-1.466-16.206-3.69-20.288-6.373a4.406,4.406,0,0,1-2.187-2.564,60.264,60.264,0,0,1-.66-8.013c-.288-9.368.4-21.055.4-21.055,8.722-10.833,33.031-6.606,36.732,1.319C308.028,87.826,308.321,90.832,308.269,94.385Z" transform="translate(-269.984 -78.168)"/></g><g transform="translate(24.635 28.897)"><path class="k" d="M296.67,102.138c0,1.217-.543,2.2-1.212,2.2s-1.211-.987-1.211-2.2.543-2.205,1.211-2.205S296.67,100.921,296.67,102.138Z" transform="translate(-294.247 -99.933)"/></g><g transform="translate(37.036 28.897)"><path class="k" d="M310.7,102.138c0,1.217-.543,2.2-1.211,2.2s-1.212-.987-1.212-2.2.543-2.205,1.212-2.205S310.7,100.921,310.7,102.138Z" transform="translate(-308.273 -99.933)"/></g><g transform="translate(2.066 6.005)"><path class="k" d="M269.865,96.685s3.884-2.529,7.155,1.986h2.544s-.145-5.226,1.09-8.061,6.106-2.762,6.833-6.106c0,0,11.5,4.575,19.74,1.488s-16.469-16.824-28.39-10.138S268.017,87.788,269.865,96.685Z" transform="translate(-268.721 -74.042)"/></g><g transform="translate(20.596 24.814)"><path class="k" d="M289.678,98.548a6.117,6.117,0,0,1,3.4-2.995,5.716,5.716,0,0,1,4.294.385.742.742,0,0,1,.334.912h0a.745.745,0,0,1-1.014.416A6.23,6.23,0,0,0,289.678,98.548Z" transform="translate(-289.678 -95.315)"/></g><g transform="translate(35.188 24.815)"><path class="k" d="M312.463,96.372c-.006.314-.012.634-.02.957a5.955,5.955,0,0,0-5.2-.061.768.768,0,0,1-.317.069.747.747,0,0,1-.363-1.4,5.72,5.72,0,0,1,4.294-.384A4.522,4.522,0,0,1,312.463,96.372Z" transform="translate(-306.183 -95.316)"/></g><g transform="translate(3.254 37.232)"><path class="k" d="M272.91,119.938a4.406,4.406,0,0,1-2.186-2.564,60.268,60.268,0,0,1-.66-8.013l6.416,4.41S276.564,118.339,272.91,119.938Z" transform="translate(-270.064 -109.361)"/></g><g transform="translate(1.642 27.797)"><path class="b" d="M276.964,101.526s-3.895-4.719-7.155-1.986c-3.591,3.013-.84,13.227,6.46,13Z" transform="translate(-268.241 -98.689)"/><g transform="translate(3.286 3.801)"><path class="c" d="M276.879,110.819a.642.642,0,0,1-.637-.569c-.594-5.167-3.66-5.962-3.789-5.994a.642.642,0,0,1,.285-1.252c.166.036,4.077.977,4.781,7.1a.642.642,0,0,1-.565.712A.679.679,0,0,1,276.879,110.819Z" transform="translate(-271.957 -102.988)"/></g><g transform="translate(3.466 6.204)"><path class="c" d="M272.8,107.857a.641.641,0,0,1-.481-1.065,3.643,3.643,0,0,1,3.431-.993.642.642,0,1,1-.276,1.255,2.354,2.354,0,0,0-2.2.594A.644.644,0,0,1,272.8,107.857Z" transform="translate(-272.161 -105.706)"/></g></g><g transform="translate(23.993 39.133)"><path class="c" d="M302.6,116.445a11.51,11.51,0,0,1-8.925-3.87.642.642,0,0,1,.97-.843c4.2,4.83,10.788,3.114,10.855,3.1a.642.642,0,0,1,.339,1.239A13.179,13.179,0,0,1,302.6,116.445Z" transform="translate(-293.521 -111.511)"/></g><g transform="translate(25.205 43.906)"><path class="c" d="M300.021,120.176a6.338,6.338,0,0,1-5-2.242.643.643,0,0,1,1.032-.767,5.283,5.283,0,0,0,5.122,1.626.642.642,0,1,1,.21,1.267A8.233,8.233,0,0,1,300.021,120.176Z" transform="translate(-294.891 -116.909)"/></g><g transform="translate(31.601 29.991)"><path class="c" d="M303.423,109.368a.642.642,0,0,1-.391-1.153l1.713-1.307-1.485-.385a.642.642,0,0,1-.472-.521l-.655-4.088a.642.642,0,0,1,1.269-.2l.588,3.673,2.356.611a.643.643,0,0,1,.228,1.133l-2.762,2.108A.638.638,0,0,1,303.423,109.368Z" transform="translate(-302.125 -101.171)"/></g></g><g transform="translate(15.578 163.687)"><path class="b" d="M262.286,252.385s2.852.913,3.712,2.578c0,0,0,10.56-5.32,15.167,0,0-2.614-6.353-5.319-12.44Z" transform="translate(-255.359 -252.385)"/></g><path class="d" d="M249.3,140.638s-10.62,33.2-11.561,50.273c0,0,0,31.936,15.578,53.832l6.927-5.3s-8.732-31.77-8.732-44.16c0,0,8.841-23.009,10.291-32.075C261.8,163.2,255.861,140.638,249.3,140.638Z" transform="translate(-237.74 -75.752)"/></g><g transform="translate(1052.384 4265.316)"><g transform="translate(0 0)"><path class="l" d="M153.547,31.233c-5.316-2.725-43.85,4.073-46.247,7.847s9.714,31.632,5.857,61.675,39.043,6.777,39.043,6.777,10.738-51.206,12.29-58.241-7.4-8.087-7.4-8.087S158.219,33.629,153.547,31.233Z" transform="translate(-87.219 -30.605)"/><g transform="translate(0 7.101)"><g transform="translate(0 61.663)"><path class="m" d="M96.135,129.125c-20.395,35.375-17.3,38.561-17.3,38.561l20.437-13.255,4.628-19.575Z" transform="translate(-78.667 -129.125)"/></g><g transform="translate(11.414 217.163)"><path class="n" d="M115.953,352.692s1.112,15.309-.782,28.484c-2.793,19.425-.052,24.539.05,24.885,0,0-.889,4.847-3.008,5.288-5.836,1.212-9.244,8.485-12.884,7.75s-4.308-1.7-4.308-1.7,5.668-4.562,7.068-7.232c.631-1.2,2.065-1.878,3.995-8.129,1.605-5.2-4.458-32.69-6.754-47.434C98.613,350.007,115.953,352.692,115.953,352.692Z" transform="translate(-95.02 -351.912)"/></g><g transform="translate(60.446 272.535)"><path class="o" d="M165.984,431.244a8.681,8.681,0,0,0-.112,6.53c1.418,3.247,3.108,7.316,3.286,10.2s2.7,8.22,7.309,9.543,7.2-1.214,6.755-4.921-4.72-8.756-4.72-8.756Z" transform="translate(-165.268 -431.244)"/></g><g transform="translate(4.626 127.757)"><path class="n" d="M101.118,318.085c-1.466.492-3.315-2.787-4.727-2.173-2.36-12.846-.805-21.149-.805-21.149-3.773-12.076-2.641-15.472-6.415-33.963-1.56-7.646-2.8-14.891-3.715-20.758a13.226,13.226,0,0,1,11.786-15.21l10.42-1.013s3.332,45.788,5.2,85.807q.121,2.616.177,5.169C108.936,315.284,105.055,316.763,101.118,318.085Z" transform="translate(-85.295 -223.818)"/></g><g transform="translate(18.425 114.665)"><path class="p" d="M105.065,211.364s12.73-18.264,23.818,7.385c10.786,24.949,4.854,51.676,4.854,51.676.47,4.9,1.134,10.911,1.134,10.911s8.538,13.835,11.111,26.41c1.122,5.483,1.332,13.672,1.7,22.349a22.588,22.588,0,0,0-9.378,3.9c-.63-1.707-3.156-2.955-3.83-4.332-5.353-10.942-10.806-35.656-11.324-38.631s-3.283-7.855-6.227-11.556S105.065,211.364,105.065,211.364Z" transform="translate(-105.065 -205.061)"/></g><g transform="translate(47.028 231.475)"><path class="p" d="M146.044,378.454s5.2,11.466,9.618,20.717c3.08,6.457,4.444,15.531,6.169,21.305s4.353,11.952,8.167,10.978,4.89-2.516-.376-11.239c-1.386-2.3-3.275-5.976-4.557-13.977-.913-5.7-5.341-33.622-5.341-33.622S150.411,370.746,146.044,378.454Z" transform="translate(-146.044 -372.416)"/></g><g transform="translate(17.468 55.03)"><path class="m" d="M116.9,121.4c6.392-1.7,17.162-4.143,29.083,3.414,4.638,3.2,9.639,5.635,14.408,12.5,0,0-23.04,14.44-37.194,12.073s-19.5-23.126-19.5-23.126A102.574,102.574,0,0,1,116.9,121.4Z" transform="translate(-103.694 -119.621)"/></g><g transform="translate(37.915 34.61)"><path class="p" d="M132.988,114.843a10.848,10.848,0,0,0,5.621,1.751c3.223.087,4.4-1.8,5.476-2.085l10.456-24.143-18.914,8.525-.044.8Z" transform="translate(-132.988 -90.366)"/></g><g transform="translate(39.138 34.61)"><path class="n" d="M138.716,107.33a18.968,18.968,0,0,0,5.807-1.693,39.781,39.781,0,0,0,5.157-2.823l5.391-12.449-18.914,8.525-.044.8-1.372,8.005C136.065,107.566,137.393,107.486,138.716,107.33Z" transform="translate(-134.741 -90.366)"/></g><g transform="translate(2.74 116.144)"><path class="o" d="M85.887,211.577c-9.437,26.081,4.4,67.875,4.4,67.875s20.55,9.541,39.412,1.538l6.991-31.44s5.363-25.665-10.286-37.058S85.887,211.577,85.887,211.577Z" transform="translate(-82.593 -207.18)"/></g><g class="q" transform="translate(4.235 116.144)"><path class="r" d="M114.443,222.823a60.571,60.571,0,0,0,13.369-2.726c1.644-.535,3.289-1.093,4.913-1.7a23.564,23.564,0,0,0-5.675-5.906c-15.65-11.393-40.516-.916-40.516-.916-.693,1.914-1.284,3.8-1.79,5.652-.481,1.76,16.37,5.268,18.032,5.459A57.853,57.853,0,0,0,114.443,222.823Z" transform="translate(-84.735 -207.18)"/></g><g transform="translate(63.57 109.096)"><path class="s" d="M169.744,197.082" transform="translate(-169.744 -197.082)"/></g><g transform="translate(14.908 66.132)"><g transform="translate(0 0)"><path class="m" d="M108.722,135.528s-15.7,8.942-4.907,20.042L100.07,173.2l29.655,7.312s16.76-25.432,19.5-31.259Z" transform="translate(-100.025 -135.528)"/></g></g><path class="t" d="M124.516,123.952l-1.207,26.009,17.449-17.93s-6.22-4.993-8.457-6.019A48.916,48.916,0,0,0,124.516,123.952Z" transform="translate(-92.15 -65.899)"/><g transform="translate(3.232 85.108)"><path class="m" d="M99.227,162.715,83.3,199.288s22.492,15.3,47.678,2.153l-5.4-18.231Z" transform="translate(-83.298 -162.715)"/></g><path class="u" d="M115.093,167.183c-8.175-8.635-11.532-1.849-16.331-3.406L83.3,199.284s22.492,15.3,47.678,2.153l-4.554-15.387c1.8-2.756,4.766-7.313,7.78-12.041a41.942,41.942,0,0,1,2.981-6.309S124.32,176.929,115.093,167.183Z" transform="translate(-80.066 -77.602)"/><path class="o" d="M127.874,186.05c1.8-2.756,4.766-7.313,7.78-12.041a41.943,41.943,0,0,1,2.981-6.309s-12.863,9.229-22.09-.518c-8.175-8.635-11.532-1.849-16.331-3.406L88.1,191.584q8.725.006,17.435-.625c9.052-.658,17.347,5.32,26.139,7.942Z" transform="translate(-81.517 -77.602)"/><path class="m" d="M78.851,180.428c-1.445,3.312,9.273,9.908,31.809,9.221S94.1,171.314,94.1,171.314l-4.873,1.57Z" transform="translate(-78.684 -80.204)"/><path class="v" d="M96.627,159.765c-1.563-.749-2.547-1.194-2.547-1.194l-2.369.764,5.152-3.341.5-2.358c-10.456-10.75,3.946-19.478,4.862-20.016l-6.091-4.495c-20.395,35.375-17.3,38.561-17.3,38.561-1.445,3.312,9.273,9.908,31.809,9.221,4.7-.144,6.711-1.025,6.964-2.329Z" transform="translate(-78.667 -67.462)"/><path class="p" d="M157.079,62.536s6.945-1.491,6.04,6.308-6.552,7.955-8.218,8.292c0,0-3.108,13.889-20.242,12.559s-14.325-14.6-14.2-23.4-.856-24.073,10.359-25.2C142.132,39.966,158.073,40.71,157.079,62.536Z" transform="translate(-91.215 -40.779)"/><path class="w" d="M137.82,46.028a19.271,19.271,0,0,0-9.959.467,13.96,13.96,0,0,0-5.47,3.439,31.991,31.991,0,0,0-1.62,8.875l.092,1.244a11.3,11.3,0,0,0,8.145-7.075,17.928,17.928,0,0,0,3.493,5.9,2.826,2.826,0,0,1,1.584-1.457,12.91,12.91,0,0,1,.135-3.96c.454,2.9,3.2,5.041,6.078,5.632s5.863-.068,8.681-.908a6.691,6.691,0,0,0,3.349,6.685,14.083,14.083,0,0,0-3.072-12.462A19.937,19.937,0,0,0,137.82,46.028Z" transform="translate(-91.383 -42.233)"/><g transform="translate(39.72 36.082)"><path class="x" d="M143.528,92.5c.105.094-.112.573-.715,1.149l-.242.218c-.086.074-.183.14-.281.214a5.985,5.985,0,0,1-.659.42,6.769,6.769,0,0,1-3.456.826,5.987,5.987,0,0,1-.778-.078c-.121-.021-.237-.036-.348-.064l-.315-.086c-.82-.247-1.194-.566-1.157-.7.042-.158.566-.091,1.287-.071l.291.01c.1,0,.207,0,.314,0,.216,0,.447-.017.687-.027a11.133,11.133,0,0,0,1.544-.239,11.017,11.017,0,0,0,1.486-.484c.219-.1.434-.184.625-.285.1-.049.193-.09.281-.139l.255-.14C143,92.659,143.408,92.389,143.528,92.5Z" transform="translate(-135.574 -92.475)"/></g><g transform="translate(39.432 25.021)"><path class="n" d="M137.167,85.658c0,.069-.166.151-.475.1a1.732,1.732,0,0,1-1.06-.734,2.48,2.48,0,0,1-.387-.824l-.029-.135L135.2,84l-.008-.053-.016-.107-.01-.146a3.162,3.162,0,0,1,.012-.526,6.533,6.533,0,0,1,.654-2.06c1.2-2.6,2.394-4.6,2.672-4.474s-.468,2.34-1.663,4.936a7.824,7.824,0,0,0-.651,1.739,2.836,2.836,0,0,0-.049.377l0,.045v.043h0s0-.035,0-.017l0,.108v.053l0,.036,0,.071a2.125,2.125,0,0,0,.158.6,1.861,1.861,0,0,0,.551.735C137.036,85.5,137.174,85.577,137.167,85.658Z" transform="translate(-135.162 -76.627)"/></g><g transform="translate(46.414 18.42)"><path class="y" d="M145.178,68.876c-.084-.115.255-.565,1.035-1a5.542,5.542,0,0,1,1.463-.552,5.986,5.986,0,0,1,.923-.136c.164-.01.323-.018.5-.014s.336.013.494.024a5.927,5.927,0,0,1,3.216,1.309,3.621,3.621,0,0,1,.711.774c.131.21.166.352.115.407s-.2.013-.41-.091l-.849-.436a9.3,9.3,0,0,0-1.267-.52,7.629,7.629,0,0,0-.77-.207c-.135-.028-.272-.057-.413-.077-.07-.009-.14-.023-.212-.03l-.2-.024a8.264,8.264,0,0,0-3,.3C145.751,68.808,145.269,69.009,145.178,68.876Z" transform="translate(-145.165 -67.17)"/></g><g transform="translate(31.335 17.321)"><path class="y" d="M132.031,68.111c-.115.113-.55-.175-1.258-.526a8.289,8.289,0,0,0-2.888-.86l-.2-.015c-.071-.007-.143-.006-.214-.01-.142-.007-.282,0-.419,0a7.744,7.744,0,0,0-.795.057,9.191,9.191,0,0,0-1.343.27l-.916.265c-.229.062-.379.078-.42.012s.022-.2.191-.378a3.625,3.625,0,0,1,.845-.624,5.93,5.93,0,0,1,3.406-.675c.157.018.31.036.49.07s.329.068.488.108a6.006,6.006,0,0,1,.88.309,5.55,5.55,0,0,1,1.332.82C131.887,67.508,132.136,68.014,132.031,68.111Z" transform="translate(-123.561 -65.595)"/></g><path class="z" d="M149.815,88.479a4.6,4.6,0,1,0,4.8-4.382A4.6,4.6,0,0,0,149.815,88.479Z" transform="translate(-100.154 -53.861)"/><path class="aa" d="M120.032,87.124a4.6,4.6,0,1,0,4.8-4.383A4.595,4.595,0,0,0,120.032,87.124Z" transform="translate(-91.159 -53.451)"/><path class="y" d="M147.51,76.641a2.3,2.3,0,1,0,2.4-2.194A2.3,2.3,0,0,0,147.51,76.641Z" transform="translate(-99.458 -50.947)"/><path class="y" d="M128.733,75.787a2.3,2.3,0,1,0,2.4-2.2A2.3,2.3,0,0,0,128.733,75.787Z" transform="translate(-93.787 -50.689)"/><g transform="translate(4.039 271.311)"><path class="o" d="M93.6,441.835c-1.769-.186,2.975-5.21,2.652-4.988s-11,8.651-11.733,10.56c-.269.7.276,2,2.418,2.142s9.191-1.977,11.214-2.7,9.008-9.7,10.506-10.381,1.728,8.515,2.064,8.616l1.175-.808s2.062-9.5.135-14.785c0,0-1.569.289-5.207,3.914C102.949,437.263,96.059,442.092,93.6,441.835Z" transform="translate(-84.453 -429.491)"/></g><path class="ab" d="M90.958,293.32s16.98,7.882,34.237,3.306c-4.277-1.628-8.516-3.3-12.1-6.1-5.365-4.2-8.684-10.575-10.412-17.165S100.676,259.9,100.4,253.1l0,27.613a4.4,4.4,0,0,1-8.186,2.254c-.02-.032-.038-.065-.057-.1a85.807,85.807,0,0,1-7.342-16.247A179.624,179.624,0,0,0,90.958,293.32Z" transform="translate(-80.524 -104.904)"/><path class="ac" d="M176.459,76.184c.6,2.064-.25,4.24-1.082,6.221a3.369,3.369,0,0,1-1.048,1.57,1.163,1.163,0,0,1-1.665-.269c-.267-.557.128-1.184.437-1.718s.484-1.337-.035-1.671c-.242-.156-.558-.142-.812-.277-.553-.292-.549-1.08-.407-1.69a9.432,9.432,0,0,1,.929-2.415c.41-.743,1.058-1.5,1.908-1.489C175.571,74.46,176.212,75.33,176.459,76.184Z" transform="translate(-106.785 -50.947)"/><path class="ad" d="M134.453,127.057a1.859,1.859,0,0,1-.743.1c-.535-.082-.958-.573-1.291-1.254a52.591,52.591,0,0,0-7.526-1.948l-.334,7.19a2.273,2.273,0,0,0,.376.506c1.606,1.563,6.912-3.749,8.052-2.921.774.563,3.662,3.781,5.767,5.751l2.381-2.446S137.19,128.864,134.453,127.057Z" transform="translate(-92.528 -65.899)"/><g transform="translate(30.795 52.634)"><path class="t" d="M143.654,116.189s-8.429,7.282-10.38,6.965S131,116.279,131,116.279s-5.552,1.507-6.4,2.476-2.743,7.58-1.256,9.138,8.206-3.988,9.261-3.164,6.343,7.386,7.328,7.276,7.337-9.286,6.895-12.126A4.837,4.837,0,0,0,143.654,116.189Z" transform="translate(-122.787 -116.189)"/></g></g><path class="ae" d="M155.267,42.844c-3.615-5.194-10.279-7.321-16.573-7.979-4.649-.486-9.625-.28-13.58,2.213-6.322,3.985-8.147,13.2-9.287,20.581,5.163-.4,9.638-3.963,11.6-11.043a24,24,0,0,0,4.335,8.721c.447-.188.891-.378,1.326-.588a17.9,17.9,0,0,1-1.3-8.333c.85,2.83,3.069,11.341,16.05,8.524-.394,1.877-.223,5.628,3.3,6.872-.322,2.451-.322,4.5-.495,6.768.284.216.57.425.862.624,2.554-3.636,5.85-11.84,5.85-11.84C158.573,52.472,158.147,46.982,155.267,42.844Z" transform="translate(-89.89 -31.828)"/><path class="af" d="M129.79,54.783c-.87-.1-1.739-.234-2.606-.39a26.458,26.458,0,0,1-2.43-5.924,19.473,19.473,0,0,1-2.041,4.861,42.91,42.91,0,0,1-15.683-8.578,4.569,4.569,0,0,1,.269-2.6,5.021,5.021,0,0,1,2.076-1.367,48.748,48.748,0,0,0,19.731,7.588A17.274,17.274,0,0,0,129.79,54.783Zm27.3-10.5h0s-6.966,3.727-19.291,4.466a43.29,43.29,0,0,1-8.651-.364,12.9,12.9,0,0,0,3.888,6.655,43.252,43.252,0,0,0,6.236-.2c8.106-.849,16.009-3.807,23.585-8.09A11.773,11.773,0,0,0,157.093,44.281Z" transform="translate(-87.219 -33.681)"/></g><path class="ag" d="M102.463,170.427s-4.79-3.055-5.983-2.949-5.545,3.334-5.815,4.916c0,0,9.81-.338,11.374.341S102.463,170.427,102.463,170.427Z" transform="translate(-82.29 -71.943)"/><g transform="translate(13.02 79.411)"><path class="m" d="M141.787,188.89c-5.764,5.451-27.175-6.992-44.467-16.772l7.044-10.864s24.186,10.314,30.286,14.27l10.7-25.036s10.582-7.97,13.121-5.7C164.2,149.908,150.072,181.053,141.787,188.89Z" transform="translate(-97.32 -144.379)"/><path class="ag" d="M136.165,179.756c1.279-1.4,5.064-1.384,6.9-2.822,1.434-1.121,2.99-2.286,4.721-2.257,2.183.036,3.081,1.944,4.917,2.6.627.225,1.337.69,1.341,1.45a1.284,1.284,0,0,1-.977,1.2c-.521.128-1.027-.21-1.443.174-.325.3-.26,1.21-.543,1.612-.58.825-1.541.447-2.245,1.222-.892.982-.859,1.973-2.348,1.9a9.488,9.488,0,0,1-2.742-1.04C142.939,183.469,136.165,179.756,136.165,179.756Z" transform="translate(-109.052 -153.529)"/></g></g></g></svg>