<svg xmlns="http://www.w3.org/2000/svg" width="137.631" height="316.696" viewBox="0 0 137.631 316.696"><defs><style>.a{fill:#ffaf82;}.b{fill:#f88968;}.c{fill:#004080;}.d{fill:#050705;}.e{fill:#de9d01;}.f{fill:#bf8005;}.g{fill:#fff;}.h{fill:#2c2c2c;}.i{fill:#e2e2e2;}.j{fill:#32324c;}.k{fill:#920e08;}.l{fill:#f85c66;}.m{fill:#4671c6;}.n{fill:#e0ebfc;}.o{fill:#a4c9ff;}.p{fill:#f9a7a7;}.q{fill:#3762cc;}</style></defs><g transform="translate(-421.784 -5750.523)"><g transform="translate(385.04 5750.523)"><g transform="translate(63.697 0)"><g transform="translate(0 0)"><g transform="translate(58.822 62.357)"><g transform="translate(29.444 85.166)"><path class="a" d="M346.4,236.506a29.976,29.976,0,0,1,5.461,1.739c2.445,1.115,5.378,2.548,6.873,3.265,1.8.861.236,2.455-2.317,1.4s-3.141-1.284-3.141-1.284,8.561,6.414,10.013,8.9c1.324,2.266-3.573-1.035-7.776-3.54,0,0,7.193,7.63,6.749,9.357-.582,2.267-9.268-7-9.268-7s5.389,7.788,4.368,8.3c-1.138.574-7.629-6.724-7.629-6.724s3.229,5.677,2.431,5.777c-1.579.2-10.759-10.243-11.067-16.591C341.094,240.1,344.848,236.5,346.4,236.506Z" transform="translate(-341.094 -236.506)"/><path class="b" d="M355.777,246.278s-2.885,4.113-7.5,4.807C348.276,251.085,352.785,252.517,355.777,246.278Z" transform="translate(-342.142 -237.933)"/><path class="b" d="M350.327,245.138s-5.437-2.212-3.353-6.955C346.974,238.183,342.91,242.765,350.327,245.138Z" transform="translate(-341.79 -236.751)"/></g><path class="c" d="M322.409,186.693c-4.143-35.643-12.206-49.911-12.206-49.911-7.3,29.843-1.6,46.07.851,53.854s25.007,35.835,25.007,35.835a11.953,11.953,0,0,1,6.3-4.287s-7.146-12.6-9.677-17.319S322.409,186.693,322.409,186.693Z" transform="translate(-306.617 -136.782)"/></g><g transform="translate(15.499 150.17)"><g transform="translate(32.3 4.304)"><path class="d" d="M318.827,319.883,313.1,389.012H303.018c-2.333-26.941-6.1-50.544-1.855-69.129-4.276-20.95-7.454-68.5-7.454-68.5,7.7-3.523,20.036-6.736,20.036-6.736C317.839,267.9,318.827,319.883,318.827,319.883Z" transform="translate(-293.709 -244.645)"/><g transform="translate(6.776 133.386)"><path class="e" d="M337.679,428.107H304.7a3.056,3.056,0,0,1-3.046-3.289l1.34-17.322a19.325,19.325,0,0,1,3.294-1.088,3.341,3.341,0,0,0,2.446-2.218c.024-.082.045-.167.067-.252.758-3.333,5.564-4.394,6.451-1.136.115.421.215.83.3,1.224.021.1.043.2.061.291.143.7.245,1.345.318,1.91,0,.012,0,.024.006.036a18.54,18.54,0,0,1,.164,2.355q.655.833,1.267,1.636c.209.267.409.534.61.794.433.564.854,1.112,1.269,1.64.191.249.382.488.573.724.458.573.909,1.115,1.36,1.621.2.231.406.455.616.67,1.7,1.788,3.415,3.009,5.443,3.291,3.576.491,9.418.886,12.24,6.134a1.852,1.852,0,0,1,.143.333A2.035,2.035,0,0,1,337.679,428.107Z" transform="translate(-301.643 -400.831)"/><g transform="translate(0.028 24.629)"><path class="f" d="M337.684,432.316H304.7a3.053,3.053,0,0,1-3.027-2.646h37.947A2.035,2.035,0,0,1,337.684,432.316Z" transform="translate(-301.676 -429.67)"/></g><g transform="translate(11.562 9.423)"><g transform="translate(0.881)"><path class="g" d="M320.1,412.658a5.735,5.735,0,0,1-2.731,1.867q-.4.164-.873.319l-.284-.861c.312-.1.594-.207.848-.309,1.8-.728,2.3-1.442,2.431-1.81C319.7,412.131,319.9,412.4,320.1,412.658Z" transform="translate(-316.214 -411.864)"/></g><g transform="translate(0 1.526)"><ellipse class="g" cx="1.023" cy="1.023" rx="1.023" ry="1.023"/></g></g><g transform="translate(13.873 11.857)"><g transform="translate(0.713)"><path class="g" d="M322.311,415.438a6.444,6.444,0,0,1-2.258,1.421c-.315.137-.66.264-1.045.391l-.284-.863c.357-.119.679-.237.963-.355a5.174,5.174,0,0,0,2.051-1.318C321.929,414.963,322.119,415.2,322.311,415.438Z" transform="translate(-318.723 -414.714)"/></g><g transform="translate(0 1.083)"><path class="g" d="M319.933,417.005a1.023,1.023,0,1,1-1.023-1.023A1.023,1.023,0,0,1,319.933,417.005Z" transform="translate(-317.888 -415.982)"/></g></g><g transform="translate(15.919 14.202)"><g transform="translate(0.701)"><path class="g" d="M324.635,418.13a6.581,6.581,0,0,1-2.188,1.361c-.319.136-.67.27-1.061.4l-.282-.864c.36-.118.682-.239.969-.36a5.622,5.622,0,0,0,1.945-1.2C324.222,417.691,324.425,417.915,324.635,418.13Z" transform="translate(-321.104 -417.46)"/></g><g transform="translate(0 0.973)"><path class="g" d="M322.328,419.621a1.023,1.023,0,1,1-1.023-1.022A1.023,1.023,0,0,1,322.328,419.621Z" transform="translate(-320.283 -418.599)"/></g></g><g transform="translate(11.346 3.486)"><path class="g" d="M317.869,406.823a23.139,23.139,0,0,0-2.94.167l.019-1.652a7.425,7.425,0,0,1,2.6-.424C317.693,405.613,317.8,406.258,317.869,406.823Z" transform="translate(-314.929 -404.913)"/></g></g></g><g transform="translate(0 7.687)"><g transform="translate(2.161)"><path class="h" d="M283.128,251.959s-.26,27.443-4.155,68.5c-2.538,22.373-5.364,50.441-8.5,69.129h-10.1l-1.424-69.129s-2.311-42.542,2.711-71.855Z" transform="translate(-258.418 -248.606)"/></g><g transform="translate(0 131.98)"><path class="e" d="M278.949,426.14c-.291,5.812-18.46,3.809-21.366,2.066a4.118,4.118,0,0,1-1.679-3.545,27.654,27.654,0,0,1,1.4-8.228c1.162-4.094,1-4.019,1.81-6.817,0,0-.209-4.55,5.744-6.288s8.136,9.591,9.153,11.771c.929,2,4.547,4.728,4.922,9.641A11.177,11.177,0,0,1,278.949,426.14Z" transform="translate(-255.888 -403.146)"/><g transform="translate(5.259 7.273)"><path class="g" d="M262.523,414.536l-.477-.73c.222-.144,5.476-3.513,10.048-1.508l-.35.8C267.6,411.279,262.573,414.5,262.523,414.536Z" transform="translate(-262.046 -411.662)"/></g><g transform="translate(5.777 12.33)"><path class="g" d="M263.129,420.458l-.476-.731c.221-.144,5.475-3.513,10.047-1.508l-.35.8C268.2,417.2,263.179,420.424,263.129,420.458Z" transform="translate(-262.653 -417.583)"/></g><g transform="translate(5.519 9.802)"><path class="g" d="M262.826,417.5l-.476-.731c.221-.143,5.475-3.513,10.047-1.507l-.35.8C267.9,414.238,262.876,417.463,262.826,417.5Z" transform="translate(-262.35 -414.623)"/></g><g transform="translate(4.465 8.937)"><path class="g" d="M263.077,414.591a.98.98,0,1,1-.98-.98A.981.981,0,0,1,263.077,414.591Z" transform="translate(-261.116 -413.611)"/></g><g transform="translate(4.517 11.334)"><path class="g" d="M263.138,417.4a.98.98,0,1,1-.98-.98A.98.98,0,0,1,263.138,417.4Z" transform="translate(-261.177 -416.417)"/></g><g transform="translate(5.035 13.73)"><path class="g" d="M263.745,420.2a.98.98,0,1,1-.98-.98A.98.98,0,0,1,263.745,420.2Z" transform="translate(-261.784 -419.223)"/></g><g transform="translate(14.669 12.314)"><path class="g" d="M275.026,418.545a.981.981,0,1,1-.981-.98A.981.981,0,0,1,275.026,418.545Z" transform="translate(-273.064 -417.565)"/></g><g transform="translate(14.41 9.699)"><path class="g" d="M274.722,415.483a.98.98,0,1,1-.98-.98A.981.981,0,0,1,274.722,415.483Z" transform="translate(-272.761 -414.503)"/></g><g transform="translate(14.15 7.084)"><path class="g" d="M274.419,412.421a.981.981,0,1,1-.98-.98A.98.98,0,0,1,274.419,412.421Z" transform="translate(-272.457 -411.441)"/></g><g transform="translate(0.016 21.514)"><path class="f" d="M278.952,429.817c-.291,5.812-18.46,3.809-21.366,2.066a4.118,4.118,0,0,1-1.679-3.545,21.346,21.346,0,0,0,10.3,2.536c6.163.111,10.608-1.136,12.729-2.458A11.176,11.176,0,0,1,278.952,429.817Z" transform="translate(-255.907 -428.338)"/></g><g transform="translate(6.426 1.948)"><path class="g" d="M268.523,405.455a9.691,9.691,0,0,0-5.111,1.017l.266,1.84a20.08,20.08,0,0,1,5.473-.822A4.317,4.317,0,0,0,268.523,405.455Z" transform="translate(-263.412 -405.428)"/></g></g></g><g transform="translate(3.441)"><path class="h" d="M263.3,240.1s-3.419,12.095-3.386,22.876c0,0,16.74,7.325,38.037-.769a17.155,17.155,0,0,0,10.011-21.794c-.037-.1-.074-.208-.112-.313C307.854,240.1,280.621,238.984,263.3,240.1Z" transform="translate(-259.918 -239.605)"/></g></g><g transform="translate(11.167 58.354)"><path class="c" d="M312.566,231.386a87.41,87.41,0,0,1-10.9,4.25q-1.508.474-3.042.886a67.232,67.232,0,0,1-16.547,2.409,50.007,50.007,0,0,1-27.4-7.334l5.907-35.109-9.776-57.1,14.625-5.011.785-.269,1.441-.493.61-.209,1.234-.421,2.6-.893,15.471,2.069.932.124,1.586.212.886.12,11.067,1.477Z" transform="translate(-250.816 -132.095)"/><path class="g" d="M301.613,236.523a67.232,67.232,0,0,1-16.547,2.409q.373-2.361.612-4.886.124-1.257.209-2.548.176-2.534.237-5.192.031-1.257.034-2.539.01-2.54-.064-5.167-.038-1.259-.092-2.531-.11-2.548-.293-5.153-.086-1.257-.19-2.522-.2-2.554-.47-5.141c-.085-.838-.175-1.681-.269-2.52q-.283-2.562-.619-5.133c-.108-.839-.221-1.682-.337-2.522q-.351-2.568-.743-5.128-.193-1.264-.4-2.523-.41-2.583-.856-5.132-.218-1.267-.444-2.525-.466-2.6-.955-5.134-.242-1.267-.49-2.524c-.346-1.742-.7-3.461-1.048-5.146q-.265-1.28-.535-2.534-.566-2.64-1.132-5.152-.287-1.289-.578-2.539-.614-2.679-1.215-5.169c-.207-.868-.414-1.719-.619-2.548-.448-1.833-.886-3.566-1.3-5.186q-.342-1.33-.663-2.557c-.591-2.25-1.127-4.226-1.586-5.873l1.234-.421,2.6-.893,15.471,2.069.932.124q.418,2.189.817,4.387c.152.831.3,1.661.447,2.495q.438,2.5.854,5.005.21,1.25.409,2.5.4,2.506.783,5.005.19,1.253.372,2.5.369,2.51.716,5.005c.118.838.231,1.676.343,2.512q.338,2.516.653,5.01.159,1.263.313,2.516.306,2.526.594,5.015.145,1.267.283,2.522.283,2.538.539,5.024c.087.847.175,1.689.255,2.527q.259,2.548.483,5.031.118,1.281.23,2.536.228,2.566.426,5.039c.071.858.138,1.7.2,2.545q.2,2.585.366,5.049c.061.863.117,1.712.172,2.55q.169,2.617.3,5.068c.051.868.095,1.722.138,2.557.09,1.775.166,3.473.228,5.084.037.881.067,1.74.094,2.569.06,1.839.1,3.544.127,5.106.014.912.023,1.775.023,2.585C301.679,233.78,301.659,235.287,301.613,236.523Z" transform="translate(-253.801 -132.095)"/><g transform="translate(19.046 6.58)"><path class="i" d="M293.037,142.295a105.756,105.756,0,0,1-13.466.782q-2.8,0-5.79-.113-.342-1.33-.663-2.557a117.387,117.387,0,0,0,19.472-.607C292.742,140.631,292.889,141.461,293.037,142.295Z" transform="translate(-273.118 -139.8)"/><g transform="translate(1.965 7.5)"><path class="i" d="M294.636,151.082a106.308,106.308,0,0,1-14.892.944q-1.813,0-3.706-.046c-.207-.868-.414-1.719-.619-2.548a112.727,112.727,0,0,0,18.808-.85Q294.437,149.832,294.636,151.082Z" transform="translate(-275.419 -148.582)"/></g><g transform="translate(3.8 15.005)"><path class="i" d="M296.105,159.871a106.623,106.623,0,0,1-16.239,1.107c-.568,0-1.141,0-1.721-.009q-.287-1.289-.578-2.539a108.96,108.96,0,0,0,18.166-1.061Q295.922,158.623,296.105,159.871Z" transform="translate(-277.567 -157.37)"/></g><g transform="translate(5.51 22.512)"><path class="i" d="M297.457,168.672a107.426,107.426,0,0,1-17.351,1.267q-.265-1.28-.535-2.534a105.034,105.034,0,0,0,17.543-1.245C297.231,167,297.344,167.836,297.457,168.672Z" transform="translate(-279.57 -166.16)"/></g><g transform="translate(7.093 30.033)"><path class="i" d="M298.694,177.483a104.648,104.648,0,0,1-16.78,1.413q-.242-1.267-.49-2.524a103.03,103.03,0,0,0,16.957-1.4Q298.539,176.23,298.694,177.483Z" transform="translate(-281.424 -174.967)"/></g><g transform="translate(8.538 37.564)"><path class="i" d="M299.817,186.307a102.854,102.854,0,0,1-16.257,1.536q-.218-1.267-.444-2.525a100.365,100.365,0,0,0,16.419-1.532Q299.679,185.052,299.817,186.307Z" transform="translate(-283.116 -183.785)"/></g><g transform="translate(9.838 45.11)"><path class="i" d="M300.834,195.148a101.584,101.584,0,0,1-15.8,1.639q-.193-1.264-.4-2.523a99.2,99.2,0,0,0,15.94-1.643C300.665,193.468,300.753,194.31,300.834,195.148Z" transform="translate(-284.638 -192.621)"/></g><g transform="translate(10.978 52.668)"><path class="i" d="M301.741,204.007a100.95,100.95,0,0,1-15.433,1.722c-.108-.84-.221-1.682-.337-2.522a98.319,98.319,0,0,0,15.54-1.735Q301.63,202.752,301.741,204.007Z" transform="translate(-285.972 -201.471)"/></g><g transform="translate(11.933 60.242)"><path class="i" d="M302.533,212.885a100.651,100.651,0,0,1-15.173,1.791c-.085-.838-.175-1.681-.269-2.52a97.579,97.579,0,0,0,15.24-1.816C302.4,211.2,302.469,212.045,302.533,212.885Z" transform="translate(-287.091 -210.34)"/></g><g transform="translate(12.672 67.836)"><path class="i" d="M303.2,221.782a100.728,100.728,0,0,1-15.052,1.855q-.086-1.257-.19-2.522a97.673,97.673,0,0,0,15.07-1.883C303.087,220.1,303.143,220.944,303.2,221.782Z" transform="translate(-287.956 -219.232)"/></g><g transform="translate(13.155 75.454)"><path class="i" d="M303.723,230.709a102.088,102.088,0,0,1-15.108,1.915q-.038-1.259-.092-2.531a98.791,98.791,0,0,0,15.062-1.94C303.636,229.02,303.679,229.874,303.723,230.709Z" transform="translate(-288.522 -228.152)"/></g><g transform="translate(13.277 83.095)"><path class="i" d="M304.066,239.668a104.546,104.546,0,0,1-15.4,1.968q.031-1.257.034-2.539a100.047,100.047,0,0,0,15.272-2C304.008,237.98,304.038,238.839,304.066,239.668Z" transform="translate(-288.665 -237.099)"/></g><g transform="translate(12.831 90.77)"><path class="i" d="M304.139,248.671a108.3,108.3,0,0,1-16,2.016q.124-1.257.209-2.548a103.181,103.181,0,0,0,15.765-2.053C304.13,247,304.139,247.861,304.139,248.671Z" transform="translate(-288.142 -246.086)"/></g></g></g><g transform="translate(15.047 161.084)"><path class="a" d="M262.05,252.385s2.755.882,3.585,2.49c0,0,0,10.2-5.139,14.65,0,0-2.525-6.137-5.138-12.016Z" transform="translate(-255.359 -252.385)"/></g><path class="c" d="M248.907,140.638s-10.258,32.068-11.167,48.56c0,0,0,30.848,15.047,52l6.691-5.124s-8.434-30.687-8.434-42.656c0,0,8.539-22.225,9.941-30.982C260.985,162.434,255.243,140.638,248.907,140.638Z" transform="translate(-237.74 -74.988)"/><g transform="translate(22.814)"><g transform="translate(39.829 14.842)"><path class="j" d="M475.441,116.768s4.225,2.785,2.711,10.355-4.441,8.376-4.441,8.376S469.279,118.74,475.441,116.768Z" transform="translate(-472.169 -116.768)"/></g><g transform="translate(7.452 47.645)"><path class="a" d="M453.49,154.686l-.536,9.57-.245,4.387c-5.512,4.078-14.477-1.536-14.477-1.536l-.958-14.186c2.551-1.719,9.123-.289,13.074.807C452.209,154.245,453.49,154.686,453.49,154.686Z" transform="translate(-437.274 -152.123)"/></g><g transform="translate(11.236 49.25)"><path class="b" d="M453.784,154.811l-.536,9.57c-6.474-1.5-11.9-10.466-11.9-10.466l9.29-.061C452.5,154.37,453.784,154.811,453.784,154.811Z" transform="translate(-441.352 -153.853)"/></g><path class="j" d="M471.491,119.469s10.325-4.8,7.3-13.281-15.379-4.578-26.487-4.156c-17.885.68-23.488,9.984-23.034,19.672s.352,22.675,4.741,27.519,7.39-2,9.661-8.062S459.955,116.553,471.491,119.469Z" transform="translate(-429.242 -100.772)"/><g transform="translate(3.316 10.052)"><path class="a" d="M472.683,128.494c0,.2-.007.394-.013.593,0,.134,0,.268-.009.4q-.02.632-.052,1.288a158.293,158.293,0,0,1-2.189,17.982,11.364,11.364,0,0,1-13.443,9.217c-7.557-1.525-16.876-3.843-21.126-6.637a4.585,4.585,0,0,1-2.275-2.669,62.526,62.526,0,0,1-.687-8.344c-.3-9.755.412-21.925.412-21.925,9.081-11.282,34.395-6.88,38.248,1.371C472.43,121.663,472.738,124.794,472.683,128.494Z" transform="translate(-432.815 -111.606)"/></g><g transform="translate(28.177 41.767)"><path class="k" d="M465.219,148.591a2.754,2.754,0,0,1-.4,1.441,2.8,2.8,0,0,1-5.065-.565,2.792,2.792,0,0,1,2.66-3.68A2.8,2.8,0,0,1,465.219,148.591Z" transform="translate(-459.61 -145.787)"/><path class="l" d="M464.831,150.292a2.8,2.8,0,0,1-5.065-.565,5.1,5.1,0,0,1,2.926-.233A5.387,5.387,0,0,1,464.831,150.292Z" transform="translate(-459.621 -146.047)"/></g><g transform="translate(25.654 30.091)"><path class="j" d="M459.414,135.5c0,1.268-.564,2.3-1.261,2.3s-1.262-1.028-1.262-2.3.565-2.3,1.262-2.3S459.414,134.231,459.414,135.5Z" transform="translate(-456.891 -133.203)"/></g><g transform="translate(38.568 30.091)"><path class="j" d="M473.332,135.5c0,1.268-.565,2.3-1.261,2.3s-1.262-1.028-1.262-2.3.564-2.3,1.262-2.3S473.332,134.231,473.332,135.5Z" transform="translate(-470.809 -133.203)"/></g><g transform="translate(2.152 6.253)"><path class="j" d="M432.753,131.09s4.044-2.632,7.45,2.067h2.649s-.151-5.442,1.136-8.393,6.358-2.876,7.115-6.358c0,0,11.973,4.763,20.556,1.549S454.508,102.436,442.1,109.4,430.829,121.826,432.753,131.09Z" transform="translate(-431.562 -107.511)"/></g><g transform="translate(22.015 24.862)"><path class="j" d="M452.969,132.889a6.37,6.37,0,0,1,2.285-4.131,5.952,5.952,0,0,1,4.344-1.131.774.774,0,0,1,.649.777h0a.777.777,0,0,1-.849.765C457.964,129.037,454.994,129.27,452.969,132.889Z" transform="translate(-452.969 -127.568)"/></g><g transform="translate(37.803 25.143)"><path class="j" d="M475.353,130.26c0,.134,0,.268-.009.4q-.02.632-.052,1.288a6.189,6.189,0,0,0-4.585-2.526.807.807,0,0,1-.323-.1.777.777,0,0,1,.378-1.456,5.947,5.947,0,0,1,4.1,1.823A4.563,4.563,0,0,1,475.353,130.26Z" transform="translate(-469.985 -127.871)"/></g><g transform="translate(3.389 38.771)"><path class="j" d="M435.858,153.572a4.585,4.585,0,0,1-2.277-2.67,62.669,62.669,0,0,1-.687-8.344l6.682,4.593S439.664,151.907,435.858,153.572Z" transform="translate(-432.894 -142.558)"/></g><g transform="translate(1.71 28.945)"><path class="a" d="M440.169,134.922s-4.056-4.914-7.45-2.067c-3.74,3.137-.875,13.774,6.726,13.533Z" transform="translate(-431.085 -131.968)"/><g transform="translate(3.422 3.959)"><path class="b" d="M439.9,144.389a.669.669,0,0,1-.663-.593c-.619-5.381-3.81-6.209-3.945-6.242a.668.668,0,0,1,.3-1.3c.173.038,4.245,1.018,4.979,7.393a.67.67,0,0,1-.588.74A.733.733,0,0,1,439.9,144.389Z" transform="translate(-434.774 -136.235)"/></g><g transform="translate(3.61 6.461)"><path class="b" d="M435.644,141.172a.668.668,0,0,1-.5-1.11,3.792,3.792,0,0,1,3.573-1.033.669.669,0,0,1-.287,1.306,2.449,2.449,0,0,0-2.29.619A.671.671,0,0,1,435.644,141.172Z" transform="translate(-434.976 -138.931)"/></g></g><g transform="translate(25.635 46.773)"><path class="b" d="M462.213,154.584A6.6,6.6,0,0,1,457,152.249a.669.669,0,0,1,1.074-.8,5.506,5.506,0,0,0,5.334,1.693.668.668,0,1,1,.219,1.318A8.508,8.508,0,0,1,462.213,154.584Z" transform="translate(-456.871 -151.183)"/></g><g transform="translate(32.907 31.23)"><path class="b" d="M466.059,142.967a.669.669,0,0,1-.406-1.2l1.783-1.361-1.546-.4a.671.671,0,0,1-.492-.542l-.682-4.258a.669.669,0,0,1,1.321-.212l.612,3.825,2.453.636a.67.67,0,0,1,.238,1.18l-2.876,2.194A.663.663,0,0,1,466.059,142.967Z" transform="translate(-464.708 -134.431)"/></g></g></g></g></g><g transform="translate(421.784 5804.703)"><g transform="translate(9.728 9.734)"><path class="m" d="M0,0H25.9V3.58H0Z" transform="translate(0 18.315) rotate(-45)"/></g><g transform="translate(0.632 0.632)"><path class="n" d="M45.445,28.914,28.914,45.445l-9.531-9.531a1.579,1.579,0,0,1,0-2.234l14.3-14.3a1.579,1.579,0,0,1,2.234,0Z" transform="translate(-18.92 -18.92)"/></g><g transform="translate(13.885 5.508)"><path class="o" d="M68.41,40.441l-1.452,1.452a.948.948,0,0,1-1.34,0L61.15,37.426a.948.948,0,0,1,0-1.34L62.6,34.634a.948.948,0,0,1,1.34,0L68.41,39.1A.947.947,0,0,1,68.41,40.441Z" transform="translate(-60.872 -34.356)"/></g><g transform="translate(5.508 13.885)"><path class="o" d="M41.894,66.958,40.442,68.41a.948.948,0,0,1-1.34,0l-4.468-4.468a.948.948,0,0,1,0-1.34l1.452-1.452a.948.948,0,0,1,1.34,0l4.468,4.468a.948.948,0,0,1,0,1.34Z" transform="translate(-34.356 -60.872)"/></g><g transform="translate(11.371 11.371)"><path class="p" d="M109.245,88.619,73.727,53.1a.632.632,0,0,0-.893,0L53.1,72.834a.632.632,0,0,0,0,.893l35.518,35.518a6.318,6.318,0,0,0,8.935,0l11.69-11.69A6.318,6.318,0,0,0,109.245,88.619ZM106.788,95.1,95.1,106.788a2.847,2.847,0,0,1-4.021,0l-2.308-2.308L104.48,88.768l2.308,2.308A2.843,2.843,0,0,1,106.788,95.1Z" transform="translate(-52.916 -52.916)"/></g><g transform="translate(25.709 25.71)"><path class="m" d="M124.079,120.662a2.417,2.417,0,0,0-2.911-.386l-3.924-3.924h0l-3.3-3.3-.033-6.816a2.513,2.513,0,0,0-.74-1.775l-3.3-3.3.447-.447a.316.316,0,0,0,0-.447l-1.787-1.787a.316.316,0,0,0-.447,0l-1.787,1.787a.316.316,0,0,0,0,.447l1.787,1.787a.316.316,0,0,0,.447,0l.447-.447,3.3,3.3a1.256,1.256,0,0,1,.37.888l.026,5.54-11.216-11.216.835-.835a.316.316,0,0,0-.145-.529L98.7,98.315a.316.316,0,0,0-.384.384l.886,3.449a.316.316,0,0,0,.529.145l.835-.835,12.3,12.3h0l2.4,2.4-5.54-.026a1.256,1.256,0,0,1-.888-.37l-3.4-3.4a1.58,1.58,0,1,0-.893.893l3.4,3.4a2.514,2.514,0,0,0,1.775.74l6.816.033,3.743,3.743a2.417,2.417,0,1,0,3.8-.508Z" transform="translate(-98.301 -98.305)"/></g><g transform="translate(13.254 4.876)"><path class="q" d="M64.922,41.435a1.568,1.568,0,0,1-1.117-.462L59.338,36.5a1.582,1.582,0,0,1,0-2.234l1.452-1.452a1.579,1.579,0,0,1,2.234,0l4.468,4.468a1.582,1.582,0,0,1,0,2.234h0l-1.452,1.452A1.569,1.569,0,0,1,64.922,41.435ZM61.907,33.62a.314.314,0,0,0-.223.092l-1.453,1.452a.316.316,0,0,0,0,.447L64.7,40.079a.317.317,0,0,0,.447,0L66.6,38.627a.316.316,0,0,0,0-.447L62.13,33.712A.315.315,0,0,0,61.907,33.62Zm5.138,5.454h0Z" transform="translate(-58.876 -32.356)"/></g><g transform="translate(4.877 13.253)"><path class="q" d="M38.405,67.952a1.568,1.568,0,0,1-1.117-.463L32.82,63.021a1.582,1.582,0,0,1,0-2.234l1.453-1.452a1.58,1.58,0,0,1,2.234,0L40.974,63.8a1.579,1.579,0,0,1,0,2.234l-1.452,1.452a1.567,1.567,0,0,1-1.117.463Zm-3.016-7.815a.315.315,0,0,0-.223.093l-1.452,1.452a.317.317,0,0,0,0,.447L38.182,66.6a.316.316,0,0,0,.446,0l1.453-1.452a.316.316,0,0,0,0-.447l-4.468-4.468A.315.315,0,0,0,35.389,60.137Z" transform="translate(-32.359 -58.873)"/></g><g transform="translate(0 0)"><path class="q" d="M27.547,44.709a.632.632,0,0,1-.447-.185l-9.531-9.531a2.211,2.211,0,0,1,0-3.128l14.3-14.3a2.211,2.211,0,0,1,3.127,0L44.524,27.1a.632.632,0,0,1,0,.893L27.993,44.524a.632.632,0,0,1-.447.185Zm5.882-26.524a.942.942,0,0,0-.67.277l-14.3,14.3a.948.948,0,0,0,0,1.34l9.084,9.084L43.184,27.546,34.1,18.462a.942.942,0,0,0-.67-.277Z" transform="translate(-16.921 -16.921)"/></g><g transform="translate(9.1 9.101)"><path class="q" d="M48.89,67.841a.629.629,0,0,1-.447-.185l-2.532-2.532a.631.631,0,0,1,0-.893L64.229,45.913a.632.632,0,0,1,.893,0l2.532,2.532a.632.632,0,0,1,0,.893L49.337,67.656A.631.631,0,0,1,48.89,67.841Zm-1.638-3.164,1.639,1.638L66.314,48.891l-1.638-1.638Z" transform="translate(-45.726 -45.728)"/></g><g transform="translate(10.739 10.74)"><path class="q" d="M91.718,110.36a6.905,6.905,0,0,1-4.914-2.036L51.285,72.807a1.263,1.263,0,0,1,0-1.787L71.018,51.287a1.265,1.265,0,0,1,1.787,0l35.518,35.519a6.958,6.958,0,0,1,0,9.829l-11.69,11.69A6.9,6.9,0,0,1,91.718,110.36ZM71.911,52.181,52.179,71.913,87.7,107.431a5.693,5.693,0,0,0,8.042,0l11.69-11.69a5.693,5.693,0,0,0,0-8.042Zm19.807,54.7a3.451,3.451,0,0,1-2.457-1.017l-2.308-2.308a.632.632,0,0,1,0-.893l15.711-15.711a.632.632,0,0,1,.893,0l2.309,2.308a3.475,3.475,0,0,1,0,4.914l-11.691,11.69A3.451,3.451,0,0,1,91.718,106.884Zm13.254-13.6a2.214,2.214,0,0,0,0-3.127l-1.862-1.862L88.293,103.112l1.862,1.862a2.214,2.214,0,0,0,3.127,0Z" transform="translate(-50.915 -50.918)"/></g></g></g></svg>