<svg xmlns="http://www.w3.org/2000/svg" width="341.332" height="311.48" viewBox="0 0 341.332 311.48"><defs><style>.a{fill:#49e4ac;}.b{fill:#ffaf82;}.c{fill:#f88968;}.d{fill:#004080;}.e{fill:#050705;}.f{fill:#de9d01;}.g{fill:#bf8005;}.h,.o,.t{fill:#fff;}.i{fill:#2c2c2c;}.j{fill:#e2e2e2;}.k{fill:#32324c;}.l{fill:#92e3a9;}.m,.r,.s,.u{fill:none;}.m,.r,.t{stroke:#263238;}.m,.r,.s,.t,.u{stroke-linecap:round;stroke-linejoin:round;}.m,.s,.t,.u{stroke-width:1.103px;}.n{fill:#03e6b0;}.o{opacity:0.5;}.p,.s{opacity:0.2;}.q{fill:#263238;}.r{stroke-width:2.206px;}.s,.u{stroke:#fff;}.v{fill:#4671c6;}.w{fill:#e0ebfc;}.x{fill:#a4c9ff;}.y{fill:#f9a7a7;}.z{fill:#3762cc;}</style></defs><g transform="translate(-872 -4623.76)"><g transform="translate(872 4641.856)"><ellipse class="a" cx="155.833" cy="7.311" rx="155.833" ry="7.311" transform="translate(0 278.761)"/><g transform="translate(58.956 0)"><g transform="translate(54.444 54.961)"><g transform="translate(27.252 78.826)"><path class="b" d="M346,236.506a27.745,27.745,0,0,1,5.054,1.609c2.263,1.032,4.977,2.359,6.362,3.022,1.665.8.218,2.273-2.144,1.3s-2.907-1.189-2.907-1.189,7.924,5.936,9.267,8.233c1.225,2.1-3.307-.958-7.2-3.276,0,0,6.657,7.062,6.247,8.661-.538,2.1-8.578-6.482-8.578-6.482s4.988,7.208,4.043,7.684c-1.054.531-7.061-6.223-7.061-6.223s2.989,5.254,2.25,5.347c-1.462.182-9.958-9.481-10.243-15.356C341.094,239.831,344.569,236.5,346,236.506Z" transform="translate(-341.094 -236.506)"/><path class="c" d="M355.218,246.278s-2.67,3.807-6.943,4.449C348.276,250.727,352.45,252.053,355.218,246.278Z" transform="translate(-342.599 -238.554)"/><path class="c" d="M349.995,244.62s-5.032-2.047-3.1-6.437C346.891,238.183,343.13,242.424,349.995,244.62Z" transform="translate(-342.093 -236.857)"/></g><path class="d" d="M321.233,182.978c-3.834-32.99-11.3-46.2-11.3-46.2-6.752,27.621-1.481,42.641.788,49.845s23.145,33.168,23.145,33.168a11.064,11.064,0,0,1,5.835-3.968s-6.614-11.662-8.957-16.029S321.233,182.978,321.233,182.978Z" transform="translate(-306.617 -136.782)"/></g><g transform="translate(14.345 136.238)"><g transform="translate(29.895 3.984)"><path class="e" d="M316.957,314.283l-5.3,63.983h-9.334c-2.159-24.935-5.645-46.782-1.717-63.983-3.958-19.39-6.9-63.4-6.9-63.4,7.123-3.261,18.545-6.234,18.545-6.234C316.043,266.166,316.957,314.283,316.957,314.283Z" transform="translate(-293.709 -244.645)"/><g transform="translate(6.272 123.456)"><path class="f" d="M335,426.076H304.471a2.829,2.829,0,0,1-2.82-3.044L302.892,407a17.886,17.886,0,0,1,3.049-1.007,3.092,3.092,0,0,0,2.264-2.053c.022-.076.042-.155.062-.233.7-3.085,5.15-4.067,5.971-1.051.107.39.2.768.278,1.133.02.09.04.183.056.27.132.648.227,1.245.294,1.767,0,.011,0,.022.006.033a17.161,17.161,0,0,1,.152,2.179q.606.771,1.172,1.514c.194.247.379.494.564.735.4.522.79,1.029,1.175,1.518.177.23.353.451.53.67.424.53.841,1.032,1.259,1.5.188.213.376.421.57.62a8.786,8.786,0,0,0,5.038,3.046c3.31.455,8.717.82,11.329,5.678a1.714,1.714,0,0,1,.132.308A1.883,1.883,0,0,1,335,426.076Z" transform="translate(-301.643 -400.831)"/><g transform="translate(0.026 22.796)"><path class="g" d="M335,432.119H304.478a2.826,2.826,0,0,1-2.8-2.449H336.8A1.883,1.883,0,0,1,335,432.119Z" transform="translate(-301.676 -429.67)"/></g><g transform="translate(10.702 8.721)"><g transform="translate(0.816)"><path class="h" d="M319.813,412.6a5.307,5.307,0,0,1-2.528,1.728q-.37.152-.808.295l-.263-.8c.289-.1.549-.191.785-.286,1.669-.673,2.126-1.335,2.25-1.675C319.442,412.111,319.627,412.358,319.813,412.6Z" transform="translate(-316.214 -411.864)"/></g><g transform="translate(0 1.413)"><ellipse class="h" cx="0.947" cy="0.947" rx="0.947" ry="0.947"/></g></g><g transform="translate(12.841 10.974)"><g transform="translate(0.66)"><path class="h" d="M322.044,415.384a5.964,5.964,0,0,1-2.09,1.315c-.292.126-.611.244-.967.362l-.263-.8c.33-.11.628-.219.892-.329a4.789,4.789,0,0,0,1.9-1.22C321.69,414.944,321.867,415.165,322.044,415.384Z" transform="translate(-318.723 -414.714)"/></g><g transform="translate(0 1.002)"><path class="h" d="M319.781,416.929a.947.947,0,1,1-.947-.947A.946.946,0,0,1,319.781,416.929Z" transform="translate(-317.888 -415.982)"/></g></g><g transform="translate(14.734 13.145)"><g transform="translate(0.649)"><path class="h" d="M324.372,418.081a6.092,6.092,0,0,1-2.025,1.259c-.295.126-.621.25-.982.367l-.261-.8c.334-.109.631-.221.9-.334a5.2,5.2,0,0,0,1.8-1.114C323.99,417.673,324.178,417.881,324.372,418.081Z" transform="translate(-321.104 -417.46)"/></g><g transform="translate(0 0.9)"><path class="h" d="M322.176,419.545a.947.947,0,1,1-.947-.946A.947.947,0,0,1,322.176,419.545Z" transform="translate(-320.283 -418.599)"/></g></g><g transform="translate(10.502 3.227)"><path class="h" d="M317.65,406.68a21.412,21.412,0,0,0-2.721.154l.017-1.529a6.871,6.871,0,0,1,2.409-.393C317.488,405.561,317.583,406.158,317.65,406.68Z" transform="translate(-314.929 -404.913)"/></g></g></g><g transform="translate(0 7.115)"><g transform="translate(2)"><path class="i" d="M281.289,251.709s-.241,25.4-3.846,63.4c-2.349,20.707-4.965,46.686-7.868,63.983h-9.347l-1.318-63.983s-2.139-39.375,2.509-66.507Z" transform="translate(-258.418 -248.606)"/></g><g transform="translate(0 122.156)"><path class="f" d="M277.232,424.428c-.27,5.379-17.085,3.525-19.775,1.912a3.811,3.811,0,0,1-1.554-3.281,25.6,25.6,0,0,1,1.293-7.616c1.076-3.789.928-3.72,1.676-6.309,0,0-.194-4.211,5.317-5.82s7.531,8.878,8.472,10.895c.86,1.847,4.208,4.376,4.555,8.923A10.346,10.346,0,0,1,277.232,424.428Z" transform="translate(-255.888 -403.146)"/><g transform="translate(4.868 6.731)"><path class="h" d="M262.487,414.322l-.441-.676c.206-.134,5.068-3.252,9.3-1.4l-.324.739C267.185,411.307,262.534,414.291,262.487,414.322Z" transform="translate(-262.046 -411.662)"/></g><g transform="translate(5.347 11.412)"><path class="h" d="M263.093,420.244l-.44-.677c.2-.134,5.068-3.251,9.3-1.4l-.324.739C267.791,417.227,263.14,420.213,263.093,420.244Z" transform="translate(-262.653 -417.583)"/></g><g transform="translate(5.108 9.072)"><path class="h" d="M262.79,417.283l-.44-.677c.2-.133,5.068-3.251,9.3-1.4l-.324.738C267.488,414.267,262.837,417.252,262.79,417.283Z" transform="translate(-262.35 -414.623)"/></g><g transform="translate(4.132 8.272)"><path class="h" d="M262.931,414.518a.907.907,0,1,1-.907-.907A.908.908,0,0,1,262.931,414.518Z" transform="translate(-261.116 -413.611)"/></g><g transform="translate(4.181 10.49)"><path class="h" d="M262.992,417.324a.907.907,0,1,1-.907-.907A.907.907,0,0,1,262.992,417.324Z" transform="translate(-261.177 -416.417)"/></g><g transform="translate(4.66 12.708)"><path class="h" d="M263.6,420.13a.907.907,0,1,1-.907-.907A.907.907,0,0,1,263.6,420.13Z" transform="translate(-261.784 -419.223)"/></g><g transform="translate(13.577 11.397)"><path class="h" d="M274.88,418.472a.908.908,0,1,1-.908-.907A.908.908,0,0,1,274.88,418.472Z" transform="translate(-273.064 -417.565)"/></g><g transform="translate(13.337 8.977)"><path class="h" d="M274.576,415.41a.907.907,0,1,1-.907-.907A.908.908,0,0,1,274.576,415.41Z" transform="translate(-272.761 -414.503)"/></g><g transform="translate(13.097 6.557)"><path class="h" d="M274.273,412.348a.908.908,0,1,1-.907-.907A.907.907,0,0,1,274.273,412.348Z" transform="translate(-272.457 -411.441)"/></g><g transform="translate(0.015 19.913)"><path class="g" d="M277.236,429.707c-.27,5.379-17.086,3.525-19.775,1.912a3.811,3.811,0,0,1-1.554-3.281,19.757,19.757,0,0,0,9.531,2.348c5.7.1,9.818-1.051,11.782-2.275A10.347,10.347,0,0,1,277.236,429.707Z" transform="translate(-255.907 -428.338)"/></g><g transform="translate(5.947 1.803)"><path class="h" d="M268.143,405.453a8.969,8.969,0,0,0-4.731.941l.247,1.7a18.584,18.584,0,0,1,5.065-.761A4,4,0,0,0,268.143,405.453Z" transform="translate(-263.412 -405.428)"/></g></g></g><g transform="translate(3.185)"><path class="i" d="M263.052,240.065s-3.165,11.194-3.134,21.173c0,0,15.494,6.78,35.206-.712a15.878,15.878,0,0,0,9.266-20.171c-.034-.1-.069-.193-.1-.289C304.286,240.065,279.08,239.03,263.052,240.065Z" transform="translate(-259.918 -239.605)"/></g></g><g transform="translate(10.336 51.257)"><path class="d" d="M307.969,223.995a80.907,80.907,0,0,1-10.084,3.934q-1.4.439-2.816.82a62.226,62.226,0,0,1-15.316,2.23,46.285,46.285,0,0,1-25.357-6.788l5.468-32.5-9.048-52.848,13.536-4.638.726-.249,1.333-.456.564-.194,1.142-.39,2.411-.827,14.319,1.915.862.115,1.468.2.82.111,10.243,1.367Z" transform="translate(-250.816 -132.095)"/><path class="h" d="M299.353,228.749a62.226,62.226,0,0,1-15.316,2.23q.345-2.185.567-4.522.115-1.163.194-2.358.162-2.345.22-4.805.028-1.163.032-2.35.01-2.351-.059-4.782-.036-1.166-.085-2.343-.1-2.358-.271-4.77-.079-1.163-.176-2.334-.189-2.364-.435-4.758c-.079-.775-.162-1.556-.249-2.333q-.262-2.371-.573-4.751c-.1-.777-.2-1.557-.311-2.334q-.325-2.377-.688-4.746-.179-1.17-.367-2.335-.379-2.39-.792-4.75-.2-1.173-.411-2.337-.432-2.4-.884-4.752-.224-1.173-.454-2.337c-.32-1.613-.643-3.2-.97-4.763q-.245-1.185-.5-2.345-.524-2.444-1.048-4.769-.266-1.193-.535-2.35-.568-2.479-1.125-4.784c-.191-.8-.383-1.591-.573-2.358-.415-1.7-.82-3.3-1.205-4.8q-.317-1.231-.613-2.367c-.547-2.083-1.043-3.911-1.468-5.436l1.142-.39,2.411-.827,14.319,1.915.862.115q.387,2.026.756,4.061c.141.769.277,1.537.413,2.309q.406,2.313.79,4.633.194,1.157.379,2.314.375,2.319.725,4.633.175,1.16.345,2.315.341,2.323.662,4.633c.109.775.213,1.551.318,2.325q.313,2.329.6,4.637.147,1.169.29,2.329.283,2.338.549,4.641.134,1.173.262,2.334.262,2.349.5,4.65c.081.784.162,1.563.236,2.339q.24,2.358.447,4.657.109,1.186.213,2.347.211,2.375.394,4.664c.066.794.128,1.578.187,2.356q.183,2.393.339,4.673c.057.8.108,1.585.16,2.36q.157,2.422.281,4.691c.047.8.088,1.594.128,2.367.083,1.643.153,3.215.211,4.706.034.816.062,1.61.087,2.378.055,1.7.094,3.28.118,4.726.013.844.021,1.643.021,2.393C299.415,226.21,299.4,227.605,299.353,228.749Z" transform="translate(-255.1 -132.095)"/><g transform="translate(17.629 6.09)"><path class="j" d="M291.554,142.109a97.885,97.885,0,0,1-12.464.724q-2.587,0-5.359-.1-.317-1.231-.613-2.367a108.65,108.65,0,0,0,18.023-.562C291.282,140.569,291.418,141.337,291.554,142.109Z" transform="translate(-273.118 -139.8)"/><g transform="translate(1.819 6.942)"><path class="j" d="M293.206,150.9a98.4,98.4,0,0,1-13.784.873q-1.678,0-3.43-.043c-.191-.8-.383-1.591-.573-2.358a104.336,104.336,0,0,0,17.408-.786Q293.021,149.739,293.206,150.9Z" transform="translate(-275.419 -148.582)"/></g><g transform="translate(3.517 13.888)"><path class="j" d="M294.725,159.685a98.685,98.685,0,0,1-15.03,1.024c-.526,0-1.056,0-1.593-.008q-.266-1.193-.535-2.35a100.852,100.852,0,0,0,16.814-.982Q294.556,158.53,294.725,159.685Z" transform="translate(-277.567 -157.37)"/></g><g transform="translate(5.1 20.836)"><path class="j" d="M296.125,168.485a99.427,99.427,0,0,1-16.06,1.173q-.245-1.185-.5-2.345a97.215,97.215,0,0,0,16.237-1.152C295.916,166.935,296.021,167.711,296.125,168.485Z" transform="translate(-279.57 -166.16)"/></g><g transform="translate(6.565 27.798)"><path class="j" d="M297.408,177.3a96.857,96.857,0,0,1-15.531,1.307q-.224-1.173-.454-2.337a95.361,95.361,0,0,0,15.694-1.3Q297.265,176.136,297.408,177.3Z" transform="translate(-281.424 -174.967)"/></g><g transform="translate(7.903 34.768)"><path class="j" d="M298.574,186.119a95.2,95.2,0,0,1-15.047,1.421q-.2-1.173-.411-2.337a92.9,92.9,0,0,0,15.2-1.418Q298.446,184.958,298.574,186.119Z" transform="translate(-283.116 -183.785)"/></g><g transform="translate(9.106 41.752)"><path class="j" d="M299.628,194.96A94.019,94.019,0,0,1,285,196.477q-.179-1.17-.367-2.335a91.812,91.812,0,0,0,14.754-1.521C299.472,193.405,299.554,194.185,299.628,194.96Z" transform="translate(-284.638 -192.621)"/></g><g transform="translate(10.16 48.748)"><path class="j" d="M300.568,203.818a93.437,93.437,0,0,1-14.284,1.594c-.1-.777-.2-1.557-.311-2.334a91,91,0,0,0,14.383-1.606Q300.464,202.657,300.568,203.818Z" transform="translate(-285.972 -201.471)"/></g><g transform="translate(11.045 55.758)"><path class="j" d="M301.384,212.7a93.159,93.159,0,0,1-14.044,1.658c-.079-.775-.162-1.556-.249-2.333a90.314,90.314,0,0,0,14.105-1.68C301.262,211.134,301.325,211.918,301.384,212.7Z" transform="translate(-287.091 -210.34)"/></g><g transform="translate(11.729 62.787)"><path class="j" d="M302.064,221.592a93.229,93.229,0,0,1-13.932,1.717q-.079-1.163-.176-2.334a90.4,90.4,0,0,0,13.948-1.743C301.961,220.031,302.012,220.817,302.064,221.592Z" transform="translate(-287.956 -219.232)"/></g><g transform="translate(12.176 69.838)"><path class="j" d="M302.591,230.519a94.49,94.49,0,0,1-13.984,1.772q-.036-1.165-.085-2.343a91.436,91.436,0,0,0,13.941-1.8C302.51,228.955,302.551,229.746,302.591,230.519Z" transform="translate(-288.522 -228.152)"/></g><g transform="translate(12.289 76.91)"><path class="j" d="M302.919,239.477a96.763,96.763,0,0,1-14.254,1.821q.028-1.163.032-2.35a92.6,92.6,0,0,0,14.136-1.849C302.866,237.915,302.894,238.709,302.919,239.477Z" transform="translate(-288.665 -237.099)"/></g><g transform="translate(11.876 84.013)"><path class="j" d="M302.949,248.479a100.24,100.24,0,0,1-14.807,1.865q.115-1.163.194-2.358a95.5,95.5,0,0,0,14.592-1.9C302.94,246.93,302.949,247.729,302.949,248.479Z" transform="translate(-288.142 -246.086)"/></g></g></g><g transform="translate(22.641)"><g transform="translate(34.194 12.742)"><path class="k" d="M312.452,83.37s3.628,2.392,2.328,8.89-3.812,7.191-3.812,7.191S307.162,85.063,312.452,83.37Z" transform="translate(-309.643 -83.37)"/></g><g transform="translate(6.397 40.906)"><path class="b" d="M288.4,121.2l-.46,8.217-.21,3.766c-4.732,3.5-12.429-1.318-12.429-1.318l-.823-12.179c2.19-1.476,7.833-.247,11.225.693C287.3,120.823,288.4,121.2,288.4,121.2Z" transform="translate(-274.477 -119)"/></g><g transform="translate(9.647 42.284)"><path class="c" d="M289.261,121.565l-.46,8.217c-5.558-1.284-10.213-8.987-10.213-8.987l7.976-.052C288.162,121.188,289.261,121.565,289.261,121.565Z" transform="translate(-278.588 -120.744)"/></g><path class="k" d="M302.656,83.3s8.864-4.125,6.265-11.4-13.2-3.931-22.74-3.569c-15.356.584-20.166,8.572-19.776,16.889s.3,19.468,4.071,23.627,6.344-1.72,8.293-6.923S292.752,80.8,302.656,83.3Z" transform="translate(-266.384 -67.25)"/><g transform="translate(2.846 8.63)"><path class="b" d="M304.212,92.666c-.006.281-.01.567-.018.855a128.714,128.714,0,0,1-1.923,16.544,9.756,9.756,0,0,1-11.541,7.912c-6.488-1.311-14.488-3.3-18.138-5.7a3.939,3.939,0,0,1-1.955-2.292,53.868,53.868,0,0,1-.59-7.164C269.789,94.45,270.4,84,270.4,84c7.8-9.685,29.53-5.906,32.839,1.179C304,86.8,304.258,89.49,304.212,92.666Z" transform="translate(-269.984 -78.168)"/></g><g transform="translate(22.024 25.834)"><path class="k" d="M296.414,101.9c0,1.088-.485,1.971-1.084,1.971s-1.083-.882-1.083-1.971.485-1.971,1.083-1.971S296.414,100.816,296.414,101.9Z" transform="translate(-294.247 -99.933)"/></g><g transform="translate(33.111 25.834)"><path class="k" d="M310.44,101.9c0,1.088-.485,1.971-1.083,1.971s-1.084-.882-1.084-1.971.485-1.971,1.084-1.971S310.44,100.816,310.44,101.9Z" transform="translate(-308.273 -99.933)"/></g><g transform="translate(1.847 5.369)"><path class="k" d="M269.744,94.285s3.472-2.261,6.4,1.775h2.274s-.13-4.672.975-7.206,5.459-2.469,6.109-5.459c0,0,10.279,4.09,17.648,1.33s-14.724-15.041-25.381-9.063S268.092,86.331,269.744,94.285Z" transform="translate(-268.721 -74.042)"/></g><g transform="translate(18.413 22.184)"><path class="k" d="M289.678,98.206a5.469,5.469,0,0,1,3.043-2.677,5.11,5.11,0,0,1,3.839.344.663.663,0,0,1,.3.816h0a.666.666,0,0,1-.907.372A5.57,5.57,0,0,0,289.678,98.206Z" transform="translate(-289.678 -95.315)"/></g><g transform="translate(31.459 22.185)"><path class="k" d="M311.8,96.26c-.006.281-.01.567-.018.855a5.324,5.324,0,0,0-4.648-.055.687.687,0,0,1-.283.062.668.668,0,0,1-.325-1.25,5.114,5.114,0,0,1,3.839-.343A4.043,4.043,0,0,1,311.8,96.26Z" transform="translate(-306.183 -95.316)"/></g><g transform="translate(2.909 33.286)"><path class="k" d="M272.608,118.817a3.939,3.939,0,0,1-1.955-2.292,53.878,53.878,0,0,1-.59-7.164L275.8,113.3S275.875,117.387,272.608,118.817Z" transform="translate(-270.064 -109.361)"/></g><g transform="translate(1.468 24.851)"><path class="b" d="M276.04,101.225s-3.482-4.219-6.4-1.775c-3.211,2.694-.751,11.825,5.775,11.618Z" transform="translate(-268.241 -98.689)"/><g transform="translate(2.938 3.399)"><path class="c" d="M276.357,109.989a.574.574,0,0,1-.57-.509c-.531-4.619-3.272-5.33-3.388-5.358a.574.574,0,0,1,.255-1.119c.149.032,3.645.873,4.274,6.347a.574.574,0,0,1-.505.636A.607.607,0,0,1,276.357,109.989Z" transform="translate(-271.957 -102.988)"/></g><g transform="translate(3.099 5.546)"><path class="c" d="M272.735,107.629a.573.573,0,0,1-.43-.952,3.257,3.257,0,0,1,3.068-.888.574.574,0,1,1-.247,1.122,2.1,2.1,0,0,0-1.965.531A.576.576,0,0,1,272.735,107.629Z" transform="translate(-272.161 -105.706)"/></g></g><g transform="translate(21.451 34.986)"><path class="c" d="M301.64,115.922a10.291,10.291,0,0,1-7.979-3.46.574.574,0,0,1,.867-.753c3.758,4.318,9.645,2.784,9.7,2.768a.574.574,0,0,1,.3,1.107A11.782,11.782,0,0,1,301.64,115.922Z" transform="translate(-293.521 -111.511)"/></g><g transform="translate(22.534 39.253)"><path class="c" d="M299.477,119.83a5.666,5.666,0,0,1-4.474-2,.575.575,0,0,1,.922-.685,4.723,4.723,0,0,0,4.579,1.454.574.574,0,1,1,.188,1.133A7.361,7.361,0,0,1,299.477,119.83Z" transform="translate(-294.891 -116.909)"/></g><g transform="translate(28.252 26.813)"><path class="c" d="M303.285,108.5a.574.574,0,0,1-.349-1.031l1.531-1.168-1.327-.344a.574.574,0,0,1-.422-.466l-.586-3.655a.574.574,0,0,1,1.134-.181l.526,3.284,2.107.546a.575.575,0,0,1,.2,1.013l-2.469,1.884A.57.57,0,0,1,303.285,108.5Z" transform="translate(-302.125 -101.171)"/></g></g><g transform="translate(13.927 146.339)"><path class="b" d="M261.552,252.385s2.55.817,3.318,2.3c0,0,0,9.441-4.756,13.559,0,0-2.337-5.68-4.755-11.122Z" transform="translate(-255.359 -252.385)"/></g><path class="d" d="M248.076,140.638s-9.495,29.681-10.336,44.946c0,0,0,28.552,13.927,48.127l6.193-4.743s-7.806-28.4-7.806-39.48c0,0,7.9-20.571,9.2-28.676C259.254,160.812,253.94,140.638,248.076,140.638Z" transform="translate(-237.74 -82.629)"/></g></g><g transform="translate(1035.072 4623.76)"><g transform="translate(0 0)"><path class="l" d="M155.236,298.762s-31.79,9.118-36.229,10.69c-4.038,1.426-14.982,5.26-23.194,4.075a17.959,17.959,0,0,1-2.346-.508c-8.319-2.479-12.056-4.788-13.144-10.025s3.047-9.081,7.038-11.549S113,286.4,113,286.4l5.223,1.536h.012Z" transform="translate(-80.144 -43.81)"/><path class="h" d="M95.813,313.527a17.959,17.959,0,0,1-2.346-.508c-8.319-2.479-12.056-4.788-13.144-10.025s3.047-9.081,7.038-11.549S113,286.4,113,286.4l5.223,1.536c-4.728,2.176-22.358,3.385-26.2,5.6s-5.708,6.384-3.434,12.02C89.792,308.556,93.032,311.459,95.813,313.527Z" transform="translate(-80.144 -43.81)"/><path class="m" d="M150.438,299.944S126.562,306.13,117.1,310.09s-27.53,5.692-33.964-2.474-.742-15.191,5.692-16.751,19.444-4.035,26.548-3.045" transform="translate(-80.128 -43.695)"/><path class="m" d="M95.659,312.958s-12.147-6.661-8.113-16c2.976-6.89,19.183-5.4,27.207-9.162" transform="translate(-79.511 -43.675)"/><path class="l" d="M242.787,315.056c-.327,3.253-1.476,6.372-4.764,8.307-2.189,1.295-5.309,2.069-9.772,2.02-11.149-.146-32.1-8.114-32.1-8.114l-19.626-10.847,10.206-16.156,2.793-4.425,7.22,1.62s5.973,3.386,11.983,6.083,20.594,3.265,25.733,7.425S243.343,309.639,242.787,315.056Z" transform="translate(-70.87 -43.864)"/><path class="h" d="M241.892,315.056c-.327,3.253-1.475,6.372-4.764,8.307a14.7,14.7,0,0,0-.557-9.795c-2.176-4.922-9.323-9.263-18.707-9.988s-16.566-5.116-20.327-7.075c-2.939-1.524-9.129-4.849-11.705-6.24l2.793-4.425,7.22,1.62s5.973,3.386,11.983,6.083,20.594,3.265,25.733,7.425S242.447,309.639,241.892,315.056Z" transform="translate(-69.975 -43.864)"/><path class="m" d="M180.666,308.891c13.971,8,29.951,13.766,45.936,15.692,3.569.43,7.724.489,10.116-2.195a7.478,7.478,0,0,0,1.648-5.607c-.433-5.038-4.669-9.033-9.315-11.03s-9.776-2.473-14.71-3.579A58.158,58.158,0,0,1,200.194,297c-3.546-1.852-6.981-4.1-10.9-4.927s-8.577.176-10.664,3.589" transform="translate(-70.667 -43.291)"/><path class="m" d="M234.522,324.187c3.612-1.854,6.577-5.259,7.179-9.274.711-4.749-1.993-9.522-5.8-12.443s-8.572-4.293-13.274-5.271-9.51-1.634-13.983-3.381c-6.877-2.687-13.659-7.995-20.8-6.1" transform="translate(-69.781 -43.722)"/><path class="n" d="M211.119,154.827l-33.207-12.636-.411-.157s.122-.884.218-2.165c.205-2.648.315-6.965-.932-8.429-1.849-2.164-7.1-.351-12.213-2.7s-14.583,1.85-14.583,1.85-6.833-1.257-9.844,3.677c-1.536,3.978-1,9.9-1,9.9s-.218.084-.629.23c-3.954,1.474-25.478,9.577-30.038,12.83-5.031,3.567-10.593,40.147-12.383,50.884s-4.97,20.425-3.349,24.125,24.741,21.5,38.042,26.1,60.5,3.254,60.5,3.254.774-.206,2.14-.641c7.982-2.564,36.3-13.121,51.321-38.019C244.748,222.932,230.2,175.216,211.119,154.827ZM121.4,216.353c-2.442,1.73-1.137,8.441-1.137,8.441l-4.159-3.664,10.435-25.66,4.451,19.7S123.847,214.637,121.4,216.353Zm83.487,16.3c-1.149.593,3.3-11.742,1.185-14.535s-8.453-2.527-8.453-2.527l.544-3.374c.073-.375,3.761-19.288,3.761-19.288l1.245-1.486s12.915,22.14,15.224,29.94C218.4,221.384,204.323,232.654,204.892,232.654Z" transform="translate(-78.974 -59.048)"/><path class="b" d="M145.146,79.466l-17.137,18.2s-2.365,2.088-1.425,7.367,3.126,9.813,4.78,10.165a23.49,23.49,0,0,0,3.968.355s3.672,7.959,6.274,11.087c0,0,.907,12.284.423,15.7,0,0,6.157,5.378,11.956,6.062s14.761-8.2,14.761-8.2l2.221-10.878s5.257-7.98,5.617-10.106,2.761-1.58,3.942-2.628,3.916-5.734,4.366-10.164.483-9.516-4.661-8.022c-4.458-1.2-1.667-10.622-1.667-10.622l-7.834-6.912Z" transform="translate(-75.697 -63.721)"/><path class="o" d="M173.856,142.191a17.3,17.3,0,0,1-.882,1.983c-2.829,5.333-15.152,15.491-15.152,15.491L154.1,148.212l-2.044,11.452C147.942,157.875,135.4,147,135.4,147s-.424-1.015-.944-2.6c.411-.146.629-.23.629-.23s-.533-5.925,1-9.9c3.011-4.934,9.844-3.677,9.844-3.677s9.468-4.2,14.583-1.85,10.364.533,12.213,2.7.714,10.594.714,10.594Z" transform="translate(-74.918 -59.048)"/><path class="p" d="M204.113,153.788l-33.207-12.636L170.5,141s.122-.884.218-2.165l-.69,4.3-4.91,6.675a134.456,134.456,0,0,1,15.322,6.754,13.457,13.457,0,0,1,7.04,13.423l-6.121,52.342-2.5,29.723,7.569,7.86c7.982-2.564,36.3-13.121,51.321-38.019C237.742,221.893,223.195,174.177,204.113,153.788Zm-6.228,77.827c-1.149.593,3.3-11.742,1.185-14.535s-8.453-2.527-8.453-2.527l.544-3.374c.073-.375,3.761-19.288,3.761-19.288l1.245-1.486s12.915,22.14,15.224,29.94C211.392,220.345,197.317,231.615,197.885,231.615Z" transform="translate(-71.968 -58.009)"/><path class="p" d="M132.616,215.182l-5.164-17.256s-9.258-31.576-15.606-39.363l1.668,22.206s-5.446,26.529-10.489,34.413-6.131,9.843,0,9.843,21.041,11.887,21.041,11.887L122.918,227Zm-12.976,6.675-4.159-3.664,10.435-25.66,4.451,19.7s-7.147-.532-9.59,1.185S119.64,221.857,119.64,221.857Z" transform="translate(-78.346 -56.11)"/><path class="m" d="M140.267,122.5s.953,9.3,0,13.556" transform="translate(-74.359 -59.581)"/><path class="m" d="M165.89,134.5a39.9,39.9,0,0,1,1.036-8.889" transform="translate(-71.893 -59.281)"/><path class="m" d="M171.48,85.794s5.629,7.073,5.341,12.414-.721,11.692-.578,17.9-9.959,19.2-15.156,20.352-9.671,1.444-12.991-1.876-6.64-7.94-10.97-13.857-3.319-18.91-3.319-18.91" transform="translate(-74.99 -63.112)"/><path class="m" d="M155.85,104.926a29.229,29.229,0,0,0-.438,5.883,6.693,6.693,0,0,0,1.444,4.609c.622.635,1.526,1.142,1.644,2.023a2.137,2.137,0,0,1-1.157,1.916,16.3,16.3,0,0,0-2.029,1.2" transform="translate(-72.911 -61.271)"/><path class="m" d="M147.648,119.816s.651,4.2,6.278,5.073" transform="translate(-73.649 -59.839)"/><path class="q" d="M148.388,108.037c0,1.212-.524,2.2-1.171,2.2s-1.171-.983-1.171-2.2.524-2.2,1.171-2.2S148.388,106.824,148.388,108.037Z" transform="translate(-73.803 -61.183)"/><path class="q" d="M163.7,108.518c0,1.212-.524,2.2-1.171,2.2s-1.171-.983-1.171-2.2.524-2.195,1.171-2.195S163.7,107.305,163.7,108.518Z" transform="translate(-72.33 -61.137)"/><path class="r" d="M160.4,103.674s5.457-5.457,10.074.629" transform="translate(-72.421 -61.608)"/><path class="r" d="M150.656,103.723s-3.463-3.882-8.92,0" transform="translate(-74.217 -61.553)"/><path class="q" d="M140.69,127.609s3.342,9.213,10.807,11.826,17.376-10.948,17.376-10.948l-.517-1.763s-6.5,8.438-13.719,7S140.267,122.5,140.267,122.5Z" transform="translate(-74.359 -59.581)"/><path class="m" d="M135.312,113.664s-4.45,1.571-5.633-1.9-5.239-12.593-1.689-15.635,6.4,4.017,6.4,4.017" transform="translate(-75.677 -62.191)"/><path class="m" d="M172.5,115.453s4.135.832,5.319-2.635,5.239-12.593,1.689-15.635-6.4,4.017-6.4,4.017" transform="translate(-71.257 -62.09)"/><path class="q" d="M134.816,111.957a6.165,6.165,0,0,0,3.9-2.306,9.722,9.722,0,0,0,1.135-3.5,42.26,42.26,0,0,0,.619-7.053,9.457,9.457,0,0,1,.248-2.749A7.054,7.054,0,0,1,142.21,93.9c1.553-1.82,3.422-3.357,4.9-5.24s2.562-4.265,2.163-6.624a30.1,30.1,0,0,0,24.636,6.371c7.83-1.536,15.347-8.408,14.432-17.044a6.989,6.989,0,0,0-5.517-6.014c-3.872-.962-7.35,1.1-10.857,2.423-6.393,2.412-12.649-1.729-19.109-2.424-5.525-.594-12.306.091-15.183,5.584,0,0-9.924,1.165-14.271,9.316s3.916,19.434,3.916,19.434,3.326-4.025,7.6,4.124Z" transform="translate(-76.103 -65.103)"/><path class="q" d="M168.776,84.2s-2.566,13.373,4.131,19.847c0,0,1.466-4.02,2.951-5A15.5,15.5,0,0,0,174.685,84.2C169.785,76.415,168.776,84.2,168.776,84.2Z" transform="translate(-71.662 -63.599)"/><path class="s" d="M184.47,70.011c-.991,3.684-4.108,6.537-7.642,7.976-9.3,3.786-18.324-.413-27.631-1.235-7.607-.673-15.993,6.18-16.523,13.989" transform="translate(-75.089 -64.631)"/><path class="s" d="M127.408,88.3a16.25,16.25,0,0,1,9.9-14.341" transform="translate(-75.596 -64.251)"/><path class="m" d="M138.312,133.819a42.385,42.385,0,0,0,14.476,9.9s11.128-3.227,16.792-10.986" transform="translate(-74.547 -58.595)"/><ellipse class="m" cx="9.847" cy="9.847" rx="9.847" ry="9.847" transform="translate(57.963 42.008) rotate(-24.636)"/><ellipse class="m" cx="9.847" cy="9.847" rx="9.847" ry="9.847" transform="translate(82.044 38.28) rotate(-7.003)"/><path class="m" d="M140.771,130.374a7.72,7.72,0,0,0-4.737,3.672c-1.743,3.067-.692,12.727-.692,12.727s9,8.9,16.658,12.66l2.26-12.71,3.508,12.71s11.864-8.39,15.15-15.483c0,0,1.071-8.27,0-10.986a3.79,3.79,0,0,0-3.542-2.59" transform="translate(-74.863 -58.823)"/><path class="m" d="M128.127,210.822s-3.512-23.564-8.193-33.178" transform="translate(-76.315 -54.274)"/><path class="m" d="M110.7,158.563a95.48,95.48,0,0,1,7.278,12.18" transform="translate(-77.204 -56.11)"/><path class="m" d="M195.01,175.621a68.053,68.053,0,0,1,3.867-11.5" transform="translate(-69.092 -55.576)"/><path class="m" d="M188.378,210.5s2.537-16.154,5.557-29.467" transform="translate(-69.73 -53.949)"/><path class="m" d="M192.3,187.818a18.582,18.582,0,0,1,9.8-6.7" transform="translate(-69.352 -53.94)"/><path class="m" d="M170.027,140.8s20.432,8.161,33.619,12.8c0,0,16.224,15.258,33.618,68.1,0,0-15.945,26.815-46.26,35.41" transform="translate(-71.495 -57.819)"/><path class="m" d="M193.966,225.708l14.648-12.231s7.749-5.89,15.809-1.86" transform="translate(-69.192 -51.141)"/><path class="m" d="M193.447,185.881s12.117,17.848,15.217,29.937" transform="translate(-69.242 -53.482)"/><path class="m" d="M119.5,217.286l-4.287-4.087s-6.364-1.113-13.569,3.717" transform="translate(-78.075 -50.864)"/><path class="m" d="M114.023,215.518S119.347,198.027,124.6,189" transform="translate(-76.884 -53.182)"/><path class="m" d="M139.1,142.759S109.711,153.787,106.828,157,92.994,221.892,92.706,228.95c-.258,6.31,22.635,20.487,33.944,26.463" transform="translate(-78.935 -57.631)"/><rect class="t" width="47.811" height="33.968" rx="6.532" transform="translate(125.918 41.256)"/><path class="m" d="M209.889,112.058l-9.194,5.772,8.532,7.567" transform="translate(-68.545 -60.585)"/><path class="m" d="M224.476,125.894l8.262-7.041L223.2,112.6" transform="translate(-66.379 -60.533)"/><line class="m" y1="21.281" x2="6.787" transform="translate(145.814 48.412)"/><path class="q" d="M155.417,161.938a1.933,1.933,0,1,1-1.933-1.933A1.933,1.933,0,0,1,155.417,161.938Z" transform="translate(-73.273 -55.972)"/><g transform="translate(40.445 156.548)"><path class="q" d="M192.111,256.263H125.222a1.568,1.568,0,0,1-1.568-1.569h0a1.567,1.567,0,0,1,1.568-1.568h66.889a1.567,1.567,0,0,1,1.568,1.568h0A1.568,1.568,0,0,1,192.111,256.263Z" transform="translate(-116.403 -203.559)"/><path class="t" d="M195.088,255.416l8.964-42.094a4.478,4.478,0,0,0-4.38-5.412H121.52a4.479,4.479,0,0,0-4.395,5.346l8.036,40.694a4.479,4.479,0,0,0,4.292,3.61l61.15,1.4A4.478,4.478,0,0,0,195.088,255.416Z" transform="translate(-117.039 -207.91)"/><path class="q" d="M163.316,230.586a6.239,6.239,0,1,1-6.24-6.239A6.239,6.239,0,0,1,163.316,230.586Z" transform="translate(-113.787 -206.328)"/><line class="m" x2="9.285" transform="translate(61.792 3.994)"/><line class="m" x2="35.246" transform="translate(17.451 3.994)"/></g><path class="q" d="M198.357,296.943l-7.127,18.7s-18.167-4.58-41.445-9.35c-24.34-4.988-49.763-11.446-62.95-34.58-1.607-2.821-2.677-6.153-1.924-9.311,1.9-7.991,12.3-10.161,19.151-10.961a127.47,127.47,0,0,1,12.968-.729c2.207-.031,9.485-1.186,11.246.11a51.557,51.557,0,0,0,8.458,5.012c3.891,1.652,60.694-1.484,60.694-1.484a20.275,20.275,0,0,0,1.787-6.821c8.929-4.537,29.606-8.382,38.341-6.684,13.739,2.671,21.752,10.686,20.226,19.081S225.939,290.837,198.357,296.943Z" transform="translate(-79.709 -48.233)"/><path class="u" d="M195.068,294.857s-17.279-4.58-31.4-14.12-25.152-20.608-44.822-18.318" transform="translate(-76.42 -46.147)"/><path class="u" d="M156.772,279.664c8.919-2.566,15.465-8.335,22.622-13.876,7.58-5.869,15.6-11.552,24.219-15.914" transform="translate(-72.771 -47.324)"/><line class="m" x2="2.617" transform="translate(80.866 48.412)"/></g></g><g transform="translate(983.104 4643.501)"><g transform="translate(31.35 31.359)"><path class="v" d="M0,0H38.424V5.31H0Z" transform="translate(0 27.166) rotate(-45)"/></g><g transform="translate(17.858 17.858)"><path class="w" d="M58.263,33.744,33.744,58.263,19.607,44.126a2.343,2.343,0,0,1,0-3.313L40.812,19.607a2.343,2.343,0,0,1,3.313,0Z" transform="translate(-18.92 -18.92)"/></g><g transform="translate(37.516 25.091)"><path class="x" d="M72.052,43.382,69.9,45.536a1.406,1.406,0,0,1-1.988,0L61.284,38.91a1.406,1.406,0,0,1,0-1.988l2.154-2.154a1.406,1.406,0,0,1,1.988,0l6.627,6.627A1.405,1.405,0,0,1,72.052,43.382Z" transform="translate(-60.872 -34.356)"/></g><g transform="translate(25.091 37.516)"><path class="x" d="M45.536,69.9l-2.154,2.154a1.406,1.406,0,0,1-1.988,0l-6.627-6.627a1.406,1.406,0,0,1,0-1.988l2.154-2.154a1.406,1.406,0,0,1,1.988,0l6.627,6.627a1.406,1.406,0,0,1,0,1.988Z" transform="translate(-34.356 -60.872)"/></g><g transform="translate(33.788 33.788)"><path class="y" d="M136.467,105.873,83.784,53.191a.937.937,0,0,0-1.325,0L53.191,82.459a.937.937,0,0,0,0,1.325l52.683,52.683a9.372,9.372,0,0,0,13.253,0l17.34-17.34A9.371,9.371,0,0,0,136.467,105.873Zm-3.645,9.609-17.34,17.34a4.222,4.222,0,0,1-5.964,0l-3.424-3.424,23.3-23.3,3.424,3.424A4.217,4.217,0,0,1,132.822,115.482Z" transform="translate(-52.916 -52.916)"/></g><g transform="translate(55.054 55.056)"><path class="v" d="M136.536,131.467a3.584,3.584,0,0,0-4.318-.572l-5.82-5.82h0l-4.9-4.9-.048-10.11a3.727,3.727,0,0,0-1.1-2.632l-4.9-4.9.663-.663a.469.469,0,0,0,0-.663l-2.651-2.651a.468.468,0,0,0-.663,0l-2.651,2.651a.468.468,0,0,0,0,.663l2.651,2.651a.469.469,0,0,0,.663,0l.663-.663,4.9,4.9a1.863,1.863,0,0,1,.549,1.317l.039,8.218-16.636-16.636,1.238-1.238a.468.468,0,0,0-.215-.785L98.887,98.32a.468.468,0,0,0-.57.57l1.314,5.115a.469.469,0,0,0,.785.215l1.238-1.238L119.9,121.229h0l3.555,3.555-8.217-.039a1.863,1.863,0,0,1-1.317-.549l-5.037-5.038a2.343,2.343,0,1,0-1.325,1.325l5.037,5.038a3.728,3.728,0,0,0,2.633,1.1l10.11.048,5.552,5.551a3.585,3.585,0,1,0,5.644-.754Z" transform="translate(-98.301 -98.305)"/></g><g transform="translate(36.58 24.154)"><path class="z" d="M67.844,45.822a2.326,2.326,0,0,1-1.656-.686l-6.627-6.627a2.347,2.347,0,0,1,0-3.313l2.154-2.154a2.342,2.342,0,0,1,3.313,0l6.627,6.627a2.347,2.347,0,0,1,0,3.313h0L69.5,45.136A2.327,2.327,0,0,1,67.844,45.822ZM63.371,34.23a.466.466,0,0,0-.331.137l-2.155,2.154a.469.469,0,0,0,0,.663l6.627,6.627a.469.469,0,0,0,.663,0l2.154-2.154a.469.469,0,0,0,0-.663L63.7,34.368A.467.467,0,0,0,63.371,34.23Zm7.621,8.09h0Z" transform="translate(-58.876 -32.356)"/></g><g transform="translate(24.155 36.579)"><path class="z" d="M41.327,72.339a2.326,2.326,0,0,1-1.656-.686l-6.627-6.627a2.347,2.347,0,0,1,0-3.313L35.2,59.559a2.343,2.343,0,0,1,3.313,0l6.627,6.627a2.342,2.342,0,0,1,0,3.313l-2.154,2.154a2.325,2.325,0,0,1-1.656.687ZM36.854,60.747a.467.467,0,0,0-.331.137l-2.154,2.154a.469.469,0,0,0,0,.663L41,70.328a.468.468,0,0,0,.662,0l2.155-2.154a.468.468,0,0,0,0-.663l-6.627-6.628A.467.467,0,0,0,36.854,60.747Z" transform="translate(-32.359 -58.873)"/></g><g transform="translate(16.921 16.921)"><path class="z" d="M32.682,58.137a.937.937,0,0,1-.663-.275L17.882,43.726a3.28,3.28,0,0,1,0-4.639L39.088,17.882a3.28,3.28,0,0,1,4.638,0L57.863,32.019a.937.937,0,0,1,0,1.325L33.344,57.863a.937.937,0,0,1-.663.275ZM41.407,18.8a1.4,1.4,0,0,0-.994.411L19.207,40.412a1.406,1.406,0,0,0,0,1.988L32.682,55.875,55.875,32.681,42.4,19.207a1.4,1.4,0,0,0-.994-.411Z" transform="translate(-16.921 -16.921)"/></g><g transform="translate(30.418 30.42)"><path class="z" d="M50.419,78.527a.933.933,0,0,1-.663-.275L46,74.5a.937.937,0,0,1,0-1.325L73.17,46A.937.937,0,0,1,74.5,46l3.755,3.755a.937.937,0,0,1,0,1.325L51.081,78.253A.936.936,0,0,1,50.419,78.527Zm-2.43-4.693,2.431,2.43L76.263,50.42l-2.43-2.43Z" transform="translate(-45.726 -45.728)"/></g><g transform="translate(32.85 32.851)"><path class="z" d="M111.436,139.087a10.242,10.242,0,0,1-7.289-3.02L51.464,83.384a1.874,1.874,0,0,1,0-2.651L80.732,51.466a1.876,1.876,0,0,1,2.65,0l52.683,52.683a10.32,10.32,0,0,1,0,14.579l-17.34,17.34A10.238,10.238,0,0,1,111.436,139.087Zm-29.378-86.3L52.79,82.059l52.683,52.683a8.445,8.445,0,0,0,11.928,0l17.34-17.34a8.444,8.444,0,0,0,0-11.928Zm29.378,81.139a5.118,5.118,0,0,1-3.644-1.508L104.368,129a.937.937,0,0,1,0-1.325l23.3-23.3a.937.937,0,0,1,1.325,0l3.424,3.424a5.154,5.154,0,0,1,0,7.289l-17.34,17.34A5.118,5.118,0,0,1,111.436,133.93Zm19.66-20.173a3.284,3.284,0,0,0,0-4.638l-2.762-2.761-21.978,21.979,2.761,2.761a3.285,3.285,0,0,0,4.638,0Z" transform="translate(-50.915 -50.918)"/></g></g></g></svg>