<svg xmlns="http://www.w3.org/2000/svg" width="146.94" height="152.214" viewBox="0 0 146.94 152.214"><defs><style>.a{fill:#d9e8f3;}.b{fill:#604af3;}.c{fill:#867af4;}.d{fill:#b3d1e7;}.e{fill:#c79a83;}.f{fill:#6d7486;}.g{fill:#b8cfdd;}.h{fill:#a6c8dd;}.i{fill:#e2b5a1;}.j{fill:#b0b5ca;}.k{fill:#e75163;}.l{fill:#f77289;}.m{fill:#fb6771;}.n{fill:#ffa4ad;}.o{fill:#284268;}</style></defs><g transform="translate(-33 -24.993)"><path class="a" d="M63.044,31,39,53.861v125.4H153.323V31Z" transform="translate(-4.023 -4.028)"/><path class="b" d="M115.1,116.76A15.562,15.562,0,1,1,99.62,132.323,15.563,15.563,0,0,1,115.1,116.76Z" transform="translate(-44.671 -61.533)"/><path class="c" d="M128.509,137.08a8.867,8.867,0,1,1-8.9,8.869A8.867,8.867,0,0,1,128.509,137.08Z" transform="translate(-58.075 -75.159)"/><path class="d" d="M63.158,30.58v23H39.17v-.043Z" transform="translate(-4.137 -3.747)"/><path class="e" d="M355.134,179.57a10.932,10.932,0,0,1,10.879,11.986l-5.719,35.757H341.1l-5.719-35.757a10.934,10.934,0,0,1,10.882-11.986Z" transform="translate(-202.721 -103.65)"/><path class="f" d="M314,379h44.807v10.213H314Z" transform="translate(-188.421 -237.375)"/><path class="g" d="M39,81.264v125.4h9.884V71.866Z" transform="translate(-4.023 -31.43)"/><path class="h" d="M63.158,30.58v23H39.17v-.043Z" transform="translate(-4.137 -3.747)"/><path class="i" d="M345.261,191.556a10.933,10.933,0,0,1,10.378-11.972c-.167-.008-.335-.014-.5-.014h-8.876a10.934,10.934,0,0,0-10.882,11.986l5.694,35.6h9.884Z" transform="translate(-202.721 -103.65)"/><path class="j" d="M314,380h9.884v9.884H314Z" transform="translate(-188.421 -238.046)"/><path class="k" d="M291,356h59.962v7.907H291Z" transform="translate(-172.999 -221.953)"/><path class="l" d="M291,357h9.884v7.578H291Z" transform="translate(-172.999 -222.623)"/><path class="m" d="M344.913,324H297.032a5.989,5.989,0,0,0-5.683,3.983,5.566,5.566,0,0,0-.349,1.891v5h59.962v-5A5.96,5.96,0,0,0,344.913,324Z" transform="translate(-172.999 -200.495)"/><path class="n" d="M297.032,324a5.989,5.989,0,0,0-5.683,3.983,5.566,5.566,0,0,0-.349,1.891v5h9.884v-5a5.565,5.565,0,0,1,.349-1.891A5.989,5.989,0,0,1,306.916,324Z" transform="translate(-172.999 -200.495)"/><g transform="translate(33 24.993)"><path class="o" d="M35.033,177.207H149.284a1.878,1.878,0,0,0,1.993-1.838V153.815h19.175a1.979,1.979,0,0,0,1.911-2.043v-7.841h5.545a1.965,1.965,0,0,0,2.033-1.9V129.379a7.926,7.926,0,0,0-8.026-7.851H159.886l5.358-33.247c.007-.042.012-.113.016-.154a12.816,12.816,0,0,0-12.846-14.041h-1.137V26.834A1.878,1.878,0,0,0,149.284,25H59.021a1.916,1.916,0,0,0-1.367.479L33.638,48.4A1.928,1.928,0,0,0,33,49.79V175.368a1.912,1.912,0,0,0,2.033,1.838Zm140.954-37.229H141.5a1.977,1.977,0,0,0,0,3.954h26.906v5.93H127.556v-5.93h4.617a1.977,1.977,0,1,0,0-3.954H119.978v-3.624h56.009Zm-4.072-14.5a3.969,3.969,0,0,1,4.072,3.9V132.4H119.978v-3.021a3.619,3.619,0,0,1,.24-1.243,4,4,0,0,1,3.815-2.654Zm-19.5-47.443a8.784,8.784,0,0,1,6.628,2.866,8.6,8.6,0,0,1,2.288,6.709L155.889,121.2H140.058l-5.44-33.585a8.6,8.6,0,0,1,2.291-6.711,8.786,8.786,0,0,1,6.628-2.863ZM57.051,31.461V47.728H39.912Zm-20.1,20.22H59.021A1.878,1.878,0,0,0,61,49.833V28.949h86.319V74.085h-3.786a12.8,12.8,0,0,0-12.849,14.046c0,.042.009.126.016.167l.576,3.578H53.974a1.977,1.977,0,0,0,0,3.954h77.945l1.169,7.248H53.974a1.977,1.977,0,1,0,0,3.954h79.751l1.169,7.248H53.974a1.977,1.977,0,1,0,0,3.954h81.557l.531,3.295H124.034a7.986,7.986,0,0,0-6.922,3.954H53.974a1.977,1.977,0,1,0,0,3.954h62.051v7.248H53.974a1.977,1.977,0,1,0,0,3.954h62.051v1.39a1.951,1.951,0,0,0,2.016,1.9H123.6v7.841a1.966,1.966,0,0,0,1.894,2.043h21.827v19.438H36.954Z" transform="translate(-33 -24.993)"/><path class="o" d="M139.6,398H92.637a1.977,1.977,0,0,0,0,3.954H139.6a1.977,1.977,0,0,0,0-3.954Z" transform="translate(-71.663 -275.108)"/><path class="o" d="M111.081,145.836A17.539,17.539,0,1,0,93.62,128.3a17.539,17.539,0,0,0,17.461,17.537Zm0-31.124A13.586,13.586,0,1,1,97.574,128.3a13.586,13.586,0,0,1,13.508-13.587Z" transform="translate(-73.648 -82.501)"/><path class="o" d="M124.486,152.769a10.844,10.844,0,1,0-10.876-10.843A10.844,10.844,0,0,0,124.486,152.769Zm0-17.735a6.891,6.891,0,1,1-6.922,6.892A6.891,6.891,0,0,1,124.486,135.034Z" transform="translate(-87.052 -96.128)"/><path class="o" d="M363.458,272.135a1.977,1.977,0,0,0-1.634,2.268l.336,2.066a1.977,1.977,0,0,0,3.9-.635l-.336-2.066A1.977,1.977,0,0,0,363.458,272.135Z" transform="translate(-253.472 -190.694)"/><path class="o" d="M352.8,197.426a5.622,5.622,0,0,0-1.463,4.092,1.884,1.884,0,0,0,.023.212l2.372,14.694a1.977,1.977,0,1,0,3.9-.63l-2.352-14.57a1.712,1.712,0,0,1,1.709-1.7,1.977,1.977,0,1,0,0-3.954,5.6,5.6,0,0,0-4.191,1.857Z" transform="translate(-246.448 -139.371)"/></g></g></svg>