<svg xmlns="http://www.w3.org/2000/svg" width="70.179" height="70.183" viewBox="0 0 70.179 70.183"><defs><style>.a{fill:#4671c6;}.b{fill:#e0ebfc;}.c{fill:#a4c9ff;}.d{fill:#f9a7a7;}.e{fill:#3762cc;}</style></defs><g transform="translate(9.728 9.734)"><path class="a" d="M0,0H25.9V3.58H0Z" transform="translate(0 18.315) rotate(-45)"/></g><g transform="translate(0.632 0.632)"><path class="b" d="M45.445,28.914,28.914,45.445l-9.531-9.531a1.579,1.579,0,0,1,0-2.234l14.3-14.3a1.579,1.579,0,0,1,2.234,0Z" transform="translate(-18.92 -18.92)"/></g><g transform="translate(13.885 5.508)"><path class="c" d="M68.41,40.441l-1.452,1.452a.948.948,0,0,1-1.34,0L61.15,37.426a.948.948,0,0,1,0-1.34L62.6,34.634a.948.948,0,0,1,1.34,0L68.41,39.1A.947.947,0,0,1,68.41,40.441Z" transform="translate(-60.872 -34.356)"/></g><g transform="translate(5.508 13.885)"><path class="c" d="M41.894,66.958,40.442,68.41a.948.948,0,0,1-1.34,0l-4.468-4.468a.948.948,0,0,1,0-1.34l1.452-1.452a.948.948,0,0,1,1.34,0l4.468,4.468a.948.948,0,0,1,0,1.34Z" transform="translate(-34.356 -60.872)"/></g><g transform="translate(11.371 11.371)"><path class="d" d="M109.245,88.619,73.727,53.1a.632.632,0,0,0-.893,0L53.1,72.834a.632.632,0,0,0,0,.893l35.518,35.518a6.318,6.318,0,0,0,8.935,0l11.69-11.69A6.318,6.318,0,0,0,109.245,88.619ZM106.788,95.1,95.1,106.788a2.847,2.847,0,0,1-4.021,0l-2.308-2.308L104.48,88.768l2.308,2.308A2.843,2.843,0,0,1,106.788,95.1Z" transform="translate(-52.916 -52.916)"/></g><g transform="translate(25.709 25.71)"><path class="a" d="M124.079,120.662a2.417,2.417,0,0,0-2.911-.386l-3.924-3.924h0l-3.3-3.3-.033-6.816a2.513,2.513,0,0,0-.74-1.775l-3.3-3.3.447-.447a.316.316,0,0,0,0-.447l-1.787-1.787a.316.316,0,0,0-.447,0l-1.787,1.787a.316.316,0,0,0,0,.447l1.787,1.787a.316.316,0,0,0,.447,0l.447-.447,3.3,3.3a1.256,1.256,0,0,1,.37.888l.026,5.54-11.216-11.216.835-.835a.316.316,0,0,0-.145-.529L98.7,98.315a.316.316,0,0,0-.384.384l.886,3.449a.316.316,0,0,0,.529.145l.835-.835,12.3,12.3h0l2.4,2.4-5.54-.026a1.256,1.256,0,0,1-.888-.37l-3.4-3.4a1.58,1.58,0,1,0-.893.893l3.4,3.4a2.514,2.514,0,0,0,1.775.74l6.816.033,3.743,3.743a2.417,2.417,0,1,0,3.8-.508Z" transform="translate(-98.301 -98.305)"/></g><g transform="translate(13.254 4.876)"><path class="e" d="M64.922,41.435a1.568,1.568,0,0,1-1.117-.462L59.338,36.5a1.582,1.582,0,0,1,0-2.234l1.452-1.452a1.579,1.579,0,0,1,2.234,0l4.468,4.468a1.582,1.582,0,0,1,0,2.234h0l-1.452,1.452A1.569,1.569,0,0,1,64.922,41.435ZM61.907,33.62a.314.314,0,0,0-.223.092l-1.453,1.452a.316.316,0,0,0,0,.447L64.7,40.079a.317.317,0,0,0,.447,0L66.6,38.627a.316.316,0,0,0,0-.447L62.13,33.712A.315.315,0,0,0,61.907,33.62Zm5.138,5.454h0Z" transform="translate(-58.876 -32.356)"/></g><g transform="translate(4.877 13.253)"><path class="e" d="M38.405,67.952a1.568,1.568,0,0,1-1.117-.463L32.82,63.021a1.582,1.582,0,0,1,0-2.234l1.453-1.452a1.58,1.58,0,0,1,2.234,0L40.974,63.8a1.579,1.579,0,0,1,0,2.234l-1.452,1.452a1.567,1.567,0,0,1-1.117.463Zm-3.016-7.815a.315.315,0,0,0-.223.093l-1.452,1.452a.317.317,0,0,0,0,.447L38.182,66.6a.316.316,0,0,0,.446,0l1.453-1.452a.316.316,0,0,0,0-.447l-4.468-4.468A.315.315,0,0,0,35.389,60.137Z" transform="translate(-32.359 -58.873)"/></g><g transform="translate(0 0)"><path class="e" d="M27.547,44.709a.632.632,0,0,1-.447-.185l-9.531-9.531a2.211,2.211,0,0,1,0-3.128l14.3-14.3a2.211,2.211,0,0,1,3.127,0L44.524,27.1a.632.632,0,0,1,0,.893L27.993,44.524a.632.632,0,0,1-.447.185Zm5.882-26.524a.942.942,0,0,0-.67.277l-14.3,14.3a.948.948,0,0,0,0,1.34l9.084,9.084L43.184,27.546,34.1,18.462a.942.942,0,0,0-.67-.277Z" transform="translate(-16.921 -16.921)"/></g><g transform="translate(9.1 9.101)"><path class="e" d="M48.89,67.841a.629.629,0,0,1-.447-.185l-2.532-2.532a.631.631,0,0,1,0-.893L64.229,45.913a.632.632,0,0,1,.893,0l2.532,2.532a.632.632,0,0,1,0,.893L49.337,67.656A.631.631,0,0,1,48.89,67.841Zm-1.638-3.164,1.639,1.638L66.314,48.891l-1.638-1.638Z" transform="translate(-45.726 -45.728)"/></g><g transform="translate(10.739 10.74)"><path class="e" d="M91.718,110.36a6.905,6.905,0,0,1-4.914-2.036L51.285,72.807a1.263,1.263,0,0,1,0-1.787L71.018,51.287a1.265,1.265,0,0,1,1.787,0l35.518,35.519a6.958,6.958,0,0,1,0,9.829l-11.69,11.69A6.9,6.9,0,0,1,91.718,110.36ZM71.911,52.181,52.179,71.913,87.7,107.431a5.693,5.693,0,0,0,8.042,0l11.69-11.69a5.693,5.693,0,0,0,0-8.042Zm19.807,54.7a3.451,3.451,0,0,1-2.457-1.017l-2.308-2.308a.632.632,0,0,1,0-.893l15.711-15.711a.632.632,0,0,1,.893,0l2.309,2.308a3.475,3.475,0,0,1,0,4.914l-11.691,11.69A3.451,3.451,0,0,1,91.718,106.884Zm13.254-13.6a2.214,2.214,0,0,0,0-3.127l-1.862-1.862L88.293,103.112l1.862,1.862a2.214,2.214,0,0,0,3.127,0Z" transform="translate(-50.915 -50.918)"/></g></svg>