<svg xmlns="http://www.w3.org/2000/svg" xmlns:xlink="http://www.w3.org/1999/xlink" width="48.307" height="48.308" viewBox="0 0 48.307 48.308"><defs><style>.a{fill:url(#a);}.b{fill:#fff;}</style><linearGradient id="a" y1="-21.762" x2="1" y2="-21.762" gradientUnits="objectBoundingBox"><stop offset="0" stop-color="#00f38d"/><stop offset="1" stop-color="#009eff"/></linearGradient></defs><path class="a" d="M48.307,24.154A24.154,24.154,0,1,1,24.154,0,24.153,24.153,0,0,1,48.307,24.154Zm0,0"/><g transform="translate(8.35 8.35)"><path class="b" d="M117.277,290.758v8.67a1.025,1.025,0,0,1-1.023,1.023h-23.9a1.025,1.025,0,0,1-1.023-1.023v-8.67H88.5v8.67a3.858,3.858,0,0,0,3.854,3.854h23.9a3.858,3.858,0,0,0,3.854-3.854v-8.67Zm0,0" transform="translate(-88.5 -271.675)"/><path class="b" d="M188.462,104.791l-2-2-4.438,4.437V88.5h-2.831v18.727l-4.438-4.437-2,2,7.854,7.855Zm0,0" transform="translate(-164.805 -88.5)"/></g></svg>