<svg xmlns="http://www.w3.org/2000/svg" width="303.857" height="306.305" viewBox="0 0 303.857 306.305"><defs><style>.a{fill:#245097;}.b,.c{fill:#03e6b0;}.c{mix-blend-mode:screen;isolation:isolate;}.d{fill:#0a2a6b;}.e{fill:#ff8775;}.f{fill:#004080;}.g,.h,.i,.k,.l{fill:none;stroke-miterlimit:10;}.g,.h,.i,.k{stroke:#0a2a6b;}.g{stroke-width:1.509px;}.h{stroke-width:2px;}.i{stroke-width:4px;}.j{fill:#ff4648;}.k{stroke-width:1.5px;}.l{stroke:#55a3f3;}.m{opacity:0.47;}</style></defs><g transform="translate(-1043 -460.174)"><g transform="translate(12186.477 12072.406)"><ellipse class="a" cx="105.5" cy="107.5" rx="105.5" ry="107.5" transform="translate(-11143.477 -11595.406)"/><g transform="translate(-11140.877 -11590.455)"><g transform="translate(0 0)"><path class="b" d="M296.784,346.612c2.818-1.574,12.009-8.475,12.009-31.128a78.628,78.628,0,0,1,2.19-18.459,4.129,4.129,0,1,0-8.024-1.948,86.9,86.9,0,0,0-2.422,20.407c0,17.677-6.241,22.884-7.551,23.775-1.948.694-3.842,1.453-5.68,2.312q1.073,4.045,2.477,7.947a61.781,61.781,0,0,1,6.34-2.608A3.94,3.94,0,0,0,296.784,346.612Z" transform="translate(-283.84 -212.293)"/><path class="c" d="M290.564,347.108c-.529-1.563-1.022-3.157-1.473-4.764,1.332-.581,2.741-1.136,4.27-1.68a1.687,1.687,0,0,0,.375-.191c1.941-1.321,8.273-7.041,8.273-25.14a85.32,85.32,0,0,1,2.375-20.02,2.47,2.47,0,0,1,2.4-1.892,2.513,2.513,0,0,1,.59.071,2.483,2.483,0,0,1,1.823,2.993,80.253,80.253,0,0,0-2.237,18.848c0,21.761-8.544,28.224-11.162,29.687a2.359,2.359,0,0,1-.4.182C293.761,345.77,292.141,346.409,290.564,347.108Z" transform="translate(-283.66 -212.142)"/><path class="b" d="M342.153,323.765a4.129,4.129,0,0,0-8.211-.869c-3.8,35.586-27.077,44.072-27.958,44.391a36.008,36.008,0,0,0-5.867,2.454c1.563,2.312,3.225,4.568,4.986,6.747a27.681,27.681,0,0,1,3.489-1.376C309.781,374.695,337.805,364.5,342.153,323.765Z" transform="translate(-282.55 -209.545)"/><path class="c" d="M305.373,374.308q-1.554-1.978-3.035-4.082a35.524,35.524,0,0,1,3.926-1.517c2.631-.953,25.293-10.159,29.1-45.788a2.462,2.462,0,0,1,2.444-2.216,2.58,2.58,0,0,1,.276.015,2.461,2.461,0,0,1,2.207,2.719c-4.226,39.59-31.315,49.56-32.466,49.966C307.009,373.662,306.185,373.967,305.373,374.308Z" transform="translate(-282.326 -209.394)"/><path class="b" d="M345.362,361.243a4.129,4.129,0,0,0-6.9-4.535c-11.436,17.369-26.67,22.487-27.276,22.686-.363.11-.715.242-1.068.374,2.091,2.19,4.3,4.3,6.6,6.318A67.683,67.683,0,0,0,345.362,361.243Z" transform="translate(-281.543 -205.955)"/><path class="c" d="M316.743,383.991c-1.35-1.206-2.663-2.445-3.928-3.7,4.233-1.724,16.9-7.865,26.753-22.824a2.477,2.477,0,0,1,2.076-1.116,2.474,2.474,0,0,1,2.067,3.835A66.03,66.03,0,0,1,316.743,383.991Z" transform="translate(-281.271 -205.804)"/><path class="b" d="M302.992,366.19c3.819-1.541,22.884-11.04,22.884-46.714a61.668,61.668,0,0,1,43.522-59.13,4.127,4.127,0,0,0-2.455-7.881,69.888,69.888,0,0,0-49.323,67.011c0,30.478-15.355,38.073-17.611,39.02a51.487,51.487,0,0,0-7.452,3.148q1.7,3.764,3.732,7.353a44.082,44.082,0,0,1,6.45-2.708A2.424,2.424,0,0,0,302.992,366.19Z" transform="translate(-283.311 -216.285)"/><path class="c" d="M296.77,366.669c-.783-1.441-1.532-2.918-2.241-4.414a50.649,50.649,0,0,1,5.805-2.343c.039-.013.077-.027.114-.043,3.11-1.3,18.624-9.385,18.624-40.543a68.24,68.24,0,0,1,48.162-65.435,2.427,2.427,0,0,1,.736-.115,2.479,2.479,0,0,1,.734,4.844,63.308,63.308,0,0,0-44.68,60.705c0,34.612-18.2,43.711-21.851,45.184a1.3,1.3,0,0,0-.12.054l-.1.031A44.931,44.931,0,0,0,296.77,366.669Z" transform="translate(-283.112 -216.134)"/><path class="b" d="M369.535,351.542a112.108,112.108,0,0,0,4.722-19.8,4.127,4.127,0,1,0-8.167-1.189,103.93,103.93,0,0,1-4.37,18.327c-9.444,27.694-28.409,40.748-38.723,46.02,2.51,1.816,5.118,3.511,7.793,5.085C342.755,392.917,360.366,378.465,369.535,351.542Z" transform="translate(-280.246 -208.758)"/><path class="c" d="M330.5,397.91c-1.591-.957-3.146-1.951-4.647-2.973,10.939-6.127,28.213-19.492,37.143-45.676a105.691,105.691,0,0,0,4.44-18.62,2.491,2.491,0,0,1,2.445-2.123,2.315,2.315,0,0,1,.359.028,2.474,2.474,0,0,1,2.1,2.805,110.605,110.605,0,0,1-4.652,19.509C359.038,376.248,342.867,390.412,330.5,397.91Z" transform="translate(-279.958 -208.607)"/><path class="b" d="M390.675,313.706a4.128,4.128,0,1,0-8.255,0c0,34.32-10.578,61.849-31.414,81.838a94.416,94.416,0,0,1-13.319,10.644c2.939,1.4,5.955,2.642,9.048,3.753A104.157,104.157,0,0,0,356.4,401.8C372.04,386.936,390.675,359.583,390.675,313.706Z" transform="translate(-278.766 -210.514)"/><path class="c" d="M346.152,407.932c-1.853-.685-3.667-1.414-5.423-2.183a96.537,96.537,0,0,0,11.113-9.164c21.182-20.321,31.923-48.256,31.923-83.031a2.477,2.477,0,0,1,4.953,0c0,45.307-18.36,72.259-33.763,86.892A102.074,102.074,0,0,1,346.152,407.932Z" transform="translate(-278.46 -210.363)"/><path class="b" d="M391.355,363.75a4.135,4.135,0,0,0-5.449,2.1,112.989,112.989,0,0,1-25.525,36.51c-1.915,1.827-3.831,3.511-5.724,5.085a100.126,100.126,0,0,0,10.2,2.025c.407-.374.8-.749,1.211-1.134a121.087,121.087,0,0,0,27.386-39.152A4.119,4.119,0,0,0,391.355,363.75Z" transform="translate(-277.057 -205.095)"/><path class="c" d="M363.994,407.572c-2.065-.317-4.11-.7-6.113-1.133,1.146-1.006,2.243-2.011,3.314-3.03a114.66,114.66,0,0,0,25.9-37.04,2.489,2.489,0,0,1,2.272-1.473,2.472,2.472,0,0,1,2.26,3.47,119.465,119.465,0,0,1-27.013,38.626Z" transform="translate(-276.732 -204.944)"/><path class="b" d="M396.055,290.1a4.131,4.131,0,1,0,3.225-7.606,37.168,37.168,0,0,0-51.6,34.232,100.432,100.432,0,0,1-3.687,27.925,4.131,4.131,0,1,0,7.936,2.3,108.941,108.941,0,0,0,4.007-30.225,28.918,28.918,0,0,1,28.893-28.894A28.624,28.624,0,0,1,396.055,290.1Z" transform="translate(-278.148 -213.536)"/><path class="c" d="M347.814,348.133a2.549,2.549,0,0,1-.7-.1,2.493,2.493,0,0,1-1.682-3.076,102.021,102.021,0,0,0,3.751-28.38,35.517,35.517,0,0,1,49.308-32.711,2.5,2.5,0,0,1,1.309,3.257,2.472,2.472,0,0,1-2.279,1.506h0a2.488,2.488,0,0,1-.969-.2,30.21,30.21,0,0,0-11.871-2.4,30.579,30.579,0,0,0-30.544,30.545,107.285,107.285,0,0,1-3.942,29.766A2.5,2.5,0,0,1,347.814,348.133Z" transform="translate(-277.996 -213.385)"/><path class="b" d="M395.126,356.922a3.815,3.815,0,0,0,.991.121,4.122,4.122,0,0,0,4.007-3.137,162.224,162.224,0,0,0,4.48-38.69,20.638,20.638,0,0,0-41.276,0,4.128,4.128,0,1,0,8.255,0,12.383,12.383,0,1,1,24.766,0,154.189,154.189,0,0,1-4.237,36.709A4.116,4.116,0,0,0,395.126,356.922Z" transform="translate(-276.184 -212.025)"/><path class="c" d="M395.966,355.241a2.2,2.2,0,0,1-.565-.065,2.467,2.467,0,0,1-1.84-3.005,155.8,155.8,0,0,0,4.286-37.106,14.034,14.034,0,0,0-28.068,0,2.476,2.476,0,1,1-4.953,0,18.987,18.987,0,0,1,37.974,0,160.555,160.555,0,0,1-4.432,38.3A2.467,2.467,0,0,1,395.966,355.241Z" transform="translate(-276.033 -211.874)"/><path class="b" d="M415.222,298.587a4.128,4.128,0,0,0-7.4,3.666,28.54,28.54,0,0,1,2.983,12.79c0,50.963-19.846,83.247-38.051,102.135,1.728.088,3.456.132,5.206.132,2.014,0,4.018-.055,6-.176,17.677-20.572,35.1-53.252,35.1-102.091A36.875,36.875,0,0,0,415.222,298.587Z" transform="translate(-275.234 -211.852)"/><path class="c" d="M377.625,415.507q-.755,0-1.512-.012c16.993-18.68,36.009-50.735,36.009-100.6a30.184,30.184,0,0,0-3.155-13.523,2.476,2.476,0,0,1,4.439-2.2,35.224,35.224,0,0,1,3.669,15.719c0,49.631-18.513,81.969-34.248,100.483C381.16,415.462,379.413,415.507,377.625,415.507Z" transform="translate(-274.897 -211.701)"/><path class="b" d="M419.646,365.88a4.142,4.142,0,0,0-5.273,2.51,147.97,147.97,0,0,1-21.926,40.616,98.235,98.235,0,0,0,12.1-2.707,157.248,157.248,0,0,0,17.611-35.146A4.129,4.129,0,0,0,419.646,365.88Z" transform="translate(-273.252 -204.868)"/><path class="c" d="M395.912,406.489a150.6,150.6,0,0,0,19.668-37.7,2.5,2.5,0,0,1,2.345-1.65,2.45,2.45,0,0,1,.818.142,2.489,2.489,0,0,1,1.507,3.166,156.208,156.208,0,0,1-17.092,34.277C400.758,405.408,398.336,406,395.912,406.489Z" transform="translate(-272.902 -204.717)"/><path class="b" d="M432.291,348.188a4.226,4.226,0,0,0,.528.033,4.138,4.138,0,0,0,4.095-3.6,208.309,208.309,0,0,0,1.651-26.384A53.663,53.663,0,0,0,332.2,308.111a4.125,4.125,0,0,0,8.1,1.563,45.41,45.41,0,0,1,90,8.564,199.812,199.812,0,0,1-1.585,25.327A4.121,4.121,0,0,0,432.291,348.188Z" transform="translate(-279.326 -215.046)"/><path class="c" d="M432.668,346.419a2.768,2.768,0,0,1-.318-.019,2.472,2.472,0,0,1-2.14-2.77,201.318,201.318,0,0,0,1.6-25.543,47.061,47.061,0,0,0-93.277-8.874,2.475,2.475,0,0,1-2.426,2,2.579,2.579,0,0,1-.476-.045,2.479,2.479,0,0,1-1.957-2.9,52.012,52.012,0,0,1,103.089,9.815,206.756,206.756,0,0,1-1.638,26.175A2.489,2.489,0,0,1,432.668,346.419Z" transform="translate(-279.175 -214.895)"/><path class="b" d="M431.609,273.832a70.216,70.216,0,0,0-42.256-23.489,4.127,4.127,0,1,0-1.266,8.156,62.344,62.344,0,0,1,52.35,61.177c0,40.286-10.468,71.194-24.018,94.342a101.115,101.115,0,0,0,12.9-6.516c11.282-22.8,19.372-51.722,19.372-87.825A70.124,70.124,0,0,0,431.609,273.832Z" transform="translate(-274.043 -216.485)"/><path class="c" d="M420.176,410.306c14.443-26.481,21.76-56.995,21.76-90.781a64.01,64.01,0,0,0-53.747-62.81,2.476,2.476,0,0,1,.368-4.922,2.6,2.6,0,0,1,.39.031,68.617,68.617,0,0,1,57.942,67.7c0,31.866-6.386,61.019-18.986,86.658C425.4,407.662,422.819,409.041,420.176,410.306Z" transform="translate(-273.892 -216.334)"/><path class="b" d="M450.643,278.98a4.147,4.147,0,0,0,3.478,1.893,4.064,4.064,0,0,0,2.235-.66,4.121,4.121,0,0,0,1.233-5.7,86.628,86.628,0,0,0-143.741-3.258,4.129,4.129,0,1,0,6.736,4.777,78.365,78.365,0,0,1,130.059,2.95Z" transform="translate(-281.244 -218.067)"/><path class="c" d="M453.97,279.073a2.486,2.486,0,0,1-2.092-1.141,80.016,80.016,0,0,0-132.792-3.006,2.486,2.486,0,0,1-2.025,1.044,2.445,2.445,0,0,1-1.429-.457,2.482,2.482,0,0,1-.589-3.455,84.978,84.978,0,0,1,141.007,3.2,2.487,2.487,0,0,1,.335,1.884,2.486,2.486,0,0,1-2.415,1.935Z" transform="translate(-281.093 -217.916)"/><path class="b" d="M389.1,219.611q-1.106-.033-2.213-.033h-.22A102.771,102.771,0,0,0,285.72,340.2c.308-.132.616-.264.924-.385a4.106,4.106,0,0,0,2.125-1.915c1.244-2.366,2.73-6.912,2.73-15.135a94.936,94.936,0,1,1,189.872,0,240.559,240.559,0,0,1-5.107,50.236,102.336,102.336,0,0,0,13.363-50.467v-.231A102.716,102.716,0,0,0,389.1,219.611Z" transform="translate(-284.157 -219.578)"/><path class="c" d="M479.906,361.416a249.528,249.528,0,0,0,2.964-38.8,96.587,96.587,0,0,0-193.174,0c0,7.88-1.381,12.163-2.54,14.366a2.46,2.46,0,0,1-.34.5,101.136,101.136,0,0,1,99.7-116.4h.217c.721,0,1.443.012,2.164.032a101.067,101.067,0,0,1,98.925,101.046v.231A101.387,101.387,0,0,1,479.906,361.416Z" transform="translate(-284.006 -219.427)"/><path class="b" d="M454.819,309.578a4.129,4.129,0,0,0-4.128,4.128c0,31.645-5.988,58.029-14.915,79.779A103.176,103.176,0,0,0,449.195,380.6a223.068,223.068,0,0,0,9.752-66.89A4.129,4.129,0,0,0,454.819,309.578Z" transform="translate(-268.888 -210.514)"/><path class="c" d="M439.344,387.806c8.391-22.694,12.639-47.638,12.639-74.251a2.477,2.477,0,0,1,4.953,0,222.738,222.738,0,0,1-9.574,66.068A101.753,101.753,0,0,1,439.344,387.806Z" transform="translate(-268.529 -210.363)"/></g></g></g><g transform="translate(1161.142 460.174)"><g transform="translate(0 183.55)"><path class="d" d="M203.5,453.411l21.454-76.166L242.716,447.5l-2.837,10.238A64.231,64.231,0,0,1,203.5,453.411Z" transform="translate(-190.377 -377.245)"/><path class="e" d="M206.338,500l13.124-46.589a64.231,64.231,0,0,0,36.378,4.326L244.127,500Z" transform="translate(-206.338 -377.245)"/></g><path class="f" d="M135.668,349.544l37.759-13.452s54.288,29.765,59.474,54.9S216.544,500,216.544,500H70.124s21.943-48.071,21.943-59.788S76.109,385.386,83.29,376.02s52.617-34.5,52.617-34.5Z" transform="translate(-47.991 -193.695)"/><path class="e" d="M145.66,349.544a40.839,40.839,0,0,0,37.759-13.452,98.163,98.163,0,0,1-2.046-22.662,33.43,33.43,0,0,1,1.6-10.509,40.265,40.265,0,0,1,3.265-6.477l10.176-17.481a39.417,39.417,0,0,0,4.606-9.931c1.784-7.041-.433-14.465-3.337-21.122-5.623-12.891-14.314-24.953-26.632-31.74s-28.64-7.322-39.9,1.106c-4.416,3.306-10.319,6.462-11.518,11.845-2.841,12.758-5.689,25.558-6.888,38.573s-.71,26.329,3.026,38.854c1.686,5.652,4.2,11.354,8.843,15a27,27,0,0,0,10.9,4.669c3.362.756,6.907,1.2,10.227.274C146.052,333.807,145.982,342.225,145.66,349.544Z" transform="translate(-57.983 -193.695)"/><path class="d" d="M192.371,228.1a26.249,26.249,0,0,1,9.165,8.23c9.266,12.851,9.245,31,2.114,45.152s-21.259,27.2-35.911,33.229a96.085,96.085,0,0,1,2.69-23.314,19.268,19.268,0,0,1-9.9-6.031c3.8-14.543,7.728-28.842,11.529-43.385-8.543,2.1-17.894.554-26.056-2.732s-15.418-8.518-21.965-14.4a15.79,15.79,0,0,1-7.809,8.4,26.186,26.186,0,0,1-11.371,2.665c-.444,2.291-.84,4.57-1.285,6.861-6.863-4.293-12.951-11.961-12.033-20a21.384,21.384,0,0,1,1.752-6.073,34.442,34.442,0,0,1,15.725-16.736,51,51,0,0,1,13.2-4.29,100.657,100.657,0,0,1,45.924,1.44,41.918,41.918,0,0,1,13.414,5.733C189.365,208.354,193.588,218.622,192.371,228.1Z" transform="translate(-44.373 -193.695)"/><g transform="translate(119.333 80.238)"><path class="e" d="M135.986,287.666a26.894,26.894,0,0,1-10.173,14.454,11.551,11.551,0,0,1-4.8,2.179c-3.72.524-6.572-2.531-7.143-6.272s.682-7.947,2.348-11.834c2.154-5.025,5.668-10.38,10.48-11.858C134.454,271.952,137.905,280.655,135.986,287.666Z" transform="translate(-113.727 -273.933)"/><path class="g" d="M132.846,283.6a12.123,12.123,0,0,0-1.436-4.066,3.808,3.808,0,0,0-3.47-1.869,6.029,6.029,0,0,0-2.9,1.249c-3.339,2.434-5.171,6.608-6.769,10.475a1.971,1.971,0,0,0-.219.921,1.263,1.263,0,0,0,.348.655l2.344,2.819a1.893,1.893,0,0,1,.588,1.742,2.658,2.658,0,0,1-.628.976,12.007,12.007,0,0,1-4.6,3.206" transform="translate(-112.44 -273.933)"/></g><path class="h" d="M191.07,256.267l-3.294,18.1a12.252,12.252,0,0,1-1.258,4.1c-1.335,2.259-3.925,3.4-6.35,4.4a17.486,17.486,0,0,0,6.688,7.476" transform="translate(-115.398 -193.695)"/><path class="d" d="M161.679,269.4c0,2.5,1.224,4.528,2.734,4.528s2.733-2.027,2.733-4.528-1.224-4.528-2.733-4.528S161.679,266.9,161.679,269.4Z" transform="translate(-72.985 -193.695)"/><path class="d" d="M190.392,265.888c0,2.5,1.224,4.528,2.734,4.528s2.734-2.027,2.734-4.528-1.224-4.528-2.734-4.528S190.392,263.388,190.392,265.888Z" transform="translate(-130.412 -193.695)"/><path class="i" d="M168.369,261.618a25.394,25.394,0,0,0-7.979-10.882,18.5,18.5,0,0,0-12.77-3.874" transform="translate(-60.149 -193.695)"/><path class="i" d="M179.377,255.222a19.139,19.139,0,0,1,7.749-7.3,23.927,23.927,0,0,1,12.4-2.6" transform="translate(-123.064 -193.695)"/><g transform="translate(63.91 108.25)"><path class="d" d="M187.117,302.19c-3.478-.617-6.489-.03-6.727,1.311-.2,1.107,1.561,2.38,4.136,3.138a12.828,12.828,0,0,1,7.4-2.619A11.937,11.937,0,0,0,187.117,302.19Z" transform="translate(-180.375 -301.945)"/><path class="j" d="M186.712,304.02a12.828,12.828,0,0,0-7.4,2.619,16.173,16.173,0,0,0,1.729.407c3.477.617,6.489.03,6.727-1.311C187.863,305.176,187.461,304.576,186.712,304.02Z" transform="translate(-175.157 -301.945)"/></g><g transform="translate(28.94 113.27)"><path class="e" d="M211.093,423.512l-16.086,16.7s-13.12-96.694-12.855-104.431,5.511-26.289,1.315-26.98-12.487,17.687-12.487,17.687-53.257-9.515-57.453-8.7,2.1,5.361,8.043,7.459a98.94,98.94,0,0,0,11.156,3.2,13.765,13.765,0,0,0-2.4,4.7,18.371,18.371,0,0,0,0,4.749,17.965,17.965,0,0,0-.034,5.131,13.6,13.6,0,0,0,1.577,3.1s-.46,3.555.341,4.734a8.194,8.194,0,0,0,3.27,2.725c5.695,6.117,12.716.75,12.716.75l4.387-.108,13.234-.326s1.8,66.326,2.7,86.312,6.911,51.836,6.911,51.836L226.9,461.7s-3.085-14.122-7.593-24.639S211.093,423.512,211.093,423.512Z" transform="translate(-112.164 -306.965)"/><path class="k" d="M190.844,350.431s-.406-8.069-.628-12.108c-.574-10.4,1.823-20.753,1.71-31.166a6.72,6.72,0,0,0-6.157,1.61,11.311,11.311,0,0,0-2.424,3.882,12.477,12.477,0,0,0-1.224,5.018,24.911,24.911,0,0,1,.156,3.258,6.785,6.785,0,0,1-.716,2.218,12.372,12.372,0,0,1-3.215,4.052l-23.954-4.815" transform="translate(-119.423 -306.965)"/><line class="k" x2="16.172" y2="3.577" transform="translate(20.561 21.478)"/><path class="k" d="M208.733,338.676c-5.957-.282-11.6-.5-17.56-.784" transform="translate(-173.006 -306.965)"/><path class="k" d="M207.19,345.768a112.581,112.581,0,0,0-15.26.357" transform="translate(-172.22 -306.965)"/><line class="k" x2="12.175" y2="0.16" transform="translate(25.861 46.94)"/><path class="k" d="M142.336,437.425a191.879,191.879,0,0,1,1.534,20.336" transform="translate(-59.306 -306.965)"/></g><path class="l" d="M88.053,424.773q9.541-11.8,19.082-23.6c6.294-7.784,12.872-15.8,21.839-20.251" transform="translate(38.813 -193.695)"/><path class="l" d="M87.632,460.96a86.249,86.249,0,0,1,2.8,21.674,133.751,133.751,0,0,0,21.923-21.19" transform="translate(55.857 -193.695)"/><path class="l" d="M211.8,459.02l5-18.809-5.033-58.5" transform="translate(-172.721 -193.695)"/><g class="m" transform="translate(47.833 1.135)"><path class="l" d="M208.007,223.229a52.85,52.85,0,0,1-13.842,2.088c-10.527.484-21.224-.133-31.278-3.288s-19.472-9.009-25.642-17.552c-.555,6.825-4.577,12.967-9.834,17.355a26.189,26.189,0,0,1-19.122,5.885" transform="translate(-108.289 -194.83)"/><path class="l" d="M187.443,219.551a20.642,20.642,0,0,0,13.522-7.3,33.379,33.379,0,0,0,6.827-14.035" transform="translate(-187.228 -194.83)"/><path class="l" d="M115.246,194.83c3.867,5.34,10.02,8.537,16.2,10.835,12.769,4.749,27.535,6.307,39.723.219" transform="translate(-78.408 -194.83)"/><path class="l" d="M96.135,242.789a33.609,33.609,0,0,0,23.181,36.094" transform="translate(-7.204 -194.83)"/><path class="l" d="M91.492,237.476A31.338,31.338,0,0,0,106.217,256.6" transform="translate(10.298 -194.83)"/></g></g></g></svg>