<svg xmlns="http://www.w3.org/2000/svg" width="173" height="119" viewBox="0 0 173 119"><defs><style>.a{fill:rgba(255,255,255,0.47);}.b{fill:#cecece;}.c{fill:#afafaf;}.d{fill:#e2e2e2;}.e{fill:#63bce7;}.f{fill:#6377e7;}.g{fill:#63e2e7;}.h{fill:#9e9e9e;}.i{fill:#707070;}.j{fill:#f8af23;}.k{fill:#3f3679;}</style></defs><g transform="translate(-399 -2282)"><rect class="a" width="173" height="119" rx="10" transform="translate(399 2282)"/><g transform="translate(425.18 2278.759)"><path class="b" d="M24.323,114.648A5.959,5.959,0,0,1,18.37,108.7V54.778a5.959,5.959,0,0,1,5.953-5.953h83.606a5.959,5.959,0,0,1,5.953,5.953V108.7a5.959,5.959,0,0,1-5.953,5.953Z" transform="translate(-5.954 -20.648)"/><g transform="translate(12.415 28.177)"><path class="c" d="M24.758,108.7V54.778a5.959,5.959,0,0,1,5.953-5.953H24.322a5.959,5.959,0,0,0-5.953,5.953V108.7a5.959,5.959,0,0,0,5.953,5.953h6.389A5.96,5.96,0,0,1,24.758,108.7Z" transform="translate(-18.369 -48.825)"/></g><g transform="translate(95.586 28.177)"><path class="d" d="M215.252,108.7V54.778a5.959,5.959,0,0,0-5.953-5.953h6.389a5.959,5.959,0,0,1,5.953,5.953V108.7a5.959,5.959,0,0,1-5.953,5.953H209.3A5.96,5.96,0,0,0,215.252,108.7Z" transform="translate(-209.299 -48.825)"/></g><path class="e" d="M114.964,108.214a2.3,2.3,0,0,1-2.29,2.29H29.069a2.3,2.3,0,0,1-2.29-2.29V59.524a2.3,2.3,0,0,1,2.29-2.29h83.606a2.3,2.3,0,0,1,2.29,2.29v48.69Z" transform="translate(-10.7 -25.394)"/><g transform="translate(16.079 31.84)"><path class="f" d="M33.168,108.214V59.524a2.3,2.3,0,0,1,2.29-2.29H29.069a2.3,2.3,0,0,0-2.29,2.29v48.691a2.3,2.3,0,0,0,2.29,2.29h6.389a2.3,2.3,0,0,1-2.29-2.29Z" transform="translate(-26.779 -57.234)"/></g><g transform="translate(95.585 31.84)"><path class="g" d="M211.588,108.214V59.524a2.3,2.3,0,0,0-2.29-2.29h6.389a2.3,2.3,0,0,1,2.29,2.29v48.691a2.3,2.3,0,0,1-2.29,2.29H209.3a2.3,2.3,0,0,0,2.29-2.29Z" transform="translate(-209.298 -57.234)"/></g><path class="h" d="M89.809,222.089h33.273V226.1H89.809Z" transform="translate(-46.274 -118.437)"/><g transform="translate(43.535 103.652)"><path class="i" d="M89.809,222.089H96.2V226.1H89.809Z" transform="translate(-89.809 -222.089)"/></g><g transform="translate(70.419 103.652)"><path class="b" d="M151.525,222.089h6.389V226.1h-6.389Z" transform="translate(-151.525 -222.089)"/></g><path class="b" d="M100.67,199.931h23.81v9.652H100.67Z" transform="translate(-52.404 -105.931)"/><g transform="translate(48.266 94)"><path class="c" d="M100.67,199.931h6.389v9.652H100.67Z" transform="translate(-100.67 -199.931)"/></g><g transform="translate(65.687 94)"><path class="d" d="M140.663,199.931h6.389v9.652h-6.389Z" transform="translate(-140.663 -199.931)"/></g><circle class="h" cx="1.96" cy="1.96" r="1.96" transform="translate(58.211 87.594)"/><path class="b" d="M119.457,55.937,97.632,72.554a3.03,3.03,0,0,1-3.672,0L72.135,55.937a3.031,3.031,0,0,1-1.195-2.411V22.868a3.03,3.03,0,0,1,2.215-2.919l21.825-6.1a3.03,3.03,0,0,1,1.63,0l21.825,6.1a3.031,3.031,0,0,1,2.215,2.919V53.525A3.029,3.029,0,0,1,119.457,55.937Z" transform="translate(-35.624 -0.846)"/><g transform="translate(35.316 12.894)"><path class="c" d="M77.329,53.526V22.868a3.03,3.03,0,0,1,2.215-2.919L98.99,14.517l-2.379-.665a3.03,3.03,0,0,0-1.63,0l-21.825,6.1a3.031,3.031,0,0,0-2.215,2.919V53.525a3.03,3.03,0,0,0,1.195,2.411L93.96,72.553a3.03,3.03,0,0,0,3.672,0l1.359-1.035L78.524,55.936a3.029,3.029,0,0,1-1.2-2.411Z" transform="translate(-70.94 -13.74)"/></g><g transform="translate(56.977 12.894)"><path class="d" d="M142.328,53.526V22.868a3.03,3.03,0,0,0-2.215-2.919l-19.446-5.432,2.379-.665a3.03,3.03,0,0,1,1.63,0l21.825,6.1a3.031,3.031,0,0,1,2.215,2.919V53.525a3.03,3.03,0,0,1-1.195,2.411L125.7,72.553a3.03,3.03,0,0,1-3.672,0l-1.359-1.035,20.467-15.583A3.029,3.029,0,0,0,142.328,53.526Z" transform="translate(-120.666 -13.74)"/></g><circle class="j" cx="14.753" cy="14.753" r="14.753" transform="translate(45.418 25.093)"/><g transform="translate(7.82 12.241)"><path class="h" d="M120.542,73.1a5.773,5.773,0,0,1-5.756-5.756V62.8a5.756,5.756,0,0,1,11.512,0v4.542A5.773,5.773,0,0,1,120.542,73.1Z" transform="translate(-68.191 -37.528)"/><g transform="translate(0)"><path class="k" d="M16.316,240.759H8.473a.653.653,0,0,0,0,1.307h7.842a.653.653,0,1,0,0-1.307Z" transform="translate(-7.82 -141.215)"/><path class="k" d="M235.673,240.759H227.83a.653.653,0,1,0,0,1.307h7.842a.653.653,0,1,0,0-1.307Z" transform="translate(-131.624 -141.215)"/><path class="k" d="M115.5,240.759H36.674a.653.653,0,1,0,0,1.307H115.5a.653.653,0,1,0,0-1.307Z" transform="translate(-23.736 -141.215)"/><path class="k" d="M8.473,108.312h103.4a.653.653,0,1,0,0-1.307H77.461v-3.353a.653.653,0,0,0-.653-.653H72.73V94.653h29.245a6.613,6.613,0,0,0,6.606-6.606V34.13a6.613,6.613,0,0,0-6.606-6.606H85.681v-5.5a3.7,3.7,0,0,0-2.693-3.548l-21.826-6.1a3.69,3.69,0,0,0-1.982,0l-21.826,6.1a3.7,3.7,0,0,0-2.693,3.548v5.5H18.368a6.613,6.613,0,0,0-6.606,6.606V88.047a6.613,6.613,0,0,0,6.606,6.606H47.613V103H43.535a.653.653,0,0,0-.653.653v3.353H8.473a.653.653,0,1,0,0,1.307Zm27.5-86.291a2.384,2.384,0,0,1,1.738-2.289l21.826-6.1a2.379,2.379,0,0,1,1.279,0l21.825,6.1a2.384,2.384,0,0,1,1.738,2.289V52.679a2.391,2.391,0,0,1-.937,1.891L61.611,71.187a2.383,2.383,0,0,1-2.88,0L36.905,54.57a2.39,2.39,0,0,1-.937-1.891Zm.145,33.589L57.94,72.227a3.693,3.693,0,0,0,4.463,0L84.229,55.61a3.7,3.7,0,0,0,1.452-2.931V32.494h16.294a1.638,1.638,0,0,1,1.636,1.636V82.82a1.638,1.638,0,0,1-1.636,1.636H18.368a1.638,1.638,0,0,1-1.636-1.636V34.13a1.638,1.638,0,0,1,1.636-1.636H34.662V52.679a3.7,3.7,0,0,0,1.452,2.931ZM13.069,88.047V34.13a5.305,5.305,0,0,1,5.3-5.3H34.662v2.356H18.368a2.946,2.946,0,0,0-2.943,2.943V82.82a2.946,2.946,0,0,0,2.943,2.943h83.607a2.946,2.946,0,0,0,2.943-2.943V34.13a2.946,2.946,0,0,0-2.943-2.943H85.681V28.831h16.294a5.305,5.305,0,0,1,5.3,5.3V88.047a5.305,5.305,0,0,1-5.3,5.3H18.368A5.305,5.305,0,0,1,13.069,88.047Zm35.85,6.606h22.5V103H48.92Zm-4.731,9.652H76.155v2.7H44.188Z" transform="translate(-7.82 -12.241)"/><path class="k" d="M124.614,188.954A2.614,2.614,0,1,0,122,186.341,2.616,2.616,0,0,0,124.614,188.954Zm0-3.92a1.307,1.307,0,1,1-1.307,1.307A1.308,1.308,0,0,1,124.614,185.034Z" transform="translate(-72.262 -109.026)"/><path class="k" d="M108.039,71.06A15.406,15.406,0,1,0,92.632,55.653,15.424,15.424,0,0,0,108.039,71.06Zm0-29.506a14.1,14.1,0,1,1-14.1,14.1,14.116,14.116,0,0,1,14.1-14.1Z" transform="translate(-55.687 -28.047)"/><path class="k" d="M107.257,66.774,106.2,67.908a.654.654,0,0,0,.954.893l1.062-1.134a2.763,2.763,0,0,1,.966-.666l1.244-.516a6.387,6.387,0,0,0,10.347,0l1.244.519a2.772,2.772,0,0,1,.964.665l1.062,1.134a.654.654,0,0,0,.954-.893l-1.062-1.134a4.033,4.033,0,0,0-1.418-.979l-1.079-.45a6.364,6.364,0,0,0,.57-2.628V61.1h2.483a.653.653,0,0,0,0-1.307H122V58.175c0-.172-.013-.341-.026-.51l.531-.218a4.03,4.03,0,0,0,1.422-.981l1.062-1.134a.654.654,0,1,0-.954-.893l-1.062,1.134a2.761,2.761,0,0,1-.964.665l-.277.114a6.428,6.428,0,0,0-2.812-3.643c.274-.71.785-2.021,1.155-2.97a.653.653,0,0,0-1.218-.475l-1.12,2.879a6.291,6.291,0,0,0-4.288,0l-1.119-2.877a.653.653,0,0,0-1.218.475c.37.947.879,2.255,1.153,2.966a6.429,6.429,0,0,0-2.819,3.647l-.277-.113a2.772,2.772,0,0,1-.964-.665l-1.062-1.134a.654.654,0,1,0-.954.893l1.062,1.134a4.031,4.031,0,0,0,1.423.981l.531.217c-.014.169-.026.338-.026.51v1.617H106.7a.653.653,0,0,0,0,1.307h2.483v1.617a6.361,6.361,0,0,0,.571,2.631l-1.076.446a4.042,4.042,0,0,0-1.422.981Zm3.234-4.057V58.175c0-.03,0-.059,0-.088h4.445v9.686a5.107,5.107,0,0,1-4.449-5.056Zm5.756,5.056V58.087h4.445c0,.03,0,.058,0,.088v4.542a5.107,5.107,0,0,1-4.449,5.056Zm-.653-14.7a5.108,5.108,0,0,1,4.9,3.707H110.69A5.107,5.107,0,0,1,115.594,53.072Z" transform="translate(-63.242 -32.901)"/><g transform="translate(50.041 21.74)"><circle class="k" cx="0.43" cy="0.43" r="0.43"/><circle class="k" cx="0.43" cy="0.43" r="0.43" transform="translate(3.76)"/></g></g></g></g></g></svg>