<svg xmlns="http://www.w3.org/2000/svg" width="90.043" height="102.292" viewBox="0 0 90.043 102.292"><defs><style>.a{fill:#ffca19;}.b{opacity:0.1;}.c{fill:#030303;}.d{fill:#77c587;}</style></defs><g transform="translate(-29.852)"><path class="a" d="M128.519,58.112a42.143,42.143,0,0,1-42.02,42.02,31.671,31.671,0,0,1-9.3-1.2L57.685,112.138l3-20.71a42.072,42.072,0,1,1,67.832-33.316Z" transform="translate(-11.626 -12.79)"/><g class="b" transform="translate(32.853 3.597)"><path class="c" d="M127.619,50.852A42.107,42.107,0,0,0,57.686,82.367a37.965,37.965,0,0,0,.9,8.4A41.886,41.886,0,0,1,86.5,17.536,41.328,41.328,0,0,1,127.619,50.852Z" transform="translate(-44.48 -17.532)"/></g><path class="d" d="M115.334,376.293l-.6,3.9a39.981,39.981,0,0,1-1.5-5.7A13.033,13.033,0,0,1,115.334,376.293Z" transform="translate(-66.273 -297.655)"/><path d="M44.559,101.748a3.694,3.694,0,0,1-1.5-3l3-19.209A44.954,44.954,0,1,1,74.873,90.043a40.742,40.742,0,0,1-8.7-.9L47.86,101.448C46.66,102.349,45.459,102.649,44.559,101.748ZM74.873,6.3A39.125,39.125,0,0,0,50.862,76.236a3.259,3.259,0,0,1,1.2,2.7l-2.1,14.107,13.806-9.3a2.266,2.266,0,0,1,2.4-.3,42.854,42.854,0,0,0,8.7.9,39.018,39.018,0,0,0,0-78.037Z"/><path d="M196.956,156.872a2.836,2.836,0,0,1-3-3v-9.9a2.836,2.836,0,0,1,3-3,7.5,7.5,0,1,0-7.5-7.5,3,3,0,1,1-6,0,13.507,13.507,0,1,1,27.013,0,13.789,13.789,0,0,1-10.5,13.206v7.2A3.008,3.008,0,0,1,196.956,156.872Z" transform="translate(-122.083 -95.342)"/><path d="M235.551,318.154a2.971,2.971,0,1,1,4.2,0C238.553,319.655,236.752,319.355,235.551,318.154Z" transform="translate(-162.779 -248.821)"/></g></svg>