<svg xmlns="http://www.w3.org/2000/svg" width="173" height="119" viewBox="0 0 173 119"><defs><style>.a{fill:rgba(255,255,255,0.47);}.b{fill:#cecece;}.c{fill:#afafaf;}.d{fill:#e2e2e2;}.e{fill:#63bce7;}.f{fill:#6377e7;}.g{fill:#63e2e7;}.h{fill:#9e9e9e;}.i{fill:#707070;}.j{fill:#f46275;}.k{fill:#f43075;}.l{fill:#f48875;}.m{fill:#3f3679;}</style></defs><g transform="translate(8099 9273)"><rect class="a" width="173" height="119" rx="10" transform="translate(-8099 -9273)"/><g transform="translate(-8068.82 -9266.839)"><path class="b" d="M23.855,117.021a5.492,5.492,0,0,1-5.485-5.485V61.849a5.492,5.492,0,0,1,5.485-5.485H100.9a5.492,5.492,0,0,1,5.485,5.485v49.686a5.492,5.492,0,0,1-5.485,5.485H23.855Z" transform="translate(-6.315 -30.925)"/><g transform="translate(12.055 25.439)"><path class="c" d="M24.257,111.536V61.849a5.492,5.492,0,0,1,5.485-5.485H23.855a5.492,5.492,0,0,0-5.485,5.485v49.686a5.492,5.492,0,0,0,5.485,5.485h5.888A5.492,5.492,0,0,1,24.257,111.536Z" transform="translate(-18.37 -56.364)"/></g><g transform="translate(88.697 25.439)"><path class="d" d="M214.784,111.536V61.849a5.492,5.492,0,0,0-5.485-5.485h5.888a5.492,5.492,0,0,1,5.485,5.485v49.686a5.492,5.492,0,0,1-5.485,5.485H209.3A5.491,5.491,0,0,0,214.784,111.536Z" transform="translate(-209.299 -56.364)"/></g><path class="e" d="M108.043,111.752a2.116,2.116,0,0,1-2.11,2.11H28.889a2.116,2.116,0,0,1-2.11-2.11V66.883a2.116,2.116,0,0,1,2.11-2.11h77.045a2.116,2.116,0,0,1,2.11,2.11v44.869Z" transform="translate(-11.349 -35.958)"/><g transform="translate(15.43 28.815)"><path class="f" d="M32.667,111.752V66.883a2.116,2.116,0,0,1,2.11-2.11H28.889a2.116,2.116,0,0,0-2.11,2.11v44.869a2.116,2.116,0,0,0,2.11,2.11h5.888A2.116,2.116,0,0,1,32.667,111.752Z" transform="translate(-26.779 -64.773)"/></g><g transform="translate(88.697 28.815)"><path class="g" d="M211.408,111.752V66.883a2.116,2.116,0,0,0-2.11-2.11h5.888a2.116,2.116,0,0,1,2.11,2.11v44.869a2.116,2.116,0,0,1-2.11,2.11H209.3A2.116,2.116,0,0,0,211.408,111.752Z" transform="translate(-209.298 -64.773)"/></g><path class="h" d="M89.809,229.629h30.662v3.692H89.809Z" transform="translate(-49.077 -134.638)"/><g transform="translate(40.732 94.991)"><path class="i" d="M89.809,229.629H95.7v3.692H89.809Z" transform="translate(-89.809 -229.629)"/></g><g transform="translate(65.506 94.991)"><path class="b" d="M151.525,229.629h5.888v3.692h-5.888Z" transform="translate(-151.525 -229.629)"/></g><path class="b" d="M100.67,207.471h21.941v8.895H100.67Z" transform="translate(-55.578 -121.374)"/><g transform="translate(45.092 86.097)"><path class="c" d="M100.67,207.471h5.888v8.895H100.67Z" transform="translate(-100.67 -207.471)"/></g><g transform="translate(61.146 86.097)"><path class="d" d="M140.663,207.471h5.888v8.895h-5.888Z" transform="translate(-140.663 -207.471)"/></g><circle class="h" cx="1.806" cy="1.806" r="1.806" transform="translate(54.256 80.194)"/><g transform="translate(22.452 5.303)"><path class="j" d="M45.035,56.53,73.211,8.865a5.426,5.426,0,0,1,9.341,0L110.728,56.53a5.426,5.426,0,0,1-4.671,8.187H49.706a5.426,5.426,0,0,1-4.671-8.187Z" transform="translate(-44.272 -6.201)"/></g><g transform="translate(22.452 5.31)"><path class="k" d="M50.922,56.54,79.1,8.876a5.378,5.378,0,0,1,1.727-1.793,5.425,5.425,0,0,0-7.615,1.793L45.035,56.54a5.426,5.426,0,0,0,4.671,8.187h5.888A5.426,5.426,0,0,1,50.922,56.54Z" transform="translate(-44.272 -6.218)"/></g><g transform="translate(53.119 5.31)"><path class="l" d="M150.57,56.54,122.394,8.876a5.378,5.378,0,0,0-1.727-1.793,5.425,5.425,0,0,1,7.614,1.793L156.457,56.54a5.426,5.426,0,0,1-4.671,8.187H145.9A5.426,5.426,0,0,0,150.57,56.54Z" transform="translate(-120.667 -6.218)"/></g><g transform="translate(7.82 4.701)"><circle class="m" cx="1.309" cy="1.309" r="1.309" transform="translate(46.933 46.867)"/><g transform="translate(0 0)"><path class="m" d="M15.649,248.3H8.422a.6.6,0,1,0,0,1.2h7.227a.6.6,0,1,0,0-1.2Z" transform="translate(-7.82 -150.514)"/><path class="m" d="M235.006,248.3h-7.227a.6.6,0,1,0,0,1.2h7.227a.6.6,0,0,0,0-1.2Z" transform="translate(-139.123 -150.514)"/><path class="m" d="M109.263,248.3H36.623a.6.6,0,1,0,0,1.2h72.64a.6.6,0,1,0,0-1.2Z" transform="translate(-24.701 -150.514)"/><path class="m" d="M8.422,99.285H103.7a.6.6,0,0,0,0-1.2H72v-3.09a.6.6,0,0,0-.6-.6H67.635V86.7h26.95a6.094,6.094,0,0,0,6.087-6.088V30.925a6.094,6.094,0,0,0-6.087-6.088H71.4L61.251,7.661a6.028,6.028,0,0,0-10.378,0L40.72,24.837H17.54a6.094,6.094,0,0,0-6.088,6.088V80.611A6.094,6.094,0,0,0,17.54,86.7H44.49v7.69H40.731a.6.6,0,0,0-.6.6v3.09H8.422a.6.6,0,0,0,0,1.2ZM51.91,8.275a4.824,4.824,0,0,1,8.3,0L88.391,55.939a4.824,4.824,0,0,1-4.153,7.279H27.886a4.824,4.824,0,0,1-4.152-7.279ZM22.651,61.38a5.963,5.963,0,0,0,5.236,3.041H84.239a6.028,6.028,0,0,0,5.189-9.1L74.113,29.417H94.585a1.509,1.509,0,0,1,1.507,1.508V75.794A1.509,1.509,0,0,1,94.585,77.3H17.54a1.509,1.509,0,0,1-1.508-1.508V30.925a1.509,1.509,0,0,1,1.508-1.508H38.013L22.7,55.325a5.963,5.963,0,0,0-.047,6.055ZM12.657,80.611V30.925a4.889,4.889,0,0,1,4.883-4.883H40.008l-1.284,2.171H17.54a2.715,2.715,0,0,0-2.712,2.712V75.794a2.715,2.715,0,0,0,2.712,2.712H94.585A2.715,2.715,0,0,0,97.3,75.794V30.925a2.715,2.715,0,0,0-2.712-2.712H73.4l-1.284-2.171H94.585a4.889,4.889,0,0,1,4.883,4.883V80.611a4.889,4.889,0,0,1-4.883,4.883H17.54a4.888,4.888,0,0,1-4.883-4.883ZM45.694,86.7H66.431v7.69H45.694Zm-4.36,8.895H70.791v2.488H41.334Z" transform="translate(-7.82 -4.701)"/><path class="m" d="M124.409,196.083A2.409,2.409,0,1,0,122,193.675,2.411,2.411,0,0,0,124.409,196.083Zm0-3.613a1.2,1.2,0,1,1-1.2,1.2A1.206,1.206,0,0,1,124.409,192.47Z" transform="translate(-76.166 -116.375)"/><path class="m" d="M127.1,72.314a.6.6,0,0,0,.6-.6V45.519a.6.6,0,1,0-1.2,0V71.712A.6.6,0,0,0,127.1,72.314Z" transform="translate(-78.86 -28.774)"/></g></g></g></g></svg>