<svg xmlns="http://www.w3.org/2000/svg" width="173" height="119" viewBox="0 0 173 119"><defs><style>.a{fill:rgba(255,255,255,0.47);}.b{fill:#f8af23;}.c{fill:#cecece;}.d{fill:#afafaf;}.e{fill:#f87023;}.f{fill:#3f3679;}.g{fill:#e2e2e2;}.h{fill:#6377e7;}.i{fill:#63bce7;}.j{fill:#9e9e9e;}</style></defs><g transform="translate(8099 8999)"><g transform="translate(0 137)"><g transform="translate(0 137)"><rect class="a" width="173" height="119" rx="10" transform="translate(-8099 -9273)"/></g></g><g transform="translate(-8059.82 -8988.992)"><path class="b" d="M82.175,82.667H98.667v20.056H82.175Z" transform="translate(-46.805 -49.951)"/><path class="c" d="M84.634,126.076a5.892,5.892,0,0,0-4.227-5.369l-11.447-3.6a9.2,9.2,0,0,1-16.506,0l-11.447,3.6a5.892,5.892,0,0,0-4.227,5.369l-1.82,27.647h51.5Z" transform="translate(-17.083 -71.63)"/><g transform="translate(17.875 45.476)"><path class="d" d="M46.439,120.707l6.9-2.169a9.212,9.212,0,0,1-.882-1.432L41,120.707a5.892,5.892,0,0,0-4.227,5.369l-1.82,27.647h5.434l1.82-27.647a5.892,5.892,0,0,1,4.227-5.369Z" transform="translate(-34.957 -117.106)"/></g><path class="c" d="M60.962,96.422l-8.884,6.012,7.59,12.219L51.615,121.6,59.853,140.7h10l-5.184-44.28Z" transform="translate(-27.568 -58.61)"/><g transform="translate(24.047 37.812)"><path class="d" d="M65.1,114.652l-7.59-12.219,7.282-4.927-.127-1.084h-3.7l-8.884,6.012,7.59,12.219-8.053,6.942L59.853,140.7h5.434l-8.239-19.107Z" transform="translate(-51.615 -96.422)"/></g><path class="c" d="M116.957,96.422l8.884,6.012-7.59,12.219L126.3,121.6,118.066,140.7h-10l5.184-44.28Z" transform="translate(-63.105 -58.61)"/><g transform="translate(25.695 21.011)"><circle class="e" cx="3.686" cy="3.686" r="3.686" transform="translate(0)"/><circle class="b" cx="3.686" cy="3.686" r="3.686" transform="translate(28.482)"/></g><path class="b" d="M66.014,47.388v8.635a14.268,14.268,0,0,0,6.862,12.165,14.158,14.158,0,0,0,14.759,0A14.268,14.268,0,0,0,94.5,56.023V47.388Z" transform="translate(-36.632 -27.744)"/><g transform="translate(29.382 19.644)"><path class="e" d="M71.448,56.023V47.388H66.014v8.635a14.268,14.268,0,0,0,6.862,12.165A14.09,14.09,0,0,0,82.972,70,14.269,14.269,0,0,1,71.448,56.023Z" transform="translate(-66.014 -47.388)"/></g><g transform="translate(36.136 29.302)"><circle class="f" cx="1.276" cy="1.276" r="1.276"/><circle class="f" cx="1.276" cy="1.276" r="1.276" transform="translate(12.407)"/></g><path class="c" d="M87.531,34.544c1.651,3.6-8.722,11.438-23.787,11.417-15.065.021-25.438-7.815-23.787-11.417,1.568-3.746,12.006-3,23.787-3.114C75.524,31.549,85.962,30.8,87.531,34.544Z" transform="translate(-20.121 -17.698)"/><g transform="translate(19.663 13.741)"><path class="d" d="M45.39,34.56c1.12-2.675,6.766-3.057,14.194-3.1-9.993-.011-18.247-.2-19.628,3.1C38.3,38.163,48.678,46,63.743,45.977q1.386,0,2.717-.083C52.886,45.052,43.84,37.942,45.39,34.56Z" transform="translate(-39.784 -31.455)"/></g><g transform="translate(40.906 13.741)"><path class="g" d="M118.187,34.56c-1.12-2.675-6.766-3.057-14.194-3.1,9.993-.011,18.247-.2,19.628,3.1,1.651,3.6-8.722,11.438-23.787,11.417q-1.386,0-2.717-.083C110.692,45.052,119.737,37.942,118.187,34.56Z" transform="translate(-97.117 -31.455)"/></g><path class="c" d="M94.723,4.823S87.18,6.012,84.642,6.012,74.561,4.823,74.561,4.823a1.413,1.413,0,0,0-1.578,1.4V17.679c0,1.342,5.22,2.429,11.659,2.429S96.3,19.021,96.3,17.679V6.226A1.413,1.413,0,0,0,94.723,4.823Z" transform="translate(-41.019 -0.943)"/><g transform="translate(31.964 3.87)"><path class="d" d="M78.418,17.679V6.226a1.4,1.4,0,0,1,.256-.805c-2.213-.3-4.113-.6-4.113-.6a1.412,1.412,0,0,0-1.578,1.4V17.679c0,1.342,5.22,2.429,11.659,2.429.936,0,1.845-.024,2.717-.067-5.128-.255-8.942-1.215-8.942-2.362Z" transform="translate(-72.984 -4.813)"/></g><path class="c" d="M74.081,90.4a14.158,14.158,0,0,0,14.759,0,14.379,14.379,0,0,0,6.154-7.729L82.862,84a12.761,12.761,0,0,1-2.794,0L67.936,82.667A14.361,14.361,0,0,0,74.081,90.4Z" transform="translate(-37.842 -49.951)"/><g transform="translate(30.094 32.716)"><path class="d" d="M73.594,83.29l-5.657-.622A14.362,14.362,0,0,0,74.082,90.4a14.09,14.09,0,0,0,10.1,1.807A14.15,14.15,0,0,1,79.516,90.4,14.374,14.374,0,0,1,73.594,83.29Z" transform="translate(-67.937 -82.668)"/></g><path class="h" d="M81.612,230.111v1.117a2.634,2.634,0,0,1-2.627,2.627h-60.1a2.634,2.634,0,0,1-2.627-2.627v-1.117Z" transform="translate(-5.313 -142.765)"/><path class="i" d="M28.071,146.261h56.6v34.811h-56.6Z" transform="translate(-12.748 -89.983)"/><g transform="translate(15.323 56.278)"><path class="h" d="M28.071,146.261h5.434v34.811H28.071Z" transform="translate(-28.071 -146.261)"/></g><circle class="c" cx="2.892" cy="2.892" r="2.892" transform="translate(40.723 70.791)"/><path class="c" d="M188.431,61.559H167.822a3.705,3.705,0,0,0-3.705,3.705V76.5a3.705,3.705,0,0,0,3.705,3.705h20.609a3.705,3.705,0,0,0,3.705-3.705V65.264a3.705,3.705,0,0,0-3.705-3.705Z" transform="translate(-98.387 -36.664)"/><g transform="translate(84.61 24.895)"><path class="g" d="M220.506,61.56h-5.434a3.705,3.705,0,0,1,3.705,3.705V76.5a3.705,3.705,0,0,1-3.705,3.705h5.434a3.705,3.705,0,0,0,3.705-3.705V65.265A3.705,3.705,0,0,0,220.506,61.56Z" transform="translate(-215.072 -61.56)"/></g><g transform="translate(69.009 29.375)"><path class="i" d="M179.6,92.122h-6.632V90.179a2.572,2.572,0,0,1,2.572-2.572h1.489a2.572,2.572,0,0,1,2.572,2.572Z" transform="translate(-172.966 -82.436)"/><circle class="j" cx="2.585" cy="2.585" r="2.585" transform="translate(0.731)"/></g><g transform="translate(79.74 31.219)"><path class="b" d="M201.928,78.628h11.119v1.805H201.928Z" transform="translate(-201.928 -78.628)"/><path class="b" d="M201.928,89.944h11.119v1.805H201.928Z" transform="translate(-201.928 -85.751)"/></g><g transform="translate(7.82 3.315)"><path class="f" d="M15.046,249.687H8.376a.556.556,0,1,0,0,1.112h6.67a.556.556,0,1,0,0-1.112Z" transform="translate(-7.82 -158.402)"/><path class="f" d="M234.4,249.687h-6.67a.556.556,0,0,0,0,1.112h6.67a.556.556,0,1,0,0-1.112Z" transform="translate(-145.902 -158.402)"/><path class="f" d="M103.624,249.687H36.577a.556.556,0,1,0,0,1.112h67.048a.556.556,0,1,0,0-1.112Z" transform="translate(-25.572 -158.402)"/><path class="f" d="M8.376,91.645H96.321a.556.556,0,0,0,0-1.112H76.083a3.166,3.166,0,0,0,.771-2.07V87.346a.556.556,0,0,0-.556-.556h-3.82V56.278a.556.556,0,0,0-.556-.556H68.192l-.086-1.3a6.5,6.5,0,0,0-4.616-5.875l-2.538-.8,2.256-3.631a.556.556,0,0,0-.16-.754l-8.164-5.524A14.874,14.874,0,0,0,58.4,28.9a4.246,4.246,0,0,0,3.707-4.2c0-.105-.014-.21-.021-.316a15.1,15.1,0,0,0,5.291-4.487,3.32,3.32,0,0,0,.548-3.263c-1.094-2.614-5.618-3.263-12.085-3.407V5.283a1.968,1.968,0,0,0-2.2-1.954l-.021,0c-.075.011-7.529,1.182-9.995,1.182S33.7,3.343,33.607,3.329a1.968,1.968,0,0,0-2.2,1.954v7.942c-6.467.143-10.991.792-12.078,3.389a3.321,3.321,0,0,0,.54,3.281,15.094,15.094,0,0,0,5.287,4.485c-.008.106-.017.213-.017.318a4.246,4.246,0,0,0,3.707,4.2,14.874,14.874,0,0,0,3.515,8.937L24.2,43.364a.556.556,0,0,0-.16.754l2.256,3.631-2.512.791a6.5,6.5,0,0,0-4.64,5.87l-.086,1.313H15.323a.556.556,0,0,0-.556.556V86.791h-3.82a.556.556,0,0,0-.556.556v1.117a3.166,3.166,0,0,0,.771,2.07H8.376a.555.555,0,1,0,0,1.111ZM75.742,87.9v.561a2.073,2.073,0,0,1-2.07,2.07H72.479V87.9ZM63.18,49.614A5.3,5.3,0,0,1,67,54.483l.082,1.24H56l4.348-7Zm-8.49,6.109H52.964l1.245-10.5a.556.556,0,0,0-1.1-.131l-1.26,10.632H48.61L50.277,41.48c.344-.175.684-.359,1.015-.561a14.768,14.768,0,0,0,2.83-2.253l7.86,5.318Zm-14.936,0-.664-5.673a9.716,9.716,0,0,0,9.064,0l-.664,5.671H39.755ZM30.939,33.368,42.165,34.6a13.382,13.382,0,0,0,2.916,0l11.225-1.236a13.844,13.844,0,0,1-5.593,6.6,13.6,13.6,0,0,1-14.18,0,13.841,13.841,0,0,1-5.594-6.6Zm12.621-4.55h.124a40.441,40.441,0,0,0,13.624-2.28v1.74a13.46,13.46,0,0,1-.6,3.926L44.959,33.5a12.206,12.206,0,0,1-2.673,0L30.533,32.2a13.46,13.46,0,0,1-.6-3.926v-1.74A40.445,40.445,0,0,0,43.56,28.819Zm.063,14.257A14.7,14.7,0,0,0,49.1,42.011l-.781,6.668-.023.012a8.634,8.634,0,0,1-9.364-.019l-.78-6.66A14.717,14.717,0,0,0,43.623,43.076Zm14.8-15.3V26.122c.2-.081.4-.161.59-.24q1.029-.432,1.971-.91A3.133,3.133,0,0,1,58.42,27.776ZM54.726,16.73c-.13.535-3.624,1.88-11.1,1.88s-10.974-1.345-11.1-1.873V12.469c2.291,1.238,7.62,1.61,11.1,1.61s8.813-.371,11.1-1.61ZM32.52,5.283a.861.861,0,0,1,.847-.859.783.783,0,0,1,.089.005c.31.049,7.616,1.2,10.168,1.2,2.525,0,9.706-1.123,10.156-1.194a.857.857,0,0,1,.947.852v5.806c-.133.535-3.627,1.879-11.1,1.879s-10.964-1.341-11.1-1.877ZM20.805,19.294a2.472,2.472,0,0,1-.457-2.233c.914-2.183,6.058-2.614,11.06-2.725v2.4c0,2.356,7.678,2.985,12.215,2.985s12.215-.628,12.215-2.985v-2.4c5,.111,10.146.542,11.067,2.741a2.474,2.474,0,0,1-.465,2.216c-2.248,3.5-10.789,8.414-22.757,8.414h-.122c-11.965,0-20.508-4.915-22.756-8.413Zm5.46,5.678c.628.317,1.285.622,1.971.91.189.079.387.16.59.24v1.654A3.134,3.134,0,0,1,26.265,24.972Zm6.858,13.695a14.794,14.794,0,0,0,2.83,2.253c.331.2.671.386,1.014.561l1.667,14.242H35.386L34.126,45.09a.556.556,0,0,0-1.1.131l1.245,10.5H32.555L25.263,43.985ZM20.25,54.47a5.3,5.3,0,0,1,3.839-4.863l2.81-.884,4.348,7H20.168Zm-4.371,2.364H71.367v33.7H15.879ZM11.5,88.463V87.9h3.264v2.632H13.574A2.073,2.073,0,0,1,11.5,88.463Z" transform="translate(-7.82 -3.315)"/><path class="f" d="M74.625,47.406c8.171,0,14.9-3.124,17.333-6.216a.556.556,0,0,0-.874-.687c-2.96,3.765-10.686,5.791-16.47,5.791h-.078c-8.863,0-15.25-3.727-16.78-6.251a.556.556,0,1,0-.95.576c1.709,2.821,8.336,6.786,17.728,6.786Z" transform="translate(-38.606 -26.267)"/><path class="f" d="M98.572,183.932a3.448,3.448,0,1,0,3.448,3.448A3.452,3.452,0,0,0,98.572,183.932Zm0,5.784a2.336,2.336,0,1,1,2.336-2.336A2.339,2.339,0,0,1,98.572,189.716Z" transform="translate(-62.777 -117.011)"/><path class="f" d="M162.617,64.321V75.557a4.266,4.266,0,0,0,4.261,4.261h9.749v7.5l-4.544,2.533a.556.556,0,0,0,.541.971l4.829-2.693a.557.557,0,0,0,.285-.486V79.818h9.749a4.266,4.266,0,0,0,4.261-4.261V64.321a4.266,4.266,0,0,0-4.261-4.261H166.878A4.266,4.266,0,0,0,162.617,64.321Zm4.261-3.149h20.609a3.153,3.153,0,0,1,3.149,3.149V75.557a3.153,3.153,0,0,1-3.149,3.149H166.878a3.153,3.153,0,0,1-3.149-3.149V64.321A3.153,3.153,0,0,1,166.878,61.172Z" transform="translate(-105.262 -39.035)"/><path class="f" d="M172.021,82.948h6.632a.556.556,0,0,0,.556-.556V80.449a3.127,3.127,0,0,0-1.782-2.819,3.141,3.141,0,1,0-4.181,0,3.128,3.128,0,0,0-1.782,2.819v1.944A.556.556,0,0,0,172.021,82.948Zm3.316-9.687a2.03,2.03,0,1,1-2.03,2.03A2.032,2.032,0,0,1,175.337,73.262Zm-2.76,7.187a2.018,2.018,0,0,1,2.016-2.016h1.489a2.018,2.018,0,0,1,2.016,2.016v1.388h-5.521Z" transform="translate(-110.832 -46.645)"/><path class="f" d="M200.984,80.045H212.1a.556.556,0,0,0,.556-.556V77.684a.556.556,0,0,0-.556-.556H200.984a.556.556,0,0,0-.556.556v1.805A.556.556,0,0,0,200.984,80.045Zm.556-1.805h10.007v.694H201.54Z" transform="translate(-129.064 -49.779)"/><path class="f" d="M200.984,91.36H212.1a.556.556,0,0,0,.556-.556V89a.556.556,0,0,0-.556-.556H200.984a.556.556,0,0,0-.556.556V90.8A.555.555,0,0,0,200.984,91.36Zm.556-1.806h10.007v.694H201.54Z" transform="translate(-129.064 -56.902)"/></g></g></g></svg>