<svg xmlns="http://www.w3.org/2000/svg" width="173" height="119" viewBox="0 0 173 119"><defs><style>.a{fill:rgba(255,255,255,0.47);}.b{fill:#cecece;}.c{fill:#afafaf;}.d{fill:#e2e2e2;}.e{fill:#63bce7;}.f{fill:#6377e7;}.g{fill:#63e2e7;}.h{fill:#f8af23;}.i{fill:#9e9e9e;}.j{fill:#707070;}.k{fill:#3f3679;}</style></defs><g transform="translate(8099 9136)"><g transform="translate(0 137)"><rect class="a" width="173" height="119" rx="10" transform="translate(-8099 -9273)"/></g><g transform="translate(-8068.82 -9142.335)"><path class="b" d="M23.941,92.889a5.577,5.577,0,0,1-5.571-5.571V36.854a5.577,5.577,0,0,1,5.571-5.571h78.25a5.577,5.577,0,0,1,5.571,5.571V87.317a5.577,5.577,0,0,1-5.571,5.571Z" transform="translate(-6.249 -0.888)"/><g transform="translate(12.121 30.395)"><path class="c" d="M24.349,87.317V36.854a5.577,5.577,0,0,1,5.571-5.571H23.941a5.577,5.577,0,0,0-5.571,5.571V87.317a5.577,5.577,0,0,0,5.571,5.571h5.98A5.578,5.578,0,0,1,24.349,87.317Z" transform="translate(-18.37 -31.283)"/></g><g transform="translate(89.963 30.395)"><path class="d" d="M214.87,87.317V36.854a5.577,5.577,0,0,0-5.571-5.571h5.98a5.577,5.577,0,0,1,5.571,5.571V87.317a5.577,5.577,0,0,1-5.571,5.571H209.3A5.578,5.578,0,0,0,214.87,87.317Z" transform="translate(-209.299 -31.283)"/></g><path class="e" d="M109.314,87.405a2.149,2.149,0,0,1-2.143,2.143H28.922a2.149,2.149,0,0,1-2.143-2.143V41.834a2.149,2.149,0,0,1,2.143-2.143h78.25a2.149,2.149,0,0,1,2.143,2.143V87.405Z" transform="translate(-11.229 -5.869)"/><g transform="translate(15.55 33.822)"><path class="f" d="M32.759,87.405V41.834A2.149,2.149,0,0,1,34.9,39.691h-5.98a2.149,2.149,0,0,0-2.143,2.143V87.405a2.149,2.149,0,0,0,2.143,2.143H34.9A2.149,2.149,0,0,1,32.759,87.405Z" transform="translate(-26.779 -39.691)"/></g><g transform="translate(89.962 33.822)"><path class="g" d="M211.441,87.405V41.834a2.149,2.149,0,0,0-2.143-2.143h5.98a2.149,2.149,0,0,1,2.143,2.143V87.405a2.149,2.149,0,0,1-2.143,2.143H209.3A2.149,2.149,0,0,0,211.441,87.405Z" transform="translate(-209.298 -39.691)"/></g><g transform="translate(40.268 38.965)"><path class="b" d="M119.711,80.4,105.18,91.464a2.017,2.017,0,0,1-2.445,0L88.2,80.4a2.018,2.018,0,0,1-.8-1.606V58.383a2.018,2.018,0,0,1,1.475-1.944l14.532-4.059a2.02,2.02,0,0,1,1.086,0l14.532,4.059a2.018,2.018,0,0,1,1.475,1.944V78.8A2.019,2.019,0,0,1,119.711,80.4Z" transform="translate(-87.408 -52.306)"/><circle class="h" cx="9.823" cy="9.823" r="9.823" transform="translate(6.727 8.123)"/><g transform="translate(9.935 12.659)"><path class="e" d="M116.281,93.929a1.842,1.842,0,0,1-1.27-.506l-2.657-2.513a1.849,1.849,0,1,1,2.541-2.687l1.351,1.277,5.6-5.6a1.849,1.849,0,0,1,2.615,2.615l-6.875,6.875A1.845,1.845,0,0,1,116.281,93.929Z" transform="translate(-111.776 -83.357)"/></g></g><path class="i" d="M89.809,204.547H120.95v3.75H89.809Z" transform="translate(-48.562 -103.513)"/><g transform="translate(41.247 101.034)"><path class="j" d="M89.809,204.547h5.98v3.75h-5.98Z" transform="translate(-89.809 -204.547)"/></g><g transform="translate(66.408 101.034)"><path class="b" d="M151.525,204.547h5.98v3.75h-5.98Z" transform="translate(-151.525 -204.547)"/></g><path class="b" d="M100.67,182.389h22.284v9.034H100.67Z" transform="translate(-54.995 -90.389)"/><g transform="translate(45.675 92)"><path class="c" d="M100.67,182.389h5.98v9.034h-5.98Z" transform="translate(-100.67 -182.389)"/></g><g transform="translate(61.98 92)"><path class="d" d="M140.663,182.389h5.98v9.034h-5.98Z" transform="translate(-140.663 -182.389)"/></g><g transform="translate(7.82 29.783)"><circle class="i" cx="1.835" cy="1.835" r="1.835" transform="translate(47.163 56.222)"/><g transform="translate(0 0)"><path class="k" d="M15.771,223.217H8.432a.612.612,0,0,0,0,1.223h7.34a.612.612,0,0,0,0-1.223Z" transform="translate(-7.82 -144.354)"/><path class="k" d="M235.128,223.217h-7.34a.612.612,0,0,0,0,1.223h7.34a.612.612,0,0,0,0-1.223Z" transform="translate(-137.746 -144.354)"/><path class="k" d="M110.409,223.217H36.633a.612.612,0,0,0,0,1.223h73.777a.612.612,0,1,0,0-1.223Z" transform="translate(-24.524 -144.354)"/><path class="k" d="M8.432,105.4H105.2a.612.612,0,0,0,0-1.223H73v-3.138a.611.611,0,0,0-.612-.612H68.571V92.612H95.942a6.19,6.19,0,0,0,6.183-6.183V35.966a6.19,6.19,0,0,0-6.183-6.183H17.692a6.19,6.19,0,0,0-6.183,6.183V86.429a6.19,6.19,0,0,0,6.183,6.183H45.063v7.811H41.246a.611.611,0,0,0-.612.612v3.138H8.432a.612.612,0,1,0,0,1.223Zm4.3-18.966V35.966a4.965,4.965,0,0,1,4.96-4.96h78.25a4.965,4.965,0,0,1,4.96,4.96V86.429a4.965,4.965,0,0,1-4.96,4.96H17.692a4.965,4.965,0,0,1-4.96-4.96Zm33.554,6.183H67.348v7.811H46.286Zm-4.428,9.034H71.776v2.527H41.858Z" transform="translate(-7.82 -29.783)"/><path class="k" d="M109.037,86.517V40.945a2.758,2.758,0,0,0-2.754-2.754H28.033a2.758,2.758,0,0,0-2.754,2.754V86.517a2.757,2.757,0,0,0,2.754,2.754h78.25A2.757,2.757,0,0,0,109.037,86.517Zm-82.535,0V40.945a1.533,1.533,0,0,1,1.531-1.531h78.25a1.533,1.533,0,0,1,1.531,1.531V86.517a1.533,1.533,0,0,1-1.531,1.531H28.033A1.533,1.533,0,0,1,26.5,86.517Z" transform="translate(-18.161 -34.763)"/><path class="k" d="M118.308,54.962,103.776,50.9a2.637,2.637,0,0,0-1.415,0L87.83,54.962a2.638,2.638,0,0,0-1.922,2.532V77.907A2.645,2.645,0,0,0,86.944,80l14.532,11.064a2.636,2.636,0,0,0,3.186,0L119.193,80a2.644,2.644,0,0,0,1.036-2.092V57.494a2.638,2.638,0,0,0-1.922-2.532Zm.7,22.945a1.415,1.415,0,0,1-.554,1.119L103.921,90.09a1.41,1.41,0,0,1-1.7,0L87.685,79.026a1.413,1.413,0,0,1-.554-1.119V57.494a1.411,1.411,0,0,1,1.028-1.354L102.69,52.08a1.408,1.408,0,0,1,.757,0l14.532,4.059a1.411,1.411,0,0,1,1.028,1.354V77.907Z" transform="translate(-54.072 -42.235)"/><path class="k" d="M112.841,70.729a10.434,10.434,0,1,0,10.434,10.434A10.446,10.446,0,0,0,112.841,70.729Zm0,19.646a9.211,9.211,0,1,1,9.211-9.212A9.222,9.222,0,0,1,112.841,90.375Z" transform="translate(-63.844 -54.035)"/><path class="k" d="M120.528,82.579l-5.183,5.183-.919-.869a2.46,2.46,0,1,0-3.381,3.575l2.657,2.513a2.46,2.46,0,0,0,3.43-.048l6.875-6.875a2.461,2.461,0,1,0-3.481-3.479Zm2.615,2.615-6.875,6.875a1.267,1.267,0,0,1-1.725.024l-2.657-2.513a1.237,1.237,0,0,1,.816-2.136h.035a1.229,1.229,0,0,1,.849.338l1.351,1.277a.611.611,0,0,0,.853-.012l5.6-5.6a1.237,1.237,0,0,1,1.75,1.75Z" transform="translate(-68.505 -60.628)"/><path class="k" d="M124.446,166.184a2.446,2.446,0,1,0,2.446,2.446A2.449,2.449,0,0,0,124.446,166.184Zm0,3.669a1.223,1.223,0,1,1,1.223-1.223A1.225,1.225,0,0,1,124.446,169.853Z" transform="translate(-75.449 -110.574)"/></g></g></g></g></svg>