<svg xmlns="http://www.w3.org/2000/svg" width="173" height="119" viewBox="0 0 173 119"><defs><style>.a{fill:rgba(255,255,255,0.47);}.b{fill:#cecece;}.c{fill:#afafaf;}.d{fill:#e2e2e2;}.e{fill:#63bce7;}.f{fill:#6377e7;}.g{fill:#63e2e7;}.h{fill:#9e9e9e;}.i{fill:#707070;}.j{fill:#f46275;}.k{fill:#3f3679;}</style></defs><g transform="translate(8099 9408)"><rect class="a" width="173" height="119" rx="10" transform="translate(-8099 -9408)"/><g transform="translate(-8072.748 -9412.776)"><path class="b" d="M24.331,103.866A5.968,5.968,0,0,1,18.37,97.9v-54a5.968,5.968,0,0,1,5.961-5.961H108.06a5.968,5.968,0,0,1,5.961,5.961v54a5.968,5.968,0,0,1-5.961,5.961Z" transform="translate(-5.948 -8.359)"/><g transform="translate(12.422 29.588)"><path class="c" d="M24.768,97.9v-54a5.968,5.968,0,0,1,5.961-5.961h-6.4a5.968,5.968,0,0,0-5.961,5.961v54a5.968,5.968,0,0,0,5.961,5.961h6.4A5.969,5.969,0,0,1,24.768,97.9Z" transform="translate(-18.37 -37.947)"/></g><g transform="translate(95.714 29.588)"><path class="d" d="M215.26,97.9v-54a5.968,5.968,0,0,0-5.961-5.961h6.4a5.968,5.968,0,0,1,5.961,5.961v54a5.968,5.968,0,0,1-5.961,5.961h-6.4A5.969,5.969,0,0,0,215.26,97.9Z" transform="translate(-209.299 -37.947)"/></g><path class="e" d="M115.093,97.41A2.3,2.3,0,0,1,112.8,99.7H29.072a2.3,2.3,0,0,1-2.293-2.293V48.648a2.3,2.3,0,0,1,2.293-2.293H112.8a2.3,2.3,0,0,1,2.293,2.293V97.41Z" transform="translate(-10.688 -13.099)"/><g transform="translate(16.091 33.256)"><path class="f" d="M33.177,97.41V48.648a2.3,2.3,0,0,1,2.293-2.293h-6.4a2.3,2.3,0,0,0-2.293,2.293V97.41A2.3,2.3,0,0,0,29.072,99.7h6.4A2.3,2.3,0,0,1,33.177,97.41Z" transform="translate(-26.779 -46.355)"/></g><g transform="translate(95.714 33.256)"><path class="g" d="M211.591,97.41V48.648a2.3,2.3,0,0,0-2.293-2.293h6.4a2.3,2.3,0,0,1,2.293,2.293V97.41A2.3,2.3,0,0,1,215.7,99.7h-6.4A2.3,2.3,0,0,0,211.591,97.41Z" transform="translate(-209.298 -46.355)"/></g><path class="h" d="M89.809,211.211h33.322v4.012H89.809Z" transform="translate(-46.222 -106.038)"/><g transform="translate(43.587 105.173)"><path class="i" d="M89.809,211.211h6.4v4.012h-6.4Z" transform="translate(-89.809 -211.211)"/></g><path class="b" d="M100.67,189.053h23.845v9.666H100.67Z" transform="translate(-52.345 -93.546)"/><g transform="translate(48.325 95.507)"><path class="c" d="M100.67,189.053h6.4v9.666h-6.4Z" transform="translate(-100.67 -189.053)"/></g><circle class="h" cx="1.963" cy="1.963" r="1.963" transform="translate(58.285 89.092)"/><g transform="translate(70.315 83.435)"><path class="b" d="M186.689,174.255H153.222a2.146,2.146,0,0,1-2.146-2.146v-8.584a2.146,2.146,0,0,1,2.146-2.146h33.467a2.146,2.146,0,0,1,2.146,2.146v8.584A2.146,2.146,0,0,1,186.689,174.255Z" transform="translate(-151.076 -161.38)"/></g><g transform="translate(70.315 96.31)"><path class="b" d="M186.689,203.769H153.222a2.146,2.146,0,0,1-2.146-2.146V193.04a2.146,2.146,0,0,1,2.146-2.146h33.467a2.146,2.146,0,0,1,2.146,2.146v8.584A2.146,2.146,0,0,1,186.689,203.769Z" transform="translate(-151.076 -190.894)"/></g><g transform="translate(70.315 70.56)"><path class="b" d="M186.689,144.742H153.222a2.146,2.146,0,0,1-2.146-2.146v-8.584a2.146,2.146,0,0,1,2.146-2.146h33.467a2.146,2.146,0,0,1,2.146,2.146V142.6A2.146,2.146,0,0,1,186.689,144.742Z" transform="translate(-151.076 -131.867)"/></g><g transform="translate(99.529 70.56)"><path class="d" d="M224.442,131.867h-6.4a2.146,2.146,0,0,1,2.146,2.146V142.6a2.146,2.146,0,0,1-2.146,2.146h6.4a2.146,2.146,0,0,0,2.146-2.146v-8.584A2.146,2.146,0,0,0,224.442,131.867Z" transform="translate(-218.044 -131.867)"/></g><g transform="translate(99.529 83.435)"><path class="d" d="M224.442,161.381h-6.4a2.146,2.146,0,0,1,2.146,2.146v8.584a2.146,2.146,0,0,1-2.146,2.146h6.4a2.146,2.146,0,0,0,2.146-2.146v-8.584A2.146,2.146,0,0,0,224.442,161.381Z" transform="translate(-218.044 -161.381)"/></g><g transform="translate(99.529 96.31)"><path class="d" d="M224.442,190.894h-6.4a2.146,2.146,0,0,1,2.146,2.146v8.584a2.146,2.146,0,0,1-2.146,2.146h6.4a2.146,2.146,0,0,0,2.146-2.146V193.04A2.146,2.146,0,0,0,224.442,190.894Z" transform="translate(-218.044 -190.894)"/></g><g transform="translate(74.219 75.611)"><path class="j" d="M179,146.219H161.079a1.057,1.057,0,0,1-1.054-1.054V144.5a1.057,1.057,0,0,1,1.054-1.054H179a1.057,1.057,0,0,1,1.054,1.054v.666A1.057,1.057,0,0,1,179,146.219Z" transform="translate(-160.025 -143.446)"/><path class="j" d="M179,175.733H161.079a1.057,1.057,0,0,1-1.054-1.054v-.666a1.057,1.057,0,0,1,1.054-1.054H179a1.057,1.057,0,0,1,1.054,1.054v.666A1.057,1.057,0,0,1,179,175.733Z" transform="translate(-160.025 -160.085)"/><path class="j" d="M179,205.246H161.079a1.057,1.057,0,0,1-1.054-1.054v-.666a1.057,1.057,0,0,1,1.054-1.053H179a1.057,1.057,0,0,1,1.054,1.053v.666A1.056,1.056,0,0,1,179,205.246Z" transform="translate(-160.025 -176.723)"/><path class="j" d="M221.186,146.219h-.666a1.057,1.057,0,0,1-1.054-1.054V144.5a1.057,1.057,0,0,1,1.054-1.054h.666a1.057,1.057,0,0,1,1.054,1.054v.666A1.056,1.056,0,0,1,221.186,146.219Z" transform="translate(-193.536 -143.446)"/><path class="j" d="M221.186,175.733h-.666a1.057,1.057,0,0,1-1.054-1.054v-.666a1.057,1.057,0,0,1,1.054-1.054h.666a1.057,1.057,0,0,1,1.054,1.054v.666A1.056,1.056,0,0,1,221.186,175.733Z" transform="translate(-193.536 -160.085)"/><path class="j" d="M221.186,205.246h-.666a1.057,1.057,0,0,1-1.054-1.054v-.666a1.057,1.057,0,0,1,1.054-1.053h.666a1.057,1.057,0,0,1,1.054,1.053v.666A1.056,1.056,0,0,1,221.186,205.246Z" transform="translate(-193.536 -176.723)"/></g><g transform="translate(7.82 23.119)"><path class="b" d="M117.137,49.059c-.147.412-.315.808-.5,1.2l3.692,3.692-7.26,7.26L109.38,57.52c-.393.183-.793.35-1.2.5V63.24H97.915V58.017c-.408-.148-.808-.315-1.2-.5l-3.692,3.692-7.259-7.26,3.692-3.692c-.183-.393-.35-.789-.5-1.2H83.735V38.8h5.223c.148-.408.315-.808.5-1.2L85.764,33.9l7.26-7.26,3.692,3.7c.393-.183.793-.354,1.2-.5V24.619H108.18v5.219c.408.148.808.319,1.2.5l3.692-3.7,7.26,7.26L116.64,37.6c.183.393.35.793.5,1.2h5.219V49.06h-5.22Z" transform="translate(-50.617 -23.965)"/><circle class="h" cx="7.137" cy="7.137" r="7.137" transform="translate(45.291 12.828)"/><path class="k" d="M16.328,229.881H8.474a.654.654,0,1,0,0,1.309h7.854a.654.654,0,1,0,0-1.309Z" transform="translate(-7.82 -139.682)"/><path class="k" d="M235.685,229.881h-7.854a.654.654,0,1,0,0,1.309h7.854a.654.654,0,1,0,0-1.309Z" transform="translate(-131.484 -139.682)"/><path class="k" d="M115.617,229.881H36.675a.654.654,0,1,0,0,1.309h78.942a.654.654,0,1,0,0-1.309Z" transform="translate(-23.718 -139.682)"/><path class="k" d="M8.474,109.84H112.021a.654.654,0,0,0,0-1.309h-3.728a2.781,2.781,0,0,0,.435-1.492V98.456a2.793,2.793,0,0,0-1-2.145,2.794,2.794,0,0,0,1-2.146V35.548a6.623,6.623,0,0,0-6.615-6.616H74.336l-3.6-3.6a.673.673,0,0,0-.926,0L66.44,28.71q-.206-.09-.4-.169V23.773a.654.654,0,0,0-.654-.654H55.119a.654.654,0,0,0-.654.654v4.769c-.131.053-.265.109-.4.169l-3.372-3.376a.655.655,0,0,0-.926,0l-3.6,3.6H18.383a6.623,6.623,0,0,0-6.615,6.616v54a6.623,6.623,0,0,0,6.615,6.616H47.671v8.358H43.587a.654.654,0,0,0-.654.654v3.358H8.474a.655.655,0,0,0,0,1.309Zm98.945-11.384v8.584a1.493,1.493,0,0,1-1.491,1.492H72.461a1.493,1.493,0,0,1-1.492-1.492V98.456a1.493,1.493,0,0,1,1.492-1.491h33.467A1.493,1.493,0,0,1,107.419,98.456ZM42.894,33.91l2.983,2.983q-.088.2-.167.4H40.938a.654.654,0,0,0-.654.654V48.213a.654.654,0,0,0,.654.654h4.771q.079.2.168.4L42.5,52.643a.655.655,0,0,0,0,.926l7.26,7.259a.654.654,0,0,0,.925,0l3.373-3.373q.2.087.4.167v4.772a.654.654,0,0,0,.654.654H65.382a.654.654,0,0,0,.654-.654V57.622q.2-.08.4-.167l3.373,3.373a.654.654,0,0,0,.925,0L78,53.568a.655.655,0,0,0,0-.926L74.624,49.27c.059-.137.115-.27.168-.4h4.767a.654.654,0,0,0,.654-.654V37.95a.654.654,0,0,0-.654-.654H74.791q-.08-.2-.167-.4l2.983-2.983h24.506a1.64,1.64,0,0,1,1.638,1.639V69.905H72.461a2.8,2.8,0,0,0-2.8,2.8v8.584a2.794,2.794,0,0,0,1,2.145,2.794,2.794,0,0,0-1,2.146v.368H18.383a1.64,1.64,0,0,1-1.638-1.639V35.548a1.64,1.64,0,0,1,1.638-1.639Zm64.525,47.379a1.493,1.493,0,0,1-1.491,1.491H72.461a1.493,1.493,0,0,1-1.492-1.491V72.706a1.493,1.493,0,0,1,1.492-1.492h33.467a1.493,1.493,0,0,1,1.491,1.492ZM72.461,95.656a1.493,1.493,0,0,1-1.492-1.492V85.581a1.493,1.493,0,0,1,1.492-1.492h33.467a1.493,1.493,0,0,1,1.491,1.492v8.584a1.493,1.493,0,0,1-1.491,1.492Zm29.652-65.414a5.313,5.313,0,0,1,5.306,5.307V70.34a2.78,2.78,0,0,0-1.491-.435h-.869V35.548a2.95,2.95,0,0,0-2.947-2.947H78s0,0,0-.007l-2.353-2.353h26.469ZM50.225,26.724l3.229,3.233a.655.655,0,0,0,.739.131c.418-.194.793-.351,1.147-.479a.654.654,0,0,0,.432-.616V24.428h8.954v4.565a.655.655,0,0,0,.432.616c.356.129.732.286,1.147.479a.655.655,0,0,0,.739-.131l3.229-3.233,6.335,6.333-3.229,3.229a.655.655,0,0,0-.13.739c.179.386.339.772.475,1.147a.655.655,0,0,0,.616.432H78.9v8.954H74.339a.654.654,0,0,0-.616.434c-.132.368-.287.742-.474,1.145a.654.654,0,0,0,.13.739l3.229,3.229-6.334,6.334L67.045,56.21a.653.653,0,0,0-.739-.13c-.387.18-.773.339-1.147.475a.654.654,0,0,0-.432.616v4.569H55.773V57.171a.655.655,0,0,0-.432-.616c-.373-.135-.759-.295-1.148-.476a.654.654,0,0,0-.738.131l-3.229,3.229-6.334-6.334,3.229-3.229a.654.654,0,0,0,.131-.738c-.189-.407-.344-.782-.475-1.146a.654.654,0,0,0-.616-.434H41.592V38.6h4.569a.655.655,0,0,0,.616-.432c.134-.372.294-.758.475-1.148a.653.653,0,0,0-.131-.738l-3.229-3.23ZM13.077,89.546v-54a5.313,5.313,0,0,1,5.306-5.307H44.856L42.5,32.594s0,0,0,.007H18.383a2.95,2.95,0,0,0-2.947,2.947V84.31a2.95,2.95,0,0,0,2.947,2.947H69.66v6.907a2.794,2.794,0,0,0,.089.688H18.383a5.312,5.312,0,0,1-5.306-5.306Zm35.9,6.616H70.5q.079.078.164.149a2.794,2.794,0,0,0-1,2.145v6.063H48.98Zm-4.738,9.666H69.66v1.212a2.781,2.781,0,0,0,.435,1.492H44.242Z" transform="translate(-7.82 -23.119)"/><path class="k" d="M124.617,178.083A2.617,2.617,0,1,0,122,175.465,2.62,2.62,0,0,0,124.617,178.083Zm0-3.926a1.309,1.309,0,1,1-1.309,1.309A1.31,1.31,0,0,1,124.617,174.157Z" transform="translate(-72.19 -107.53)"/><path class="k" d="M178.152,141.945H160.233a1.71,1.71,0,0,0-1.708,1.708v.666a1.71,1.71,0,0,0,1.708,1.708h17.919a1.71,1.71,0,0,0,1.708-1.708v-.666A1.709,1.709,0,0,0,178.152,141.945Zm.4,2.374a.4.4,0,0,1-.4.4H160.233a.4.4,0,0,1-.4-.4v-.666a.4.4,0,0,1,.4-.4h17.919a.4.4,0,0,1,.4.4v.666Z" transform="translate(-92.781 -90.108)"/><path class="k" d="M178.152,171.459H160.233a1.71,1.71,0,0,0-1.708,1.708v.666a1.71,1.71,0,0,0,1.708,1.708h17.919a1.71,1.71,0,0,0,1.708-1.708v-.666A1.709,1.709,0,0,0,178.152,171.459Zm.4,2.374a.4.4,0,0,1-.4.4H160.233a.4.4,0,0,1-.4-.4v-.666a.4.4,0,0,1,.4-.4h17.919a.4.4,0,0,1,.4.4v.666Z" transform="translate(-92.781 -106.746)"/><path class="k" d="M160.233,205.056h17.919a1.71,1.71,0,0,0,1.708-1.708v-.666a1.71,1.71,0,0,0-1.708-1.708H160.233a1.71,1.71,0,0,0-1.708,1.708v.666A1.71,1.71,0,0,0,160.233,205.056Zm-.4-2.374a.4.4,0,0,1,.4-.4h17.919a.4.4,0,0,1,.4.4v.666a.4.4,0,0,1-.4.4H160.233a.4.4,0,0,1-.4-.4Z" transform="translate(-92.781 -123.386)"/><path class="k" d="M220.341,141.945h-.666a1.71,1.71,0,0,0-1.708,1.708v.666a1.71,1.71,0,0,0,1.708,1.708h.666a1.71,1.71,0,0,0,1.708-1.708v-.666A1.71,1.71,0,0,0,220.341,141.945Zm.4,2.374a.4.4,0,0,1-.4.4h-.666a.4.4,0,0,1-.4-.4v-.666a.4.4,0,0,1,.4-.4h.666a.4.4,0,0,1,.4.4Z" transform="translate(-126.292 -90.108)"/><path class="k" d="M220.341,171.459h-.666a1.71,1.71,0,0,0-1.708,1.708v.666a1.71,1.71,0,0,0,1.708,1.708h.666a1.71,1.71,0,0,0,1.708-1.708v-.666A1.71,1.71,0,0,0,220.341,171.459Zm.4,2.374a.4.4,0,0,1-.4.4h-.666a.4.4,0,0,1-.4-.4v-.666a.4.4,0,0,1,.4-.4h.666a.4.4,0,0,1,.4.4Z" transform="translate(-126.292 -106.746)"/><path class="k" d="M219.675,205.056h.666a1.71,1.71,0,0,0,1.708-1.708v-.666a1.71,1.71,0,0,0-1.708-1.708h-.666a1.71,1.71,0,0,0-1.708,1.708v.666A1.71,1.71,0,0,0,219.675,205.056Zm-.4-2.374a.4.4,0,0,1,.4-.4h.666a.4.4,0,0,1,.4.4v.666a.4.4,0,0,1-.4.4h-.666a.4.4,0,0,1-.4-.4Z" transform="translate(-126.292 -123.386)"/><path class="k" d="M117.932,66.607a7.791,7.791,0,1,0-7.791-7.791A7.8,7.8,0,0,0,117.932,66.607Zm0-14.274a6.483,6.483,0,1,1-6.482,6.483A6.49,6.49,0,0,1,117.932,52.333Z" transform="translate(-65.504 -38.851)"/></g></g></g></svg>