<svg xmlns="http://www.w3.org/2000/svg" xmlns:xlink="http://www.w3.org/1999/xlink" width="391.458" height="394.012" viewBox="0 0 391.458 394.012"><defs><style>.a{fill:url(#a);}.b{fill:#8d9797;}.c{fill:#e2e8e8;}.d{fill:#c4c9c9;}.e{fill:#d2d6d5;}.f{fill:#f2f3f3;}.g{fill:#7d8989;}.h{fill:#fdfeff;}.i,.y{opacity:0.69;}.ae,.ah,.i,.j,.n,.w,.y{mix-blend-mode:multiply;}.ac,.ad,.ae,.ag,.ah,.i,.j,.n,.o,.w,.x,.y{isolation:isolate;}.i{fill:url(#b);}.j{opacity:0.47;fill:url(#d);}.k{fill:#929292;}.l{fill:#fdfdfd;}.m{fill:#aeaeae;}.n{fill:#ffd13e;}.ag,.o,.x{mix-blend-mode:overlay;}.o{fill:url(#e);}.p{fill:#eaeaea;}.q{fill:#c4c4c4;}.r{fill:#727272;}.s{fill:#e1e1e1;}.t{fill:#797979;}.u{fill:#c5c5c5;}.v{fill:#fff;}.w{fill:#52fffc;}.x{fill:url(#f);}.y{fill:url(#g);}.z{fill:#d6d6d6;}.aa{fill:#efefef;}.ab{fill:#666;}.ac{fill:#f77219;mix-blend-mode:hard-light;}.ad{opacity:0.33;mix-blend-mode:color-dodge;fill:url(#h);}.ae{fill:#60432b;}.af{fill:#969696;}.ag{opacity:0.27;fill:url(#i);}.ah{fill:#595959;}</style><linearGradient id="a" y1="0.025" x2="0.958" y2="0.971" gradientUnits="objectBoundingBox"><stop offset="0" stop-color="#b1ffec"/><stop offset="1" stop-color="#a5d2ff"/></linearGradient><radialGradient id="b" cx="0.5" cy="0.5" r="0.5" gradientUnits="objectBoundingBox"><stop offset="0"/><stop offset="0.039" stop-color="#151515"/><stop offset="0.147" stop-color="#4b4b4b"/><stop offset="0.258" stop-color="#7b7b7b"/><stop offset="0.372" stop-color="#a3a3a3"/><stop offset="0.487" stop-color="#c4c4c4"/><stop offset="0.606" stop-color="#dedede"/><stop offset="0.728" stop-color="#f0f0f0"/><stop offset="0.856" stop-color="#fbfbfb"/><stop offset="1" stop-color="#fff"/></radialGradient><radialGradient id="d" cx="0.5" gradientTransform="matrix(0, 1, -1, 0, -0.106, -0.951)" xlink:href="#b"/><linearGradient id="e" y1="0.5" x2="1" y2="0.5" gradientUnits="objectBoundingBox"><stop offset="0" stop-color="#d36f33"/><stop offset="1" stop-color="#d14aff"/></linearGradient><linearGradient id="f" x1="0.502" y1="0.081" x2="0.488" y2="1.005" gradientUnits="objectBoundingBox"><stop offset="0" stop-color="#ffb0b0"/><stop offset="1" stop-color="#2aa6ff"/></linearGradient><radialGradient id="g" cx="0.5" gradientTransform="matrix(0.707, 0.707, -0.707, 0.707, 0.5, -0.207)" xlink:href="#b"/><linearGradient id="h" x1="0.472" y1="0.348" x2="0.617" y2="1.139" gradientUnits="objectBoundingBox"><stop offset="0" stop-color="#2ec9ae"/><stop offset="1" stop-color="#bf00b0"/></linearGradient><linearGradient id="i" x1="0.572" y1="0.126" x2="0.393" y2="1.284" gradientUnits="objectBoundingBox"><stop offset="0" stop-color="#fff"/><stop offset="0.11" stop-color="#fafafa"/><stop offset="0.234" stop-color="#ececec"/><stop offset="0.365" stop-color="#d6d6d6"/><stop offset="0.5" stop-color="#b6b6b6"/><stop offset="0.639" stop-color="#8d8d8d"/><stop offset="0.781" stop-color="#5c5c5c"/><stop offset="0.923" stop-color="#222"/><stop offset="1"/></linearGradient></defs><g transform="translate(-917.464 -3588.988)"><rect class="a" width="282.479" height="282.479" rx="23" transform="translate(972 3700.521)"/><g transform="translate(917.464 3588.988)"><g transform="translate(1.479 0)"><path class="b" d="M617.553,230.881l-.009-.256-.015-.258-.02-.259-.026-.261-.031-.262-.037-.263-.042-.264-.047-.265-.052-.265-.058-.266-.062-.266-.067-.267-.072-.267-.077-.267-.082-.267-.086-.266-.091-.266-.1-.266-.1-.265-.1-.264-.109-.263-.113-.262-.117-.261-.121-.26-.125-.258-.129-.257-.133-.255-.137-.254-.141-.252-.144-.25-.148-.248-.151-.245-.155-.243-.158-.24-.161-.238-.164-.235-.167-.232-.171-.229-.174-.226-.177-.223-.179-.219-.182-.216-.185-.212-.188-.208-.19-.2-.192-.2-.195-.2-.2-.192-.2-.187-.2-.183-.2-.178-.206-.173-.207-.168-.21-.163-.211-.158-.213-.152-.215-.147-.216-.141-.218-.136-.219-.13-199.5-115.18-.219-.123-.218-.116-.216-.108-.215-.1-.213-.094-.211-.086-.21-.079-.207-.072-.206-.064-.2-.057-.2-.05-.2-.043-.2-.036-.195-.029-.193-.022-.19-.015-.187-.008-.185,0-.182.005-.18.012-.177.019-.174.025-.171.032-.168.039-.165.045-.161.052-.158.058-.155.064-.151.071-3.54,2.043.151-.071.155-.064.158-.058.161-.051L401.7,103l.168-.039.171-.032.174-.025.176-.019.179-.012.182-.005h.185l.188.008.19.015.193.022.195.029.2.036.2.043.2.05.2.057.205.065.208.071.209.079.211.086.213.093.214.1.216.108.218.116.219.123,199.5,115.18.219.13.218.136.216.141.215.147.213.153.211.158.209.163.207.168.206.173.2.178.2.183.2.187.2.192.195.2.192.2.19.2.187.208.185.212.182.216.179.219.177.223.174.226.171.229.168.232.164.235.161.238.158.24.155.243.151.245.148.248.144.25.141.252.137.254.133.256.129.257.126.259.121.26.117.261.113.262.109.263.1.264.1.265.1.266.091.266.087.266.081.267.077.267.072.267.067.267.062.266.057.266.052.265.047.265.042.264.037.263.031.262.026.261.02.259.014.258.009.256,0,.255V389.215l0,.251-.009.246-.014.241-.02.236-.026.231-.031.226-.037.221-.042.215-.047.21-.052.2-.057.2-.062.194-.067.189-.073.183-.077.178-.081.172-.087.166-.091.161-.1.155-.1.149-.1.144-.109.138-.113.132-.117.126-.121.12h0l-.126.114-.129.108-.133.1-.137.1,3.539-2.044.137-.1.133-.1.129-.108h0l.125-.114.121-.12.117-.126.113-.132.109-.138.1-.143.1-.149.1-.155.091-.161.086-.166.082-.172.077-.178.072-.183.067-.189.062-.194.058-.2.052-.2.047-.21.042-.216.037-.221.031-.226.026-.231.02-.236.015-.242.009-.246,0-.251V231.136Z" transform="translate(-251.725 -100.823)"/><path class="c" d="M611.5,234.9l-.009-.257-.015-.258-.02-.259-.026-.261-.031-.262-.037-.263-.042-.263-.047-.265-.052-.265-.057-.266-.062-.266-.067-.266-.073-.267-.077-.266-.081-.267-.087-.266-.091-.266-.1-.266-.1-.265-.1-.264-.109-.263-.113-.262-.117-.261-.121-.26-.126-.259-.129-.257-.133-.256-.137-.254-.141-.252-.144-.25-.148-.248-.151-.245-.155-.243-.158-.24-.161-.238-.164-.235-.168-.232-.171-.229-.173-.226-.177-.223-.179-.219-.182-.216-.185-.211-.187-.208-.19-.2-.192-.2-.2-.2-.2-.192-.2-.187-.2-.182-.2-.178-.206-.173-.208-.168-.209-.163-.211-.158-.213-.152-.215-.147-.216-.141-.218-.136-.219-.13-199.5-115.18-.22-.124-.218-.115-.216-.108-.215-.1-.213-.094-.211-.086-.209-.079-.208-.072L402,105.1l-.2-.057-.2-.05-.2-.043-.2-.036L401,104.89l-.193-.022-.19-.015-.188-.008-.185,0-.182.005-.179.012-.176.019-.174.025-.171.032-.168.039-.164.045-.161.051-.158.058-.155.065-.151.071-.147.077-.144.083-.141.089-.137.1-.133.1-.129.108-.126.114-.121.12-.117.126-.113.132-.109.138-.1.144-.1.149-.1.155-.091.161-.086.166-.082.172-.077.177-.073.183-.068.189-.062.194-.057.2-.052.205-.047.21-.042.216-.037.221-.031.226-.025.231-.02.236-.014.241-.009.247,0,.251V266.66l0,.255.009.256.014.258.02.26.025.26.031.262.037.263.042.264.047.264.052.265.057.266.062.266.068.266.073.267.077.267.082.266.086.266.091.266.1.265.1.265.1.264.109.263.113.262.117.261.121.26.126.259.129.257.133.256.137.254.141.252.144.25.147.248.151.246.155.243.158.24.161.238.164.235.168.232.171.229.174.226.176.222.179.22.182.215.185.212.188.208.19.2.193.2.195.2.2.192.2.188.2.182.2.178.205.173.208.168.209.163.211.158.213.152.215.147.07.046.122.062.025.014.2.107.016.01.206.115.012.008.9.521h0L603.4,395.818l.219.131.2.125.021.014.116.077.1.051.215.1.213.094.211.086.209.079.208.071.206.065.2.057.2.05.2.043.2.036.2.029.192.022.19.016.188.008h.185l.182-.006.179-.012.177-.018.173-.025.171-.032.168-.039.164-.045.161-.051.158-.058.155-.065.151-.071.148-.077.144-.083.141-.089.137-.1.133-.1.129-.108.126-.114.121-.12.116-.126.113-.132.109-.138.1-.143.1-.149.1-.155.091-.161.087-.167.081-.172.077-.178.073-.183.067-.189.063-.194.057-.2.052-.2.047-.21.042-.216.037-.221.031-.226.025-.231.02-.236.015-.241.009-.247,0-.251V235.156Zm-9.493,149.875L403.885,270.389V113.65L602.011,228.038Z" transform="translate(-249.216 -102.799)"/><path class="b" d="M464.935,651.172l-.022.166-.029.166-.036.165-.043.165-.051.164-.058.164-.065.163-.072.162-.079.161-.086.16-.094.159-.1.158-.108.157-.115.156-.123.154-.13.153-.137.151-.144.149-.151.148-.159.146-.166.144-.173.142-.18.14-.187.138-.194.135-.2.133-.209.131-.216.128L326.474,733.451h0l-.222.125-.226.121-.23.117-.235.112-.239.108-.242.1-.246.1-.249.1-.253.091-.256.087-.259.083-.262.079-.265.075-.267.071-.27.067-.272.063-.274.058-.276.054-.278.05-.279.046-.281.042-.282.037-.284.033-.285.029-.286.025-.286.021-.288.017-.287.013-.288.008-.288,0h-.288l-.288,0-.288-.008-.288-.013-.287-.017-.286-.021-.286-.025-.285-.029-.284-.033-.282-.037-.281-.042-.28-.046-.278-.05-.276-.054-.274-.058-.272-.063-.27-.067-.267-.071-.265-.075-.262-.079-.259-.083-.256-.087-.253-.091-.249-.1-.246-.1-.242-.1-.238-.108-.235-.112-.23-.117-.227-.121-.222-.125-199.5-115.18-.216-.128-.209-.131-.2-.133-.195-.135-.187-.138-.18-.14-.173-.142-.166-.144-.159-.146-.151-.148-.144-.149-.137-.151-.13-.153-.122-.154-.115-.156-.108-.157-.1-.158-.094-.159-.087-.161-.079-.161-.072-.162-.065-.163-.058-.164-.05-.165-.043-.165-.036-.166-.029-.166-.022-.166-.014-.166v11.691l.014.166.022.166.029.166.036.165.043.165.05.164.058.164.065.163.072.162.079.161.087.16.094.159.1.158.108.157.115.156.122.154.13.153.137.151.144.15.151.148.159.146.166.144.173.142.18.14.187.138.195.135.2.133.209.131.216.128h0l199.5,115.179.222.125.227.121.23.116.235.112.238.108.242.1.246.1.249.1.253.091.256.087.259.083.262.079.265.075.267.071.27.067.272.063.274.058.276.054.278.05.28.046.281.042.282.038.284.033.285.029.286.025.286.021.287.017.288.012.288.008.288,0h.288l.288,0,.288-.008.287-.012.288-.017.286-.021.286-.025.285-.029.284-.033.282-.038.281-.042.279-.046.278-.05.276-.054.274-.058.272-.062.27-.067.267-.071.265-.075.262-.079.259-.083.256-.087.253-.092.249-.1.246-.1.242-.1.239-.108.235-.112.23-.116.226-.121.222-.125h0l135.131-78.018.216-.128.209-.131.2-.133.194-.135.187-.138.18-.14.173-.142.166-.144.159-.146.151-.148.144-.149.137-.151.13-.153.123-.154.115-.156.108-.157.1-.158.094-.159.086-.16.079-.161.072-.162.065-.163.058-.164.051-.164.043-.165.036-.165.029-.166.022-.166.015-.166V651.006Z" transform="translate(-107.427 -353.064)"/><path class="d" d="M302.779,458.233,203.8,515.381,401.922,629.769l98.984-57.148Z" transform="translate(-154.806 -276.554)"/><path class="e" d="M464.943,568.406l-.014-.166-.022-.166-.028-.166-.036-.166-.043-.165-.051-.165-.057-.164-.065-.163-.072-.162-.079-.162-.086-.16-.094-.16-.1-.158-.108-.157-.115-.156-.123-.154-.13-.152-.137-.151-.144-.149-.151-.148-.159-.146-.166-.144-.173-.142-.18-.14-.187-.137-.195-.136-.064-.042-.116-.077-.021-.014-.209-.131-.216-.128L263.017,449.328l-.9-.52-.012-.008-.206-.115-.016-.01-.2-.107-.025-.014-.121-.062-.109-.055-.234-.112-.238-.108-.242-.1-.246-.1-.25-.1-.253-.092-.256-.087-.259-.083-.262-.079-.264-.075-.267-.071-.269-.067-.271-.062-.274-.058-.276-.054-.278-.05-.28-.046-.281-.042-.282-.037-.284-.034-.285-.029-.286-.025-.287-.021-.287-.017-.288-.013-.288-.008-.289,0h-.288l-.288,0-.288.008-.288.013-.287.017-.287.021-.286.025-.285.029-.284.034-.283.037-.281.042-.28.046-.278.05-.276.054-.274.058-.271.062-.269.067-.267.071-.265.075-.261.079-.259.083-.256.087-.253.092-.25.1-.245.1-.242.1-.238.108-.235.112-.23.116-.227.12-.222.125h0L110.771,526.818l-.217.128-.209.131-.2.133-.194.136-.188.137-.18.14-.173.142-.166.144-.159.146-.151.148-.144.149-.137.152-.13.152-.122.154-.115.156-.108.157-.1.158-.094.16-.086.16-.079.162-.072.162-.065.163-.058.164-.05.165-.043.165-.036.166-.029.166-.021.166-.014.166-.007.167v.166l.007.167.014.166.021.166.029.166.036.166.043.165.05.165.058.164.065.163.072.162.079.162.086.16.094.16.1.158.108.156.115.156.122.154.13.152.137.151.144.149.151.148.159.146.166.144.173.142.18.14.188.137.194.136.2.133.209.131.217.128,199.5,115.18.222.125.227.12.23.116.235.112.238.108.242.1.246.1.25.1.253.091.256.087.259.083.262.079.264.075.267.071.269.067.271.062.274.058.276.054.278.05.28.046.281.042.282.038.284.033.285.029.286.025.287.021.287.016.288.013.288.008.289,0h.288l.288,0,.288-.008.287-.013.288-.016.287-.021.286-.025.285-.029.284-.033.282-.038.281-.042.28-.046.278-.05.276-.054.273-.058.272-.062.269-.067.267-.071.264-.075.262-.079.259-.083.256-.087.253-.091.249-.1.246-.1.242-.1.238-.108.235-.112.23-.116.226-.12.222-.125L461.6,573.332h0l.216-.128.209-.131.2-.133.195-.135.187-.138.18-.14.173-.142.166-.144.159-.146.151-.148.144-.149.137-.151.13-.153.123-.154.115-.156.108-.157.1-.159.094-.159.086-.16.079-.162.072-.162.065-.163.057-.164.051-.165.043-.165.036-.165.028-.166.022-.166.014-.166.007-.167v-.166Zm-11.423-1.375h0L354.536,624.18,156.41,509.792h0l98.983-57.148h0L453.519,567.032h0Z" transform="translate(-107.42 -270.964)"/><g transform="translate(60.011 193.934)"><path class="f" d="M413.559,635.342,225.477,526.753,302.4,482.341,490.483,590.93Z" transform="translate(-225.477 -482.341)"/><path class="g" d="M371.329,505.036l-10.488-6.055,6.413-3.7,10.488,6.055Z" transform="translate(-292.032 -488.702)"/><path class="g" d="M397.04,519.88l-10.488-6.055,6.413-3.7,10.488,6.055Z" transform="translate(-304.674 -496)"/><path class="g" d="M422.751,534.724l-10.488-6.055,6.413-3.7,10.488,6.055Z" transform="translate(-317.316 -503.299)"/><path class="g" d="M448.462,549.568l-10.488-6.055,6.413-3.7,10.488,6.055Z" transform="translate(-329.957 -510.597)"/><path class="g" d="M474.173,564.413l-10.488-6.055,6.413-3.7,10.488,6.055Z" transform="translate(-342.599 -517.896)"/><path class="g" d="M499.884,579.257,489.4,573.2l6.413-3.7,10.488,6.055Z" transform="translate(-355.24 -525.195)"/><path class="g" d="M525.595,594.1l-10.488-6.055,6.413-3.7,10.488,6.055Z" transform="translate(-367.882 -532.493)"/><path class="g" d="M551.306,608.945l-10.488-6.055,6.413-3.7,10.488,6.055Z" transform="translate(-380.523 -539.792)"/><path class="g" d="M577.016,623.79l-10.488-6.055,6.413-3.7,10.488,6.055Z" transform="translate(-393.165 -547.091)"/><path class="g" d="M602.727,638.634l-10.488-6.055,6.413-3.7,10.488,6.055Z" transform="translate(-405.806 -554.389)"/><path class="g" d="M628.438,653.478l-10.488-6.055,6.413-3.7,10.488,6.055Z" transform="translate(-418.448 -561.688)"/><path class="g" d="M654.149,668.322l-10.488-6.055,6.413-3.7,10.488,6.055Z" transform="translate(-431.089 -568.986)"/><path class="g" d="M679.86,683.167l-10.488-6.055,6.413-3.7,10.488,6.055Z" transform="translate(-443.731 -576.285)"/><path class="g" d="M705.571,698.011l-10.488-6.055,6.413-3.7,10.488,6.055Z" transform="translate(-456.372 -583.584)"/><path class="g" d="M359.918,524.817l-22.693-13.1,10.031-5.791,22.693,13.1Z" transform="translate(-280.421 -493.936)"/><path class="g" d="M396.428,545.9,386.4,540.1l10.031-5.791,10.031,5.791Z" transform="translate(-304.598 -507.894)"/><path class="g" d="M421.014,560.09,410.983,554.3l10.031-5.791,10.031,5.791Z" transform="translate(-316.686 -514.874)"/><path class="g" d="M445.6,574.285l-10.031-5.791L445.6,562.7l10.031,5.791Z" transform="translate(-328.774 -521.853)"/><path class="g" d="M470.185,588.479l-10.031-5.791,10.031-5.791,10.031,5.791Z" transform="translate(-340.863 -528.832)"/><path class="g" d="M494.771,602.674l-10.031-5.791,10.031-5.791,10.031,5.791Z" transform="translate(-352.951 -535.811)"/><path class="g" d="M519.356,616.868l-10.031-5.791,10.031-5.791,10.031,5.791Z" transform="translate(-365.039 -542.79)"/><path class="g" d="M543.942,631.063l-10.031-5.792,10.031-5.791,10.031,5.791Z" transform="translate(-377.127 -549.769)"/><path class="g" d="M568.528,645.257,558.5,639.466l10.031-5.791,10.031,5.791Z" transform="translate(-389.216 -556.749)"/><path class="g" d="M593.113,659.452l-10.031-5.791,10.031-5.791,10.031,5.791Z" transform="translate(-401.304 -563.728)"/><path class="g" d="M617.7,673.646l-10.031-5.791,10.031-5.791,10.031,5.791Z" transform="translate(-413.392 -570.707)"/><path class="g" d="M642.285,687.841l-10.031-5.791,10.031-5.791,10.031,5.791Z" transform="translate(-425.481 -577.686)"/><path class="g" d="M656.842,723.141l-10.031-5.791,10.031-5.791,10.031,5.791Z" transform="translate(-432.638 -595.042)"/><path class="g" d="M631.609,708.573l-10.031-5.791,10.031-5.791,10.031,5.791Z" transform="translate(-420.232 -587.879)"/><path class="g" d="M606.377,694l-10.031-5.791,10.031-5.791,10.031,5.791Z" transform="translate(-407.825 -580.716)"/><path class="g" d="M582.927,680.466,572.9,674.674l10.031-5.791,10.031,5.791Z" transform="translate(-396.295 -574.06)"/><path class="g" d="M558.288,666.241l-10.031-5.791,10.031-5.791,10.031,5.791Z" transform="translate(-384.181 -567.066)"/><path class="g" d="M533.65,652.016l-10.031-5.791,10.031-5.791,10.031,5.791Z" transform="translate(-372.067 -560.071)"/><path class="g" d="M509.011,637.791,498.98,632l10.031-5.791L519.042,632Z" transform="translate(-359.953 -553.077)"/><path class="g" d="M484.373,623.566l-10.031-5.791,10.031-5.791,10.031,5.791Z" transform="translate(-347.839 -546.083)"/><path class="g" d="M459.734,609.341,449.7,603.549l10.031-5.791,10.031,5.791Z" transform="translate(-335.724 -539.089)"/><path class="g" d="M435.1,595.116l-10.031-5.791,10.031-5.791,10.031,5.791Z" transform="translate(-323.61 -532.095)"/><path class="g" d="M410.458,580.891,400.427,575.1l10.031-5.791,10.031,5.791Z" transform="translate(-311.496 -525.101)"/><path class="g" d="M385.819,566.666l-10.031-5.791,10.031-5.791,10.031,5.791Z" transform="translate(-299.382 -518.107)"/><path class="g" d="M343.375,569.615l-10.031-5.791,10.031-5.791,10.031,5.791Z" transform="translate(-278.513 -519.557)"/><path class="g" d="M331.082,590.534l-10.031-5.791,10.031-5.791,10.031,5.791Z" transform="translate(-272.468 -529.842)"/><path class="g" d="M249.884,573.538l-10.031-5.791,10.031-5.791,10.031,5.791Z" transform="translate(-232.545 -521.486)"/><path class="g" d="M274.793,587.919l-10.031-5.791,10.031-5.791,10.031,5.791Z" transform="translate(-244.793 -528.556)"/><path class="g" d="M315.407,611.367l-25.735-14.858,10.031-5.791,25.735,14.858Z" transform="translate(-257.04 -535.627)"/><path class="g" d="M404.445,662.773l-60.1-34.7,10.031-5.791,60.1,34.7Z" transform="translate(-283.92 -551.147)"/><path class="g" d="M493,713.9l-25.57-14.763,10.031-5.791,25.57,14.763Z" transform="translate(-344.441 -586.088)"/><path class="g" d="M532.943,740.13l-10.031-5.791,4.358-2.516,10.031,5.791Z" transform="translate(-371.72 -605.006)"/><path class="g" d="M558.176,750.841l-10.031-5.791,11.264-6.5,10.031,5.791Z" transform="translate(-384.126 -608.312)"/><path class="g" d="M583.408,769.266l-10.031-5.791,4.358-2.516,10.031,5.791Z" transform="translate(-396.532 -619.331)"/><path class="g" d="M355.667,604.728l-10.031-5.791,10.031-5.791,10.031,5.791Z" transform="translate(-284.557 -536.821)"/><path class="g" d="M380.253,618.923l-10.031-5.791,10.031-5.791,10.031,5.791Z" transform="translate(-296.645 -543.8)"/><path class="g" d="M404.839,633.117l-10.031-5.791,10.031-5.791,10.031,5.791Z" transform="translate(-308.733 -550.779)"/><path class="g" d="M429.424,647.312l-10.031-5.791,10.031-5.791,10.031,5.791Z" transform="translate(-320.822 -557.759)"/><path class="g" d="M454.01,661.506l-10.031-5.791,10.031-5.791,10.031,5.791Z" transform="translate(-332.91 -564.738)"/><path class="g" d="M478.6,675.7l-10.031-5.791,10.031-5.791,10.031,5.791Z" transform="translate(-344.998 -571.717)"/><path class="g" d="M503.182,689.9,493.151,684.1l10.031-5.791,10.031,5.791Z" transform="translate(-357.086 -578.696)"/><path class="g" d="M527.767,704.09,517.736,698.3l10.031-5.791L537.8,698.3Z" transform="translate(-369.175 -585.675)"/><path class="g" d="M552.353,718.285l-10.031-5.791,10.031-5.791,10.031,5.791Z" transform="translate(-381.263 -592.655)"/><path class="g" d="M592.807,741.641l-25.9-14.953,10.031-5.791,25.9,14.953Z" transform="translate(-393.351 -599.634)"/><path class="g" d="M291.309,567.571l-25.9-14.953,10.031-5.791,25.9,14.953Z" transform="translate(-245.111 -514.047)"/><path class="g" d="M309.975,550.332,290,538.8l10.031-5.791,19.979,11.535Z" transform="translate(-257.199 -507.252)"/><path class="g" d="M368.284,584l-10.031-5.791,10.031-5.791,10.031,5.791Z" transform="translate(-290.76 -526.628)"/><path class="g" d="M393.193,598.378l-10.031-5.791,10.031-5.791,10.031,5.791Z" transform="translate(-303.007 -533.699)"/><path class="g" d="M418.1,612.759l-10.031-5.791,10.031-5.791,10.031,5.791Z" transform="translate(-315.255 -540.77)"/><path class="g" d="M442.417,626.8l-10.031-5.791,10.031-5.791,10.031,5.791Z" transform="translate(-327.21 -547.672)"/><path class="g" d="M467.92,641.522l-10.031-5.791,10.031-5.791,10.031,5.791Z" transform="translate(-339.749 -554.912)"/><path class="g" d="M491.641,655.217l-10.031-5.792,10.031-5.791,10.031,5.791Z" transform="translate(-351.412 -561.646)"/><path class="g" d="M515.956,669.255l-10.031-5.791,10.031-5.791,10.031,5.791Z" transform="translate(-363.367 -568.548)"/><path class="g" d="M540.271,683.294,530.24,677.5l10.031-5.791L550.3,677.5Z" transform="translate(-375.323 -575.45)"/><path class="g" d="M565.18,697.675l-10.031-5.791,10.031-5.791,10.031,5.791Z" transform="translate(-387.57 -582.521)"/><path class="g" d="M590.089,712.056l-10.031-5.791,10.031-5.791,10.031,5.791Z" transform="translate(-399.817 -589.592)"/><path class="g" d="M624.487,731.915l-19.568-11.3,10.031-5.791,19.568,11.3Z" transform="translate(-412.04 -596.649)"/><path class="g" d="M342.711,541.777l-28.777-16.614,10.031-5.791,28.777,16.614Z" transform="translate(-268.969 -500.548)"/><path class="g" d="M673.448,705.833l-16.608-9.589,10.031-5.791,16.608,9.589Z" transform="translate(-437.569 -584.665)"/></g><path class="d" d="M293.094,654.4l53.355,30.8L314.3,703.763l-53.355-30.8Z" transform="translate(-182.908 -373.005)"/><path class="h" d="M411.695,122.168V278.907L609.821,393.3V236.556Z" transform="translate(-257.026 -111.318)"/></g><ellipse class="i" cx="90.634" cy="90.634" rx="90.634" ry="90.634" transform="translate(210.19 44.413)"/><ellipse class="i" cx="90.634" cy="90.634" rx="90.634" ry="90.634" transform="translate(181.216 92.703)"/><ellipse class="j" cx="26.233" cy="58.406" rx="26.233" ry="58.406" transform="matrix(0.399, -0.917, 0.917, 0.399, 0, 279.658)"/><g transform="translate(27.502 246.898)"><g transform="translate(0)"><path class="k" d="M262,642.3l-.029-.179-.043-.179-.058-.178-.072-.176-.086-.174-.1-.172-.115-.17-.13-.167-.144-.164-.158-.161-.173-.157-.187-.154-.2-.149-.216-.145-.23-.14-.242-.133-.251-.125-.258-.117-.266-.108-.273-.1-.279-.091-.285-.083-.29-.075-.294-.067-.3-.058-.3-.05-.3-.042-.308-.033-.309-.025-.311-.017-.312-.008h-.312l-.312.008-.311.017-.309.025-.307.033-.305.042-.3.05-.3.058-.294.067-.29.075-.285.083-.279.091-.273.1-.266.108-.258.117-.25.125-.242.133-.23.14-.216.145-.2.149-.187.154-.173.157-.158.161-.144.164-.13.167-.115.17-.1.172-.086.174-.072.176-.058.178-.043.179-.029.179-.014.18v.18l.014.18.029.179.043.179.058.178.072.176.086.174.1.172.115.17.13.167.144.164.158.161.106.1.066-.061.187-.153.2-.149.216-.145.23-.14.242-.133.25-.125.258-.117.266-.108.273-.1.279-.091.285-.083.29-.075.294-.067.3-.058.3-.05.305-.042.307-.033.309-.025.311-.017.312-.008h.312l.312.008.311.017.309.025.308.033.3.042.3.05.3.058.294.067.29.075.285.083.279.091.273.1.266.108.258.116.251.125.242.133.23.14.216.145.2.149.187.153.066.061.106-.1.158-.161.144-.164.13-.167.115-.17.1-.172.086-.174.072-.176.058-.178.043-.179.029-.179.014-.18v-.18Z" transform="translate(-202.868 -612.186)"/><path class="l" d="M193.606,611.495l-34.992-20.2,7.883-4.551,2.508,1.448,4.92,2.84,1.612.931,4.92,2.84,2.246,1.3,4.919,2.841,1.56.9,12.306,7.105.156-.051.846-.247.861-.223.874-.2.887-.173.9-.148.906-.123.914-.1.919-.074.924-.049.926-.025h.927l.926.025.924.049.919.074.914.1.906.123.9.148.887.173.875.2.861.223.846.247.829.272.81.3.79.321.768.346.745.371.719.395.685.415.642.43.6.443.556.456.513.468.471.478.428.489.385.5.343.505.3.512.257.518.214.523.171.528.129.531.085.533.043.534v.535l-.043.535-.085.533-.129.531-.171.527-.214.524-.257.518-.3.512-.343.5-.385.5-.428.488-.471.478-.513.468-.556.456-.6.443-.642.429-.685.415-.719.4-.745.371-.768.346-.79.321-.81.3-.829.271-.846.248-.861.222-.875.2-.887.173-.9.148-.906.124-.914.1-.919.074-.924.049-.926.025H210.6l-.926-.025-.924-.049-.919-.074-.914-.1-.906-.124-.9-.148-.887-.173-.874-.2-.861-.222-.846-.248-.829-.271-.81-.3-.79-.321-.768-.346-.744-.371-.719-.4-.685-.415-.642-.429-.6-.443-.556-.456-.514-.468-.471-.478-.428-.488-.385-.5-.342-.5-.3-.512-.257-.518-.214-.524-.171-.527-.129-.531-.085-.533-.043-.535v-.535l.043-.534.085-.533.129-.531.171-.528.04-.1.174-.426.257-.518.3-.512.342-.505.385-.5.428-.489Zm13.735,8.744.272.1.279.092.285.083.29.075.294.067.3.059.3.05.3.042.308.033.309.025.311.017.312.008h.312l.312-.008.311-.017.31-.025.308-.033.3-.042.3-.05.3-.059.294-.067.29-.075.284-.083.279-.092.272-.1.266-.108.258-.117.251-.125.242-.133.231-.14.216-.145.2-.149.188-.154.066-.06.107-.1.158-.161.144-.164.13-.167.115-.17.1-.172.086-.174.072-.176.058-.177.043-.178.028-.179.015-.18v-.18l-.015-.18-.028-.18-.043-.179-.058-.177-.072-.176-.086-.174-.1-.172-.115-.17-.13-.167-.144-.164-.158-.161-.173-.157-.188-.153-.2-.149-.216-.144-.231-.14-.242-.133-.251-.125-.258-.116-.266-.108-.272-.1-.279-.092-.284-.083-.29-.075-.294-.067-.3-.058-.3-.05-.3-.041-.308-.034-.31-.025-.311-.017-.312-.008h-.312l-.312.008-.311.017-.309.025-.308.034-.3.041-.3.05-.3.058-.294.067-.29.075-.285.083-.279.092-.272.1-.266.108-.259.116-.25.125-.242.133-.23.14-.216.144-.2.149-.187.153-.173.157-.159.161-.144.164-.13.167-.115.17-.1.172-.086.174-.072.176-.057.177-.043.179-.029.18-.014.18v.18l.014.18.029.179.043.178.057.177.072.176.086.174.1.172.115.17.13.167.144.165.159.161.106.1.067.06.187.154.2.149.216.145.23.14.242.133.25.125.259.117Z" transform="translate(-158.614 -586.637)"/><path class="m" d="M158.614,595.694l34.992,20.2-.088.09-.428.488-.385.5-.342.505-.3.512-.257.518-.174.425L158.614,599.87Z" transform="translate(-158.614 -591.039)"/><path class="k" d="M217.24,608.963v1.8l-1.56-.9Z" transform="translate(-186.672 -597.563)"/><path class="l" d="M179.056,588.088l2.689-1.552,4.919,2.84-2.689,1.552Z" transform="translate(-168.665 -586.536)"/><path class="k" d="M188.734,593.676l2.689-1.552v1.862l-1.076.621Z" transform="translate(-173.423 -589.283)"/><path class="l" d="M212.482,606.215l-1.56.9L206,604.276l1.56-.9.876.506Z" transform="translate(-181.914 -594.815)"/><path class="k" d="M205.39,599.352l-1.56.9-2.246-1.3,6.519-3.764V598.8l-1.836,1.06Z" transform="translate(-179.741 -590.792)"/><path class="l" d="M203.344,592.445l-6.519,3.764-4.919-2.84,1.076-.621,5.442-3.142Z" transform="translate(-174.983 -588.045)"/><path class="m" d="M262.4,647.372l-.086.533-.128.531-.171.527-.214.523-.257.518-.3.512-.342.5-.385.5-.428.488-.471.478-.513.468-.556.456-.6.443-.642.43-.685.415-.719.4-.744.371-.768.346-.79.321-.81.3-.829.272-.846.247-.861.222-.875.2-.887.173-.9.148-.906.123-.914.1-.919.074-.923.049-.926.025h-.927l-.926-.025-.923-.049-.919-.074-.914-.1-.906-.123-.9-.148-.887-.173-.875-.2-.861-.222-.846-.247-.829-.272-.81-.3-.79-.321-.768-.346-.744-.371-.719-.4-.685-.415-.642-.43-.6-.443-.556-.456-.514-.468-.471-.478-.428-.488-.385-.5-.342-.5-.3-.512-.257-.518-.214-.523-.171-.527-.128-.531-.086-.533-.043-.535v4.175l.043.535.086.533.128.531.171.528.214.523.257.518.3.512.342.505.385.5.428.488.471.478.514.468.556.456.6.443.642.43.685.415.719.4.744.371.768.346.79.321.81.3.829.272.846.247.861.222.875.2.887.173.9.148.906.124.914.1.919.074.923.049.926.025h.927l.926-.025.923-.049.919-.074.914-.1.906-.124.9-.148.887-.173.875-.2.861-.222.846-.247.829-.272.81-.3.79-.321.768-.346.744-.371.719-.4.685-.415.642-.43.6-.443.556-.456.513-.468.471-.478.428-.488.385-.5.342-.505.3-.512.257-.518.214-.523.171-.528.128-.531.086-.533.043-.535v-4.175Z" transform="translate(-190.098 -616.185)"/></g><path class="n" d="M230.96,616.653l-.043-.534-.085-.533-.129-.531-.171-.528-.214-.523-.257-.518-.3-.512-.343-.505-.385-.5-.428-.488-.471-.478-.513-.468-.556-.456-.6-.443-.642-.43-.685-.415-.719-.4-.745-.37-.768-.346-.79-.321-.81-.3-.829-.272-.846-.247-.861-.223-.875-.2-.887-.173-.9-.148-.906-.123-.914-.1-.919-.074-.924-.049-.926-.025H210.6l-.926.025-.924.049-.919.074-.914.1-.906.123-.9.148-.887.173-.874.2-.861.223-.846.247-.155.051-12.307-7.105v-1.8l-4.043-2.335,1.836-1.06v-3.606l-4.92-2.84-5.442,3.142v-1.862l-4.92-2.84-2.689,1.552L166.5,586.64l-7.883,4.551v4.175l33.017,19.063-.04.1-.171.528-.129.531-.085.533-.043.534v.535l.043.535-.043-.535v4.175l.043.534.085.533.129.531.171.528.214.523.257.518.3.512.343.505.385.5.428.489.471.478.514.468.556.456.6.443.642.43.685.415.719.4.744.371.768.346.79.322.81.3.829.272.846.247.861.222.874.2.887.173.9.148.906.124.914.1.919.074.924.049.926.025h.927l.926-.025.924-.049.919-.074.914-.1.906-.124.9-.148.887-.173.875-.2.861-.222.846-.247.829-.272.81-.3.79-.322.768-.346.745-.371.719-.4.685-.415.642-.43.6-.443.556-.456.513-.468.471-.478.428-.489.385-.5.343-.505.3-.512.257-.518.214-.523.171-.528.129-.531.085-.533.043-.534v-4.175l-.043.535.043-.535Zm-17.9,3.959-.3.05-.3.042-.308.033-.31.025-.311.017-.312.008h-.312l-.312-.008-.311-.017-.309-.025-.308-.033-.3-.042-.3-.05-.3-.058-.294-.067-.29-.075-.285-.083-.279-.092-.272-.1-.266-.108-.259-.116-.25-.125-.242-.133-.23-.14-.216-.145-.2-.149-.187-.154-.067-.06-.106-.1.106.1.067-.06.187-.154.2-.149.216-.144.23-.14.242-.133.25-.125.259-.116.266-.108.272-.1.279-.092.285-.083.29-.075.294-.066.3-.058.3-.05.3-.042.308-.034.309-.025.311-.017.312-.008h.312l.312.008.311.017.31.025.308.034.3.042.3.05.3.058.294.066.29.075.284.083.279.092.272.1.266.108.258.116.251.125.242.133.231.14.216.144.2.149.188.154.066.06-.066.06-.188.154-.2.149-.216.145-.231.14-.242.133-.251.125-.258.116-.266.108-.272.1-.279.092-.284.083-.29.075-.294.067Zm3.571-5.84-.188-.153-.116-.086.116.086Zm-2.4-1.261.279.091.272.1.189.077-.189-.077-.272-.1-.279-.091-.284-.083Zm-4.257-.408.309-.025.311-.017-.311.017-.309.025-.308.034Zm-3.408.948.25-.125.259-.117.266-.108.272-.1.279-.091.285-.083.29-.075.294-.067.3-.058.3-.05-.3.05-.3.058-.294.067-.29.075-.285.083-.279.091-.272.1-.266.108-.259.117-.25.125-.242.133Zm-1.078.72.187-.153.2-.149-.2.149-.187.153-.173.157Zm-1.037,1.52.058-.177-.058.177-.043.179Zm.058,1.433-.058-.177-.033-.135.033.135Zm-11.42,4.144.428.488.234.237-.234-.237Zm7.133,4.691.593.217.624.2-.624-.2Zm4.89,1.329-.887-.173-.874-.2.874.2.887.173.9.148Zm1.8.272.914.1.845.069-.845-.069Zm11.857-.642-.875.2-.887.173-.9.148-.906.123-.914.1-.919.074.919-.074.914-.1.906-.123.9-.148.887-.173.875-.2.861-.222Zm2.536-.741-.829.271.829-.271.81-.3Zm9.009-6.941-.257.518-.3.512-.343.505-.385.5-.428.488-.471.478-.513.468-.556.456-.6.443.6-.443.556-.456.513-.468.471-.478.428-.488.385-.5.343-.505.3-.512.257-.518.214-.523Z" transform="translate(-158.614 -586.536)"/><path class="o" d="M230.96,616.653l-.043-.534-.085-.533-.129-.531-.171-.528-.214-.523-.257-.518-.3-.512-.343-.505-.385-.5-.428-.488-.471-.478-.513-.468-.556-.456-.6-.443-.642-.43-.685-.415-.719-.4-.745-.37-.768-.346-.79-.321-.81-.3-.829-.272-.846-.247-.861-.223-.875-.2-.887-.173-.9-.148-.906-.123-.914-.1-.919-.074-.924-.049-.926-.025H210.6l-.926.025-.924.049-.919.074-.914.1-.906.123-.9.148-.887.173-.874.2-.861.223-.846.247-.155.051-12.307-7.105v-1.8l-4.043-2.335,1.836-1.06v-3.606l-4.92-2.84-5.442,3.142v-1.862l-4.92-2.84-2.689,1.552L166.5,586.64l-7.883,4.551v4.175l33.017,19.063-.04.1-.171.528-.129.531-.085.533-.043.534v.535l.043.535-.043-.535v4.175l.043.534.085.533.129.531.171.528.214.523.257.518.3.512.343.505.385.5.428.489.471.478.514.468.556.456.6.443.642.43.685.415.719.4.744.371.768.346.79.322.81.3.829.272.846.247.861.222.874.2.887.173.9.148.906.124.914.1.919.074.924.049.926.025h.927l.926-.025.924-.049.919-.074.914-.1.906-.124.9-.148.887-.173.875-.2.861-.222.846-.247.829-.272.81-.3.79-.322.768-.346.745-.371.719-.4.685-.415.642-.43.6-.443.556-.456.513-.468.471-.478.428-.489.385-.5.343-.505.3-.512.257-.518.214-.523.171-.528.129-.531.085-.533.043-.534v-4.175l-.043.535.043-.535Zm-17.9,3.959-.3.05-.3.042-.308.033-.31.025-.311.017-.312.008h-.312l-.312-.008-.311-.017-.309-.025-.308-.033-.3-.042-.3-.05-.3-.058-.294-.067-.29-.075-.285-.083-.279-.092-.272-.1-.266-.108-.259-.116-.25-.125-.242-.133-.23-.14-.216-.145-.2-.149-.187-.154-.067-.06-.106-.1.106.1.067-.06.187-.154.2-.149.216-.144.23-.14.242-.133.25-.125.259-.116.266-.108.272-.1.279-.092.285-.083.29-.075.294-.066.3-.058.3-.05.3-.042.308-.034.309-.025.311-.017.312-.008h.312l.312.008.311.017.31.025.308.034.3.042.3.05.3.058.294.066.29.075.284.083.279.092.272.1.266.108.258.116.251.125.242.133.231.14.216.144.2.149.188.154.066.06-.066.06-.188.154-.2.149-.216.145-.231.14-.242.133-.251.125-.258.116-.266.108-.272.1-.279.092-.284.083-.29.075-.294.067Zm3.571-5.84-.188-.153-.116-.086.116.086Zm-2.4-1.261.279.091.272.1.189.077-.189-.077-.272-.1-.279-.091-.284-.083Zm-4.257-.408.309-.025.311-.017-.311.017-.309.025-.308.034Zm-3.408.948.25-.125.259-.117.266-.108.272-.1.279-.091.285-.083.29-.075.294-.067.3-.058.3-.05-.3.05-.3.058-.294.067-.29.075-.285.083-.279.091-.272.1-.266.108-.259.117-.25.125-.242.133Zm-1.078.72.187-.153.2-.149-.2.149-.187.153-.173.157Zm-1.037,1.52.058-.177-.058.177-.043.179Zm.058,1.433-.058-.177-.033-.135.033.135Zm-11.42,4.144.428.488.234.237-.234-.237Zm7.133,4.691.593.217.624.2-.624-.2Zm4.89,1.329-.887-.173-.874-.2.874.2.887.173.9.148Zm1.8.272.914.1.845.069-.845-.069Zm11.857-.642-.875.2-.887.173-.9.148-.906.123-.914.1-.919.074.919-.074.914-.1.906-.123.9-.148.887-.173.875-.2.861-.222Zm2.536-.741-.829.271.829-.271.81-.3Zm9.009-6.941-.257.518-.3.512-.343.505-.385.5-.428.488-.471.478-.513.468-.556.456-.6.443.6-.443.556-.456.513-.468.471-.478.428-.488.385-.5.343-.505.3-.512.257-.518.214-.523Z" transform="translate(-158.614 -586.536)"/></g><g transform="translate(171.974 10.165)"><g transform="translate(0 0)"><g transform="translate(0 0)"><g transform="translate(0 9.76)"><path class="p" d="M511.113,148.9l2.123-1.165,2.123,3.616,2.125,3.5,2.127,3.4,2.128,3.288,2.13,3.184L526,167.809l2.133,2.983,2.134,2.885,2.135,2.791,2.137,2.7,2.137,2.609,2.138,2.521,2.138,2.436,2.139,2.354,2.139,2.273,2.14,2.2,2.139,2.12,2.139,2.047,2.139,1.977,2.139,1.909,2.138,1.843,2.138,1.78,2.137,1.719,2.136,1.66,2.135,1.6,2.135,1.55,2.133,1.5,2.132,1.451,2.13,1.4,2.129,1.36L579.4,218.8l2.125,1.28,2.123,1.243-.023,3.623-.073,3.834-.132,4.023-.2,4.19-.272,4.332-.354,4.454-.444,4.553-.542,4.629-.648,4.682-.761,4.714-.882,4.722-1.012,4.708-1.149,4.673-1.295,4.613-1.447,4.531L572.8,292.03l-1.777,4.3-1.953,4.152-2.138,3.981-2.33,3.787-2.53,3.57-2.738,3.332-2.954,3.071-3.178,2.786-3.409,2.48-3.649,2.151-3.9,1.8-4.151,1.425-4.415,1.029-4.686.61-4.965.168-5.252-.3-5.546-.782-5.546-5.576-5.252-5.727-4.965-5.866-4.686-5.991-4.415-6.1-4.151-6.2-3.9-6.282-3.649-6.352-3.41-6.408-3.177-6.451-2.954-6.48-2.738-6.5-2.53-6.5-2.33-6.484-2.138-6.458-1.953-6.419-1.777-6.365-1.608-6.3-1.447-6.217-1.294-6.123-1.149-6.015-1.012-5.893-.883-5.758-.761-5.609-.648-5.446-.542-5.27-.444-5.079-.354-4.876-.272-4.658-.2-4.426-.132-4.182-.073-3.923-.023-3.651,2.123,1.209,2.125,1.174,2.127,1.138,2.129,1.1,2.13,1.056,2.131,1.011,2.133.963,2.135.914,2.135.861,2.136.807,2.137.749,2.137.689,2.139.626,2.138.561,2.139.494,2.14.423,2.139.35,2.139.275,2.139.2,2.138.116,2.138.033,2.137-.053,2.137-.141,2.136-.232,2.135-.325,2.134-.421,2.133-.52,2.132-.621,2.13-.724,2.129-.83,2.127-.939ZM567.1,229.012l.017-2.767L565.5,225.3l-1.623-.978-1.625-1.006-1.625-1.039L559,221.2l-1.628-1.108-1.629-1.145-1.629-1.184-1.631-1.225-1.631-1.268-1.632-1.312L547.59,212.6l-1.633-1.407-1.633-1.457-1.634-1.51-1.633-1.563-1.633-1.619-1.634-1.676-1.633-1.736-1.633-1.8-1.633-1.86-1.633-1.925-1.632-1.992L528,192l-1.631-2.131-1.63-2.2-1.629-2.277-1.628-2.354-1.627-2.431-1.625-2.511L516.6,175.5l-1.623-2.676-1.621-2.761-1.621.889-1.623.8-1.624.717-1.626.634-1.626.553-1.628.474-1.629.4-1.63.322-1.63.248-1.632.177-1.632.108-1.632.04-1.633-.025-1.633-.088-1.633-.15-1.634-.209-1.633-.267-1.633-.323-1.633-.377-1.633-.428-1.633-.478-1.633-.526-1.632-.572-1.631-.616-1.63-.658-1.63-.7-1.629-.736-1.628-.772-1.627-.806-1.625-.838-1.625-.869-1.623-.9-1.621-.923-6.835,3.946.017,2.788.056,3,.1,3.193.151,3.38.207,3.557.27,3.723.34,3.878.414,4.023.495,4.159.582,4.283.674,4.4.773,4.5.877,4.593.988,4.676L459.81,227l1.228,4.809,1.357,4.86,1.491,4.9,1.632,4.932,1.779,4.951,1.932,4.961,2.091,4.959,2.256,4.948L476,271.252l2.6,4.894,2.787,4.85,2.975,4.8,3.17,4.733,3.371,4.659,3.578,4.574,3.791,4.479,4.01,4.374,4.235,4.258,4.235.6,4.01.226,3.792-.129,3.578-.466,3.371-.786,3.17-1.089,2.975-1.374,6.835-3.946,2.787-1.643,2.6-1.893,2.427-2.127,2.256-2.344,2.091-2.544,1.932-2.727,1.779-2.892,1.632-3.04,1.492-3.171,1.356-3.284,1.228-3.381,1.105-3.461.988-3.523.878-3.567.772-3.6.674-3.606.581-3.6.495-3.576.414-3.534.339-3.477.27-3.4.208-3.309.151-3.2.1-3.072Z" transform="translate(-442.828 -140.02)"/></g><path class="q" d="M666.529,208.345l-2.125-1.279-2.127-1.319-2.129-1.36-2.13-1.4-2.132-1.451-2.133-1.5-2.134-1.551-2.135-1.6-2.136-1.66-2.137-1.719-2.138-1.78-2.138-1.843-2.139-1.909-2.139-1.977-2.139-2.047-2.139-2.12-2.139-2.2-2.139-2.274L625.961,175l-2.138-2.436-2.138-2.521-2.137-2.609-2.136-2.7-2.135-2.791-2.134-2.885-2.133-2.983-2.132-3.082-2.13-3.184-2.129-3.288-2.127-3.4-2.125-3.5-2.123-3.616-16.9,9.759,2.123,3.616,2.125,3.5,2.127,3.4,2.129,3.289,2.13,3.184,2.132,3.082,2.133,2.982,2.134,2.886,2.135,2.791,2.136,2.7,2.137,2.609,2.138,2.521,2.138,2.436,2.139,2.354,2.139,2.273,2.139,2.2,2.139,2.12,2.139,2.047,2.139,1.977,2.139,1.908,2.138,1.843,2.138,1.78,2.137,1.719,2.136,1.66,2.135,1.6,2.134,1.551,2.133,1.5,2.132,1.451,2.13,1.4,2.129,1.36,2.127,1.318,2.125,1.28,2.123,1.243,16.9-9.759Z" transform="translate(-510.932 -128.287)"/><path class="r" d="M683.583,290.52l-.023,3.623-.073,3.835L683.356,302l-.2,4.189-.272,4.333-.354,4.454-.444,4.553-.542,4.629-.648,4.682-.761,4.714-.883,4.722-1.012,4.708-1.149,4.672L675.8,352.27l-1.447,4.532-1.608,4.428-1.777,4.3-1.953,4.152-2.138,3.981-2.33,3.787-2.53,3.571-2.738,3.332-2.954,3.07-3.178,2.786-3.41,2.48-3.649,2.151,16.9-9.759,3.649-2.151,3.41-2.48,3.178-2.786,2.954-3.07,2.738-3.332,2.53-3.571,2.33-3.787,2.137-3.981,1.953-4.152,1.776-4.3,1.608-4.428,1.447-4.532L694,337.9l1.149-4.672,1.012-4.708.883-4.722.761-4.713.648-4.683.542-4.629.444-4.553.354-4.454.272-4.333.2-4.189.132-4.023.073-3.834.023-3.623Z" transform="translate(-542.766 -199.46)"/><path class="s" d="M528.017,129.7l-2.125,1.05-2.127.939-2.129.831-2.13.724-2.132.621-2.133.52-2.134.421-2.135.325-2.136.232-2.137.141-2.138.053-2.138-.033-2.139-.116-2.139-.2-2.139-.274-2.139-.35-2.139-.423-2.139-.493-2.139-.561-2.138-.626-2.138-.689-2.137-.749-2.136-.806-2.135-.861-2.134-.914-2.133-.964-2.132-1.011-2.13-1.056-2.129-1.1-2.127-1.137-2.125-1.174-2.123-1.209-16.9,9.759,2.123,1.209,2.125,1.175L449.2,134.1l2.129,1.1,2.13,1.056,2.131,1.011,2.133.964,2.134.914L462,140l2.136.807,2.137.749,2.138.689,2.138.626,2.139.561,2.139.493,2.139.423,2.139.35,2.139.275,2.139.2,2.139.116,2.138.033,2.138-.053,2.137-.141,2.136-.232,2.135-.325,2.134-.421,2.133-.52,2.132-.621,2.13-.724,2.129-.83,2.127-.939,2.126-1.051,2.123-1.164,16.9-9.759Z" transform="translate(-442.828 -120.82)"/><path class="t" d="M627.112,254.352l-1.623-.977-1.624-1.007-1.625-1.039-1.627-1.072-1.628-1.108L617.356,248l-1.63-1.184L614.1,245.6l-1.631-1.268-1.632-1.313-1.632-1.359-1.633-1.407-1.633-1.457-1.633-1.51-1.633-1.563-1.633-1.619-1.633-1.677-1.634-1.736-1.633-1.8-1.633-1.86-1.632-1.925-1.632-1.992-1.631-2.061-1.63-2.131-1.63-2.2-1.629-2.277-1.628-2.354-1.627-2.431-1.625-2.511-1.624-2.592-1.623-2.676-1.621-2.761-6.835,3.946,1.621,2.761,1.623,2.676L573,211.091l1.625,2.511,1.627,2.431,1.628,2.354,1.629,2.277,1.63,2.2L582.772,225l1.631,2.061,1.632,1.992,1.632,1.925,1.633,1.86,1.633,1.8,1.634,1.736,1.633,1.676,1.633,1.619,1.634,1.563,1.633,1.51,1.633,1.457,1.633,1.407L604,246.961l1.632,1.313,1.631,1.268,1.63,1.225,1.63,1.184,1.629,1.145,1.628,1.108,1.627,1.072,1.625,1.039,1.624,1.007,1.623.977,1.621.949,6.835-3.946Z" transform="translate(-504.439 -159.316)"/><path class="u" d="M521.345,194.3l-1.623.8-1.624.717-1.626.634-1.626.553-1.628.474-1.629.4-1.63.322-1.63.248-1.631.177-1.632.108-1.632.04-1.633-.025-1.633-.088-1.633-.15-1.634-.21-1.634-.267-1.633-.323L492,197.335l-1.633-.428-1.633-.478L487.1,195.9l-1.632-.572-1.631-.616-1.63-.658-1.63-.7-1.629-.736-1.628-.772-1.627-.806-1.625-.838-1.624-.868-1.623-.9-1.621-.923-6.835,3.946,1.621.923,1.623.9,1.624.868,1.625.838,1.627.806,1.628.772,1.629.736,1.63.7,1.63.658,1.631.616,1.632.572,1.632.526,1.633.478,1.633.428,1.633.377,1.633.323,1.634.267,1.633.21,1.633.15,1.633.089,1.633.025,1.632-.04,1.632-.108,1.631-.177,1.631-.248,1.63-.322,1.629-.4,1.628-.474,1.627-.553,1.626-.634,1.624-.717,1.623-.8,1.621-.889,6.835-3.946Z" transform="translate(-452.436 -153.615)"/><path class="r" d="M646.207,313.594l-.017,2.767-.056,2.928-.1,3.072-.151,3.2-.208,3.309-.27,3.4-.339,3.476-.414,3.534-.495,3.576-.581,3.6-.674,3.606-.773,3.6-.877,3.568-.988,3.523-1.105,3.46-1.228,3.381-1.357,3.284-1.491,3.171-1.632,3.04-1.779,2.892-1.932,2.726-2.091,2.544-2.256,2.344-2.427,2.128-2.6,1.894-2.786,1.642,6.835-3.946,2.786-1.643,2.6-1.894,2.427-2.128,2.256-2.344,2.091-2.544,1.932-2.727,1.779-2.892,1.632-3.04,1.492-3.171,1.357-3.285,1.228-3.381,1.105-3.46.988-3.522.878-3.567.773-3.6.674-3.606.581-3.6.495-3.575.414-3.535.339-3.477.27-3.4.208-3.309.151-3.2.1-3.072.056-2.928.017-2.767Z" transform="translate(-528.747 -213.663)"/><g transform="translate(9.933 37.851)"><path class="v" d="M511.9,335.784l-4.01-4.374-3.791-4.479-3.578-4.574-3.371-4.659-3.17-4.733-2.975-4.8-2.786-4.851-2.6-4.893-2.427-4.926-2.256-4.948-2.091-4.96-1.932-4.96-1.779-4.951-1.632-4.931-1.491-4.9-1.357-4.86-1.228-4.809-1.1-4.748-.988-4.676-.877-4.593-.773-4.5-.674-4.4-.581-4.283-.495-4.159-.414-4.024-.339-3.878-.27-3.723-.208-3.557-.151-3.38-.1-3.193-.056-3-.017-2.788,1.621.923,1.623.9,1.624.868,1.625.838,1.627.806,1.628.772,1.629.736,1.63.7,1.63.658,1.631.616,1.632.572,1.632.526,1.633.478,1.633.428,1.633.376,1.633.323,1.634.267,1.633.21,1.633.15,1.633.089,1.633.025,1.632-.04,1.632-.108,1.631-.177,1.631-.248,1.63-.322,1.629-.4,1.628-.474,1.627-.553,1.626-.634,1.624-.717,1.623-.8,1.621-.889,1.621,2.761,1.623,2.676L521,209.206l1.625,2.511,1.627,2.431,1.628,2.354,1.629,2.277,1.629,2.2,1.631,2.131,1.631,2.061,1.632,1.992,1.632,1.925,1.633,1.86,1.633,1.8,1.633,1.736,1.633,1.676,1.633,1.619,1.634,1.563,1.633,1.51,1.633,1.457,1.633,1.407,1.632,1.359,1.632,1.313,1.631,1.268,1.63,1.225,1.63,1.184,1.629,1.145,1.628,1.108,1.627,1.072,1.626,1.039,1.624,1.007,1.623.977,1.621.949-.017,2.767-.056,2.928-.1,3.072-.151,3.2-.208,3.309-.271,3.4-.339,3.477-.414,3.534-.495,3.576-.581,3.6-.674,3.606-.773,3.6-.878,3.568-.988,3.523-1.105,3.46-1.228,3.381-1.357,3.284-1.491,3.171-1.632,3.04-1.779,2.892-1.932,2.726-2.091,2.544-2.256,2.344-2.427,2.128-2.6,1.894-2.786,1.642-2.975,1.374-3.17,1.089-3.371.786-3.578.466-3.791.128-4.01-.226-4.235-.6Z" transform="translate(-462.368 -195.282)"/></g></g><path class="w" d="M598.425,200.878,596.3,199.6l-2.127-1.319-2.128-1.36-2.13-1.4-2.132-1.45-2.133-1.5-2.134-1.551-2.135-1.6-2.137-1.66-2.137-1.719-2.137-1.78-2.138-1.843-2.139-1.909-2.139-1.977-2.139-2.048-2.14-2.12-2.139-2.2L560,169.887l-2.139-2.354L555.72,165.1l-2.138-2.521-2.137-2.609-2.136-2.7-2.135-2.791-2.134-2.886-2.133-2.982-2.131-3.082-2.13-3.184-2.129-3.288-2.127-3.4-2.125-3.5-2.123-3.616-2.123,1.164-2.125,1.051-2.127.939-2.129.831-2.13.724-2.131.621-2.133.52-2.134.421-2.135.325-2.136.232-2.137.141-2.138.053-2.139-.033-2.138-.116-2.139-.2-2.139-.275-2.14-.35-2.139-.423-2.139-.493-2.139-.561-2.138-.626-2.137-.688-2.137-.749-2.136-.806-2.135-.861-2.134-.914L472.5,127.5l-2.132-1.011-2.13-1.056-2.129-1.1L463.98,123.2l-2.125-1.174-2.124-1.209-16.9,9.76.023,3.651.073,3.923.132,4.182.2,4.426.272,4.658.354,4.876.444,5.079.542,5.27.648,5.446.761,5.609.883,5.758,1.012,5.893,1.149,6.015,1.294,6.123,1.447,6.217,1.608,6.3,1.777,6.365,1.953,6.419,2.138,6.458,2.33,6.484,2.53,6.5,2.738,6.5,2.954,6.48,3.177,6.451,3.41,6.408,3.649,6.352,3.9,6.282,4.151,6.2,4.415,6.1,4.686,5.991,4.965,5.866,5.252,5.727,5.546,5.576,5.546.782,5.252.3,4.965-.168,4.686-.61,4.415-1.029L542.252,318l3.9-1.8,16.9-9.76,3.649-2.151,3.41-2.48,3.177-2.786,2.954-3.07,2.738-3.332,2.53-3.57,2.33-3.788,2.138-3.981,1.953-4.152,1.776-4.3,1.608-4.428,1.447-4.532,1.294-4.613,1.149-4.672,1.012-4.709.883-4.722.761-4.713.648-4.683.542-4.629.444-4.553.354-4.454.272-4.333.2-4.189.132-4.023.073-3.834.023-3.623ZM451.332,135.2l-2.129-1.1-2.127-1.138L449.2,134.1l2.129,1.1,2.13,1.055Zm1.428,23.472,1.621.923,1.623.9-1.623-.9-1.621-.923,6.835-3.946h0Zm4.966-20.443,2.135.914L462,140l-2.135-.861Zm4.782,25.547L460.881,163l1.628.772,1.629.736Zm10.176-20.341-2.138-.561-2.139-.626-2.137-.689,2.137.689,2.139.626,2.138.561,2.139.494Zm2.875,25.052-1.633-.428,1.633.428,1.633.377Zm3.569-4.852-1.633-.526,1.633.526,1.632.478Zm4.252-18.462-2.139-.2L479.1,144.7l-2.139-.35,2.139.35,2.139.275,2.139.2.11.006Zm16.972,20.235-1.63.248,1.63-.248,1.63-.322Zm10.761-25.944,2.123-1.164-2.123,1.164-2.125,1.051Zm1.9,35.642-1.626-2.511L509.768,170l-1.623-2.676L509.768,170l1.624,2.593,1.626,2.511,1.627,2.431Zm14.672,19.235-1.633-1.86,1.633,1.86,1.633,1.8Zm.446-32.988,2.134,2.885,2.135,2.791-2.135-2.791Zm6.306,137.416-2.783,1.64,0,0,2.786-1.642,2.6-1.894ZM549.51,186.236l1.046,1-1.046-1-2.139-2.12Zm-8.556-8.943,2.139,2.354,2.139,2.273-2.139-2.273Zm4.8,109.838-1.932,2.727,1.932-2.727,1.779-2.892Zm4.9-9.1,1.357-3.284-1.357,3.284-1.491,3.171Zm2.554,33.542-3.409,2.48,3.409-2.48,3.178-2.786Zm3-50.758-.877,3.568-.988,3.522-1.106,3.461,1.106-3.461.988-3.522.877-3.568.773-3.6Zm-.463-51.3-1.63-1.184,1.629,1.184,1.629,1.145Zm4.009,26.517-.27,3.4-.34,3.476-.414,3.534.414-3.534.34-3.476.27-3.4.208-3.309Zm2.5-22.153-1.625-1.039,1.625,1.039,1,.622Zm.086-16.362-2.137-1.719-2.138-1.78-2.138-1.843,2.138,1.843,2.138,1.78,2.137,1.719,2.136,1.66Zm13.519,76.121-1.447,4.531L572.8,282.59l-1.777,4.3,1.777-4.3,1.608-4.428,1.447-4.531,1.295-4.613Zm7.088-41.747-.354,4.454-.444,4.553-.542,4.629.542-4.629.444-4.553.354-4.454.272-4.333Zm.6-12.546-.132,4.023.132-4.023.073-3.834Zm-2.027-8.7-2.125-1.28,2.125,1.28,2.123,1.243Z" transform="translate(-442.828 -120.82)"/><path class="x" d="M598.425,200.878,596.3,199.6l-2.127-1.319-2.128-1.36-2.13-1.4-2.132-1.45-2.133-1.5-2.134-1.551-2.135-1.6-2.137-1.66-2.137-1.719-2.137-1.78-2.138-1.843-2.139-1.909-2.139-1.977-2.139-2.048-2.14-2.12-2.139-2.2L560,169.887l-2.139-2.354L555.72,165.1l-2.138-2.521-2.137-2.609-2.136-2.7-2.135-2.791-2.134-2.886-2.133-2.982-2.131-3.082-2.13-3.184-2.129-3.288-2.127-3.4-2.125-3.5-2.123-3.616-2.123,1.164-2.125,1.051-2.127.939-2.129.831-2.13.724-2.131.621-2.133.52-2.134.421-2.135.325-2.136.232-2.137.141-2.138.053-2.139-.033-2.138-.116-2.139-.2-2.139-.275-2.14-.35-2.139-.423-2.139-.493-2.139-.561-2.138-.626-2.137-.688-2.137-.749-2.136-.806-2.135-.861-2.134-.914L472.5,127.5l-2.132-1.011-2.13-1.056-2.129-1.1L463.98,123.2l-2.125-1.174-2.124-1.209-16.9,9.76.023,3.651.073,3.923.132,4.182.2,4.426.272,4.658.354,4.876.444,5.079.542,5.27.648,5.446.761,5.609.883,5.758,1.012,5.893,1.149,6.015,1.294,6.123,1.447,6.217,1.608,6.3,1.777,6.365,1.953,6.419,2.138,6.458,2.33,6.484,2.53,6.5,2.738,6.5,2.954,6.48,3.177,6.451,3.41,6.408,3.649,6.352,3.9,6.282,4.151,6.2,4.415,6.1,4.686,5.991,4.965,5.866,5.252,5.727,5.546,5.576,5.546.782,5.252.3,4.965-.168,4.686-.61,4.415-1.029L542.252,318l3.9-1.8,16.9-9.76,3.649-2.151,3.41-2.48,3.177-2.786,2.954-3.07,2.738-3.332,2.53-3.57,2.33-3.788,2.138-3.981,1.953-4.152,1.776-4.3,1.608-4.428,1.447-4.532,1.294-4.613,1.149-4.672,1.012-4.709.883-4.722.761-4.713.648-4.683.542-4.629.444-4.553.354-4.454.272-4.333.2-4.189.132-4.023.073-3.834.023-3.623ZM451.332,135.2l-2.129-1.1-2.127-1.138L449.2,134.1l2.129,1.1,2.13,1.055Zm1.428,23.472,1.621.923,1.623.9-1.623-.9-1.621-.923,6.835-3.946h0Zm4.966-20.443,2.135.914L462,140l-2.135-.861Zm4.782,25.547L460.881,163l1.628.772,1.629.736Zm10.176-20.341-2.138-.561-2.139-.626-2.137-.689,2.137.689,2.139.626,2.138.561,2.139.494Zm2.875,25.052-1.633-.428,1.633.428,1.633.377Zm3.569-4.852-1.633-.526,1.633.526,1.632.478Zm4.252-18.462-2.139-.2L479.1,144.7l-2.139-.35,2.139.35,2.139.275,2.139.2.11.006Zm16.972,20.235-1.63.248,1.63-.248,1.63-.322Zm10.761-25.944,2.123-1.164-2.123,1.164-2.125,1.051Zm1.9,35.642-1.626-2.511L509.768,170l-1.623-2.676L509.768,170l1.624,2.593,1.626,2.511,1.627,2.431Zm14.672,19.235-1.633-1.86,1.633,1.86,1.633,1.8Zm.446-32.988,2.134,2.885,2.135,2.791-2.135-2.791Zm6.306,137.416-2.783,1.64,0,0,2.786-1.642,2.6-1.894ZM549.51,186.236l1.046,1-1.046-1-2.139-2.12Zm-8.556-8.943,2.139,2.354,2.139,2.273-2.139-2.273Zm4.8,109.838-1.932,2.727,1.932-2.727,1.779-2.892Zm4.9-9.1,1.357-3.284-1.357,3.284-1.491,3.171Zm2.554,33.542-3.409,2.48,3.409-2.48,3.178-2.786Zm3-50.758-.877,3.568-.988,3.522-1.106,3.461,1.106-3.461.988-3.522.877-3.568.773-3.6Zm-.463-51.3-1.63-1.184,1.629,1.184,1.629,1.145Zm4.009,26.517-.27,3.4-.34,3.476-.414,3.534.414-3.534.34-3.476.27-3.4.208-3.309Zm2.5-22.153-1.625-1.039,1.625,1.039,1,.622Zm.086-16.362-2.137-1.719-2.138-1.78-2.138-1.843,2.138,1.843,2.138,1.78,2.137,1.719,2.136,1.66Zm13.519,76.121-1.447,4.531L572.8,282.59l-1.777,4.3,1.777-4.3,1.608-4.428,1.447-4.531,1.295-4.613Zm7.088-41.747-.354,4.454-.444,4.553-.542,4.629.542-4.629.444-4.553.354-4.454.272-4.333Zm.6-12.546-.132,4.023.132-4.023.073-3.834Zm-2.027-8.7-2.125-1.28,2.125,1.28,2.123,1.243Z" transform="translate(-442.828 -120.82)"/></g></g><circle class="y" cx="55.259" cy="55.259" r="55.259" transform="translate(166.252 140.638) rotate(-45)"/><g transform="translate(208.004 78.344)"><g transform="translate(0 0)"><path class="z" d="M513.709,340.965V304.049l38.449,22.2v36.917Z" transform="translate(-513.709 -279.089)"/><path class="aa" d="M513.709,297.653l11.453-6.613,38.449,22.2-11.453,6.612Zm11.67,1.73.855-.063.809-.19.718-.316.547-.415.328-.467.11-.493-.11-.494-.328-.467-.547-.414-.718-.316-.809-.19-.855-.063-.854.063-.809.19-.718.316-.547.414-.329.467-.109.494.109.493.329.467.547.415.718.316.809.19Zm24.712,12.323-.547.415-.328.467-.11.494.11.493.328.467.547.415.718.316.809.19.854.063.855-.063.809-.19.718-.316.547-.415.328-.467.11-.493-.11-.494-.328-.467-.547-.415-.718-.316-.809-.19-.855-.063-.854.063-.809.19Z" transform="translate(-513.709 -272.693)"/><path class="ab" d="M589.348,378.24V341.323l11.453-6.612v36.917Z" transform="translate(-550.899 -294.165)"/><path class="ac" d="M563.611,313.239l-38.449-22.2-11.453,6.613v36.916l38.449,22.2,11.453-6.613Zm-14.4-.651.328-.467.547-.415.718-.316.809-.19.854-.063.855.063.809.19.718.316.547.415.328.467.11.494-.11.493-.328.467-.547.415-.718.316-.809.19-.855.063-.854-.063-.809-.19-.718-.316-.547-.415-.328-.467-.11-.493Zm-27.094-15.643.329-.467.547-.414.718-.316.809-.19.854-.063.855.063.809.19.718.316.547.414.328.467.11.494-.11.493-.328.467-.547.415-.718.316-.809.19-.855.063-.854-.063-.809-.19-.718-.316-.547-.415-.329-.467-.109-.493Z" transform="translate(-513.709 -272.693)"/><path class="ad" d="M563.611,313.239l-38.449-22.2-11.453,6.613v36.916l38.449,22.2,11.453-6.613Zm-14.4-.651.328-.467.547-.415.718-.316.809-.19.854-.063.855.063.809.19.718.316.547.415.328.467.11.494-.11.493-.328.467-.547.415-.718.316-.809.19-.855.063-.854-.063-.809-.19-.718-.316-.547-.415-.328-.467-.11-.493Zm-27.094-15.643.329-.467.547-.414.718-.316.809-.19.854-.063.855.063.809.19.718.316.547.414.328.467.11.494-.11.493-.328.467-.547.415-.718.316-.809.19-.855.063-.854-.063-.809-.19-.718-.316-.547-.415-.329-.467-.109-.493Z" transform="translate(-513.709 -272.693)"/><g transform="translate(8.303 22.802)"><path class="ae" d="M536.668,301.255l-.329-.467-.547-.414-.718-.316-.809-.19-.855-.063-.855.063-.809.19-.718.316-.547.414-.329.467-.109.493.109.493.329.467.547.414.718.316.809.19.855.063.855-.063.809-.19.718-.316.547-.414.329-.467.11-.493Z" transform="translate(-530.043 -299.804)"/><path class="ae" d="M589.968,332.027l-.329-.467-.548-.414-.718-.316-.809-.19-.855-.063-.855.063-.809.19-.718.316-.548.414-.328.467-.11.493.11.493.328.467.548.414.718.316.809.19.855.063.855-.063.809-.19.718-.316.548-.414.329-.467.109-.493Z" transform="translate(-556.249 -314.934)"/></g><g transform="translate(8.339)"><path class="af" d="M563.9,279.887l-.142-1.29-.232-1.307-.317-1.315-.133.33.133-.33-.08-.281-.381-1.261h0l-.456-1.256-.525-1.243-.591-1.223-.652-1.2-.71-1.163-.764-1.123-.814-1.076-.86-1.023-.9-.962-.2-.21-.981-.932-1.016-.854-1.046-.768-1.611-.984-.52-.3-.5-.289-.481-.278-.462-.267-.443-.256-.424-.245-.406-.234-.388-.224-.37-.213-.352-.2-.335-.193-.318-.183-.3-.174-.285-.165-.269-.155-.253-.146-.244-.141-1.064-.56-1.046-.44-.549-.184-1.048-.329-1.012-.206-.971-.086-.672.018-.944.032-.893.15-.838.264-.688.258-.784.379-.72.489-.568.466-.648.593-.576.7-.5.8-.349.569,0,0-.411.884-.327.979-.239,1.072-.115.567.232-1.039-.232,1.039-.142,1.126-.046,1.994v13.327l.109.493.329.467.548.415.718.316.809.19.855.063.855-.063.809-.19.718-.316.548-.415.329-.467.109-.493V266.29l.036-1.649.087-.687.057-.256.216-.646.246-.528.351-.426.068-.062.22-.15.24-.116.087-.028.544-.091.58.051-.612-.2-.541-.4.541.4.612.2.667.136.251.079.638.269,1,.538.253.146.268.155.285.164.3.174.318.184.335.193.352.2.37.214.388.224.406.234.424.245.443.256.462.267.481.278.5.289.52.3,1.308.8.746.548.724.608-.244-.248-.089-.408.089.408.244.248.63.6.573.611.677.8.641.848.6.885.56.917.514.944.466.964.414.979.358.989.243.8.2.846.165.931.1.92.036,1.691v13.327l.11.493.328.467.547.415.718.316.809.19.855.063.855-.063.809-.19.718-.316.548-.415.329-.467.109-.493V281.934Z" transform="translate(-530.113 -254.946)"/><path class="ag" d="M563.9,279.887l-.142-1.29-.232-1.307-.317-1.315-.133.33.133-.33-.08-.281-.381-1.261h0l-.456-1.256-.525-1.243-.591-1.223-.652-1.2-.71-1.163-.764-1.123-.814-1.076-.86-1.023-.9-.962-.2-.21-.981-.932-1.016-.854-1.046-.768-1.611-.984-.52-.3-.5-.289-.481-.278-.462-.267-.443-.256-.424-.245-.406-.234-.388-.224-.37-.213-.352-.2-.335-.193-.318-.183-.3-.174-.285-.165-.269-.155-.253-.146-.244-.141-1.064-.56-1.046-.44-.549-.184-1.048-.329-1.012-.206-.971-.086-.672.018-.944.032-.893.15-.838.264-.688.258-.784.379-.72.489-.568.466-.648.593-.576.7-.5.8-.349.569,0,0-.411.884-.327.979-.239,1.072-.115.567.232-1.039-.232,1.039-.142,1.126-.046,1.994v13.327l.109.493.329.467.548.415.718.316.809.19.855.063.855-.063.809-.19.718-.316.548-.415.329-.467.109-.493V266.29l.036-1.649.087-.687.057-.256.216-.646.246-.528.351-.426.068-.062.22-.15.24-.116.087-.028.544-.091.58.051-.612-.2-.541-.4.541.4.612.2.667.136.251.079.638.269,1,.538.253.146.268.155.285.164.3.174.318.184.335.193.352.2.37.214.388.224.406.234.424.245.443.256.462.267.481.278.5.289.52.3,1.308.8.746.548.724.608-.244-.248-.089-.408.089.408.244.248.63.6.573.611.677.8.641.848.6.885.56.917.514.944.466.964.414.979.358.989.243.8.2.846.165.931.1.92.036,1.691v13.327l.11.493.328.467.547.415.718.316.809.19.855.063.855-.063.809-.19.718-.316.548-.415.329-.467.109-.493V281.934Z" transform="translate(-530.113 -254.946)"/></g></g><path class="ah" d="M542.3,353.719c0-1.461,1.184-1.962,2.646-1.118a5.488,5.488,0,0,1,2.646,4.174c0,.942-.493,1.484-1.233,1.525v4.716l-2.827-1.632v-4.716A4.975,4.975,0,0,1,542.3,353.719Z" transform="translate(-527.765 -302.759)"/></g></g></g></svg>