<svg xmlns="http://www.w3.org/2000/svg" width="173" height="119" viewBox="0 0 173 119"><defs><style>.a{fill:rgba(255,255,255,0.47);}.b{fill:#cecece;}.c{fill:#afafaf;}.d{fill:#e2e2e2;}.e{fill:#63bce7;}.f{fill:#6377e7;}.g{fill:#63e2e7;}.h{fill:#9e9e9e;}.i{fill:#707070;}.j{fill:#f46275;}.k{fill:#f43075;}.l{fill:#f48875;}.m{fill:#f8af23;}.n{fill:#3f3679;}</style></defs><g transform="translate(-1025 -2282)"><rect class="a" width="173" height="119" rx="10" transform="translate(1025 2282)"/><g transform="translate(1052.18 2281.752)"><path class="b" d="M24.173,115.981a5.809,5.809,0,0,1-5.8-5.8V57.62a5.809,5.809,0,0,1,5.8-5.8h81.5a5.809,5.809,0,0,1,5.8,5.8v52.559a5.809,5.809,0,0,1-5.8,5.8Z" transform="translate(-6.07 -24.493)"/><g transform="translate(12.3 27.324)"><path class="c" d="M24.6,110.178V57.62a5.809,5.809,0,0,1,5.8-5.8H24.173a5.809,5.809,0,0,0-5.8,5.8v52.559a5.809,5.809,0,0,0,5.8,5.8H30.4A5.809,5.809,0,0,1,24.6,110.178Z" transform="translate(-18.37 -51.817)"/></g><g transform="translate(93.373 27.324)"><path class="d" d="M215.1,110.178V57.62a5.809,5.809,0,0,0-5.8-5.8h6.228a5.809,5.809,0,0,1,5.8,5.8v52.559a5.809,5.809,0,0,1-5.8,5.8H209.3A5.809,5.809,0,0,0,215.1,110.178Z" transform="translate(-209.299 -51.817)"/></g><path class="e" d="M112.741,109.921a2.238,2.238,0,0,1-2.232,2.232h-81.5a2.238,2.238,0,0,1-2.232-2.232V62.458a2.238,2.238,0,0,1,2.232-2.232h81.5a2.238,2.238,0,0,1,2.232,2.232v47.463Z" transform="translate(-10.908 -29.331)"/><g transform="translate(15.87 30.895)"><path class="f" d="M33.007,109.921V62.458a2.238,2.238,0,0,1,2.232-2.232H29.011a2.238,2.238,0,0,0-2.232,2.232v47.464a2.238,2.238,0,0,0,2.232,2.232h6.228A2.239,2.239,0,0,1,33.007,109.921Z" transform="translate(-26.779 -60.226)"/></g><g transform="translate(93.373 30.895)"><path class="g" d="M211.53,109.921V62.458a2.238,2.238,0,0,0-2.232-2.232h6.228a2.238,2.238,0,0,1,2.232,2.232v47.464a2.238,2.238,0,0,1-2.232,2.232H209.3A2.239,2.239,0,0,0,211.53,109.921Z" transform="translate(-209.298 -60.226)"/></g><path class="h" d="M89.809,225.081h32.434v3.905H89.809Z" transform="translate(-47.174 -124.185)"/><g transform="translate(42.635 100.896)"><path class="i" d="M89.809,225.081h6.228v3.905H89.809Z" transform="translate(-89.809 -225.081)"/></g><g transform="translate(68.841 100.896)"><path class="b" d="M151.525,225.081h6.228v3.905h-6.228Z" transform="translate(-151.525 -225.081)"/></g><path class="b" d="M100.67,202.923h23.21v9.409H100.67Z" transform="translate(-53.423 -111.435)"/><g transform="translate(47.247 91.488)"><path class="c" d="M100.67,202.923H106.9v9.409H100.67Z" transform="translate(-100.67 -202.923)"/></g><g transform="translate(64.229 91.488)"><path class="d" d="M140.663,202.923h6.228v9.409h-6.228Z" transform="translate(-140.663 -202.923)"/></g><circle class="h" cx="1.911" cy="1.911" r="1.911" transform="translate(56.941 85.244)"/><circle class="j" cx="32.389" cy="32.389" r="32.389" transform="translate(26.463 9.885)"/><g transform="translate(26.463 9.885)"><path class="k" d="M57.952,43.137A32.389,32.389,0,0,1,87.227,10.9c-1.025-.1-2.063-.152-3.114-.152a32.389,32.389,0,1,0,0,64.778c1.051,0,2.089-.054,3.114-.152A32.391,32.391,0,0,1,57.952,43.137Z" transform="translate(-51.724 -10.749)"/></g><g transform="translate(55.738 9.885)"><path class="l" d="M149.942,43.137A32.389,32.389,0,0,0,120.667,10.9c1.025-.1,2.063-.152,3.114-.152a32.389,32.389,0,1,1,0,64.778c-1.051,0-2.089-.054-3.114-.152a32.391,32.391,0,0,0,29.275-32.237Z" transform="translate(-120.667 -10.749)"/></g><path class="m" d="M100.044,71.028h23.742V94.915H100.044Z" transform="translate(-53.063 -35.547)"/><path class="m" d="M124.824,55.713a8.945,8.945,0,1,0-17.89,0v1.356h2.735V55.713a6.21,6.21,0,0,1,12.42,0v1.356h2.735Z" transform="translate(-57.028 -21.588)"/><g transform="translate(51.986 39.289)"><path class="b" d="M121.578,80h-5.76a3.985,3.985,0,0,0-3.985,3.985V96.068h13.731V83.981A3.985,3.985,0,0,0,121.578,80Z" transform="translate(-111.832 -79.996)"/><path class="i" d="M127.314,97.367l-.859-3.546a2.013,2.013,0,1,0-2.915,0l-.859,3.546a1.5,1.5,0,0,0,1.462,1.859h1.708A1.5,1.5,0,0,0,127.314,97.367Z" transform="translate(-118.05 -85.994)"/></g><g transform="translate(7.82 9.248)"><path class="n" d="M16.1,243.752H8.457a.637.637,0,1,0,0,1.274H16.1a.637.637,0,1,0,0-1.274Z" transform="translate(-7.82 -144.175)"/><path class="n" d="M235.458,243.752h-7.645a.637.637,0,1,0,0,1.274h7.645a.637.637,0,0,0,0-1.274Z" transform="translate(-134.032 -144.175)"/><path class="n" d="M113.5,243.752H36.658a.637.637,0,1,0,0,1.274H113.5a.637.637,0,1,0,0-1.274Z" transform="translate(-24.046 -144.175)"/><path class="n" d="M8.457,105.439h100.79a.637.637,0,0,0,0-1.274H75.706V100.9a.637.637,0,0,0-.637-.637H71.094V92.125H99.6a6.447,6.447,0,0,0,6.439-6.439V33.126A6.447,6.447,0,0,0,99.6,26.687H87.959a33.209,33.209,0,0,0-5.7-7.692,1.2,1.2,0,0,0-.123-.123,32.992,32.992,0,0,0-52.386,7.815H18.1a6.447,6.447,0,0,0-6.439,6.439V85.685A6.447,6.447,0,0,0,18.1,92.124H46.61v8.135H42.634A.637.637,0,0,0,42,100.9v3.268H8.457a.637.637,0,0,0,0,1.274ZM35.45,65.553a1.178,1.178,0,0,0,.122.122,33.007,33.007,0,0,0,54.5-34.143H99.6a1.6,1.6,0,0,1,1.595,1.595V80.59A1.6,1.6,0,0,1,99.6,82.184H18.1a1.6,1.6,0,0,1-1.595-1.594V33.126A1.6,1.6,0,0,1,18.1,31.531H27.63A32.947,32.947,0,0,0,35.45,65.553ZM90.6,42.274A31.727,31.727,0,0,1,36.871,65.154l9.473-9.473v3.685a.637.637,0,0,0,.637.637H70.723a.637.637,0,0,0,.637-.637V35.481a.637.637,0,0,0-.637-.637H68.434v-.719c0-.174-.005-.346-.014-.518L81.733,20.293A31.634,31.634,0,0,1,90.6,42.274Zm-26.178-7.43H53.278v-.719a5.573,5.573,0,0,1,11.146,0v.719Zm1.274-.318v-.4a6.847,6.847,0,1,0-13.694,0v.719H50.544v-.719a8.305,8.305,0,0,1,16.551-.995ZM49.906,36.118h14.2l-2.535,2.535h-5.6a4.627,4.627,0,0,0-4.622,4.622v5.6l-3.732,3.732V36.118ZM52.623,49.4l3.662-3.662a2.635,2.635,0,0,0,.5,1.535L56,50.512a2.142,2.142,0,0,0,2.082,2.646h1.707a2.142,2.142,0,0,0,2.082-2.645l-.784-3.237a2.65,2.65,0,0,0-2.139-4.2l3.135-3.135a3.353,3.353,0,0,1,3,3.33v11.45H52.623V49.4Zm7.149-2.137.859,3.546h0a.868.868,0,0,1-.843,1.071H58.08a.868.868,0,0,1-.843-1.072l.859-3.546a.636.636,0,0,0-.158-.589,1.376,1.376,0,1,1,1.992,0,.639.639,0,0,0-.158.589Zm-7.149.335V43.275a3.352,3.352,0,0,1,3.348-3.348H60.3Zm-1.274,3.075v4.685a.637.637,0,0,0,.637.637H65.717a.637.637,0,0,0,.637-.637V43.275a4.629,4.629,0,0,0-3.205-4.4l2.759-2.759h4.177V58.731H47.617V54.409Zm7.5-40.155a31.635,31.635,0,0,1,21.98,8.871L68.2,32.025a9.581,9.581,0,0,0-18.929,2.1v.719H46.981a.637.637,0,0,0-.637.637v18.4L35.971,64.254A31.728,31.728,0,0,1,58.852,10.522ZM12.937,85.686V33.126A5.171,5.171,0,0,1,18.1,27.961H29.092c-.362.749-.687,1.518-.992,2.3h-10a2.872,2.872,0,0,0-2.869,2.869V80.59A2.872,2.872,0,0,0,18.1,83.458H99.6a2.872,2.872,0,0,0,2.869-2.868V33.126A2.872,2.872,0,0,0,99.6,30.257h-10c-.305-.779-.631-1.548-.992-2.3H99.6a5.171,5.171,0,0,1,5.166,5.166V85.685A5.171,5.171,0,0,1,99.6,90.85H18.1a5.171,5.171,0,0,1-5.166-5.165Zm34.947,6.439H69.819v8.135H47.884Zm-4.612,9.409h31.16v2.631H43.272Z" transform="translate(-7.82 -9.248)"/><path class="n" d="M124.548,191.815A2.548,2.548,0,1,0,122,189.267,2.55,2.55,0,0,0,124.548,191.815Zm0-3.822a1.274,1.274,0,1,1-1.274,1.274A1.275,1.275,0,0,1,124.548,187.993Z" transform="translate(-73.516 -111.36)"/></g></g></g></svg>