<svg xmlns="http://www.w3.org/2000/svg" width="173" height="119" viewBox="0 0 173 119"><defs><style>.a{fill:rgba(255,255,255,0.47);}.b{fill:#f8af23;}.c{fill:#f87023;}.d{fill:#9e9e9e;}.e{fill:#707070;}.f{fill:#cecece;}.g{fill:#afafaf;}.h{fill:#f8d323;}.i{fill:#e2e2e2;}.j{fill:#63bce7;}.k{fill:#6377e7;}.l{fill:#63e2e7;}.m{fill:#3f3679;}</style></defs><g transform="translate(6241 9450)"><rect class="a" width="173" height="119" rx="10" transform="translate(-6241 -9450)"/><g transform="translate(-6210.82 -9446.984)"><g transform="translate(12.619 37.873)"><path class="b" d="M34.578,92.191a4.34,4.34,0,0,0-6.053-.08l-.029-.019V80.853a4.343,4.343,0,0,0-8.687,0V106.58a1.2,1.2,0,0,0,.346.843l8.561,8.678a1.2,1.2,0,0,1,.346.843v2.749H45.495V103.6a1.2,1.2,0,0,0-.352-.849Z" transform="translate(-19.809 -76.51)"/><g transform="translate(0 0)"><path class="c" d="M34.588,116.1l-8.561-8.678a1.2,1.2,0,0,1-.346-.843V80.853a4.326,4.326,0,0,1,1.408-3.194,4.338,4.338,0,0,0-7.279,3.194V106.58a1.2,1.2,0,0,0,.346.843l8.561,8.678a1.2,1.2,0,0,1,.346.843v2.749h5.871v-2.749a1.2,1.2,0,0,0-.346-.843Z" transform="translate(-19.81 -76.51)"/></g><path class="d" d="M33.575,184.389H57.493v5.926H33.575Z" transform="translate(-28.064 -141.205)"/><g transform="translate(5.511 43.184)"><path class="e" d="M33.575,184.389h5.871v5.926H33.575Z" transform="translate(-33.575 -184.389)"/></g><path class="f" d="M38.107,199.193H58.4V212.1H38.107Z" transform="translate(-30.782 -150.083)"/><g transform="translate(7.325 49.11)"><path class="g" d="M38.107,199.193h5.871V212.1H38.107Z" transform="translate(-38.107 -199.193)"/></g><g transform="translate(57.19)"><path class="b" d="M182.942,92.191a4.34,4.34,0,0,1,6.053-.08l.029-.019V80.853a4.343,4.343,0,1,1,8.687,0V106.58a1.2,1.2,0,0,1-.346.843L188.8,116.1a1.2,1.2,0,0,0-.346.843v2.749H172.025V103.6a1.2,1.2,0,0,1,.352-.849Z" transform="translate(-168.283 -76.51)"/><g transform="translate(14.304 0)"><path class="h" d="M198.754,116.1l8.561-8.678a1.2,1.2,0,0,0,.346-.843V80.853a4.326,4.326,0,0,0-1.408-3.194,4.338,4.338,0,0,1,7.279,3.194V106.58a1.2,1.2,0,0,1-.346.843l-8.561,8.678a1.2,1.2,0,0,0-.346.843v2.749h-5.871v-2.749a1.2,1.2,0,0,1,.346-.843Z" transform="translate(-198.408 -76.51)"/></g><path class="d" d="M0,0H23.918V5.926H0Z" transform="translate(23.918 49.111) rotate(180)"/><g transform="translate(18.047 43.184)"><path class="f" d="M207.759,184.389h5.871v5.926h-5.871Z" transform="translate(-207.759 -184.389)"/></g><path class="f" d="M0,0H20.289V12.91H0Z" transform="translate(22.104 62.021) rotate(180)"/><g transform="translate(16.232 49.11)"><path class="i" d="M203.226,199.193H209.1V212.1h-5.871Z" transform="translate(-203.226 -199.193)"/></g></g></g><path class="j" d="M115.525,52.36,95.469,67.63a2.785,2.785,0,0,1-3.374,0L72.038,52.36a2.785,2.785,0,0,1-1.1-2.216V21.971a2.785,2.785,0,0,1,2.036-2.682l20.056-5.6a2.784,2.784,0,0,1,1.5,0l20.056,5.6a2.785,2.785,0,0,1,2.036,2.682V50.144a2.784,2.784,0,0,1-1.1,2.216Z" transform="translate(-37.853 -0.9)"/><g transform="translate(33.087 12.684)"><path class="k" d="M76.811,50.144V21.971a2.785,2.785,0,0,1,2.036-2.682L96.717,14.3l-2.186-.611a2.784,2.784,0,0,0-1.5,0l-20.056,5.6a2.785,2.785,0,0,0-2.036,2.682V50.144a2.784,2.784,0,0,0,1.1,2.216L92.094,67.63a2.785,2.785,0,0,0,3.374,0l1.249-.951L77.909,52.359a2.783,2.783,0,0,1-1.1-2.215Z" transform="translate(-70.94 -13.584)"/></g><g transform="translate(52.993 12.684)"><path class="l" d="M140.572,50.144V21.971a2.785,2.785,0,0,0-2.036-2.682L120.666,14.3l2.186-.611a2.784,2.784,0,0,1,1.5,0l20.056,5.6a2.785,2.785,0,0,1,2.036,2.682V50.144a2.784,2.784,0,0,1-1.1,2.216L125.289,67.63a2.785,2.785,0,0,1-3.374,0l-1.249-.951,18.808-14.32A2.783,2.783,0,0,0,140.572,50.144Z" transform="translate(-120.666 -13.584)"/></g><circle class="b" cx="13.557" cy="13.557" r="13.557" transform="translate(42.371 23.894)"/><g transform="translate(46.798 30.156)"><path class="j" d="M111.411,71.823a2.542,2.542,0,0,1-1.753-.7l-3.668-3.468a2.552,2.552,0,1,1,3.507-3.708l1.864,1.763,7.734-7.734a2.552,2.552,0,0,1,3.609,3.609l-9.489,9.488A2.542,2.542,0,0,1,111.411,71.823Z" transform="translate(-105.192 -57.23)"/></g><g transform="translate(7.82 12.083)"><path class="m" d="M15.627,240.917H8.42a.6.6,0,1,0,0,1.2h7.207a.6.6,0,1,0,0-1.2Z" transform="translate(-7.82 -149.314)"/><path class="m" d="M234.984,240.917h-7.207a.6.6,0,1,0,0,1.2h7.207a.6.6,0,1,0,0-1.2Z" transform="translate(-139.368 -149.314)"/><path class="m" d="M109.06,240.917H36.621a.6.6,0,1,0,0,1.2H109.06a.6.6,0,1,0,0-1.2Z" transform="translate(-24.732 -149.314)"/><path class="m" d="M8.42,138.231h95.016a.6.6,0,1,0,0-1.2H92.513V125.321h1.214a.6.6,0,0,0,.6-.6v-5.926a.6.6,0,0,0-.6-.6H90.585v-2.149a.6.6,0,0,1,.173-.422l8.562-8.678a1.791,1.791,0,0,0,.519-1.265V79.954a4.944,4.944,0,0,0-9.888,0V90.047a4.91,4.91,0,0,0-5.907.82L73.479,101.432a1.788,1.788,0,0,0-.527,1.274v15.489H69.809a.6.6,0,0,0-.6.6v5.926a.6.6,0,0,0,.6.6h1.214v11.709H40.834V125.322h1.214a.6.6,0,0,0,.6-.6V118.8a.6.6,0,0,0-.6-.6H38.905V102.706a1.79,1.79,0,0,0-.527-1.274L27.813,90.867a4.911,4.911,0,0,0-5.907-.82V79.954a4.944,4.944,0,0,0-9.888,0v25.727a1.791,1.791,0,0,0,.519,1.265l8.561,8.677a.6.6,0,0,1,.173.422v2.149H18.129a.6.6,0,0,0-.6.6v5.926a.6.6,0,0,0,.6.6h1.214v11.709H8.42a.6.6,0,1,0,0,1.2Zm65.732-35.526a.6.6,0,0,1,.175-.425L84.893,91.716a3.72,3.72,0,0,1,5.216-.069c.016.015.067.059.077.069a3.744,3.744,0,0,1,0,5.294l-7.958,7.959a.6.6,0,0,0,.849.849l7.958-7.959A4.946,4.946,0,0,0,91.152,91V79.954a3.743,3.743,0,0,1,7.486,0v25.727a.6.6,0,0,1-.173.422L89.9,114.781a1.791,1.791,0,0,0-.519,1.265v2.149H74.152ZM70.409,119.4H93.127v4.725H70.41V119.4Zm1.815,5.926H91.312V137.03H72.224ZM21.954,114.78,13.393,106.1a.6.6,0,0,1-.173-.422V79.954a3.743,3.743,0,0,1,7.486,0V91a4.946,4.946,0,0,0,.116,6.863l7.958,7.959a.6.6,0,1,0,.849-.849L21.671,97.01a3.744,3.744,0,0,1,0-5.294l.077-.069a3.721,3.721,0,0,1,5.216.069l10.565,10.565a.6.6,0,0,1,.175.425v15.489H22.473v-2.149a1.791,1.791,0,0,0-.519-1.266ZM18.73,119.4H41.448v4.725H18.73Zm1.814,5.926H39.633V137.03H20.544Z" transform="translate(-7.82 -49.82)"/><path class="m" d="M70.774,51.938,90.83,67.208a3.393,3.393,0,0,0,4.1,0l20.057-15.27a3.4,3.4,0,0,0,1.335-2.694V21.071a3.4,3.4,0,0,0-2.475-3.261l-20.057-5.6a3.384,3.384,0,0,0-1.822,0l-20.056,5.6a3.4,3.4,0,0,0-2.475,3.261V49.244a3.4,3.4,0,0,0,1.335,2.694ZM70.64,21.071a2.192,2.192,0,0,1,1.6-2.1l20.057-5.6a2.179,2.179,0,0,1,1.176,0l20.057,5.6a2.191,2.191,0,0,1,1.6,2.1V49.244a2.2,2.2,0,0,1-.861,1.738L94.2,66.253a2.191,2.191,0,0,1-2.646,0L71.5,50.982a2.2,2.2,0,0,1-.861-1.738V21.071Z" transform="translate(-44.773 -12.083)"/><path class="m" d="M106.79,68.4A14.158,14.158,0,1,0,92.632,54.247,14.174,14.174,0,0,0,106.79,68.4Zm0-27.115A12.957,12.957,0,1,1,93.833,54.247,12.972,12.972,0,0,1,106.79,41.29Z" transform="translate(-58.681 -28.878)"/><path class="m" d="M108.345,70.664a3.152,3.152,0,0,0,4.395-.062l9.489-9.488a3.152,3.152,0,0,0-4.458-4.458l-7.321,7.321-1.44-1.361a3.152,3.152,0,1,0-4.331,4.581Zm-2.919-7.1a1.938,1.938,0,0,1,1.363-.61h.056a1.937,1.937,0,0,1,1.339.534l1.864,1.763a.6.6,0,0,0,.837-.012l7.734-7.733a1.952,1.952,0,0,1,2.76,2.76l-9.489,9.489a1.952,1.952,0,0,1-2.72.038L105.5,66.324a1.953,1.953,0,0,1-.077-2.759Z" transform="translate(-65.313 -38.261)"/></g></g></g></svg>