<svg xmlns="http://www.w3.org/2000/svg" width="173" height="119" viewBox="0 0 173 119"><defs><style>.a{fill:rgba(255,255,255,0.47);}.b{fill:#63bce7;}.c{fill:#6377e7;}.d{fill:#63e2e7;}.e{fill:#cecece;}.f{fill:#afafaf;}.g{fill:#e2e2e2;}.h{fill:#3f3679;}.i{fill:#f8af23;}.j{fill:#f87023;}.k{fill:#f8d323;}.l{fill:#9e9e9e;}.m{fill:#707070;}.n{fill:#f46275;}.o{fill:#f48875;}</style></defs><g transform="translate(6241 8922)"><rect class="a" width="173" height="119" rx="10" transform="translate(-6241 -8922)"/><g transform="translate(-6207.82 -8913.884)"><path class="b" d="M116.067,60.777H88.108a1.9,1.9,0,0,1-1.9-1.9V10.56a1.9,1.9,0,0,1,1.9-1.9h27.959a1.9,1.9,0,0,1,1.9,1.9V58.877a1.9,1.9,0,0,1-1.9,1.9Z" transform="translate(-48.603 -0.93)"/><g transform="translate(37.605 7.73)"><path class="c" d="M91.781,58.877V10.56a1.9,1.9,0,0,1,1.9-1.9H88.108a1.9,1.9,0,0,0-1.9,1.9V58.877a1.9,1.9,0,0,0,1.9,1.9h5.573A1.9,1.9,0,0,1,91.781,58.877Z" transform="translate(-86.208 -8.66)"/></g><g transform="translate(61.891 7.73)"><path class="d" d="M152.025,58.877V10.56a1.9,1.9,0,0,0-1.9-1.9H155.7a1.9,1.9,0,0,1,1.9,1.9V58.877a1.9,1.9,0,0,1-1.9,1.9h-5.573A1.9,1.9,0,0,0,152.025,58.877Z" transform="translate(-150.125 -8.66)"/></g><path class="e" d="M86.208,132.557a1.9,1.9,0,0,0,1.9,1.9h27.959a1.9,1.9,0,0,0,1.9-1.9v-5.066H86.208Z" transform="translate(-48.603 -74.61)"/><g transform="translate(37.605 52.881)"><path class="f" d="M91.781,132.557v-5.066H86.208v5.066a1.9,1.9,0,0,0,1.9,1.9h5.573A1.9,1.9,0,0,1,91.781,132.557Z" transform="translate(-86.208 -127.491)"/></g><g transform="translate(61.891 52.881)"><path class="g" d="M152.025,132.557v-5.066H157.6v5.066a1.9,1.9,0,0,1-1.9,1.9h-5.573A1.9,1.9,0,0,0,152.025,132.557Z" transform="translate(-150.125 -127.491)"/></g><path class="e" d="M117.967,10.56a1.9,1.9,0,0,0-1.9-1.9H88.108a1.9,1.9,0,0,0-1.9,1.9v2.089h31.758V10.56Z" transform="translate(-48.603 -0.93)"/><g transform="translate(37.605 7.73)"><path class="f" d="M93.681,8.66H88.108a1.9,1.9,0,0,0-1.9,1.9v2.089h5.573V10.56A1.9,1.9,0,0,1,93.681,8.66Z" transform="translate(-86.208 -8.66)"/></g><g transform="translate(61.891 7.73)"><path class="g" d="M150.125,8.66H155.7a1.9,1.9,0,0,1,1.9,1.9v2.089h-5.573V10.56A1.9,1.9,0,0,0,150.125,8.66Z" transform="translate(-150.125 -8.66)"/></g><circle class="h" cx="1.789" cy="1.789" r="1.789" transform="translate(51.695 54.575)"/><path class="i" d="M153.964,55.258V71.439L150.779,67.7a3.7,3.7,0,0,0-5.634,4.8l7.246,8.5s-2.163,9.126,3.538,14.341h16.115l-1.429-19.6a8.377,8.377,0,0,0-2.423-4.609Z" transform="translate(-84.601 -29.823)"/><path class="e" d="M160.6,184.519h24.86v19.7H160.6Z" transform="translate(-94.73 -109.969)"/><path class="i" d="M56.705,55.258V71.439L59.89,67.7a3.7,3.7,0,0,1,5.634,4.8l-7.246,8.5s2.163,9.126-3.538,14.341H38.626l1.429-19.6a8.377,8.377,0,0,1,2.423-4.609Z" transform="translate(-19.101 -29.823)"/><g transform="translate(19.526 25.435)"><path class="j" d="M48.051,71.132l8.655-9.656V55.258L42.479,71.132a8.377,8.377,0,0,0-2.423,4.609l-1.429,19.6H44.2l1.429-19.6A8.374,8.374,0,0,1,48.051,71.132Z" transform="translate(-38.627 -55.258)"/></g><g transform="translate(69.363 25.435)"><path class="k" d="M178.447,71.132l-8.655-9.656V55.258L184.02,71.132a8.377,8.377,0,0,1,2.423,4.609l1.429,19.6H182.3l-1.429-19.6A8.377,8.377,0,0,0,178.447,71.132Z" transform="translate(-169.792 -55.258)"/></g><path class="l" d="M0,0H28.2V9.027H0Z" transform="translate(42.768 74.55) rotate(180)"/><g transform="translate(14.566 65.523)"><path class="m" d="M25.575,160.762h5.573v9.027H25.575Z" transform="translate(-25.575 -160.762)"/></g><path class="l" d="M0,0H28.2V9.027H0Z" transform="translate(92.402 74.55) rotate(180)"/><path class="e" d="M0,0H24.86V19.7H0Z" transform="translate(41.097 94.251) rotate(180)"/><g transform="translate(16.237 74.55)"><path class="f" d="M29.973,184.519h5.573v19.7H29.973Z" transform="translate(-29.973 -184.519)"/></g><g transform="translate(85.158 74.55)"><path class="g" d="M211.361,184.519h5.573v19.7h-5.573Z" transform="translate(-211.361 -184.519)"/></g><g transform="translate(45.87 19.443)"><path class="i" d="M107.962,39.487H123.19v15.32H107.962Z" transform="translate(-107.962 -39.487)"/><g transform="translate(3.211 2.442)"><path class="e" d="M122.134,45.915H119.5A3.084,3.084,0,0,0,116.412,49v7.224h8.807V49A3.085,3.085,0,0,0,122.134,45.915Z" transform="translate(-116.412 -45.915)"/><path class="m" d="M127.157,57.843l-.551-2.274a1.291,1.291,0,1,0-1.869,0l-.551,2.274a.965.965,0,0,0,.938,1.192h1.1A.965.965,0,0,0,127.157,57.843Z" transform="translate(-121.215 -50.549)"/></g></g><g transform="translate(86.829 65.523)"><path class="e" d="M215.759,160.762h5.573v9.027h-5.573Z" transform="translate(-215.759 -160.762)"/></g><path class="e" d="M53.027,39.487H29.4a.76.76,0,0,0-.76.76V53.239a.76.76,0,0,0,.76.76H44.079a.76.76,0,0,1,.537.223l2.723,2.723a.76.76,0,0,0,1.075,0l2.723-2.723A.76.76,0,0,1,51.675,54h1.352a.76.76,0,0,0,.76-.76V40.247A.759.759,0,0,0,53.027,39.487Z" transform="translate(-12.911 -20.044)"/><g transform="translate(15.732 19.443)"><path class="f" d="M34.216,53.239V40.247a.76.76,0,0,1,.76-.76H29.4a.76.76,0,0,0-.76.76V53.239a.76.76,0,0,0,.76.76h5.573A.76.76,0,0,1,34.216,53.239Z" transform="translate(-28.643 -39.487)"/></g><path class="n" d="M161.943,39.32h23.624a.76.76,0,0,0,.76-.76V25.568a.76.76,0,0,0-.76-.76H170.891a.76.76,0,0,1-.537-.223l-2.723-2.723a.76.76,0,0,0-1.075,0l-2.723,2.723a.76.76,0,0,1-.537.223h-1.352a.76.76,0,0,0-.76.76V38.56A.759.759,0,0,0,161.943,39.32Z" transform="translate(-95.091 -8.978)"/><g transform="translate(84.903 15.83)"><path class="o" d="M216.263,29.978H210.69a.76.76,0,0,1,.76.76V43.73a.76.76,0,0,1-.76.76h5.573a.76.76,0,0,0,.76-.76V30.738A.76.76,0,0,0,216.263,29.978Z" transform="translate(-210.69 -29.978)"/></g><g transform="translate(7.82 7.16)"><path class="h" d="M15.23,245.84H8.39a.57.57,0,0,0,0,1.14h6.84a.57.57,0,0,0,0-1.14Z" transform="translate(-7.82 -155.15)"/><path class="h" d="M234.587,245.84h-6.84a.57.57,0,0,0,0,1.14h6.84a.57.57,0,0,0,0-1.14Z" transform="translate(-143.829 -155.15)"/><path class="h" d="M105.348,245.84H36.591a.57.57,0,0,0,0,1.14h68.758a.57.57,0,1,0,0-1.14Z" transform="translate(-25.306 -155.15)"/><path class="h" d="M99.148,94.251a.57.57,0,0,0-.57-.57H91.3V75.12h1.1a.57.57,0,0,0,.57-.57V65.523a.57.57,0,0,0-.57-.57H87.973L86.582,45.865a8.931,8.931,0,0,0-2.566-4.935L75.037,30.912H90.476a1.331,1.331,0,0,0,1.33-1.33V16.59a1.331,1.331,0,0,0-1.33-1.33H75.8a.192.192,0,0,1-.135-.055l-2.723-2.723a1.332,1.332,0,0,0-1.881,0l-1.128,1.128V9.63a2.473,2.473,0,0,0-2.47-2.47H39.5a2.473,2.473,0,0,0-2.47,2.47v9.244H16.492a1.331,1.331,0,0,0-1.33,1.33V33.2a1.331,1.331,0,0,0,1.33,1.33h12.2l-5.74,6.4a8.935,8.935,0,0,0-2.567,4.948L19,64.953H14.566a.57.57,0,0,0-.57.57V74.55a.57.57,0,0,0,.57.57h1.1V93.68H8.39a.57.57,0,1,0,0,1.14H98.578a.57.57,0,0,0,.57-.57ZM91.832,73.98H64.77V66.093H91.832V73.98ZM42.768,75.12a.57.57,0,0,0,.57-.57V65.523a.57.57,0,0,0-.57-.57H36.985a12.5,12.5,0,0,0,2.453-4.541c.022,0,.044.005.066.005H67.464c.028,0,.055-.006.084-.007a12.617,12.617,0,0,0,2.442,4.543H64.2a.57.57,0,0,0-.57.57V74.55a.57.57,0,0,0,.57.57h1.1v18.56H41.667V75.12ZM66.852,56.431a17.7,17.7,0,0,0,.393,2.846H39.738a19.519,19.519,0,0,0,.347-5.826H66.89A21.329,21.329,0,0,0,66.852,56.431ZM73.587,31,83.166,41.69a7.913,7.913,0,0,1,2.279,4.27L86.83,64.953H71.552c-5.182-4.948-3.229-13.552-3.208-13.64a.572.572,0,0,0-.121-.5l-7.246-8.5a3.131,3.131,0,1,1,4.766-4.063l3.185,3.737,6.048,7.1a.57.57,0,0,0,.868-.739l-5.912-6.935V30.911h3.6a.5.5,0,0,0,.052.09Zm-1.72-17.715a.191.191,0,0,1,.269,0l2.723,2.723a1.321,1.321,0,0,0,.94.389H90.476a.19.19,0,0,1,.19.19V29.582a.19.19,0,0,1-.19.19H66.852a.19.19,0,0,1-.19-.19V16.59a.19.19,0,0,1,.19-.19H68.2a1.322,1.322,0,0,0,.941-.389ZM38.174,9.63A1.331,1.331,0,0,1,39.5,8.3H67.464a1.331,1.331,0,0,1,1.33,1.33v1.519H38.174Zm0,2.659H68.793v2.461l-.455.455a.19.19,0,0,1-.134.055H66.852a1.331,1.331,0,0,0-1.33,1.33V29.582a1.331,1.331,0,0,0,1.33,1.33h1.941v9.157L66.612,37.51a4.272,4.272,0,0,0-6.5,5.542l7.064,8.287c-.043.217-.1.549-.16.972H39.958c-.059-.421-.119-.755-.163-.973l7.063-8.286a4.272,4.272,0,0,0-6.5-5.542l-2.181,2.559V35.06c0-.008,0-.015,0-.022l.457-.457a.19.19,0,0,1,.135-.055h1.352a1.331,1.331,0,0,0,1.33-1.33V20.2a1.331,1.331,0,0,0-1.33-1.33H38.175V12.288ZM16.3,33.2V20.2a.19.19,0,0,1,.19-.19H40.116a.19.19,0,0,1,.19.19V33.2a.19.19,0,0,1-.19.19H38.764a1.322,1.322,0,0,0-.941.389L35.1,36.5a.191.191,0,0,1-.269,0l-2.723-2.723a1.321,1.321,0,0,0-.94-.389H16.492A.19.19,0,0,1,16.3,33.2Zm5.219,12.777A7.917,7.917,0,0,1,23.8,41.69l6.414-7.156s0-.006,0-.008h.948a.191.191,0,0,1,.135.055L34.026,37.3a1.332,1.332,0,0,0,1.881,0l1.128-1.128v5.231l-5.912,6.935a.57.57,0,0,0,.868.739l6.047-7.1,3.185-3.737a3.131,3.131,0,0,1,4.766,4.063l-7.246,8.5a.569.569,0,0,0-.121.5c.021.087,1.983,8.683-3.208,13.639H20.138ZM15.136,66.093H42.2V73.98H15.136V66.093Zm1.671,27.588V75.12h23.72v18.56Zm49.634,0V75.12h23.72v18.56Z" transform="translate(-7.82 -7.16)"/><path class="h" d="M107.032,46.528h15.227a.57.57,0,0,0,.57-.57V30.637a.57.57,0,0,0-.57-.57H119.2v-.3a4.553,4.553,0,0,0-9.106,0v.3h-3.061a.57.57,0,0,0-.57.57v15.32A.57.57,0,0,0,107.032,46.528Zm4.2-16.761a3.413,3.413,0,0,1,6.826,0v.3h-6.827v-.3Zm-3.631,1.44h14.088V45.388H107.6Z" transform="translate(-68.982 -18.354)"/><path class="h" d="M121.2,44.416h-2.638a3.658,3.658,0,0,0-3.654,3.654v7.224a.57.57,0,0,0,.57.57h8.807a.57.57,0,0,0,.57-.57V48.07A3.659,3.659,0,0,0,121.2,44.416Zm2.514,10.308h-7.667V48.07a2.517,2.517,0,0,1,2.514-2.514H121.2a2.517,2.517,0,0,1,2.514,2.514v6.654Z" transform="translate(-74.221 -30.26)"/><path class="h" d="M126.781,56.778l-.486-2.006a1.861,1.861,0,1,0-3.107,0l-.486,2.005a1.535,1.535,0,0,0,1.492,1.9h1.1a1.534,1.534,0,0,0,1.491-1.9Zm-1.182.606a.389.389,0,0,1-.31.151h-1.1a.395.395,0,0,1-.383-.488l.551-2.274a.571.571,0,0,0-.141-.527.721.721,0,1,1,1.044,0,.569.569,0,0,0-.141.527l.551,2.274a.389.389,0,0,1-.074.337Z" transform="translate(-79.024 -34.892)"/><path class="h" d="M56.757,57.653a.57.57,0,0,0-.57-.57h-14.6a.57.57,0,1,0,0,1.14h14.6A.57.57,0,0,0,56.757,57.653Z" transform="translate(-28.402 -38.114)"/><path class="h" d="M174.124,48.724h14.6a.57.57,0,1,0,0-1.14h-14.6a.57.57,0,0,0,0,1.14Z" transform="translate(-110.581 -32.224)"/></g></g></g></svg>