<svg xmlns="http://www.w3.org/2000/svg" width="173" height="119" viewBox="0 0 173 119"><defs><style>.a{fill:rgba(255,255,255,0.47);}.b{fill:#cecece;}.c{fill:#e2e2e2;}.d{fill:#afafaf;}.e{fill:#63bce7;}.f{fill:#f46275;}.g{fill:#3f3679;}</style></defs><g transform="translate(6241 8786)"><rect class="a" width="173" height="119" rx="10" transform="translate(-6241 -8786)"/><g transform="translate(-6206.82 -8777.461)"><g transform="translate(29.849 10.176)"><path class="b" d="M67.476,11.122h55.531V83.435H67.476Z" transform="translate(-67.476 -11.122)"/><g transform="translate(50.115)"><path class="c" d="M203.19,11.122h5.416V83.435H203.19Z" transform="translate(-203.19 -11.122)"/></g><path class="d" d="M67.476,11.122h5.416V83.435H67.476Z" transform="translate(-67.476 -11.122)"/></g><g transform="translate(24.433 15.153)"><path class="b" d="M52.81,24.6h55.531V96.912H52.81Z" transform="translate(-52.81 -24.599)"/><g transform="translate(50.115)"><path class="c" d="M188.524,24.6h5.416V96.912h-5.416Z" transform="translate(-188.524 -24.599)"/></g><g transform="translate(0)"><path class="d" d="M52.81,24.6h5.416V96.912H52.81Z" transform="translate(-52.81 -24.599)"/></g></g><path class="b" d="M38.143,38.077H93.674V110.39H38.143Z" transform="translate(-19.126 -17.947)"/><g transform="translate(69.132 20.13)"><path class="c" d="M173.857,38.077h5.416V110.39h-5.416Z" transform="translate(-173.857 -38.077)"/></g><g transform="translate(19.017 20.13)"><path class="d" d="M38.143,38.077h5.416V110.39H38.143Z" transform="translate(-38.143 -38.077)"/></g><g transform="translate(7.82 9.622)"><path class="e" d="M86.993,128.291a35.926,35.926,0,0,1-11.6,4.9,1.815,1.815,0,0,0-1.454,1.77v14.45a15.239,15.239,0,0,0,6.288,12.333l7.113,5.162a1.086,1.086,0,0,0,1.275,0l7.113-5.162a15.239,15.239,0,0,0,6.288-12.333v-14.45a1.815,1.815,0,0,0-1.454-1.77,35.921,35.921,0,0,1-11.6-4.9A1.8,1.8,0,0,0,86.993,128.291Z" transform="translate(-49.521 -84.286)"/><circle class="b" cx="9.908" cy="9.908" r="9.908" transform="translate(28.545 53.359)"/><path class="f" d="M104.577,166.65l-5.009,5.718-1.642-1.326a1.7,1.7,0,1,0-2.142,2.637l4.19,3.383,7.166-8.18a1.7,1.7,0,0,0-2.563-2.232Z" transform="translate(-62.904 -108.298)"/><path class="g" d="M15.022,243.378H8.374a.554.554,0,0,0,0,1.108h6.648a.554.554,0,0,0,0-1.108Z" transform="translate(-7.82 -157.059)"/><path class="g" d="M234.379,243.378h-6.648a.554.554,0,0,0,0,1.108h6.648a.554.554,0,0,0,0-1.108Z" transform="translate(-146.175 -157.059)"/><path class="g" d="M103.4,243.378H36.575a.554.554,0,0,0,0,1.108H103.4a.554.554,0,1,0,0-1.108Z" transform="translate(-25.607 -157.059)"/><path class="g" d="M8.374,93H96.023a.554.554,0,0,0,0-1.108H75.1V88.02h4.862a.554.554,0,0,0,.554-.554V83.043H85.38a.554.554,0,0,0,.554-.554V10.176a.554.554,0,0,0-.554-.554H29.849a.554.554,0,0,0-.554.554V14.6H24.433a.554.554,0,0,0-.554.554v4.423H19.017a.554.554,0,0,0-.554.554V91.889H8.374a.554.554,0,1,0,0,1.107Zm37.587-1.209-7.113-5.162a14.685,14.685,0,0,1-6.059-11.885V60.291A1.255,1.255,0,0,1,33.8,59.064a36.2,36.2,0,0,0,11.792-4.973,1.247,1.247,0,0,1,1.357,0,36.2,36.2,0,0,0,11.792,4.973,1.255,1.255,0,0,1,1.015,1.227v14.45A14.687,14.687,0,0,1,53.7,86.626l-7.113,5.162a.53.53,0,0,1-.31.1h0a.532.532,0,0,1-.311-.1ZM30.4,10.73H84.826V81.935H80.518V15.153a.554.554,0,0,0-.554-.554H30.4Zm-5.416,4.977H79.41V86.912H75.1V20.13a.554.554,0,0,0-.554-.554H24.987Zm-5.416,4.977H73.995V91.889H48.332l6.017-4.367a15.795,15.795,0,0,0,6.517-12.782V60.291a2.384,2.384,0,0,0-1.894-2.312,35.679,35.679,0,0,1-11.417-4.818,2.359,2.359,0,0,0-2.564,0A35.679,35.679,0,0,1,33.574,57.98a2.384,2.384,0,0,0-1.894,2.312v14.45A15.792,15.792,0,0,0,38.2,87.522l6.017,4.367H19.571Z" transform="translate(-7.82 -9.622)"/><path class="g" d="M59.279,59.587h38.2a.554.554,0,1,0,0-1.108h-38.2a.554.554,0,1,0,0,1.108Z" transform="translate(-39.927 -40.438)"/><path class="g" d="M59.279,77.762h38.2a.554.554,0,0,0,0-1.108h-38.2a.554.554,0,1,0,0,1.108Z" transform="translate(-39.927 -51.901)"/><path class="g" d="M59.279,95.937h38.2a.554.554,0,1,0,0-1.108h-38.2a.554.554,0,1,0,0,1.108Z" transform="translate(-39.927 -63.365)"/><path class="g" d="M98.036,113.558a.554.554,0,0,0-.554-.554h-38.2a.554.554,0,1,0,0,1.108h38.2A.554.554,0,0,0,98.036,113.558Z" transform="translate(-39.927 -74.828)"/><path class="g" d="M104.545,163.082a10.462,10.462,0,1,0-10.463,10.462A10.474,10.474,0,0,0,104.545,163.082Zm-19.816,0a9.355,9.355,0,1,1,9.354,9.354A9.365,9.365,0,0,1,84.728,163.082Z" transform="translate(-55.629 -99.815)"/><path class="g" d="M107.163,166.669a2.233,2.233,0,0,0-.767-1.544,2.261,2.261,0,0,0-3.181.215l-4.658,5.317-1.228-.992a2.26,2.26,0,0,0-3.171.332,2.247,2.247,0,0,0,.332,3.166l4.19,3.383a.554.554,0,0,0,.765-.066l7.166-8.179A2.23,2.23,0,0,0,107.163,166.669Zm-1.385.9-6.816,7.779L95.186,172.3a1.139,1.139,0,0,1-.168-1.606,1.151,1.151,0,0,1,1.614-.169l1.642,1.326a.553.553,0,0,0,.765-.066l5.009-5.718h0a1.152,1.152,0,0,1,1.62-.108,1.139,1.139,0,0,1,.11,1.611Z" transform="translate(-61.958 -107.354)"/></g></g></g></svg>