<svg xmlns="http://www.w3.org/2000/svg" width="173" height="119" viewBox="0 0 173 119"><defs><style>.a{fill:rgba(255,255,255,0.47);}.b{fill:#f8af23;}.c{fill:#f87023;}.d{fill:#f8d323;}.e{fill:#63bce7;}.f{fill:#6377e7;}.g{fill:#cecece;}.h{fill:#afafaf;}.i{fill:#3f3679;}</style></defs><g transform="translate(6241 9058)"><rect class="a" width="173" height="119" rx="10" transform="translate(-6241 -9058)"/><g transform="translate(-6215.511 -9067.94)"><g transform="translate(11.994 46.027)"><circle class="b" cx="6.017" cy="6.017" r="6.017" transform="translate(85.727 52.158)"/><circle class="b" cx="6.017" cy="6.017" r="6.017" transform="translate(85.727 26.079)"/><circle class="b" cx="6.017" cy="6.017" r="6.017" transform="translate(85.727)"/><circle class="b" cx="6.017" cy="6.017" r="6.017" transform="translate(0 52.158)"/></g><g transform="translate(11.995 98.185)"><path class="c" d="M23.752,199.126a6.007,6.007,0,0,1,2.78-5.067,6.017,6.017,0,1,0,0,10.133A6.007,6.007,0,0,1,23.752,199.126Z" transform="translate(-17.277 -193.109)"/></g><circle class="b" cx="6.017" cy="6.017" r="6.017" transform="translate(11.994 72.106)"/><g transform="translate(11.995 72.106)"><path class="c" d="M23.752,140.052a6.008,6.008,0,0,1,2.78-5.067,6.017,6.017,0,1,0,0,10.133A6.007,6.007,0,0,1,23.752,140.052Z" transform="translate(-17.277 -134.035)"/></g><circle class="b" cx="6.017" cy="6.017" r="6.017" transform="translate(11.994 46.027)"/><g transform="translate(11.995 46.027)"><path class="c" d="M23.752,80.978a6.007,6.007,0,0,1,2.78-5.067,6.017,6.017,0,1,0,0,10.133A6.007,6.007,0,0,1,23.752,80.978Z" transform="translate(-17.277 -74.961)"/></g><g transform="translate(100.501 46.027)"><path class="d" d="M220.54,80.978a6.007,6.007,0,0,0-2.78-5.067,6.017,6.017,0,1,1,0,10.133A6.007,6.007,0,0,0,220.54,80.978Z" transform="translate(-217.76 -74.961)"/></g><g transform="translate(100.501 72.106)"><path class="d" d="M220.54,140.052a6.008,6.008,0,0,0-2.78-5.067,6.017,6.017,0,1,1,0,10.133A6.007,6.007,0,0,0,220.54,140.052Z" transform="translate(-217.76 -134.035)"/></g><g transform="translate(100.501 98.185)"><path class="d" d="M220.54,199.126a6.008,6.008,0,0,0-2.78-5.067,6.017,6.017,0,1,1,0,10.133A6.007,6.007,0,0,0,220.54,199.126Z" transform="translate(-217.76 -193.109)"/></g><path class="e" d="M93.922,110.969H124.01v32.4H93.922Z" transform="translate(-48.091 -49.046)"/><g transform="translate(45.831 61.923)"><path class="f" d="M93.922,110.969H100.4v32.4H93.922Z" transform="translate(-93.922 -110.969)"/></g><path class="g" d="M114.136,139.38h12.241v19.857H114.136Z" transform="translate(-59.381 -64.915)"/><path class="g" d="M93.922,96.514l15.044-11.425L124.01,96.514Z" transform="translate(-48.091 -34.591)"/><g transform="translate(45.831 50.498)"><path class="h" d="M108.966,85.089,93.922,96.514H100.4L112.2,87.548Z" transform="translate(-93.922 -85.089)"/></g><g transform="translate(7.82 23.157)"><path class="i" d="M16.43,229.842H8.482a.662.662,0,1,0,0,1.324H16.43a.662.662,0,1,0,0-1.324Z" transform="translate(-7.82 -138.598)"/><path class="i" d="M235.787,229.842h-7.948a.662.662,0,1,0,0,1.324h7.948a.662.662,0,1,0,0-1.324Z" transform="translate(-130.339 -138.598)"/><path class="i" d="M116.57,229.842H36.683a.662.662,0,1,0,0,1.324H116.57a.662.662,0,1,0,0-1.324Z" transform="translate(-23.571 -138.598)"/><path class="i" d="M113.93,138.316a.662.662,0,0,0-.662-.662h-5.554a6.675,6.675,0,1,0-10.621-6.017H93.83A10.337,10.337,0,0,1,83.5,121.311V106.882H97.093a6.679,6.679,0,1,0,0-1.324H83.5V91.128A10.337,10.337,0,0,1,93.83,80.8h3.262a6.679,6.679,0,1,0,0-1.324H93.83a11.663,11.663,0,0,0-11.65,11.65v14.429h-5.6V90.019a.659.659,0,0,0-.263-.525v0L61.276,78.067a.662.662,0,0,0-.8,0L45.431,89.492s0,.006-.007.009a.659.659,0,0,0-.254.518v15.538h-5.6V91.128a11.663,11.663,0,0,0-11.65-11.65H24.657a6.679,6.679,0,1,0,0,1.324H27.92A10.337,10.337,0,0,1,38.246,91.128v14.429H24.657a6.679,6.679,0,1,0,0,1.324H38.246v14.429A10.337,10.337,0,0,1,27.92,131.636H24.657a6.678,6.678,0,1,0-10.621,6.017H8.482a.662.662,0,1,0,0,1.324H113.268a.662.662,0,0,0,.662-.662Zm-10.192-37.451a5.355,5.355,0,1,1-5.355,5.355A5.361,5.361,0,0,1,103.739,100.864Zm0-26.079a5.355,5.355,0,1,1-5.355,5.355A5.361,5.361,0,0,1,103.739,74.785ZM18.012,85.5a5.355,5.355,0,1,1,5.348-5.486.651.651,0,0,0,0,.261A5.358,5.358,0,0,1,18.012,85.5Zm0,26.079a5.355,5.355,0,1,1,5.355-5.355A5.361,5.361,0,0,1,18.012,111.574Zm85.727,15.369a5.355,5.355,0,1,1-5.351,5.443.446.446,0,0,0,0-.177,5.359,5.359,0,0,1,5.351-5.267Zm-37.405-5.186H55.416V103.224H66.333ZM67,101.9H54.754a.662.662,0,0,0-.662.662v19.2h-7.6V90.682H75.257v31.075h-7.6v-19.2A.662.662,0,0,0,67,101.9Zm-6.12-22.474,13.077,9.932H47.8ZM12.657,132.3a5.355,5.355,0,1,1,5.355,5.355A5.361,5.361,0,0,1,12.657,132.3Zm9.33,5.355a6.673,6.673,0,0,0,2.67-4.693H27.92a11.663,11.663,0,0,0,11.65-11.65V106.882h5.6v15.538a.662.662,0,0,0,.662.662H75.919a.662.662,0,0,0,.662-.662V106.882h5.6v14.429a11.663,11.663,0,0,0,11.65,11.65h3.262a6.673,6.673,0,0,0,2.67,4.693Z" transform="translate(-7.82 -51.254)"/><path class="i" d="M121.618,63.29a2.857,2.857,0,1,0,2.857-2.857A2.857,2.857,0,0,0,121.618,63.29Z" transform="translate(-71.38 -43.977)"/><path class="i" d="M125.537,52.216a.662.662,0,0,0,.468-1.131,9.361,9.361,0,0,0-13.207-.018.662.662,0,1,0,.934.939,8.036,8.036,0,0,1,11.336.015A.663.663,0,0,0,125.537,52.216Z" transform="translate(-66.345 -37.229)"/><path class="i" d="M95.851,30.072a19.228,19.228,0,0,1,27.123.013.662.662,0,0,0,.936-.938,20.553,20.553,0,0,0-28.993-.014.662.662,0,0,0,.935.939Z" transform="translate(-56.358 -23.157)"/><path class="i" d="M124.516,41.524a.662.662,0,0,0,.468-1.131,14.815,14.815,0,0,0-20.9-.015.662.662,0,1,0,.934.939,13.49,13.49,0,0,1,19.03.013A.661.661,0,0,0,124.516,41.524Z" transform="translate(-61.478 -30.37)"/></g></g></g></svg>