<svg xmlns="http://www.w3.org/2000/svg" xmlns:xlink="http://www.w3.org/1999/xlink" width="329.932" height="439.417" viewBox="0 0 329.932 439.417"><defs><style>.a{fill:#ffd947;}.b{fill:#ff9f87;}.c{fill:#21191b;}.d{fill:#3f3538;}.e{fill:url(#a);}.f{fill:#90ffe5;}.g{fill:#c1fff0;}.h{fill:#71ffdd;}.i{fill:#aaffeb;}.j{fill:#d3fff5;}.k{fill:#9fffe8;}.l{fill:#affae8;}.m{fill:#96ffe6;}.n{fill:#ff7e6a;}.o{fill:#fff;}.p{fill:#f5f2ee;}.q{fill:#e6d7d4;}</style><linearGradient id="a" x1="0.5" x2="0.5" y2="1" gradientUnits="objectBoundingBox"><stop offset="0" stop-color="#03e6b0"/><stop offset="1" stop-color="#0077ec"/></linearGradient></defs><g transform="translate(-79.053 -60.583)"><g transform="translate(0 99)"><path class="a" d="M82.754,204.689a103.7,103.7,0,0,1,38.106-58.412c13.431-10.179,31.17-18.541,51.363-15.431C217.3,137.788,265.2,199.795,315.465,190.1s90.692,29.871,84.047,92.343S282.465,393.6,184.534,366.556C100.39,343.324,67.236,269.026,82.754,204.689Z"/><path class="a" d="M404.952,158.81s-4.6-15.707-14.558-14.558-11.493,5.746-19.921,2.3-11.492-14.558-25.284-11.876-15.324,18-31.03,16.856-21.07-1.533-26.817,7.279Z"/><path class="a" d="M216.106,97.538s-6.3-13.932-23.507-9.779c-17.01,4.106-24.337-20.256-39.484-18.689s-13.779,11.064-33.1,14.2-20.856,0-29,14.27Z"/><path class="a" d="M402.144,304.89a1.35,1.35,0,0,0,1.3-.987c5.146-18.516,6.719-35.968,4.674-51.87a91.855,91.855,0,0,0-11.767-35.049c-10.52-17.906-23.647-25.723-24.2-26.047a1.348,1.348,0,0,0-1.363,2.327h0c.13.077,13.159,7.86,23.313,25.213,9.368,16.009,18.142,43.7,6.745,84.7a1.349,1.349,0,0,0,.939,1.66A1.365,1.365,0,0,0,402.144,304.89Z"/><path class="a" d="M93.457,166.146a1.349,1.349,0,0,0,1.094-.558c20.683-28.575,43.019-37.57,58.114-40.083,16.284-2.712,27.778,1.3,27.892,1.343a1.348,1.348,0,1,0,.908-2.539c-.493-.177-12.274-4.29-29.243-1.465a78.472,78.472,0,0,0-28.686,11.041c-11.329,7.064-21.816,17.2-31.17,30.122a1.348,1.348,0,0,0,1.091,2.139Z"/><path class="a" d="M140.987,363.086a1.349,1.349,0,0,0,.63-2.542c-20.255-10.689-34.829-28-43.489-40.641a150.059,150.059,0,0,1-14.073-25.112,1.349,1.349,0,0,0-2.5,1.016A153.235,153.235,0,0,0,95.9,321.427c8.831,12.891,23.713,30.556,44.455,41.5A1.355,1.355,0,0,0,140.987,363.086Z"/></g><path class="b" d="M319.862,455a135.255,135.255,0,0,1-5.251,26.761c-4.125,12.755-5.716,15.149-5.716,15.149S289,447.4,319.862,455Z"/><path class="c" d="M308.313,500,316,459.188l-71.8,2.435L240.828,500Z"/><path class="c" d="M254.412,500c5.752-20.167,9.814-34.368,9.814-34.368L187.1,445.018,178.9,500Z"/><path class="d" d="M191.878,500l6.748-45.375a1.455,1.455,0,0,0-2.879-.428L188.935,500Z"/><path class="e" d="M318.049,460.269a8.754,8.754,0,0,0,6.828-7.251c3.776-24.645.9-72.085-3.627-104.106-8.563-60.545-19.935-148.326-19.935-148.326-7.543,40.8-12.164,208.191-.565,257.531C306.8,460.475,312.608,461.412,318.049,460.269Z"/><path class="e" d="M313.882,407.475q-.333-3.492-.667-7.035c-.085-.832-.16-1.665-.238-2.5-.217-2.224-.435-4.462-.645-6.692q-.165-1.721-.325-3.435c-.11-1.2-.23-2.4-.332-3.593-.063-.662-.12-1.334-.183-2-.057-.61-.112-1.22-.16-1.837q-.2-2.172-.375-4.33c-.04-.375-.07-.758-.1-1.131s-.058-.764-.093-1.139q-.248-2.979-.462-5.893c-.073-.965-.143-1.93-.2-2.882-.058-.776-.108-1.545-.155-2.311-.015-.24-.028-.48-.045-.719-.028-.478-.058-.953-.085-1.425-.05-.776-.1-1.558-.138-2.328-.032-.663-.067-1.325-.1-1.975-.04-.787-.08-1.563-.115-2.332-.07-1.621-.125-3.205-.165-4.763-.062-2.477-.092-4.868-.075-7.155.013-1.25.035-2.465.075-3.652.01-.375.023-.763.033-1.153.017-.815.035-1.652.04-2.515.03-3.12-.005-6.52-.085-10.155-.018-.867-.04-1.758-.068-2.652a.976.976,0,0,0-.007-.143c-.015-.81-.04-1.632-.068-2.465-.027-.895-.057-1.808-.085-2.732a.676.676,0,0,1-.005-.1c-.012-.342-.025-.685-.035-1.032-.017-.4-.03-.8-.045-1.2-.012-.382-.035-.76-.047-1.135-.04-1.112-.085-2.237-.125-3.372-.045-1.113-.1-2.236-.143-3.365-.027-.743-.057-1.5-.09-2.243-.075-1.975-.16-3.982-.247-6.007-.015-.41-.028-.816-.045-1.228-.01-.335-.028-.678-.04-1.015q-.154-3.7-.295-7.472c-.025-.793-.053-1.58-.08-2.381-.025-.73-.058-1.455-.08-2.189-.023-.793-.053-1.588-.075-2.375,0-.068,0-.131,0-.193-.03-.97-.058-1.945-.08-2.915-.023-.6-.035-1.205-.053-1.8-.12-4.606-.2-9.221-.222-13.791-.01-1.6-.01-3.2.007-4.784,0-.3.005-.6.005-.886.063-9.247-.327-20.192-.337-28.347-.033-25.55-10.143-43.028-32.4-50.245l-16.955-5.5a24.434,24.434,0,0,0-18.033,1.2c-9.77,4.65-25.475,12.857-37.14,22.5-1.455,1.205-2.847,2.43-4.157,3.677-5.7,5.413-9.848,11.173-10.84,16.941-.245,1.415-.525,3.5-.833,6.184-.165,1.455-.347,3.1-.53,4.9-1.222,11.859-2.745,30.782-4.125,52.9-.035.6-.075,1.2-.11,1.82q-.168,2.7-.335,5.475c-.04.725-.08,1.46-.125,2.2q-.06,1.173-.137,2.362c-.058,1.01-.115,2.02-.173,3.04-.04.787-.085,1.575-.13,2.373-.035.732-.075,1.455-.115,2.184-.035.64-.062,1.285-.1,1.925-.055,1.055-.113,2.116-.165,3.183-.035.605-.063,1.21-.09,1.82q-.2,3.877-.383,7.815-.273,5.955-.525,12c-.022.633-.052,1.268-.075,1.9-.05,1.416-.1,2.83-.152,4.25q-.132,3.365-.248,6.738c-.152,4.775-.295,9.555-.415,14.307-.045,2.051-.1,4.093-.137,6.128-.013.515-.018,1.023-.028,1.535-.03,1.49-.052,2.968-.087,4.445-.005.285-.005.565-.01.845-.018.985-.035,1.967-.045,2.955-.013,1.088-.03,2.168-.04,3.245-.013,1.148-.018,2.287-.03,3.423q-.027,2.977-.028,5.917c-.005.708-.005,1.408-.005,2.11v1.825c0,1.05.005,2.082.01,3.12q.02,4.71.085,9.255.034,2.531.1,5.015c.012.69.03,1.375.045,2.057.017.708.035,1.423.057,2.118.863,30.453,3.7,53.187,9.87,56.712,19.968,11.4,109.228,12.758,122.725,5.678C318.8,467.058,316.827,438.865,313.882,407.475Zm-125.22-28.523-6.917-27.2q5.432-17.785,12.36-34.475Z"/><path class="f" d="M212.966,396.59a1.375,1.375,0,0,1-.145-2.742h0a94.734,94.734,0,0,0,31.813-10.92c15.333-8.463,35.3-25.211,43.344-56.936a1.375,1.375,0,0,1,2.666.676,93.487,93.487,0,0,1-18.889,37.65,90.932,90.932,0,0,1-25.89,21.071c-17.152,9.442-32.123,11.126-32.752,11.193A1.463,1.463,0,0,1,212.966,396.59Z"/><path class="g" d="M276.056,201.8a2.869,2.869,0,1,1-3.106-2.612A2.869,2.869,0,0,1,276.056,201.8Z"/><path class="g" d="M277.18,214.808a2.87,2.87,0,1,1-3.106-2.611A2.87,2.87,0,0,1,277.18,214.808Z"/><path class="g" d="M278.612,231.388a2.869,2.869,0,1,1-3.105-2.612A2.87,2.87,0,0,1,278.612,231.388Z"/><path class="h" d="M274.849,195.356l-.052,0c-20.611.8-36.586-10.913-37.255-11.411a1.141,1.141,0,0,1,1.362-1.831c.158.117,16.021,11.725,35.805,10.962a1.141,1.141,0,0,1,.14,2.277Z"/><path class="g" d="M207.872,443.2a1.141,1.141,0,0,0,1.079-1.512c-10.692-31.1-21.6-63.66-27.206-89.936,7.936-27.3,25.77-66.264,43.019-103.948a1.141,1.141,0,0,0-2.075-.95c-17.342,37.887-35.273,77.064-43.215,104.539a1.13,1.13,0,0,0-.02.554c5.616,26.45,16.585,59.2,27.339,90.483A1.142,1.142,0,0,0,207.872,443.2Z"/><path class="i" d="M216.348,265.039a1.138,1.138,0,0,0,.642-.2l12.551-8.558a1.141,1.141,0,1,0-1.286-1.885L215.7,262.955a1.141,1.141,0,0,0,.644,2.084Z"/><path class="j" d="M240.058,438.5a128.841,128.841,0,0,0,33.549-4.843,158.294,158.294,0,0,0,29.066-11.066,1.458,1.458,0,0,0-1.367-2.575c-.47.249-47.449,24.794-86.418,11.751a1.458,1.458,0,0,0-.926,2.765A82.227,82.227,0,0,0,240.058,438.5Z"/><path class="j" d="M251.289,452.167c6.775,0,13.708-.7,19.243-2.815a1.458,1.458,0,0,0-1.04-2.724c-15.348,5.86-43.5,0-43.777-.063a1.457,1.457,0,1,0-.6,2.851A141.413,141.413,0,0,0,251.289,452.167Z"/><path class="e" d="M228.357,231.653l-.015.026c-2.337,4.961-4.709,10.073-7.04,15.127l-6.956,15.241q-6.9,15.256-13.541,30.565c-4.4,10.2-8.7,20.42-12.688,30.571-1.98,5.065-3.892,10.124-5.577,15.024-.837,2.439-1.612,4.842-2.248,7.044-.305,1.08-.6,2.15-.785,2.972-.057.232-.094.4-.13.574l-.057.258a.071.071,0,0,0-.005.026v-.016a.08.08,0,0,0-.01-.031c0-.005-.01-.015-.016-.015v.051a1.432,1.432,0,0,1-.046.212c0,.29-.047.5-.036.915.005.191-.011.357,0,.574l.021.656c.01.429.067.962.087,1.442l.155,1.587c.248,2.186.636,4.584,1.1,7.034.925,4.92,2.16,10.073,3.5,15.246,2.724,10.368,5.949,20.89,9.36,31.382s7.06,21,10.827,31.469q2.823,7.854,5.753,15.681l2.946,7.809,2.971,7.722.1.258a15.739,15.739,0,0,1-29.087,12.006l-3.5-7.882-3.417-7.84q-3.387-7.845-6.682-15.737c-4.388-10.528-8.662-21.118-12.766-31.852s-8.031-21.588-11.6-32.85c-1.385-4.408-2.719-8.863-3.938-13.5-.347-1.308-.678-2.626-1-3.964-.734-3.055-1.416-6.192-1.98-9.572l-.4-2.605c-.109-.92-.238-1.783-.321-2.76l-.134-1.447c-.042-.486-.068-1.028-.093-1.54-.073-.992-.073-2.186-.078-3.308l.072-1.9.026-.471.047-.542.108-1.08.062-.543.068-.491.119-.786c.077-.527.16-1.049.248-1.5.341-1.948.718-3.607,1.1-5.261.776-3.251,1.608-6.243,2.466-9.174a1.282,1.282,0,0,1,.041-.129c1.7-5.794,3.52-11.318,5.38-16.792,3.758-11.008,7.722-21.743,11.768-32.425s8.2-21.262,12.42-31.821l6.372-15.81c2.15-5.277,4.29-10.487,6.517-15.82.119-.279.274-.636.4-.91a22.164,22.164,0,1,1,40.1,18.9Z"/><path class="k" d="M231.015,218.855a1.369,1.369,0,0,1-1.768-.81c-3.462-9.333-8.665-15.278-15.462-17.67-5.46-1.92-11.1-1.245-15.455-.033,1.31-1.247,2.7-2.472,4.157-3.677a26.37,26.37,0,0,1,12.21,1.118c7.608,2.675,13.37,9.172,17.128,19.3A1.374,1.374,0,0,1,231.015,218.855Z"/><path class="l" d="M145.045,373.4c-.347-1.308-.678-2.626-1-3.964-.734-3.055-1.416-6.192-1.98-9.572l-.4-2.605c-.109-.92-.238-1.783-.321-2.76l-.134-1.447c-.042-.486-.068-1.028-.093-1.54-.073-.992-.073-2.186-.078-3.308l.072-1.9.026-.471.047-.542.108-1.08.062-.543.068-.491.119-.786c.077-.527.16-1.049.248-1.5.341-1.948.718-3.607,1.1-5.261.776-3.251,1.608-6.243,2.466-9.174a1.282,1.282,0,0,1,.041-.129C150.228,336.579,161.242,364.157,145.045,373.4Z"/><path class="b" d="M212.712,500l9.692-5.235c.048-.025.095-.051.141-.077a5.633,5.633,0,0,0,1.661-8.395c-3.531-4.509-9.586-12.139-9.586-12.139-10.183-1.283-17.668,2.827-23.831,9.578,0,0,.02,9.016,2.664,16.268Z"/><path class="d" d="M217.944,500c9.149-6.356,12.941-13.569,13.191-14.059a1.589,1.589,0,0,0-2.829-1.448c-.066.128-4.8,9.055-16.53,15.507Z"/><path class="m" d="M179.513,356.078a1.458,1.458,0,0,0,.326-2.879l-18.464-4.25a1.458,1.458,0,1,0-.654,2.841l18.464,4.251A1.478,1.478,0,0,0,179.513,356.078Z"/><path class="m" d="M162.02,359.193a1.463,1.463,0,0,0,.547-.107l11.246-4.553a1.457,1.457,0,1,0-1.093-2.7l-11.247,4.552a1.458,1.458,0,0,0,.547,2.81Z"/><path class="c" d="M234.747,109.1s-7.04-9.02-4.269-17.353,13.354-9,13.354-9-1.915-9.167,4.585-12.167,30.689,2.245,43.958-.708c12.545-2.792,15.542-9.292,15.542-9.292s9.652,29.833-10.174,33.083S242.243,95.122,234.747,109.1Z"/><path class="c" d="M235.551,110.72c-.415-.3-10.133-7.456-7.954-16.429,1.965-8.088,9.087-9.717,14.81-11.026.715-.164,1.39-.318,2.046-.482l.242.97c-.665.166-1.345.322-2.065.486-5.738,1.313-12.243,2.8-14.061,10.288-2.02,8.318,7.473,15.313,7.569,15.383Z"/><path class="c" d="M298.859,94.107a14.227,14.227,0,0,1-2.249-.16l.169-.986c.069.012,6.963,1.124,10.884-3.327,3.431-3.9,3.678-10.789.733-20.489l.957-.29c3.054,10.058,2.736,17.274-.945,21.446C305.549,93.542,301.4,94.107,298.859,94.107Z"/><path class="b" d="M275.581,185.209s-.033.013-.1.033a60.885,60.885,0,0,1-9.073,1.312h-.053a46.168,46.168,0,0,1-25.735-7.233l.369-18.765.4-20.144L246,141.823l28.768,8.783.548,23.433Z"/><path class="c" d="M251.326,145.94s1.96,26.647,24.037,30.053l-.6-25.388Z"/><path class="n" d="M291.912,111.38s8.6-5.306,12.723,5.185-5.4,23.87-15.186,21.692C289.449,138.257,288.036,116.774,291.912,111.38Z"/><path class="c" d="M294.382,163.276s9.806-14.183,7.487-38c0,0-2.466,18.574-5.314,21.65Z"/><path class="b" d="M301.867,127.5c-.187,3.464-.515,6.974-1.03,10.432-.332,2.255-.747,4.487-1.255,6.67-1.8,7.775-4.782,14.915-9.5,20.192-9.2,10.286-22.273,5.8-33.433-4.242A77.836,77.836,0,0,1,238.9,136.44v-.008c-.587-1.267-1.132-2.522-1.615-3.777a37.944,37.944,0,0,1-2.827-12.912c-.013-1.388-.013-2.718,0-4,.017-1.45.06-2.828.122-4.145.043-.857.1-1.695.16-2.5a58.6,58.6,0,0,1,1.125-8.154C237.985,91.4,242.657,86.823,251.1,83c6.147-2.792,16.517-3.727,26.167-2.644a27.227,27.227,0,0,1,21.145,14.517c.368.685.693,1.382.993,2.1.005.005.005.018.012.025a27.374,27.374,0,0,1,2.015,8.24A165.365,165.365,0,0,1,301.867,127.5Z"/><path class="n" d="M301.867,127.5c-.187,3.464-.515,6.974-1.03,10.432-.022,0-.045,0-.067,0a5.275,5.275,0,1,1,1.1-10.434Z"/><path class="n" d="M271.592,131.833a5.276,5.276,0,1,1-5.275-5.275A5.275,5.275,0,0,1,271.592,131.833Z"/><path class="c" d="M264.113,117s9.022-2.539,16.25-1.083c0,0,.979-6.479-7.228-5.89C267.18,110.454,263.2,111.333,264.113,117Z"/><path class="c" d="M303.7,117.743s-8.354-2.71-15.175-1.612c0,0-.679-6.1,6.984-5.249C301.064,111.5,304.762,112.471,303.7,117.743Z"/><path class="n" d="M237.286,132.657q.728,1.877,1.613,3.773v.007a19.717,19.717,0,0,0,10.049,2.981c.26,0,.424-.007.472-.014a1.024,1.024,0,1,0-.13-2.044c-.035,0-.164.007-.363.007A17.826,17.826,0,0,1,237.286,132.657Z"/><path class="c" d="M294.048,163.9c-3.643,6.716-7.831,8.621-20.6,7.635-6.612-.508-13.632-5.044-17.771-10.573A25.5,25.5,0,0,1,251.1,148.6c-.789-7.242-4.255-29.889-4.371-30.685-3.722-.208-8.131-1.372-12.263-2.174.006-.71.024-1.4.043-2.081.024-.7.049-1.39.079-2.063.043-.857.1-1.7.16-2.5a58.116,58.116,0,0,1,1.126-8.155C237.985,91.4,242.657,86.823,251.1,83c6.147-2.792,16.519-3.729,26.168-2.645a27.21,27.21,0,0,1,20.859,13.984c.1.177.2.355.287.532a5.084,5.084,0,0,0-.4-.434c-5.216-5.058-23.057-3.111-29.265-2.131a4.941,4.941,0,0,0-4.169,4.867,4.871,4.871,0,0,0,.116,1.059,7.556,7.556,0,0,1-.318,4.353c-.558,1.439-1.506,2.982-3.031,3.209a9.138,9.138,0,0,0-5.143,2.283c-3.141,2.988-2.118,7.665-2.118,7.665s6.361,23.878,10.347,25.378,7.634-.686,22.989.679c0,0,8.455,1.121,11.529,2.272a1.3,1.3,0,0,1,.637.526C301.285,147.239,297.385,157.763,294.048,163.9Z"/><path class="d" d="M282.052,159.517a10.751,10.751,0,0,1-3.283-1.155.978.978,0,0,1,1-1.683,8.732,8.732,0,0,0,8.107.1.979.979,0,0,1,.919,1.728A10.187,10.187,0,0,1,282.052,159.517Z"/><path class="o" d="M274.9,146.5s11.344,2.448,20.6.715c0,0-4.126,8.085-12.7,6.768C276.11,152.957,274.9,146.5,274.9,146.5Z"/><path class="c" d="M298.126,94.342c-.037.036-.08.067-.117.1-5.216-5.058-23.057-3.111-29.265-2.131a4.941,4.941,0,0,0-4.169,4.867,4.871,4.871,0,0,0,.116,1.059,7.556,7.556,0,0,1-.318,4.353c-.558,1.439-1.506,2.982-3.031,3.209a9.138,9.138,0,0,0-5.143,2.283,105.174,105.174,0,0,0-21.691,5.584c.024-.7.049-1.39.079-2.063.043-.857.1-1.7.16-2.5a58.116,58.116,0,0,1,1.126-8.155C237.985,91.4,242.657,86.823,251.1,83c6.147-2.792,16.519-3.729,26.168-2.645A27.21,27.21,0,0,1,298.126,94.342Z"/><path class="c" d="M270.529,92.048s7.376-1.465,11.923,2.2,5.616,4.431,8.3,4.313c2.83-.125,1.759-5.394,5.441-5.386S277.808,84.846,270.529,92.048Z"/><path class="b" d="M243.518,110.978s-9.452-4.6-11.775,6.43,8.416,20.721,18.026,20.046C249.769,137.454,248.237,115.653,243.518,110.978Z"/><path class="n" d="M244.7,129.453a1.017,1.017,0,0,1-.977-.84,16.988,16.988,0,0,0-6.417-10.36,1.018,1.018,0,0,1,1.133-1.692,18.743,18.743,0,0,1,7.289,11.695,1.019,1.019,0,0,1-.825,1.181A.932.932,0,0,1,244.7,129.453Z"/><path class="n" d="M236.868,124.5a1.018,1.018,0,0,1-.45-1.92c.139-.073,3.438-1.778,6.117-1.284a1.018,1.018,0,1,1-.37,2c-1.648-.3-4.025.68-4.8,1.086A1.019,1.019,0,0,1,236.868,124.5Z"/><path class="n" d="M288.105,140.394a15.787,15.787,0,0,1-3.464-.48,1.1,1.1,0,0,1,.523-2.141,11.387,11.387,0,0,0,3.661.377c-.077-1.811-1.3-10.081-2.493-17.432a1.1,1.1,0,1,1,2.175-.354c.636,3.918,2.694,16.818,2.505,18.328a1.725,1.725,0,0,1-.753,1.216A3.913,3.913,0,0,1,288.105,140.394Z"/><path class="c" d="M274.1,122.614c.034,1.914-.8,3.481-1.852,3.5s-1.941-1.517-1.975-3.431.795-3.48,1.852-3.5S274.071,120.7,274.1,122.614Z"/><path class="c" d="M297.408,122.614c.034,1.914-.795,3.481-1.852,3.5s-1.941-1.517-1.975-3.431.8-3.48,1.853-3.5S297.375,120.7,297.408,122.614Z"/><path class="o" d="M288.6,124.265c0-6.177,4.559-11.2,10.163-11.2s10.162,5.025,10.162,11.2-4.558,11.2-10.162,11.2S288.6,130.442,288.6,124.265Zm1.3,0c0,5.457,3.974,9.9,8.858,9.9s8.858-4.44,8.858-9.9-3.974-9.9-8.858-9.9S289.9,118.808,289.9,124.265Z"/><path class="o" d="M263.432,124.265c0-6.177,4.558-11.2,10.162-11.2s10.163,5.025,10.163,11.2-4.559,11.2-10.163,11.2S263.432,130.442,263.432,124.265Zm1.3,0c0,5.457,3.974,9.9,8.858,9.9s8.858-4.44,8.858-9.9-3.974-9.9-8.858-9.9S264.736,118.808,264.736,124.265Z"/><path class="o" d="M253.927,113.53a26.259,26.259,0,0,1,10.835,5.2c.543.443.855.743.913.8l-.913.932c-.012-.012-.2-.195-.552-.49a25.556,25.556,0,0,0-10.248-5.075Z"/><path class="o" d="M282.223,119.421c3.614-3.119,7.926-.322,8.108-.2l.724-1.085c-.052-.035-5.312-3.473-9.685.3Z"/><path class="o" d="M288.475,306.914a.749.749,0,0,1-.72-.542c-.073-.254-7.425-25.677-18.258-54.057-14.309-37.486-28.16-63.079-40.057-74.014a.75.75,0,0,1,1.015-1.1c6.75,6.2,14.04,16.848,21.668,31.637A429.11,429.11,0,0,1,270.9,251.79c8.733,22.878,15.207,43.838,17.443,51.292,6.934-34.891,3.919-66.558.09-87.208-4.268-23.013-10.441-37.686-10.5-37.831a.75.75,0,1,1,1.38-.587c.062.146,6.288,14.937,10.588,38.1a244.688,244.688,0,0,1,4.1,40.986,223.057,223.057,0,0,1-4.793,49.78.751.751,0,0,1-.707.593Z"/><rect class="p" width="35.286" height="49.262" rx="1.538" transform="translate(269.226 301.994)"/><path class="q" d="M276.767,310.817h19.615a.43.43,0,0,0,0-.861H276.767a.43.43,0,1,0,0,.861Z"/><path class="q" d="M276.767,317.706h19.615a.43.43,0,0,0,0-.861H276.767a.43.43,0,1,0,0,.861Z"/><path class="q" d="M276.767,324.5h19.615a.43.43,0,0,0,0-.861H276.767a.43.43,0,1,0,0,.861Z"/><path class="q" d="M301.642,348.76H272.1a.375.375,0,0,1-.375-.375v-43.52a.375.375,0,0,1,.375-.375h29.545a.375.375,0,0,1,.375.375v43.52A.375.375,0,0,1,301.642,348.76Zm-29.17-.75h28.8V305.24h-28.8Z"/></g></svg>