<svg xmlns="http://www.w3.org/2000/svg" xmlns:xlink="http://www.w3.org/1999/xlink" width="249" height="245" viewBox="0 0 249 245"><defs><style>.a{fill:#fff;opacity:0.949;}.b{fill:url(#a);}.c{fill:#0077ec;}.d{fill:url(#c);}.e{fill:url(#d);}.f{fill:#03e6b0;}.g{fill:url(#e);}.h{fill:url(#g);}</style><linearGradient id="a" x1="0.5" y1="17.09" x2="0.5" y2="5.672" gradientUnits="objectBoundingBox"><stop offset="0.322" stop-color="#a163f5"/><stop offset="0.466" stop-color="#b074ee"/><stop offset="0.752" stop-color="#d8a1dd"/><stop offset="0.898" stop-color="#efbad3"/></linearGradient><linearGradient id="c" x1="0.5" y1="12.945" x2="0.5" y2="1.527" xlink:href="#a"/><linearGradient id="d" x1="0.5" y1="8.799" x2="0.5" y2="-2.619" xlink:href="#a"/><linearGradient id="e" x1="0.5" y1="21.236" x2="0.5" y2="9.817" xlink:href="#a"/><linearGradient id="g" x1="0.5" x2="0.5" y2="1" gradientUnits="objectBoundingBox"><stop offset="0" stop-color="#0077ec"/><stop offset="1" stop-color="#03e6b0"/></linearGradient></defs><g transform="translate(-207 -10322)"><g transform="translate(207.367 10321.992)"><rect class="a" width="249" height="245" transform="translate(-0.367 0.008)"/></g><g transform="translate(230.13 10359.914)"><path class="b" d="M324.75,124.473h-7.927a1.839,1.839,0,1,0,0,3.677h7.927a1.839,1.839,0,1,0,0-3.677Z" transform="translate(-195.536 -82.861)"/><path class="b" d="M289.177,124.473a1.839,1.839,0,0,0,0,3.677h1.584a1.839,1.839,0,1,0,0-3.677Z" transform="translate(-176.361 -82.861)"/><path class="c" d="M147.646,124.473a1.839,1.839,0,1,0,0,3.677h36.392a1.839,1.839,0,0,0,0-3.677Z" transform="translate(-78.202 -82.861)"/><path class="c" d="M276.756,174.218H247.623a1.839,1.839,0,1,0,0,3.677h29.133a1.839,1.839,0,1,0,0-3.677Z" transform="translate(-147.541 -117.362)"/><path class="d" d="M223.753,174.218a1.839,1.839,0,1,0,0,3.677h.468a1.839,1.839,0,0,0,0-3.677Z" transform="translate(-130.986 -117.362)"/><path class="c" d="M164.266,174.218h-16.62a1.839,1.839,0,1,0,0,3.677h16.62a1.839,1.839,0,1,0,0-3.677Z" transform="translate(-78.202 -117.362)"/><path class="e" d="M336.759,223.964h-2.621a1.839,1.839,0,1,0,0,3.677h2.622a1.839,1.839,0,0,0,0-3.677Z" transform="translate(-207.545 -151.863)"/><path class="c" d="M244.735,223.964H215.11a1.839,1.839,0,1,0,0,3.677h29.625a1.839,1.839,0,1,0,0-3.677Z" transform="translate(-124.992 -151.863)"/><path class="c" d="M147.646,227.641h13.732a1.839,1.839,0,1,0,0-3.677H147.646a1.839,1.839,0,1,0,0,3.677Z" transform="translate(-78.202 -151.863)"/><path class="f" d="M278.083,273.709h-6.4a1.839,1.839,0,0,0,0,3.677h6.4a1.839,1.839,0,0,0,0-3.677Z" transform="translate(-164.226 -186.364)"/><path class="f" d="M215.352,275.548a1.839,1.839,0,0,0-1.839-1.839H197.571a1.839,1.839,0,0,0,0,3.677h15.943A1.839,1.839,0,0,0,215.352,275.548Z" transform="translate(-112.827 -186.364)"/><path class="f" d="M147.646,277.386h8.561a1.839,1.839,0,1,0,0-3.677h-8.561a1.839,1.839,0,1,0,0,3.677Z" transform="translate(-78.202 -186.364)"/><path class="f" d="M267.641,323.454h-8.559a1.839,1.839,0,1,0,0,3.677h8.559a1.839,1.839,0,1,0,0-3.677Z" transform="translate(-155.489 -220.865)"/><path class="f" d="M175.684,327.131h18.8a1.839,1.839,0,1,0,0-3.677h-18.8a1.839,1.839,0,1,0,0,3.677Z" transform="translate(-97.648 -220.865)"/><path class="f" d="M149.485,323.454H147.65a1.839,1.839,0,0,0,0,3.677h1.835a1.839,1.839,0,1,0,0-3.677Z" transform="translate(-78.204 -220.865)"/><path class="g" d="M283.974,78.405h1.975a1.839,1.839,0,0,0,0-3.677h-1.975a1.839,1.839,0,1,0,0,3.677Z" transform="translate(-172.753 -48.36)"/><path class="c" d="M183.849,78.405H207.84a1.839,1.839,0,1,0,0-3.677H183.849a1.839,1.839,0,1,0,0,3.677Z" transform="translate(-103.31 -48.36)"/><path class="g" d="M146.625,78.405h4.669a1.839,1.839,0,1,0,0-3.677h-4.669a1.839,1.839,0,1,0,0,3.677Z" transform="translate(-77.494 -48.36)"/><path class="f" d="M241.572,373.2H221.495a1.839,1.839,0,0,0,0,3.677h20.077a1.839,1.839,0,1,0,0-3.677Z" transform="translate(-129.42 -255.367)"/><path class="f" d="M182.074,373.2h-7.412a1.839,1.839,0,1,0,0,3.677h7.412a1.839,1.839,0,0,0,0-3.677Z" transform="translate(-96.939 -255.367)"/><path class="f" d="M148.873,373.2h-1.228a1.839,1.839,0,1,0,0,3.677h1.228a1.839,1.839,0,0,0,0-3.677Z" transform="translate(-78.202 -255.367)"/><path class="c" d="M124.139,46.038a1.839,1.839,0,0,0-1.839,1.839v1.931a1.839,1.839,0,0,0,3.677,0V47.877A1.839,1.839,0,0,0,124.139,46.038Z" transform="translate(-61.898 -28.462)"/><path class="c" d="M124.139,75.333a1.839,1.839,0,0,0-1.839,1.839V107.51a1.839,1.839,0,0,0,3.677,0V77.172A1.839,1.839,0,0,0,124.139,75.333Z" transform="translate(-61.898 -48.78)"/><path class="f" d="M383.089,304.328l-15.051,15.051-5.142-5.141a1.839,1.839,0,1,0-2.6,2.6l6.441,6.441a1.839,1.839,0,0,0,2.6,0l16.351-16.351a1.839,1.839,0,1,0-2.6-2.6Z" transform="translate(-226.588 -207.227)"/><path class="h" d="M147.59,83.316l-.163,0V33.232a5.068,5.068,0,0,0-1.447-3.557L123.4,6.532A5.113,5.113,0,0,0,119.765,5H56.641a5.094,5.094,0,0,0-5.085,5.091v4.7H46.9a5.094,5.094,0,0,0-5.085,5.091v2.744h-3.68a5.094,5.094,0,0,0-5.085,5.091V153.745a5.093,5.093,0,0,0,5.085,5.091h86.026a5.094,5.094,0,0,0,5.085-5.091v-3.07h3.68a5.093,5.093,0,0,0,5.085-5.091v-4.049h4.329a5.093,5.093,0,0,0,5.085-5.09v-6.6a23.29,23.29,0,0,0,.163-46.526ZM122.431,10.8l18.86,19.331h-9.763a9.116,9.116,0,0,1-9.1-9.116Zm3.14,142.941a1.412,1.412,0,0,1-1.408,1.413H38.137a1.412,1.412,0,0,1-1.408-1.413V27.718A1.412,1.412,0,0,1,38.137,26.3h3.68v119.28a5.094,5.094,0,0,0,5.085,5.091h78.669Zm8.764-8.161A1.412,1.412,0,0,1,132.928,147H46.9a1.412,1.412,0,0,1-1.408-1.413V19.883A1.412,1.412,0,0,1,46.9,18.47h4.654V136.444a5.093,5.093,0,0,0,5.085,5.09h77.695Zm10.814-19.434a19.6,19.6,0,0,1-16.272-28.357,1.82,1.82,0,0,0-.355-2.1,1.839,1.839,0,0,0-2.942.47,23.27,23.27,0,0,0,18.169,33.545v6.734a1.412,1.412,0,0,1-1.408,1.413h-85.7a1.412,1.412,0,0,1-1.408-1.413V10.091a1.412,1.412,0,0,1,1.408-1.413h62.113V21.019a12.8,12.8,0,0,0,12.774,12.793H143.75V83.441a23.121,23.121,0,0,0-9.082,3.03,1.836,1.836,0,0,0,1.859,3.167,19.61,19.61,0,1,1,8.622,36.51Z"/></g></g></svg>