<svg xmlns="http://www.w3.org/2000/svg" width="351.019" height="506.548" viewBox="0 0 351.019 506.548"><defs><style>.a{fill:#221b22;}.b{fill:#4c414c;}.c{fill:#f8f9fa;}.d{fill:#d6a793;}.e{fill:#016be3;}.f{fill:#fe5736;}.g{fill:#f79e0b;}.h{fill:#f0ceba;}.i{fill:#ffd947;}.j{fill:#0236a5;}.k{fill:#0077ec;}.l{fill:#fff;}.m{fill:#a62413;}.n{fill:#bd680b;}.o{fill:#f7c12d;}.p{opacity:0.3;}.q{opacity:0.2;}</style></defs><g transform="translate(-959.208 -12176.44)"><g transform="translate(959.208 12197.098)"><g transform="translate(8.875)"><path class="a" d="M716.128,159.6v427.49a24.257,24.257,0,0,1-24.261,24.259H478.986a24.252,24.252,0,0,1-24.261-24.259V159.6a24.257,24.257,0,0,1,24.261-24.259H691.867A24.247,24.247,0,0,1,716.128,159.6Z" transform="translate(-454.725 -135.341)"/></g><g transform="translate(0 72.611)"><g transform="translate(0 4.29)"><path class="b" d="M458.364,237.187h-6.188a2.686,2.686,0,0,1-2.686-2.686V183.4a2.686,2.686,0,0,1,2.686-2.685h6.188Z" transform="translate(-449.489 -180.712)"/></g><g transform="translate(270.278)"><path class="b" d="M608.952,224.169h5.064a2.2,2.2,0,0,0,2.2-2.2V180.379a2.2,2.2,0,0,0-2.2-2.2h-5.064Z" transform="translate(-608.952 -178.181)"/></g><g transform="translate(0 68.429)"><path class="b" d="M458.364,275.031h-6.188a2.687,2.687,0,0,1-2.686-2.686v-51.1a2.687,2.687,0,0,1,2.686-2.686h6.188Z" transform="translate(-449.489 -218.554)"/></g></g><g transform="translate(20.978 12.1)"><path class="c" d="M699.057,153.168V583.592a10.684,10.684,0,0,1-10.688,10.69H472.554a10.686,10.686,0,0,1-10.688-10.69V153.168a10.694,10.694,0,0,1,10.688-10.688H688.369a10.667,10.667,0,0,1,10.688,10.688Z" transform="translate(-461.866 -142.48)"/></g><g transform="translate(37.768 272.213)"><path class="d" d="M629.405,418.9H472.957a1.185,1.185,0,0,1-1.185-1.185V297.129a1.183,1.183,0,0,1,1.185-1.183H629.405a1.183,1.183,0,0,1,1.185,1.183V417.713A1.185,1.185,0,0,1,629.405,418.9ZM474.14,416.53H628.222V298.314H474.14Z" transform="translate(-471.772 -295.946)"/><g transform="translate(10.713 10.079)"><ellipse class="e" cx="14.241" cy="14.241" rx="14.241" ry="14.241"/><g transform="translate(0 37.234)"><ellipse class="f" cx="14.241" cy="14.241" rx="14.241" ry="14.241"/></g><g transform="translate(0 74.468)"><ellipse class="g" cx="14.241" cy="14.241" rx="14.241" ry="14.241"/></g><g transform="translate(36.133 8.862)"><path class="h" d="M599.337,309.489H500.6a1.184,1.184,0,1,1,0-2.368h98.741a1.184,1.184,0,0,1,0,2.368Z" transform="translate(-499.411 -307.121)"/><g transform="translate(0 9.275)"><path class="h" d="M599.337,314.961H500.6a1.184,1.184,0,1,1,0-2.368h98.741a1.184,1.184,0,0,1,0,2.368Z" transform="translate(-499.411 -312.593)"/></g></g><g transform="translate(36.133 46.015)"><path class="h" d="M599.337,331.409H500.6a1.184,1.184,0,1,1,0-2.368h98.741a1.184,1.184,0,0,1,0,2.368Z" transform="translate(-499.411 -329.041)"/><g transform="translate(0 9.273)"><path class="h" d="M599.337,336.88H500.6a1.184,1.184,0,1,1,0-2.368h98.741a1.184,1.184,0,0,1,0,2.368Z" transform="translate(-499.411 -334.512)"/></g></g><g transform="translate(36.133 82.888)"><path class="h" d="M599.337,353.164H500.6a1.184,1.184,0,1,1,0-2.368h98.741a1.184,1.184,0,0,1,0,2.368Z" transform="translate(-499.411 -350.796)"/><g transform="translate(0 9.275)"><path class="h" d="M599.337,358.636H500.6a1.184,1.184,0,1,1,0-2.368h98.741a1.184,1.184,0,0,1,0,2.368Z" transform="translate(-499.411 -356.268)"/></g></g></g></g><g transform="translate(36.854 212.018)"><path class="d" d="M641.446,305.018H493.526a22.293,22.293,0,0,1,0-44.587H641.446a22.293,22.293,0,1,1,0,44.587ZM493.526,262.8a19.926,19.926,0,1,0,0,39.851H641.446a19.926,19.926,0,0,0,0-39.851Z" transform="translate(-471.233 -260.431)"/><g transform="translate(18.001 9.13)"><path class="e" d="M495.819,287.844l-8.631,4.538,1.648-9.611-6.983-6.807,9.65-1.4,4.316-8.744,4.316,8.744,9.65,1.4-6.983,6.807,1.648,9.611Z" transform="translate(-481.854 -265.818)"/><g transform="translate(44.036)"><path class="e" d="M521.8,287.844l-8.631,4.538,1.649-9.611-6.983-6.807,9.65-1.4,4.315-8.744,4.316,8.744,9.65,1.4-6.983,6.807,1.648,9.611Z" transform="translate(-507.835 -265.818)"/></g><g transform="translate(88.072)"><path class="e" d="M547.782,287.844l-8.631,4.538,1.648-9.611-6.983-6.807,9.65-1.4,4.316-8.744,4.316,8.744,9.65,1.4-6.983,6.807,1.648,9.611Z" transform="translate(-533.816 -265.818)"/></g><g transform="translate(132.109)"><path class="h" d="M573.763,287.844l-8.631,4.538,1.648-9.611-6.983-6.807,9.65-1.4,4.316-8.744,4.315,8.744,9.65,1.4-6.983,6.807,1.648,9.611Z" transform="translate(-559.798 -265.818)"/></g></g></g><g transform="translate(114.46 58.519)"><g transform="translate(46.599)"><g transform="translate(0 30.048)"><path class="i" d="M616.059,267.217H544.513l9.854-79.622H606.2Z" transform="translate(-544.513 -187.595)"/></g><g transform="translate(19.897 58.005)"><path class="j" d="M556.253,210.855c.048-4.347,2.881-6.807,6.6-6.764s6.493,2.561,6.446,6.907c-.047,4.385-2.878,6.807-6.6,6.766S556.2,215.238,556.253,210.855Zm21.005-6.256,5.925.064-17.029,24.359-5.927-.064Zm-12.941,6.344c.027-2.347-.736-3.059-1.507-3.068s-1.553.685-1.578,3.034.739,3.059,1.51,3.068S564.292,213.292,564.318,210.943Zm9.8,11.681c.049-4.349,2.88-6.809,6.6-6.766s6.493,2.561,6.446,6.909c-.047,4.383-2.878,6.807-6.6,6.766S574.067,227.006,574.114,222.624Zm8.063.088c.027-2.349-.737-3.059-1.507-3.068s-1.551.685-1.576,3.034.737,3.059,1.509,3.068S582.152,225.062,582.177,222.712Z" transform="translate(-556.253 -204.09)"/></g><g transform="translate(21.945)"><g transform="translate(0 31.594)"><ellipse class="j" cx="2.443" cy="2.443" rx="2.443" ry="2.443"/></g><g transform="translate(25.002 31.593)"><path class="j" d="M577.1,190.951a2.443,2.443,0,1,1-2.442-2.444A2.443,2.443,0,0,1,577.1,190.951Z" transform="translate(-572.212 -188.507)"/></g><g transform="translate(1.511)"><path class="a" d="M559.344,203.621h0a1.02,1.02,0,0,1-.99-1.069,107.329,107.329,0,0,1,1.91-15.505c2.375-11.4,6.344-17.18,11.8-17.18s9.332,5.786,11.5,17.2a106.751,106.751,0,0,1,1.622,15.507,1.017,1.017,0,0,1-1.009,1.049h0a1.018,1.018,0,0,1-1.029-.993c-.23-9.432-2.541-30.714-11.083-30.714s-11.266,21.3-11.67,30.734A1.019,1.019,0,0,1,559.344,203.621Z" transform="translate(-558.352 -169.867)"/></g></g></g><g transform="translate(0 19.153)"><g transform="translate(0 30.047)"><path class="k" d="M588.565,278.516H517.02l9.854-79.621h51.837Z" transform="translate(-517.02 -198.895)"/></g><g transform="translate(24.008 52.39)"><path class="l" d="M554.1,231.428c-1.088-2.332-3.481-3.522-5.947-4.286-2.824-.873-5.747-1.186-6.932-2.019a1.07,1.07,0,0,1-.547-.92c.024-.836.761-1.517,2.966-1.537h0c.144,0,.29,0,.446.005a15.593,15.593,0,0,1,6.642,1.854c.171.088.346.178.52.275l.664-1.48,2.142-4.773a16.947,16.947,0,0,0-4.569-1.824,23.3,23.3,0,0,0-2.881-.536l.068-2.381.044-1.578-5.217-.151-.115,4.036c-6.093.678-9.227,4.109-9.346,8.29a6.644,6.644,0,0,0,3.614,6.385,25.721,25.721,0,0,0,6.726,2.227c2.127.514,3.722.99,3.69,2.081-.024.89-.927,1.381-3.407,1.312a15.92,15.92,0,0,1-3.19-.439,17.771,17.771,0,0,1-5.292-2.173l-2.993,6.286a14.523,14.523,0,0,0,2.858,1.4,25.39,25.39,0,0,0,6.58,1.456l-.063,2.253-.048,1.671,5.219.147.115-4.108c5.763-.836,8.747-4.232,8.863-8.231A7.066,7.066,0,0,0,554.1,231.428Z" transform="translate(-531.185 -212.077)"/></g><g transform="translate(21.945)"><g transform="translate(0 31.593)"><path class="m" d="M534.854,202.249a2.443,2.443,0,1,1-2.444-2.442A2.443,2.443,0,0,1,534.854,202.249Z" transform="translate(-529.968 -199.807)"/></g><g transform="translate(25.002 31.593)"><path class="m" d="M549.606,202.249a2.443,2.443,0,1,1-2.442-2.442A2.442,2.442,0,0,1,549.606,202.249Z" transform="translate(-544.719 -199.807)"/></g><g transform="translate(1.51)"><path class="a" d="M531.85,214.92h0a1.017,1.017,0,0,1-.99-1.068,107.368,107.368,0,0,1,1.91-15.507c2.375-11.4,6.344-17.178,11.8-17.178s9.332,5.785,11.5,17.2a106.755,106.755,0,0,1,1.622,15.507,1.017,1.017,0,0,1-1.008,1.049h0a1.017,1.017,0,0,1-1.029-.993c-.231-9.434-2.541-30.714-11.083-30.714-8.558,0-11.266,21.3-11.67,30.732A1.018,1.018,0,0,1,531.85,214.92Z" transform="translate(-530.859 -181.167)"/></g></g></g></g><g transform="translate(207.657 265.68)"><g transform="translate(0 12.798)"><path class="e" d="M582.137,299.642l.088,21.88-9.408.007a.724.724,0,0,1-.6-.308.736.736,0,0,1-.132-.414l-.081-20.429a.728.728,0,0,1,.087-.347.414.414,0,0,1,.036-.059.77.77,0,0,1,.088-.107.729.729,0,0,1,.512-.215Z" transform="translate(-572.006 -299.642)"/></g><g transform="translate(12.119)"><path class="e" d="M601.983,307.954a2.412,2.412,0,0,1-.092.292,3.277,3.277,0,0,1-.607,1.022c-.051.056-.1.114-.159.171a4.052,4.052,0,0,1-.8.622,2.486,2.486,0,0,1,.883,2.185c-.005.061-.014.124-.022.186s-.019.13-.032.2-.029.134-.046.2v0c-.019.069-.037.137-.059.208a5.107,5.107,0,0,1-.207.559,2.464,2.464,0,0,1-.512.756,3.759,3.759,0,0,1-1.33.832,3.653,3.653,0,0,1,1.308,3.237,4.892,4.892,0,0,1-.132.758,2.232,2.232,0,0,1-.373.792l-.048.063a3.052,3.052,0,0,1-.212.234,3.651,3.651,0,0,1-1.115.719c.058.032.115.068.173.1.037.026.075.051.112.078a2.616,2.616,0,0,1,.33.275c.034.034.068.069.1.105l0,0a2.055,2.055,0,0,1,.141.175q.046.061.086.127c.029.046.054.09.078.136a2.248,2.248,0,0,1,.232,1.244,2.965,2.965,0,0,1-.051.366,3.566,3.566,0,0,1-.1.4c-.02.066-.042.132-.068.195-.014.032-.025.064-.041.095-.027.061-.058.122-.09.181a2.759,2.759,0,0,1-.22.334,2.5,2.5,0,0,1-.2.227c-.069.073-.144.142-.222.21l-.078.064c-.054.042-.11.085-.166.125-.114.08-.232.156-.356.227-.093.053-.188.1-.285.151a6.512,6.512,0,0,1-.715.293l-.429.134c-.219.061-.439.114-.658.159-.073.015-.147.029-.22.042-.219.042-.435.076-.649.1l-.21.027-.309.032c-.066.007-.132.013-.2.019-.032,0-.064.005-.1.007l-.19.014c-.124.008-.244.015-.358.02-.729.032-1.222.005-1.222.005l-10.624.042,0,.012-2.688.01-.088-21.892a6.184,6.184,0,0,0,2.7-.773,8.545,8.545,0,0,0,1.141-.7,26.637,26.637,0,0,0,3.125-3.105c2.49-2.932,2.581-5.658,2.949-7.1l.007-.022c.186-.715.446-1.109,1.117-1.037,1.895.2,4.822,3.2.9,12.468.71-.054,1.678-.12,2.737-.164.054,0,.11-.007.166-.007l.017,0c.037,0,.073,0,.107,0,.6-.022,1.227-.037,1.849-.041.383,0,.766,0,1.137.012a10.859,10.859,0,0,1,3.612.517,2.093,2.093,0,0,1,.627.439c.02.02.041.041.059.063.039.041.076.085.112.129a2.464,2.464,0,0,1,.237.363,1.739,1.739,0,0,1,.078.158A2.894,2.894,0,0,1,601.983,307.954Z" transform="translate(-579.156 -292.091)"/></g><g transform="translate(1.015 52.38)"><path class="f" d="M588.141,354.016h-.122A15.449,15.449,0,0,1,572.6,338.531v-.122A15.449,15.449,0,0,1,588.09,323h.122a15.448,15.448,0,0,1,15.414,15.485v.122A15.45,15.45,0,0,1,588.141,354.016Z" transform="translate(-572.605 -322.995)"/><g transform="translate(6.351 8.29)"><path class="c" d="M595.279,333.345a5.823,5.823,0,0,1-1.715,4.127l-7.776,7.741-7.741-7.776a5.857,5.857,0,0,1,.017-8.259c2.124-2.115,5.353-1.725,7.756,1.863,2.422-3.576,5.651-3.953,7.766-1.827A5.821,5.821,0,0,1,595.279,333.345Z" transform="translate(-576.352 -327.886)"/></g></g><g transform="translate(1.302 99.988)"><path class="g" d="M588.3,382.106l-.122,0a15.449,15.449,0,0,1-15.4-15.495v-.122a15.451,15.451,0,0,1,15.5-15.4l.122,0a15.448,15.448,0,0,1,15.4,15.495v.122A15.45,15.45,0,0,1,588.3,382.106Z" transform="translate(-572.774 -351.084)"/><g transform="translate(8.57 5.058)"><path class="c" d="M591.628,365.721a5.422,5.422,0,0,0-3.581-2.581c-1.7-.525-3.463-.715-4.174-1.215a.648.648,0,0,1-.331-.556c.014-.5.459-.912,1.786-.925h0c.088,0,.174,0,.269,0a9.38,9.38,0,0,1,4,1.117c.105.053.21.107.315.164l.4-.89,1.292-2.875a10.253,10.253,0,0,0-2.753-1.1,13.874,13.874,0,0,0-1.736-.322l.042-1.434.027-.951-3.142-.09-.07,2.429c-3.669.408-5.558,2.475-5.627,4.992a4,4,0,0,0,2.175,3.846,15.445,15.445,0,0,0,4.051,1.341c1.28.31,2.241.6,2.222,1.254-.015.536-.559.832-2.052.79a9.611,9.611,0,0,1-1.92-.264,10.666,10.666,0,0,1-3.187-1.309l-1.8,3.785a8.748,8.748,0,0,0,1.72.846,15.332,15.332,0,0,0,3.963.876l-.039,1.356-.029,1.007,3.142.088.07-2.473c3.471-.5,5.268-2.549,5.337-4.956A4.285,4.285,0,0,0,591.628,365.721Z" transform="translate(-577.83 -354.068)"/></g></g></g><g transform="translate(20.978 12.1)"><path class="h" d="M699.057,153.168v20.042H461.866V153.168a10.694,10.694,0,0,1,10.688-10.688H688.369a10.667,10.667,0,0,1,10.688,10.688Z" transform="translate(-461.866 -142.48)"/></g><g transform="translate(212.108 21.331)"><path class="e" d="M582.656,151.938a4.012,4.012,0,1,1-4.012-4.012A4.012,4.012,0,0,1,582.656,151.938Z" transform="translate(-574.632 -147.926)"/><g transform="translate(13.985)"><path class="f" d="M590.905,151.938a4.011,4.011,0,1,1-4.01-4.012A4.011,4.011,0,0,1,590.905,151.938Z" transform="translate(-582.883 -147.926)"/></g><g transform="translate(27.909)"><path class="a" d="M599.122,151.938a4.012,4.012,0,1,1-4.012-4.012A4.012,4.012,0,0,1,599.122,151.938Z" transform="translate(-591.098 -147.926)"/></g></g><g transform="translate(79.107 11.788)"><path class="a" d="M496.162,142.3l5.9,5.9a31.53,31.53,0,0,0,22.293,9.234h64.519a31.531,31.531,0,0,0,22.293-9.234l5.858-5.856Z" transform="translate(-496.162 -142.296)"/></g><g transform="translate(96.398 15.282)"><rect class="b" width="86.356" height="4.074" rx="0.441"/></g><g transform="translate(15.919 419.898)"><rect class="a" width="244.652" height="46.523"/></g><g transform="translate(114.119 419.608)"><g transform="translate(0 0)"><circle class="b" cx="17.159" cy="17.159" r="17.159" transform="matrix(0.627, -0.779, 0.779, 0.627, 0, 26.737)"/></g></g><g transform="translate(45.77 75.566)"><path class="h" d="M523.22,182.295H477.678a1.185,1.185,0,0,1,0-2.37H523.22a1.185,1.185,0,0,1,0,2.37Z" transform="translate(-476.493 -179.925)"/><g transform="translate(0 15.798)"><path class="h" d="M523.22,191.614H477.678a1.184,1.184,0,1,1,0-2.368H523.22a1.184,1.184,0,0,1,0,2.368Z" transform="translate(-476.493 -189.246)"/></g><g transform="translate(0 31.598)"><path class="h" d="M523.22,200.936H477.678a1.184,1.184,0,1,1,0-2.368H523.22a1.184,1.184,0,0,1,0,2.368Z" transform="translate(-476.493 -198.568)"/></g><g transform="translate(0 47.397)"><path class="h" d="M523.22,210.257H477.678a1.184,1.184,0,1,1,0-2.368H523.22a1.184,1.184,0,0,1,0,2.368Z" transform="translate(-476.493 -207.889)"/></g><g transform="translate(0 63.194)"><path class="h" d="M523.22,219.579H477.678a1.185,1.185,0,0,1,0-2.37H523.22a1.185,1.185,0,0,1,0,2.37Z" transform="translate(-476.493 -217.209)"/></g><g transform="translate(0 78.994)"><path class="h" d="M523.22,228.9H477.678a1.184,1.184,0,1,1,0-2.368H523.22a1.184,1.184,0,0,1,0,2.368Z" transform="translate(-476.493 -226.531)"/></g><g transform="translate(0 94.792)"><path class="h" d="M523.22,238.22H477.678a1.184,1.184,0,1,1,0-2.368H523.22a1.184,1.184,0,0,1,0,2.368Z" transform="translate(-476.493 -235.852)"/></g><g transform="translate(0 110.59)"><path class="h" d="M523.22,247.541H477.678a1.184,1.184,0,1,1,0-2.368H523.22a1.184,1.184,0,0,1,0,2.368Z" transform="translate(-476.493 -245.173)"/></g></g></g><g transform="translate(1114.896 12607.194)"><g transform="translate(82.772 0)"><g transform="translate(0 34.078)"><g transform="translate(0 13.681)"><path class="g" d="M687.481,416.253c0,.047,0,.091,0,.137a6.667,6.667,0,0,1-2.558,4.82,14.833,14.833,0,0,1-1.347,1.088,27.5,27.5,0,0,1-5.108,2.808q-.654.282-1.348.554c-1.559.615-3.266,1.188-5.109,1.719-.441.127-.89.254-1.347.375-1.614.432-3.32.832-5.109,1.195-.446.092-.893.18-1.349.264-1.639.312-3.346.593-5.107.842q-.669.094-1.349.185-2.487.323-5.107.563-.671.061-1.349.117-2.5.206-5.107.327c-.447.02-.9.041-1.349.058q-2.517.094-5.107.11c-.3,0-.6,0-.9,0-.149,0-.3,0-.448,0q-2.588-.008-5.108-.095-.679-.023-1.349-.054-1.914-.084-3.783-.214-.666-.046-1.324-.1c-.453-.036-.9-.073-1.347-.114q-2.619-.229-5.109-.546-.679-.084-1.347-.178c-1.058-.146-2.092-.3-3.108-.471q-1.012-.168-2-.349c-.453-.085-.9-.171-1.347-.259q-2.68-.531-5.11-1.166c-.319-.081-.634-.168-.947-.253-.134-.036-.266-.075-.4-.112-.73-.2-1.442-.417-2.129-.636q-1.566-.5-2.978-1.036c-.463-.178-.912-.356-1.349-.539a30.832,30.832,0,0,1-4.531-2.305c-.2-.125-.392-.251-.576-.378-.236-.158-.459-.317-.675-.478-.236-.176-.459-.353-.675-.532-1.947-1.624-3.012-3.381-3.012-5.215A3.705,3.705,0,0,1,590.2,416l0-10.385,2.99,0,1.349,0,5.107-.007,1.349,0,3.985-.005,1.122,0,1.348,0,5.11-.007,1.347,0,5.109-.008h1.347l5.109-.008,1.347,0,5.107-.007,1.349,0,5.108-.007,1.349,0,5.107-.007,1.349,0,5.107-.008h1.349l5.107-.009,1.349,0,5.107-.007,1.349,0,5.109-.007,1.347,0h.334l4.775-.007,1.348,0,5.108-.009h1.347l2.539-.005.019,10.778Z" transform="translate(-590.179 -405.475)"/><g transform="translate(3.012 0.005)"><g transform="translate(0 0.132)"><path class="n" d="M593.305,405.556v17c-.236-.158-.459-.317-.675-.478-.235-.176-.459-.353-.675-.532v-15.99Z" transform="translate(-591.956 -405.556)"/></g><g transform="translate(6.456 0.122)"><path class="n" d="M597.114,405.55v20.236c-.463-.178-.912-.356-1.349-.539V405.553Z" transform="translate(-595.765 -405.55)"/></g><g transform="translate(12.912 0.112)"><path class="n" d="M600.922,405.544v22.281c-.319-.081-.634-.168-.948-.253-.134-.036-.266-.075-.4-.112V405.547Z" transform="translate(-599.574 -405.544)"/></g><g transform="translate(19.37 0.103)"><path class="n" d="M604.732,405.539v23.715c-.453-.085-.9-.171-1.347-.259V405.541Z" transform="translate(-603.384 -405.539)"/></g><g transform="translate(25.826 0.095)"><path class="n" d="M608.54,405.534v24.722q-.679-.084-1.347-.178V405.534Z" transform="translate(-607.193 -405.534)"/></g><g transform="translate(32.282 0.085)"><path class="n" d="M612.35,405.528V430.92c-.453-.036-.9-.073-1.347-.114V405.53Z" transform="translate(-611.002 -405.528)"/></g><g transform="translate(38.736 0.075)"><path class="n" d="M616.159,405.522V431.29q-.679-.023-1.349-.054v-25.71Z" transform="translate(-614.81 -405.522)"/></g><g transform="translate(45.193 0.064)"><path class="n" d="M619.969,405.516v25.871c-.3,0-.6,0-.9,0-.149,0-.3,0-.448,0v-25.87Z" transform="translate(-618.62 -405.516)"/></g><g transform="translate(51.649 0.056)"><path class="n" d="M623.778,405.511v25.712c-.447.02-.9.041-1.349.058V405.513Z" transform="translate(-622.429 -405.511)"/></g><g transform="translate(58.105 0.047)"><path class="n" d="M627.587,405.506v25.276q-.671.061-1.349.117V405.506Z" transform="translate(-626.238 -405.506)"/></g><g transform="translate(64.561 0.037)"><path class="n" d="M631.4,405.5v24.539q-.669.094-1.349.185V405.5Z" transform="translate(-630.047 -405.5)"/></g><g transform="translate(71.017 0.027)"><path class="n" d="M635.205,405.494v23.443c-.446.092-.893.18-1.349.264V405.5Z" transform="translate(-633.856 -405.494)"/></g><g transform="translate(77.475 0.017)"><path class="n" d="M639.013,405.488v21.883c-.441.127-.89.254-1.347.375V405.491Z" transform="translate(-637.666 -405.488)"/></g><g transform="translate(83.931 0.008)"><path class="n" d="M642.823,405.483V425.1q-.654.282-1.348.554V405.485Z" transform="translate(-641.475 -405.483)"/></g><g transform="translate(90.387)"><path class="n" d="M646.632,405.478v15.731a14.824,14.824,0,0,1-1.347,1.088V405.478Z" transform="translate(-645.284 -405.478)"/></g></g></g><g transform="translate(0.017)"><path class="o" d="M687.464,411.217c0,7.627-21.771,13.812-48.638,13.812-3.67,0-7.246-.115-10.683-.334-4.324-.275-8.429-.714-12.232-1.292-3.395-.517-6.549-1.144-9.4-1.864q-1.309-.331-2.53-.686a40.661,40.661,0,0,1-8.853-3.568c-.446-.258-.865-.519-1.253-.786-2.375-1.627-3.685-3.412-3.685-5.281a3.277,3.277,0,0,1,.039-.514c.942-7.39,22.342-13.3,48.6-13.3a160.87,160.87,0,0,1,18.268,1.007q1.635.191,3.209.408a98.514,98.514,0,0,1,12.38,2.481q1.2.331,2.317.683a40.351,40.351,0,0,1,6.815,2.766,14.491,14.491,0,0,1,4.373,3.312,5.223,5.223,0,0,1,1.239,2.642A3.282,3.282,0,0,1,687.464,411.217Z" transform="translate(-590.189 -397.403)"/><g class="p" transform="translate(25.722 7.346)"><path class="c" d="M675.642,405.049,617.6,421.683c-4.324-.275-8.429-.714-12.232-1.292l65.9-18.654A14.491,14.491,0,0,1,675.642,405.049Z" transform="translate(-605.365 -401.737)"/></g><g class="p" transform="translate(3.685 1.007)"><path class="c" d="M658.792,398.406l-65.177,18.466c-.446-.258-.864-.519-1.253-.786L655.584,398Q657.219,398.188,658.792,398.406Z" transform="translate(-592.363 -397.997)"/></g><g class="p" transform="translate(13.79 3.897)"><path class="c" d="M669.346,400.385l-68.49,19.556q-1.309-.331-2.53-.686l68.7-19.553Q668.229,400.033,669.346,400.385Z" transform="translate(-598.325 -399.702)"/></g><g transform="translate(9.764 2.773)"><path class="n" d="M673.7,410.08a3.89,3.89,0,0,1-.039.507c-.937,5.853-18,10.534-38.836,10.534s-37.9-4.681-38.838-10.534a3.888,3.888,0,0,1-.037-.507c0-6.088,17.437-11.041,38.875-11.041S673.7,403.992,673.7,410.08Z" transform="translate(-595.95 -399.039)"/></g><g transform="translate(9.802 3.785)"><path class="g" d="M673.645,410.172c-.937,5.853-18,10.534-38.836,10.534-.468,0-.929,0-1.39-.008a126.681,126.681,0,0,1-13.19-.8,87.121,87.121,0,0,1-11.12-1.958c-.831-.209-1.627-.425-2.4-.653a27.479,27.479,0,0,1-8.131-3.622,9.433,9.433,0,0,1-1.183-1,4.637,4.637,0,0,1-1.427-2.5c.939-5.854,18-10.536,38.838-10.536,2.635,0,5.212.076,7.707.219,1.27.073,2.522.164,3.747.271a94.88,94.88,0,0,1,13.507,2.093q1.269.3,2.451.639a33.469,33.469,0,0,1,7.524,2.978,8.3,8.3,0,0,1,3.656,3.507A3.329,3.329,0,0,1,673.645,410.172Z" transform="translate(-595.972 -399.636)"/></g><g class="q" transform="translate(34.059 9.985)"><path class="c" d="M663.456,406.8l-39.982,11.354a126.692,126.692,0,0,1-13.19-.8L659.8,403.294A8.3,8.3,0,0,1,663.456,406.8Z" transform="translate(-610.284 -403.294)"/></g><g class="q" transform="translate(11.229 4.003)"><path class="c" d="M645.679,400.036,598,413.577a9.433,9.433,0,0,1-1.183-1l45.117-12.814C643.2,399.838,644.453,399.929,645.679,400.036Z" transform="translate(-596.814 -399.765)"/></g><g class="q" transform="translate(20.542 6.368)"><path class="c" d="M657.818,401.8l-53.112,15.083c-.831-.208-1.627-.425-2.4-.653l53.058-15.07Q656.636,401.463,657.818,401.8Z" transform="translate(-602.309 -401.16)"/></g><g transform="translate(30.648 5.768)"><g transform="translate(0.239 0.61)"><path class="n" d="M631.57,414.864V416.7h-8.2v-1.753a107.451,107.451,0,0,1-14.954-1.156l4.422-2.842a87.565,87.565,0,0,0,13.441,1.058c3.9,0,5.295-.232,5.295-.629,0-1.454-22.519-.281-22.519-4.593,0-1.868,4.771-3.437,14.315-3.817v-1.8h8.2v1.768a94.831,94.831,0,0,1,11.812.959l-4.131,2.825a79.792,79.792,0,0,0-11.347-.859c-4.014,0-5.295.331-5.295.727,0,1.388,22.519.231,22.519,4.495C645.127,412.866,640.589,414.419,631.57,414.864Z" transform="translate(-608.412 -401.166)"/></g><path class="o" d="M631.429,414.5v1.836h-8.2v-1.753a107.461,107.461,0,0,1-14.954-1.156l4.422-2.842a87.568,87.568,0,0,0,13.441,1.058c3.9,0,5.3-.232,5.3-.629,0-1.454-22.519-.281-22.519-4.593,0-1.868,4.773-3.437,14.315-3.817v-1.8h8.2v1.768a94.825,94.825,0,0,1,11.812.959l-4.13,2.825a79.516,79.516,0,0,0-11.348-.859c-4.013,0-5.295.331-5.295.727,0,1.388,22.519.231,22.519,4.495C644.986,412.506,640.449,414.059,631.429,414.5Z" transform="translate(-608.271 -400.806)"/></g></g></g><g transform="translate(3.056 17.039)"><g transform="translate(0 13.681)"><path class="g" d="M689.286,406.2c0,.046,0,.092,0,.137a6.667,6.667,0,0,1-2.558,4.82,14.621,14.621,0,0,1-1.349,1.088,27.329,27.329,0,0,1-5.107,2.807c-.436.19-.886.375-1.349.556-1.558.614-3.266,1.188-5.107,1.719q-.664.191-1.349.375c-1.612.432-3.319.832-5.108,1.195q-.666.137-1.349.264-2.458.465-5.107.841-.669.1-1.347.185-2.489.323-5.109.564-.671.061-1.347.115-2.5.206-5.108.329c-.448.02-.9.041-1.348.058q-2.517.094-5.108.11c-.3,0-.6,0-.9,0h-.446q-2.591-.008-5.109-.1-.679-.023-1.349-.052-1.917-.084-3.783-.214c-.444-.031-.886-.063-1.324-.1q-.679-.053-1.349-.114-2.616-.229-5.107-.546c-.454-.058-.9-.115-1.349-.178q-1.584-.219-3.107-.471-1.014-.168-2-.349-.681-.127-1.349-.259c-1.786-.354-3.493-.744-5.109-1.166-.319-.083-.636-.168-.947-.253l-.4-.112c-.73-.205-1.442-.417-2.13-.636q-1.564-.5-2.978-1.036c-.463-.178-.912-.356-1.347-.539a31,31,0,0,1-4.531-2.305c-.2-.125-.392-.251-.578-.378-.234-.158-.459-.319-.675-.478-.236-.176-.459-.353-.673-.532-1.949-1.624-3.014-3.381-3.014-5.215,0-.129.007-.258.019-.386l.005-10.385,2.99-.005,1.347,0,5.108-.007,1.347,0,3.986-.005,1.122,0,1.347,0,5.109-.007,1.349,0,5.107-.008,1.349,0,5.107-.007,1.349,0,5.107-.008,1.349,0,5.109-.007,1.347,0,5.108-.007,1.348,0,5.108-.008,1.347,0,5.109-.008H660.9l5.107-.007,1.349,0,5.108-.007,1.349,0h.332l4.775-.007,1.349,0,5.107-.008,1.349,0,2.539,0,.019,10.778Z" transform="translate(-591.982 -395.422)"/><g transform="translate(3.014 0.003)"><g transform="translate(0 0.134)"><path class="n" d="M595.108,395.5v17c-.234-.158-.459-.319-.675-.478-.236-.176-.459-.353-.673-.532V395.5Z" transform="translate(-593.76 -395.503)"/></g><g transform="translate(6.456 0.124)"><path class="n" d="M598.917,395.5v20.236c-.463-.178-.912-.356-1.347-.539V395.5Z" transform="translate(-597.569 -395.497)"/></g><g transform="translate(12.912 0.114)"><path class="n" d="M602.725,395.491v22.281c-.319-.083-.636-.168-.947-.253l-.4-.112V395.494Z" transform="translate(-601.378 -395.491)"/></g><g transform="translate(19.368 0.105)"><path class="n" d="M606.536,395.486V419.2q-.681-.127-1.349-.259V395.488Z" transform="translate(-605.187 -395.486)"/></g><g transform="translate(25.824 0.095)"><path class="n" d="M610.345,395.48V420.2c-.454-.058-.9-.115-1.349-.178V395.482Z" transform="translate(-608.996 -395.48)"/></g><g transform="translate(32.28 0.086)"><path class="n" d="M614.154,395.475v25.392q-.679-.053-1.349-.114V395.477Z" transform="translate(-612.805 -395.475)"/></g><g transform="translate(38.736 0.076)"><path class="n" d="M617.963,395.469v25.766q-.679-.023-1.349-.052V395.471Z" transform="translate(-616.614 -395.469)"/></g><g transform="translate(45.193 0.066)"><path class="n" d="M621.771,395.463v25.871c-.3,0-.6,0-.9,0h-.446v-25.87Z" transform="translate(-620.424 -395.463)"/></g><g transform="translate(51.649 0.058)"><path class="n" d="M625.581,395.458V421.17c-.448.02-.9.041-1.348.058V395.46Z" transform="translate(-624.233 -395.458)"/></g><g transform="translate(58.105 0.047)"><path class="n" d="M629.39,395.452V420.73q-.671.061-1.347.115V395.454Z" transform="translate(-628.042 -395.452)"/></g><g transform="translate(64.561 0.039)"><path class="n" d="M633.2,395.447v24.537q-.669.1-1.347.185V395.447Z" transform="translate(-631.851 -395.447)"/></g><g transform="translate(71.016 0.029)"><path class="n" d="M637.008,395.441v23.442q-.666.137-1.349.264v-23.7Z" transform="translate(-635.659 -395.441)"/></g><g transform="translate(77.473 0.019)"><path class="n" d="M640.818,395.435v21.883q-.664.191-1.349.375V395.438Z" transform="translate(-639.469 -395.435)"/></g><g transform="translate(83.929 0.01)"><path class="n" d="M644.627,395.43v19.617c-.436.19-.886.375-1.349.556V395.432Z" transform="translate(-643.278 -395.43)"/></g><g transform="translate(90.385)"><path class="n" d="M648.436,395.424v15.732a14.616,14.616,0,0,1-1.349,1.088V395.426Z" transform="translate(-647.087 -395.424)"/></g></g></g><g transform="translate(0.017)"><path class="o" d="M689.269,401.162c0,7.629-21.771,13.814-48.638,13.814-3.671,0-7.246-.115-10.685-.334-4.322-.275-8.429-.714-12.232-1.293-3.4-.515-6.549-1.142-9.4-1.863-.871-.22-1.717-.449-2.529-.688a40.683,40.683,0,0,1-8.854-3.566c-.446-.258-.864-.52-1.251-.786-2.376-1.627-3.686-3.412-3.686-5.283a3.268,3.268,0,0,1,.041-.512c.942-7.392,22.341-13.3,48.6-13.3a160.893,160.893,0,0,1,18.268,1.007c1.088.125,2.159.263,3.207.409a98.561,98.561,0,0,1,12.381,2.481q1.2.331,2.317.681a40.463,40.463,0,0,1,6.814,2.768,14.479,14.479,0,0,1,4.375,3.312,5.23,5.23,0,0,1,1.239,2.642A3.261,3.261,0,0,1,689.269,401.162Z" transform="translate(-591.992 -387.35)"/><g class="p" transform="translate(25.722 7.346)"><path class="c" d="M677.446,395,619.4,411.63c-4.322-.275-8.429-.714-12.232-1.293l65.9-18.653A14.48,14.48,0,0,1,677.446,395Z" transform="translate(-607.168 -391.684)"/></g><g class="p" transform="translate(3.686 1.007)"><path class="c" d="M660.595,388.353l-65.177,18.466c-.446-.258-.865-.52-1.251-.786l63.221-18.088C658.476,388.069,659.547,388.207,660.595,388.353Z" transform="translate(-594.167 -387.944)"/></g><g class="p" transform="translate(13.792 3.897)"><path class="c" d="M671.15,390.33l-68.492,19.558c-.871-.22-1.717-.449-2.529-.688l68.7-19.551Q670.03,389.98,671.15,390.33Z" transform="translate(-600.129 -389.649)"/></g><g transform="translate(9.764 2.773)"><path class="n" d="M675.5,400.027a3.909,3.909,0,0,1-.037.507c-.939,5.853-18,10.532-38.838,10.532s-37.9-4.68-38.836-10.532a3.9,3.9,0,0,1-.039-.507c0-6.088,17.439-11.041,38.875-11.041S675.5,393.939,675.5,400.027Z" transform="translate(-597.753 -388.986)"/></g><g transform="translate(9.803 3.785)"><path class="g" d="M675.449,400.119c-.939,5.853-18,10.532-38.838,10.532-.466,0-.927,0-1.388-.007a126.68,126.68,0,0,1-13.192-.8,87.4,87.4,0,0,1-11.119-1.958q-1.246-.313-2.4-.654a27.48,27.48,0,0,1-8.13-3.62,9.554,9.554,0,0,1-1.183-1,4.65,4.65,0,0,1-1.425-2.5c.937-5.854,18-10.536,38.836-10.536,2.636,0,5.214.076,7.708.219,1.268.073,2.522.164,3.747.271a94.813,94.813,0,0,1,13.505,2.093q1.271.3,2.452.639a33.387,33.387,0,0,1,7.524,2.978,8.3,8.3,0,0,1,3.656,3.507A3.382,3.382,0,0,1,675.449,400.119Z" transform="translate(-597.776 -389.583)"/></g><g class="q" transform="translate(34.059 9.985)"><path class="c" d="M665.26,396.748,625.279,408.1a126.681,126.681,0,0,1-13.192-.8L661.6,393.241A8.3,8.3,0,0,1,665.26,396.748Z" transform="translate(-612.087 -393.241)"/></g><g class="q" transform="translate(11.229 4.003)"><path class="c" d="M647.483,389.983,599.8,403.524a9.557,9.557,0,0,1-1.183-1l45.119-12.814C645,389.785,646.258,389.876,647.483,389.983Z" transform="translate(-598.617 -389.712)"/></g><g class="q" transform="translate(20.542 6.368)"><path class="c" d="M659.622,391.746,606.51,406.829q-1.246-.313-2.4-.654l53.058-15.068Q658.441,391.41,659.622,391.746Z" transform="translate(-604.112 -391.107)"/></g><g transform="translate(30.648 5.768)"><g transform="translate(0.239 0.61)"><path class="n" d="M633.375,404.811v1.834h-8.205v-1.751a107.408,107.408,0,0,1-14.954-1.158l4.422-2.841a87.567,87.567,0,0,0,13.441,1.058c3.9,0,5.3-.232,5.3-.629,0-1.454-22.519-.281-22.519-4.593,0-1.868,4.771-3.437,14.314-3.817v-1.8h8.205v1.768a94.879,94.879,0,0,1,11.812.958l-4.132,2.827a79.515,79.515,0,0,0-11.346-.859c-4.015,0-5.3.331-5.3.727,0,1.388,22.519.23,22.519,4.493C646.932,402.813,642.393,404.366,633.375,404.811Z" transform="translate(-610.215 -391.113)"/></g><path class="o" d="M633.233,404.451v1.834h-8.205v-1.751a107.4,107.4,0,0,1-14.954-1.158l4.422-2.842a87.36,87.36,0,0,0,13.443,1.058c3.9,0,5.295-.231,5.295-.627,0-1.454-22.519-.281-22.519-4.593,0-1.868,4.771-3.437,14.314-3.819v-1.8h8.205v1.768a94.9,94.9,0,0,1,11.812.958l-4.132,2.827a79.507,79.507,0,0,0-11.346-.859c-4.015,0-5.295.331-5.295.727,0,1.388,22.519.231,22.519,4.495C646.791,402.451,642.252,404.006,633.233,404.451Z" transform="translate(-610.074 -390.753)"/></g></g></g><g transform="translate(2.61)"><g transform="translate(0 13.681)"><path class="g" d="M689.023,396.147c0,.046,0,.092,0,.137a6.67,6.67,0,0,1-2.558,4.82,14.9,14.9,0,0,1-1.349,1.088A27.332,27.332,0,0,1,680.011,405c-.436.19-.886.375-1.349.556-1.558.614-3.266,1.188-5.107,1.719q-.663.191-1.349.375c-1.612.432-3.319.83-5.108,1.195q-.666.137-1.349.264-2.458.465-5.107.841-.669.1-1.349.185-2.486.323-5.107.564-.671.061-1.347.115-2.5.206-5.109.329-.671.03-1.348.056-2.517.1-5.108.112l-.9,0c-.147,0-.3,0-.446,0q-2.591-.005-5.11-.095c-.451-.015-.9-.034-1.347-.053q-1.917-.084-3.783-.214c-.444-.031-.886-.063-1.324-.1q-.679-.053-1.349-.114-2.616-.229-5.107-.546-.681-.086-1.349-.18-1.584-.216-3.107-.469-1.014-.168-2-.349c-.454-.085-.905-.171-1.349-.259-1.786-.354-3.493-.744-5.109-1.166-.319-.083-.636-.168-.947-.253l-.4-.112c-.729-.205-1.441-.417-2.129-.636q-1.564-.5-2.978-1.036-.694-.267-1.347-.539a31,31,0,0,1-4.531-2.305q-.3-.188-.578-.378c-.234-.158-.459-.319-.675-.48-.236-.175-.459-.353-.673-.531-1.949-1.624-3.014-3.383-3.014-5.215,0-.129.007-.258.019-.386l.005-10.385,2.99-.005,1.347,0,5.109-.008,1.347,0,3.986-.005,1.12,0,1.349,0,5.109-.007,1.349,0,5.107-.008,1.349,0,5.107-.008h1.349l5.107-.009,1.347,0,5.11-.007,1.347,0,5.108-.007,1.348,0,5.109-.008,1.347,0,5.107-.008h1.349l5.107-.008,1.349,0,5.108-.008,1.349,0h.332l4.775-.007,1.349,0,5.107-.008,1.349,0,2.539,0,.019,10.778Z" transform="translate(-591.719 -385.369)"/><g transform="translate(3.014 0.003)"><g transform="translate(0 0.134)"><path class="n" d="M594.844,385.45v17c-.234-.158-.459-.319-.675-.48-.235-.175-.459-.353-.673-.531V385.452Z" transform="translate(-593.497 -385.45)"/></g><g transform="translate(6.456 0.124)"><path class="n" d="M598.654,385.444V405.68q-.694-.267-1.347-.539V385.446Z" transform="translate(-597.306 -385.444)"/></g><g transform="translate(12.91 0.114)"><path class="n" d="M602.463,385.438V407.72c-.319-.083-.636-.168-.947-.253l-.4-.112V385.441Z" transform="translate(-601.114 -385.438)"/></g><g transform="translate(19.368 0.105)"><path class="n" d="M606.273,385.433v23.715c-.454-.085-.905-.171-1.349-.259V385.435Z" transform="translate(-604.924 -385.433)"/></g><g transform="translate(25.824 0.095)"><path class="n" d="M610.082,385.427v24.724q-.681-.086-1.349-.18V385.429Z" transform="translate(-608.733 -385.427)"/></g><g transform="translate(32.28 0.086)"><path class="n" d="M613.891,385.422v25.392q-.679-.053-1.349-.114V385.422Z" transform="translate(-612.542 -385.422)"/></g><g transform="translate(38.736 0.076)"><path class="n" d="M617.7,385.416v25.766c-.451-.015-.9-.034-1.347-.053V385.418Z" transform="translate(-616.351 -385.416)"/></g><g transform="translate(45.193 0.066)"><path class="n" d="M621.509,385.41v25.871l-.9,0c-.147,0-.3,0-.446,0V385.413Z" transform="translate(-620.161 -385.41)"/></g><g transform="translate(51.649 0.058)"><path class="n" d="M625.318,385.4v25.712q-.671.031-1.348.056V385.407Z" transform="translate(-623.97 -385.405)"/></g><g transform="translate(58.105 0.047)"><path class="n" d="M629.127,385.4v25.278q-.671.061-1.347.115V385.4Z" transform="translate(-627.779 -385.399)"/></g><g transform="translate(64.56 0.039)"><path class="n" d="M632.936,385.394v24.537q-.669.1-1.349.185V385.394Z" transform="translate(-631.587 -385.394)"/></g><g transform="translate(71.016 0.029)"><path class="n" d="M636.745,385.388v23.442q-.666.137-1.349.264V385.39Z" transform="translate(-635.396 -385.388)"/></g><g transform="translate(77.473 0.019)"><path class="n" d="M640.555,385.382v21.883q-.663.191-1.349.375V385.384Z" transform="translate(-639.206 -385.382)"/></g><g transform="translate(83.929 0.01)"><path class="n" d="M644.364,385.377v19.617c-.436.19-.886.375-1.349.556V385.379Z" transform="translate(-643.015 -385.377)"/></g><g transform="translate(90.385)"><path class="n" d="M648.173,385.371V401.1a14.911,14.911,0,0,1-1.349,1.088V385.373Z" transform="translate(-646.824 -385.371)"/></g></g></g><g transform="translate(0.017)"><path class="o" d="M689.006,391.109c0,7.629-21.773,13.814-48.638,13.814-3.671,0-7.246-.115-10.685-.336-4.322-.275-8.429-.714-12.232-1.292-3.4-.515-6.549-1.142-9.4-1.864-.871-.219-1.717-.449-2.529-.686a40.683,40.683,0,0,1-8.854-3.566c-.446-.258-.864-.52-1.251-.786-2.376-1.627-3.686-3.412-3.686-5.283a3.066,3.066,0,0,1,.041-.512c.942-7.392,22.341-13.3,48.6-13.3a160.893,160.893,0,0,1,18.268,1.007c1.088.125,2.159.261,3.207.408a98.92,98.92,0,0,1,12.381,2.48q1.2.331,2.315.683a40.292,40.292,0,0,1,6.815,2.768,14.478,14.478,0,0,1,4.375,3.312,5.231,5.231,0,0,1,1.239,2.642A3.239,3.239,0,0,1,689.006,391.109Z" transform="translate(-591.729 -377.297)"/><g class="p" transform="translate(25.722 7.346)"><path class="c" d="M677.183,384.943l-58.046,16.632c-4.322-.275-8.429-.714-12.232-1.292l65.9-18.653A14.479,14.479,0,0,1,677.183,384.943Z" transform="translate(-606.905 -381.631)"/></g><g class="p" transform="translate(3.686 1.007)"><path class="c" d="M660.332,378.3l-65.177,18.466c-.446-.258-.864-.52-1.251-.786l63.221-18.088C658.213,378.016,659.284,378.152,660.332,378.3Z" transform="translate(-593.904 -377.891)"/></g><g class="p" transform="translate(13.792 3.895)"><path class="c" d="M670.885,380.278l-68.49,19.556c-.871-.219-1.717-.449-2.529-.686l68.7-19.553Q669.767,379.926,670.885,380.278Z" transform="translate(-599.866 -379.595)"/></g><g transform="translate(9.764 2.773)"><path class="n" d="M675.24,389.974a4.224,4.224,0,0,1-.037.507c-.939,5.853-18,10.532-38.837,10.532s-37.9-4.68-38.836-10.532a3.912,3.912,0,0,1-.039-.507c0-6.088,17.439-11.041,38.875-11.041S675.24,383.886,675.24,389.974Z" transform="translate(-597.49 -378.933)"/></g><g transform="translate(9.803 3.785)"><path class="g" d="M675.186,390.066c-.939,5.853-18,10.532-38.837,10.532-.466,0-.927,0-1.388-.007a127.141,127.141,0,0,1-13.192-.8,87.472,87.472,0,0,1-11.12-1.958q-1.243-.313-2.4-.654a27.5,27.5,0,0,1-8.131-3.62,9.552,9.552,0,0,1-1.183-1,4.649,4.649,0,0,1-1.425-2.5c.937-5.854,18-10.536,38.836-10.536,2.636,0,5.212.076,7.707.219,1.269.073,2.524.163,3.749.271a94.588,94.588,0,0,1,13.505,2.093q1.271.3,2.453.637a33.465,33.465,0,0,1,7.524,2.98,8.316,8.316,0,0,1,3.656,3.505A3.408,3.408,0,0,1,675.186,390.066Z" transform="translate(-597.513 -379.53)"/></g><g class="q" transform="translate(34.059 9.985)"><path class="c" d="M665,386.693l-39.982,11.356a127.125,127.125,0,0,1-13.192-.8l49.517-14.063A8.316,8.316,0,0,1,665,386.693Z" transform="translate(-611.824 -383.188)"/></g><g class="q" transform="translate(11.229 4.003)"><path class="c" d="M647.22,379.93l-47.683,13.541a9.555,9.555,0,0,1-1.183-1l45.117-12.814C644.741,379.732,645.995,379.822,647.22,379.93Z" transform="translate(-598.354 -379.659)"/></g><g class="q" transform="translate(20.542 6.368)"><path class="c" d="M659.359,381.691l-53.114,15.085q-1.243-.313-2.4-.654l53.058-15.068Q658.178,381.357,659.359,381.691Z" transform="translate(-603.849 -381.054)"/></g><g transform="translate(30.648 5.768)"><g transform="translate(0.239 0.608)"><path class="n" d="M633.11,394.759v1.834h-8.2v-1.751a107.413,107.413,0,0,1-14.954-1.158l4.422-2.842a87.359,87.359,0,0,0,13.441,1.058c3.9,0,5.295-.23,5.295-.627,0-1.454-22.517-.281-22.517-4.595,0-1.866,4.771-3.437,14.314-3.817v-1.8h8.2v1.769a94.9,94.9,0,0,1,11.814.958l-4.132,2.827a79.53,79.53,0,0,0-11.346-.861c-4.015,0-5.3.332-5.3.727,0,1.388,22.517.232,22.517,4.495C646.667,392.759,642.13,394.313,633.11,394.759Z" transform="translate(-609.952 -381.059)"/></g><path class="o" d="M632.971,394.4v1.834h-8.205v-1.751a107.414,107.414,0,0,1-14.954-1.158l4.422-2.842a87.364,87.364,0,0,0,13.442,1.058c3.9,0,5.295-.23,5.295-.627,0-1.454-22.519-.281-22.519-4.595,0-1.866,4.771-3.436,14.313-3.817v-1.8h8.205v1.768a94.868,94.868,0,0,1,11.812.958l-4.132,2.827a79.507,79.507,0,0,0-11.346-.859c-4.015,0-5.295.329-5.295.725,0,1.388,22.519.232,22.519,4.495C646.528,392.4,641.989,393.953,632.971,394.4Z" transform="translate(-609.811 -380.7)"/></g></g></g></g><g transform="translate(0 36.168)"><g transform="translate(0 13.681)"><path class="g" d="M638.648,417.488c0,.046,0,.09,0,.137a6.673,6.673,0,0,1-2.558,4.82,15.2,15.2,0,0,1-1.349,1.088,27.327,27.327,0,0,1-5.107,2.807c-.436.188-.886.373-1.349.556-1.558.614-3.266,1.188-5.107,1.717-.442.129-.89.254-1.349.376-1.612.432-3.319.831-5.108,1.195q-.666.135-1.348.264-2.461.465-5.108.841c-.446.064-.895.124-1.347.185q-2.489.323-5.109.564c-.447.039-.9.08-1.347.115q-2.5.206-5.108.327-.671.033-1.348.058-2.517.094-5.108.11c-.3,0-.6,0-.9,0-.147,0-.3,0-.446,0q-2.588-.005-5.109-.095c-.453-.015-.9-.034-1.349-.053q-1.914-.084-3.783-.214c-.444-.032-.886-.064-1.324-.1q-.679-.054-1.349-.114-2.616-.229-5.107-.546-.681-.086-1.349-.18-1.584-.219-3.107-.469-1.014-.168-2-.351-.681-.125-1.349-.258c-1.786-.354-3.493-.746-5.109-1.166-.319-.083-.636-.168-.947-.254-.134-.036-.268-.073-.4-.112-.73-.2-1.442-.417-2.131-.634q-1.564-.5-2.978-1.036-.694-.267-1.347-.539a30.833,30.833,0,0,1-4.531-2.307c-.2-.124-.392-.249-.578-.376-.234-.159-.459-.319-.673-.48-.237-.175-.461-.353-.675-.53-1.949-1.624-3.014-3.383-3.014-5.215,0-.129.007-.258.019-.386l.005-10.386,2.99,0,1.347,0,5.109-.008,1.347,0,3.986-.007h1.122l1.347,0,5.109-.007,1.349,0,5.107-.009,1.349,0,5.107-.008,1.349,0,5.107-.007,1.349,0,5.109-.008,1.347,0,5.108-.007,1.348,0,5.108-.008,1.347,0,5.109-.008,1.347,0,5.108-.007,1.348,0,5.108-.009,1.349,0h.332l4.775-.007,1.349,0,5.107-.008,1.349,0,2.539-.005.019,10.78Z" transform="translate(-541.344 -406.708)"/><g transform="translate(3.014 0.005)"><g transform="translate(0 0.134)"><path class="n" d="M544.469,406.79v17c-.234-.159-.459-.319-.673-.48-.237-.175-.461-.353-.675-.53V406.792Z" transform="translate(-543.122 -406.79)"/></g><g transform="translate(6.456 0.124)"><path class="n" d="M548.279,406.784V427.02q-.694-.267-1.347-.539v-19.7Z" transform="translate(-546.931 -406.784)"/></g><g transform="translate(12.912 0.114)"><path class="n" d="M552.087,406.778V429.06c-.319-.083-.636-.168-.947-.254-.134-.036-.268-.073-.4-.112V406.781Z" transform="translate(-550.74 -406.778)"/></g><g transform="translate(19.368 0.105)"><path class="n" d="M555.9,406.773v23.714q-.681-.125-1.349-.258V406.775Z" transform="translate(-554.549 -406.773)"/></g><g transform="translate(25.824 0.095)"><path class="n" d="M559.707,406.767v24.724q-.681-.086-1.349-.18V406.769Z" transform="translate(-558.358 -406.767)"/></g><g transform="translate(32.28 0.085)"><path class="n" d="M563.516,406.761v25.393q-.679-.054-1.349-.114V406.763Z" transform="translate(-562.167 -406.761)"/></g><g transform="translate(38.736 0.076)"><path class="n" d="M567.325,406.756v25.766c-.453-.015-.9-.034-1.349-.053V406.758Z" transform="translate(-565.976 -406.756)"/></g><g transform="translate(45.193 0.066)"><path class="n" d="M571.133,406.75v25.87c-.3,0-.6,0-.9,0-.147,0-.3,0-.446,0v-25.87Z" transform="translate(-569.786 -406.75)"/></g><g transform="translate(51.649 0.058)"><path class="n" d="M574.943,406.745v25.71q-.671.033-1.348.058V406.747Z" transform="translate(-573.595 -406.745)"/></g><g transform="translate(58.105 0.047)"><path class="n" d="M578.752,406.739v25.278c-.447.039-.9.08-1.347.115V406.741Z" transform="translate(-577.404 -406.739)"/></g><g transform="translate(64.561 0.037)"><path class="n" d="M582.56,406.733v24.539c-.446.064-.895.124-1.347.185V406.735Z" transform="translate(-581.213 -406.733)"/></g><g transform="translate(71.017 0.029)"><path class="n" d="M586.37,406.728v23.443q-.666.135-1.348.264V406.73Z" transform="translate(-585.022 -406.728)"/></g><g transform="translate(77.473 0.019)"><path class="n" d="M590.18,406.722V428.6c-.442.129-.89.254-1.349.376V406.724Z" transform="translate(-588.831 -406.722)"/></g><g transform="translate(83.929 0.01)"><path class="n" d="M593.989,406.717v19.617c-.436.188-.886.373-1.349.556V406.719Z" transform="translate(-592.64 -406.717)"/></g><g transform="translate(90.385)"><path class="n" d="M597.8,406.711v15.732a15.2,15.2,0,0,1-1.349,1.088V406.713Z" transform="translate(-596.449 -406.711)"/></g></g></g><g transform="translate(0.019)"><path class="o" d="M638.63,412.45c0,7.629-21.771,13.814-48.637,13.814-3.671,0-7.246-.115-10.685-.336-4.322-.275-8.429-.714-12.232-1.292-3.4-.515-6.549-1.142-9.4-1.864-.871-.22-1.717-.449-2.529-.686a40.718,40.718,0,0,1-8.854-3.566c-.446-.258-.864-.52-1.251-.786-2.376-1.627-3.685-3.412-3.685-5.283a3.241,3.241,0,0,1,.039-.512c.943-7.392,22.341-13.3,48.6-13.3a160.489,160.489,0,0,1,18.268,1.009c1.088.125,2.159.261,3.207.408a98.567,98.567,0,0,1,12.381,2.48q1.2.331,2.317.683a40.494,40.494,0,0,1,6.815,2.766,14.492,14.492,0,0,1,4.373,3.314,5.231,5.231,0,0,1,1.239,2.642A3.225,3.225,0,0,1,638.63,412.45Z" transform="translate(-541.355 -398.636)"/><g class="p" transform="translate(25.721 7.346)"><path class="c" d="M626.808,406.284l-58.046,16.632c-4.322-.275-8.429-.714-12.232-1.292l65.905-18.654A14.491,14.491,0,0,1,626.808,406.284Z" transform="translate(-556.53 -402.97)"/></g><g class="p" transform="translate(3.685 1.008)"><path class="c" d="M609.957,399.64,544.78,418.106c-.446-.258-.864-.52-1.251-.786l63.221-18.088C607.838,399.357,608.909,399.492,609.957,399.64Z" transform="translate(-543.529 -399.231)"/></g><g class="p" transform="translate(13.79 3.897)"><path class="c" d="M620.512,401.618,552.02,421.174c-.871-.22-1.717-.449-2.529-.686l68.7-19.553Q619.392,401.266,620.512,401.618Z" transform="translate(-549.491 -400.935)"/></g><g transform="translate(9.763 2.775)"><path class="n" d="M624.865,411.312a4.224,4.224,0,0,1-.037.507c-.939,5.854-18,10.534-38.838,10.534s-37.9-4.68-38.836-10.534a3.9,3.9,0,0,1-.039-.507c0-6.088,17.439-11.039,38.875-11.039S624.865,405.224,624.865,411.312Z" transform="translate(-547.115 -400.273)"/></g><g transform="translate(9.802 3.786)"><path class="g" d="M624.811,411.4c-.939,5.854-18,10.534-38.837,10.534-.466,0-.927,0-1.388-.008a126.7,126.7,0,0,1-13.192-.8,87.4,87.4,0,0,1-11.119-1.958q-1.246-.313-2.4-.654a27.523,27.523,0,0,1-8.131-3.62,9.705,9.705,0,0,1-1.183-1,4.653,4.653,0,0,1-1.425-2.5c.937-5.853,18-10.534,38.836-10.534,2.636,0,5.214.075,7.708.219,1.27.071,2.522.163,3.747.271a94.579,94.579,0,0,1,13.505,2.093q1.271.3,2.452.637a33.384,33.384,0,0,1,7.524,2.98,8.315,8.315,0,0,1,3.656,3.505A3.416,3.416,0,0,1,624.811,411.4Z" transform="translate(-547.138 -400.87)"/></g><g class="q" transform="translate(34.058 9.987)"><path class="c" d="M614.622,408.033l-39.982,11.354a126.712,126.712,0,0,1-13.192-.8l49.517-14.063A8.315,8.315,0,0,1,614.622,408.033Z" transform="translate(-561.449 -404.528)"/></g><g class="q" transform="translate(11.227 4.005)"><path class="c" d="M596.845,401.27l-47.683,13.541a9.71,9.71,0,0,1-1.183-1L593.1,401C594.368,401.07,595.62,401.162,596.845,401.27Z" transform="translate(-547.979 -400.999)"/></g><g class="q" transform="translate(20.541 6.37)"><path class="c" d="M608.984,403.031l-53.112,15.085q-1.246-.313-2.4-.654l53.058-15.068Q607.8,402.7,608.984,403.031Z" transform="translate(-553.474 -402.394)"/></g><g transform="translate(30.646 5.768)"><g transform="translate(0.239 0.61)"><path class="n" d="M582.736,416.1v1.834h-8.205v-1.751a107.412,107.412,0,0,1-14.954-1.158L564,412.182a87.576,87.576,0,0,0,13.443,1.058c3.9,0,5.295-.232,5.295-.627,0-1.454-22.519-.281-22.519-4.595,0-1.866,4.771-3.437,14.314-3.817v-1.8h8.205v1.77a94.889,94.889,0,0,1,11.812.958l-4.132,2.825a79.768,79.768,0,0,0-11.346-.859c-4.015,0-5.3.331-5.3.727,0,1.388,22.519.232,22.519,4.495C596.294,414.1,591.755,415.653,582.736,416.1Z" transform="translate(-559.577 -402.399)"/></g><path class="o" d="M582.6,415.739v1.834H574.39v-1.751a107.409,107.409,0,0,1-14.954-1.158l4.422-2.842A87.574,87.574,0,0,0,577.3,412.88c3.9,0,5.295-.23,5.295-.627,0-1.454-22.519-.281-22.519-4.595,0-1.868,4.771-3.437,14.313-3.817v-1.8H582.6v1.769a94.875,94.875,0,0,1,11.812.958l-4.132,2.825a79.743,79.743,0,0,0-11.346-.859c-4.015,0-5.295.33-5.295.727,0,1.388,22.519.232,22.519,4.495C596.153,413.739,591.614,415.293,582.6,415.739Z" transform="translate(-559.436 -402.039)"/></g></g></g></g><path class="d" d="M771.885,431.191a7.545,7.545,0,1,1,7.546-7.544A7.553,7.553,0,0,1,771.885,431.191Zm0-13.668a6.124,6.124,0,1,0,6.124,6.124A6.13,6.13,0,0,0,771.885,417.523Zm13.173-198.349-.02,0-8.09-.229a.709.709,0,0,1-.69-.731l.154-5.417a40.12,40.12,0,0,1-9.722-2.234,23.121,23.121,0,0,1-4.568-2.247.712.712,0,0,1-.253-.9l4.639-9.744a.712.712,0,0,1,.444-.376.7.7,0,0,1,.576.081,26.9,26.9,0,0,0,7.986,3.278,24.036,24.036,0,0,0,4.8.663,10,10,0,0,0,3.773-.405c.668-.281.768-.617.778-.941.032-1.159-2.43-1.851-5.178-2.517l-.968-.231a36.143,36.143,0,0,1-9.644-3.293,11.582,11.582,0,0,1-4.739-4.71,11.747,11.747,0,0,1-1.217-5.825c.2-7.168,5.739-12.285,14.5-13.461l.161-5.642a.709.709,0,0,1,.73-.69l8.088.232a.708.708,0,0,1,.69.729l-.156,5.5a37.088,37.088,0,0,1,3.914.763,26.911,26.911,0,0,1,7.275,2.907.71.71,0,0,1,.283.9l-4.353,9.692a.708.708,0,0,1-.986.334c-.266-.146-.53-.283-.793-.419a23.585,23.585,0,0,0-9.99-2.795c-.236-.007-.454-.008-.666-.007-1.758.017-3.858.324-3.9,1.692-.005.2.053.483.544.825,1.012.708,3.09,1.185,5.495,1.736,1.561.359,3.331.764,5.056,1.3,3.2.992,7.681,2.8,9.653,7.022v0a11.749,11.749,0,0,1,1.013,5.351c-.2,6.873-5.451,11.948-13.756,13.348l-.164,5.776a.712.712,0,0,1-.708.692Zm-7.359-1.63,6.669.19.159-5.658a.71.71,0,0,1,.607-.683c8.039-1.166,12.948-5.681,13.132-12.075a10.363,10.363,0,0,0-.88-4.71h0c-1.32-2.827-4.112-4.819-8.786-6.268-1.675-.517-3.417-.917-4.954-1.27-2.549-.583-4.753-1.088-5.988-1.956a2.345,2.345,0,0,1-1.153-2.029c.039-1.38.99-3.034,5.3-3.073.236,0,.471,0,.724.008a24.992,24.992,0,0,1,10.595,2.949l.147.076,3.778-8.415a26.18,26.18,0,0,0-6.346-2.432,35.57,35.57,0,0,0-4.381-.814.711.711,0,0,1-.624-.725l.156-5.429-6.669-.192-.158,5.544a.711.711,0,0,1-.632.686c-8.487.946-13.666,5.493-13.854,12.164a10.37,10.37,0,0,0,1.059,5.131,10.211,10.211,0,0,0,4.185,4.132,35.06,35.06,0,0,0,9.266,3.142l.973.234c2.968.717,6.334,1.531,6.264,3.937a2.386,2.386,0,0,1-1.651,2.21,10.987,10.987,0,0,1-4.361.514,25.372,25.372,0,0,1-5.09-.7,28.77,28.77,0,0,1-7.734-3.046l-4.029,8.464a22.723,22.723,0,0,0,3.764,1.776,38.953,38.953,0,0,0,10.013,2.214.713.713,0,0,1,.648.729Zm-24.124-79.3a7.545,7.545,0,1,1,7.546-7.546A7.554,7.554,0,0,1,753.575,138.243Zm0-13.67A6.124,6.124,0,1,0,759.7,130.7,6.131,6.131,0,0,0,753.575,124.573Z" transform="translate(496.703 12053.287)"/><g transform="translate(997.451 12183.273)"><g transform="translate(256.344 132.962)"><path class="d" d="M629.814,259.336a.711.711,0,0,1-.7-.853l2.668-13.017c-5.4-4.327-8.492-10.353-8.492-16.6,0-12.814,12.664-23.237,28.231-23.237,15.549,0,28.2,10.424,28.2,23.237s-12.653,23.237-28.2,23.237a33.088,33.088,0,0,1-12.5-2.424l-8.69,9.424A.71.71,0,0,1,629.814,259.336Zm21.71-52.283c-14.783,0-26.809,9.786-26.809,21.817,0,5.936,3.02,11.675,8.288,15.748a.713.713,0,0,1,.261.705l-2.242,10.944,7.3-7.914a.711.711,0,0,1,.8-.171,31.541,31.541,0,0,0,12.4,2.505c14.766,0,26.781-9.786,26.781-21.817S666.291,207.052,651.525,207.052Z" transform="translate(-623.294 -205.632)"/></g><path class="d" d="M587.8,128.605H472.762a.71.71,0,1,1,0-1.42H587.8a.71.71,0,1,1,0,1.42Z" transform="translate(-472.052 -127.185)"/><g transform="translate(239.14 202.872)"><path class="d" d="M686.07,248.3H613.854a.71.71,0,1,1,0-1.42H686.07a.71.71,0,0,1,0,1.42Z" transform="translate(-613.144 -246.879)"/></g><g transform="translate(268.103 151.258)"><path class="d" d="M634.808,225.583a4.578,4.578,0,1,1,4.578-4.578A4.582,4.582,0,0,1,634.808,225.583Zm0-7.736a3.157,3.157,0,1,0,3.158,3.158A3.16,3.16,0,0,0,634.808,217.847Z" transform="translate(-630.232 -216.427)"/><g transform="translate(12.117)"><path class="d" d="M641.957,225.583a4.578,4.578,0,1,1,4.578-4.578A4.582,4.582,0,0,1,641.957,225.583Zm0-7.736a3.157,3.157,0,1,0,3.158,3.158A3.16,3.16,0,0,0,641.957,217.847Z" transform="translate(-637.381 -216.427)"/></g><g transform="translate(24.234)"><path class="d" d="M649.106,225.583a4.578,4.578,0,1,1,4.578-4.578A4.582,4.582,0,0,1,649.106,225.583Zm0-7.736a3.157,3.157,0,1,0,3.158,3.158A3.16,3.16,0,0,0,649.106,217.847Z" transform="translate(-644.53 -216.427)"/></g></g></g><g transform="translate(1254.668 12401.013)"><path class="d" d="M441.99,159.317h-.208a20.786,20.786,0,0,1-20.736-20.832l0-.158a20.807,20.807,0,0,1,20.783-20.736h.205a20.807,20.807,0,0,1,20.737,20.832v.158a20.783,20.783,0,0,1-20.783,20.736Zm-.046-1.42h.046a19.36,19.36,0,0,0,19.361-19.319l0-.159a19.386,19.386,0,0,0-19.319-19.407h-.2a19.384,19.384,0,0,0-19.365,19.319v.159A19.363,19.363,0,0,0,441.787,157.9Z" transform="translate(-421.046 -117.591)"/><g transform="translate(8.253 10.772)"><path class="d" d="M438.886,147.88h0a.705.705,0,0,1-.5-.208l-10.059-10.105a8.323,8.323,0,0,1,.024-11.736,6.067,6.067,0,0,1,4.922-1.856,8.472,8.472,0,0,1,5.661,3.571A8.477,8.477,0,0,1,444.608,124a6.077,6.077,0,0,1,4.914,1.88,8.323,8.323,0,0,1-.03,11.736l-10.105,10.058A.71.71,0,0,1,438.886,147.88Zm-6.2-22.514a4.675,4.675,0,0,0-3.334,1.471,6.9,6.9,0,0,0-.02,9.727l9.558,9.6,9.6-9.558a6.831,6.831,0,0,0,2.019-4.861h0a6.833,6.833,0,0,0-1.992-4.866,4.618,4.618,0,0,0-3.773-1.466c-1.858.175-3.714,1.5-5.225,3.737a.712.712,0,0,1-.59.312h0a.71.71,0,0,1-.588-.315c-1.5-2.241-3.351-3.576-5.208-3.761C432.979,125.375,432.832,125.366,432.685,125.366Z" transform="translate(-425.915 -123.946)"/></g></g></g></svg>