<svg xmlns="http://www.w3.org/2000/svg" width="269" height="627.657" viewBox="0 0 269 627.657"><defs><style>.a{fill:#b1ffec;}.b{fill:#f4a390;}.c{fill:#191313;}.d{fill:#4c4c63;}.e{fill:#fff;}.f{fill:#016be3;}.g{fill:#0077ec;}.h{fill:#0236a5;}.i{fill:#ed727e;}.j{fill:#03e6b0;}.k{fill:#8effe4;}.l{fill:#221b22;}.m{fill:#4c414c;}.n{fill:#35252f;}</style></defs><g transform="translate(-181 -12225.153)"><ellipse class="a" cx="134.5" cy="29.067" rx="134.5" ry="29.067" transform="translate(181 12794.676)"/><g transform="translate(213.817 12225.153)"><g transform="translate(33.468 242.603)"><g transform="translate(31.333 306.376)"><path class="b" d="M378.925,396.912l1.861,14.778h18.848l1.1-15.554Z" transform="translate(-378.925 -396.136)"/></g><g transform="translate(81.724 304.243)"><path class="b" d="M403.574,395.6l2.29,17.175h18.848l-.727-17.686Z" transform="translate(-403.574 -395.093)"/></g><g transform="translate(77.083 316.69)"><path class="c" d="M473.6,436.191H402.306a9.988,9.988,0,0,1-.936-3.96c-.446-6.031,1.476-15.654,2.419-21.721.114-.709.213-1.372.288-1.971a21.041,21.041,0,0,0,.213-2.478c0-4.951,4.383-4.1,4.383-4.1,7.213,7.074,15.382-3.535,20.151-.055,0,0,2.055,1.472,7.715,6.564s15.284,8.454,23.478,11.882c10.58,4.422,13.579,8.84,14.165,11.882A5.571,5.571,0,0,1,473.6,436.191Z" transform="translate(-401.304 -401.181)"/><g transform="translate(0.066 31.05)"><path class="d" d="M473.562,420.329H402.272a9.988,9.988,0,0,1-.936-3.96h72.813A5.571,5.571,0,0,1,473.562,420.329Z" transform="translate(-401.336 -416.369)"/></g><g transform="translate(2.485 7.358)"><path class="d" d="M408.311,432.432h-2.118a15.656,15.656,0,0,0,3.833-11.416c-.345-7.045-4.571-11.792-7.507-14.266.114-.709.213-1.372.288-1.971,3.165,2.421,8.5,7.715,8.915,16.151A17.3,17.3,0,0,1,408.311,432.432Z" transform="translate(-402.519 -404.78)"/></g><g transform="translate(32.852 8.036)"><path class="e" d="M418.548,408.567a1.174,1.174,0,0,1-.282-2.314l4.453-1.106a1.174,1.174,0,0,1,.566,2.279l-4.455,1.106A1.124,1.124,0,0,1,418.548,408.567Z" transform="translate(-417.373 -405.112)"/></g><g transform="translate(28.427 4.329)"><path class="e" d="M416.383,406.755a1.176,1.176,0,0,1-.282-2.316l4.453-1.1a1.174,1.174,0,1,1,.566,2.279l-4.453,1.106A1.238,1.238,0,0,1,416.383,406.755Z" transform="translate(-415.209 -403.298)"/></g><g transform="translate(37.306 10.625)"><path class="e" d="M420.726,409.835a1.176,1.176,0,0,1-.282-2.316l4.453-1.106a1.175,1.175,0,0,1,.566,2.281l-4.453,1.1A1.14,1.14,0,0,1,420.726,409.835Z" transform="translate(-419.552 -406.378)"/></g><g transform="translate(41.759 13.114)"><path class="e" d="M422.9,411.052a1.176,1.176,0,0,1-.282-2.316l4.453-1.1a1.174,1.174,0,1,1,.566,2.279l-4.453,1.106A1.244,1.244,0,0,1,422.9,411.052Z" transform="translate(-421.73 -407.595)"/></g><g transform="translate(46.614 15.415)"><path class="e" d="M425.279,412.178a1.176,1.176,0,0,1-.282-2.316l4.455-1.106a1.175,1.175,0,0,1,.564,2.281l-4.453,1.1A1.132,1.132,0,0,1,425.279,412.178Z" transform="translate(-424.105 -408.721)"/></g><g transform="translate(51.88 17.377)"><path class="e" d="M427.855,413.138a1.176,1.176,0,0,1-.282-2.316l4.453-1.106a1.175,1.175,0,1,1,.566,2.281l-4.453,1.1A1.142,1.142,0,0,1,427.855,413.138Z" transform="translate(-426.681 -409.681)"/></g></g><path class="f" d="M365.644,299.4q.276,1.113.6,2.179l.022.082q.448,1.441.983,2.768c3.193,7.818,27.873,8.962,52.168,6.245,18.845-2.108,37.459-6.544,45.633-12,7.675-5.123-8.67-52.4-8.67-52.4l-92.177,19.346S362.134,285.278,365.644,299.4Z" transform="translate(-363.599 -246.273)"/><g transform="translate(57.217 39.994)"><path class="g" d="M391.942,290.039l15.1,130.347c-3.475,21.932,5.886,111.74,5.886,111.74l27.141-.822,7.883-118.958c-.182-34.44-3.809-82.051-9.153-133.993-.084-.8-.164-1.591-.249-2.39q-.408-3.974-.836-7.987c-.076-.713-.151-1.425-.227-2.14l-8.875,4.085-2.175,1-34.85,16.05Z" transform="translate(-391.586 -265.836)"/></g><g transform="translate(77.679 294.881)"><path class="h" d="M429.014,392.8H402.738a1.142,1.142,0,1,1,0-2.284h26.276a1.142,1.142,0,1,1,0,2.284Z" transform="translate(-401.595 -390.513)"/></g><g transform="translate(62.151 64.6)"><path class="h" d="M412.956,509.373h2.277c-8.754-74.685-2.772-105.52-2.709-105.831a1.134,1.134,0,0,0,.012-.372L396.252,278.857a1.131,1.131,0,0,0-2.243.292l16.263,124.135C409.773,406.024,404.556,437.509,412.956,509.373Z" transform="translate(-393.999 -277.872)"/></g><g transform="translate(82.252 23.422)"><path class="h" d="M403.851,259.067c.108.585,2.337,12.139,9.8,20.323a26.248,26.248,0,0,0,5.189,4.428,21.846,21.846,0,0,0,4.808,2.335,19.984,19.984,0,0,0,2.365.666c-.084-.8-.164-1.591-.249-2.39-.38-.1-.758-.207-1.131-.331a19.867,19.867,0,0,1-4.573-2.179,23.174,23.174,0,0,1-4.234-3.533c-7.444-7.779-9.721-19.593-9.748-19.734a1.131,1.131,0,0,0-2.224.415Z" transform="translate(-403.832 -257.73)"/></g><g transform="translate(58.063 10.165)"><path class="h" d="M397.575,300.58a.93.93,0,0,1-.891.953l-.008,0a.926.926,0,0,1-.983-.863c-.168-3.41-.368-6.9-.587-10.385q-.058-.92-.119-1.84c-.742-11.393-1.683-22.578-2.394-30.475-.057-.638-.113-1.257-.168-1.852-.159-1.732-.3-3.269-.425-4.571.626-.1,1.251-.2,1.869-.3.123,1.3.266,2.854.425,4.6.057.595.11,1.214.17,1.854.7,7.826,1.638,18.912,2.378,30.236.043.623.082,1.253.125,1.877C397.193,293.431,397.4,297.051,397.575,300.58Z" transform="translate(-392 -251.245)"/></g><g transform="translate(50.403 11.289)"><path class="h" d="M404.173,287.98a24.6,24.6,0,0,1-3.294,1.261,18.579,18.579,0,0,1-1.86.47,13.57,13.57,0,0,1-1.785.231,6.488,6.488,0,0,1-3.161-.495,3.857,3.857,0,0,1-2.147-2.879c-.685-3.514-2.122-18.027-3.091-28.292-.061-.63-.121-1.247-.176-1.844-.153-1.642-.29-3.136-.407-4.4.621-.076,1.249-.151,1.875-.235.116,1.278.255,2.788.413,4.453q.086.892.172,1.844c.971,10.24,2.4,24.731,3.069,28.137a2.027,2.027,0,0,0,1.137,1.591,6.661,6.661,0,0,0,3.982.053c.634-.139,1.265-.317,1.854-.507a22.423,22.423,0,0,0,2.586-1.012.953.953,0,0,1,1.261.409A.9.9,0,0,1,404.173,287.98Z" transform="translate(-388.253 -251.795)"/></g><g transform="translate(0.749 31.27)"><g transform="translate(0 2.394)"><path class="g" d="M363.965,263.632s.654,7.333,1.695,18.573c.065.7.135,1.415.2,2.153l0,.025a.322.322,0,0,0,.012.084c.068.732.137,1.48.2,2.239,2.631,28.313,7.145,75.329,10.107,97.94,0,0-.44,42.55,1.135,75.384,1.46,30.508,11.98,67.107,13.464,76.153h27.979l.274-4.017V278.5a273.655,273.655,0,0,0-26.088-10.6c-.73-.249-1.464-.491-2.2-.734-1.4-.452-2.793-.889-4.185-1.3q-1.11-.325-2.21-.63C376.033,262.959,368.3,261.829,363.965,263.632Z" transform="translate(-363.965 -262.74)"/></g><g transform="translate(24.093 263.611)"><path class="h" d="M405.434,392.8H376.893a1.142,1.142,0,1,1,0-2.284h28.542a1.142,1.142,0,1,1,0,2.284Z" transform="translate(-375.75 -390.513)"/></g><g transform="translate(8.41 28.732)"><path class="h" d="M388.94,511.127c-2.47-13.129-6.988-37.643-9.333-53.548-3.3-22.417-1.674-85.469-1.658-86.1a1.068,1.068,0,0,0-.006-.162c-2.482-21.09-7.556-93.9-7.607-94.638a1.13,1.13,0,1,0-2.255.157c.051.732,5.115,73.416,7.605,94.665-.067,2.621-1.593,64.173,1.685,86.41,2.324,15.774,6.777,39.976,9.267,53.219Z" transform="translate(-368.079 -275.623)"/></g><g transform="translate(16.331 283.112)"><path class="c" d="M414.785,432.8c0,.17,0,.335-.008.5-.014.754-.047,1.433-.08,2.014-.078,1.28-.17,2.067-.17,2.067H372.063a23.314,23.314,0,0,1-.049-4.081c.278-4.338,1.719-11.193,7.585-15.721,8.028-6.207,4.927-4.911,6.575-7.74.186-.315,1.629-5.123,1.783-5.454,1.382-2.938,2.654-4.326,10.261-4.326,10.091,0,10.978,4.9,12.056,7.474a48.521,48.521,0,0,1,1.681,5.994c.254,1.073.507,2.22.758,3.387.621,2.926,1.2,5.98,1.6,8.419A43.925,43.925,0,0,1,414.785,432.8Z" transform="translate(-371.953 -400.052)"/><g transform="translate(37.446 13.427)"><path class="d" d="M395.655,425.937c0,.17,0,.335-.008.5-.014.754-.047,1.433-.08,2.014a11.848,11.848,0,0,1-4.412-5.718c-2.627-7.157,1.413-15.746,1.582-16.11l.086.041c.254,1.073.507,2.22.758,3.388-.957,2.921-2.059,7.834-.53,11.99A9.853,9.853,0,0,0,395.655,425.937Z" transform="translate(-390.27 -406.62)"/></g><g transform="translate(0 33.242)"><path class="d" d="M414.776,416.312c-.055,2.419-.249,4.081-.249,4.081H372.063a23.314,23.314,0,0,1-.049-4.081Z" transform="translate(-371.953 -416.312)"/></g><g transform="translate(15.982 10.092)"><path class="e" d="M391.453,408.134a1.209,1.209,0,0,1-.3-.039,21.012,21.012,0,0,0-9.844-.2,1.211,1.211,0,1,1-.646-2.335,23.247,23.247,0,0,1,11.1.192,1.211,1.211,0,0,1-.3,2.384Z" transform="translate(-379.771 -404.989)"/></g><g transform="translate(16.644 5.517)"><path class="e" d="M391.777,405.9a1.207,1.207,0,0,1-.3-.039,20.979,20.979,0,0,0-9.844-.2,1.211,1.211,0,0,1-.646-2.335,23.246,23.246,0,0,1,11.1.192,1.211,1.211,0,0,1-.3,2.384Z" transform="translate(-380.095 -402.751)"/></g><g transform="translate(14.167 13.929)"><path class="e" d="M390.565,410.009a1.207,1.207,0,0,1-.3-.039,21.236,21.236,0,0,0-9.848-.2,1.211,1.211,0,0,1-.642-2.335,23.307,23.307,0,0,1,11.1.192,1.211,1.211,0,0,1-.3,2.384Z" transform="translate(-378.883 -406.865)"/></g><g transform="translate(12.032 18.291)"><path class="e" d="M389.521,412.143a1.207,1.207,0,0,1-.3-.039,21.192,21.192,0,0,0-9.846-.2,1.211,1.211,0,0,1-.644-2.335,23.276,23.276,0,0,1,11.1.192,1.211,1.211,0,0,1-.3,2.384Z" transform="translate(-377.839 -408.999)"/></g></g><g transform="translate(1.895)"><path class="h" d="M364.892,285.581l0,.025a.321.321,0,0,0,.012.084c.068.732.137,1.48.2,2.239a18.2,18.2,0,0,0,9.39-.842c5.79-2.1,10.334-6.834,13.634-11.553a55.91,55.91,0,0,0,3.848-6.411,54.887,54.887,0,0,0,2.694-6.041,1.132,1.132,0,0,0-2.132-.758,53.04,53.04,0,0,1-2.762,6.066,54.4,54.4,0,0,1-3.588,5.91c-3.085,4.4-7.262,8.783-12.471,10.665A16.091,16.091,0,0,1,364.892,285.581Z" transform="translate(-364.892 -261.569)"/></g></g></g><g transform="translate(97.335 62.018)"><g transform="translate(15.302 29.359)"><path class="b" d="M483.142,184.708c-.666,4.778-1.345,9.562-2.173,14.36-.812,4.8-1.7,9.6-2.772,14.439s-2.255,9.688-3.723,14.595a115.164,115.164,0,0,1-5.518,14.957,67.358,67.358,0,0,1-4.23,7.789,40.587,40.587,0,0,1-6.659,8.083c-.376.335-.756.671-1.141,1l-.286.249-.323.247-.646.493-.654.482c-.223.161-.431.319-.685.476-.484.311-.977.619-1.474.916-.476.3-1.055.583-1.6.857-.56.27-1.088.544-1.711.777-.6.235-1.21.462-1.824.673-.64.2-1.294.37-1.948.536a25.436,25.436,0,0,1-8.161.546,27.678,27.678,0,0,1-7.311-1.795c-.527-.217-1.084-.435-1.58-.673s-.989-.474-1.478-.724c-.922-.5-1.852-1.024-2.664-1.562-.855-.538-1.6-1.088-2.371-1.65-.716-.556-1.447-1.128-2.1-1.7-.681-.574-1.286-1.147-1.914-1.725-.585-.577-1.19-1.159-1.734-1.742-1.12-1.163-2.14-2.331-3.105-3.5a79.89,79.89,0,0,1-5.184-7.1c-.781-1.2-1.525-2.406-2.249-3.639-.362-.615-.718-1.241-1.071-1.885l-.534-.985-.274-.527-.143-.284-.192-.39a15.635,15.635,0,0,1,28.478-12.914l0,.014.014.037.045.117.106.266.256.6c.182.407.37.828.572,1.245.4.842.818,1.68,1.255,2.5a49.788,49.788,0,0,0,2.752,4.59c.472.7.949,1.351,1.411,1.93.233.309.458.562.681.842.219.239.442.507.644.711l.1.117c.137.147.268.268.39.4.031.029.059.057.09.09.123.108.254.239.366.341l.106-.106c.129-.129.266-.274.4-.425.323-.348.658-.744.989-1.176a39.235,39.235,0,0,0,2.905-4.4,88.287,88.287,0,0,0,5.209-11.175c1.578-4.011,3.005-8.212,4.33-12.493s2.531-8.666,3.668-13.088c1.153-4.414,2.177-8.9,3.193-13.395l.029-.127a10.9,10.9,0,0,1,21.429,3.909Z" transform="translate(-402.324 -172.301)"/></g><g transform="translate(74.067)"><path class="b" d="M433.541,193.183s4.463,9.535,12.33,9.247c6.352-.235,10.345-7.525,11.649-10.322.311-.669.466-1.079.466-1.079a10.266,10.266,0,0,0,1.114-.276c1.543-.456,4.211-1.552,4.751-3.762.771-3.15-5.348-3.426-5.348-3.426s2.147-3.371.9-5.033c-1.227-1.631-5.182-.928-5.182-.928s3.385-3.86,1.335-5.814c-3.083-2.94-6.274,2.151-6.554,2.461.182-.386,9.349-16.136,6.129-16.308-2.811-.147-11.579,12.61-13.546,16.251-.313.577-.487.91-.487.91s-.2-.08-.55-.192c-1.65-.536-6.607-1.817-8.68,1.212C429.363,179.786,433.541,193.183,433.541,193.183Z" transform="translate(-431.068 -157.94)"/><g transform="translate(14.924 21.991)"><path class="i" d="M444.464,175.071a6.438,6.438,0,0,0-1.942,3.541,1.9,1.9,0,0,0,.73,1.717,3.627,3.627,0,0,0,1.529.57,19.864,19.864,0,0,0,5.113-.027c.313-.671.468-1.079.468-1.079a10.6,10.6,0,0,0,1.116-.274.591.591,0,0,0-.337-.039c-2.234.358-6.152.646-7.155-.119a.7.7,0,0,1-.251-.671c.086-1.229,1.768-3.3,3.459-4.26a.607.607,0,0,0-.472-1.11c-1.437.435-5.479,1.308-6.939.2-.211-.161-.2-.284-.2-.348a2.026,2.026,0,0,1,.656-1.059,14.916,14.916,0,0,1,3.093-2.277.594.594,0,0,0,.251-.266.6.6,0,0,0-.014-.56.611.611,0,0,0-.83-.235,16.58,16.58,0,0,0-3.124,2.243,5.219,5.219,0,0,0-.989,1.255,2.081,2.081,0,0,0-.258.816,1.574,1.574,0,0,0,.675,1.4C440.336,175.465,442.643,175.365,444.464,175.071Z" transform="translate(-438.368 -168.697)"/></g><g transform="translate(12.809 20.304)"><path class="i" d="M438.518,168a.594.594,0,0,1,.233.638,3.917,3.917,0,0,0-.131,1.95.692.692,0,0,0,.47.54,2.414,2.414,0,0,0,1.065-.008,18,18,0,0,0,3.966-1.447.6.6,0,0,1-.249.266,14.928,14.928,0,0,0-3.093,2.275c-.141.035-.282.063-.417.088a4.672,4.672,0,0,1-1.2.074,2.4,2.4,0,0,1-.431-.086,1.894,1.894,0,0,1-1.276-1.362,5.075,5.075,0,0,1,.118-2.615.6.6,0,0,1,.926-.325Z" transform="translate(-437.334 -167.872)"/></g><g transform="translate(3.172 16.252)"><path class="i" d="M432.963,173.55a20.013,20.013,0,0,0,4.563,1.492,6.821,6.821,0,0,0,3.61-.145,3.035,3.035,0,0,0,1.777-1.793c1.151-3.011-1.351-5.812-2.948-7.215-.313.577-.487.91-.487.91s-.2-.08-.55-.192c1.357,1.145,3.784,3.625,2.85,6.064a1.823,1.823,0,0,1-1.09,1.1c-2,.8-5.876-.675-7.2-1.31a.607.607,0,0,0-.527,1.094Z" transform="translate(-432.62 -165.89)"/></g><g transform="translate(9.05 24.912)"><path class="i" d="M438.336,184.426a.607.607,0,0,0,.5-1.061,5.463,5.463,0,0,1-2.124-4.126c-.086-4.017,4.189-8.02,4.232-8.061a.607.607,0,1,0-.824-.891c-.192.178-4.72,4.42-4.622,8.979a6.626,6.626,0,0,0,2.553,5.025A.607.607,0,0,0,438.336,184.426Z" transform="translate(-435.495 -170.126)"/></g></g><g transform="translate(48.053 93.415)"><g transform="translate(3.226)"><path class="i" d="M421.4,214.941a.681.681,0,0,1-.6.758.549.549,0,0,1-.082,0,.682.682,0,0,1-.677-.605,23.843,23.843,0,0,1,.626-8c.235-1.01.5-1.95.771-2.782.074-.235.149-.462.221-.681.137.147.268.268.39.4a.682.682,0,0,1,.532.278.266.266,0,0,1,.031.047c.129-.129.266-.274.4-.425C422.081,206.66,420.938,211,421.4,214.941Z" transform="translate(-419.922 -203.634)"/></g><g transform="translate(0 0.396)"><path class="i" d="M424.089,205.061a9.367,9.367,0,0,0-1.777,1.834,22.688,22.688,0,0,0-2.645,4.757.681.681,0,0,1-.636.438.726.726,0,0,1-.251-.045.684.684,0,0,1-.388-.885c.074-.2,1.879-4.8,4.692-7.047.061-.051.123-.1.188-.147a.668.668,0,0,1,.423-.137.682.682,0,0,1,.532.278.265.265,0,0,1,.031.047A.676.676,0,0,1,424.089,205.061Z" transform="translate(-418.344 -203.828)"/></g></g><g transform="translate(0 35.213)"><path class="j" d="M419.425,175.269s5.671,1.56,13.274,19.559c5.215,12.344,11.643,26.738,11.643,26.738l-29.717,23.187s-17.071-33.072-19.3-43.341C392.733,189.5,400.49,173.73,419.425,175.269Z" transform="translate(-394.839 -175.165)"/></g></g><g transform="translate(22.355)"><g transform="translate(0 82.848)"><path class="j" d="M473.008,337.653a53.42,53.42,0,0,1-6.763,5.309c-.076.055-.153.1-.235.153-1.75,1.163-3.614,2.271-5.573,3.318-.7.372-1.409.74-2.132,1.1a95.683,95.683,0,0,1-19.123,6.945q-.948.245-1.909.46-2.772.65-5.626,1.157c-.638.121-1.278.225-1.92.329a113.62,113.62,0,0,1-22.848,1.349c-.916-.039-1.832-.088-2.748-.153q-3.662-.239-7.321-.752c-.061-.006-.117-.016-.176-.021q-1.1-.156-2.2-.335a97.645,97.645,0,0,1-11.743-2.65,87.077,87.077,0,0,1-9.948-3.553c-.554-.231-1.1-.478-1.652-.72q-1.027-.466-2.04-.959c-.059-.027-.125-.055-.19-.088-4.015-10.968-8.425-50.12-9.609-61.824q-.356-3.5-.583-6.992c-.421-6.352-.554-12.724-.487-19.207.043-4.348.174-8.736.366-13.2.022-.654.055-1.306.082-1.959,0-.049.006-.1.006-.147.029-.593.055-1.186.088-1.783q.23-4.683.521-9.478c.411-6.789.889-13.781,1.343-21.065.74-11.718,3.23-20.949,7.388-27.2a23.871,23.871,0,0,1,3.455-4.146,18.3,18.3,0,0,1,9.876-4.9,53.191,53.191,0,0,0,6.389-1.411c.362-.1.707-.2,1.053-.313,1.092-.333,2.118-.7,3.077-1.063,1.108-.427,2.128-.873,3.06-1.31.143-.065.29-.137.433-.2.247-.127.495-.243.73-.368a38.632,38.632,0,0,0,6.219-3.845H429.7q.322.469.654.906c.02.022.033.043.049.059a20.532,20.532,0,0,0,6.47,5.469c.45.251.912.482,1.366.7.358.176.714.335,1.075.495s.75.313,1.131.46c.9.352,1.8.664,2.713.961l.035,0c6.646,2.122,13.4,3.034,17.109,7.942a12.309,12.309,0,0,1,1.47,2.539,15.885,15.885,0,0,1,.977,3.2,13.254,13.254,0,0,1,.241,2.19c.268,8.045-4.361,23.126-3.823,51.107q.049,2.616.164,5.369c.022.548.045,1.1.072,1.656.055,1.137.116,2.288.192,3.461v.006c.072,1.173.149,2.367.241,3.58.166,2.261.368,4.6.609,6.988q.3,3.149.713,6.466c.274,2.259.575,4.579.92,6.959,1.349,9.465,4.387,28.255,7.581,44.038.5,2.486,1.008,4.892,1.513,7.18.055.241.1.476.159.713C471.894,333.122,472.454,335.5,473.008,337.653Z" transform="translate(-358.163 -168.129)"/><g transform="translate(72.583 49.177)"><path class="k" d="M393.69,193.918l22.482-1.734s6.536,29.443-7.491,30.9C392.422,224.78,393.69,193.918,393.69,193.918Z" transform="translate(-393.667 -192.184)"/></g><g transform="translate(37.38 1.419)"><path class="e" d="M402.092,194.012c-14.865,0-25.1-22.719-25.557-23.745a1.027,1.027,0,0,1,1.879-.832c.11.251,11.35,25.193,26.143,22.282,3.688-.726,6.307-2.453,7.785-5.133,3.443-6.246-.147-15.709-.184-15.805a1.027,1.027,0,0,1,1.916-.74c.164.425,3.966,10.463.065,17.537-1.783,3.236-4.874,5.309-9.185,6.158A14.864,14.864,0,0,1,402.092,194.012Z" transform="translate(-376.447 -168.823)"/></g><g transform="translate(41.747 28.121)"><path class="a" d="M412.321,193.876a34.456,34.456,0,0,1-15.237,1.069,63.013,63.013,0,0,1-18.138-5.489.684.684,0,0,1-.315-.857.563.563,0,0,1,.789-.294,61.759,61.759,0,0,0,17.782,5.371c12.767,1.656,22.012-2.216,27.474-11.51a.562.562,0,0,1,.824-.17.68.68,0,0,1,.2.889,23.872,23.872,0,0,1-13.184,10.925Z" transform="translate(-378.583 -181.885)"/></g><g transform="translate(55.65 24.705)"><path class="a" d="M401.34,184.89c-6.139,2.02-15.022-.912-15.511-1.077a.679.679,0,0,1-.425-.805.564.564,0,0,1,.734-.415c.149.049,14.987,4.947,18.833-2.081a.563.563,0,0,1,.82-.2.685.685,0,0,1,.225.883A7.9,7.9,0,0,1,401.34,184.89Z" transform="translate(-385.384 -180.213)"/></g><g transform="translate(34.002 122.844)"><path class="a" d="M420.7,251.293a43.366,43.366,0,0,1-7.421-.656,61.777,61.777,0,0,1-19.291-7.153,92.642,92.642,0,0,1-19-14.149.687.687,0,0,1-.025-.914.563.563,0,0,1,.84-.029,91.355,91.355,0,0,0,18.757,13.957c10.152,5.645,25.369,11.072,40.2,4.876a.581.581,0,0,1,.769.372.664.664,0,0,1-.341.834A37.273,37.273,0,0,1,420.7,251.293Z" transform="translate(-374.795 -228.218)"/></g></g><g transform="translate(24.771)"><path class="l" d="M413.91,145.813c-10.289-1.126-35.037,21.611-27.591,42.351,0,0-11.083-5.346-14.991-17.86S375.7,151.38,375.7,151.38s-9.108-11.173,5.156-15.4,22.167-2.282,27.558-7.033,9.167,4.218,4.565,9.144c0,0,8.887.529.93,7.718" transform="translate(-370.279 -127.604)"/><g transform="translate(13.529 63.859)"><path class="b" d="M409.059,171l1.429,7.223a22.78,22.78,0,0,1-2.2,2.3c-11.054,10.017-26.432,3.371-26.432,3.371L376.9,158.841l28.327,10.706Z" transform="translate(-376.897 -158.841)"/><g transform="translate(9.878 9.895)"><path class="l" d="M404.013,165.942l1.429,7.223a22.772,22.772,0,0,1-2.2,2.3c-11.518-2.114-21.511-11.782-21.511-11.782l18.448.812Z" transform="translate(-381.729 -163.681)"/></g></g><g transform="translate(2.289 16.662)"><g transform="translate(33.273 0.192)"><path class="l" d="M387.674,135.893s17.782-1.813,15.094,17.694C402.768,153.587,388.216,140.744,387.674,135.893Z" transform="translate(-387.674 -135.848)"/></g><g transform="translate(46.093 22.613)"><path class="i" d="M393.945,149.754s3.144-5.659,6.421-1.272,3.439,14.552-3.124,14.184Z" transform="translate(-393.945 -146.816)"/></g><g transform="translate(4.267)"><path class="b" d="M423.054,177.438s2.977,14.93-12.565,17.972c-15.445,3.028-28.366-7.014-29.024-7.468l-.02-.012-.789-3.105-4.1-16.118-2.194-8.615s-5.076-15.29,9.259-21.1c10.475-4.244,21.043-4.457,27.319.2a13.621,13.621,0,0,1,4.968,7.192l3.58,15.547.875,3.809Z" transform="translate(-373.486 -135.754)"/></g><g transform="translate(33.726 19.347)"><path d="M391.006,156.985a.571.571,0,0,1-.4-.979l2.811-2.77-3-1.032a.569.569,0,0,1-.35-.345l-2.138-5.874a.571.571,0,1,1,1.073-.39l2.044,5.618,3.61,1.245a.572.572,0,0,1,.215.947l-3.467,3.416A.565.565,0,0,1,391.006,156.985Z" transform="translate(-387.896 -145.218)"/></g><g transform="translate(19.584 14.14)"><path d="M387.64,142.972s-5.213,1.321-6.466,5.477,3.843,2.431,5.873,1.188,3.065-1.03,4.187-2.345A2.873,2.873,0,0,0,387.64,142.972Z" transform="translate(-380.978 -142.671)"/></g><g transform="translate(36.517 11.404)"><path d="M393.321,141.542s5.3.934,6.851,4.988-3.653,2.707-5.769,1.615-3.132-.8-4.348-2.032A2.873,2.873,0,0,1,393.321,141.542Z" transform="translate(-389.261 -141.333)"/></g><g transform="translate(11.518 31.358)"><path class="l" d="M380.735,151.436s5.69,7.525,10.163,5.156,9.848-4.042,14.568-2.883c0,0,6.728-4.136,11.645-2.008,3.3,1.427,5.569,21.576-4.085,26.454s-24.126,4.013-29.353-4.964a57.329,57.329,0,0,1-6.64-17.222Z" transform="translate(-377.033 -151.093)"/></g><g transform="translate(35.864 46.625)"><path class="m" d="M392.455,160.364a7.484,7.484,0,0,1-3.206-.726.571.571,0,1,1,.527-1.012h0a6.09,6.09,0,0,0,5.154,0,.571.571,0,0,1,.527,1.012A6.419,6.419,0,0,1,392.455,160.364Z" transform="translate(-388.942 -158.561)"/></g><g transform="translate(30.926 36.939)"><path class="e" d="M401.358,153.823s-7.957,3.535-14.832.987c0,0,.928,6.824,7.605,6.708C401.38,161.393,401.358,153.823,401.358,153.823Z" transform="translate(-386.526 -153.823)"/></g><g transform="translate(20.361 30.897)"><path class="i" d="M391.379,152.081c.215,1.088-1.85,2.412-4.612,2.96s-5.176.108-5.393-.979,1.85-2.412,4.612-2.958S391.164,150.993,391.379,152.081Z" transform="translate(-381.359 -150.867)"/></g><g transform="translate(44.542 26.18)"><path class="i" d="M399.785,152.369c-.378.115-.779.215-1.194.3-2.76.546-5.174.108-5.389-.979s1.85-2.412,4.61-2.96q.561-.11,1.1-.166Z" transform="translate(-393.187 -148.56)"/></g><g transform="translate(26.63 21.493)"><g transform="translate(0 2.923)"><path d="M387.543,150.121c.3,1.492-.141,2.838-.977,3s-1.754-.912-2.048-2.4.141-2.84.977-3.005S387.249,148.626,387.543,150.121Z" transform="translate(-384.425 -147.698)"/></g><g transform="translate(14.777)"><path d="M394.771,148.689c.294,1.492-.143,2.838-.979,3s-1.752-.91-2.046-2.4.141-2.838.977-3S394.475,147.2,394.771,148.689Z" transform="translate(-391.653 -146.268)"/></g></g><g transform="translate(11.437 45.166)"><path d="M381.464,157.847c-.037.18-1.1,5.129-3.664,7.022l-.018-.012-.789-3.105A10.922,10.922,0,0,0,381.464,157.847Z" transform="translate(-376.993 -157.847)"/></g><g transform="translate(0 32.391)"><path class="b" d="M382.519,154.542s-7.56-6.838-10.686.331c-2.578,5.906,6.918,18.095,13.135,12.043Z" transform="translate(-371.399 -151.598)"/></g><g transform="translate(3.443 36.693)"><path d="M381.915,162.466a.63.63,0,0,1-.72-.427,10.462,10.462,0,0,0-7.6-7.094.626.626,0,0,1,.231-1.231,11.719,11.719,0,0,1,8.568,7.949.625.625,0,0,1-.409.785C381.96,162.455,381.938,162.459,381.915,162.466Z" transform="translate(-373.083 -153.703)"/></g><g transform="translate(5.055 39.534)"><path d="M374.621,158.424a.627.627,0,0,1-.605-1.014c.206-.249,2.065-2.421,4-2.314a.627.627,0,1,1-.07,1.251c-1.114-.061-2.555,1.36-2.97,1.862A.631.631,0,0,1,374.621,158.424Z" transform="translate(-373.871 -155.092)"/></g></g><g transform="translate(6.557 16.662)"><path class="l" d="M410.934,139.2a2.75,2.75,0,0,1-.413,1.472c-2.394,3.764-9.748,4.052-16.764,3.318a11.84,11.84,0,0,0-10.708,4.984c3.089,5.965-3.036,7.709-.761,12.242s3.022,10.968,3.022,10.968l-3.982.256a9.651,9.651,0,0,0-4.776-3.729l-2.194-8.617s-5.074-15.288,9.261-21.1C394.093,134.748,404.66,134.535,410.934,139.2Z" transform="translate(-373.487 -135.755)"/></g></g></g><g transform="translate(0 95.293)"><g transform="translate(0 6.618)"><path class="b" d="M462.547,318.788a11.981,11.981,0,0,1-12.375,10.518l-3.208-.135-3.122-.166q-3.116-.175-6.215-.393c-4.138-.29-8.274-.63-12.411-1.043-8.278-.838-16.576-1.9-24.966-3.377-4.2-.744-8.415-1.611-12.689-2.658a123.811,123.811,0,0,1-13.074-3.909c-2.243-.822-4.522-1.75-6.879-2.889a48.872,48.872,0,0,1-7.372-4.334,35.1,35.1,0,0,1-3.962-3.308,29.314,29.314,0,0,1-2.028-2.173c-.3-.35-.744-.926-1.12-1.441-.358-.509-.728-1.041-1.028-1.55a28.684,28.684,0,0,1-2.711-5.816,37.127,37.127,0,0,1-1.31-5.056,52.463,52.463,0,0,1-.834-8.576c-.051-2.633.037-5.111.209-7.507a134.918,134.918,0,0,1,1.75-13.63c1.539-8.719,3.6-16.989,5.874-25.121s4.792-16.091,7.48-23.972q2.018-5.909,4.164-11.763c.716-1.956,1.441-3.9,2.185-5.857l1.124-2.94.578-1.478.62-1.552a17.77,17.77,0,0,1,33.025,13.131c-.092.229-.186.45-.282.671l-.1.225-1.145,2.545-1.171,2.658q-1.165,2.677-2.3,5.379-2.279,5.4-4.438,10.852c-2.885,7.26-5.624,14.556-8.092,21.846-1.233,3.643-2.4,7.29-3.469,10.913s-2.061,7.227-2.895,10.768-1.517,7.024-1.938,10.273c-.217,1.621-.354,3.171-.413,4.573-.041.971-.037,1.873,0,2.613.012.321.033.611.061.863s.051.47.072.621c.006.055.012.1.016.141a19.063,19.063,0,0,0,2.868,1.948,45.113,45.113,0,0,0,4.152,2.077,95.884,95.884,0,0,0,9.895,3.659c3.5,1.1,7.135,2.091,10.829,3.015,7.395,1.844,15.036,3.371,22.74,4.69q5.784,1,11.614,1.852,2.913.417,5.826.805l2.905.37,2.819.333.294.035A11.942,11.942,0,0,1,462.547,318.788Z" transform="translate(-347.228 -177.454)"/></g><g transform="translate(18.186 112.932)"><g transform="translate(0 1.341)"><path class="i" d="M368.716,230.113c.012.321.033.611.061.863s.051.47.072.621c-2.69.74-7.987,2.521-11.5,5.741a.743.743,0,0,1-.276.16.732.732,0,0,1-.715-1.237,27.04,27.04,0,0,1,8.817-5.031c.879-.325,1.7-.587,2.412-.8Q368.215,230.244,368.716,230.113Z" transform="translate(-356.124 -230.113)"/></g><g transform="translate(2.801)"><path class="i" d="M366.353,232.587a.708.708,0,0,1-.48-.016,39.2,39.2,0,0,0-7.728-1.654.732.732,0,0,1,.161-1.456,39.995,39.995,0,0,1,8.094,1.746.73.73,0,0,1-.047,1.38Z" transform="translate(-357.494 -229.457)"/></g></g><g transform="translate(96.846 133.884)"><path class="b" d="M397.135,247.863c1.024-1.711,3.324-3.424,5.626-4.7a30.967,30.967,0,0,1,11.205-3.394c4.647-.209,18.36-.072,21.092,2.66s-9.11,3.533-11.534,3.743a9.256,9.256,0,0,0-3.991,1.253s27.3.27,29.228,2.68-13.63,3.813-17.475,4.134c0,0,20.562,1.345,21.3,3.259,1.48,3.841-21.394,3.007-21.394,3.007s17.24,2.014,16.827,4.837c-.435,2.991-18.9.785-18.9.785s11.048,2.954,11.8,5.553-22.92-1.815-26.479-2.932-13.395-3.336-17.731-5.559C393.768,261.681,393.893,253.277,397.135,247.863Z" transform="translate(-394.6 -239.706)"/></g><g transform="translate(96.249 133.998)"><g transform="translate(1.27)"><path class="n" d="M404.546,241.153s1.071,13.654-3.733,23.525a7.8,7.8,0,0,1-5.884-.642,51.376,51.376,0,0,0,3.854-24.134A7.293,7.293,0,0,1,404.546,241.153Z" transform="translate(-394.929 -239.761)"/></g><g transform="translate(0 5.11)"><path class="n" d="M394.4,248.57a7.5,7.5,0,1,0,8.6-6.213A7.5,7.5,0,0,0,394.4,248.57Z" transform="translate(-394.308 -242.261)"/></g><g transform="translate(2.103 7.212)"><path class="e" d="M399.876,254.016a5.4,5.4,0,1,0-4.471-6.186A5.4,5.4,0,0,0,399.876,254.016Z" transform="translate(-395.336 -243.289)"/></g></g><g transform="translate(6.054)"><path class="j" d="M388.865,174.217s-15.184-.337-22.627,11.706S350.189,226.2,350.189,226.2s30.189,14.754,46.281,12.522c0,0,9.23-30.167,10-41.938C407.746,177.163,388.865,174.217,388.865,174.217Z" transform="translate(-350.189 -174.217)"/></g><g transform="translate(43.271 35.537)"><path class="a" d="M379.1,192.377c-.08.419-.726,3.76-1.725,8.464q-.221,1.036-.464,2.155c-1.983,9.089-5.021,21.809-7.94,29.141-.186-.673-.36-1.349-.54-2.024-.016-.051-.027-.1-.041-.153,2.674-7.39,5.418-18.98,7.26-27.38a.631.631,0,0,1,.02-.094c1.286-5.916,2.124-10.234,2.143-10.351a.655.655,0,0,1,1.288.243Z" transform="translate(-368.394 -191.599)"/><g transform="translate(7.258 4.518)"><path class="a" d="M372.786,200.976a.667.667,0,0,0,.249-.137l6.7-5.88a.657.657,0,0,0-.867-.987l-6.7,5.88a.657.657,0,0,0,.617,1.124Z" transform="translate(-371.944 -193.809)"/></g></g></g></g></g></svg>