<svg xmlns="http://www.w3.org/2000/svg" xmlns:xlink="http://www.w3.org/1999/xlink" width="84" height="84" viewBox="0 0 84 84"><defs><style>.a{fill:#fff;}.b{fill:url(#a);}</style><linearGradient id="a" x1="0.5" y1="1" x2="0.5" gradientUnits="objectBoundingBox"><stop offset="0" stop-color="#0077ec"/><stop offset="1" stop-color="#03e6b0"/></linearGradient></defs><g transform="translate(-197 -3561)"><rect class="a" width="84" height="84" rx="6" transform="translate(197 3561)"/><path class="b" d="M54,53a3,3,0,1,0,3,3A3,3,0,0,0,54,53Zm0,4a1,1,0,1,1,1-1A1,1,0,0,1,54,57ZM22,59a3,3,0,1,0-3-3A3,3,0,0,0,22,59Zm0-4a1,1,0,1,1-1,1A1,1,0,0,1,22,55ZM55,19h1.618l2.5-5-6.5-13H23.382l-6.5,13,2.5,5H21V31H15V17a4,4,0,0,0-4-4H5a4,4,0,0,0,0,8h8V44a7.007,7.007,0,0,0,4.6,6.566A7,7,0,1,0,26.889,51H49.11a7,7,0,1,0,9.294-.434A7.007,7.007,0,0,0,63,44V31H55ZM13,19H5a2,2,0,0,1,0-4h6a2,2,0,0,1,2,2Zm37.618-2-1-2h6.764l-1,2ZM39,13V3h4.28l3.333,10Zm7.382,2-1,2H40.618l-1-2ZM37,13H29.388L32.72,3H37Zm-.618,2-1,2H30.618l-1-2ZM27,18.236l1-2L29.382,19h7.236L38,16.236,39.382,19h7.236L48,16.236l1,2V45H27ZM56.382,13H48.721L45.387,3h5.995ZM24.618,3h5.995L27.279,13H19.618Zm-5,12h6.764l-1,2H20.618ZM25,19V47H51V19h2V49H23V19ZM15,44V33h6V49H20A5.006,5.006,0,0,1,15,44ZM27,56a5,5,0,1,1-5-5A5.006,5.006,0,0,1,27,56Zm32,0a5,5,0,1,1-5-5A5.006,5.006,0,0,1,59,56Zm2-23V44a5.006,5.006,0,0,1-5,5H55V33ZM35,29a2,2,0,0,0,2,2h2a4,4,0,0,1,0,8v2H37V39a4,4,0,0,1-4-4h2a2,2,0,0,0,2,2h2a2,2,0,0,0,0-4H37a4,4,0,0,1,0-8V23h2v2a4,4,0,0,1,4,4H41a2,2,0,0,0-2-2H37A2,2,0,0,0,35,29Z" transform="translate(202 3572)"/></g></svg>