<svg xmlns="http://www.w3.org/2000/svg" xmlns:xlink="http://www.w3.org/1999/xlink" width="84" height="84" viewBox="0 0 84 84"><defs><style>.a{fill:#fff;}.b{fill:url(#a);}</style><linearGradient id="a" x1="0.5" y1="1" x2="0.5" gradientUnits="objectBoundingBox"><stop offset="0" stop-color="#03e6b0"/><stop offset="1" stop-color="#0077ec"/></linearGradient></defs><g transform="translate(-197 -3676)"><rect class="a" width="84" height="84" rx="6" transform="translate(197 3676)"/><path class="b" d="M51,57H48V54h2v1h3a1,1,0,0,0,0-2H51a3,3,0,0,1,0-6V45h2v2h3v3H54V49H51a1,1,0,0,0,0,2h2a3,3,0,0,1,0,6v2H51ZM7,59V39H1.2l6.25-10H11V23h6v6h2V21h6v8h2V19h6V29h2V13h6V29h5.554L52.8,39H47v3.214A11,11,0,1,1,43.521,59ZM52,43a9,9,0,1,0,9,9A9.01,9.01,0,0,0,52,43Zm-7-4H30.382L28,34.236V57H42.214A10.958,10.958,0,0,1,45,43.521Zm.446-8H28.618l3,6H49.2ZM37,29h2V15H37Zm-8-8v8h2V21ZM23.618,39H9V57H26V34.236ZM21,29h2V23H21Zm-8,0h2V25H13ZM4.8,37H22.382l3-6H8.554ZM11,55h2V53H11Zm4,0h2V53H15Zm4,0h2V53H19Zm-8-4H21V49H11Zm7-39.414L5.293,24.293l1.414,1.414L18,14.414l6,6,16-16V11h2V1H32V3h6.586L24,17.586ZM57,23h2V21H57Zm-4,0h2V21H53Zm-4,0h2V21H49Zm14,1a3,3,0,0,1-3,3h-.382l-1.382,2.764a2.236,2.236,0,0,1-4.236-1V27H48a3,3,0,0,1-3-3V16a3,3,0,0,1,3-3H60a3,3,0,0,1,3,3Zm-2-8a1,1,0,0,0-1-1H48a1,1,0,0,0-1,1v8a1,1,0,0,0,1,1h8v3.764a.245.245,0,0,0,.448.1L58.382,25H60a1,1,0,0,0,1-1ZM49,19H59V17H49Z" transform="translate(206.804 3686)"/></g></svg>