<svg xmlns="http://www.w3.org/2000/svg" xmlns:xlink="http://www.w3.org/1999/xlink" width="200.532" height="200.532" viewBox="0 0 200.532 200.532"><defs><style>.a{fill:url(#a);}.b{fill:#245097;}.c,.d{fill:#03e6b0;}.d{mix-blend-mode:screen;isolation:isolate;}</style><linearGradient id="a" y1="0.025" x2="0.958" y2="0.971" gradientUnits="objectBoundingBox"><stop offset="0" stop-color="#0077ec"/><stop offset="1" stop-color="#03e6b0"/></linearGradient></defs><g transform="translate(-1015.5 -427.113)"><g transform="translate(1015.5 427.113)"><rect class="a" width="200.532" height="200.532" rx="23" transform="translate(0 0)"/></g><g transform="translate(1043.354 453.013)"><ellipse class="b" cx="72.5" cy="74.5" rx="72.5" ry="74.5" transform="translate(-0.445 -0.133)"/><g transform="translate(1.434 3.591)"><g transform="translate(0 0)"><path class="c" d="M293.848,329.667c1.945-1.086,8.288-5.85,8.288-21.484a54.266,54.266,0,0,1,1.512-12.74,2.849,2.849,0,1,0-5.538-1.345,59.976,59.976,0,0,0-1.671,14.084c0,12.2-4.307,15.794-5.211,16.409-1.345.479-2.651,1-3.92,1.6q.741,2.792,1.709,5.485a42.633,42.633,0,0,1,4.376-1.8A2.723,2.723,0,0,0,293.848,329.667Z" transform="translate(-284.914 -236.963)"/><path class="d" d="M290.107,330.474c-.365-1.079-.705-2.179-1.016-3.288.919-.4,1.892-.784,2.947-1.159a1.163,1.163,0,0,0,.259-.132c1.339-.912,5.71-4.86,5.71-17.351a58.887,58.887,0,0,1,1.639-13.817,1.705,1.705,0,0,1,1.658-1.306,1.736,1.736,0,0,1,.407.049,1.714,1.714,0,0,1,1.258,2.066,55.389,55.389,0,0,0-1.544,13.008c0,15.019-5.9,19.48-7.7,20.489a1.626,1.626,0,0,1-.279.125C292.314,329.551,291.2,329.992,290.107,330.474Z" transform="translate(-285.343 -237.324)"/><path class="c" d="M329.129,322.352a2.849,2.849,0,0,0-5.667-.6c-2.621,24.56-18.688,30.418-19.3,30.638a24.852,24.852,0,0,0-4.049,1.694c1.079,1.6,2.226,3.153,3.441,4.657a19.1,19.1,0,0,1,2.408-.95C306.787,357.5,326.129,350.468,329.129,322.352Z" transform="translate(-287.993 -243.52)"/><path class="d" d="M304.432,357.7q-1.072-1.365-2.094-2.818a24.522,24.522,0,0,1,2.71-1.047c1.816-.658,17.457-7.012,20.082-31.6a1.7,1.7,0,0,1,1.687-1.529,1.781,1.781,0,0,1,.191.011,1.7,1.7,0,0,1,1.523,1.876c-2.917,27.324-21.613,34.205-22.408,34.485C305.562,357.255,304.993,357.465,304.432,357.7Z" transform="translate(-288.526 -243.881)"/><path class="c" d="M334.442,359.262a2.85,2.85,0,0,0-4.763-3.13c-7.893,11.988-18.407,15.52-18.825,15.657-.251.076-.494.167-.737.258,1.444,1.512,2.97,2.97,4.558,4.361A46.714,46.714,0,0,0,334.442,359.262Z" transform="translate(-290.396 -252.086)"/><path class="d" d="M315.526,375.427c-.931-.832-1.838-1.687-2.711-2.555a41.924,41.924,0,0,0,18.464-15.753,1.71,1.71,0,0,1,1.433-.77A1.707,1.707,0,0,1,334.139,359,45.572,45.572,0,0,1,315.526,375.427Z" transform="translate(-291.044 -252.446)"/><path class="c" d="M299.759,330.9c2.636-1.064,15.794-7.62,15.794-32.241a42.562,42.562,0,0,1,30.038-40.81,2.849,2.849,0,0,0-1.694-5.439,48.235,48.235,0,0,0-34.041,46.25c0,21.035-10.6,26.277-12.155,26.931a35.537,35.537,0,0,0-5.143,2.173q1.174,2.6,2.575,5.075a30.424,30.424,0,0,1,4.452-1.869A1.675,1.675,0,0,0,299.759,330.9Z" transform="translate(-286.176 -227.436)"/><path class="d" d="M296.076,331.692c-.54-.994-1.057-2.014-1.547-3.046a34.957,34.957,0,0,1,4.007-1.617l.079-.03c2.146-.9,12.854-6.477,12.854-27.982a47.1,47.1,0,0,1,33.241-45.162,1.675,1.675,0,0,1,.508-.079,1.711,1.711,0,0,1,.507,3.343,43.694,43.694,0,0,0-30.837,41.9c0,23.888-12.563,30.169-15.081,31.185a.9.9,0,0,0-.083.037l-.068.021A31.016,31.016,0,0,0,296.076,331.692Z" transform="translate(-286.65 -227.796)"/><path class="c" d="M355.116,343.944a77.374,77.374,0,0,0,3.259-13.667,2.848,2.848,0,1,0-5.637-.82,71.729,71.729,0,0,1-3.016,12.649C343.2,361.219,330.115,370.229,323,373.868c1.732,1.253,3.533,2.423,5.379,3.51A61,61,0,0,0,355.116,343.944Z" transform="translate(-293.491 -245.398)"/><path class="d" d="M329.06,376.411c-1.1-.66-2.171-1.346-3.207-2.052,7.55-4.228,19.472-13.453,25.636-31.525a72.95,72.95,0,0,0,3.065-12.851,1.719,1.719,0,0,1,1.687-1.465,1.6,1.6,0,0,1,.248.019,1.708,1.708,0,0,1,1.447,1.936,76.335,76.335,0,0,1-3.21,13.465A59.667,59.667,0,0,1,329.06,376.411Z" transform="translate(-294.177 -245.758)"/><path class="c" d="M374.258,312.427a2.849,2.849,0,1,0-5.7,0c0,23.687-7.3,42.687-21.681,56.482a65.164,65.164,0,0,1-9.192,7.346c2.028.965,4.11,1.823,6.245,2.59a71.89,71.89,0,0,0,6.67-5.622C361.4,362.968,374.258,344.09,374.258,312.427Z" transform="translate(-297.021 -241.207)"/><path class="d" d="M344.472,377.925c-1.279-.473-2.531-.976-3.743-1.506a66.629,66.629,0,0,0,7.67-6.325c14.619-14.025,22.032-33.305,22.032-57.306a1.709,1.709,0,0,1,3.419,0c0,31.27-12.672,49.872-23.3,59.971A70.453,70.453,0,0,1,344.472,377.925Z" transform="translate(-297.752 -241.567)"/><path class="c" d="M379.985,363.641a2.854,2.854,0,0,0-3.76,1.451,77.981,77.981,0,0,1-17.617,25.2c-1.322,1.261-2.644,2.423-3.95,3.51a69.1,69.1,0,0,0,7.042,1.4c.281-.258.555-.517.836-.782a83.571,83.571,0,0,0,18.9-27.022A2.843,2.843,0,0,0,379.985,363.641Z" transform="translate(-301.099 -254.14)"/><path class="d" d="M362.1,394.35c-1.425-.219-2.837-.481-4.219-.782.791-.694,1.548-1.388,2.288-2.091a79.136,79.136,0,0,0,17.873-25.564,1.718,1.718,0,0,1,1.568-1.017,1.706,1.706,0,0,1,1.559,2.4,82.453,82.453,0,0,1-18.644,26.659Z" transform="translate(-301.874 -254.501)"/><path class="c" d="M379.875,286.84a2.851,2.851,0,1,0,2.226-5.249,25.652,25.652,0,0,0-35.614,23.626,69.316,69.316,0,0,1-2.545,19.273,2.858,2.858,0,0,0,1.945,3.532,2.846,2.846,0,0,0,3.533-1.945,75.19,75.19,0,0,0,2.765-20.861,19.959,19.959,0,0,1,19.942-19.942A19.756,19.756,0,0,1,379.875,286.84Z" transform="translate(-298.498 -233.997)"/><path class="d" d="M347.045,327.358a1.759,1.759,0,0,1-.486-.07,1.72,1.72,0,0,1-1.161-2.123,70.413,70.413,0,0,0,2.589-19.587A24.513,24.513,0,0,1,382.018,283a1.724,1.724,0,0,1,.9,2.248,1.706,1.706,0,0,1-1.573,1.039h0a1.717,1.717,0,0,1-.669-.136,20.851,20.851,0,0,0-8.193-1.656,21.105,21.105,0,0,0-21.081,21.081,74.046,74.046,0,0,1-2.72,20.544A1.723,1.723,0,0,1,347.045,327.358Z" transform="translate(-298.858 -234.358)"/><path class="c" d="M385.274,337.606a2.631,2.631,0,0,0,.684.084,2.845,2.845,0,0,0,2.765-2.165,111.964,111.964,0,0,0,3.092-26.7,14.244,14.244,0,0,0-28.488,0,2.849,2.849,0,1,0,5.7,0,8.546,8.546,0,1,1,17.093,0,106.418,106.418,0,0,1-2.925,25.335A2.841,2.841,0,0,0,385.274,337.606Z" transform="translate(-303.183 -237.602)"/><path class="d" d="M386.318,336.911a1.52,1.52,0,0,1-.39-.045,1.7,1.7,0,0,1-1.27-2.074,107.533,107.533,0,0,0,2.958-25.61,9.686,9.686,0,0,0-19.372,0,1.709,1.709,0,1,1-3.418,0,13.1,13.1,0,0,1,26.209,0,110.812,110.812,0,0,1-3.059,26.431A1.7,1.7,0,0,1,386.318,336.911Z" transform="translate(-303.544 -237.962)"/><path class="c" d="M402.066,297.878a2.849,2.849,0,0,0-5.105,2.53,19.7,19.7,0,0,1,2.059,8.827c0,35.173-13.7,57.455-26.262,70.491,1.193.061,2.385.091,3.593.091,1.39,0,2.773-.038,4.14-.122,12.2-14.2,24.226-36.753,24.226-70.461A25.45,25.45,0,0,0,402.066,297.878Z" transform="translate(-305.449 -238.015)"/><path class="d" d="M377.157,379.038q-.521,0-1.044-.008c11.728-12.893,24.852-35.016,24.852-69.434a20.833,20.833,0,0,0-2.177-9.333,1.709,1.709,0,0,1,3.064-1.516,24.31,24.31,0,0,1,2.532,10.849c0,34.254-12.777,56.573-23.637,69.351C379.6,379.007,378.391,379.038,377.157,379.038Z" transform="translate(-306.256 -238.376)"/><path class="c" d="M411.219,365.806a2.859,2.859,0,0,0-3.639,1.732,102.126,102.126,0,0,1-15.133,28.032A67.789,67.789,0,0,0,400.8,393.7a108.529,108.529,0,0,0,12.155-24.257A2.85,2.85,0,0,0,411.219,365.806Z" transform="translate(-310.181 -254.68)"/><path class="d" d="M395.912,394.3a103.941,103.941,0,0,0,13.574-26.017,1.726,1.726,0,0,1,1.619-1.139,1.691,1.691,0,0,1,.565.1,1.718,1.718,0,0,1,1.04,2.185,107.813,107.813,0,0,1-11.8,23.657C399.257,393.552,397.585,393.959,395.912,394.3Z" transform="translate(-311.014 -255.04)"/><path class="c" d="M401.259,322.283a2.916,2.916,0,0,0,.365.023,2.856,2.856,0,0,0,2.826-2.484,143.77,143.77,0,0,0,1.14-18.209,37.037,37.037,0,0,0-73.408-6.989,2.847,2.847,0,0,0,5.591,1.079,31.341,31.341,0,0,1,62.119,5.91,137.9,137.9,0,0,1-1.094,17.48A2.844,2.844,0,0,0,401.259,322.283Z" transform="translate(-295.686 -230.392)"/><path class="d" d="M401.984,321.527a1.91,1.91,0,0,1-.22-.013,1.706,1.706,0,0,1-1.477-1.912,138.952,138.952,0,0,0,1.1-17.629,32.48,32.48,0,0,0-64.378-6.125,1.708,1.708,0,0,1-1.674,1.383,1.782,1.782,0,0,1-.328-.031,1.711,1.711,0,0,1-1.351-2,35.9,35.9,0,0,1,71.15,6.774,142.7,142.7,0,0,1-1.13,18.065A1.718,1.718,0,0,1,401.984,321.527Z" transform="translate(-296.046 -230.753)"/><path class="c" d="M417.042,266.539a48.461,48.461,0,0,0-29.164-16.212,2.848,2.848,0,1,0-.873,5.629,43.028,43.028,0,0,1,36.13,42.223c0,27.8-7.225,49.136-16.576,65.112a69.791,69.791,0,0,0,8.9-4.5c7.787-15.733,13.37-35.7,13.37-60.615A48.4,48.4,0,0,0,417.042,266.539Z" transform="translate(-308.293 -226.959)"/><path class="d" d="M409.616,361.195c9.968-18.276,15.018-39.336,15.018-62.655a44.178,44.178,0,0,0-37.095-43.35,1.709,1.709,0,0,1,.254-3.4,1.8,1.8,0,0,1,.269.021,47.358,47.358,0,0,1,39.991,46.726c0,21.993-4.408,42.114-13.1,59.809C413.225,359.37,411.44,360.322,409.616,361.195Z" transform="translate(-308.654 -227.32)"/><path class="c" d="M408.024,265.224a2.862,2.862,0,0,0,2.4,1.307,2.8,2.8,0,0,0,1.542-.456,2.844,2.844,0,0,0,.851-3.935,59.789,59.789,0,0,0-99.207-2.249,2.85,2.85,0,1,0,4.649,3.3,54.086,54.086,0,0,1,89.764,2.036Z" transform="translate(-291.109 -223.183)"/><path class="d" d="M410.785,265.752a1.716,1.716,0,0,1-1.444-.788,55.225,55.225,0,0,0-91.65-2.075,1.716,1.716,0,0,1-1.4.721,1.688,1.688,0,0,1-.986-.315,1.713,1.713,0,0,1-.406-2.385,58.65,58.65,0,0,1,97.32,2.205,1.716,1.716,0,0,1,.232,1.3,1.716,1.716,0,0,1-1.667,1.336Z" transform="translate(-291.47 -223.543)"/><path class="c" d="M356.585,219.6q-.763-.023-1.527-.023h-.152a70.93,70.93,0,0,0-69.671,83.254c.213-.091.425-.182.638-.266a2.834,2.834,0,0,0,1.466-1.322c.858-1.633,1.884-4.771,1.884-10.446a65.523,65.523,0,1,1,131.045,0,166.028,166.028,0,0,1-3.525,34.672,70.63,70.63,0,0,0,9.222-34.831v-.16A70.892,70.892,0,0,0,356.585,219.6Z" transform="translate(-284.157 -219.578)"/><path class="d" d="M419.723,317.936a172.215,172.215,0,0,0,2.046-26.777,66.662,66.662,0,0,0-133.324,0c0,5.439-.953,8.394-1.753,9.915a1.7,1.7,0,0,1-.235.343,69.8,69.8,0,0,1,68.812-80.339h.15c.5,0,1,.008,1.493.022a69.754,69.754,0,0,1,68.276,69.74V291A69.975,69.975,0,0,1,419.723,317.936Z" transform="translate(-284.518 -219.938)"/><path class="c" d="M448.92,309.578a2.85,2.85,0,0,0-2.849,2.849c0,21.841-4.133,40.051-10.294,55.062a71.211,71.211,0,0,0,9.261-8.9,153.956,153.956,0,0,0,6.731-46.166A2.85,2.85,0,0,0,448.92,309.578Z" transform="translate(-320.594 -241.207)"/><path class="d" d="M439.344,364.034a147.232,147.232,0,0,0,8.723-51.247,1.709,1.709,0,0,1,3.419,0,153.728,153.728,0,0,1-6.608,45.6A70.242,70.242,0,0,1,439.344,364.034Z" transform="translate(-321.451 -241.567)"/></g></g></g></g></svg>