<svg xmlns="http://www.w3.org/2000/svg" xmlns:xlink="http://www.w3.org/1999/xlink" width="84" height="84" viewBox="0 0 84 84"><defs><style>.a{fill:#fff;}.b{fill:url(#a);}</style><linearGradient id="a" x1="0.5" y1="1" x2="0.5" gradientUnits="objectBoundingBox"><stop offset="0" stop-color="#03e6b0"/><stop offset="1" stop-color="#0077ec"/></linearGradient></defs><g transform="translate(-197 -3446)"><rect class="a" width="84" height="84" rx="6" transform="translate(197 3446)"/><path class="b" d="M40.576,33.363l.848,1.811q-1.014.474-2.05.893l-.748-1.855q.986-.4,1.95-.849Zm-11.7,3.353.24,1.986a40.639,40.639,0,0,0,8.2-1.874l-.645-1.893a38.52,38.52,0,0,1-7.8,1.781ZM63,10V44a5.006,5.006,0,0,1-5,5H49v4H43.741l-.227-.126c-.825-.458-1.671-.992-2.488-1.508a30.772,30.772,0,0,0-4.2-2.361A3.006,3.006,0,0,1,35.6,50.528,2.961,2.961,0,0,1,36,52a2.994,2.994,0,0,1-1.4,2.529,2.955,2.955,0,0,1-1,4A2.967,2.967,0,0,1,34,60a3,3,0,0,1-3,3H16.485a6.955,6.955,0,0,1-4.95-2.051L10.586,60H9v3H1V41H9v3h1.667L11,43.75V6a5.006,5.006,0,0,1,5-5h9.343a4.969,4.969,0,0,1,3.536,1.465L31.414,5H58A5.006,5.006,0,0,1,63,10ZM13,6V9H60.816A3,3,0,0,0,58,7H30.586L27.465,3.879A2.984,2.984,0,0,0,25.343,3H16A3,3,0,0,0,13,6ZM7,43H3V61H7ZM32,60a1,1,0,0,0-1-1H26V57h6a1,1,0,0,0,0-2H26V53h7a1,1,0,0,0,0-2H26V49h8a1,1,0,0,0,0-2H24a7,7,0,0,1-6.315-4H17a5.023,5.023,0,0,0-3,1l-2.668,2H9V58h2.414l1.535,1.535A4.969,4.969,0,0,0,16.485,61H31A1,1,0,0,0,32,60ZM25,45V34.97c-.273.007-.543.03-.816.03H24a5,5,0,0,0,0,10Zm17.1,4.675c.309.195.608.382.9.567V29.786a36.557,36.557,0,0,1-16,5.1V45h7a3.006,3.006,0,0,1,2.766,1.837,26.962,26.962,0,0,1,5.329,2.838Zm.45-21.954c.3-.187.606-.357.9-.554L43.7,27H45V17.382L56.236,23l-8,4H49v4a8.007,8.007,0,1,0-6.455-3.279ZM51.764,23,47,20.618v4.764ZM47,29H45V51h2ZM61,44V11H13V42.275A7.021,7.021,0,0,1,17,41h.08A6.948,6.948,0,0,1,24,33h.184a34.592,34.592,0,0,0,16.637-4.26A9.994,9.994,0,1,1,49,33V47h9A3,3,0,0,0,61,44ZM21,5H19V7h2ZM17,5H15V7h2Zm8,0H23V7h2ZM51,45h8V43H51Zm0-4h8V39H51Zm0-4h8V35H51ZM15,13H37V25H15Zm2,10H35V15H17Zm-2,6h2V27H15Zm4,0H37V27H19Z" transform="translate(207 3456)"/></g></svg>