<svg xmlns="http://www.w3.org/2000/svg" xmlns:xlink="http://www.w3.org/1999/xlink" width="84" height="84" viewBox="0 0 84 84"><defs><style>.a{fill:#fff;}.b{fill:url(#a);}</style><linearGradient id="a" x1="0.5" y1="1" x2="0.5" gradientUnits="objectBoundingBox"><stop offset="0" stop-color="#0077ec"/><stop offset="1" stop-color="#03e6b0"/></linearGradient></defs><g transform="translate(-197 -3216)"><rect class="a" width="84" height="84" rx="6" transform="translate(197 3216)"/><path class="b" d="M5.039,61.268l-2-7,1.923-.55,1.2,4.188.914-2.284a1,1,0,0,1,1.858,0l.914,2.284,1.2-4.188,1.923.55-2,7a1,1,0,0,1-.91.724H10a1,1,0,0,1-.928-.628L8,58.685,6.929,61.364a.98.98,0,0,1-.98.627A1,1,0,0,1,5.039,61.268Zm11.91.723a.974.974,0,0,0,.98-.627L19,58.685l1.071,2.679a1,1,0,0,0,.928.628h.052a1,1,0,0,0,.91-.724l2-7-1.923-.55-1.2,4.188-.914-2.284a1,1,0,0,0-1.858,0l-.914,2.284-1.2-4.188-1.923.55,2,7a1,1,0,0,0,.912.724Zm11,0a.978.978,0,0,0,.98-.627L30,58.685l1.071,2.679a1,1,0,0,0,.928.628h.052a1,1,0,0,0,.91-.724l2-7-1.923-.55-1.2,4.188-.914-2.284a1,1,0,0,0-1.858,0l-.914,2.284-1.2-4.188-1.923.55,2,7a1,1,0,0,0,.912.724Zm-6.9-51.948,1.414,1.414a5.006,5.006,0,0,1,7.071,0l1.414-1.414A7.008,7.008,0,0,0,21.05,10.043ZM62,48.993a12.993,12.993,0,0,1-25.637,3H0v-38H23.184a2.982,2.982,0,0,1,5.632,0H48V36.044c.331-.025.662-.051,1-.051A13.014,13.014,0,0,1,62,48.993Zm-9.991,7H45.991c.789,2.473,1.935,4,3.009,4s2.22-1.527,3.009-4Zm.51-2a24.8,24.8,0,0,0,.46-4H45.021a24.91,24.91,0,0,0,.46,4Zm-13.305,0h4.217a27.288,27.288,0,0,1-.409-4H38.051a10.9,10.9,0,0,0,1.163,4Zm9.786-16c-1.075,0-2.22,1.527-3.009,4h6.018c-.789-2.473-1.934-4-3.009-4Zm-3.519,6a24.8,24.8,0,0,0-.46,4h7.958a24.91,24.91,0,0,0-.46-4Zm-.195-5.341a11.029,11.029,0,0,0-4.764,3.341H43.9A13.82,13.82,0,0,1,45.286,38.652Zm-7.235,9.341h4.971a27.425,27.425,0,0,1,.409-4H39.214a10.893,10.893,0,0,0-1.163,4Zm16.518,6h4.217a10.919,10.919,0,0,0,1.164-4H54.979A27.421,27.421,0,0,1,54.569,53.993Zm5.38-6a10.9,10.9,0,0,0-1.164-4H54.568a27.288,27.288,0,0,1,.409,4Zm-7.235-9.341A13.86,13.86,0,0,1,54.1,41.993h3.374A11.038,11.038,0,0,0,52.714,38.652ZM25,14.993a1,1,0,1,0,1-1A1,1,0,0,0,25,14.993Zm-23,1v6H46v-6H28.816a2.982,2.982,0,0,1-5.632,0Zm34.051,34c-.025-.331-.051-.662-.051-1A13.014,13.014,0,0,1,46,36.356V23.993H2v26Zm9.235,9.341a13.86,13.86,0,0,1-1.391-3.341H40.521A11.046,11.046,0,0,0,45.286,59.334Zm12.193-3.341H54.1a13.86,13.86,0,0,1-1.391,3.341A11.046,11.046,0,0,0,57.479,55.993ZM6,17.993H4v2H6Zm8,0H12v2h2Zm-4,0H8v2h2ZM33.778,7.215a11.013,11.013,0,0,0-15.557,0l1.414,1.414a9.012,9.012,0,0,1,12.729,0ZM35.192,5.8l1.414-1.414a15.016,15.016,0,0,0-21.213,0L16.807,5.8A13.014,13.014,0,0,1,35.192,5.8ZM16,35.993H4v-10H16Zm-2-8H6v6h8Zm4-2H30v10H18Zm2,8h8v-6H20Zm24,2H32v-10H44Zm-2-8H34v6h8Zm-36,10H4v2H6Zm2,2H30v-2H8Zm-4,4H26v-2H4Zm0,4H26v-2H4Z" transform="translate(208 3227)"/></g></svg>