<svg xmlns="http://www.w3.org/2000/svg" xmlns:xlink="http://www.w3.org/1999/xlink" width="470.357" height="558" viewBox="0 0 470.357 558"><defs><style>.a,.f,.i,.l,.n,.q{fill:none;}.b,.h{fill:#ff8775;}.c,.s{fill:#03e6b0;}.d{opacity:0.3;}.e{clip-path:url(#a);}.f{stroke:#2c54ac;stroke-width:0.974px;}.f,.i,.l,.n,.q{stroke-miterlimit:10;}.g{fill:#12263f;}.h{mix-blend-mode:multiply;}.h,.s{isolation:isolate;}.i,.l,.n{stroke:#0a2a6b;}.i{stroke-width:1.509px;}.j{fill:#83534b;}.k{fill:#0a2a6b;}.l{stroke-width:2px;}.m{fill:#ff4648;}.n{stroke-width:1.5px;}.o{fill:#b1ffec;}.p{opacity:0.4;}.q{stroke:#55a3f3;}.r{fill:#245097;}.s{mix-blend-mode:screen;}</style><clipPath id="a"><path class="a" d="M571.706,410.6c-4.143-31.362-71.075-72.8-94.929-89.471l-75.161,75.392-29.36-68.98c-22.58,12.132-58.78,35.075-67.343,61.237-12.67,38.716-8.751,239.984-8.751,239.984H547.77s2.817-60.481,2.817-86.526S576.633,447.909,571.706,410.6Z" transform="translate(-295.589 -321.129)"/></clipPath></defs><g transform="translate(-851.643 -6098)"><g transform="translate(614.839 5922.445)"><g transform="translate(288.289 493.571)"><path class="b" d="M266.889,559h62.792l-2.208-129a204.682,204.682,0,0,0-26.114-11.96Z" transform="translate(-266.889 -319.016)"/><path class="c" d="M286.931,459.487a204.683,204.683,0,0,1,26.114,11.96l-1.9-110.984Z" transform="translate(-252.462 -360.463)"/></g><g transform="translate(337.649 339.186)"><path class="b" d="M444.687,357.433c-4.523-3.161-7.5-5.436-8.207-6.578-4.411-7.17-3.24-80.158-3.24-80.158l-73.832,48.794-.7,35.2s-7.7,3.335-18.538,9.156l29.36,68.98Z" transform="translate(-263.5 -270.697)"/><path class="c" d="M571.706,410.6c-4.143-31.362-71.075-72.8-94.929-89.471l-75.161,75.392-29.36-68.98c-22.58,12.132-58.78,35.075-67.343,61.237-12.67,38.716-8.751,239.984-8.751,239.984H547.77s2.817-60.481,2.817-86.526S576.633,447.909,571.706,410.6Z" transform="translate(-295.589 -234.393)"/></g><g class="d" transform="translate(337.649 425.922)"><g class="e"><g transform="translate(-22.355 -33.655)"><g transform="translate(64.896)"><line class="f" y2="408.664" transform="translate(197.839)"/><line class="f" y2="408.664" transform="translate(148.379)"/><line class="f" y2="408.664" transform="translate(98.919)"/><line class="f" y2="408.664" transform="translate(49.46)"/><line class="f" y2="408.664"/></g><g transform="translate(0 70.439)"><line class="f" x2="301.888"/><line class="f" x2="301.888" transform="translate(0 35.806)"/><line class="f" x2="301.888" transform="translate(0 71.613)"/><line class="f" x2="301.888" transform="translate(0 107.419)"/><line class="f" x2="301.888" transform="translate(0 143.225)"/><line class="f" x2="301.888" transform="translate(0 179.032)"/><line class="f" x2="301.888" transform="translate(0 214.838)"/><line class="f" x2="301.888" transform="translate(0 250.644)"/><line class="f" x2="301.888" transform="translate(0 286.451)"/><line class="f" x2="301.888" transform="translate(0 322.257)"/></g></g></g></g><g transform="translate(373.95 175.555)"><path class="b" d="M446.642,303.3a41.385,41.385,0,0,1-.31-11.934,188.005,188.005,0,0,1,9.191-44.842,26.3,26.3,0,0,1-19.209-8.945c-4.767-5.5-6.119-13.618-5.2-20.836A21.791,21.791,0,0,1,415.2,226.73a11.469,11.469,0,0,1-4.7-.322c-4.145-1.321-6.48-5.975-6.5-10.324s1.651-8.72,3.4-12.7c-10.343,12.209-27.82,15.4-43.822,15.554-9.007.084-18.124-.561-26.7-3.3a47.9,47.9,0,0,1-13.3-6.609c-.915,2.812-1.761,5.72-2.475,8.811-11,47.547,1.309,117.774,7.98,149.26A22.1,22.1,0,0,0,350.1,384.63c11.219.286,25.662-.354,36.274-4.368,24.623-9.313,49.84-25.179,71.194-59.944C452.352,315.578,448.083,310.1,446.642,303.3Z" transform="translate(-316.696 -155.524)"/><path class="g" d="M429.515,178.479c-37.4-7.48-91.125-3.9-108.826,50.576a47.9,47.9,0,0,0,13.3,6.609c8.58,2.741,17.7,3.386,26.7,3.3,16-.15,33.479-3.345,43.822-15.554-1.747,3.983-3.422,8.353-3.4,12.7s2.36,9,6.5,10.324a11.469,11.469,0,0,0,4.7.322,21.791,21.791,0,0,0,15.917-9.982c-.924,7.218.428,15.338,5.2,20.836a26.3,26.3,0,0,0,19.209,8.945,188.005,188.005,0,0,0-9.191,44.842,41.385,41.385,0,0,0,.31,11.934c1.441,6.792,5.71,12.273,10.926,17.013a240.753,240.753,0,0,0,20.048-41.916C499.126,233.146,468.843,186.344,429.515,178.479Z" transform="translate(-313.821 -175.555)"/></g><g transform="translate(504.539 291.784)"><path class="b" d="M430.908,266.755a46.245,46.245,0,0,1-17.5,24.857,19.845,19.845,0,0,1-8.26,3.748c-6.4.9-11.3-4.353-12.285-10.785s1.173-13.669,4.038-20.355c3.7-8.641,9.748-17.85,18.024-20.394C428.274,239.728,434.209,254.7,430.908,266.755Z" transform="translate(-392.626 -243.135)"/><path class="h" d="M396.287,284.786a20.647,20.647,0,0,0,7.915-5.512,4.593,4.593,0,0,0,1.08-1.68,3.254,3.254,0,0,0-1.011-2.994l-4.031-4.848a2.186,2.186,0,0,1-.6-1.127,3.4,3.4,0,0,1,.377-1.586c2.748-6.649,5.9-13.829,11.642-18.016a10.368,10.368,0,0,1,4.989-2.148,6.547,6.547,0,0,1,5.968,3.216,20.88,20.88,0,0,1,2.47,6.991s-.69,13.9-10.856,22.9S396.287,284.786,396.287,284.786Z" transform="translate(-389.991 -240.459)"/><path class="i" d="M425.086,257.082a20.88,20.88,0,0,0-2.47-6.991,6.547,6.547,0,0,0-5.968-3.216,10.368,10.368,0,0,0-4.989,2.148c-5.743,4.186-8.893,11.367-11.642,18.016a3.4,3.4,0,0,0-.377,1.586,2.186,2.186,0,0,0,.6,1.127l4.031,4.848a3.254,3.254,0,0,1,1.011,2.994,4.593,4.593,0,0,1-1.08,1.68,20.647,20.647,0,0,1-7.915,5.512" transform="translate(-389.991 -240.459)"/></g><path class="j" d="M351.309,325.088s19.386-4.8,29.162-11.4C401.828,299.282,412.361,283,412.361,283s-11.482,26.775-27.745,39.11a121.575,121.575,0,0,1-33.6,17.67Z" transform="translate(81.959 77.345)"/><path class="k" d="M334.48,247.991c0,4.3-2.105,7.788-4.7,7.788s-4.7-3.486-4.7-7.788,2.105-7.788,4.7-7.788S334.48,243.689,334.48,247.991Z" transform="translate(63.287 46.537)"/><path class="k" d="M366.485,254.58c0,4.3-2.105,7.788-4.7,7.788s-4.7-3.486-4.7-7.788,2.105-7.788,4.7-7.788S366.485,250.28,366.485,254.58Z" transform="translate(86.326 51.281)"/><path class="l" d="M350.553,243.261a78.581,78.581,0,0,0-17.2,49.379,78.716,78.716,0,0,0,19.613,3.949" transform="translate(69.247 48.739)"/><path class="k" d="M355.228,222.33a41.34,41.34,0,0,0-37.152,23.481,36.675,36.675,0,0,1,35.352-11.327A101.621,101.621,0,0,0,355.228,222.33Z" transform="translate(58.248 33.671)"/><path class="k" d="M387.945,254.01c-3.393-5.727-8.935-9.953-14.966-12.77s-12.579-4.336-19.109-5.633c.934-3.9,1.543-7.619,2.685-11.461C370.344,229.441,383.033,240.079,387.945,254.01Z" transform="translate(84.014 34.979)"/><g transform="translate(399.04 364.251)"><path class="k" d="M342.879,285.693c-5.98-1.061-11.16-.052-11.569,2.255-.337,1.9,2.685,4.1,7.113,5.4a22.068,22.068,0,0,1,12.736-4.5A20.54,20.54,0,0,0,342.879,285.693Z" transform="translate(-331.284 -285.271)"/><path class="m" d="M348.171,287.347a22.068,22.068,0,0,0-12.736,4.5,27.434,27.434,0,0,0,2.975.7c5.98,1.061,11.16.052,11.57-2.255C350.15,289.335,349.457,288.3,348.171,287.347Z" transform="translate(-328.296 -283.776)"/></g><g transform="translate(237.16 420.174)"><path class="b" d="M494.32,472.824,472.777,501.5,337.833,393.968s-36.533-12.417-46.779-21.638-32.782-56.687-42-54.468-15.367,32.954-9.733,53.443,14.344,37.393,23.564,42.515,74.272,18.44,74.272,18.44,69.152,87.591,87.08,106.544S504.142,610,504.142,610L565.1,545.464s-18.44-26.637-37.391-45.588S494.32,472.824,494.32,472.824Z" transform="translate(-237.16 -317.787)"/><path class="l" d="M380.368,459.868s38.186-60.131,51.972-76.424,33-27.571,33-27.571" transform="translate(-134.071 -290.371)"/><line class="l" x1="43.791" y2="51.846" transform="translate(313.38 191.244)"/><path class="l" d="M371.084,422.174c7.92,7.366,17.092,13.241,25.49,20.057S412.8,457.116,416.715,467.2" transform="translate(-140.754 -242.643)"/><path class="n" d="M237.3,336.6a2.7,2.7,0,0,1,3.28-.482A6.553,6.553,0,0,1,243,338.7c2.2,3.6,3.493,7.676,4.908,11.655a178.942,178.942,0,0,0,10.013,22.94,30.4,30.4,0,0,0,5.82,8.429c3.4,3.161,7.946,4.748,12.428,5.949a103.5,103.5,0,0,0,16.127,2.977c-2.991-3.634-8.006-5.039-11.865-7.732a20.849,20.849,0,0,1-8.312-20.662c10.968,1.276,19.658,10.016,29.946,14.024,4.243,1.653,8.809,2.37,13.035,4.068,10.405,4.178,17.752,14.015,21.335,24.637" transform="translate(-237.063 -304.834)"/><path class="n" d="M239.75,323.717c3.271,1.45,4.816,5.137,6.061,8.493q4.45,11.993,8.9,23.987a62.157,62.157,0,0,0,5.345,11.812c2.317,3.658,6.611,10.352,10.634,11.953" transform="translate(-235.296 -313.519)"/><path class="n" d="M244.791,318.732c6.233,7.315,8.58,17.049,12.328,25.9a111.822,111.822,0,0,0,14.753,24.419,57.817,57.817,0,0,0,10.925,11.41" transform="translate(-231.668 -317.107)"/></g><path class="n" d="M298.108,392.729s-2.619,64.321-2.518,104.7,1.257,58.628,1.257,58.628" transform="translate(42.059 156.335)"/><path class="o" d="M458.694,327.686l-9.594-6.557-75.161,75.392L344.578,327.54l-10.542,5.93,35.384,87.283Z" transform="translate(69.737 104.793)"/><g class="p" transform="translate(386.349 176.188)"><path class="q" d="M323.9,214.221a141.317,141.317,0,0,0,62.34-10.952c8.3-3.515,16.419-7.956,22.475-14.629a18.232,18.232,0,0,0-1.434,6.995,7.876,7.876,0,0,0,3.072,6.214c2.738,1.887,6.455,1.216,9.607.158A50.823,50.823,0,0,0,446.235,181.6" transform="translate(-323.905 -171.836)"/><path class="q" d="M402.305,183.416c-3.675,7.466-6.947,15.243-8.23,23.464s-.437,16.991,3.711,24.2c4.785,8.321,13.539,13.809,22.773,16.428a25.642,25.642,0,0,0,9.623,1.142" transform="translate(-273.789 -170.529)"/><path class="q" d="M406.164,190.081a27.473,27.473,0,0,0-.4,22.047,22.875,22.875,0,0,0,17.13,13.406" transform="translate(-266.504 -165.731)"/><path class="q" d="M394.055,175.923c-14.065,15.585-37.956,21.405-57.614,14.036" transform="translate(-314.881 -175.923)"/></g></g><g transform="translate(12299.616 17906.512)"><ellipse class="r" cx="83" cy="84.5" rx="83" ry="84.5" transform="translate(-11143.616 -11595.512)"/><g transform="translate(-11141.506 -11591.554)"><g transform="translate(0 0)"><path class="c" d="M294.75,334.875c2.213-1.236,9.432-6.657,9.432-24.448a61.753,61.753,0,0,1,1.72-14.5,3.243,3.243,0,1,0-6.3-1.53,68.249,68.249,0,0,0-1.9,16.028c0,13.884-4.9,17.973-5.93,18.673-1.53.545-3.017,1.141-4.461,1.815q.843,3.177,1.945,6.242a48.507,48.507,0,0,1,4.979-2.049A3.093,3.093,0,0,0,294.75,334.875Z" transform="translate(-284.584 -229.381)"/><path class="s" d="M290.248,335.587c-.416-1.228-.8-2.479-1.157-3.742,1.046-.456,2.153-.892,3.353-1.319a1.324,1.324,0,0,0,.295-.15c1.524-1.037,6.5-5.53,6.5-19.745a67.011,67.011,0,0,1,1.866-15.724,1.94,1.94,0,0,1,1.886-1.486,1.975,1.975,0,0,1,.464.056,1.95,1.95,0,0,1,1.431,2.351,63.031,63.031,0,0,0-1.757,14.8c0,17.091-6.71,22.167-8.767,23.316a1.851,1.851,0,0,1-.317.143C292.759,334.536,291.487,335.038,290.248,335.587Z" transform="translate(-284.826 -229.584)"/><path class="c" d="M333.132,322.787a3.243,3.243,0,0,0-6.449-.683c-2.982,27.949-21.267,34.614-21.958,34.865a28.278,28.278,0,0,0-4.608,1.928c1.228,1.815,2.533,3.588,3.916,5.3a21.739,21.739,0,0,1,2.74-1.081C307.707,362.787,329.717,354.782,333.132,322.787Z" transform="translate(-286.32 -233.078)"/><path class="s" d="M304.721,362.805q-1.22-1.553-2.383-3.206a27.9,27.9,0,0,1,3.084-1.191c2.066-.749,19.865-7.979,22.852-35.962a1.934,1.934,0,0,1,1.919-1.74,2.026,2.026,0,0,1,.217.012,1.933,1.933,0,0,1,1.733,2.135c-3.319,31.094-24.595,38.925-25.5,39.243C306.007,362.3,305.359,362.537,304.721,362.805Z" transform="translate(-286.621 -233.281)"/><path class="c" d="M337.8,359.871a3.243,3.243,0,0,0-5.42-3.562c-8.982,13.642-20.947,17.662-21.422,17.817-.285.086-.562.19-.839.294,1.643,1.72,3.38,3.38,5.187,4.962A53.158,53.158,0,0,0,337.8,359.871Z" transform="translate(-287.675 -237.908)"/><path class="s" d="M315.9,378.059c-1.06-.947-2.091-1.92-3.085-2.907a47.709,47.709,0,0,0,21.012-17.926,1.945,1.945,0,0,1,1.63-.877,1.943,1.943,0,0,1,1.623,3.012A51.86,51.86,0,0,1,315.9,378.059Z" transform="translate(-288.04 -238.111)"/><path class="c" d="M300.752,341.745c3-1.21,17.973-8.671,17.973-36.689a48.434,48.434,0,0,1,34.182-46.441,3.242,3.242,0,0,0-1.928-6.19,54.89,54.89,0,0,0-38.738,52.631c0,23.938-12.06,29.9-13.832,30.646a40.439,40.439,0,0,0-5.853,2.473q1.336,2.956,2.931,5.775a34.622,34.622,0,0,1,5.066-2.127A1.908,1.908,0,0,0,300.752,341.745Z" transform="translate(-285.295 -224.009)"/><path class="s" d="M296.289,342.442c-.615-1.132-1.2-2.292-1.76-3.467a39.779,39.779,0,0,1,4.559-1.84c.03-.01.06-.022.09-.034,2.442-1.024,14.627-7.371,14.627-31.843a53.6,53.6,0,0,1,37.827-51.393,1.906,1.906,0,0,1,.578-.09,1.947,1.947,0,0,1,.577,3.8A49.723,49.723,0,0,0,317.7,305.258c0,27.184-14.3,34.331-17.162,35.488a1.015,1.015,0,0,0-.094.043l-.077.024A35.293,35.293,0,0,0,296.289,342.442Z" transform="translate(-285.562 -224.212)"/><path class="c" d="M359.548,346.279a88.053,88.053,0,0,0,3.709-15.553,3.241,3.241,0,1,0-6.414-.934,81.624,81.624,0,0,1-3.432,14.394c-7.418,21.751-22.313,32-30.413,36.145,1.971,1.426,4.02,2.758,6.121,3.994A69.417,69.417,0,0,0,359.548,346.279Z" transform="translate(-289.42 -234.137)"/><path class="s" d="M329.5,383.019c-1.249-.751-2.471-1.532-3.65-2.335,8.591-4.812,22.159-15.309,29.172-35.874a83.011,83.011,0,0,0,3.487-14.624,1.956,1.956,0,0,1,1.92-1.668,1.82,1.82,0,0,1,.282.022,1.943,1.943,0,0,1,1.647,2.2,86.87,86.87,0,0,1-3.653,15.322C351.917,366.005,339.215,377.129,329.5,383.019Z" transform="translate(-289.807 -234.34)"/><path class="c" d="M379.3,312.82a3.242,3.242,0,1,0-6.484,0c0,26.955-8.308,48.576-24.673,64.275a74.153,74.153,0,0,1-10.46,8.36c2.308,1.1,4.677,2.075,7.106,2.948a81.81,81.81,0,0,0,7.59-6.4C364.668,370.335,379.3,348.852,379.3,312.82Z" transform="translate(-291.411 -231.773)"/><path class="s" d="M344.988,387.148c-1.455-.538-2.88-1.111-4.259-1.714a75.823,75.823,0,0,0,8.728-7.2c16.636-15.96,25.072-37.9,25.072-65.212a1.945,1.945,0,0,1,3.89,0c0,35.585-14.42,56.753-26.518,68.245A80.162,80.162,0,0,1,344.988,387.148Z" transform="translate(-291.823 -231.977)"/><path class="c" d="M383.479,363.674a3.248,3.248,0,0,0-4.279,1.651A88.741,88.741,0,0,1,359.152,394c-1.5,1.435-3.008,2.758-4.5,3.994a78.636,78.636,0,0,0,8.014,1.591c.32-.294.631-.588.951-.89a95.1,95.1,0,0,0,21.509-30.75A3.235,3.235,0,0,0,383.479,363.674Z" transform="translate(-293.71 -239.066)"/><path class="s" d="M362.682,398.414c-1.622-.249-3.228-.547-4.8-.89.9-.79,1.762-1.58,2.6-2.38a90.054,90.054,0,0,0,20.339-29.091,1.955,1.955,0,0,1,1.784-1.157,1.942,1.942,0,0,1,1.775,2.726,93.828,93.828,0,0,1-21.216,30.337Z" transform="translate(-294.147 -239.269)"/><path class="c" d="M384.848,287.842a3.244,3.244,0,1,0,2.533-5.974,29.192,29.192,0,0,0-40.528,26.886,78.88,78.88,0,0,1-2.9,21.932,3.245,3.245,0,1,0,6.233,1.807,85.564,85.564,0,0,0,3.147-23.739,22.712,22.712,0,0,1,22.693-22.693A22.481,22.481,0,0,1,384.848,287.842Z" transform="translate(-292.243 -227.708)"/><path class="s" d="M347.281,333.743a2,2,0,0,1-.553-.08,1.958,1.958,0,0,1-1.321-2.416,80.128,80.128,0,0,0,2.946-22.289,27.9,27.9,0,0,1,38.727-25.691,1.962,1.962,0,0,1,1.028,2.558,1.941,1.941,0,0,1-1.79,1.183h0a1.953,1.953,0,0,1-.761-.155,23.728,23.728,0,0,0-9.324-1.885,24.017,24.017,0,0,0-23.99,23.99,84.262,84.262,0,0,1-3.1,23.379A1.961,1.961,0,0,1,347.281,333.743Z" transform="translate(-292.446 -227.911)"/><path class="c" d="M388.3,343.543a3,3,0,0,0,.778.1,3.237,3.237,0,0,0,3.147-2.464,127.41,127.41,0,0,0,3.518-30.387,16.209,16.209,0,0,0-32.419,0,3.242,3.242,0,1,0,6.484,0,9.726,9.726,0,1,1,19.451,0,121.1,121.1,0,0,1-3.328,28.831A3.233,3.233,0,0,0,388.3,343.543Z" transform="translate(-294.885 -229.741)"/><path class="s" d="M389.284,342.545a1.729,1.729,0,0,1-.443-.051,1.938,1.938,0,0,1-1.445-2.36,122.369,122.369,0,0,0,3.366-29.143,11.022,11.022,0,0,0-22.045,0,1.945,1.945,0,1,1-3.89,0,14.913,14.913,0,0,1,29.825,0,126.1,126.1,0,0,1-3.481,30.078A1.938,1.938,0,0,1,389.284,342.545Z" transform="translate(-295.088 -229.944)"/><path class="c" d="M406.109,298.1a3.242,3.242,0,0,0-5.809,2.879,22.416,22.416,0,0,1,2.343,10.045c0,40.026-15.587,65.382-29.886,80.217,1.357.069,2.714.1,4.089.1,1.582,0,3.156-.043,4.712-.138,13.884-16.157,27.569-41.824,27.569-80.182A28.961,28.961,0,0,0,406.109,298.1Z" transform="translate(-296.163 -229.974)"/><path class="s" d="M377.3,390.247q-.593,0-1.188-.009c13.346-14.671,28.281-39.847,28.281-79.014a23.707,23.707,0,0,0-2.478-10.621,1.945,1.945,0,0,1,3.487-1.725,27.665,27.665,0,0,1,2.881,12.346c0,38.98-14.54,64.378-26.9,78.919C380.077,390.212,378.7,390.247,377.3,390.247Z" transform="translate(-296.617 -230.177)"/><path class="c" d="M413.809,365.829a3.253,3.253,0,0,0-4.141,1.971,116.215,116.215,0,0,1-17.221,31.9,77.159,77.159,0,0,0,9.5-2.126,123.5,123.5,0,0,0,13.832-27.6A3.243,3.243,0,0,0,413.809,365.829Z" transform="translate(-298.831 -239.37)"/><path class="s" d="M395.912,398.045a118.281,118.281,0,0,0,15.447-29.607,1.964,1.964,0,0,1,1.842-1.3,1.924,1.924,0,0,1,.642.111,1.955,1.955,0,0,1,1.184,2.486A122.684,122.684,0,0,1,401.6,396.661C399.718,397.2,397.816,397.659,395.912,398.045Z" transform="translate(-299.3 -239.573)"/><path class="c" d="M410.8,330.245a3.32,3.32,0,0,0,.415.026,3.25,3.25,0,0,0,3.216-2.827,163.608,163.608,0,0,0,1.3-20.722,42.147,42.147,0,0,0-83.536-7.953A3.24,3.24,0,0,0,338.55,300a35.665,35.665,0,0,1,70.69,6.726A156.934,156.934,0,0,1,408,326.614,3.237,3.237,0,0,0,410.8,330.245Z" transform="translate(-290.657 -225.676)"/><path class="s" d="M411.415,329.178a2.175,2.175,0,0,1-.25-.015,1.941,1.941,0,0,1-1.681-2.176,158.121,158.121,0,0,0,1.256-20.062,36.962,36.962,0,0,0-73.26-6.97,1.944,1.944,0,0,1-1.905,1.573,2.025,2.025,0,0,1-.374-.035,1.947,1.947,0,0,1-1.537-2.277,40.85,40.85,0,0,1,80.966,7.709,162.387,162.387,0,0,1-1.286,20.558A1.955,1.955,0,0,1,411.415,329.178Z" transform="translate(-290.861 -225.879)"/><path class="c" d="M421.519,268.78a55.147,55.147,0,0,0-33.188-18.448,3.241,3.241,0,1,0-.994,6.406,48.965,48.965,0,0,1,41.115,48.049c0,31.641-8.222,55.916-18.863,74.1a79.418,79.418,0,0,0,10.132-5.118c8.861-17.9,15.215-40.623,15.215-68.978A55.076,55.076,0,0,0,421.519,268.78Z" transform="translate(-297.766 -223.74)"/><path class="s" d="M412.862,376.289c11.343-20.8,17.09-44.764,17.09-71.3a50.274,50.274,0,0,0-42.213-49.331,1.944,1.944,0,0,1,.289-3.866,2.045,2.045,0,0,1,.306.024,53.892,53.892,0,0,1,45.508,53.173c0,25.028-5.016,47.924-14.912,68.061C416.968,374.213,414.938,375.3,412.862,376.289Z" transform="translate(-297.969 -223.943)"/><path class="c" d="M421.123,269.452a3.257,3.257,0,0,0,2.732,1.487,3.192,3.192,0,0,0,1.755-.519,3.237,3.237,0,0,0,.968-4.478,68.038,68.038,0,0,0-112.895-2.559,3.243,3.243,0,1,0,5.291,3.752,61.548,61.548,0,0,1,102.149,2.317Z" transform="translate(-288.077 -221.611)"/><path class="s" d="M424.058,269.846a1.952,1.952,0,0,1-1.643-.9,62.845,62.845,0,0,0-104.3-2.361,1.952,1.952,0,0,1-1.591.82,1.921,1.921,0,0,1-1.122-.359,1.949,1.949,0,0,1-.462-2.714,66.742,66.742,0,0,1,110.747,2.51,1.953,1.953,0,0,1,.263,1.48,1.952,1.952,0,0,1-1.9,1.52Z" transform="translate(-288.28 -221.814)"/><path class="c" d="M366.578,219.6q-.869-.026-1.738-.026h-.173a80.717,80.717,0,0,0-79.283,94.74c.242-.1.484-.208.726-.3a3.225,3.225,0,0,0,1.669-1.5c.977-1.859,2.144-5.429,2.144-11.887a74.563,74.563,0,0,1,149.126,0,188.936,188.936,0,0,1-4.011,39.455,80.375,80.375,0,0,0,10.495-39.637v-.182A80.674,80.674,0,0,0,366.578,219.6Z" transform="translate(-284.157 -219.578)"/><path class="s" d="M438.221,331.3a195.984,195.984,0,0,0,2.328-30.472,75.86,75.86,0,0,0-151.719,0c0,6.189-1.085,9.553-2,11.283a1.932,1.932,0,0,1-.267.39,79.433,79.433,0,0,1,78.306-91.423h.17c.566,0,1.133.01,1.7.025a79.378,79.378,0,0,1,77.7,79.362v.182A79.63,79.63,0,0,1,438.221,331.3Z" transform="translate(-284.36 -219.781)"/><path class="c" d="M450.733,309.578a3.243,3.243,0,0,0-3.242,3.242c0,24.854-4.7,45.576-11.714,62.659a81.031,81.031,0,0,0,10.538-10.123,175.2,175.2,0,0,0,7.659-52.536A3.243,3.243,0,0,0,450.733,309.578Z" transform="translate(-304.702 -231.773)"/><path class="s" d="M439.344,371.34c6.59-17.824,9.927-37.415,9.927-58.317a1.945,1.945,0,0,1,3.89,0,174.938,174.938,0,0,1-7.519,51.89A79.91,79.91,0,0,1,439.344,371.34Z" transform="translate(-305.185 -231.977)"/></g></g></g></g></svg>