<svg xmlns="http://www.w3.org/2000/svg" width="237.522" height="481.479" viewBox="0 0 237.522 481.479"><defs><style>.a{fill:#ffd947;}.b,.i,.j,.k,.m,.n{fill:none;stroke-miterlimit:10;}.b{stroke:#2c54ac;}.c{fill:#03e6b0;}.d{fill:#fff;}.e{fill:#0a2a6b;}.f,.h{fill:#ff8775;}.g{fill:#004080;}.h{mix-blend-mode:multiply;isolation:isolate;}.i,.j,.k,.m{stroke:#0a2a6b;}.i{stroke-width:1.509px;}.j{stroke-width:2px;}.k{stroke-width:4px;}.l{fill:#ff4648;}.m{stroke-width:1.5px;}.n{stroke:#55a3f3;}.o{opacity:0.47;}</style></defs><g transform="translate(-18.318 -18.521)"><circle class="a" cx="79.468" cy="79.468" r="79.468" transform="translate(18.318 175.49) rotate(-80.978)"/><ellipse class="b" cx="86.757" cy="79.468" rx="86.757" ry="79.468" transform="translate(22.235 30)"/><path class="c" d="M78.42,177.389,98.307,215.7l.547-41.736Z"/><path class="a" d="M104.365,136.44l-1.338-7.87a36.257,36.257,0,0,1-.251-12.715,30.527,30.527,0,0,1,3.3-9.347,68.662,68.662,0,0,1,4.78-7.382,90.027,90.027,0,0,0,5.879-8.562q2.5-4.167,1.491-10.109a9.174,9.174,0,0,0-2.568-5.216,12.194,12.194,0,0,0-4.528-2.821,9.524,9.524,0,0,0-4.744-.493,12.519,12.519,0,0,0-6.861,3.229,16.492,16.492,0,0,0-3.882,5.931,44.883,44.883,0,0,0-2.082,7.076l-4.045.688L75.122,83.044a47.044,47.044,0,0,1,1.958-7.361,37.5,37.5,0,0,1,4.9-9.389,34.529,34.529,0,0,1,9.06-8.72,35.8,35.8,0,0,1,14.3-5.333,38.838,38.838,0,0,1,15.714.309,24.37,24.37,0,0,1,12.28,7.081q5.032,5.333,6.7,15.134,1.388,8.169.018,13.6A30.617,30.617,0,0,1,136,97.832q-2.676,4.047-5.361,8.016a54.373,54.373,0,0,0-3.88,6.389,24.67,24.67,0,0,0-2.439,7.672,31.117,31.117,0,0,0,.3,9.88l.53,3.118Zm15.72,29.568a13.267,13.267,0,0,1-9.254-1.407,9.664,9.664,0,0,1-4.715-7.067,10.088,10.088,0,0,1,2.177-8.316,12.738,12.738,0,0,1,8.158-4.6,12.194,12.194,0,0,1,9.068,1.668,10.287,10.287,0,0,1,4.654,7.154,9.868,9.868,0,0,1-1.967,8.2A12.691,12.691,0,0,1,120.085,166.008Z"/><path class="d" d="M100.32,137.128l-1.337-7.87a36.241,36.241,0,0,1-.252-12.716,30.511,30.511,0,0,1,3.3-9.346,68.431,68.431,0,0,1,4.781-7.383,89.7,89.7,0,0,0,5.878-8.562q2.5-4.167,1.491-10.108a9.179,9.179,0,0,0-2.567-5.217,12.218,12.218,0,0,0-4.529-2.821,9.534,9.534,0,0,0-4.744-.493,12.529,12.529,0,0,0-6.861,3.229A16.485,16.485,0,0,0,91.6,81.772a44.928,44.928,0,0,0-2.083,7.077l-18.44-5.117a47.043,47.043,0,0,1,1.958-7.361,37.461,37.461,0,0,1,4.9-9.389,34.547,34.547,0,0,1,9.06-8.721,35.817,35.817,0,0,1,14.3-5.333A38.851,38.851,0,0,1,117,53.237a24.38,24.38,0,0,1,12.28,7.081q5.032,5.333,6.7,15.134,1.389,8.169.018,13.595a30.633,30.633,0,0,1-4.043,9.473q-2.674,4.046-5.361,8.015a54.386,54.386,0,0,0-3.88,6.39,24.661,24.661,0,0,0-2.439,7.672,31.147,31.147,0,0,0,.3,9.88l.53,3.118ZM116.04,166.7a13.264,13.264,0,0,1-9.253-1.406,9.662,9.662,0,0,1-4.716-7.068,10.087,10.087,0,0,1,2.178-8.315,12.729,12.729,0,0,1,8.157-4.6,12.193,12.193,0,0,1,9.069,1.667,10.288,10.288,0,0,1,4.653,7.155,9.867,9.867,0,0,1-1.967,8.2A12.687,12.687,0,0,1,116.04,166.7Z"/><path class="e" d="M242.716,453.411l-21.454-76.166L203.5,447.5l2.837,10.238A64.231,64.231,0,0,0,242.716,453.411Z"/><path class="f" d="M255.84,500l-13.124-46.589a64.231,64.231,0,0,1-36.378,4.326L218.051,500Z"/><path class="g" d="M168.163,349.544,130.4,336.092s-54.288,29.765-59.474,54.9S87.287,500,87.287,500h146.42s-21.943-48.071-21.943-59.788,15.958-54.826,8.777-64.192-52.617-34.5-52.617-34.5Z"/><path class="f" d="M168.163,349.544A40.839,40.839,0,0,1,130.4,336.092a98.163,98.163,0,0,0,2.046-22.662,33.43,33.43,0,0,0-1.6-10.509,40.264,40.264,0,0,0-3.265-6.477L117.41,278.963a39.417,39.417,0,0,1-4.606-9.931c-1.784-7.041.433-14.465,3.337-21.122,5.623-12.891,14.314-24.953,26.632-31.74s28.64-7.322,39.9,1.106c4.416,3.306,10.319,6.462,11.518,11.845,2.841,12.758,5.689,25.558,6.888,38.573s.71,26.329-3.026,38.854c-1.686,5.652-4.2,11.354-8.843,15a27,27,0,0,1-10.9,4.669c-3.362.756-6.907,1.2-10.227.274C167.771,333.807,167.841,342.225,168.163,349.544Z"/><path class="e" d="M107.842,228.1a26.249,26.249,0,0,0-9.165,8.23c-9.266,12.851-9.245,31-2.114,45.152s21.259,27.2,35.911,33.229a96.086,96.086,0,0,0-2.69-23.314,19.268,19.268,0,0,0,9.9-6.031c-3.8-14.543-7.728-28.842-11.529-43.385,8.543,2.1,17.894.554,26.056-2.732s15.418-8.518,21.965-14.4a15.79,15.79,0,0,0,7.809,8.4,26.186,26.186,0,0,0,11.371,2.665c.444,2.291.84,4.57,1.285,6.861,6.863-4.293,12.951-11.961,12.033-20a21.384,21.384,0,0,0-1.752-6.073A34.442,34.442,0,0,0,191.2,199.97a51,51,0,0,0-13.2-4.29,100.658,100.658,0,0,0-45.924,1.44,41.918,41.918,0,0,0-13.414,5.733C110.848,208.354,106.625,218.622,107.842,228.1Z"/><path class="f" d="M114.248,287.666a26.9,26.9,0,0,0,10.173,14.454,11.551,11.551,0,0,0,4.8,2.179c3.72.524,6.572-2.531,7.143-6.272s-.682-7.947-2.348-11.834c-2.154-5.025-5.668-10.38-10.48-11.858C115.78,271.952,112.329,280.655,114.248,287.666Z"/><path class="h" d="M132.846,299.707a12.007,12.007,0,0,1-4.6-3.206,2.658,2.658,0,0,1-.628-.976,1.893,1.893,0,0,1,.588-1.742l2.344-2.819a1.263,1.263,0,0,0,.348-.655,1.971,1.971,0,0,0-.219-.921c-1.6-3.867-3.43-8.041-6.769-10.475a6.029,6.029,0,0,0-2.9-1.249,3.808,3.808,0,0,0-3.47,1.869A12.123,12.123,0,0,0,116.1,283.6s.4,8.082,6.312,13.316S132.846,299.707,132.846,299.707Z"/><path class="i" d="M116.1,283.6a12.123,12.123,0,0,1,1.436-4.066,3.808,3.808,0,0,1,3.47-1.869,6.029,6.029,0,0,1,2.9,1.249c3.339,2.434,5.171,6.608,6.769,10.475a1.971,1.971,0,0,1,.219.921,1.263,1.263,0,0,1-.348.655l-2.344,2.819a1.893,1.893,0,0,0-.588,1.742,2.658,2.658,0,0,0,.628.976,12.007,12.007,0,0,0,4.6,3.206"/><path class="j" d="M180.168,256.267l3.294,18.1a12.252,12.252,0,0,0,1.258,4.1c1.335,2.259,3.925,3.4,6.35,4.4a17.486,17.486,0,0,1-6.688,7.476"/><path class="e" d="M167.146,269.4c0,2.5-1.224,4.528-2.734,4.528s-2.733-2.027-2.733-4.528,1.224-4.528,2.733-4.528S167.146,266.9,167.146,269.4Z"/><path class="e" d="M195.86,265.888c0,2.5-1.224,4.528-2.734,4.528s-2.734-2.027-2.734-4.528,1.224-4.528,2.734-4.528S195.86,263.388,195.86,265.888Z"/><path class="k" d="M147.62,261.618a25.393,25.393,0,0,1,7.979-10.882,18.5,18.5,0,0,1,12.77-3.874"/><path class="k" d="M199.527,255.222a19.14,19.14,0,0,0-7.749-7.3,23.927,23.927,0,0,0-12.4-2.6"/><path class="e" d="M185.188,302.19c3.478-.617,6.489-.03,6.727,1.311.2,1.107-1.561,2.38-4.136,3.138a12.828,12.828,0,0,0-7.4-2.619A11.937,11.937,0,0,1,185.188,302.19Z"/><path class="l" d="M180.375,304.02a12.828,12.828,0,0,1,7.4,2.619,16.173,16.173,0,0,1-1.729.407c-3.477.617-6.489.03-6.727-1.311C179.224,305.176,179.626,304.576,180.375,304.02Z"/><path class="f" d="M127.971,423.512l16.086,16.7s13.12-96.694,12.855-104.431S151.4,309.492,155.6,308.8s12.487,17.687,12.487,17.687,53.257-9.515,57.453-8.7-2.1,5.361-8.043,7.459a98.94,98.94,0,0,1-11.156,3.2,13.765,13.765,0,0,1,2.4,4.7,18.371,18.371,0,0,1,0,4.749,17.965,17.965,0,0,1,.034,5.131,13.6,13.6,0,0,1-1.577,3.1s.46,3.555-.341,4.734a8.194,8.194,0,0,1-3.27,2.725c-5.695,6.117-12.716.75-12.716.75l-4.387-.108-13.234-.326s-1.8,66.326-2.7,86.312-6.911,51.836-6.911,51.836L112.164,461.7s3.085-14.122,7.593-24.639S127.971,423.512,127.971,423.512Z"/><path class="m" d="M155.478,350.431s.406-8.069.628-12.108c.574-10.4-1.823-20.753-1.71-31.166a6.72,6.72,0,0,1,6.157,1.61,11.311,11.311,0,0,1,2.424,3.882,12.477,12.477,0,0,1,1.224,5.018,24.912,24.912,0,0,0-.156,3.258,6.785,6.785,0,0,0,.716,2.218,12.372,12.372,0,0,0,3.215,4.052l23.954-4.815"/><line class="m" x1="16.172" y2="3.577" transform="translate(190.167 328.443)"/><path class="m" d="M191.173,338.676c5.957-.282,11.6-.5,17.56-.784"/><path class="m" d="M191.93,345.768a112.577,112.577,0,0,1,15.26.357"/><line class="m" x1="12.175" y2="0.16" transform="translate(188.863 353.905)"/><path class="m" d="M143.87,437.425a191.879,191.879,0,0,0-1.534,20.336"/><path class="n" d="M128.974,424.773q-9.542-11.8-19.082-23.6c-6.294-7.784-12.872-15.8-21.839-20.251"/><path class="n" d="M112.351,460.96a86.249,86.249,0,0,0-2.8,21.674,133.752,133.752,0,0,1-21.923-21.19"/><path class="n" d="M216.763,459.02l-5-18.809,5.033-58.5"/><g class="o"><path class="n" d="M108.289,223.229a52.849,52.849,0,0,0,13.842,2.088c10.527.484,21.224-.133,31.278-3.288s19.472-9.009,25.642-17.552c.555,6.825,4.577,12.967,9.834,17.355a26.189,26.189,0,0,0,19.122,5.885"/><path class="n" d="M207.792,219.551a20.642,20.642,0,0,1-13.522-7.3,33.379,33.379,0,0,1-6.827-14.035"/><path class="n" d="M171.169,194.83c-3.867,5.34-10.02,8.537-16.2,10.835-12.769,4.749-27.535,6.307-39.723.219"/><path class="n" d="M119.076,242.789a33.609,33.609,0,0,1-23.181,36.094"/><path class="n" d="M106.217,237.476A31.338,31.338,0,0,1,91.492,256.6"/></g></g></svg>