<svg xmlns="http://www.w3.org/2000/svg" width="955.01" height="125.772" viewBox="0 0 955.01 125.772"><defs><style>.a{fill:#004080;}</style></defs><g transform="translate(-295.406 -2566)"><g transform="translate(419.327 2566)"><path class="a" d="M1128.615,867.068a92.3,92.3,0,0,1-11.211,2.874,1.245,1.245,0,0,0,.231,2.468,1.261,1.261,0,0,0,.235-.022,94.793,94.793,0,0,0,11.515-2.951,1.245,1.245,0,1,0-.769-2.368Z" transform="translate(-1075.39 -746.638)"/><path class="a" d="M1242.76,759.824a93.406,93.406,0,0,1-25.666,17.012,1.245,1.245,0,1,0,1.014,2.274,95.9,95.9,0,0,0,26.353-17.466,1.245,1.245,0,0,0-1.7-1.819Z" transform="translate(-1157.831 -657.967)"/><path class="a" d="M1078.009,815.418a1.244,1.244,0,0,0-1.662-.582,87.72,87.72,0,0,1-33.492,8.541,1.245,1.245,0,0,0,.066,2.488l.068,0a90.2,90.2,0,0,0,34.438-8.785A1.245,1.245,0,0,0,1078.009,815.418Z" transform="translate(-1013.773 -703.51)"/><path class="a" d="M1299.315,692.312a88.422,88.422,0,0,1-20.64,17.246,1.245,1.245,0,1,0,1.287,2.132,90.894,90.894,0,0,0,21.22-17.731,1.245,1.245,0,0,0-1.867-1.647Z" transform="translate(-1208.729 -602.219)"/><path class="a" d="M1017.554,824.942a1.244,1.244,0,0,0-1.494-.932,85.762,85.762,0,0,1-19.292,2.167c-1.131,0-2.281-.023-3.514-.069a1.245,1.245,0,0,0-.093,2.488c1.265.048,2.445.071,3.607.071a88.232,88.232,0,0,0,19.854-2.231A1.245,1.245,0,0,0,1017.554,824.942Z" transform="translate(-972.774 -711.151)"/><path class="a" d="M1207.64,635.535a1.245,1.245,0,0,0-1.738.281,83.433,83.433,0,0,1-42.027,30.723,1.245,1.245,0,1,0,.766,2.369,85.926,85.926,0,0,0,43.281-31.636A1.245,1.245,0,0,0,1207.64,635.535Z" transform="translate(-1113.838 -555.549)"/><path class="a" d="M1036.687,583.2a1.245,1.245,0,0,0-1.706.436,79.5,79.5,0,0,1-31.37,29.931,78.163,78.163,0,0,1-36.693,8.916,83.6,83.6,0,0,1-9.76-.574,1.245,1.245,0,1,0-.292,2.473,86,86,0,0,0,10.051.591,80.625,80.625,0,0,0,37.85-9.2,81.991,81.991,0,0,0,32.355-30.866A1.245,1.245,0,0,0,1036.687,583.2Z" transform="translate(-942.923 -512.439)"/><path class="a" d="M924.909,253.688a1.245,1.245,0,0,0,.271-.03,42.648,42.648,0,0,1,7.224-.968,1.245,1.245,0,0,0,1.183-1.156,43.161,43.161,0,0,1,1.651-9.153,1.245,1.245,0,0,0-2.388-.7,45.625,45.625,0,0,0-1.656,8.591,45.211,45.211,0,0,0-6.554.959,1.245,1.245,0,0,0,.269,2.461Z" transform="translate(-916.448 -230.192)"/><path class="a" d="M980.193,560.4a77.121,77.121,0,0,0,34.737-37.413,1.245,1.245,0,0,0-2.274-1.014A74.654,74.654,0,0,1,979.037,558.2a73.227,73.227,0,0,1-34.377,8.349,79.488,79.488,0,0,1-11.609-.858c-.889-.129-1.817-.3-2.756-.511a1.245,1.245,0,0,0-.543,2.43c1,.224,1.99.407,2.938.545a81.971,81.971,0,0,0,11.97.885A75.693,75.693,0,0,0,980.193,560.4Z" transform="translate(-920.665 -461.481)"/><path class="a" d="M995.21,230.771h.044a1.245,1.245,0,0,0,1.244-1.2,38.142,38.142,0,0,1,3.974-15.739,1.245,1.245,0,0,0-2.231-1.107,40.621,40.621,0,0,0-4.232,16.76A1.245,1.245,0,0,0,995.21,230.771Z" transform="translate(-974.46 -206.479)"/><path class="a" d="M906.216,327.282a1.242,1.242,0,0,0,.408-.069,37.834,37.834,0,0,1,12.426-2.093,1.245,1.245,0,1,0,0-2.49,40.31,40.31,0,0,0-13.242,2.23,1.245,1.245,0,0,0,.408,2.422Z" transform="translate(-901.031 -297.69)"/><path class="a" d="M927.579,492.121A70.79,70.79,0,0,0,960.8,484.06c17.792-9.34,31.031-26.207,36.574-46.487.278-1,1.109-2.9-.19-3.459a1.25,1.25,0,0,0-1.7.843c-5.027,20.487-18.09,37.581-35.839,46.9a68.324,68.324,0,0,1-32.066,7.776,75.077,75.077,0,0,1-10.878-.8,33.79,33.79,0,0,1-6.95-1.791,1.245,1.245,0,0,0-.878,2.331,36.321,36.321,0,0,0,7.464,1.924A77.6,77.6,0,0,0,927.579,492.121Z" transform="translate(-903.585 -389.547)"/><path class="a" d="M1022.277,215.414a1.245,1.245,0,0,0,1.244,1.213h.033a1.245,1.245,0,0,0,1.212-1.277,33.69,33.69,0,0,1,6.9-21.258,1.245,1.245,0,1,0-1.979-1.512A36.189,36.189,0,0,0,1022.277,215.414Z" transform="translate(-997.764 -190.033)"/><path class="a" d="M892.165,356.256a1.25,1.25,0,0,0,1.694.635,33.026,33.026,0,0,1,14.551-3.361,33.755,33.755,0,0,1,4.922.36,1.245,1.245,0,0,0,.364-2.463,36.269,36.269,0,0,0-5.287-.387,35.5,35.5,0,0,0-15.572,3.579A1.252,1.252,0,0,0,892.165,356.256Z" transform="translate(-890.391 -321.12)"/><path class="a" d="M915.444,418.666a65.855,65.855,0,0,0,30.907-7.493c21.253-11.154,34.961-33.159,36.67-58.864a1.245,1.245,0,0,0-2.485-.165c-1.65,24.833-14.862,46.076-35.342,56.824a63.389,63.389,0,0,1-29.751,7.208,70,70,0,0,1-10.151-.749,28.487,28.487,0,0,1-10.075-3.483,1.245,1.245,0,1,0-1.242,2.158,30.983,30.983,0,0,0,10.953,3.788A72.537,72.537,0,0,0,915.444,418.666Z" transform="translate(-891.449 -321.071)"/><path class="a" d="M885.849,223.3a1.239,1.239,0,0,0,.686-.208,28.492,28.492,0,0,1,19.91-4.458,12.045,12.045,0,0,0,1.773.133,6.888,6.888,0,0,0,3.148-.645c2.531-1.328,5.009-5.874,4.85-12a28.5,28.5,0,0,1,10.458-22.857,1.245,1.245,0,0,0-1.583-1.922,30.975,30.975,0,0,0-11.364,24.843c.139,5.363-1.973,8.917-3.517,9.726a4.341,4.341,0,0,1-1.992.361,9.542,9.542,0,0,1-1.41-.107,30.955,30.955,0,0,0-21.648,4.846,1.245,1.245,0,0,0,.689,2.283Z" transform="translate(-884.234 -180.943)"/><path class="a" d="M908.3,367.567a60.914,60.914,0,0,0,28.592-6.921c21.767-11.422,34.857-35.152,34.162-61.93-.019-.808-.079-1.633-.183-2.521a1.245,1.245,0,0,0-2.486.11,1.242,1.242,0,0,0,.009.146c.1.824.153,1.584.171,2.327.67,25.824-11.91,48.685-32.83,59.662a58.448,58.448,0,0,1-27.435,6.636,64.2,64.2,0,0,1-9.421-.7,23.5,23.5,0,0,1-12.124-5.585,1.245,1.245,0,0,0-1.643,1.871,25.98,25.98,0,0,0,13.4,6.178A66.67,66.67,0,0,0,908.3,367.567Z" transform="translate(-884.304 -274.952)"/><path class="a" d="M883.746,229.3a1.241,1.241,0,0,0,.84-.327,23.488,23.488,0,0,1,19.4-5.986,17.2,17.2,0,0,0,2.5.182,11.611,11.611,0,0,0,5.463-1.218c4.688-2.456,7.706-9.1,7.509-16.533A23.758,23.758,0,0,1,934.5,182.762a1.245,1.245,0,1,0-.908-2.318,26.255,26.255,0,0,0-16.627,25.037c.172,6.506-2.31,12.237-6.179,14.264a9.169,9.169,0,0,1-4.3.932,14.689,14.689,0,0,1-2.133-.156,25.979,25.979,0,0,0-21.447,6.613,1.245,1.245,0,0,0,.841,2.164Z" transform="translate(-882.5 -180.358)"/><path class="a" d="M897.438,282.738a62.282,62.282,0,0,0,9.056.671,55.987,55.987,0,0,0,26.281-6.353c20.071-10.531,32.138-32.522,31.493-57.39a20.981,20.981,0,0,0-6.689-14.952l-.172-.167-.035-.017a20.756,20.756,0,0,0-6.21-3.916c-.3-.123-.614-.237-.925-.347l-.209-.1h-.091a21.231,21.231,0,0,0-6.833-1.115c-.169,0-.338,0-.546.005a21.2,21.2,0,0,0-20.609,21.71c.222,8.489-3.25,15.871-8.846,18.805A13.41,13.41,0,0,1,908.054,241a1.245,1.245,0,0,0,.226,2.48,15.881,15.881,0,0,0,5.979-1.706c6.43-3.372,10.425-11.644,10.178-21.075a18.706,18.706,0,0,1,18.184-19.157c.182,0,.326,0,.482,0a18.74,18.74,0,0,1,6.167,1.027,43.994,43.994,0,0,1,6.63,3.984,18.541,18.541,0,0,1,5.88,13.178c.62,23.912-10.937,45.033-30.161,55.12a53.523,53.523,0,0,1-25.124,6.068,59.8,59.8,0,0,1-8.693-.644,18.557,18.557,0,0,1-12.262-7.33c-.263-.357-.514-.722-.746-1.084a1.245,1.245,0,1,0-2.1,1.343c.261.408.543.817.841,1.221A21.03,21.03,0,0,0,897.438,282.738Z" transform="translate(-882.499 -195.774)"/><path class="a" d="M883.072,447.786a1.245,1.245,0,0,0,1.721-.374,18.907,18.907,0,0,1,15.726-8.657,18.606,18.606,0,0,1,2.739.2,1.245,1.245,0,0,0,.368-2.463,21.126,21.126,0,0,0-20.927,9.572A1.245,1.245,0,0,0,883.072,447.786Z" transform="translate(-882.5 -391.406)"/><path class="a" d="M924.076,267.411a19.019,19.019,0,0,1-8.933,2.073,24.669,24.669,0,0,1-3.592-.266,16.177,16.177,0,0,0-18.377,13.65,16.184,16.184,0,0,0,13.648,18.373,57.189,57.189,0,0,0,8.329.615,51.044,51.044,0,0,0,23.966-5.78c18.379-9.644,29.425-29.895,28.829-52.851a16.1,16.1,0,0,0-16.186-15.764c-.131,0-.262,0-.415.005a16.207,16.207,0,0,0-15.76,16.6C935.855,254.438,931.338,263.6,924.076,267.411Zm14-23.409a13.714,13.714,0,0,1,13.333-14.047c.129,0,.241,0,.352,0a13.623,13.623,0,0,1,13.7,13.339c.571,22-9.965,41.382-27.5,50.582a48.577,48.577,0,0,1-22.809,5.495,54.69,54.69,0,0,1-7.965-.588,13.694,13.694,0,0,1-11.548-15.546,13.687,13.687,0,0,1,15.55-11.55,27.178,27.178,0,0,0,3.955.293,21.482,21.482,0,0,0,10.09-2.358C933.328,265.369,938.369,255.315,938.074,244Z" transform="translate(-891.157 -219.204)"/><path class="a" d="M934.256,297.574a11.2,11.2,0,0,0-12.722,9.45,11.2,11.2,0,0,0,9.449,12.72,52.2,52.2,0,0,0,7.6.561,45.521,45.521,0,0,0,31.448-12.135,1.245,1.245,0,0,0-1.691-1.828,43.033,43.033,0,0,1-29.757,11.473,49.745,49.745,0,0,1-7.238-.534A8.715,8.715,0,0,1,924,307.387a8.707,8.707,0,0,1,9.895-7.35,32.242,32.242,0,0,0,4.684.346,26.4,26.4,0,0,0,12.4-2.928c9.763-5.122,15.85-16.958,15.506-30.154a8.727,8.727,0,0,1,8.484-8.939l.223,0a8.671,8.671,0,0,1,8.718,8.488c.349,13.445-3.8,26.016-11.671,35.4a1.245,1.245,0,0,0,1.907,1.6c8.266-9.849,12.617-23.012,12.253-37.064a11.147,11.147,0,0,0-11.207-10.914c-.091,0-.183,0-.286,0A11.219,11.219,0,0,0,964,267.366c.319,12.254-5.245,23.2-14.174,27.884a23.937,23.937,0,0,1-11.247,2.643A29.735,29.735,0,0,1,934.256,297.574Z" transform="translate(-914.59 -242.633)"/><path class="a" d="M975.569,323.088a30.519,30.519,0,0,1-18.609,2.84,6.225,6.225,0,1,0-1.817,12.317,47.218,47.218,0,0,0,6.874.508,41.172,41.172,0,0,0,19.337-4.64c14.992-7.866,24-24.638,23.5-43.772a6.225,6.225,0,0,0-12.446.323C992.775,304.8,986.166,317.529,975.569,323.088ZM994.9,290.6a3.735,3.735,0,0,1,7.468-.194c.472,18.178-8.022,34.08-22.168,41.5a38.712,38.712,0,0,1-18.181,4.355,44.724,44.724,0,0,1-6.511-.481,3.735,3.735,0,0,1,.535-7.431,3.8,3.8,0,0,1,.555.041,33,33,0,0,0,20.13-3.1C988.156,319.3,995.289,305.678,994.9,290.6Z" transform="translate(-938.023 -266.061)"/><path class="a" d="M1215.487,327.115a1.243,1.243,0,0,0,1.489-.939,49.721,49.721,0,0,0,1.191-12.274,1.245,1.245,0,1,0-2.489.065,47.252,47.252,0,0,1-1.13,11.659A1.245,1.245,0,0,0,1215.487,327.115Z" transform="translate(-1156.314 -289.492)"/><path class="a" d="M979.666,441.713a1.245,1.245,0,1,0-.363,2.463,42.237,42.237,0,0,0,6.143.454,36.427,36.427,0,0,0,17.027-4.069,38.512,38.512,0,0,0,17.546-20.157,1.245,1.245,0,1,0-2.314-.918,36.029,36.029,0,0,1-16.388,18.87A35.468,35.468,0,0,1,979.666,441.713Z" transform="translate(-961.456 -376.918)"/></g><g transform="translate(295.406 2568)"><path class="a" d="M598.055,842.319a45,45,0,0,1-6.154,4.864c-.021.014-.042.028-.061.043a1.244,1.244,0,0,0,1.329,2.1c.041-.025.08-.05.117-.075a47.564,47.564,0,0,0,6.479-5.122,1.245,1.245,0,0,0-1.708-1.812Z" transform="translate(-520.172 -731.156)"/><path class="a" d="M594.471,871.807l.006,0c.01-.007.018-.015.029-.022Z" transform="translate(-522.809 -755.732)"/><path class="a" d="M655.835,728.644a1.246,1.246,0,0,0-1.557.822,44.584,44.584,0,0,1-9.139,16.318,1.245,1.245,0,1,0,1.87,1.644,47.077,47.077,0,0,0,9.648-17.227A1.245,1.245,0,0,0,655.835,728.644Z" transform="translate(-564.339 -637.641)"/><path class="a" d="M385.2,214.18a1.247,1.247,0,0,0,.489-.1c1.614-.691,3.281-1.322,4.955-1.875a1.245,1.245,0,1,0-.781-2.365c-1.741.575-3.475,1.231-5.154,1.95a1.245,1.245,0,0,0,.491,2.39Z" transform="translate(-349.194 -209.777)"/><path class="a" d="M221.676,257.8a1.242,1.242,0,0,0,.949-.439,73.83,73.83,0,0,1,22.1-17.556,1.245,1.245,0,0,0-1.158-2.2,76.307,76.307,0,0,0-22.838,18.149,1.245,1.245,0,0,0,.948,2.051Z" transform="translate(-214.338 -232.607)"/><path class="a" d="M437.027,224.272a1.236,1.236,0,0,0,.341-.048,58.151,58.151,0,0,1,15.625-2.209,1.245,1.245,0,0,0-.006-2.49h-.006a60.643,60.643,0,0,0-16.294,2.3,1.245,1.245,0,0,0,.34,2.443Z" transform="translate(-391.939 -217.816)"/><path class="a" d="M293.045,246.924a74.47,74.47,0,0,0-22.221,14.426,1.245,1.245,0,1,0,1.715,1.8,71.983,71.983,0,0,1,21.482-13.94,1.245,1.245,0,1,0-.977-2.291Z" transform="translate(-255.578 -240.33)"/><path class="a" d="M188.116,377.828a1.244,1.244,0,0,0,1.665-.571c.528-1.079,1.126-2.213,1.779-3.372a70.1,70.1,0,0,1,7.077-10.311,1.245,1.245,0,1,0-1.917-1.589,72.587,72.587,0,0,0-7.329,10.678c-.676,1.2-1.3,2.378-1.846,3.5A1.245,1.245,0,0,0,188.116,377.828Z" transform="translate(-187.112 -334.931)"/><path class="a" d="M187.979,296.362a14.829,14.829,0,0,0,1.9-3.642,61.757,61.757,0,0,1,4.579-10.1,64.243,64.243,0,0,1,31.615-27.938,53.609,53.609,0,0,1,33.207-2.881,1.245,1.245,0,1,0,.568-2.424,56.1,56.1,0,0,0-34.752,3.015A66.678,66.678,0,0,0,192.29,281.4a64.206,64.206,0,0,0-4.761,10.5,12.353,12.353,0,0,1-1.584,3.027s-.74,1.2.224,1.817A1.415,1.415,0,0,0,187.979,296.362Z" transform="translate(-185.673 -241.223)"/><path class="a" d="M186.555,329.944a1.244,1.244,0,0,0,1.665-.574,48.021,48.021,0,0,1,5.519-8.766,1.243,1.243,0,0,0,.217-.416,56.718,56.718,0,0,1,4.992-11.693,59.377,59.377,0,0,1,29.229-25.8,48.652,48.652,0,0,1,39.923.811,1.245,1.245,0,1,0,1.069-2.249,51.14,51.14,0,0,0-41.97-.853,61.814,61.814,0,0,0-30.422,26.869,59.2,59.2,0,0,0-5.139,11.972,50.5,50.5,0,0,0-5.658,9.034A1.245,1.245,0,0,0,186.555,329.944Z" transform="translate(-185.823 -264.651)"/><path class="a" d="M198.939,345.946a51.465,51.465,0,0,1,4.816-11.576A54.512,54.512,0,0,1,230.6,310.706a43.287,43.287,0,0,1,17.091-3.491,43.8,43.8,0,0,1,26.644,9.078,1.245,1.245,0,0,0,1.522-1.971,46.3,46.3,0,0,0-28.166-9.6,45.765,45.765,0,0,0-18.068,3.69,56.949,56.949,0,0,0-28.037,24.732,53.93,53.93,0,0,0-4.973,11.875A45.9,45.9,0,0,0,186.431,369.6a1.245,1.245,0,0,0,1.114,1.363,1.217,1.217,0,0,0,.126.007,1.245,1.245,0,0,0,1.237-1.121,43.425,43.425,0,0,1,9.79-23.444A1.245,1.245,0,0,0,198.939,345.946Z" transform="translate(-186.293 -288.081)"/><path class="a" d="M218.242,410.584a38.647,38.647,0,0,1,7.3-38.355,1.24,1.24,0,0,0,.268-.509,46.88,46.88,0,0,1,4.629-11.476,49.659,49.659,0,0,1,24.458-21.528,38.612,38.612,0,0,1,44.993,11.027,1.245,1.245,0,1,0,1.927-1.577,41.1,41.1,0,0,0-47.9-11.741,52.1,52.1,0,0,0-25.651,22.6,49.338,49.338,0,0,0-4.8,11.793,41.044,41.044,0,0,0,.184,53.82,1.245,1.245,0,0,0,1.874-1.64A38.265,38.265,0,0,1,218.242,410.584Z" transform="translate(-208.636 -311.51)"/><path class="a" d="M316.334,433.607a44.943,44.943,0,0,0,3.231-7.024,1.245,1.245,0,1,0-2.344-.838,42.46,42.46,0,0,1-3.053,6.635c-5.377,9.511-13.767,16.355-24.935,20.341a33.624,33.624,0,0,1-42.953-20.375,33.991,33.991,0,0,1,7.118-34.261,1.24,1.24,0,0,0,.3-.571,42.153,42.153,0,0,1,4.418-11.395,44.763,44.763,0,0,1,22.073-19.392A33.615,33.615,0,0,1,324.007,383.8a1.245,1.245,0,0,0,2.269-1.025,36.106,36.106,0,0,0-47.061-18.337,47.2,47.2,0,0,0-23.266,20.46,44.6,44.6,0,0,0-4.6,11.735,36.108,36.108,0,0,0,38.718,58.434C301.817,450.872,310.655,443.652,316.334,433.607Z" transform="translate(-231.981 -334.938)"/><path class="a" d="M687.929,642.077a1.246,1.246,0,0,0-1.645.629,33.607,33.607,0,0,1-4.884,7.818,1.245,1.245,0,1,0,1.912,1.595,36.1,36.1,0,0,0,5.245-8.4A1.245,1.245,0,0,0,687.929,642.077Z" transform="translate(-594.262 -566.206)"/><path class="a" d="M316.924,389.945a30.939,30.939,0,0,0-12.206,2.5,42.324,42.324,0,0,0-20.881,18.325,39.6,39.6,0,0,0-4.375,11.722,31.124,31.124,0,0,0,32.478,51.31c10.587-3.774,18.531-10.241,23.609-19.218a39.348,39.348,0,0,0,4.588-12.778,31.122,31.122,0,0,0-23.214-51.856ZM338.051,440.4a1.246,1.246,0,0,0-.307.634,36.93,36.93,0,0,1-4.361,12.321c-4.776,8.442-12.271,14.531-22.278,18.1a28.635,28.635,0,0,1-29.623-47.459,1.247,1.247,0,0,0,.351-.652,37.185,37.185,0,0,1,4.175-11.352A39.887,39.887,0,0,1,305.7,394.731a28.632,28.632,0,0,1,37.573,15.109A28.759,28.759,0,0,1,338.051,440.4Z" transform="translate(-255.529 -358.362)"/><path class="a" d="M340.388,418.354a25.989,25.989,0,0,0-10.252,2.1,37.454,37.454,0,0,0-18.5,16.19,34.981,34.981,0,0,0-4.107,11.767,26.146,26.146,0,0,0,26.2,44.127c9.427-3.361,16.475-9.074,20.947-16.98a34.683,34.683,0,0,0,4.239-12.61,26.144,26.144,0,0,0-18.531-44.591Zm16.483,43.115a1.244,1.244,0,0,0-.366.737,32.3,32.3,0,0,1-3.992,12.122c-4.169,7.37-10.769,12.706-19.616,15.86a23.65,23.65,0,0,1-30.225-14.339,23.82,23.82,0,0,1,6.836-25.863,1.246,1.246,0,0,0,.418-.757,32.61,32.61,0,0,1,3.884-11.367,35.019,35.019,0,0,1,17.3-15.122,23.653,23.653,0,0,1,31.038,12.482A23.836,23.836,0,0,1,356.871,461.469Z" transform="translate(-278.993 -381.791)"/><path class="a" d="M363.759,446.764a21.035,21.035,0,0,0-8.3,1.7,32.585,32.585,0,0,0-16.111,14.055,30.582,30.582,0,0,0-3.773,11.922,21.166,21.166,0,0,0,19.856,36.835c8.267-2.947,14.419-7.907,18.285-14.741a30.2,30.2,0,0,0,3.829-12.538,21.167,21.167,0,0,0-13.786-37.23Zm11.8,35.646a1.246,1.246,0,0,0-.455.876,27.884,27.884,0,0,1-3.554,12.019c-3.563,6.3-9.267,10.882-16.954,13.622a18.677,18.677,0,0,1-17.114-32.8,1.244,1.244,0,0,0,.517-.9,28.288,28.288,0,0,1,3.52-11.492,30.152,30.152,0,0,1,14.919-12.987,18.672,18.672,0,0,1,24.5,9.854A18.778,18.778,0,0,1,375.558,482.41Z" transform="translate(-302.364 -405.22)"/><path class="a" d="M387.146,475.173a1.245,1.245,0,1,0,0,2.49,13.7,13.7,0,0,1,7.062,25.434,1.245,1.245,0,0,0-.6,1.059,23.938,23.938,0,0,1-3,12.126c-2.957,5.227-7.766,9.057-14.293,11.384a13.7,13.7,0,0,1-10.778-25.123,1.245,1.245,0,0,0,.684-1.089,24.325,24.325,0,0,1,3.028-11.841,25.285,25.285,0,0,1,12.534-10.852,1.245,1.245,0,0,0-.977-2.291,27.722,27.722,0,0,0-13.727,11.92,26.368,26.368,0,0,0-3.329,12.284,16.186,16.186,0,0,0,13.4,29.337c7.107-2.534,12.363-6.741,15.623-12.5a25.921,25.921,0,0,0,3.315-12.651,16.187,16.187,0,0,0-8.938-29.684Z" transform="translate(-325.752 -428.649)"/><path class="a" d="M414.964,525.095a11.205,11.205,0,1,0-8.79-20.615,22.858,22.858,0,0,0-11.342,9.785,23.162,23.162,0,0,0-2.711,12.264c0,.206,0,.509,0,.8-.191.089-.439.194-.755.307a11.205,11.205,0,1,0,7.526,21.109c5.947-2.12,10.307-5.574,12.961-10.265a22.556,22.556,0,0,0,2.676-12.125c0-.259,0-.691,0-1.059C414.645,525.239,414.787,525.17,414.964,525.095Zm-.977-2.291a5.28,5.28,0,0,0-1.512.9,1.243,1.243,0,0,0-.395.785c-.046.427-.045,1.166-.039,1.9a20.354,20.354,0,0,1-2.353,10.87c-2.351,4.155-6.264,7.233-11.631,9.146a8.715,8.715,0,0,1-5.854-16.418,7.782,7.782,0,0,0,1.863-.9,1.244,1.244,0,0,0,.525-.944c.027-.463.022-1.193.019-1.629A20.954,20.954,0,0,1,397,515.487a20.429,20.429,0,0,1,10.15-8.717,8.715,8.715,0,0,1,6.837,16.034Z" transform="translate(-349.171 -452.077)"/><path class="a" d="M505.322,532.432a6.181,6.181,0,0,0-4.763.049,21.409,21.409,0,0,0-4.033,2.237,1.245,1.245,0,1,0,1.445,2.027,18.947,18.947,0,0,1,3.564-1.974,3.735,3.735,0,0,1,2.93,6.872,8.338,8.338,0,0,0-4.188,3.379c-.772,1.37-.8,2.659-.786,4.826a24.757,24.757,0,0,1-.2,3.975,1.245,1.245,0,0,0,1.043,1.418,1.261,1.261,0,0,0,.189.014,1.245,1.245,0,0,0,1.229-1.058,26.887,26.887,0,0,0,.226-4.374c-.014-1.975.022-2.8.464-3.58a5.978,5.978,0,0,1,3-2.311,6.225,6.225,0,0,0-.12-11.5Z" transform="translate(-441.602 -475.497)"/><path class="a" d="M425.5,597.426a19.358,19.358,0,0,1-5.68,3.073,3.735,3.735,0,0,1-2.509-7.036c2.466-.879,4.14-2.073,4.976-3.55.762-1.348.753-2.733.739-4.65a15.885,15.885,0,0,1,1.748-8.543A1.245,1.245,0,0,0,422.6,575.5a18.239,18.239,0,0,0-2.069,9.783c.014,1.914-.019,2.7-.416,3.406a6.665,6.665,0,0,1-3.645,2.431,6.225,6.225,0,1,0,4.181,11.727,21.829,21.829,0,0,0,6.407-3.481,1.245,1.245,0,0,0-1.563-1.938Z" transform="translate(-372.602 -510.864)"/></g><g transform="translate(544.29 2568)"><path class="a" d="M1781.182,754.6a1.245,1.245,0,0,0,0-2.49c-4.557,0-7.993,2.013-7.993,4.683s3.436,4.683,7.993,4.683,7.993-2.013,7.993-4.683a1.245,1.245,0,0,0-2.49,0c0,.873-2.195,2.193-5.5,2.193s-5.5-1.32-5.5-2.193S1777.874,754.6,1781.182,754.6Z" transform="translate(-1739.173 -658.45)"/><path class="a" d="M1732.2,728.251a24.046,24.046,0,0,0-4.933,1.454c-4.138,1.754-6.511,4.448-6.511,7.392,0,5.252,7.549,9.366,17.185,9.366s17.186-4.114,17.186-9.366c0-4.071-4.5-7.544-11.455-8.848a1.245,1.245,0,0,0-.459,2.447c5.549,1.039,9.423,3.671,9.423,6.4,0,3.321-5.9,6.876-14.7,6.876s-14.7-3.555-14.7-6.876c0-1.868,1.867-3.775,4.993-5.1a21.548,21.548,0,0,1,4.421-1.3,1.245,1.245,0,0,0-.459-2.447Z" transform="translate(-1695.928 -638.754)"/><path class="a" d="M1678.856,701.442c-6.7,2.644-10.545,6.758-10.545,11.287,0,7.878,11.587,14.049,26.378,14.049s26.378-6.171,26.378-14.049-11.587-14.049-26.378-14.049a48.224,48.224,0,0,0-9.336.888,1.245,1.245,0,0,0,.483,2.443,45.727,45.727,0,0,1,8.853-.84c12.948,0,23.888,5.293,23.888,11.559s-10.939,11.559-23.888,11.559-23.887-5.293-23.887-11.559c0-3.4,3.352-6.755,8.968-8.971a1.245,1.245,0,1,0-.914-2.316Z" transform="translate(-1652.68 -614.387)"/><path class="a" d="M1651.446,671.969c-19.945,0-35.568,8.227-35.568,18.73a9.528,9.528,0,0,0,.075,1.215,1.245,1.245,0,0,0,2.47-.318,7.074,7.074,0,0,1-.055-.9c0-8.8,15.148-16.24,33.078-16.24s33.083,7.437,33.083,16.24-15.15,16.245-33.083,16.245c-9.467,0-18.516-2.038-24.828-5.592a1.245,1.245,0,0,0-1.222,2.169c6.673,3.757,16.168,5.912,26.049,5.912,19.947,0,35.573-8.229,35.573-18.735S1671.393,671.969,1651.446,671.969Z" transform="translate(-1609.439 -592.358)"/><path class="a" d="M1812.217,861.845c-8.02,4.038-18.678,6.261-30.013,6.261-2.1,0-4.236-.079-6.337-.234-.027,0-.053,0-.08,0s-.074-.012-.112-.012c-.017,0-.032,0-.048,0s-.061.006-.092.009a1.228,1.228,0,0,0-.185.034l-.042.013a1.24,1.24,0,0,0-.839.888c0,.009-.006.018-.009.027a1.264,1.264,0,0,0-.03.269,1.247,1.247,0,0,0,.051.353c.011.037.033.069.047.1a1.262,1.262,0,0,0,.1.209c.024.038.058.068.086.1a1.263,1.263,0,0,0,.135.156,1.3,1.3,0,0,0,.119.083,1.253,1.253,0,0,0,.146.1l.019.007.014.009a1.221,1.221,0,0,0,.235.084c.02.005.04.006.06.01a1.273,1.273,0,0,0,.153.026c2.191.164,4.416.247,6.612.247,11.716,0,22.772-2.318,31.132-6.527a1.245,1.245,0,1,0-1.119-2.224Z" transform="translate(-1740.197 -748.839)"/><path class="a" d="M1987.881,681.842a1.245,1.245,0,0,0-1.119,2.225c6.289,3.163,10.479,7.28,11.8,11.592a1.245,1.245,0,1,0,2.381-.728C1999.4,689.891,1994.883,685.365,1987.881,681.842Z" transform="translate(-1914.741 -600.391)"/><path class="a" d="M1652.249,651.057a1.245,1.245,0,0,0,.76-2.371,78.156,78.156,0,0,0-23.516-3.45c-16.965,0-32.247,4.865-39.881,12.7a1.245,1.245,0,0,0,1.783,1.738c7.073-7.256,22.028-11.945,38.1-11.945A75.639,75.639,0,0,1,1652.249,651.057Z" transform="translate(-1587.486 -570.311)"/><path class="a" d="M1750.063,618.532a102.883,102.883,0,0,0-13.525.881,1.245,1.245,0,0,0,.329,2.468,100.366,100.366,0,0,1,13.2-.86c21.362,0,40.761,6.748,48.271,16.791a1.245,1.245,0,0,0,1.994-1.491C1792.246,625.515,1772.516,618.532,1750.063,618.532Z" transform="translate(-1708.055 -548.289)"/><path class="a" d="M1602.338,633.018a1.245,1.245,0,1,0-.524-2.434,66.539,66.539,0,0,0-20.339,7.687,1.245,1.245,0,1,0,1.3,2.126A64.047,64.047,0,0,1,1602.338,633.018Z" transform="translate(-1580.574 -558.204)"/><path class="a" d="M1687.684,605.649c-11.79-8.655-31.092-13.822-51.633-13.822-13.883,0-27.039,2.271-38.047,6.566a1.245,1.245,0,0,0,.905,2.32c10.723-4.185,23.566-6.4,37.142-6.4,20.03,0,38.782,4.987,50.16,13.339a1.245,1.245,0,1,0,1.474-2.007Z" transform="translate(-1594.044 -526.265)"/><path class="a" d="M1916.667,579.262A1.245,1.245,0,1,0,1917.71,577c-10.178-4.7-22.664-7.794-36.106-8.961a1.245,1.245,0,1,0-.216,2.481C1894.548,571.663,1906.747,574.686,1916.667,579.262Z" transform="translate(-1827.467 -506.644)"/><path class="a" d="M1595.077,573.249a1.245,1.245,0,0,0,.385-.061,123.955,123.955,0,0,1,37.8-5.6,1.245,1.245,0,0,0,0-2.49,126.462,126.462,0,0,0-38.572,5.727,1.245,1.245,0,0,0,.385,2.429Z" transform="translate(-1591.257 -504.217)"/><path class="a" d="M1672.755,547.849c-14.475-6.1-32.8-9.46-51.6-9.46a144.587,144.587,0,0,0-41.121,5.716,1.245,1.245,0,0,0,.718,2.384,142.088,142.088,0,0,1,40.4-5.609c18.478,0,36.461,3.29,50.637,9.265a1.245,1.245,0,1,0,.967-2.294Z" transform="translate(-1579.144 -482.195)"/><path class="a" d="M1580.7,519.125a160.336,160.336,0,0,1,40.448-4.95c18.271,0,35.8,2.8,50.7,8.1a1.245,1.245,0,1,0,.834-2.346c-15.164-5.393-32.986-8.244-51.538-8.244a162.826,162.826,0,0,0-41.077,5.03,1.245,1.245,0,0,0,.629,2.409Z" transform="translate(-1579.145 -460.172)"/><path class="a" d="M1580.67,491.887a180.016,180.016,0,0,1,40.481-4.445,174.255,174.255,0,0,1,50.753,7.21,1.245,1.245,0,1,0,.735-2.379,176.768,176.768,0,0,0-51.488-7.322,182.511,182.511,0,0,0-41.043,4.509,1.245,1.245,0,1,0,.561,2.426Z" transform="translate(-1579.144 -438.125)"/><path class="a" d="M1864.37,464.846a197.031,197.031,0,0,0-51.451-6.6,1.245,1.245,0,0,0,0,2.49,194.509,194.509,0,0,1,50.79,6.509,1.245,1.245,0,0,0,.661-2.4Z" transform="translate(-1770.912 -416.102)"/><path class="a" d="M1603.017,462.009a1.245,1.245,0,1,0,.452,2.449,199.185,199.185,0,0,1,30.054-3.157,1.246,1.246,0,0,0,1.207-1.282,1.26,1.26,0,0,0-1.283-1.207A201.716,201.716,0,0,0,1603.017,462.009Z" transform="translate(-1597.992 -416.566)"/><path class="a" d="M1580.791,437.722a218.419,218.419,0,0,1,40.5-3.688,211.835,211.835,0,0,1,50.822,5.935,1.245,1.245,0,0,0,.6-2.417,214.324,214.324,0,0,0-51.42-6.007,220.944,220.944,0,0,0-40.964,3.732,1.245,1.245,0,0,0,.463,2.447Z" transform="translate(-1579.285 -394.079)"/><path class="a" d="M1583.3,410.629a237.745,237.745,0,0,1,40.078-3.329A231.3,231.3,0,0,1,1674,412.713a1.245,1.245,0,1,0,.547-2.429,233.792,233.792,0,0,0-51.175-5.474,240.206,240.206,0,0,0-40.5,3.365,1.245,1.245,0,1,0,.421,2.454Z" transform="translate(-1581.369 -372.032)"/><path class="a" d="M1589.13,383.525A257.708,257.708,0,0,1,1628.2,380.6a251.327,251.327,0,0,1,49.837,4.846,1.263,1.263,0,0,0,.249.025,1.245,1.245,0,0,0,.246-2.466,253.864,253.864,0,0,0-50.332-4.9,260.2,260.2,0,0,0-39.453,2.958,1.245,1.245,0,0,0,.379,2.461Z" transform="translate(-1586.196 -350.009)"/><path class="a" d="M1598.626,356.365a277.432,277.432,0,0,1,37.426-2.5,271.006,271.006,0,0,1,48.378,4.248,1.245,1.245,0,0,0,.446-2.45,273.5,273.5,0,0,0-48.824-4.288,279.871,279.871,0,0,0-37.763,2.526,1.245,1.245,0,0,0,.337,2.467Z" transform="translate(-1594.046 -327.962)"/><path class="a" d="M1902.617,328.219a1.245,1.245,0,0,0,1.178,1.309,286.291,286.291,0,0,1,30.3,3.19,1.245,1.245,0,1,0,.4-2.458,288.71,288.71,0,0,0-30.56-3.219A1.243,1.243,0,0,0,1902.617,328.219Z" transform="translate(-1845.911 -307.894)"/><path class="a" d="M1683.285,324.668c-9.3,0-18.606.424-27.669,1.259a1.245,1.245,0,0,0,.113,2.485c.038,0,.077,0,.116-.005,8.988-.828,18.22-1.248,27.441-1.248,2.377,0,4.784.028,7.153.084a1.232,1.232,0,0,0,1.274-1.216,1.245,1.245,0,0,0-1.216-1.274C1688.108,324.7,1685.681,324.668,1683.285,324.668Z" transform="translate(-1641.278 -305.939)"/><path class="a" d="M1630.856,302.04a318.737,318.737,0,0,1,69.3.63,1.281,1.281,0,0,0,.15.009,1.245,1.245,0,0,0,.147-2.481,321.217,321.217,0,0,0-69.846-.635,1.245,1.245,0,1,0,.251,2.478Z" transform="translate(-1620.661 -283.915)"/><path class="a" d="M1655.834,274.836c9.019-.741,18.256-1.116,27.453-1.116,10.229,0,20.477.462,30.459,1.374q.058,0,.115.005a1.245,1.245,0,0,0,.112-2.485c-10.058-.919-20.382-1.385-30.686-1.385-9.265,0-18.57.378-27.657,1.125a1.245,1.245,0,0,0,.2,2.482Z" transform="translate(-1641.279 -261.868)"/><path class="a" d="M1797.307,244.536a1.245,1.245,0,0,0,.009,2.49h.009a355.639,355.639,0,0,1,35.682,1.518c.04,0,.079.005.118.005a1.245,1.245,0,0,0,.115-2.485c-10.887-1.021-22.053-1.539-33.189-1.539Q1798.677,244.526,1797.307,244.536Z" transform="translate(-1758.045 -239.846)"/><path class="a" d="M1708.282,247.941l.065,0c3.279-.169,6.62-.293,9.928-.37a1.245,1.245,0,0,0-.058-2.49c-3.332.077-6.7.2-10,.373a1.245,1.245,0,0,0,.063,2.489Z" transform="translate(-1684.618 -240.301)"/><path class="a" d="M1831.875,220.394c6.857.06,13.763.311,20.526.745.027,0,.054,0,.081,0a1.245,1.245,0,0,0,.079-2.487c-6.808-.437-13.76-.69-20.663-.75a1.263,1.263,0,0,0-1.256,1.234A1.245,1.245,0,0,0,1831.875,220.394Z" transform="translate(-1786.554 -217.89)"/><path class="a" d="M1743,220.514h.042c3.733-.124,7.594-.19,11.475-.2a1.245,1.245,0,0,0,0-2.49h0c-3.907.007-7.794.075-11.553.2a1.245,1.245,0,0,0,.041,2.489Z" transform="translate(-1713.252 -217.826)"/></g><g transform="translate(669.252 2567)"><path class="a" d="M2666.127,811.217a1.246,1.246,0,0,0-1.749.2,53.267,53.267,0,0,1-13.042,11.812,1.245,1.245,0,0,0,1.34,2.1,55.754,55.754,0,0,0,13.652-12.362A1.245,1.245,0,0,0,2666.127,811.217Z" transform="translate(-2585.028 -705.374)"/><path class="a" d="M2536.169,779.28a42.637,42.637,0,0,1-6.639-2.052,1.245,1.245,0,0,0-1.487.447,48.359,48.359,0,0,1-21.6,17.491,47.443,47.443,0,0,1-17.526,3.606,1.245,1.245,0,0,0,.017,2.49h.018a49.923,49.923,0,0,0,18.441-3.795,50.724,50.724,0,0,0,22.128-17.571,44.965,44.965,0,0,0,6.108,1.815,1.245,1.245,0,1,0,.537-2.432Z" transform="translate(-2450.546 -677.492)"/><path class="a" d="M2444.228,744.885a38.261,38.261,0,0,1-11.031-3.8,1.246,1.246,0,0,0-1.656.477,44.051,44.051,0,0,1-21.574,19.151,43.136,43.136,0,0,1-33.249-.187c-.676-.283-1.323-.574-1.92-.866a1.245,1.245,0,0,0-1.094,2.237c.641.313,1.332.625,2.052.926a45.633,45.633,0,0,0,35.161.192,46.3,46.3,0,0,0,22.175-19.19,40.725,40.725,0,0,0,10.694,3.508,1.245,1.245,0,0,0,.442-2.451Z" transform="translate(-2355.964 -647.644)"/><path class="a" d="M2453.233,212a53.845,53.845,0,0,1,7.9,3.339,1.245,1.245,0,0,0,1.033.053,61.4,61.4,0,0,1,18.686-4.2,1.245,1.245,0,1,0-.161-2.485,63.847,63.847,0,0,0-18.914,4.166,56.341,56.341,0,0,0-7.767-3.234,1.245,1.245,0,0,0-.782,2.364Z" transform="translate(-2421.423 -208.7)"/><path class="a" d="M2384.735,706.987a33.76,33.76,0,0,1-14.887-6.051,1.254,1.254,0,0,0-1.063-.176,1.287,1.287,0,0,0-.823.716l-.035.077c-4.721,10.27-11.925,17.463-21.411,21.381a38.164,38.164,0,0,1-29.417-.176,40.938,40.938,0,0,1-16.486-12.944,1.245,1.245,0,0,0-1.987,1.5,43.464,43.464,0,0,0,17.509,13.739,40.653,40.653,0,0,0,31.33.182c9.707-4.009,17.153-11.216,22.149-21.432a36.287,36.287,0,0,0,14.76,5.647,1.245,1.245,0,0,0,.36-2.464Z" transform="translate(-2294.415 -614.464)"/><path class="a" d="M2412.022,234.577a47.849,47.849,0,0,1,14.668,5.559,1.245,1.245,0,0,0,1.129.059l.254-.111a56.675,56.675,0,0,1,22.779-4.747,58.508,58.508,0,0,1,7.885.536,1.245,1.245,0,0,0,.336-2.467,61.019,61.019,0,0,0-8.221-.559,59.144,59.144,0,0,0-23.465,4.821,50.232,50.232,0,0,0-14.885-5.535,1.245,1.245,0,0,0-.48,2.443Z" transform="translate(-2387.312 -228.006)"/><path class="a" d="M2371.264,643.664a28.563,28.563,0,0,1-18.168-9.536,1.245,1.245,0,0,0-2.115.424,66.5,66.5,0,0,1-2.545,6.421c-4.178,9.09-10.5,15.434-18.792,18.857a33.152,33.152,0,0,1-25.581-.162,35.71,35.71,0,0,1-18.9-19.17,36.942,36.942,0,0,1-2.452-9.616,1.245,1.245,0,1,0-2.473.286,39.406,39.406,0,0,0,2.617,10.263,38.25,38.25,0,0,0,20.248,20.533,35.64,35.64,0,0,0,27.5.168c8.89-3.669,15.655-10.438,20.1-20.12.708-1.548,1.363-3.13,1.953-4.722a31.032,31.032,0,0,0,18.323,8.846,1.245,1.245,0,0,0,.289-2.473Z" transform="translate(-2279.446 -555.966)"/><path class="a" d="M2376.33,258.49a42.8,42.8,0,0,1,20.452,6.982,1.244,1.244,0,0,0,1.257.059c.809-.424,1.635-.819,2.461-1.177a51.681,51.681,0,0,1,20.786-4.334,54.033,54.033,0,0,1,16.352,2.551,1.245,1.245,0,1,0,.753-2.373,56.5,56.5,0,0,0-17.1-2.668,54.155,54.155,0,0,0-21.78,4.54c-.66.286-1.322.6-1.977.923a45.17,45.17,0,0,0-21.038-6.989,1.245,1.245,0,1,0-.162,2.485Z" transform="translate(-2357.744 -247.71)"/><path class="a" d="M2368.569,593.872a23.639,23.639,0,0,1-20.031-15.98,9.537,9.537,0,0,0-.921-1.949,1.245,1.245,0,0,0-2.295.484A61.985,61.985,0,0,1,2340.251,594c-3.633,7.911-9.071,13.407-16.161,16.336a28.2,28.2,0,0,1-21.757-.151,30.65,30.65,0,0,1-16.215-16.439,32.35,32.35,0,0,1-2.306-13.594,1.245,1.245,0,0,0-1.624-1.24,23.5,23.5,0,0,1-5.255,1.045,1.245,1.245,0,1,0,.2,2.482,25.845,25.845,0,0,0,4.153-.684,34.713,34.713,0,0,0,2.519,12.922,33.194,33.194,0,0,0,17.56,17.8,30.684,30.684,0,0,0,23.672.157c7.691-3.176,13.569-9.1,17.474-17.6a63.942,63.942,0,0,0,4.564-14.055,26.123,26.123,0,0,0,21.242,15.361,1.245,1.245,0,0,0,.249-2.477Z" transform="translate(-2275.789 -511.076)"/><path class="a" d="M2345.866,286.53c.628-.055,1.3-.09,2-.105.246,0,.487,0,.723,0a37.827,37.827,0,0,1,22.584,7.944,1.245,1.245,0,0,0,1.428.053,32.441,32.441,0,0,1,4.6-2.469,46.794,46.794,0,0,1,18.8-3.915,49.707,49.707,0,0,1,20.239,4.371c.714.316,1.364.621,1.985.934a1.245,1.245,0,0,0,1.119-2.224c-.659-.332-1.345-.655-2.1-.987a52.177,52.177,0,0,0-21.247-4.584,49.272,49.272,0,0,0-19.8,4.123,35.151,35.151,0,0,0-4.223,2.2,40.189,40.189,0,0,0-23.4-7.935c-.252,0-.509,0-.773.005-.756.016-1.486.054-2.169.114a1.245,1.245,0,1,0,.218,2.48Z" transform="translate(-2332.465 -270.742)"/><path class="a" d="M2369.017,545.54a18.7,18.7,0,0,1-15.757-12.606,16.334,16.334,0,0,0-8.83-9.419,14.142,14.142,0,0,0-1.94-.7,1.245,1.245,0,0,0-1.58,1.211,57.642,57.642,0,0,1-5.185,24.533c-3.092,6.732-7.646,11.38-13.538,13.816a23.215,23.215,0,0,1-17.922-.141,25.526,25.526,0,0,1-13.526-13.711c-2.652-6.564-2.626-13.822.076-21.574a1.245,1.245,0,0,0-2.088-1.257,18.771,18.771,0,0,1-11.821,5.908,1.245,1.245,0,0,0,.258,2.477,21.248,21.248,0,0,0,10.082-3.794,31.064,31.064,0,0,0,1.184,19.172,28.071,28.071,0,0,0,14.871,15.075,25.7,25.7,0,0,0,19.838.147c6.491-2.684,11.487-7.757,14.848-15.077a60.054,60.054,0,0,0,5.4-23.817l.027.012a13.808,13.808,0,0,1,7.483,7.94,21.2,21.2,0,0,0,17.859,14.287,1.245,1.245,0,0,0,.257-2.477Z" transform="translate(-2275.79 -467.709)"/><path class="a" d="M2320.488,315.683a29.2,29.2,0,0,1,6.407-.85c.2,0,.4,0,.609,0a33.484,33.484,0,0,1,22.3,9.215,1.243,1.243,0,0,0,1.653.034,26.6,26.6,0,0,1,6.652-4.134,41.81,41.81,0,0,1,16.808-3.5,44.74,44.74,0,0,1,18.216,3.941,48.664,48.664,0,0,1,7.8,4.375,1.245,1.245,0,0,0,1.411-2.052,51.109,51.109,0,0,0-8.2-4.6,47.211,47.211,0,0,0-19.225-4.155,44.278,44.278,0,0,0-17.8,3.709,29.186,29.186,0,0,0-6.427,3.829,35.83,35.83,0,0,0-23.186-9.151c-.219,0-.442,0-.664.005a31.68,31.68,0,0,0-6.952.923,1.245,1.245,0,1,0,.6,2.417Z" transform="translate(-2311.378 -294.171)"/><path class="a" d="M2369.085,508.235a13.616,13.616,0,0,1-11.11-9.194,21.363,21.363,0,0,0-11.528-12.38,17.554,17.554,0,0,0-7.118-1.581,14.81,14.81,0,0,0-2.7.245,1.245,1.245,0,0,0-1.01,1.361,52.825,52.825,0,0,1-4.421,27.49c-2.555,5.555-6.229,9.354-10.916,11.291a18.255,18.255,0,0,1-14.094-.131,20.468,20.468,0,0,1-10.837-10.981c-2.411-5.977-2.043-13.368,1.009-20.277.8-1.8,1.789-4.05.839-6.493-.785-2.023-2.849-4.029-5.226-3.988-2.428.055-4.084,2.277-5.258,4.212a13.789,13.789,0,0,1-9.856,6.47,1.245,1.245,0,1,0,.341,2.467,16.3,16.3,0,0,0,11.645-7.649c.448-.737,1.808-2.978,3.183-3.01,1.172-.032,2.393,1.224,2.849,2.4.535,1.377.032,2.71-.8,4.585-3.322,7.521-3.7,15.618-1.04,22.214a23.009,23.009,0,0,0,12.181,12.345,20.739,20.739,0,0,0,16.008.137c5.288-2.185,9.4-6.409,12.229-12.553a55.372,55.372,0,0,0,4.753-27.6,14.616,14.616,0,0,1,7.222,1.318,18.833,18.833,0,0,1,10.177,10.9,16.094,16.094,0,0,0,13.133,10.865,1.245,1.245,0,1,0,.337-2.467Z" transform="translate(-2275.788 -435.409)"/><path class="a" d="M2300.259,345.562a24.505,24.505,0,0,1,9.881-2.319c.168,0,.332,0,.495,0,7.967,0,16.115,4.088,21.8,10.937.115.138.23.276.34.418a1.259,1.259,0,0,0,1,.482,1.245,1.245,0,0,0,.987-.507,20.73,20.73,0,0,1,8.464-6.629,36.872,36.872,0,0,1,14.821-3.089,39.807,39.807,0,0,1,16.2,3.514,43.87,43.87,0,0,1,11.87,7.8,1.245,1.245,0,0,0,1.683-1.835,46.345,46.345,0,0,0-12.543-8.243,42.285,42.285,0,0,0-17.208-3.727,39.342,39.342,0,0,0-15.815,3.3,23.489,23.489,0,0,0-8.5,6.205c-6.12-6.976-14.689-11.115-23.1-11.115-.186,0-.371,0-.555.005a26.975,26.975,0,0,0-10.873,2.552,1.245,1.245,0,0,0,1.052,2.257Z" transform="translate(-2294.508 -317.6)"/><path class="a" d="M2277.29,467.59a11.242,11.242,0,0,0,7.3-5.17c.859-1.416,4.036-5.474,7.232-5.546h.115c2,0,4.6,1.506,6.458,3.749,1.577,1.9,2.366,3.991,2.059,5.463a23.87,23.87,0,0,1-1.242,3.447c-.427,1.039-.88,2.153-1.3,3.341-2.135,6.044-2.219,11.582-.25,16.457a17.92,17.92,0,0,0,9.486,9.616,15.737,15.737,0,0,0,12.179.123c6.19-2.556,8.761-8.182,9.6-10.028a49.96,49.96,0,0,0,4.027-27.628c-.051-.366-.106-.731-.166-1.111-.181-1.221.041.289-.074-.5a17.08,17.08,0,0,1,6.606-1.308,20,20,0,0,1,8.125,1.8,23.9,23.9,0,0,1,12.882,13.856,11.244,11.244,0,0,0,8.326,7.4,1.245,1.245,0,1,0,.508-2.438,8.747,8.747,0,0,1-6.474-5.753,26.43,26.43,0,0,0-14.232-15.337,22.478,22.478,0,0,0-9.135-2.009,19.562,19.562,0,0,0-7.866,1.629c-.775.349-1.426.783-1.328,1.624.048.406.128.93.2,1.416.058.376.113.727.162,1.085A47.453,47.453,0,0,1,2326.674,488c-.744,1.628-3.008,6.583-8.293,8.765a13.313,13.313,0,0,1-10.261-.117,15.379,15.379,0,0,1-8.143-8.253c-1.736-4.3-1.638-9.242.289-14.7.4-1.134.837-2.213,1.251-3.22a23.967,23.967,0,0,0,1.377-3.887c.466-2.232-.5-5.059-2.581-7.562-2.339-2.824-5.626-4.649-8.374-4.649h-.143c-5.254.117-9.293,6.678-9.336,6.748a8.745,8.745,0,0,1-5.683,4.021,1.245,1.245,0,0,0,.512,2.437Z" transform="translate(-2275.789 -411.316)"/><path class="a" d="M2752.435,416.587a1.245,1.245,0,0,0-1.4,2.059,39.749,39.749,0,0,1,8.405,7.688,1.245,1.245,0,0,0,1.926-1.578A42.29,42.29,0,0,0,2752.435,416.587Z" transform="translate(-2667.275 -379.966)"/><path class="a" d="M2519.777,381.242a17.8,17.8,0,0,0-8.242,7,1.245,1.245,0,1,0,2.13,1.289,15.331,15.331,0,0,1,7.107-6.011,33.236,33.236,0,0,1,27.011.415,1.245,1.245,0,1,0,1.009-2.277A35.7,35.7,0,0,0,2519.777,381.242Z" transform="translate(-2470.06 -348.623)"/><path class="a" d="M2285.19,376.441a1.311,1.311,0,0,0,.8-.289,20.793,20.793,0,0,1,12.263-4.5c6.617-.145,13.494,3.273,18.364,9.133,4.555,5.477,6.45,12.062,5.2,18.069a34.507,34.507,0,0,1-2.022,6.016l-.02.049c-.392.94-.74,1.788-1.038,2.645a1.245,1.245,0,1,0,2.352.817c.275-.791.609-1.6.988-2.512l.023-.056a36.459,36.459,0,0,0,2.155-6.451c1.409-6.753-.676-14.1-5.719-20.168-5.35-6.438-12.942-10.192-20.332-10.031a23.252,23.252,0,0,0-13.761,5.04,1.272,1.272,0,0,0-.465,1.246A1.244,1.244,0,0,0,2285.19,376.441Z" transform="translate(-2282.515 -341.03)"/><path class="a" d="M2277.537,438.871a6.179,6.179,0,0,0,2.8-2.475c.047-.078,4.711-7.8,11.4-7.942,3.551-.083,7.575,2.044,10.484,5.548,2.6,3.125,3.734,6.649,3.105,9.664a26.747,26.747,0,0,1-1.525,4.353c-.4.977-.815,1.986-1.195,3.069-1.718,4.872-1.828,9.226-.329,12.942a12.829,12.829,0,0,0,6.8,6.887,10.774,10.774,0,0,0,8.349.113c3.9-1.607,5.85-5.051,6.981-7.5a45,45,0,0,0,3.619-24.841c-.047-.355-.1-.715-.162-1.085a11.865,11.865,0,0,1-.247-2.929,4.654,4.654,0,0,1,2.854-2.759,23.371,23.371,0,0,1,18.994.391,28.944,28.944,0,0,1,15.58,16.821,6.22,6.22,0,0,0,3.358,3.682,1.245,1.245,0,1,0,1.009-2.276,3.673,3.673,0,0,1-2.009-2.2,31.473,31.473,0,0,0-16.93-18.3,25.829,25.829,0,0,0-21-.4c-2.329,1.016-4.023,2.838-4.317,4.638a12.876,12.876,0,0,0,.248,3.742c.053.333.106.67.152,1.015a42.488,42.488,0,0,1-3.414,23.461c-.955,2.07-2.582,4.969-5.67,6.243a8.324,8.324,0,0,1-6.434-.107,10.287,10.287,0,0,1-5.457-5.523c-1.266-3.137-1.142-6.9.369-11.184.359-1.023.76-2,1.161-2.979a28.158,28.158,0,0,0,1.647-4.758c.786-3.766-.537-8.055-3.627-11.767-3.382-4.073-8.142-6.539-12.454-6.445-8.056.175-13.27,8.793-13.484,9.152a3.691,3.691,0,0,1-1.674,1.477,1.245,1.245,0,0,0,1.007,2.278Z" transform="translate(-2275.789 -387.876)"/><path class="a" d="M2278.647,407.575c2.28-2.754,7.069-7.4,13.526-7.537,5.063-.119,10.568,2.7,14.423,7.339,3.579,4.306,5.092,9.361,4.151,13.869a29.991,29.991,0,0,1-1.771,5.173c-.385.938-.783,1.907-1.128,2.889-1.322,3.743-1.456,6.825-.408,9.422a7.768,7.768,0,0,0,4.113,4.159c4.07,1.711,7.035-.889,8.874-4.882a39.958,39.958,0,0,0,3.214-22.067c-.048-.341-.1-.683-.153-1.025a14.523,14.523,0,0,1-.24-4.482c.523-3.183,3.33-5.458,5.783-6.525,15.629-6.811,32.58,2.808,39.322,15.623a1.245,1.245,0,0,0,2.2-1.159,37.049,37.049,0,0,0-18.032-16.56,30.727,30.727,0,0,0-24.488-.187c-3.9,1.7-6.672,4.916-7.245,8.405a16.582,16.582,0,0,0,.236,5.263c.051.331.1.662.149,1a37.447,37.447,0,0,1-3.01,20.678c-1.243,2.7-2.9,4.78-5.648,3.627a5.3,5.3,0,0,1-2.77-2.8c-.809-2.009-.663-4.515.448-7.663.325-.924.71-1.863,1.083-2.772a32.286,32.286,0,0,0,1.9-5.609c1.1-5.257-.607-11.078-4.674-15.971-4.329-5.208-10.615-8.371-16.393-8.238-7.447.164-12.838,5.358-15.389,8.439a1.245,1.245,0,1,0,1.918,1.588Z" transform="translate(-2276.329 -364.44)"/></g><g transform="translate(792 2569)"><path class="a" d="M428.982,1370.2c0,3.57,1.964,6.367,4.47,6.367s4.471-2.8,4.471-6.367-1.964-6.367-4.471-6.367S428.982,1366.629,428.982,1370.2Zm6.5,0c0,2.249-1.073,3.929-2.032,3.929s-2.032-1.68-2.032-3.929,1.073-3.929,2.032-3.929S435.484,1367.95,435.484,1370.2Z" transform="translate(-387.246 -1320.635)"/><path class="a" d="M402.31,1347.493c0,6.467,4.059,11.729,9.049,11.729s9.049-5.262,9.049-11.729-4.059-11.729-9.049-11.729S402.31,1341.026,402.31,1347.493Zm15.66,0c0,5.123-2.966,9.29-6.611,9.29s-6.611-4.168-6.611-9.29,2.966-9.291,6.611-9.291S417.97,1342.37,417.97,1347.493Z" transform="translate(-365.153 -1297.385)"/><path class="a" d="M375.636,1324.788c0,9.424,6.113,17.091,13.628,17.091s13.628-7.667,13.628-17.091-6.114-17.092-13.628-17.092S375.636,1315.363,375.636,1324.788Zm24.818,0c0,8.079-5.02,14.652-11.19,14.652s-11.189-6.573-11.189-14.652,5.02-14.653,11.189-14.653S400.454,1316.708,400.454,1324.788Z" transform="translate(-343.058 -1274.135)"/><path class="a" d="M348.964,1302.083c0,12.381,8.167,22.453,18.206,22.453s18.207-10.072,18.207-22.453-8.167-22.454-18.207-22.454S348.964,1289.7,348.964,1302.083Zm33.975,0c0,11.036-7.074,20.015-15.768,20.015s-15.768-8.979-15.768-20.015,7.073-20.015,15.768-20.015S382.939,1291.046,382.939,1302.083Z" transform="translate(-320.964 -1250.886)"/><path class="a" d="M322.29,1279.379c0,15.337,10.221,27.816,22.785,27.816s22.786-12.478,22.786-27.816-10.221-27.815-22.786-27.815S322.29,1264.042,322.29,1279.379Zm43.133,0c0,13.993-9.128,25.378-20.347,25.378s-20.347-11.384-20.347-25.378S333.856,1254,345.075,1254,365.423,1265.386,365.423,1279.379Z" transform="translate(-298.869 -1227.639)"/><path class="a" d="M295.618,1256.674c0,18.294,12.275,33.178,27.364,33.178s27.364-14.884,27.364-33.178-12.276-33.178-27.364-33.178S295.618,1238.379,295.618,1256.674Zm52.29,0c0,16.95-11.182,30.74-24.926,30.74s-24.926-13.79-24.926-30.74,11.182-30.74,24.926-30.74S347.908,1239.724,347.908,1256.674Z" transform="translate(-276.776 -1204.389)"/><path class="a" d="M268.944,1233.968c0,21.251,14.33,38.54,31.943,38.54s31.943-17.289,31.943-38.54-14.33-38.54-31.943-38.54S268.944,1212.717,268.944,1233.968Zm61.447,0c0,19.906-13.236,36.1-29.5,36.1s-29.5-16.2-29.5-36.1,13.236-36.1,29.5-36.1S330.391,1214.062,330.391,1233.968Z" transform="translate(-254.681 -1181.139)"/><path class="a" d="M242.271,1211.262c0,24.208,16.383,43.9,36.522,43.9s36.522-19.695,36.522-43.9-16.384-43.9-36.522-43.9S242.271,1187.054,242.271,1211.262Zm70.6,0c0,22.863-15.29,41.464-34.083,41.464s-34.083-18.6-34.083-41.464S260,1169.8,278.793,1169.8,312.876,1188.4,312.876,1211.262Z" transform="translate(-232.586 -1157.889)"/><path class="a" d="M215.6,1188.559c0,27.165,18.437,49.265,41.1,49.265s41.1-22.1,41.1-49.265-18.438-49.264-41.1-49.264S215.6,1161.395,215.6,1188.559Zm79.762,0c0,25.82-17.344,46.826-38.662,46.826s-38.662-21.006-38.662-46.826,17.343-46.826,38.662-46.826S295.361,1162.739,295.361,1188.559Z" transform="translate(-210.493 -1134.642)"/><path class="a" d="M234.6,1224.462c25.188,0,45.679-24.506,45.679-54.627,0-26.509-15.811-49.125-37.595-53.774a1.219,1.219,0,0,0-.509,2.385c20.666,4.411,35.665,26.023,35.665,51.389,0,28.777-19.4,52.189-43.241,52.189s-43.241-23.412-43.241-52.189a61.127,61.127,0,0,1,3.551-20.738,1.219,1.219,0,0,0-2.295-.825,63.556,63.556,0,0,0-3.695,21.562C188.925,1199.956,209.417,1224.462,234.6,1224.462Z" transform="translate(-188.398 -1115.374)"/><path class="a" d="M277.466,1561.953a1.22,1.22,0,0,0-1.561.731c-7.611,20.993-24.82,34.558-43.842,34.558s-36.226-13.559-43.842-34.544a1.219,1.219,0,0,0-2.292.832c7.971,21.961,26.079,36.15,46.134,36.15s38.169-14.2,46.134-36.165A1.22,1.22,0,0,0,277.466,1561.953Z" transform="translate(-185.855 -1484.685)"/><path class="a" d="M249.862,1660.554a44.086,44.086,0,0,1-15.264,2.725c-17.82,0-34.44-11.031-43.374-28.788a1.219,1.219,0,0,0-2.178,1.1c9.35,18.585,26.8,30.13,45.552,30.13a46.525,46.525,0,0,0,16.105-2.875,1.219,1.219,0,0,0-.842-2.289Z" transform="translate(-188.39 -1544.275)"/><path class="a" d="M589.3,1692.478a1.218,1.218,0,0,0-1.712.2,50.859,50.859,0,0,1-16.71,13.97A1.219,1.219,0,1,0,572,1708.82a53.282,53.282,0,0,0,17.51-14.631A1.219,1.219,0,0,0,589.3,1692.478Z" transform="translate(-504.239 -1592.648)"/><path class="a" d="M690.615,1633.934a1.219,1.219,0,0,0-1.637.541,59.154,59.154,0,0,1-3.67,6.3,1.219,1.219,0,1,0,2.026,1.356,61.565,61.565,0,0,0,3.822-6.561A1.219,1.219,0,0,0,690.615,1633.934Z" transform="translate(-599.399 -1544.262)"/><path class="a" d="M221.808,1142.117a1.22,1.22,0,0,0,1.584-.683c6.621-16.647,22.4-27.4,39.272-26.778a1.219,1.219,0,0,0,.091-2.437,41.261,41.261,0,0,0-25.216,7.461,45.83,45.83,0,0,0-16.413,20.852A1.22,1.22,0,0,0,221.808,1142.117Z" transform="translate(-214.999 -1112.191)"/></g><g transform="translate(914 2568)"><path class="a" d="M1240.3,1527.025a6.037,6.037,0,1,0,6.037,6.037A6.044,6.044,0,0,0,1240.3,1527.025Zm0,9.636a3.6,3.6,0,1,1,3.6-3.6A3.6,3.6,0,0,1,1240.3,1536.661Z" transform="translate(-1173.758 -1453.63)"/><path class="a" d="M1216.081,1497.792a11.056,11.056,0,1,0,11.056,11.056A11.068,11.068,0,0,0,1216.081,1497.792Zm0,19.672a8.617,8.617,0,1,1,8.617-8.617A8.626,8.626,0,0,1,1216.081,1517.464Z" transform="translate(-1149.543 -1429.415)"/><path class="a" d="M1191.867,1468.56a16.073,16.073,0,1,0,16.074,16.074A16.092,16.092,0,0,0,1191.867,1468.56Zm0,29.709a13.635,13.635,0,1,1,13.635-13.635A13.65,13.65,0,0,1,1191.867,1498.269Z" transform="translate(-1125.329 -1405.201)"/><path class="a" d="M1167.652,1439.327a21.092,21.092,0,1,0,21.092,21.092A21.116,21.116,0,0,0,1167.652,1439.327Zm0,39.745a18.653,18.653,0,1,1,18.654-18.653A18.675,18.675,0,0,1,1167.652,1479.072Z" transform="translate(-1101.114 -1380.986)"/><path class="a" d="M1169.305,1432.63a26.192,26.192,0,1,0,.246,3.574A25.908,25.908,0,0,0,1169.305,1432.63Zm-3.556,11.51a23.762,23.762,0,1,1,1.363-7.936A23.728,23.728,0,0,1,1165.749,1444.139Z" transform="translate(-1076.901 -1356.771)"/><path class="a" d="M1333.8,1395.5a1.219,1.219,0,1,0-.977,2.234,28.726,28.726,0,0,1,12.166,10.055,1.219,1.219,0,0,0,2.009-1.382A31.167,31.167,0,0,0,1333.8,1395.5Z" transform="translate(-1254.794 -1344.596)"/><path class="a" d="M1133.554,1436.763a28.693,28.693,0,1,1-7.378-52.7,1.219,1.219,0,0,0,.589-2.366,31.131,31.131,0,1,0,8.01,57.177,1.219,1.219,0,1,0-1.221-2.111Z" transform="translate(-1052.688 -1332.471)"/><path class="a" d="M1100.894,1420.933a33.711,33.711,0,1,1,17.913-57.067,1.219,1.219,0,0,0,1.723-1.726,36.134,36.134,0,1,0-19.209,61.194,1.219,1.219,0,0,0-.426-2.4Z" transform="translate(-1028.472 -1308.305)"/><path class="a" d="M945.714,1462.621a38.723,38.723,0,0,1-24.627-65.14,1.22,1.22,0,0,0-1.633-1.8,50.1,50.1,0,0,1-35.226,10.278,1.219,1.219,0,0,0-.221,2.429A52.725,52.725,0,0,0,910,1404.128q2.363-1.041,4.615-2.318a41.163,41.163,0,0,0,30.876,63.24c.037,0,.075,0,.111,0a1.219,1.219,0,0,0,.109-2.434Z" transform="translate(-882.713 -1344.622)"/><path class="a" d="M935.341,1528.174a43.8,43.8,0,0,1-27.006-55.3,1.224,1.224,0,0,0-1.543-1.546,53.578,53.578,0,0,1-5.582,1.535c-1.7.376-3.47.676-5.265.892a56.85,56.85,0,0,1-11.088.224,1.219,1.219,0,0,0-.173,2.433,59.1,59.1,0,0,0,11.551-.235c1.875-.226,3.726-.54,5.5-.931,1.217-.266,2.421-.576,3.607-.918a46.217,46.217,0,0,0,29.195,56.146,1.219,1.219,0,1,0,.8-2.3Z" transform="translate(-883.254 -1407.439)"/><path class="a" d="M922.908,1562.628a48.829,48.829,0,0,1-22.724-48.688,1.226,1.226,0,0,0-1.423-1.378c-1.637.3-3.337.53-5.054.693a62.1,62.1,0,0,1-10.491.1,1.219,1.219,0,0,0-.184,2.432,64.286,64.286,0,0,0,10.907-.1c1.223-.116,2.43-.279,3.622-.461a51.229,51.229,0,0,0,24.07,49.483,1.219,1.219,0,1,0,1.278-2.077Z" transform="translate(-881.89 -1441.634)"/><path class="a" d="M1254.331,1155.9a1.24,1.24,0,0,0,1,.478,49.433,49.433,0,0,1,10.294.794,48.378,48.378,0,0,1,13.819,4.8,1.219,1.219,0,0,0,1.138-2.157,50.813,50.813,0,0,0-14.513-5.041,51.763,51.763,0,0,0-9.146-.853,62.944,62.944,0,0,0,2.3-16.914c0-1.57-.058-3.17-.174-4.755a1.219,1.219,0,0,0-2.432.177c.111,1.527.167,3.068.167,4.578a60.5,60.5,0,0,1-2.658,17.793A1.244,1.244,0,0,0,1254.331,1155.9Z" transform="translate(-1190.177 -1125.685)"/><path class="a" d="M899.483,1572.217a53.626,53.626,0,0,1-4.906-22.474c0-.44,0-.881.019-1.321a1.229,1.229,0,0,0-1.319-1.254,66.991,66.991,0,0,1-10.179.051,1.219,1.219,0,1,0-.119,2.436,66.654,66.654,0,0,0,9.16.028c0,.02,0,.041,0,.061a56.06,56.06,0,0,0,5.129,23.494,1.219,1.219,0,0,0,2.215-1.02Z" transform="translate(-881.819 -1470.311)"/><path class="a" d="M989.462,1716.823a44.237,44.237,0,0,1-4.8-7.653,1.219,1.219,0,0,0-2.187,1.079,46.483,46.483,0,0,0,9.583,13.059,1.219,1.219,0,1,0,1.684-1.763A44.249,44.249,0,0,1,989.462,1716.823Z" transform="translate(-965.088 -1603.944)"/><path class="a" d="M1327.118,1184.226a1.265,1.265,0,0,0,.759.482,58.83,58.83,0,0,1,6.411,1.577,1.219,1.219,0,0,0,.713-2.332c-1.839-.563-3.707-1.035-5.569-1.419.144-1.3.266-2.623.343-3.967.02-.343.035-.691.05-1.038a1.219,1.219,0,1,0-2.436-.1c-.014.335-.028.67-.048,1-.1,1.678-.249,3.337-.451,4.93A1.265,1.265,0,0,0,1327.118,1184.226Z" transform="translate(-1250.482 -1163.076)"/><path class="a" d="M891.054,1579.1a1.214,1.214,0,0,0-1.245-1.138c-.724.015-2.778.006-5.046-.135a1.219,1.219,0,0,0-.151,2.434c1.368.084,2.743.126,4.1.136a61.264,61.264,0,0,0,8.457,26.194,1.219,1.219,0,1,0,2.091-1.254A58.808,58.808,0,0,1,891.054,1579.1Z" transform="translate(-883.185 -1495.708)"/><path class="a" d="M930.01,1177.646a1.218,1.218,0,0,0,.4-.066,11.179,11.179,0,0,0,7.444-8.885,1.219,1.219,0,0,0-2.41-.373,8.746,8.746,0,0,1-5.825,6.951,1.219,1.219,0,0,0,.4,2.372Z" transform="translate(-920.727 -1155.647)"/><path class="a" d="M911.105,1164.351a16.416,16.416,0,0,0,16.4-16.4,16.6,16.6,0,0,0-.2-2.59,1.219,1.219,0,1,0-2.408.382,14.124,14.124,0,0,1,.174,2.208,13.974,13.974,0,0,1-13.958,13.958,1.219,1.219,0,0,0,0,2.438Z" transform="translate(-905.068 -1136.634)"/><path class="a" d="M897.148,1226.609a21.894,21.894,0,0,0,2.512.145,21.536,21.536,0,0,0,19.109-11.549,1.219,1.219,0,1,0-2.158-1.135,19.1,19.1,0,0,1-16.951,10.245,19.439,19.439,0,0,1-2.231-.129,1.219,1.219,0,1,0-.281,2.422Z" transform="translate(-893.623 -1193.857)"/><path class="a" d="M1023.916,1141.787a1.218,1.218,0,0,0,1.528-.8,21.71,21.71,0,0,0,.28-11.953,1.219,1.219,0,1,0-2.358.619,19.271,19.271,0,0,1-.248,10.6A1.219,1.219,0,0,0,1023.916,1141.787Z" transform="translate(-998.816 -1123.206)"/><path class="a" d="M888.882,1150.824a27.057,27.057,0,0,0,3.963.292,26.776,26.776,0,0,0,25.65-34.393,1.219,1.219,0,0,0-2.337.695,24.337,24.337,0,0,1-23.313,31.259,24.664,24.664,0,0,1-3.6-.265,1.219,1.219,0,1,0-.358,2.412Z" transform="translate(-886.808 -1113.039)"/><path class="a" d="M884.164,1148.583a31.925,31.925,0,0,0,34.352-19.536A31.422,31.422,0,0,0,920.872,1117a31.856,31.856,0,0,0-1.334-9.163,1.219,1.219,0,0,0-2.335.7,29.616,29.616,0,0,1-.9,19.469l-.009.021-.005.011a29.487,29.487,0,0,1-31.768,18.133,1.219,1.219,0,1,0-.361,2.411Z" transform="translate(-882.901 -1105.681)"/><path class="a" d="M882.874,1149.242a37.112,37.112,0,0,0,38.7-21.251c2.154-3.843,3.4-10.855,3.4-15.534a37.224,37.224,0,0,0-1.386-10.084,1.219,1.219,0,1,0-2.347.661,34.681,34.681,0,0,1-38.037,43.791,1.219,1.219,0,0,0-.329,2.416Z" transform="translate(-881.819 -1101.138)"/><path class="a" d="M923.432,1128.769a39.829,39.829,0,0,1-40.252,21.607,1.219,1.219,0,0,0-.284,2.422,42.267,42.267,0,0,0,42.666-22.838c2.169-3.553,4.59-11.5,4.59-19.172a42.373,42.373,0,0,0-1.291-10.4,1.219,1.219,0,0,0-2.364.6,39.965,39.965,0,0,1-3.066,27.782Z" transform="translate(-881.819 -1099.468)"/><path class="a" d="M927.335,1133.82a44.9,44.9,0,0,1-7.9,10.42c-1.18.951-2.326,1.971-3.41,3.033h0a44.748,44.748,0,0,1-11.273,6.613l-.011.005-.02.009-.065.029a43.56,43.56,0,0,1-21.5,2.926,1.219,1.219,0,1,0-.224,2.428,45.946,45.946,0,0,0,22.736-3.132c.032-.013.063-.027.093-.043a47.179,47.179,0,0,0,11.829-6.965h0l.038-.032a45.253,45.253,0,0,0,3.483-3.1h0l.023-.022a47.358,47.358,0,0,0,14.205-33.861,47.875,47.875,0,0,0-1.071-10.079,1.219,1.219,0,0,0-2.384.514,45.45,45.45,0,0,1,1.016,9.565A44.9,44.9,0,0,1,927.335,1133.82Z" transform="translate(-881.82 -1100.811)"/><path class="a" d="M1131.594,1142.2l-.011.017-.011.017c-.011.017-.022.033-.033.05a50.226,50.226,0,0,1-7.389,9.622,1.22,1.22,0,0,0,1.6,1.833,38.721,38.721,0,0,1,46.96.643,1.219,1.219,0,0,0,1.507-1.917,41.157,41.157,0,0,0-43.425-4.626q1.5-2.046,2.8-4.229c.019-.027.037-.055.054-.084a52.466,52.466,0,0,0,7.316-26.786,53.48,53.48,0,0,0-.779-9.073,1.219,1.219,0,1,0-2.4.415,51.089,51.089,0,0,1,.743,8.658A50.042,50.042,0,0,1,1131.594,1142.2Z" transform="translate(-1082.265 -1105.423)"/><path class="a" d="M1208.487,1148.491a1.223,1.223,0,0,0,1.35,1.717,44.153,44.153,0,0,1,16.449-.3,43.219,43.219,0,0,1,16.517,6.5,1.219,1.219,0,0,0,1.337-2.04,45.64,45.64,0,0,0-17.443-6.863,46.247,46.247,0,0,0-15.057-.1,57.644,57.644,0,0,0,4.546-22.5,58.632,58.632,0,0,0-.458-7.327,1.219,1.219,0,1,0-2.419.306,56.137,56.137,0,0,1,.439,7.021A55.249,55.249,0,0,1,1208.487,1148.491Z" transform="translate(-1152.316 -1113.59)"/><path class="a" d="M1292.6,1167.09a1.247,1.247,0,0,0,.791.4,50.088,50.088,0,0,1,5.02.711,53.088,53.088,0,0,1,10.573,3.151,1.219,1.219,0,1,0,.935-2.252,55.536,55.536,0,0,0-11.052-3.295c-1.3-.251-2.615-.455-3.931-.607a66.762,66.762,0,0,0,1.115-12.275c0-.409,0-.818-.01-1.267,0,0,.016-1.316-1.189-1.32-1.273,0-1.249,1.392-1.249,1.392,0,.4.009.8.009,1.2a65.981,65.981,0,0,1-1.307,13.11A1.24,1.24,0,0,0,1292.6,1167.09Z" transform="translate(-1221.821 -1141.602)"/></g><g transform="translate(1035 2567)"><path class="a" d="M2104.077,1489.233a1.219,1.219,0,0,0-1.722-.069q-.354.327-.715.646a1.219,1.219,0,0,0-.354,1.28c.237.751.481,1.54.727,2.365a1.221,1.221,0,0,0,1.168.872,1.192,1.192,0,0,0,.348-.052,1.219,1.219,0,0,0,.82-1.516q-.254-.852-.5-1.654l.162-.148A1.219,1.219,0,0,0,2104.077,1489.233Z" transform="translate(-2011.227 -1422)"/><path class="a" d="M2088.535,1546.99a87.881,87.881,0,0,0-2.26-11.371,1.219,1.219,0,0,0-2.357.623,85.278,85.278,0,0,1,2.2,11.058q.075.585.142,1.179a1.219,1.219,0,0,0,1.21,1.083,1.2,1.2,0,0,0,.137-.008,1.219,1.219,0,0,0,1.076-1.347Q2088.612,1547.595,2088.535,1546.99Z" transform="translate(-1996.854 -1459.996)"/><path class="a" d="M2078.323,1450.282a1.219,1.219,0,0,0-1.834-1.606,42.615,42.615,0,0,1-5.237,5.037,3.125,3.125,0,0,0-.989,3.38c.283.872.578,1.792.876,2.758a1.219,1.219,0,1,0,2.33-.72c-.3-.978-.6-1.909-.887-2.792a.674.674,0,0,1,.2-.731A45.009,45.009,0,0,0,2078.323,1450.282Z" transform="translate(-1985.45 -1388.385)"/><path class="a" d="M1601.334,1230.764a1.219,1.219,0,0,0,1.638-.538c.914-1.809,1.909-3.606,2.955-5.34a1.219,1.219,0,0,0-2.088-1.26c-1.078,1.786-2.1,3.636-3.043,5.5A1.219,1.219,0,0,0,1601.334,1230.764Z" transform="translate(-1596.59 -1201.824)"/><path class="a" d="M2039.233,1415.29a.674.674,0,0,1,.261-.768,39.747,39.747,0,0,0,11.317-11.755,1.219,1.219,0,1,0-2.066-1.3,37.326,37.326,0,0,1-10.627,11.037,3.1,3.1,0,0,0-1.207,3.525c.157.49.335,1.04.538,1.655,2.767,8.423,5.862,19.569,5.22,31.089a1.22,1.22,0,0,0,1.149,1.285l.069,0a1.219,1.219,0,0,0,1.216-1.151c.664-11.928-2.5-23.359-5.338-31.985C2039.565,1416.32,2039.389,1415.776,2039.233,1415.29Z" transform="translate(-1957.824 -1349.155)"/><path class="a" d="M1633.39,1140.673a1.217,1.217,0,0,0,1.654-.486,74.861,74.861,0,0,1,20.256-23.7,1.219,1.219,0,0,0-1.484-1.935,77.287,77.287,0,0,0-20.911,24.469A1.218,1.218,0,0,0,1633.39,1140.673Z" transform="translate(-1623.172 -1111.752)"/><path class="a" d="M1582.393,1300.289a1.193,1.193,0,0,0,.174.012,1.219,1.219,0,0,0,1.206-1.047,77.516,77.516,0,0,1,6.941-22.8,1.219,1.219,0,1,0-2.2-1.061,79.953,79.953,0,0,0-7.16,23.518A1.219,1.219,0,0,0,1582.393,1300.289Z" transform="translate(-1580.589 -1244.621)"/><path class="a" d="M1582.6,1470.844a1.22,1.22,0,0,0,1.161-1.592c-2.726-8.506-5.12-17.983-4.186-29.636a1.219,1.219,0,0,0-2.431-.194c-.967,12.075,1.492,21.831,4.295,30.574A1.22,1.22,0,0,0,1582.6,1470.844Z" transform="translate(-1576.933 -1380.136)"/><path class="a" d="M2030.931,1553.772a1.218,1.218,0,0,0-.885,1.48c2.525,10.027,2.894,19.086,1.13,27.7a1.219,1.219,0,0,0,.949,1.439,1.268,1.268,0,0,0,.246.025,1.22,1.22,0,0,0,1.193-.975c1.84-8.977,1.463-18.39-1.154-28.78A1.22,1.22,0,0,0,2030.931,1553.772Z" transform="translate(-1952.232 -1475.754)"/><path class="a" d="M2006.844,1354.975a3.787,3.787,0,0,0-.933.779,4.716,4.716,0,0,0-.892,4.433c.326,1.1.776,2.516,1.335,4.22.267.814.553,1.684.849,2.61a1.219,1.219,0,1,0,2.323-.742c-.3-.932-.586-1.81-.855-2.629-.553-1.683-1-3.08-1.315-4.155a2.264,2.264,0,0,1,.387-2.129,1.354,1.354,0,0,1,.328-.281,35.168,35.168,0,0,0,16.185-20.8,1.219,1.219,0,1,0-2.344-.671A32.741,32.741,0,0,1,2006.844,1354.975Z" transform="translate(-1931.362 -1294.345)"/><path class="a" d="M1702.689,1117.523a1.219,1.219,0,0,0,1.881,1.551,69.337,69.337,0,0,1,18.639-15.864c.881-.514,1.8-.991,2.719-1.419a1.219,1.219,0,0,0-1.025-2.212c-.991.46-1.974.973-2.921,1.524A71.766,71.766,0,0,0,1702.689,1117.523Z" transform="translate(-1680.87 -1099.467)"/><path class="a" d="M1640.536,1236.882a1.218,1.218,0,0,0,1.6-.642,71.729,71.729,0,0,1,8.217-14.375,1.219,1.219,0,1,0-1.962-1.447,74.154,74.154,0,0,0-8.5,14.864A1.22,1.22,0,0,0,1640.536,1236.882Z" transform="translate(-1629.004 -1199.244)"/><path class="a" d="M1609.438,1334.865a75.665,75.665,0,0,0-3.869,18.585c-.891,11.116,1.459,20.42,3.874,28.056a1.219,1.219,0,0,0,2.325-.735c-2.462-7.784-4.623-16.458-3.768-27.126a73.216,73.216,0,0,1,3.743-17.986,1.219,1.219,0,0,0-2.306-.794Z" transform="translate(-1600.494 -1293.774)"/><path class="a" d="M1607.959,1637.034a1.219,1.219,0,0,0-1.218-2.113q-.74.427-1.6.9c-.681.378-1.355.781-2,1.2a1.219,1.219,0,1,0,1.319,2.051c.6-.388,1.232-.764,1.867-1.116Q1607.2,1637.47,1607.959,1637.034Z" transform="translate(-1598.179 -1542.869)"/><path class="a" d="M1997.081,1540.269a1.219,1.219,0,0,0-.83,1.511c2.55,8.752,5.314,22.042-.1,36.34a1.219,1.219,0,1,0,2.281.864c5.677-14.981,2.813-28.8.165-37.886A1.22,1.22,0,0,0,1997.081,1540.269Z" transform="translate(-1924.118 -1464.56)"/><path class="a" d="M1980.921,1281.348a8.742,8.742,0,0,0-2.562,2.294,9.706,9.706,0,0,0-1.448,8.633c.332,1.114.784,2.54,1.343,4.241a1.219,1.219,0,0,0,2.316-.761c-.552-1.68-1-3.086-1.323-4.179a7.261,7.261,0,0,1,1.054-6.46,6.315,6.315,0,0,1,1.848-1.661,30.542,30.542,0,0,0,14.709-31.51,1.219,1.219,0,0,0-2.4.415,28.1,28.1,0,0,1-13.533,28.988Z" transform="translate(-1907.894 -1224.932)"/><path class="a" d="M1648.607,1154.268a1.219,1.219,0,1,0,2.347.658,65.564,65.564,0,0,1,30.1-39.269,28.056,28.056,0,0,1,14.112-3.813,1.219,1.219,0,1,0,0-2.438,30.5,30.5,0,0,0-15.339,4.145A67.988,67.988,0,0,0,1648.607,1154.268Z" transform="translate(-1636.266 -1107.7)"/><path class="a" d="M1664.121,1620.747l-.377.123-.781.258Z" transform="translate(-1648.195 -1531.263)"/><path class="a" d="M1636.392,1409.415a68.816,68.816,0,0,1,.936-7.073,1.219,1.219,0,1,0-2.4-.445,71.353,71.353,0,0,0-.969,7.324c-.972,12.138,2.245,21.93,4.831,29.8l.782-.255,1.535-.505C1638.592,1430.6,1635.459,1421.064,1636.392,1409.415Z" transform="translate(-1624.025 -1349.155)"/><path class="a" d="M1623.021,1654.5a1.219,1.219,0,0,0-1.274-2.079c-1.105.678-2.349,1.4-3.7,2.148-.753.418-1.495.871-2.2,1.346a1.219,1.219,0,1,0,1.356,2.026c.654-.437,1.337-.855,2.031-1.24C1620.611,1655.937,1621.886,1655.2,1623.021,1654.5Z" transform="translate(-1608.717 -1557.351)"/><path class="a" d="M1952.47,1371.653c-.358-1.09-.9-2.736-1.351-4.257a12.266,12.266,0,0,1,1.674-10.636,11.2,11.2,0,0,1,3.433-3.143,25.416,25.416,0,0,0,10.253-11.155,1.219,1.219,0,0,0-2.206-1.04,22.986,22.986,0,0,1-9.275,10.088,13.622,13.622,0,0,0-4.18,3.819,14.719,14.719,0,0,0-2.037,12.76c.462,1.556,1.01,3.222,1.372,4.324,2.981,9.077,7.972,24.27,1.064,40.409-.608,1.421-1.287,2.823-2.018,4.168a1.219,1.219,0,1,0,2.143,1.163c.766-1.411,1.478-2.882,2.116-4.372C1960.73,1396.8,1955.559,1381.057,1952.47,1371.653Z" transform="translate(-1884.427 -1299.309)"/><path class="a" d="M2038.439,1227.086q-.076.328-.163.655a1.219,1.219,0,1,0,2.358.62c.063-.24.123-.481.179-.721a25.488,25.488,0,0,0-2.815-18.7,1.219,1.219,0,1,0-2.107,1.228A23.054,23.054,0,0,1,2038.439,1227.086Z" transform="translate(-1956.968 -1189.646)"/><path class="a" d="M1781.348,1141.3a62.027,62.027,0,0,0-12.843,9.953,1.219,1.219,0,1,0,1.732,1.715,59.622,59.622,0,0,1,12.338-9.562,23.154,23.154,0,0,1,28.816,4.456,1.219,1.219,0,0,0,1.8-1.641,25.592,25.592,0,0,0-31.848-4.921Z" transform="translate(-1735.326 -1131.233)"/><path class="a" d="M1642.02,1312.027q.451-.33.824-.623a5.353,5.353,0,0,0,1.834-5.73c-.508-1.762-1.148-3.714-1.538-4.9-2.38-7.241-5.341-16.254-4.487-26.925a62.189,62.189,0,0,1,14.2-35.079,1.219,1.219,0,0,0-1.873-1.561,64.614,64.614,0,0,0-14.755,36.446c-.894,11.16,2.153,20.431,4.608,27.9.377,1.151,1.009,3.077,1.5,4.8a2.926,2.926,0,0,1-.995,3.135q-.345.271-.76.574a73.349,73.349,0,0,1-7.456,4.623c-.663.368-1.316.769-1.942,1.192a1.219,1.219,0,1,0,1.365,2.02c.568-.383,1.16-.746,1.76-1.079A75.769,75.769,0,0,0,1642.02,1312.027Z" transform="translate(-1621.425 -1213.199)"/><path class="a" d="M1921.839,1680.287a1.216,1.216,0,0,0-1.349,1.074,38.468,38.468,0,0,1-2.863,10.809,44.548,44.548,0,0,1-4.4,7.918,1.219,1.219,0,1,0,2,1.395,46.986,46.986,0,0,0,4.637-8.353,40.9,40.9,0,0,0,3.044-11.494A1.22,1.22,0,0,0,1921.839,1680.287Z" transform="translate(-1855.32 -1580.575)"/><path class="a" d="M1928.707,1380.324a1.219,1.219,0,0,0-1.228-2.107,20.124,20.124,0,0,0-9.569,15.965c-.188,2.352,1.2,6.583,2.547,10.678,1.669,5.081,3.745,11.4,4.229,18.56a1.219,1.219,0,0,0,1.215,1.137c.028,0,.055,0,.083,0a1.219,1.219,0,0,0,1.134-1.3c-.5-7.46-2.634-13.945-4.346-19.16-1.15-3.5-2.581-7.857-2.432-9.719A17.689,17.689,0,0,1,1928.707,1380.324Z" transform="translate(-1859.363 -1330.229)"/><path class="a" d="M1781.311,1199.743a1.219,1.219,0,0,0,1.708-.232,20.731,20.731,0,0,0-26.935-30.467,57.941,57.941,0,0,0-21.238,21.64,1.219,1.219,0,0,0,2.124,1.2,55.51,55.51,0,0,1,20.342-20.731,18.3,18.3,0,0,1,23.767,26.884A1.219,1.219,0,0,0,1781.311,1199.743Z" transform="translate(-1707.608 -1154.765)"/><path class="a" d="M1664.948,1391.311c.642-1.5-.2-4.653-2.334-11.15-2.243-6.827-5.034-15.323-4.259-25.013a58.23,58.23,0,0,1,4.8-18.988,1.219,1.219,0,0,0-2.23-.987,60.659,60.659,0,0,0-5,19.78c-.815,10.18,2.061,18.935,4.373,25.969.886,2.7,2.731,8.319,2.408,9.429-1.482,3.462-9.68,8.01-12.374,9.5-.406.225-.814.47-1.212.726a1.219,1.219,0,1,0,1.322,2.049c.352-.228.713-.444,1.072-.643C1656.926,1398.986,1663.343,1395.059,1664.948,1391.311Z" transform="translate(-1636.266 -1294.109)"/><path class="a" d="M1875.105,1434.245c-1.485-4.52-2.886-8.789-2.66-11.629a24.152,24.152,0,0,1,2.154-8.271,1.219,1.219,0,1,0-2.212-1.026,26.582,26.582,0,0,0-2.373,9.1c-.266,3.329,1.211,7.825,2.774,12.586,2.879,8.766,6.823,20.772,1.363,33.525a40.286,40.286,0,0,1-7.881,11.9,1.219,1.219,0,0,0,1.776,1.67,42.676,42.676,0,0,0,8.346-12.608C1882.216,1455.893,1878.106,1443.382,1875.105,1434.245Z" transform="translate(-1816.329 -1358.857)"/><path class="a" d="M1894.008,1214.527a15.749,15.749,0,0,0-1.632-12.023,15.848,15.848,0,0,0-21.673-5.714,1.219,1.219,0,0,0,1.228,2.107,13.411,13.411,0,0,1,13.5,23.175,23.175,23.175,0,0,0-5.878,4.9,1.219,1.219,0,0,0,1.845,1.594,20.747,20.747,0,0,1,5.26-4.386A15.747,15.747,0,0,0,1894.008,1214.527Z" transform="translate(-1819.773 -1178.298)"/><path class="a" d="M1740.7,1233.491a1.219,1.219,0,1,0-1.528-1.9,54.845,54.845,0,0,0-20,38.329,39.919,39.919,0,0,0-.083,4.934,1.219,1.219,0,0,0,1.217,1.165h.054a1.219,1.219,0,0,0,1.164-1.272,37.572,37.572,0,0,1,.078-4.632A52.4,52.4,0,0,1,1740.7,1233.491Z" transform="translate(-1694.658 -1208.687)"/><path class="a" d="M1686.359,1542.093c1.475-3.446-.139-8.364-2.185-14.594a92.263,92.263,0,0,1-3.4-12.338,1.219,1.219,0,0,0-2.4.438,94.254,94.254,0,0,0,3.48,12.665c1.884,5.738,3.372,10.27,2.258,12.87-1.885,4.4-8.383,8.461-14.491,11.851a1.219,1.219,0,0,0,.593,2.285,1.205,1.205,0,0,0,.59-.153C1677.279,1551.526,1684.185,1547.171,1686.359,1542.093Z" transform="translate(-1653.194 -1442.972)"/><path class="a" d="M1836.989,1500.163a75.32,75.32,0,0,1-2.527-8.822,1.219,1.219,0,1,0-2.394.462,76.988,76.988,0,0,0,2.6,9.121c2.784,8.476,6.249,19.024,1.513,30.085a37.69,37.69,0,0,1-10.25,13.627,1.219,1.219,0,0,0,1.6,1.836,40.066,40.066,0,0,0,10.888-14.5C1843.525,1520.061,1839.9,1509.028,1836.989,1500.163Z" transform="translate(-1782.845 -1423.252)"/><path class="a" d="M1852.679,1266.322a1.219,1.219,0,0,0,1.214-1.122,27.433,27.433,0,0,1,13.178-21.7,10.972,10.972,0,0,0,3.957-15.006,10.97,10.97,0,0,0-15-3.956,47.286,47.286,0,0,0-6.166,4.285,1.219,1.219,0,0,0,1.546,1.885,44.84,44.84,0,0,1,5.847-4.064,8.534,8.534,0,1,1,8.593,14.748,29.87,29.87,0,0,0-14.381,23.615,1.22,1.22,0,0,0,1.118,1.312C1852.614,1266.32,1852.646,1266.322,1852.679,1266.322Z" transform="translate(-1802.637 -1201.83)"/><path class="a" d="M1751.92,1355.6a1.219,1.219,0,1,0,1.968,1.44,17.114,17.114,0,0,0,1.938-3.355c2.2-5.138.331-10.829-2.035-18.037-2.072-6.306-4.42-13.453-3.8-21.186a48.066,48.066,0,0,1,11.853-28.041,1.219,1.219,0,1,0-1.82-1.623,50.519,50.519,0,0,0-12.463,29.469c-.658,8.222,1.771,15.617,3.916,22.144,2.206,6.717,3.948,12.022,2.11,16.314A14.694,14.694,0,0,1,1751.92,1355.6Z" transform="translate(-1718.178 -1252.647)"/><path class="a" d="M1706.3,1714.609a1.218,1.218,0,0,0-1.723-.042,53.764,53.764,0,0,1-10.534,7.385,1.219,1.219,0,0,0,1.211,2.117,56.006,56.006,0,0,0,11-7.736A1.218,1.218,0,0,0,1706.3,1714.609Z" transform="translate(-1673.432 -1608.699)"/><path class="a" d="M1802.006,1609.752c3.524-8.232,2.017-16.237.309-22.292a1.219,1.219,0,0,0-2.347.662c1.7,6.02,3,13.183-.2,20.67-2.283,5.332-6.31,10.088-12.31,14.542a1.219,1.219,0,0,0,1.453,1.958C1795.264,1620.575,1799.549,1615.491,1802.006,1609.752Z" transform="translate(-1750.908 -1502.955)"/><path class="a" d="M1797.654,1303.8c-1.8-5.479-3.5-10.654-3.115-15.45a32.307,32.307,0,0,1,15.584-25.527,6.1,6.1,0,1,0-6.137-10.534,44.278,44.278,0,0,0-20.323,27.356,1.219,1.219,0,1,0,2.364.6,41.825,41.825,0,0,1,19.186-25.848,3.657,3.657,0,1,1,3.682,6.32,34.746,34.746,0,0,0-16.787,27.44c-.422,5.284,1.352,10.686,3.231,16.41Z" transform="translate(-1748.144 -1225.371)"/><path class="a" d="M1783.981,1489.933h.038a1.22,1.22,0,0,0,1.181-1.256c-.134-4.425-1.648-9.035-3.252-13.919-2.022-6.156-4.113-12.521-3.573-19.275a1.219,1.219,0,1,0-2.431-.194c-.579,7.243,1.59,13.845,3.688,20.235,1.546,4.708,3.006,9.156,3.129,13.229A1.219,1.219,0,0,0,1783.981,1489.933Z" transform="translate(-1741.703 -1393.278)"/><path class="a" d="M1738.318,1691.041a1.219,1.219,0,0,0-2.242-.96c-2.132,4.979-6.631,9.344-14.588,14.154a1.219,1.219,0,0,0,1.262,2.087C1728.419,1702.895,1735.313,1698.061,1738.318,1691.041Z" transform="translate(-1696.186 -1588.082)"/><path class="a" d="M1805.921,1312.612a1.219,1.219,0,0,0,1.214-1.122,37.181,37.181,0,0,1,17.99-29.353,1.219,1.219,0,0,0-1.228-2.107A39.619,39.619,0,0,0,1804.7,1311.3a1.219,1.219,0,0,0,1.118,1.312C1805.855,1312.611,1805.888,1312.612,1805.921,1312.612Z" transform="translate(-1765.601 -1248.897)"/><path class="a" d="M1768.618,1536.154c3.648-8.523.911-16.858-1.736-24.919a82.185,82.185,0,0,1-2.875-10.2,1.219,1.219,0,1,0-2.4.451,83.962,83.962,0,0,0,2.954,10.512c2.622,7.983,5.1,15.522,1.811,23.2-2.282,5.331-6.655,9.989-13.76,14.66a1.219,1.219,0,1,0,1.339,2.037C1761.48,1546.945,1766.139,1541.944,1768.618,1536.154Z" transform="translate(-1722.003 -1431.276)"/></g><g transform="translate(1158 2568)"><path class="a" d="M2569.774,1781.526c-1.788-.6-3.56-1.241-5.264-1.914a1.222,1.222,0,0,0-1.183.163c-2.01,1.523-4.1,2.958-6.22,4.265a1.219,1.219,0,1,0,1.281,2.075c1.991-1.229,3.961-2.568,5.864-3.985,1.547.6,3.142,1.172,4.75,1.71a1.219,1.219,0,0,0,.772-2.313Z" transform="translate(-2508.335 -1663.265)"/><path class="a" d="M2530.492,1751.519a104.272,104.272,0,0,1-12.74-4.454,1.217,1.217,0,0,0-1.246.177,75.336,75.336,0,0,1-14.829,9.439,1.219,1.219,0,1,0,1.059,2.2,77.695,77.695,0,0,0,14.739-9.285,106.8,106.8,0,0,0,12.364,4.275,1.219,1.219,0,0,0,.654-2.349Z" transform="translate(-2462.328 -1636.295)"/><path class="a" d="M2752.13,1250.482a18.287,18.287,0,0,0,1.861,1.009,1.219,1.219,0,1,0,1.04-2.205,15.941,15.941,0,0,1-1.613-.874,18.609,18.609,0,0,1-4.568-4.073,1.219,1.219,0,0,0-1.889,1.542A21.048,21.048,0,0,0,2752.13,1250.482Z" transform="translate(-2665.85 -1219.576)"/><path class="a" d="M2699.257,1161.891a31.192,31.192,0,0,0,1.392,2.949,1.219,1.219,0,1,0,2.147-1.156,28.772,28.772,0,0,1-1.282-2.718,45.579,45.579,0,0,0-5.132-9.285,1.219,1.219,0,0,0-1.981,1.421A43.15,43.15,0,0,1,2699.257,1161.891Z" transform="translate(-2622.35 -1142.775)"/><path class="a" d="M2465.641,1768.7a1.219,1.219,0,0,0-1.653-.49,70.332,70.332,0,0,1-8.8,4.013,1.219,1.219,0,1,0,.857,2.283,72.658,72.658,0,0,0,9.1-4.153A1.219,1.219,0,0,0,2465.641,1768.7Z" transform="translate(-2423.737 -1653.768)"/><path class="a" d="M2557.436,1720.4a98.606,98.606,0,0,1-19.042-6.5,1.22,1.22,0,0,0-1.312.189l-.681.594a71.315,71.315,0,0,1-8.968,6.583,1.219,1.219,0,0,0,1.283,2.074,73.822,73.822,0,0,0,9.281-6.813l.1-.083a101.134,101.134,0,0,0,18.794,6.336,1.219,1.219,0,0,0,.549-2.375Z" transform="translate(-2483.755 -1608.81)"/><path class="a" d="M2610.381,1111.712a37.644,37.644,0,0,1,14.494,17.481c1.764,4.315,5.159,10.26,11.314,14.083a23.527,23.527,0,0,0,6.238,2.691,1.219,1.219,0,1,0,.638-2.354,21.1,21.1,0,0,1-5.591-2.41c-5.6-3.478-8.714-8.953-10.342-12.935a40.071,40.071,0,0,0-15.43-18.607,1.219,1.219,0,0,0-1.321,2.05Z" transform="translate(-2552.48 -1108.229)"/><path class="a" d="M2500.737,1104.688a32.669,32.669,0,0,1,28.323,20.376c2.039,4.982,5.993,11.867,13.248,16.38a28.969,28.969,0,0,0,9.646,3.759,1.2,1.2,0,0,0,.24.024,1.219,1.219,0,0,0,.237-2.415,26.533,26.533,0,0,1-8.836-3.439c-6.7-4.168-10.376-10.584-12.278-15.232a35.092,35.092,0,0,0-30.423-21.886,1.219,1.219,0,1,0-.156,2.434Z" transform="translate(-2461.176 -1102.252)"/><path class="a" d="M2276.92,1300.4c.817.058,1.678.155,2.54.284a6.2,6.2,0,0,0,.9.056,7.019,7.019,0,0,0,1.442-.134,1.22,1.22,0,0,0,.894-.775,7.5,7.5,0,0,0-.34-4.871,32.719,32.719,0,0,1-1.824-15.151,1.219,1.219,0,0,0-2.422-.284,35.167,35.167,0,0,0,1.96,16.282,6.491,6.491,0,0,1,.442,2.492l-.152,0a4.532,4.532,0,0,1-.517-.026c-.943-.141-1.867-.245-2.747-.308a1.219,1.219,0,1,0-.174,2.432Z" transform="translate(-2275.788 -1248.198)"/><path class="a" d="M2469.444,1688.211a93.754,93.754,0,0,1-24.432-8.3,1.218,1.218,0,0,0-1.4.214c-.958.93-1.947,1.836-2.935,2.691a65.614,65.614,0,0,1-24.665,13.355,1.22,1.22,0,0,0,.339,2.391,1.2,1.2,0,0,0,.341-.05,68.033,68.033,0,0,0,25.578-13.85c.812-.7,1.623-1.437,2.417-2.189a96.252,96.252,0,0,0,24.294,8.136,1.219,1.219,0,0,0,.461-2.395Z" transform="translate(-2391.214 -1580.637)"/><path class="a" d="M2318.875,1176.571a1.219,1.219,0,0,0,1.031,1.382,1.24,1.24,0,0,0,.177.013,1.219,1.219,0,0,0,1.2-1.044,13.369,13.369,0,0,0-.8-6.433,28.167,28.167,0,0,1,16.087-35.893,28.035,28.035,0,0,1,36.145,15.5c2.311,5.646,6.822,13.469,15.189,18.672a34,34,0,0,0,12.44,4.614,1.219,1.219,0,1,0,.4-2.406,31.575,31.575,0,0,1-11.552-4.28c-7.812-4.858-12.044-12.211-14.219-17.524a30.478,30.478,0,0,0-56.774,22.169A10.911,10.911,0,0,1,2318.875,1176.571Z" transform="translate(-2309.356 -1125.432)"/><path class="a" d="M2283.894,1416.13a5.8,5.8,0,0,1-3.535.851,9.609,9.609,0,0,1-1.226-.075h-.012c-.685-.1-1.362-.183-2.013-.237a1.219,1.219,0,1,0-.2,2.43c.6.05,1.228.124,1.863.22l.043.006a12.2,12.2,0,0,0,1.544.1,7.96,7.96,0,0,0,5.125-1.441,1.219,1.219,0,0,0-1.591-1.848Z" transform="translate(-2275.789 -1362.005)"/><path class="a" d="M2445.744,1654.889a89.031,89.031,0,0,1-29.079-10.012,1.22,1.22,0,0,0-1.49.244,59.642,59.642,0,0,1-5.12,4.962,60.821,60.821,0,0,1-27.085,13.436,1.22,1.22,0,0,0,.258,2.411,1.264,1.264,0,0,0,.26-.028,63.24,63.24,0,0,0,28.157-13.971,62,62,0,0,0,4.676-4.462,91.49,91.49,0,0,0,29.035,9.827,1.219,1.219,0,1,0,.387-2.407Z" transform="translate(-2363.775 -1551.602)"/><path class="a" d="M2367.161,1199.442a36.586,36.586,0,0,1-14.1-5.076c-8.915-5.543-13.706-13.836-16.156-19.817a25.6,25.6,0,0,0-47.694,18.623c1.985,5.339,1.127,10.81-2.135,13.614-1.947,1.678-4.725,2.03-6.714,2.03a13.471,13.471,0,0,1-1.964-.133c-.42-.061-.844-.118-1.27-.158a1.219,1.219,0,1,0-.234,2.427c.385.037.769.089,1.14.143a15.865,15.865,0,0,0,2.328.161c2.4,0,5.792-.455,8.3-2.621,4.031-3.466,5.168-10.021,2.83-16.312a23.269,23.269,0,0,1,13.289-29.651,23.156,23.156,0,0,1,29.862,12.8c2.585,6.314,7.656,15.076,17.125,20.963a39.007,39.007,0,0,0,15.038,5.418,1.219,1.219,0,0,0,.353-2.413Z" transform="translate(-2275.788 -1148.964)"/><path class="a" d="M2425.786,1620.19a84.315,84.315,0,0,1-33.12-11.764,1.219,1.219,0,0,0-1.592.278,56.12,56.12,0,0,1-35.786,20.511,1.219,1.219,0,0,0,.186,2.424,1.269,1.269,0,0,0,.189-.014,58.568,58.568,0,0,0,36.639-20.567,86.752,86.752,0,0,0,33.158,11.549,1.219,1.219,0,1,0,.326-2.416Z" transform="translate(-2340.785 -1521.385)"/><path class="a" d="M2367.142,1227.9a41.525,41.525,0,0,1-16.66-5.859c-10.027-6.233-15.375-15.463-18.1-22.108A20.725,20.725,0,0,0,2293.778,1215c2.7,7.239,1.281,14.879-3.52,19.011-3.083,2.654-7.085,3.211-9.9,3.211a18.126,18.126,0,0,1-2.695-.19c-.168-.026-.336-.047-.5-.068a1.219,1.219,0,1,0-.3,2.419c.144.018.288.036.432.059a20.758,20.758,0,0,0,3.07.219c3.227,0,7.84-.659,11.49-3.8,5.571-4.795,7.264-13.519,4.214-21.709a18.372,18.372,0,0,1,10.494-23.409,18.282,18.282,0,0,1,23.572,10.109c2.857,6.979,8.485,16.678,19.065,23.255a43.93,43.93,0,0,0,17.632,6.205,1.219,1.219,0,1,0,.316-2.417Z" transform="translate(-2275.788 -1172.498)"/><path class="a" d="M2409.175,1583.692a79.708,79.708,0,0,1-33.281-11.509c-1.145-.713-2.274-1.456-3.356-2.209a1.219,1.219,0,0,0-1.709.322,51.227,51.227,0,0,1-9.113,10.294,52.083,52.083,0,0,1-29.291,12.332,1.219,1.219,0,0,0,.123,2.432c.042,0,.083,0,.125-.006a54.477,54.477,0,0,0,30.634-12.909,53.556,53.556,0,0,0,8.85-9.771c.8.539,1.622,1.07,2.449,1.586a82.116,82.116,0,0,0,34.291,11.86,1.219,1.219,0,1,0,.278-2.422Z" transform="translate(-2321.795 -1489.503)"/><path class="a" d="M2276.838,1267.843a26.278,26.278,0,0,0,3.519.231c4.053,0,9.888-.865,14.67-4.982,7.106-6.121,9.36-17.012,5.609-27.1a13.475,13.475,0,0,1,7.7-17.167,13.4,13.4,0,0,1,17.285,7.412c3.131,7.646,9.315,18.286,21,25.553a48.826,48.826,0,0,0,20.222,6.973,1.219,1.219,0,0,0,.286-2.421,46.412,46.412,0,0,1-19.22-6.622c-11.133-6.922-17.038-17.093-20.032-24.406a15.849,15.849,0,0,0-29.522,11.528c3.4,9.14,1.422,18.948-4.915,24.405-4.214,3.629-9.438,4.392-13.078,4.392a23.735,23.735,0,0,1-3.184-.208,1.219,1.219,0,1,0-.335,2.416Z" transform="translate(-2275.786 -1196.029)"/><path class="a" d="M2395.6,1544.592a75.022,75.022,0,0,1-32.5-10.93,76.914,76.914,0,0,1-7.282-5.146,1.219,1.219,0,0,0-1.837.382,46.821,46.821,0,0,1-10.819,13.615,48.439,48.439,0,0,1-29.232,11.377,1.219,1.219,0,0,0,.064,2.436l.066,0a50.851,50.851,0,0,0,30.693-11.963,49.082,49.082,0,0,0,10.683-13.047c2.046,1.571,4.185,3.054,6.376,4.42a77.463,77.463,0,0,0,33.549,11.286,1.219,1.219,0,0,0,.24-2.427Z" transform="translate(-2306.429 -1455.122)"/><path class="a" d="M2276.874,1296.3a32.136,32.136,0,0,0,3.484.188c4.877,0,11.932-1.069,17.85-6.162,8.644-7.445,11.456-20.506,7-32.5a8.534,8.534,0,0,1,15.9-6.2c3.4,8.311,10.138,19.887,22.943,27.845a53.6,53.6,0,0,0,22.8,7.746,1.219,1.219,0,1,0,.26-2.424,51.2,51.2,0,0,1-21.778-7.392c-12.25-7.614-18.71-18.72-21.973-26.7a10.973,10.973,0,0,0-20.442,7.978c4.1,11.045,1.57,23.022-6.3,29.8-5.35,4.605-11.794,5.572-16.259,5.572a29.453,29.453,0,0,1-3.217-.173,1.219,1.219,0,0,0-.267,2.424Z" transform="translate(-2275.788 -1219.562)"/><path class="a" d="M2384.811,1501.241a70.373,70.373,0,0,1-31.16-10.3,71.538,71.538,0,0,1-11.537-8.924,1.22,1.22,0,0,0-1.985.464,42.862,42.862,0,0,1-12.169,17.759c-9.687,8.342-20.842,10.193-28.493,10.277a1.219,1.219,0,0,0,.013,2.438h.014c8.058-.089,19.813-2.046,30.057-10.867a45.13,45.13,0,0,0,12.21-17.074,73.972,73.972,0,0,0,10.6,8,72.8,72.8,0,0,0,32.228,10.654,1.219,1.219,0,0,0,.218-2.429Z" transform="translate(-2294.404 -1416.551)"/><path class="a" d="M2281.068,1324.916c5.717,0,13.943-1.288,20.983-7.346,10.186-8.766,13.555-23.993,8.385-37.89a3.658,3.658,0,0,1,6.814-2.659c3.677,8.979,10.979,21.5,24.883,30.136a58.577,58.577,0,0,0,25.389,8.508,1.219,1.219,0,1,0,.241-2.427,56.16,56.16,0,0,1-24.343-8.152c-13.35-8.3-20.374-20.344-23.914-28.989a6.1,6.1,0,0,0-11.356,4.433c4.816,12.945,1.727,27.088-7.69,35.192-7.911,6.808-17.522,7.068-22.548,6.615a1.219,1.219,0,0,0-.218,2.429C2278.671,1324.853,2279.809,1324.916,2281.068,1324.916Z" transform="translate(-2276.448 -1243.118)"/><path class="a" d="M2376.238,1448.963a65.6,65.6,0,0,1-29.288-9.6,67.05,67.05,0,0,1-16.486-14.5,1.219,1.219,0,0,0-2.148.586A38.941,38.941,0,0,1,2315.5,1449.1c-9.26,7.969-20.129,9.25-27.11,9.088a1.183,1.183,0,0,0-1.332,1.208c0,1.207,1.291,1.23,1.3,1.23h0q.6.014,1.239.014c7.4,0,18.182-1.682,27.49-9.693a41.081,41.081,0,0,0,13.157-22.579,69.3,69.3,0,0,0,15.41,13.059,68.026,68.026,0,0,0,30.365,9.962,1.219,1.219,0,1,0,.209-2.43Z" transform="translate(-2285.127 -1369.106)"/><path class="a" d="M2370.908,1341.629a60.925,60.925,0,0,1-26.909-8.892c-14.465-8.99-22.042-21.978-25.849-31.291a1.22,1.22,0,0,0-2.272.886c5.52,14.851,1.869,31.164-9.084,40.592-8.842,7.611-19.527,8.186-25.11,7.852a1.2,1.2,0,0,0-1.29,1.144,1.219,1.219,0,0,0,1.144,1.29c.759.046,1.607.075,2.528.075,6.3,0,16.036-1.383,24.319-8.513,9.172-7.894,13.574-20.261,12.241-32.838a66.149,66.149,0,0,0,22.086,22.875,63.341,63.341,0,0,0,27.975,9.249,1.219,1.219,0,1,0,.221-2.428Z" transform="translate(-2279.602 -1266.624)"/></g></g></svg>