<svg xmlns="http://www.w3.org/2000/svg" xmlns:xlink="http://www.w3.org/1999/xlink" width="59.797" height="42.667" viewBox="0 0 59.797 42.667"><defs><style>.a{fill:#fff;}.b{fill:url(#a);}.c{fill:url(#b);}</style><linearGradient id="a" x1="0.5" x2="0.5" y2="1" gradientUnits="objectBoundingBox"><stop offset="0" stop-color="#b1ffec"/><stop offset="1" stop-color="#0077ec"/></linearGradient><linearGradient id="b" x1="0.5" x2="0.5" y2="1" gradientUnits="objectBoundingBox"><stop offset="0" stop-color="#0077ec"/><stop offset="1" stop-color="#03e6b0"/></linearGradient></defs><g transform="translate(-10.998 -81.369)"><path class="a" d="M89.528,266.183l3.712,1.561a.732.732,0,1,0,.568-1.35L90.1,264.834a.732.732,0,1,0-.568,1.35Z" transform="translate(-68.988 -163.638)"/><path class="a" d="M82.642,313.342a.731.731,0,0,0,.261-.049L86.284,312a.732.732,0,1,0-.523-1.368l-3.38,1.291a.732.732,0,0,0,.261,1.416Z" transform="translate(-62.693 -203.857)"/><path class="b" d="M190.558,115.236l-8.452-8.435a2.061,2.061,0,0,0-3.209-2.546l-.706.7-7.155-7.141,4.08-4.072.143.142a1.4,1.4,0,0,0,1.975,0l1.6-1.6a.732.732,0,0,0,0-1.037l-9.712-9.671a.732.732,0,0,0-1.034,0l-1.6,1.6a1.4,1.4,0,0,0,0,1.977l.139.138-11.7,11.675-.142-.141a1.4,1.4,0,0,0-1.975,0l-1.6,1.6a.732.732,0,0,0,0,1.036l9.7,9.682a.732.732,0,0,0,1.035,0l1.6-1.6a1.4,1.4,0,0,0,0-1.976l-.14-.139,4.081-4.073,7.155,7.141-.7.7a2.061,2.061,0,0,0,2.549,3.2l8.452,8.435a2.062,2.062,0,0,0,3.209,2.546l4.957-4.947a2.06,2.06,0,0,0-2.549-3.2Zm-21.952-32.1,8.674,8.637L176.246,92.8l-8.674-8.637Zm-7.174,24.455-8.664-8.647,1.034-1.032,8.664,8.647Zm.941-3.193L155.967,98l11.7-11.676,6.413,6.386Zm6.154-4.073L170,98.854l7.155,7.141-1.473,1.471Zm7.3,10.757a.6.6,0,0,1-.848,0,.594.594,0,0,1,0-.842l4.957-4.947a.6.6,0,0,1,.848,0,.594.594,0,0,1,0,.842Zm1.742.33,3.544-3.537,8.374,8.358-3.544,3.537Zm14.507,5.993-4.957,4.947a.6.6,0,0,1-.848,0,.594.594,0,0,1,0-.842l4.957-4.947a.6.6,0,0,1,.848,0,.594.594,0,0,1,0,.842Z" transform="translate(-122.916)"/><path class="a" d="M279.76,144.873a.732.732,0,0,0-1.035,0l-.6.6a.732.732,0,1,0,1.035,1.036l.6-.6a.732.732,0,0,0,0-1.035Z" transform="translate(-234.343 -55.566)"/><path class="a" d="M223.427,166.2l-5.317,5.317a.732.732,0,1,0,1.035,1.035l5.317-5.317a.732.732,0,0,0-1.035-1.035Z" transform="translate(-181.649 -74.294)"/><path class="c" d="M49.561,347.6v-1.741A2.847,2.847,0,0,0,46.713,343H16.7a2.887,2.887,0,0,0-2.895,2.857V347.6A2.83,2.83,0,0,0,11,350.461v2.5a.772.772,0,0,0,.732.777H51.683a.734.734,0,0,0,.685-.777v-2.5a2.83,2.83,0,0,0-2.807-2.864ZM15.27,345.857a1.422,1.422,0,0,1,1.43-1.393H46.713a1.381,1.381,0,0,1,1.384,1.393v1.78H15.27ZM50.9,352.274H12.463v-1.813a1.368,1.368,0,0,1,1.4-1.36H49.551a1.328,1.328,0,0,1,1.353,1.36Z" transform="translate(0 -229.703)"/></g></svg>