<svg xmlns="http://www.w3.org/2000/svg" width="164.264" height="259.255" viewBox="0 0 164.264 259.255"><defs><style>.a{fill:#92e3a9;}.b,.f,.k{fill:#fff;}.c,.i,.j,.l{fill:none;}.c,.i,.k{stroke:#263238;}.c,.i,.j,.k,.l{stroke-linecap:round;stroke-linejoin:round;}.c,.j,.k,.l{stroke-width:1.103px;}.d{fill:#03e6b0;}.e{fill:#ffaf82;}.f{opacity:0.5;}.g,.j{opacity:0.2;}.h{fill:#263238;}.i{stroke-width:2.206px;}.j,.l{stroke:#fff;}</style></defs><g transform="translate(-80.982 -65.103)"><g transform="translate(81.415 65.103)"><path class="a" d="M149.158,297.761s-29.217,8.38-33.3,9.825c-3.712,1.311-13.769,4.834-21.316,3.745a16.506,16.506,0,0,1-2.156-.466c-7.646-2.278-11.08-4.4-12.08-9.213s2.8-8.346,6.468-10.614,23.561-4.633,23.561-4.633l4.8,1.411h.011Z" transform="translate(-80.144 -63.447)"/><path class="b" d="M94.545,311.331a16.506,16.506,0,0,1-2.156-.466c-7.646-2.278-11.08-4.4-12.08-9.213s2.8-8.346,6.468-10.614,23.561-4.633,23.561-4.633l4.8,1.411c-4.345,2-20.549,3.111-24.083,5.145s-5.246,5.868-3.156,11.047C89.011,306.763,91.989,309.431,94.545,311.331Z" transform="translate(-80.144 -63.447)"/><path class="c" d="M144.761,298.944s-21.943,5.685-30.644,9.324-25.3,5.231-31.215-2.274-.682-13.962,5.231-15.4,17.87-3.709,24.4-2.8" transform="translate(-80.143 -63.438)"/><path class="c" d="M94.936,310.922s-11.164-6.121-7.456-14.7c2.735-6.332,17.63-4.959,25-8.421" transform="translate(-80.095 -63.436)"/><path class="a" d="M237.423,312.691c-.3,2.989-1.356,5.857-4.379,7.635-2.012,1.19-4.879,1.9-8.981,1.857-10.246-.134-29.506-7.457-29.506-7.457l-18.037-9.969,9.38-14.848,2.567-4.067,6.635,1.489s5.49,3.112,11.013,5.591,18.927,3,23.65,6.824S237.934,307.712,237.423,312.691Z" transform="translate(-79.423 -63.451)"/><path class="b" d="M237.354,312.691c-.3,2.989-1.356,5.857-4.378,7.635a13.514,13.514,0,0,0-.512-9c-2-4.524-8.569-8.513-17.193-9.179s-15.225-4.7-18.682-6.5c-2.7-1.4-8.39-4.456-10.758-5.735l2.567-4.067,6.635,1.489s5.49,3.112,11.013,5.591,18.927,3,23.65,6.824S237.865,307.712,237.354,312.691Z" transform="translate(-79.353 -63.451)"/><path class="c" d="M180.5,307.507a113.859,113.859,0,0,0,42.218,14.422c3.28.395,7.1.449,9.3-2.017a6.873,6.873,0,0,0,1.514-5.153c-.4-4.63-4.291-8.3-8.561-10.137s-8.985-2.273-13.519-3.289a53.451,53.451,0,0,1-13-4.756c-3.259-1.7-6.416-3.767-10.013-4.529s-7.883.162-9.8,3.3" transform="translate(-79.407 -63.406)"/><path class="c" d="M230.744,321.2a12.015,12.015,0,0,0,6.6-8.523c.654-4.364-1.832-8.751-5.334-11.436s-7.879-3.945-12.2-4.844-8.74-1.5-12.851-3.107c-6.32-2.469-12.553-7.348-19.112-5.608" transform="translate(-79.338 -63.44)"/><path class="d" d="M201.5,152.658l-30.519-11.613-.378-.144s.112-.812.2-1.99c.188-2.434.289-6.4-.856-7.747-1.7-1.989-6.523-.322-11.224-2.478s-13.4,1.7-13.4,1.7-6.28-1.156-9.047,3.379c-1.411,3.656-.922,9.1-.922,9.1s-.2.078-.578.212c-3.634,1.355-23.416,8.8-27.606,11.792-4.623,3.278-9.735,36.9-11.381,46.765s-4.568,18.771-3.078,22.172,22.738,19.761,34.963,23.983,55.6,2.99,55.6,2.99.711-.189,1.967-.589c7.335-2.357,33.363-12.059,47.166-34.942C232.408,215.25,219.039,171.4,201.5,152.658ZM119.049,209.2c-2.245,1.59-1.045,7.758-1.045,7.758l-3.822-3.367,9.59-23.583,4.09,18.1S121.293,207.626,119.049,209.2Zm76.729,14.981c-1.056.545,3.034-10.791,1.089-13.358S189.1,208.5,189.1,208.5l.5-3.1c.068-.345,3.457-17.727,3.457-17.727l1.145-1.366s11.869,20.348,13.992,27.516C208.191,213.827,195.255,224.185,195.778,224.185Z" transform="translate(-80.053 -64.632)"/><path class="e" d="M143.625,79.466l-15.75,16.723s-2.173,1.919-1.31,6.77,2.873,9.019,4.393,9.342a21.588,21.588,0,0,0,3.647.326s3.375,7.314,5.766,10.19c0,0,.833,11.29.389,14.425,0,0,5.659,4.943,10.989,5.571s13.566-7.538,13.566-7.538l2.041-10s4.832-7.335,5.162-9.288,2.538-1.452,3.623-2.415,3.6-5.27,4.013-9.341.444-8.746-4.284-7.373c-4.1-1.1-1.532-9.763-1.532-9.763l-7.2-6.352Z" transform="translate(-79.798 -64.996)"/><path class="f" d="M170.667,141.045a15.893,15.893,0,0,1-.811,1.823c-2.6,4.9-13.925,14.237-13.925,14.237l-3.422-10.525L150.629,157.1c-3.778-1.645-15.3-11.636-15.3-11.636s-.39-.933-.867-2.389c.378-.134.578-.212.578-.212s-.49-5.445.922-9.1c2.768-4.535,9.047-3.379,9.047-3.379s8.7-3.857,13.4-1.7,9.525.49,11.224,2.478.656,9.736.656,9.736Z" transform="translate(-79.737 -64.632)"/><path class="g" d="M200.956,152.577l-30.519-11.613-.378-.144s.112-.812.2-1.99l-.634,3.956-4.513,6.135a123.57,123.57,0,0,1,14.082,6.207,12.368,12.368,0,0,1,6.47,12.337L180.04,215.57l-2.3,27.317,6.957,7.224c7.336-2.357,33.363-12.059,47.166-34.942C231.863,215.169,218.494,171.315,200.956,152.577ZM195.233,224.1c-1.056.545,3.034-10.791,1.089-13.358s-7.769-2.322-7.769-2.322l.5-3.1c.068-.345,3.457-17.727,3.457-17.727l1.145-1.366s11.869,20.348,13.992,27.516C207.646,213.747,194.71,224.1,195.233,224.1Z" transform="translate(-79.508 -64.551)"/><path class="g" d="M129.881,210.6l-4.746-15.859s-8.508-29.02-14.343-36.177l1.533,20.409s-5.005,24.381-9.64,31.627-5.635,9.046,0,9.046,19.338,10.925,19.338,10.925l-1.056-9.114Zm-11.926,6.135-3.822-3.367,9.59-23.583,4.09,18.1s-6.569-.489-8.813,1.089S117.955,216.733,117.955,216.733Z" transform="translate(-80.004 -64.404)"/><path class="c" d="M140.267,122.5s.876,8.551,0,12.459" transform="translate(-79.694 -64.674)"/><path class="c" d="M165.89,133.785a36.667,36.667,0,0,1,.952-8.17" transform="translate(-79.502 -64.65)"/><path class="c" d="M168.422,85.794s5.173,6.5,4.908,11.409-.663,10.746-.531,16.45-9.153,17.644-13.929,18.7-8.888,1.327-11.94-1.724-6.1-7.3-10.082-12.736-3.051-17.379-3.051-17.379" transform="translate(-79.743 -64.948)"/><path class="c" d="M155.807,104.926a26.866,26.866,0,0,0-.4,5.407,6.151,6.151,0,0,0,1.327,4.235c.571.583,1.4,1.05,1.511,1.859a1.964,1.964,0,0,1-1.063,1.761,14.978,14.978,0,0,0-1.865,1.107" transform="translate(-79.581 -64.805)"/><path class="c" d="M147.648,119.816s.6,3.856,5.77,4.663" transform="translate(-79.639 -64.694)"/><path class="h" d="M148.2,107.859c0,1.114-.482,2.018-1.076,2.018s-1.076-.9-1.076-2.018.482-2.018,1.076-2.018S148.2,106.745,148.2,107.859Z" transform="translate(-79.651 -64.798)"/><path class="h" d="M163.507,108.34c0,1.114-.482,2.018-1.076,2.018s-1.076-.9-1.076-2.018.482-2.017,1.076-2.017S163.507,107.226,163.507,108.34Z" transform="translate(-79.536 -64.795)"/><path class="i" d="M160.4,103.492s5.015-5.015,9.259.578" transform="translate(-79.543 -64.831)"/><path class="i" d="M149.934,103.584s-3.183-3.568-8.2,0" transform="translate(-79.683 -64.827)"/><path class="h" d="M140.656,127.195s3.072,8.467,9.932,10.869S166.557,128,166.557,128l-.476-1.62s-5.969,7.755-12.609,6.432S140.267,122.5,140.267,122.5Z" transform="translate(-79.694 -64.674)"/><path class="c" d="M134.6,112.183s-4.089,1.444-5.177-1.743-4.815-11.574-1.553-14.37,5.883,3.691,5.883,3.691" transform="translate(-79.796 -64.877)"/><path class="c" d="M172.5,113.912s3.8.765,4.888-2.422,4.815-11.574,1.553-14.37-5.883,3.691-5.883,3.691" transform="translate(-79.453 -64.869)"/><path class="h" d="M133.79,108.164a5.666,5.666,0,0,0,3.589-2.12,8.935,8.935,0,0,0,1.043-3.216,38.84,38.84,0,0,0,.569-6.482,8.691,8.691,0,0,1,.228-2.527,6.484,6.484,0,0,1,1.367-2.249c1.428-1.672,3.145-3.085,4.5-4.816a8.036,8.036,0,0,0,1.988-6.088,27.661,27.661,0,0,0,22.642,5.855c7.2-1.411,14.1-7.727,13.264-15.664a6.423,6.423,0,0,0-5.071-5.527c-3.558-.885-6.755,1.012-9.978,2.227-5.876,2.216-11.625-1.589-17.562-2.228-5.078-.546-11.31.084-13.954,5.132,0,0-9.121,1.071-13.115,8.562s3.6,17.861,3.6,17.861,3.057-3.7,6.985,3.79Z" transform="translate(-79.83 -65.103)"/><path class="h" d="M168.737,83.917s-2.359,12.29,3.8,18.241c0,0,1.347-3.694,2.712-4.6a14.248,14.248,0,0,0-1.078-13.644C169.664,76.764,168.737,83.917,168.737,83.917Z" transform="translate(-79.484 -64.986)"/><path class="j" d="M180.278,70.011a11.611,11.611,0,0,1-7.023,7.33c-8.543,3.48-16.841-.38-25.395-1.135-6.991-.619-14.7,5.68-15.186,12.857" transform="translate(-79.751 -65.066)"/><path class="j" d="M127.408,87.141a14.935,14.935,0,0,1,9.1-13.18" transform="translate(-79.79 -65.037)"/><path class="c" d="M138.312,133.731a38.954,38.954,0,0,0,13.3,9.1s10.227-2.966,15.433-10.1" transform="translate(-79.709 -64.597)"/><circle class="c" cx="9.05" cy="9.05" r="9.05" transform="translate(53.271 38.607) rotate(-24.636)"/><circle class="c" cx="9.05" cy="9.05" r="9.05" transform="translate(75.403 35.182) rotate(-7.003)"/><path class="c" d="M140.306,130.374a7.1,7.1,0,0,0-4.353,3.375c-1.6,2.819-.636,11.7-.636,11.7s8.268,8.184,15.31,11.635L152.7,145.4l3.224,11.681s10.9-7.711,13.923-14.23c0,0,.984-7.6,0-10.1a3.483,3.483,0,0,0-3.255-2.381" transform="translate(-79.733 -64.615)"/><path class="c" d="M127.464,208.137s-3.228-21.657-7.53-30.493" transform="translate(-79.846 -64.261)"/><path class="c" d="M110.7,158.563a87.752,87.752,0,0,1,6.689,11.194" transform="translate(-79.915 -64.404)"/><path class="c" d="M195.01,174.69a62.544,62.544,0,0,1,3.554-10.572" transform="translate(-79.284 -64.362)"/><path class="c" d="M188.378,208.111s2.331-14.846,5.107-27.082" transform="translate(-79.334 -64.235)"/><path class="c" d="M192.3,187.276a17.078,17.078,0,0,1,9.009-6.161" transform="translate(-79.304 -64.235)"/><path class="c" d="M170.027,140.8s18.779,7.5,30.9,11.76c0,0,14.911,14.023,30.9,62.591,0,0-14.654,24.644-42.516,32.544" transform="translate(-79.471 -64.536)"/><path class="c" d="M193.966,224.453l13.462-11.241s7.122-5.413,14.529-1.71" transform="translate(-79.292 -64.017)"/><path class="c" d="M193.447,185.881s11.136,16.4,13.985,27.513" transform="translate(-79.296 -64.199)"/><path class="c" d="M118.056,216.947l-3.94-3.756s-5.848-1.023-12.471,3.416" transform="translate(-79.983 -63.995)"/><path class="c" d="M114.023,213.371s4.893-16.074,9.72-24.372" transform="translate(-79.89 -64.176)"/><path class="c" d="M135.345,142.759s-27.011,10.135-29.66,13.086-12.713,59.641-12.978,66.128c-.237,5.8,20.8,18.829,31.2,24.321" transform="translate(-80.05 -64.522)"/><rect class="k" width="43.941" height="31.218" rx="6.532" transform="translate(115.725 37.917)"/><path class="c" d="M209.144,112.058l-8.45,5.3,7.841,6.954" transform="translate(-79.242 -64.752)"/><path class="c" d="M224.373,124.818l7.593-6.471L223.2,112.6" transform="translate(-79.073 -64.748)"/><line class="c" y1="19.558" x2="6.238" transform="translate(134.01 44.493)"/><path class="h" d="M155.1,161.781a1.777,1.777,0,1,1-1.776-1.776A1.776,1.776,0,0,1,155.1,161.781Z" transform="translate(-79.609 -64.393)"/><g transform="translate(37.171 143.876)"><path class="h" d="M186.569,256.009H125.095a1.441,1.441,0,0,1-1.441-1.442h0a1.44,1.44,0,0,1,1.441-1.441h61.475a1.44,1.44,0,0,1,1.441,1.441h0A1.441,1.441,0,0,1,186.569,256.009Z" transform="translate(-116.99 -207.572)"/><path class="k" d="M188.77,251.57l8.238-38.686a4.116,4.116,0,0,0-4.026-4.974H121.158a4.116,4.116,0,0,0-4.039,4.914l7.386,37.4a4.116,4.116,0,0,0,3.944,3.318l56.2,1.288A4.116,4.116,0,0,0,188.77,251.57Z" transform="translate(-117.039 -207.91)"/><path class="h" d="M162.306,230.081a5.734,5.734,0,1,1-5.735-5.734A5.734,5.734,0,0,1,162.306,230.081Z" transform="translate(-116.786 -207.787)"/><line class="c" x2="8.534" transform="translate(56.79 3.671)"/><line class="c" x2="32.393" transform="translate(16.038 3.671)"/></g><path class="h" d="M189.154,292.369l-6.55,17.186s-16.7-4.209-38.09-8.593c-22.37-4.584-45.735-10.519-57.855-31.781-1.477-2.592-2.46-5.655-1.768-8.558,1.749-7.345,11.3-9.338,17.6-10.074a117.149,117.149,0,0,1,11.919-.67c2.028-.028,8.717-1.09,10.336.1a47.383,47.383,0,0,0,7.774,4.606c3.576,1.518,55.781-1.364,55.781-1.364a18.633,18.633,0,0,0,1.642-6.269c8.206-4.17,27.209-7.7,35.238-6.143,12.627,2.455,19.992,9.821,18.589,17.536S214.5,286.757,189.154,292.369Z" transform="translate(-80.11 -63.791)"/><path class="l" d="M188.9,292.207s-15.88-4.209-28.857-12.977-23.116-18.94-41.194-16.835" transform="translate(-79.854 -63.629)"/><path class="l" d="M156.772,277.252c8.2-2.359,14.214-7.66,20.79-12.753a140.78,140.78,0,0,1,22.258-14.626" transform="translate(-79.57 -63.72)"/><line class="c" x2="2.405" transform="translate(74.32 44.493)"/></g></g></svg>