<svg xmlns="http://www.w3.org/2000/svg" width="198.876" height="313.952" viewBox="0 0 198.876 313.952"><defs><style>.a{fill:#92e3a9;}.b,.f,.k{fill:#fff;}.c,.i,.j,.l{fill:none;}.c,.i,.k{stroke:#263238;}.c,.i,.j,.k,.l{stroke-linecap:round;stroke-linejoin:round;}.c,.j,.k,.l{stroke-width:1.103px;}.d{fill:#03e6b0;}.e{fill:#ffaf82;}.f{opacity:0.5;}.g,.j{opacity:0.2;}.h{fill:#263238;}.i{stroke-width:2.206px;}.j,.l{stroke:#fff;}</style></defs><g transform="translate(-208.296 -65.103)"><g transform="translate(208.703 65.103)"><path class="a" d="M163.749,300.163s-35.394,10.152-40.336,11.9c-4.5,1.588-16.68,5.856-25.823,4.537a20,20,0,0,1-2.612-.565c-9.262-2.76-13.423-5.331-14.634-11.161s3.393-10.111,7.836-12.858,28.542-5.613,28.542-5.613l5.816,1.71h.013Z" transform="translate(-80.144 -16.308)"/><path class="b" d="M97.59,316.6a20,20,0,0,1-2.612-.565c-9.262-2.76-13.423-5.331-14.634-11.161s3.393-10.111,7.836-12.858,28.542-5.613,28.542-5.613l5.816,1.71c-5.264,2.423-24.893,3.769-29.175,6.233s-6.355,7.108-3.824,13.383C90.886,311.068,94.493,314.3,97.59,316.6Z" transform="translate(-80.144 -16.308)"/><path class="c" d="M158.389,301.345s-26.582,6.887-37.123,11.3-30.651,6.337-37.815-2.755-.826-16.914,6.337-18.65,21.648-4.493,29.558-3.391" transform="translate(-80.109 -16.046)"/><path class="c" d="M96.672,315.811S83.148,308.395,87.639,298c3.314-7.671,21.357-6.007,30.291-10.2" transform="translate(-78.693 -16)"/><path class="a" d="M250.3,318.368c-.364,3.621-1.643,7.095-5.3,9.249-2.437,1.441-5.911,2.3-10.879,2.249-12.412-.162-35.745-9.034-35.745-9.034l-21.85-12.077,11.363-17.988,3.11-4.927,8.038,1.8s6.65,3.77,13.341,6.773,22.928,3.635,28.65,8.266S250.919,312.337,250.3,318.368Z" transform="translate(-58.893 -16.432)"/><path class="b" d="M248.247,318.368c-.364,3.621-1.643,7.095-5.3,9.249a16.371,16.371,0,0,0-.62-10.905c-2.423-5.48-10.38-10.313-20.828-11.12s-18.444-5.7-22.632-7.877c-3.272-1.7-10.164-5.4-13.032-6.947l3.11-4.927,8.038,1.8s6.65,3.77,13.341,6.773,22.928,3.635,28.65,8.266S248.866,312.337,248.247,318.368Z" transform="translate(-56.841 -16.432)"/><path class="c" d="M180.9,310.829c15.555,8.911,33.346,15.327,51.144,17.471,3.974.478,8.6.544,11.263-2.443a8.326,8.326,0,0,0,1.834-6.243c-.482-5.609-5.2-10.057-10.371-12.281s-10.884-2.753-16.378-3.985a64.75,64.75,0,0,1-15.75-5.762c-3.948-2.061-7.772-4.563-12.13-5.486s-9.549.2-11.873,4" transform="translate(-58.427 -15.119)"/><path class="c" d="M239.814,328.367c4.022-2.064,7.323-5.855,7.993-10.325.792-5.287-2.219-10.6-6.461-13.854s-9.544-4.779-14.779-5.868S215.979,296.5,211,294.556c-7.656-2.991-15.207-8.9-23.153-6.793" transform="translate(-56.397 -16.106)"/><path class="d" d="M224.589,157.865,187.618,143.8l-.458-.175s.135-.984.243-2.41c.228-2.949.35-7.755-1.037-9.384-2.059-2.409-7.9-.391-13.6-3s-16.236,2.06-16.236,2.06-7.607-1.4-10.96,4.094c-1.71,4.429-1.117,11.026-1.117,11.026s-.243.094-.7.256c-4.4,1.642-28.367,10.662-33.443,14.285-5.6,3.971-11.794,44.7-13.787,56.653s-5.534,22.74-3.729,26.859S120.342,268,135.152,273.111s67.358,3.622,67.358,3.622.862-.229,2.382-.714c8.886-2.855,40.417-14.608,57.139-42.329C262.03,233.69,245.835,180.565,224.589,157.865Zm-99.885,68.5c-2.719,1.926-1.266,9.4-1.266,9.4l-4.631-4.079,11.618-28.569,4.955,21.931S127.423,224.455,124.7,226.366Zm92.952,18.149c-1.279.66,3.675-13.073,1.319-16.183s-9.411-2.813-9.411-2.813l.605-3.757c.082-.417,4.188-21.475,4.188-21.475l1.386-1.655s14.379,24.65,16.95,33.334C232.693,231.967,217.022,244.515,217.656,244.515Z" transform="translate(-77.464 -51.228)"/><path class="e" d="M147.275,79.466,128.2,99.725s-2.633,2.325-1.587,8.2,3.481,10.926,5.321,11.318a26.154,26.154,0,0,0,4.418.4s4.089,8.861,6.985,12.344c0,0,1.009,13.677.471,17.475,0,0,6.856,5.988,13.312,6.749s16.434-9.132,16.434-9.132l2.473-12.111s5.853-8.885,6.254-11.252,3.074-1.759,4.389-2.926,4.36-6.384,4.861-11.316.538-10.6-5.19-8.932c-4.964-1.334-1.856-11.827-1.856-11.827l-8.722-7.7Z" transform="translate(-69.953 -61.936)"/><path class="f" d="M178.322,143.8A19.256,19.256,0,0,1,177.34,146c-3.15,5.938-16.87,17.247-16.87,17.247l-4.146-12.75-2.276,12.75c-4.577-1.993-18.538-14.1-18.538-14.1s-.472-1.13-1.051-2.894c.458-.162.7-.256.7-.256s-.593-6.6,1.117-11.026c3.353-5.493,10.96-4.094,10.96-4.094s10.541-4.672,16.236-2.06,11.539.593,13.6,3,.795,11.795.795,11.795Z" transform="translate(-68.168 -51.228)"/><path class="g" d="M208.534,155.484l-36.971-14.069-.458-.175s.135-.984.243-2.41l-.768,4.793-5.467,7.432a149.7,149.7,0,0,1,17.059,7.519,14.982,14.982,0,0,1,7.838,14.945L183.2,231.795l-2.786,33.092,8.428,8.751c8.886-2.855,40.417-14.608,57.139-42.329C245.975,231.309,229.779,178.184,208.534,155.484Zm-6.934,86.65c-1.279.66,3.675-13.073,1.319-16.183s-9.411-2.813-9.411-2.813l.605-3.757c.082-.417,4.188-21.475,4.188-21.475l1.386-1.655s14.379,24.65,16.95,33.334C216.638,229.586,200.967,242.134,201.6,242.134Z" transform="translate(-61.409 -48.847)"/><path class="g" d="M136.447,221.6l-5.75-19.212s-10.307-35.155-17.375-43.825l1.858,24.724S109.116,212.822,103.5,221.6s-6.826,10.959,0,10.959,23.426,13.235,23.426,13.235l-1.279-11.041ZM122,229.032l-4.631-4.079,11.618-28.569,4.955,21.931s-7.958-.592-10.677,1.319S122,229.032,122,229.032Z" transform="translate(-76.025 -44.496)"/><path class="c" d="M140.267,122.5s1.061,10.358,0,15.093" transform="translate(-66.887 -52.448)"/><path class="c" d="M165.89,135.512a44.42,44.42,0,0,1,1.153-9.9" transform="translate(-61.238 -51.761)"/><path class="c" d="M175.762,85.794s6.267,7.875,5.946,13.821-.8,13.018-.643,19.928-11.088,21.374-16.875,22.66-10.767,1.607-14.464-2.088-7.393-8.84-12.213-15.428-3.7-21.054-3.7-21.054" transform="translate(-68.334 -60.541)"/><path class="c" d="M155.911,104.926a32.544,32.544,0,0,0-.488,6.55c.049,1.836.321,3.82,1.607,5.131.692.707,1.7,1.272,1.831,2.252a2.38,2.38,0,0,1-1.288,2.133,18.146,18.146,0,0,0-2.259,1.341" transform="translate(-63.569 -56.322)"/><path class="c" d="M147.648,119.816s.725,4.671,6.99,5.648" transform="translate(-65.26 -53.039)"/><path class="h" d="M148.653,108.286c0,1.35-.583,2.445-1.3,2.445s-1.3-1.095-1.3-2.445.583-2.445,1.3-2.445S148.653,106.936,148.653,108.286Z" transform="translate(-65.613 -56.121)"/><path class="h" d="M163.962,108.766c0,1.35-.583,2.445-1.3,2.445s-1.3-1.095-1.3-2.445.583-2.443,1.3-2.443S163.962,107.417,163.962,108.766Z" transform="translate(-62.237 -56.014)"/><path class="i" d="M160.4,103.929s6.076-6.076,11.216.7" transform="translate(-62.447 -57.094)"/><path class="i" d="M151.667,103.919s-3.856-4.322-9.931,0" transform="translate(-66.563 -56.968)"/><path class="h" d="M140.738,128.188s3.721,10.257,12.032,13.167,19.346-12.189,19.346-12.189l-.576-1.963S164.308,136.6,156.265,135s-16-12.5-16-12.5Z" transform="translate(-66.887 -52.448)"/><path class="c" d="M136.3,115.738s-4.954,1.749-6.272-2.111-5.833-14.021-1.881-17.408,7.126,4.472,7.126,4.472" transform="translate(-69.908 -58.429)"/><path class="c" d="M172.5,117.61s4.6.926,5.922-2.934,5.833-14.021,1.881-17.408-7.126,4.472-7.126,4.472" transform="translate(-59.78 -58.198)"/><path class="h" d="M136.253,117.268A6.865,6.865,0,0,0,140.6,114.7a10.824,10.824,0,0,0,1.263-3.9,47.053,47.053,0,0,0,.69-7.853,10.528,10.528,0,0,1,.276-3.061,7.854,7.854,0,0,1,1.656-2.724c1.729-2.026,3.81-3.737,5.454-5.834s2.852-4.749,2.408-7.375c0,0,11.235,10.269,27.429,7.094,8.718-1.71,17.087-9.361,16.068-18.976a7.781,7.781,0,0,0-6.143-6.7c-4.311-1.072-8.183,1.225-12.088,2.7-7.118,2.685-14.083-1.925-21.276-2.7-6.151-.662-13.7.1-16.9,6.217,0,0-11.049,1.3-15.888,10.372s4.36,21.637,4.36,21.637,3.7-4.482,8.462,4.592Z" transform="translate(-70.884 -65.103)"/><path class="h" d="M168.831,84.589s-2.857,14.889,4.6,22.1c0,0,1.632-4.476,3.286-5.568a17.261,17.261,0,0,0-1.306-16.529C169.954,75.924,168.831,84.589,168.831,84.589Z" transform="translate(-60.708 -61.656)"/><path class="j" d="M190.342,70.011c-1.1,4.1-4.573,7.278-8.508,8.88-10.35,4.216-20.4-.46-30.764-1.375-8.469-.749-17.806,6.881-18.4,15.575" transform="translate(-68.561 -64.021)"/><path class="j" d="M127.408,89.927a18.093,18.093,0,0,1,11.023-15.966" transform="translate(-69.722 -63.15)"/><path class="c" d="M138.312,133.942s6.818,7.515,16.117,11.027c0,0,12.389-3.593,18.7-12.232" transform="translate(-67.318 -50.19)"/><circle class="c" cx="10.964" cy="10.964" r="10.964" transform="translate(64.534 46.77) rotate(-24.636)"/><circle class="c" cx="10.963" cy="10.963" r="10.963" transform="translate(91.345 42.62) rotate(-7.003)"/><path class="c" d="M141.422,130.374a8.6,8.6,0,0,0-5.274,4.089c-1.941,3.415-.77,14.17-.77,14.17s10.017,9.914,18.547,14.1l2.517-14.15,3.906,14.15s13.209-9.342,16.867-17.238c0,0,1.192-9.207,0-12.232a4.219,4.219,0,0,0-3.943-2.884" transform="translate(-68.042 -50.711)"/><path class="c" d="M129.056,214.583s-3.91-26.236-9.122-36.939" transform="translate(-71.37 -40.289)"/><path class="c" d="M110.7,158.563a106.3,106.3,0,0,1,8.1,13.561" transform="translate(-73.406 -44.496)"/><path class="c" d="M195.01,176.925a75.768,75.768,0,0,1,4.306-12.807" transform="translate(-54.817 -43.271)"/><path class="c" d="M188.378,213.837s2.824-17.985,6.187-32.808" transform="translate(-56.279 -39.542)"/><path class="c" d="M192.3,188.578a20.688,20.688,0,0,1,10.914-7.463" transform="translate(-55.414 -39.523)"/><path class="c" d="M170.027,140.8s22.749,9.087,37.43,14.247c0,0,18.063,16.988,37.429,75.824,0,0-17.752,29.855-51.5,39.424" transform="translate(-60.325 -48.412)"/><path class="c" d="M193.966,227.465l16.308-13.617s8.628-6.558,17.6-2.071" transform="translate(-55.047 -33.109)"/><path class="c" d="M193.447,185.881s13.49,19.871,16.942,33.33" transform="translate(-55.161 -38.472)"/><path class="c" d="M121.526,217.762l-4.773-4.55s-7.085-1.239-15.107,4.139" transform="translate(-75.403 -32.473)"/><path class="c" d="M114.023,218.524S119.951,199.051,125.8,189" transform="translate(-72.674 -37.785)"/><path class="c" d="M144.36,142.759s-32.721,12.278-35.931,15.853-15.4,72.251-15.722,80.11c-.287,7.025,25.2,22.81,37.793,29.463" transform="translate(-77.374 -47.98)"/><rect class="k" width="53.231" height="37.819" rx="6.532" transform="translate(140.193 45.933)"/><path class="c" d="M210.931,112.058l-10.236,6.426,9.5,8.425" transform="translate(-53.563 -54.75)"/><path class="c" d="M224.621,127.4l9.2-7.84L223.2,112.6" transform="translate(-48.601 -54.63)"/><line class="c" y1="23.693" x2="7.556" transform="translate(162.344 53.9)"/><path class="h" d="M155.856,162.157a2.152,2.152,0,1,1-2.152-2.152A2.152,2.152,0,0,1,155.856,162.157Z" transform="translate(-64.399 -44.178)"/><g transform="translate(45.03 174.295)"><path class="h" d="M199.871,256.619H125.4a1.746,1.746,0,0,1-1.745-1.747h0a1.745,1.745,0,0,1,1.745-1.745h74.472a1.745,1.745,0,0,1,1.745,1.745h0A1.746,1.746,0,0,1,199.871,256.619Z" transform="translate(-115.581 -197.94)"/><path class="k" d="M203.936,260.8l9.98-46.866a4.986,4.986,0,0,0-4.877-6.026h-87.01a4.986,4.986,0,0,0-4.893,5.952l8.947,45.307a4.986,4.986,0,0,0,4.778,4.019l68.083,1.56A4.986,4.986,0,0,0,203.936,260.8Z" transform="translate(-117.039 -207.91)"/><path class="h" d="M164.731,231.293a6.946,6.946,0,1,1-6.947-6.946A6.946,6.946,0,0,1,164.731,231.293Z" transform="translate(-109.587 -204.286)"/><line class="c" x2="10.338" transform="translate(68.797 4.447)"/><line class="c" x2="39.241" transform="translate(19.429 4.447)"/></g><path class="h" d="M211.246,303.349l-7.934,20.819s-20.226-5.1-46.143-10.41c-27.1-5.553-55.4-12.743-70.087-38.5-1.789-3.14-2.98-6.851-2.142-10.367,2.119-8.9,13.693-11.313,21.322-12.2a141.921,141.921,0,0,1,14.438-.812c2.457-.034,10.56-1.321,12.521.122a57.4,57.4,0,0,0,9.417,5.58c4.332,1.839,67.575-1.653,67.575-1.653a22.573,22.573,0,0,0,1.989-7.594c9.941-5.052,32.962-9.332,42.688-7.441,15.3,2.974,24.218,11.9,22.519,21.244S241.955,296.551,211.246,303.349Z" transform="translate(-79.147 -26.444)"/><path class="l" d="M203.709,298.569s-19.237-5.1-34.959-15.721-28-22.944-49.9-20.394" transform="translate(-71.61 -21.663)"/><path class="l" d="M156.772,283.041c9.93-2.857,17.219-9.279,25.186-15.449,8.44-6.535,17.365-12.862,26.964-17.718" transform="translate(-63.248 -24.362)"/><line class="c" x2="2.913" transform="translate(90.033 53.9)"/></g></g></svg>