<svg xmlns="http://www.w3.org/2000/svg" width="220.245" height="200.598" viewBox="0 0 220.245 200.598"><defs><style>.a,.f{fill:#263238;}.a,.c,.d,.e,.g{stroke:#263238;}.a,.b,.c,.d,.e,.g{stroke-linecap:round;stroke-linejoin:round;}.b,.e{fill:none;}.b{stroke:gray;}.c{fill:#fff;}.d{fill:#92e3a9;}.g{fill:#dbdbdb;}</style></defs><g transform="translate(0.455 0.5)"><g transform="translate(0 65.723)"><path class="a" d="M235.974,250.124s-32.748,19.044-42.038,24.154-15.794,7.664-15.794,11.38v94.724H325.857s-3.019-93.562-3.948-96.117-50.864-34.141-53.883-35.071S235.974,250.124,235.974,250.124Z" transform="translate(-136.879 -248.934)"/><g transform="translate(138.084 35.311)"><path class="a" d="M328.278,288.2s2.556-2.323,4.878,1.393,24.155,49.238,24.619,53.651-1.859,4.413-.929,7.2,9.522,18.348,8.129,22.761-7.019,10.167-9.342,10.4-49.47,0-49.47,0a16.955,16.955,0,0,1-9.006-5.523c-3.484-4.412-12.773-16.722-12.773-18.813s10.219-9.522,12.309-11.845,8.594-2.09,9.523-2.787,12.542-27.406,15.328-34.374a113.368,113.368,0,0,0,4.413-13.7" transform="translate(-283.888 -287.483)"/><path class="b" d="M297.111,379.435s-16.218-17.141-12.794-21.543S303.4,346.641,303.4,346.641l19.078-43.048" transform="translate(-283.843 -288.837)"/><path class="b" d="M308.217,349.879s6.038,2.556,9.057,5.11,23.69,9.754,36,9.987" transform="translate(-285.89 -292.725)"/><path class="b" d="M318.359,348.672s18.58,3.948,35.3-4.878" transform="translate(-286.742 -292.214)"/><path class="b" d="M331.921,298.408s-2.322,19.974-4.18,26.709" transform="translate(-287.53 -288.401)"/><path class="b" d="M337.883,300.943c.464.7,5.574,20.9,5.574,28.8" transform="translate(-288.382 -288.614)"/></g><g transform="translate(0 29.988)"><path class="a" d="M181.791,281.673s-9.754,2.787-11.845,5.806S148.115,316.047,146.489,320s4.412,17.418,4.412,19.741-19.741,29.5-17.651,35.3,9.29,7.9,9.29,7.9h68.283s5.342-10.916,10.916-14.864,8.361-3.02,9.755-5.11-.464-5.806-5.109-8.129-17.652-7.2-17.652-7.2,3.252-2.09.93-3.716-11.381-6.039-12.31-7.432-9.754-24.619-12.542-35.767" transform="translate(-133.095 -281.673)"/><path class="b" d="M234.172,364.691s6.135-4.163,1.467-6.359-20.546-8.316-20.546-8.316,3.424-4.4.978-5.381-14.133-6.847-14.133-6.847l-14.24-40.6" transform="translate(-137.682 -282.976)"/><path class="b" d="M154.309,329.342s32.748,8.826,27.638,9.522-20.67,0-22.529.464" transform="translate(-134.877 -285.678)"/><path class="b" d="M209.926,349.879s-34.838,6.271-32.051,6.968,30.89-2.787,30.89-2.787" transform="translate(-136.843 -287.403)"/><path class="b" d="M180.655,295.112s-3.019,24.618-3.019,30.657" transform="translate(-136.837 -282.802)"/><path class="b" d="M176.447,294.351s-6.735,15.1-7.432,21.367" transform="translate(-136.112 -282.738)"/></g><g transform="translate(59.148 42.066)"><line class="b" x2="45.289"/><line class="b" x2="37.625" transform="translate(76.411 0.232)"/><line class="b" x1="5.342" y2="41.806" transform="translate(49.47 13.703)"/><line class="b" y2="35.303" transform="translate(57.134 20.206)"/><line class="b" x2="4.413" y2="44.36" transform="translate(61.547 13.703)"/></g></g><g transform="translate(96.922 60.049)"><path class="c" d="M239.119,242.74s-.959,19.648,1.2,28.993,16.054,33.546,19.887,30.431,17.013-29.233,17.492-35.942.24-23.482.24-23.482-13.178,8.147-22.044,5.991A95.228,95.228,0,0,1,239.119,242.74Z" transform="translate(-238.906 -242.74)"/><path class="a" d="M238.927,249.748c4.424,3.943,10.347,7.731,12.527,8.167,3.293.659,11.541.583,14.175-.734a96.01,96.01,0,0,0,12.364-7.507c-.014-3.951-.056-6.935-.056-6.935s-13.178,8.147-22.044,5.991a95.228,95.228,0,0,1-16.773-5.991S238.979,245.646,238.927,249.748Z" transform="translate(-238.908 -242.74)"/><path class="c" d="M278,254.189c-2.6,5.776-10.511,21.445-19.707,20.662-8.115-.69-15.607-11.084-19.339-17.107a81.586,81.586,0,0,0,1.368,14.951c2.156,9.345,16.054,33.546,19.887,30.431s17.013-29.233,17.492-35.942C277.919,264.106,277.988,258.912,278,254.189Z" transform="translate(-238.91 -243.702)"/><path class="d" d="M260.163,277.335c-.544.067-.16-.541-.714-.589-.49-.041-.147.576-.632.466l-5.838,6.722,4.792,5.991-4.073,6.23s-.469.621-.97,1.313c3.58,5.281,7.013,8.873,8.637,7.553,1.422-1.155,4.127-5.472,6.993-10.788l-5.076-4.069,3.354-5.511Z" transform="translate(-240.067 -245.597)"/><path class="e" d="M248.032,288.967l11.022-12.22,11.741,12.22" transform="translate(-239.673 -245.597)"/></g><g transform="translate(84.451)"><path class="c" d="M232.825,218.942s-2.331-4.467-4.468-4.273-4.662,3.691-1.749,9.518,5.828,5.634,6.023,3.3S232.825,218.942,232.825,218.942Z" transform="translate(-225.291 -180.332)"/><path class="f" d="M227.577,222.785s-1.227-5.08,1.226-4.554,4.38,4.379,4.38,4.379S228.016,217.753,227.577,222.785Z" transform="translate(-225.457 -180.629)"/><path class="c" d="M285.1,218.942s2.331-4.467,4.468-4.273,4.662,3.691,1.749,9.518-5.828,5.634-6.023,3.3S285.1,218.942,285.1,218.942Z" transform="translate(-230.315 -180.332)"/><path class="f" d="M285.553,222.775s4.554-6.832,5.255-4.029a5.721,5.721,0,0,1-.35,4.379S290.19,217.442,285.553,222.775Z" transform="translate(-230.353 -180.618)"/><g transform="translate(6.859 2.755)"><path class="c" d="M235.148,188.753s-3.952,40.5-1.647,45.441,14.144,13.247,17.437,13.9,11.541.583,14.175-.734,15.477-8.232,16.794-12.184-2.634-41.82-4.28-46.759-12.513-8.232-22.392-8.232S236.135,185.789,235.148,188.753Z" transform="translate(-232.779 -180.191)"/><path class="a" d="M239.871,191.965s7.881,9.359,17.278,11.406,19.244-1.571,19.244-1.571Z" transform="translate(-233.375 -181.18)"/><path class="e" d="M263.488,209.791s-1.554,4.468-1.554,5.051.778,8.936.778,8.936" transform="translate(-235.228 -182.678)"/><path class="e" d="M245.6,229.651c.194-1.165,7.965-4.273,7.965-4.273s-2.526,1.748-.972,2.331,5.633,3.5,6.994,2.914,6.8-3.3,6.994-4.08-.777-2.331-.777-2.331,6.022,4.274,6.6,5.828" transform="translate(-233.856 -183.889)"/><path class="g" d="M252.536,206.248s-5.245-2.915-7.965-.972-2.137,3.108-1.36,3.108,2.137-1.748,3.886-1.748S251.954,208.384,252.536,206.248Z" transform="translate(-233.601 -182.242)"/><path class="g" d="M264.408,206.248s5.245-2.915,7.965-.972,2.137,3.108,1.36,3.108-2.137-1.748-3.886-1.748S264.991,208.384,264.408,206.248Z" transform="translate(-235.436 -182.242)"/><ellipse class="f" cx="1.457" cy="2.137" rx="1.457" ry="2.137" transform="translate(12.913 30.804)"/><ellipse class="f" cx="1.457" cy="2.137" rx="1.457" ry="2.137" transform="translate(31.757 30.804)"/><path class="e" d="M247.089,231.794s2.331,2.72,3.691,3.3,12.822.972,16.318.194a4.97,4.97,0,0,0,3.886-4.079" transform="translate(-233.981 -184.477)"/><path class="e" d="M251.343,218.274s-.194,3.5-6.8,5.051" transform="translate(-233.767 -183.39)"/><path class="e" d="M266.388,218.7s2.232,3.183,7.866,3.571" transform="translate(-235.602 -183.426)"/></g><path class="g" d="M278.476,202.926s-.987,3.622.659,5.6,2.963,3.293,2.963,3.293-.329,6.256,1.647,6.256,1.317-2.963,1.317-2.963l-.988-15.147Z" transform="translate(-229.734 -179.097)"/><path class="g" d="M238.056,190.146s11.525,9.22,23.05,10.866,20.416.987,21.733-2.634,3.015-12.942-8.839-17.552-26.225-5.245-34.3.43a10.319,10.319,0,0,0-4.61,7.245s-2.964.987-2.964,3.622v22.72h2.306s-.659-7.9,2.3-9.549,5.269-5.268,5.269-7.9S238.056,190.146,238.056,190.146Z" transform="translate(-225.865 -177.184)"/></g><g transform="translate(77.728 177.233)"><g transform="translate(8.345 4.77)"><path class="c" d="M239.36,375.879s19.958,6.73,23.207,7.89,10.908,5.569,10.908,6.962-.232,1.624-1.625,1.624h-18.8c-1.161,0-21.078.239-22.026-.344a16.835,16.835,0,0,0-3.965-1.048S230.774,376.575,239.36,375.879Z" transform="translate(-227.061 -375.879)"/><path class="c" d="M247.075,389.56s9.051,1.857,12.532,3.945" transform="translate(-228.742 -377.028)"/><path class="c" d="M252.142,385.506s10.676,4.178,13.461,7.659" transform="translate(-229.168 -376.688)"/><path class="c" d="M258.729,384.24s10.443,4.641,13.461,8.354" transform="translate(-229.721 -376.581)"/></g><path class="c" d="M233.513,370.671l8.129,4.645s-8.129,4.181-10.451,8.361-3.948,7.432-3.948,7.432h-9.291S218.648,378.335,233.513,370.671Z" transform="translate(-217.951 -370.671)"/><path class="c" d="M281.9,377.052s-.822-1.908.171-3.015,9.46-2.717,13.052-.418,7.017,11.567,6.857,14.349-10.235,4.069-13.416,2.724S281.9,377.052,281.9,377.052Z" transform="translate(-223.296 -370.82)"/><g transform="translate(11.436 3.632)"><path class="c" d="M279.791,375.5l-4.922.649s-28.017-2.3-29.707-1.231-14.727,17.538-14.727,17.538l16,.913s13.356-5.751,14.516-5.685,6.591,2.7,10.739,3.4,14.277-1.511,14.277-1.511,1.086-2.73-.941-7.964S279.791,375.5,279.791,375.5Z" transform="translate(-230.436 -374.636)"/><path class="c" d="M243.6,393.823s11.752-10.263,13.428-11.1" transform="translate(-231.542 -375.315)"/><line class="c" x1="12.13" y2="12.8" transform="translate(7.679 4.993)"/><line class="c" x1="12.017" y2="14.9" transform="translate(3.247 3.105)"/></g></g></g></svg>